<svg version="1.1" viewBox="0.0 0.0 490.0 304.0" fill="none" stroke="none" stroke-linecap="square" stroke-miterlimit="10" width="490" height="304" xmlns:xlink="http://www.w3.org/1999/xlink" xmlns="http://www.w3.org/2000/svg"><path fill="#ffffff" d="M0 0L490.0 0L490.0 304.0L0 304.0L0 0Z" fill-rule="nonzero"/><path fill="#ea4335" d="M168.86816 233.13184C138.07571 202.33939 128.86421 156.03003 145.52898 115.79775C162.19373 75.565475 201.4529 49.333332 245.0 49.333332L245.0 157.0Z" fill-rule="nonzero"/><path fill="#4285f4" d="M245.0 49.333332C293.73053 49.333332 336.38562 82.06372 348.99802 129.13382C361.6104 176.2039 341.03522 225.8768 298.83334 250.24207C256.63144 274.60733 203.32587 267.58954 168.86816 233.13184L245.0 157.0Z" fill-rule="nonzero"/><path fill="#000000" d="M298.41086 181.95871L297.1921 182.05246Q297.02023 181.31808 296.72336 180.98996Q296.22336 180.47433 295.48898 180.47433Q294.89523 180.47433 294.45773 180.80246Q293.8796 181.22433 293.53586 182.03683Q293.20773 182.84933 293.1921 184.34933Q293.6296 183.67746 294.27023 183.34933Q294.92648 183.02121 295.6296 183.02121Q296.86398 183.02121 297.72336 183.92746Q298.58273 184.83371 298.58273 186.27121Q298.58273 187.20871 298.17648 188.02121Q297.77023 188.83371 297.05148 189.27121Q296.34836 189.69308 295.4421 189.69308Q293.91086 189.69308 292.9421 188.56808Q291.97336 187.42746 291.97336 184.83371Q291.97336 181.92746 293.03586 180.59933Q293.97336 179.45871 295.5671 179.45871Q296.7546 179.45871 297.5046 180.13058Q298.2546 180.78683 298.41086 181.95871ZM293.3796 186.27121Q293.3796 186.91183 293.64523 187.48996Q293.92648 188.06808 294.41086 188.38058Q294.89523 188.67746 295.42648 188.67746Q296.20773 188.67746 296.77023 188.05246Q297.33273 187.42746 297.33273 186.34933Q297.33273 185.30246 296.77023 184.70871Q296.22336 184.09933 295.3796 184.09933Q294.55148 184.09933 293.95773 184.70871Q293.3796 185.30246 293.3796 186.27121ZM306.48898 188.33371L306.48898 189.52121L299.86398 189.52121Q299.84836 189.08371 300.0046 188.66183Q300.27023 187.98996 300.8171 187.33371Q301.3796 186.67746 302.42648 185.81808Q304.0671 184.47433 304.6296 183.69308Q305.20773 182.91183 305.20773 182.20871Q305.20773 181.47433 304.67648 180.97433Q304.16086 180.47433 303.33273 180.47433Q302.4421 180.47433 301.89523 181.00558Q301.36398 181.53683 301.36398 182.48996L300.09836 182.34933Q300.22336 180.94308 301.0671 180.20871Q301.92648 179.45871 303.34836 179.45871Q304.80148 179.45871 305.6296 180.25558Q306.47336 181.05246 306.47336 182.23996Q306.47336 182.84933 306.22336 183.42746Q305.98898 184.00558 305.41086 184.64621Q304.84836 185.28683 303.52023 186.41183Q302.41086 187.33371 302.09836 187.67746Q301.78586 188.00558 301.58273 188.33371L306.48898 188.33371ZM308.70773 189.52121L308.70773 188.11496L310.11398 188.11496L310.11398 189.52121L308.70773 189.52121ZM312.02023 186.89621L313.3171 186.78683Q313.45773 187.72433 313.97336 188.20871Q314.5046 188.67746 315.23898 188.67746Q316.1296 188.67746 316.73898 188.00558Q317.36398 187.33371 317.36398 186.23996Q317.36398 185.17746 316.77023 184.56808Q316.17648 183.95871 315.22336 183.95871Q314.6296 183.95871 314.14523 184.23996Q313.67648 184.50558 313.39523 184.92746L312.23898 184.78683L313.20773 179.63058L318.1921 179.63058L318.1921 180.81808L314.1921 180.81808L313.66086 183.50558Q314.5671 182.88058 315.55148 182.88058Q316.86398 182.88058 317.7546 183.78683Q318.66086 184.69308 318.66086 186.13058Q318.66086 187.48996 317.8796 188.47433Q316.91086 189.69308 315.23898 189.69308Q313.8796 189.69308 313.0046 188.92746Q312.14523 188.16183 312.02023 186.89621ZM320.2546 181.91183Q320.2546 180.83371 320.78586 180.08371Q321.33273 179.33371 322.36398 179.33371Q323.30148 179.33371 323.91086 180.00558Q324.53586 180.67746 324.53586 181.97433Q324.53586 183.25558 323.91086 183.94308Q323.28586 184.63058 322.3796 184.63058Q321.47336 184.63058 320.86398 183.95871Q320.2546 183.27121 320.2546 181.91183ZM322.39523 180.17746Q321.9421 180.17746 321.6296 180.58371Q321.33273 180.97433 321.33273 182.02121Q321.33273 182.98996 321.6296 183.38058Q321.9421 183.77121 322.39523 183.77121Q322.86398 183.77121 323.16086 183.38058Q323.47336 182.98996 323.47336 181.92746Q323.47336 180.95871 323.16086 180.56808Q322.84836 180.17746 322.39523 180.17746ZM322.39523 189.89621L327.8796 179.33371L328.8796 179.33371L323.42648 189.89621L322.39523 189.89621ZM326.73898 187.16183Q326.73898 186.08371 327.27023 185.34933Q327.8171 184.59933 328.84836 184.59933Q329.78586 184.59933 330.41086 185.27121Q331.03586 185.94308 331.03586 187.23996Q331.03586 188.52121 330.41086 189.20871Q329.78586 189.89621 328.84836 189.89621Q327.9421 189.89621 327.33273 189.22433Q326.73898 188.53683 326.73898 187.16183ZM328.8796 185.44308Q328.41086 185.44308 328.11398 185.84933Q327.8171 186.23996 327.8171 187.28683Q327.8171 188.25558 328.11398 188.64621Q328.42648 189.03683 328.8796 189.03683Q329.34836 189.03683 329.64523 188.64621Q329.95773 188.25558 329.95773 187.19308Q329.95773 186.22433 329.64523 185.83371Q329.34836 185.44308 328.8796 185.44308Z" fill-rule="nonzero"/><path fill="#000000" d="M159.15166 131.83817L160.3704 131.66629Q160.58916 132.71317 161.08916 133.18192Q161.60478 133.63504 162.33916 133.63504Q163.21416 133.63504 163.8079 133.04129Q164.40166 132.43192 164.40166 131.54129Q164.40166 130.69754 163.83916 130.15067Q163.29228 129.60379 162.44853 129.60379Q162.08916 129.60379 161.57353 129.72879L161.71416 128.65067Q161.83916 128.66629 161.90166 128.66629Q162.69853 128.66629 163.32353 128.26004Q163.94853 127.85379 163.94853 126.994415Q163.94853 126.32254 163.4954 125.88504Q163.04228 125.431915 162.3079 125.431915Q161.58916 125.431915 161.10478 125.88504Q160.63603 126.32254 160.4954 127.22879L159.27666 127.01004Q159.4954 125.775665 160.29228 125.10379Q161.08916 124.41629 162.27666 124.41629Q163.10478 124.41629 163.79228 124.775665Q164.47978 125.119415 164.83916 125.72879Q165.21416 126.338165 165.21416 127.025665Q165.21416 127.66629 164.8704 128.19754Q164.52666 128.72879 163.83916 129.05692Q164.72978 129.26004 165.21416 129.90067Q165.71416 130.54129 165.71416 131.52567Q165.71416 132.83817 164.7454 133.74442Q163.79228 134.65067 162.33916 134.65067Q161.01103 134.65067 160.13603 133.86942Q159.27666 133.08817 159.15166 131.83817ZM167.21416 125.775665L167.21416 124.588165L173.71416 124.588165L173.71416 125.54129Q172.7454 126.556915 171.8079 128.24442Q170.8704 129.93192 170.35478 131.72879Q169.9954 132.97879 169.88603 134.47879L168.6204 134.47879Q168.63603 133.29129 169.07353 131.61942Q169.52666 129.94754 170.35478 128.40067Q171.19853 126.838165 172.13603 125.775665L167.21416 125.775665ZM175.82353 134.47879L175.82353 133.07254L177.22978 133.07254L177.22978 134.47879L175.82353 134.47879ZM179.13603 131.85379L180.4329 131.74442Q180.57353 132.68192 181.08916 133.16629Q181.6204 133.63504 182.35478 133.63504Q183.2454 133.63504 183.85478 132.96317Q184.47978 132.29129 184.47978 131.19754Q184.47978 130.13504 183.88603 129.52567Q183.29228 128.91629 182.33916 128.91629Q181.7454 128.91629 181.26103 129.19754Q180.79228 129.46317 180.51103 129.88504L179.35478 129.74442L180.32353 124.588165L185.3079 124.588165L185.3079 125.775665L181.3079 125.775665L180.77666 128.46317Q181.6829 127.838165 182.66728 127.838165Q183.97978 127.838165 184.8704 128.74442Q185.77666 129.65067 185.77666 131.08817Q185.77666 132.44754 184.9954 133.43192Q184.02666 134.65067 182.35478 134.65067Q180.9954 134.65067 180.1204 133.88504Q179.26103 133.11942 179.13603 131.85379ZM187.3704 126.869415Q187.3704 125.79129 187.90166 125.04129Q188.44853 124.29129 189.47978 124.29129Q190.41728 124.29129 191.02666 124.963165Q191.65166 125.63504 191.65166 126.931915Q191.65166 128.21317 191.02666 128.90067Q190.40166 129.58817 189.4954 129.58817Q188.58916 129.58817 187.97978 128.91629Q187.3704 128.22879 187.3704 126.869415ZM189.51103 125.13504Q189.0579 125.13504 188.7454 125.54129Q188.44853 125.931915 188.44853 126.97879Q188.44853 127.94754 188.7454 128.33817Q189.0579 128.72879 189.51103 128.72879Q189.97978 128.72879 190.27666 128.33817Q190.58916 127.94754 190.58916 126.88504Q190.58916 125.91629 190.27666 125.525665Q189.96416 125.13504 189.51103 125.13504ZM189.51103 134.85379L194.9954 124.29129L195.9954 124.29129L190.54228 134.85379L189.51103 134.85379ZM193.85478 132.11942Q193.85478 131.04129 194.38603 130.30692Q194.9329 129.55692 195.96416 129.55692Q196.90166 129.55692 197.52666 130.22879Q198.15166 130.90067 198.15166 132.19754Q198.15166 133.47879 197.52666 134.16629Q196.90166 134.85379 195.96416 134.85379Q195.0579 134.85379 194.44853 134.18192Q193.85478 133.49442 193.85478 132.11942ZM195.9954 130.40067Q195.52666 130.40067 195.22978 130.80692Q194.9329 131.19754 194.9329 132.24442Q194.9329 133.21317 195.22978 133.60379Q195.54228 133.99442 195.9954 133.99442Q196.46416 133.99442 196.76103 133.60379Q197.07353 133.21317 197.07353 132.15067Q197.07353 131.18192 196.76103 130.79129Q196.46416 130.40067 195.9954 130.40067Z" fill-rule="nonzero"/><path fill="#4285f4" d="M215.5 281.8C215.5 285.1137 212.8137 287.8 209.5 287.8C206.1863 287.8 203.5 285.1137 203.5 281.8C203.5 278.4863 206.1863 275.8 209.5 275.8C212.8137 275.8 215.5 278.4863 215.5 281.8Z" fill-rule="nonzero"/><path fill="#1a1a1a" d="M224.04688 283.03436L225.10938 282.9406Q225.1875 283.59686 225.46875 284.0031Q225.75 284.40936 226.32812 284.675Q226.92188 284.925 227.65625 284.925Q228.29688 284.925 228.79688 284.7375Q229.29688 284.53436 229.53125 284.20624Q229.78125 283.8625 229.78125 283.47186Q229.78125 283.0656 229.54688 282.76874Q229.3125 282.45624 228.78125 282.2531Q228.42188 282.1125 227.23438 281.83124Q226.0625 281.55 225.59375 281.3Q224.96875 280.97186 224.67188 280.5031Q224.375 280.01874 224.375 279.425Q224.375 278.78436 224.73438 278.22186Q225.10938 277.64374 225.8125 277.3625Q226.53125 277.0656 227.39062 277.0656Q228.34375 277.0656 229.07812 277.3781Q229.8125 277.675 230.20312 278.28436Q230.59375 278.8781 230.625 279.6281L229.53125 279.70624Q229.4375 278.89374 228.92188 278.4875Q228.42188 278.0656 227.4375 278.0656Q226.40625 278.0656 225.9375 278.4406Q225.46875 278.8156 225.46875 279.34686Q225.46875 279.8156 225.79688 280.1125Q226.125 280.40936 227.5 280.72186Q228.89062 281.03436 229.40625 281.26874Q230.15625 281.6281 230.51562 282.15936Q230.875 282.675 230.875 283.3781Q230.875 284.0656 230.48438 284.675Q230.09375 285.26874 229.35938 285.6125Q228.625 285.9406 227.70312 285.9406Q226.53125 285.9406 225.73438 285.6125Q224.95312 285.26874 224.5 284.58124Q224.0625 283.89374 224.04688 283.03436ZM232.65625 285.8L232.65625 279.58124L233.71875 279.58124L233.71875 285.8L232.65625 285.8ZM233.90625 278.8L233.0625 278.8L231.70312 277.15936L233.125 277.15936L233.90625 278.8Z" fill-rule="nonzero"/><path fill="#ea4335" d="M262.5 281.8C262.5 285.1137 259.81372 287.8 256.5 287.8C253.1863 287.8 250.5 285.1137 250.5 281.8C250.5 278.4863 253.1863 275.8 256.5 275.8C259.81372 275.8 262.5 278.4863 262.5 281.8Z" fill-rule="nonzero"/><path fill="#1a1a1a" d="M271.42188 285.8L271.42188 277.20624L272.57812 277.20624L277.09375 283.95624L277.09375 277.20624L278.1875 277.20624L278.1875 285.8L277.01562 285.8L272.5 279.05L272.5 285.8L271.42188 285.8ZM279.90625 282.6906Q279.90625 280.95624 280.85938 280.1281Q281.65625 279.4406 282.8125 279.4406Q284.09375 279.4406 284.90625 280.28436Q285.73438 281.1125 285.73438 282.59686Q285.73438 283.8 285.375 284.4875Q285.01562 285.175 284.3125 285.5656Q283.625 285.9406 282.8125 285.9406Q281.51562 285.9406 280.70312 285.1125Q279.90625 284.26874 279.90625 282.6906ZM280.98438 282.6906Q280.98438 283.8781 281.5 284.47186Q282.03125 285.0656 282.8125 285.0656Q283.60938 285.0656 284.125 284.47186Q284.64062 283.8781 284.64062 282.65936Q284.64062 281.5031 284.10938 280.90936Q283.59375 280.3156 282.8125 280.3156Q282.03125 280.3156 281.5 280.90936Q280.98438 281.4875 280.98438 282.6906Z" fill-rule="nonzero"/><path fill="#757575" d="M15.16875 34.2L20.66875 19.8875L22.715626 19.8875L28.575 34.2L26.41875 34.2L24.746876 29.85625L18.7625 29.85625L17.184376 34.2L15.16875 34.2ZM19.309376 28.325L24.153126 28.325L22.66875 24.35625Q21.98125 22.54375 21.653126 21.3875Q21.371876 22.7625 20.871876 24.121876L19.309376 28.325ZM32.403126 34.2L28.45 23.825L30.309376 23.825L32.54375 30.04375Q32.903126 31.04375 33.2 32.121876Q33.434376 31.309376 33.85625 30.153126L36.153126 23.825L37.965626 23.825L34.04375 34.2L32.403126 34.2ZM38.496876 34.2L38.496876 23.825L40.075 23.825L40.075 25.403126Q40.684376 24.29375 41.2 23.95Q41.715626 23.590626 42.325 23.590626Q43.215626 23.590626 44.1375 24.153126L43.528126 25.79375Q42.8875 25.403126 42.246876 25.403126Q41.66875 25.403126 41.2 25.7625Q40.746876 26.10625 40.54375 26.715626Q40.2625 27.653126 40.2625 28.7625L40.2625 34.2L38.496876 34.2ZM52.621876 30.85625L54.434376 31.090626Q54.0125 32.66875 52.840626 33.559376Q51.684376 34.434376 49.871876 34.434376Q47.60625 34.434376 46.2625 33.04375Q44.934376 31.6375 44.934376 29.10625Q44.934376 26.48125 46.278126 25.04375Q47.621876 23.590626 49.778126 23.590626Q51.85625 23.590626 53.16875 25.0125Q54.496876 26.41875 54.496876 28.996876Q54.496876 29.153126 54.48125 29.465626L46.746876 29.465626Q46.840626 31.16875 47.715626 32.075Q48.590626 32.98125 49.8875 32.98125Q50.85625 32.98125 51.528126 32.48125Q52.215626 31.965626 52.621876 30.85625ZM46.840626 28.0125L52.6375 28.0125Q52.528126 26.715626 51.98125 26.059376Q51.1375 25.04375 49.79375 25.04375Q48.590626 25.04375 47.7625 25.85625Q46.934376 26.653126 46.840626 28.0125ZM58.1375 34.2L56.5125 34.2L56.5125 19.8875L58.2625 19.8875L58.2625 24.996876Q59.3875 23.590626 61.10625 23.590626Q62.059376 23.590626 62.91875 23.98125Q63.778126 24.371876 64.325 25.075Q64.87187 25.7625 65.18437 26.746876Q65.49687 27.73125 65.49687 28.85625Q65.49687 31.528126 64.18437 32.98125Q62.871876 34.434376 61.028126 34.434376Q59.184376 34.434376 58.1375 32.903126L58.1375 34.2ZM58.121876 28.934376Q58.121876 30.79375 58.621876 31.6375Q59.465626 32.98125 60.871876 32.98125Q62.028126 32.98125 62.85625 31.98125Q63.7 30.98125 63.7 28.996876Q63.7 26.965626 62.8875 26.0125Q62.090626 25.04375 60.95 25.04375Q59.79375 25.04375 58.95 26.04375Q58.121876 27.04375 58.121876 28.934376ZM69.1375 34.2L67.5125 34.2L67.5125 19.8875L69.2625 19.8875L69.2625 24.996876Q70.3875 23.590626 72.10625 23.590626Q73.05937 23.590626 73.91875 23.98125Q74.77812 24.371876 75.325 25.075Q75.87187 25.7625 76.18437 26.746876Q76.49687 27.73125 76.49687 28.85625Q76.49687 31.528126 75.18437 32.98125Q73.87187 34.434376 72.02812 34.434376Q70.18437 34.434376 69.1375 32.903126L69.1375 34.2ZM69.12187 28.934376Q69.12187 30.79375 69.62187 31.6375Q70.46562 32.98125 71.87187 32.98125Q73.02812 32.98125 73.85625 31.98125Q74.7 30.98125 74.7 28.996876Q74.7 26.965626 73.8875 26.0125Q73.09062 25.04375 71.95 25.04375Q70.79375 25.04375 69.95 26.04375Q69.12187 27.04375 69.12187 28.934376ZM85.62187 30.85625L87.43437 31.090626Q87.0125 32.66875 85.84062 33.559376Q84.68437 34.434376 82.87187 34.434376Q80.60625 34.434376 79.2625 33.04375Q77.93437 31.6375 77.93437 29.10625Q77.93437 26.48125 79.27812 25.04375Q80.62187 23.590626 82.77812 23.590626Q84.85625 23.590626 86.16875 25.0125Q87.49687 26.41875 87.49687 28.996876Q87.49687 29.153126 87.48125 29.465626L79.74687 29.465626Q79.84062 31.16875 80.71562 32.075Q81.59062 32.98125 82.8875 32.98125Q83.85625 32.98125 84.52812 32.48125Q85.21562 31.965626 85.62187 30.85625ZM79.84062 28.0125L85.6375 28.0125Q85.52812 26.715626 84.98125 26.059376Q84.1375 25.04375 82.79375 25.04375Q81.59062 25.04375 80.7625 25.85625Q79.93437 26.653126 79.84062 28.0125ZM95.2 35.059376L96.90312 35.309376Q97.0125 36.10625 97.49687 36.465626Q98.15312 36.95 99.29375 36.95Q100.5125 36.95 101.16875 36.465626Q101.84062 35.98125 102.075 35.10625Q102.21562 34.559376 102.2 32.840626Q101.04375 34.2 99.325 34.2Q97.18437 34.2 96.0125 32.653126Q94.84062 31.10625 94.84062 28.95Q94.84062 27.465626 95.37187 26.215626Q95.91875 24.965626 96.93437 24.278126Q97.96562 23.590626 99.34062 23.590626Q101.16875 23.590626 102.37187 25.075L102.37187 23.825L103.98125 23.825L103.98125 32.79375Q103.98125 35.215626 103.48125 36.215626Q102.99687 37.23125 101.91875 37.809376Q100.85625 38.403126 99.29375 38.403126Q97.45 38.403126 96.29375 37.575Q95.15312 36.746876 95.2 35.059376ZM96.65312 28.825Q96.65312 30.871876 97.46562 31.809376Q98.27812 32.746876 99.49687 32.746876Q100.7 32.746876 101.5125 31.809376Q102.34062 30.871876 102.34062 28.8875Q102.34062 26.98125 101.49687 26.0125Q100.65312 25.04375 99.46562 25.04375Q98.29375 25.04375 97.46562 25.996876Q96.65312 26.95 96.65312 28.825ZM106.49687 34.2L106.49687 23.825L108.075 23.825L108.075 25.403126Q108.68437 24.29375 109.2 23.95Q109.71562 23.590626 110.325 23.590626Q111.21562 23.590626 112.1375 24.153126L111.52812 25.79375Q110.8875 25.403126 110.24687 25.403126Q109.66875 25.403126 109.2 25.7625Q108.74687 26.10625 108.54375 26.715626Q108.2625 27.653126 108.2625 28.7625L108.2625 34.2L106.49687 34.2ZM120.29375 32.91875Q119.30937 33.746876 118.40312 34.090626Q117.49687 34.434376 116.46562 34.434376Q114.7625 34.434376 113.84062 33.60625Q112.91875 32.7625 112.91875 31.465626Q112.91875 30.7 113.2625 30.075Q113.62187 29.45 114.18437 29.075Q114.74687 28.684376 115.45 28.48125Q115.96562 28.35625 117.0125 28.215626Q119.1375 27.965626 120.1375 27.621876Q120.15312 27.2625 120.15312 27.153126Q120.15312 26.090626 119.65312 25.6375Q118.98125 25.04375 117.65312 25.04375Q116.40312 25.04375 115.80937 25.48125Q115.23125 25.91875 114.95 27.028126L113.23125 26.79375Q113.46562 25.684376 113.99687 25.0125Q114.52812 24.325 115.54375 23.965626Q116.55937 23.590626 117.90312 23.590626Q119.23125 23.590626 120.05937 23.903126Q120.8875 24.215626 121.27812 24.7Q121.66875 25.16875 121.825 25.8875Q121.91875 26.340626 121.91875 27.5125L121.91875 29.85625Q121.91875 32.309376 122.02812 32.965626Q122.1375 33.60625 122.48125 34.2L120.6375 34.2Q120.37187 33.653126 120.29375 32.91875ZM120.1375 28.996876Q119.18437 29.3875 117.2625 29.653126Q116.18437 29.809376 115.73125 30.0125Q115.29375 30.2 115.04375 30.575Q114.79375 30.95 114.79375 31.41875Q114.79375 32.121876 115.325 32.590626Q115.85625 33.059376 116.8875 33.059376Q117.90312 33.059376 118.68437 32.621876Q119.48125 32.16875 119.85625 31.403126Q120.1375 30.79375 120.1375 29.6375L120.1375 28.996876ZM131.24687 34.2L131.24687 32.8875Q130.2625 34.434376 128.34062 34.434376Q127.10625 34.434376 126.05937 33.746876Q125.02812 33.059376 124.45 31.840626Q123.8875 30.621876 123.8875 29.028126Q123.8875 27.465626 124.40312 26.2Q124.91875 24.934376 125.95 24.2625Q126.99687 23.590626 128.2625 23.590626Q129.2 23.590626 129.93437 23.996876Q130.66875 24.3875 131.1375 25.0125L131.1375 19.8875L132.87187 19.8875L132.87187 34.2L131.24687 34.2ZM125.68437 29.028126Q125.68437 31.0125 126.52812 31.996876Q127.37187 32.98125 128.5125 32.98125Q129.66875 32.98125 130.46562 32.04375Q131.27812 31.10625 131.27812 29.16875Q131.27812 27.04375 130.45 26.04375Q129.6375 25.04375 128.43437 25.04375Q127.2625 25.04375 126.46562 26.0125Q125.68437 26.965626 125.68437 29.028126ZM135.52812 21.903126L135.52812 19.8875L137.29375 19.8875L137.29375 21.903126L135.52812 21.903126ZM135.52812 34.2L135.52812 23.825L137.29375 23.825L137.29375 34.2L135.52812 34.2ZM143.35625 32.621876L143.60625 34.184376Q142.87187 34.340626 142.27812 34.340626Q141.325 34.340626 140.79375 34.04375Q140.27812 33.73125 140.05937 33.246876Q139.84062 32.746876 139.84062 31.16875L139.84062 25.2L138.55937 25.2L138.55937 23.825L139.84062 23.825L139.84062 21.2625L141.59062 20.2L141.59062 23.825L143.35625 23.825L143.35625 25.2L141.59062 25.2L141.59062 31.2625Q141.59062 32.0125 141.68437 32.23125Q141.77812 32.434376 141.98125 32.575Q142.2 32.7 142.59062 32.7Q142.87187 32.7 143.35625 32.621876ZM144.87187 29.0125Q144.87187 26.1375 146.46562 24.746876Q147.80937 23.590626 149.73125 23.590626Q151.87187 23.590626 153.21562 24.996876Q154.575 26.403126 154.575 28.871876Q154.575 30.871876 153.98125 32.028126Q153.3875 33.16875 152.23125 33.809376Q151.09062 34.434376 149.73125 34.434376Q147.54375 34.434376 146.2 33.04375Q144.87187 31.6375 144.87187 29.0125ZM146.66875 29.0125Q146.66875 31.0125 147.52812 31.996876Q148.40312 32.98125 149.73125 32.98125Q151.04375 32.98125 151.90312 31.996876Q152.77812 30.996876 152.77812 28.95Q152.77812 27.028126 151.90312 26.04375Q151.02812 25.04375 149.73125 25.04375Q148.40312 25.04375 147.52812 26.04375Q146.66875 27.028126 146.66875 29.0125ZM169.29375 30.403126L171.0125 30.621876Q170.73125 32.41875 169.55937 33.434376Q168.40312 34.434376 166.7 34.434376Q164.575 34.434376 163.27812 33.04375Q161.98125 31.653126 161.98125 29.059376Q161.98125 27.371876 162.52812 26.121876Q163.09062 24.85625 164.23125 24.23125Q165.37187 23.590626 166.71562 23.590626Q168.40312 23.590626 169.46562 24.45Q170.54375 25.309376 170.85625 26.871876L169.1375 27.1375Q168.90312 26.090626 168.27812 25.575Q167.65312 25.04375 166.77812 25.04375Q165.45 25.04375 164.62187 25.996876Q163.79375 26.95 163.79375 28.996876Q163.79375 31.090626 164.59062 32.04375Q165.3875 32.98125 166.68437 32.98125Q167.71562 32.98125 168.40312 32.35625Q169.10625 31.715626 169.29375 30.403126ZM172.5125 34.2L172.5125 19.8875L174.27812 19.8875L174.27812 25.0125Q175.5125 23.590626 177.3875 23.590626Q178.52812 23.590626 179.37187 24.04375Q180.23125 24.496876 180.59062 25.309376Q180.96562 26.10625 180.96562 27.621876L180.96562 34.2L179.21562 34.2L179.21562 27.621876Q179.21562 26.309376 178.6375 25.715626Q178.05937 25.10625 177.02812 25.10625Q176.24687 25.10625 175.54375 25.5125Q174.85625 25.91875 174.55937 26.621876Q174.27812 27.309376 174.27812 28.528126L174.27812 34.2L172.5125 34.2ZM189.29375 32.91875Q188.30937 33.746876 187.40312 34.090626Q186.49687 34.434376 185.46562 34.434376Q183.7625 34.434376 182.84062 33.60625Q181.91875 32.7625 181.91875 31.465626Q181.91875 30.7 182.2625 30.075Q182.62187 29.45 183.18437 29.075Q183.74687 28.684376 184.45 28.48125Q184.96562 28.35625 186.0125 28.215626Q188.1375 27.965626 189.1375 27.621876Q189.15312 27.2625 189.15312 27.153126Q189.15312 26.090626 188.65312 25.6375Q187.98125 25.04375 186.65312 25.04375Q185.40312 25.04375 184.80937 25.48125Q184.23125 25.91875 183.95 27.028126L182.23125 26.79375Q182.46562 25.684376 182.99687 25.0125Q183.52812 24.325 184.54375 23.965626Q185.55937 23.590626 186.90312 23.590626Q188.23125 23.590626 189.05937 23.903126Q189.8875 24.215626 190.27812 24.7Q190.66875 25.16875 190.825 25.8875Q190.91875 26.340626 190.91875 27.5125L190.91875 29.85625Q190.91875 32.309376 191.02812 32.965626Q191.1375 33.60625 191.48125 34.2L189.6375 34.2Q189.37187 33.653126 189.29375 32.91875ZM189.1375 28.996876Q188.18437 29.3875 186.2625 29.653126Q185.18437 29.809376 184.73125 30.0125Q184.29375 30.2 184.04375 30.575Q183.79375 30.95 183.79375 31.41875Q183.79375 32.121876 184.325 32.590626Q184.85625 33.059376 185.8875 33.059376Q186.90312 33.059376 187.68437 32.621876Q188.48125 32.16875 188.85625 31.403126Q189.1375 30.79375 189.1375 29.6375L189.1375 28.996876ZM193.48125 34.2L193.48125 19.8875L195.23125 19.8875L195.23125 34.2L193.48125 34.2ZM197.48125 34.2L197.48125 19.8875L199.23125 19.8875L199.23125 34.2L197.48125 34.2ZM208.62187 30.85625L210.43437 31.090626Q210.0125 32.66875 208.84062 33.559376Q207.68437 34.434376 205.87187 34.434376Q203.60625 34.434376 202.2625 33.04375Q200.93437 31.6375 200.93437 29.10625Q200.93437 26.48125 202.27812 25.04375Q203.62187 23.590626 205.77812 23.590626Q207.85625 23.590626 209.16875 25.0125Q210.49687 26.41875 210.49687 28.996876Q210.49687 29.153126 210.48125 29.465626L202.74687 29.465626Q202.84062 31.16875 203.71562 32.075Q204.59062 32.98125 205.8875 32.98125Q206.85625 32.98125 207.52812 32.48125Q208.21562 31.965626 208.62187 30.85625ZM202.84062 28.0125L208.6375 28.0125Q208.52812 26.715626 207.98125 26.059376Q207.1375 25.04375 205.79375 25.04375Q204.59062 25.04375 203.7625 25.85625Q202.93437 26.653126 202.84062 28.0125ZM212.5125 34.2L212.5125 23.825L214.10625 23.825L214.10625 25.309376Q215.24687 23.590626 217.40312 23.590626Q218.34062 23.590626 219.12187 23.934376Q219.91875 24.2625 220.30937 24.809376Q220.7 25.35625 220.85625 26.10625Q220.95 26.60625 220.95 27.825L220.95 34.2L219.18437 34.2L219.18437 27.8875Q219.18437 26.809376 218.98125 26.278126Q218.77812 25.746876 218.24687 25.434376Q217.73125 25.121876 217.02812 25.121876Q215.90312 25.121876 215.09062 25.840626Q214.27812 26.54375 214.27812 28.528126L214.27812 34.2L212.5125 34.2ZM222.2 35.059376L223.90312 35.309376Q224.0125 36.10625 224.49687 36.465626Q225.15312 36.95 226.29375 36.95Q227.5125 36.95 228.16875 36.465626Q228.84062 35.98125 229.075 35.10625Q229.21562 34.559376 229.2 32.840626Q228.04375 34.2 226.325 34.2Q224.18437 34.2 223.0125 32.653126Q221.84062 31.10625 221.84062 28.95Q221.84062 27.465626 222.37187 26.215626Q222.91875 24.965626 223.93437 24.278126Q224.96562 23.590626 226.34062 23.590626Q228.16875 23.590626 229.37187 25.075L229.37187 23.825L230.98125 23.825L230.98125 32.79375Q230.98125 35.215626 230.48125 36.215626Q229.99687 37.23125 228.91875 37.809376Q227.85625 38.403126 226.29375 38.403126Q224.45 38.403126 223.29375 37.575Q222.15312 36.746876 222.2 35.059376ZM223.65312 28.825Q223.65312 30.871876 224.46562 31.809376Q225.27812 32.746876 226.49687 32.746876Q227.7 32.746876 228.5125 31.809376Q229.34062 30.871876 229.34062 28.8875Q229.34062 26.98125 228.49687 26.0125Q227.65312 25.04375 226.46562 25.04375Q225.29375 25.04375 224.46562 25.996876Q223.65312 26.95 223.65312 28.825ZM240.62187 30.85625L242.43437 31.090626Q242.0125 32.66875 240.84062 33.559376Q239.68437 34.434376 237.87187 34.434376Q235.60625 34.434376 234.2625 33.04375Q232.93437 31.6375 232.93437 29.10625Q232.93437 26.48125 234.27812 25.04375Q235.62187 23.590626 237.77812 23.590626Q239.85625 23.590626 241.16875 25.0125Q242.49687 26.41875 242.49687 28.996876Q242.49687 29.153126 242.48125 29.465626L234.74687 29.465626Q234.84062 31.16875 235.71562 32.075Q236.59062 32.98125 237.8875 32.98125Q238.85625 32.98125 239.52812 32.48125Q240.21562 31.965626 240.62187 30.85625ZM234.84062 28.0125L240.6375 28.0125Q240.52812 26.715626 239.98125 26.059376Q239.1375 25.04375 237.79375 25.04375Q236.59062 25.04375 235.7625 25.85625Q234.93437 26.653126 234.84062 28.0125ZM257.29376 32.91875Q256.3094 33.746876 255.40312 34.090626Q254.49687 34.434376 253.46562 34.434376Q251.7625 34.434376 250.84062 33.60625Q249.91875 32.7625 249.91875 31.465626Q249.91875 30.7 250.2625 30.075Q250.62187 29.45 251.18437 29.075Q251.74687 28.684376 252.45 28.48125Q252.96562 28.35625 254.0125 28.215626Q256.1375 27.965626 257.1375 27.621876Q257.15314 27.2625 257.15314 27.153126Q257.15314 26.090626 256.65314 25.6375Q255.98125 25.04375 254.65312 25.04375Q253.40312 25.04375 252.80937 25.48125Q252.23125 25.91875 251.95 27.028126L250.23125 26.79375Q250.46562 25.684376 250.99687 25.0125Q251.52812 24.325 252.54375 23.965626Q253.55937 23.590626 254.90312 23.590626Q256.23126 23.590626 257.0594 23.903126Q257.8875 24.215626 258.27814 24.7Q258.66876 25.16875 258.825 25.8875Q258.91876 26.340626 258.91876 27.5125L258.91876 29.85625Q258.91876 32.309376 259.02814 32.965626Q259.1375 33.60625 259.48126 34.2L257.6375 34.2Q257.3719 33.653126 257.29376 32.91875ZM257.1375 28.996876Q256.1844 29.3875 254.2625 29.653126Q253.18437 29.809376 252.73125 30.0125Q252.29375 30.2 252.04375 30.575Q251.79375 30.95 251.79375 31.41875Q251.79375 32.121876 252.325 32.590626Q252.85625 33.059376 253.8875 33.059376Q254.90312 33.059376 255.68437 32.621876Q256.48126 32.16875 256.85626 31.403126Q257.1375 30.79375 257.1375 29.6375L257.1375 28.996876ZM268.2469 34.2L268.2469 32.8875Q267.2625 34.434376 265.34064 34.434376Q264.10626 34.434376 263.0594 33.746876Q262.02814 33.059376 261.45 31.840626Q260.8875 30.621876 260.8875 29.028126Q260.8875 27.465626 261.40314 26.2Q261.91876 24.934376 262.95 24.2625Q263.9969 23.590626 265.2625 23.590626Q266.2 23.590626 266.9344 23.996876Q267.66876 24.3875 268.1375 25.0125L268.1375 19.8875L269.8719 19.8875L269.8719 34.2L268.2469 34.2ZM262.6844 29.028126Q262.6844 31.0125 263.52814 31.996876Q264.3719 32.98125 265.5125 32.98125Q266.66876 32.98125 267.46564 32.04375Q268.27814 31.10625 268.27814 29.16875Q268.27814 27.04375 267.45 26.04375Q266.6375 25.04375 265.4344 25.04375Q264.2625 25.04375 263.46564 26.0125Q262.6844 26.965626 262.6844 29.028126ZM279.2469 34.2L279.2469 32.8875Q278.2625 34.434376 276.34064 34.434376Q275.10626 34.434376 274.0594 33.746876Q273.02814 33.059376 272.45 31.840626Q271.8875 30.621876 271.8875 29.028126Q271.8875 27.465626 272.40314 26.2Q272.91876 24.934376 273.95 24.2625Q274.9969 23.590626 276.2625 23.590626Q277.2 23.590626 277.9344 23.996876Q278.66876 24.3875 279.1375 25.0125L279.1375 19.8875L280.8719 19.8875L280.8719 34.2L279.2469 34.2ZM273.6844 29.028126Q273.6844 31.0125 274.52814 31.996876Q275.3719 32.98125 276.5125 32.98125Q277.66876 32.98125 278.46564 32.04375Q279.27814 31.10625 279.27814 29.16875Q279.27814 27.04375 278.45 26.04375Q277.6375 25.04375 276.4344 25.04375Q275.2625 25.04375 274.46564 26.0125Q273.6844 26.965626 273.6844 29.028126ZM283.52814 21.903126L283.52814 19.8875L285.29376 19.8875L285.29376 21.903126L283.52814 21.903126ZM283.52814 34.2L283.52814 23.825L285.29376 23.825L285.29376 34.2L283.52814 34.2ZM286.59064 34.2L286.59064 32.778126L293.2 25.2Q292.075 25.246876 291.21564 25.246876L286.98126 25.246876L286.98126 23.825L295.46564 23.825L295.46564 24.996876L289.84064 31.575L288.7625 32.778126Q289.9344 32.684376 290.98126 32.684376L295.77814 32.684376L295.77814 34.2L286.59064 34.2ZM296.52814 21.903126L296.52814 19.8875L298.29376 19.8875L298.29376 21.903126L296.52814 21.903126ZM296.52814 34.2L296.52814 23.825L298.29376 23.825L298.29376 34.2L296.52814 34.2ZM299.8719 29.0125Q299.8719 26.1375 301.46564 24.746876Q302.8094 23.590626 304.73126 23.590626Q306.8719 23.590626 308.21564 24.996876Q309.575 26.403126 309.575 28.871876Q309.575 30.871876 308.98126 32.028126Q308.3875 33.16875 307.23126 33.809376Q306.09064 34.434376 304.73126 34.434376Q302.54376 34.434376 301.2 33.04375Q299.8719 31.6375 299.8719 29.0125ZM301.66876 29.0125Q301.66876 31.0125 302.52814 31.996876Q303.40314 32.98125 304.73126 32.98125Q306.04376 32.98125 306.90314 31.996876Q307.77814 30.996876 307.77814 28.95Q307.77814 27.028126 306.90314 26.04375Q306.02814 25.04375 304.73126 25.04375Q303.40314 25.04375 302.52814 26.04375Q301.66876 27.028126 301.66876 29.0125ZM311.5125 34.2L311.5125 23.825L313.10626 23.825L313.10626 25.309376Q314.2469 23.590626 316.40314 23.590626Q317.34064 23.590626 318.1219 23.934376Q318.91876 24.2625 319.3094 24.809376Q319.7 25.35625 319.85626 26.10625Q319.95 26.60625 319.95 27.825L319.95 34.2L318.1844 34.2L318.1844 27.8875Q318.1844 26.809376 317.98126 26.278126Q317.77814 25.746876 317.2469 25.434376Q316.73126 25.121876 316.02814 25.121876Q314.90314 25.121876 314.09064 25.840626Q313.27814 26.54375 313.27814 28.528126L313.27814 34.2L311.5125 34.2ZM328.29376 32.91875Q327.3094 33.746876 326.40314 34.090626Q325.4969 34.434376 324.46564 34.434376Q322.7625 34.434376 321.84064 33.60625Q320.91876 32.7625 320.91876 31.465626Q320.91876 30.7 321.2625 30.075Q321.6219 29.45 322.1844 29.075Q322.7469 28.684376 323.45 28.48125Q323.96564 28.35625 325.0125 28.215626Q327.1375 27.965626 328.1375 27.621876Q328.15314 27.2625 328.15314 27.153126Q328.15314 26.090626 327.65314 25.6375Q326.98126 25.04375 325.65314 25.04375Q324.40314 25.04375 323.8094 25.48125Q323.23126 25.91875 322.95 27.028126L321.23126 26.79375Q321.46564 25.684376 321.9969 25.0125Q322.52814 24.325 323.54376 23.965626Q324.5594 23.590626 325.90314 23.590626Q327.23126 23.590626 328.0594 23.903126Q328.8875 24.215626 329.27814 24.7Q329.66876 25.16875 329.825 25.8875Q329.91876 26.340626 329.91876 27.5125L329.91876 29.85625Q329.91876 32.309376 330.02814 32.965626Q330.1375 33.60625 330.48126 34.2L328.6375 34.2Q328.3719 33.653126 328.29376 32.91875ZM328.1375 28.996876Q327.1844 29.3875 325.2625 29.653126Q324.1844 29.809376 323.73126 30.0125Q323.29376 30.2 323.04376 30.575Q322.79376 30.95 322.79376 31.41875Q322.79376 32.121876 323.325 32.590626Q323.85626 33.059376 324.8875 33.059376Q325.90314 33.059376 326.6844 32.621876Q327.48126 32.16875 327.85626 31.403126Q328.1375 30.79375 328.1375 29.6375L328.1375 28.996876ZM332.48126 34.2L332.48126 19.8875L334.23126 19.8875L334.23126 34.2L332.48126 34.2ZM336.52814 21.903126L336.52814 19.8875L338.29376 19.8875L338.29376 21.903126L336.52814 21.903126ZM336.52814 34.2L336.52814 23.825L338.29376 23.825L338.29376 34.2L336.52814 34.2ZM343.8094 30.66875Q343.79376 30.325 343.79376 30.153126Q343.79376 29.10625 344.09064 28.35625Q344.3094 27.79375 344.79376 27.215626Q345.1375 26.79375 346.04376 25.996876Q346.96564 25.184376 347.23126 24.715626Q347.5125 24.23125 347.5125 23.66875Q347.5125 22.6375 346.7 21.871876Q345.90314 21.090626 344.7469 21.090626Q343.6219 21.090626 342.8719 21.79375Q342.1219 22.496876 341.8875 23.98125L340.075 23.7625Q340.325 21.7625 341.52814 20.7Q342.73126 19.6375 344.71564 19.6375Q346.825 19.6375 348.075 20.778126Q349.325 21.91875 349.325 23.54375Q349.325 24.48125 348.8719 25.278126Q348.4344 26.059376 347.15314 27.2Q346.29376 27.965626 346.02814 28.325Q345.77814 28.684376 345.6375 29.153126Q345.5125 29.621876 345.4969 30.66875L343.8094 30.66875ZM343.7 34.2L343.7 32.2L345.7 32.2L345.7 34.2L343.7 34.2Z" fill-rule="nonzero"/></svg>