<svg version="1.1" viewBox="0.0 0.0 490.0 304.0" fill="none" stroke="none" stroke-linecap="square" stroke-miterlimit="10" width="490" height="304" xmlns:xlink="http://www.w3.org/1999/xlink" xmlns="http://www.w3.org/2000/svg"><path fill="#ffffff" d="M0 0L490.0 0L490.0 304.0L0 304.0L0 0Z" fill-rule="nonzero"/><path fill="#4285f4" d="M245.0 49.333332C269.57672 49.333332 293.14685 59.0964 310.52524 76.47477L245.0 142.0Z" fill-rule="nonzero"/><path fill="#ea4335" d="M310.52524 76.47477C317.40115 83.3507 323.15198 91.26604 327.5666 99.930214L245.0 142.0Z" fill-rule="nonzero"/><path fill="#34a853" d="M162.4334 184.0698C147.79611 155.3425 149.1426 121.0721 165.98868 93.5818C182.83476 66.0915 212.7586 49.333332 245.0 49.333332L245.0 142.0Z" fill-rule="nonzero"/><path fill="#fbbc04" d="M327.5666 99.930214C350.80112 145.53049 332.67007 201.3321 287.0698 224.5666C241.46951 247.8011 185.6679 229.67006 162.4334 184.0698L245.0 142.0Z" fill-rule="nonzero"/><path fill="#000000" d="M254.41739 88.57933L253.18301 88.57933L253.18301 80.73558Q252.74551 81.157455 252.01114 81.594955Q251.29239 82.01683 250.72989 82.219955L250.72989 81.032455Q251.76114 80.54808 252.52676 79.86058Q253.30801 79.17308 253.62051 78.51683L254.41739 78.51683L254.41739 88.57933ZM264.2455 87.39183L264.2455 88.57933L257.6205 88.57933Q257.6049 88.14183 257.76114 87.719955Q258.02676 87.04808 258.57364 86.39183Q259.13614 85.73558 260.183 84.876205Q261.82364 83.532455 262.38614 82.751205Q262.96426 81.969955 262.96426 81.26683Q262.96426 80.532455 262.433 80.032455Q261.9174 79.532455 261.08926 79.532455Q260.19864 79.532455 259.65176 80.063705Q259.1205 80.594955 259.1205 81.54808L257.8549 81.407455Q257.9799 80.001205 258.82364 79.26683Q259.683 78.51683 261.1049 78.51683Q262.558 78.51683 263.38614 79.313705Q264.2299 80.11058 264.2299 81.29808Q264.2299 81.907455 263.9799 82.48558Q263.7455 83.063705 263.1674 83.70433Q262.6049 84.344955 261.27676 85.469955Q260.1674 86.39183 259.8549 86.73558Q259.5424 87.063705 259.33926 87.39183L264.2455 87.39183ZM266.46426 88.57933L266.46426 87.17308L267.8705 87.17308L267.8705 88.57933L266.46426 88.57933ZM269.77676 85.95433L271.07364 85.844955Q271.21426 86.782455 271.7299 87.26683Q272.26114 87.73558 272.9955 87.73558Q273.88614 87.73558 274.4955 87.063705Q275.1205 86.39183 275.1205 85.29808Q275.1205 84.23558 274.52676 83.626205Q273.933 83.01683 272.9799 83.01683Q272.38614 83.01683 271.90176 83.29808Q271.433 83.563705 271.15176 83.98558L269.9955 83.844955L270.96426 78.688705L275.94864 78.688705L275.94864 79.876205L271.94864 79.876205L271.4174 82.563705Q272.32364 81.938705 273.308 81.938705Q274.6205 81.938705 275.51114 82.844955Q276.4174 83.751205 276.4174 85.188705Q276.4174 86.54808 275.63614 87.532455Q274.6674 88.751205 272.9955 88.751205Q271.63614 88.751205 270.76114 87.98558Q269.90176 87.219955 269.77676 85.95433ZM278.01114 80.969955Q278.01114 79.89183 278.5424 79.14183Q279.08926 78.39183 280.1205 78.39183Q281.058 78.39183 281.6674 79.063705Q282.2924 79.73558 282.2924 81.032455Q282.2924 82.313705 281.6674 83.001205Q281.0424 83.688705 280.13614 83.688705Q279.2299 83.688705 278.6205 83.01683Q278.01114 82.32933 278.01114 80.969955ZM280.15176 79.23558Q279.69864 79.23558 279.38614 79.64183Q279.08926 80.032455 279.08926 81.07933Q279.08926 82.04808 279.38614 82.438705Q279.69864 82.82933 280.15176 82.82933Q280.6205 82.82933 280.9174 82.438705Q281.2299 82.04808 281.2299 80.98558Q281.2299 80.01683 280.9174 79.626205Q280.6049 79.23558 280.15176 79.23558ZM280.15176 88.95433L285.63614 78.39183L286.63614 78.39183L281.183 88.95433L280.15176 88.95433ZM284.4955 86.219955Q284.4955 85.14183 285.02676 84.407455Q285.57364 83.657455 286.6049 83.657455Q287.5424 83.657455 288.1674 84.32933Q288.7924 85.001205 288.7924 86.29808Q288.7924 87.57933 288.1674 88.26683Q287.5424 88.95433 286.6049 88.95433Q285.69864 88.95433 285.08926 88.282455Q284.4955 87.594955 284.4955 86.219955ZM286.63614 84.501205Q286.1674 84.501205 285.8705 84.907455Q285.57364 85.29808 285.57364 86.344955Q285.57364 87.313705 285.8705 87.70433Q286.183 88.094955 286.63614 88.094955Q287.1049 88.094955 287.40176 87.70433Q287.71426 87.313705 287.71426 86.251205Q287.71426 85.282455 287.40176 84.89183Q287.1049 84.501205 286.63614 84.501205Z" fill-rule="nonzero"/><path fill="#000000" d="M253.80849 199.78021L255.10536 199.67084Q255.24599 200.60834 255.76161 201.09271Q256.29285 201.56146 257.02722 201.56146Q257.91785 201.56146 258.52722 200.88959Q259.15222 200.21771 259.15222 199.12396Q259.15222 198.06146 258.55847 197.45209Q257.96472 196.84271 257.0116 196.84271Q256.41785 196.84271 255.93349 197.12396Q255.46474 197.38959 255.18349 197.81146L254.02724 197.67084L254.99599 192.51459L259.98035 192.51459L259.98035 193.70209L255.98036 193.70209L255.44911 196.38959Q256.35535 195.76459 257.33972 195.76459Q258.65222 195.76459 259.54285 196.67084Q260.4491 197.57709 260.4491 199.01459Q260.4491 200.37396 259.66785 201.35834Q258.6991 202.57709 257.02722 202.57709Q255.66786 202.57709 254.79286 201.81146Q253.93349 201.04584 253.80849 199.78021ZM261.80847 197.46771Q261.80847 195.68646 262.16785 194.60834Q262.54285 193.51459 263.2616 192.93646Q263.98035 192.34271 265.0741 192.34271Q265.8866 192.34271 266.49597 192.67084Q267.10535 192.99896 267.49597 193.60834Q267.90222 194.21771 268.12097 195.09271Q268.33972 195.96771 268.33972 197.46771Q268.33972 199.23334 267.98035 200.31146Q267.62097 201.38959 266.90222 201.98334Q266.18347 202.57709 265.0741 202.57709Q263.6366 202.57709 262.80847 201.53021Q261.80847 200.28021 261.80847 197.46771ZM263.0741 197.46771Q263.0741 199.93646 263.65222 200.74896Q264.23035 201.56146 265.0741 201.56146Q265.93347 201.56146 266.5116 200.74896Q267.08972 199.92084 267.08972 197.46771Q267.08972 194.98334 266.5116 194.17084Q265.93347 193.35834 265.05847 193.35834Q264.21472 193.35834 263.71472 194.07709Q263.0741 194.99896 263.0741 197.46771ZM270.49597 202.40521L270.49597 200.99896L271.90222 200.99896L271.90222 202.40521L270.49597 202.40521ZM273.80847 197.46771Q273.80847 195.68646 274.16785 194.60834Q274.54285 193.51459 275.2616 192.93646Q275.98035 192.34271 277.0741 192.34271Q277.8866 192.34271 278.49597 192.67084Q279.10535 192.99896 279.49597 193.60834Q279.90222 194.21771 280.12097 195.09271Q280.33972 195.96771 280.33972 197.46771Q280.33972 199.23334 279.98035 200.31146Q279.62097 201.38959 278.90222 201.98334Q278.18347 202.57709 277.0741 202.57709Q275.6366 202.57709 274.80847 201.53021Q273.80847 200.28021 273.80847 197.46771ZM275.0741 197.46771Q275.0741 199.93646 275.65222 200.74896Q276.23035 201.56146 277.0741 201.56146Q277.93347 201.56146 278.5116 200.74896Q279.08972 199.92084 279.08972 197.46771Q279.08972 194.98334 278.5116 194.17084Q277.93347 193.35834 277.05847 193.35834Q276.21472 193.35834 275.71472 194.07709Q275.0741 194.99896 275.0741 197.46771ZM282.04285 194.79584Q282.04285 193.71771 282.5741 192.96771Q283.12097 192.21771 284.15222 192.21771Q285.08972 192.21771 285.6991 192.88959Q286.3241 193.56146 286.3241 194.85834Q286.3241 196.13959 285.6991 196.82709Q285.0741 197.51459 284.16785 197.51459Q283.2616 197.51459 282.65222 196.84271Q282.04285 196.15521 282.04285 194.79584ZM284.18347 193.06146Q283.73035 193.06146 283.41785 193.46771Q283.12097 193.85834 283.12097 194.90521Q283.12097 195.87396 283.41785 196.26459Q283.73035 196.65521 284.18347 196.65521Q284.65222 196.65521 284.9491 196.26459Q285.2616 195.87396 285.2616 194.81146Q285.2616 193.84271 284.9491 193.45209Q284.6366 193.06146 284.18347 193.06146ZM284.18347 202.78021L289.66785 192.21771L290.66785 192.21771L285.21472 202.78021L284.18347 202.78021ZM288.52722 200.04584Q288.52722 198.96771 289.05847 198.23334Q289.60535 197.48334 290.6366 197.48334Q291.5741 197.48334 292.1991 198.15521Q292.8241 198.82709 292.8241 200.12396Q292.8241 201.40521 292.1991 202.09271Q291.5741 202.78021 290.6366 202.78021Q289.73035 202.78021 289.12097 202.10834Q288.52722 201.42084 288.52722 200.04584ZM290.66785 198.32709Q290.1991 198.32709 289.90222 198.73334Q289.60535 199.12396 289.60535 200.17084Q289.60535 201.13959 289.90222 201.53021Q290.21472 201.92084 290.66785 201.92084Q291.1366 201.92084 291.43347 201.53021Q291.74597 201.13959 291.74597 200.07709Q291.74597 199.10834 291.43347 198.71771Q291.1366 198.32709 290.66785 198.32709Z" fill-rule="nonzero"/><path fill="#000000" d="M175.55301 113.69437L176.77176 113.52249Q176.99051 114.56937 177.49051 115.03812Q178.00613 115.49124 178.74051 115.49124Q179.61551 115.49124 180.20926 114.89749Q180.80301 114.28812 180.80301 113.39749Q180.80301 112.55374 180.24051 112.00687Q179.69363 111.45999 178.84988 111.45999Q178.49051 111.45999 177.97488 111.58499L178.11551 110.50687Q178.24051 110.52249 178.30301 110.52249Q179.09988 110.52249 179.72488 110.11624Q180.34988 109.70999 180.34988 108.85062Q180.34988 108.17874 179.89676 107.74124Q179.44363 107.28812 178.70926 107.28812Q177.99051 107.28812 177.50613 107.74124Q177.03738 108.17874 176.89676 109.08499L175.67801 108.86624Q175.89676 107.63187 176.69363 106.95999Q177.49051 106.27249 178.67801 106.27249Q179.50613 106.27249 180.19363 106.63187Q180.88113 106.97562 181.24051 107.58499Q181.61551 108.19437 181.61551 108.88187Q181.61551 109.52249 181.27176 110.05374Q180.92801 110.58499 180.24051 110.91312Q181.13113 111.11624 181.61551 111.75687Q182.11551 112.39749 182.11551 113.38187Q182.11551 114.69437 181.14676 115.60062Q180.19363 116.50687 178.74051 116.50687Q177.41238 116.50687 176.53738 115.72562Q175.67801 114.94437 175.55301 113.69437ZM190.00613 115.14749L190.00613 116.33499L183.38113 116.33499Q183.36551 115.89749 183.52176 115.47562Q183.78738 114.80374 184.33426 114.14749Q184.89676 113.49124 185.94363 112.63187Q187.58426 111.28812 188.14676 110.50687Q188.72488 109.72562 188.72488 109.02249Q188.72488 108.28812 188.19363 107.78812Q187.67801 107.28812 186.84988 107.28812Q185.95926 107.28812 185.41238 107.81937Q184.88113 108.35062 184.88113 109.30374L183.61551 109.16312Q183.74051 107.75687 184.58426 107.02249Q185.44363 106.27249 186.86551 106.27249Q188.31863 106.27249 189.14676 107.06937Q189.99051 107.86624 189.99051 109.05374Q189.99051 109.66312 189.74051 110.24124Q189.50613 110.81937 188.92801 111.45999Q188.36551 112.10062 187.03738 113.22562Q185.92801 114.14749 185.61551 114.49124Q185.30301 114.81937 185.09988 115.14749L190.00613 115.14749ZM192.22488 116.33499L192.22488 114.92874L193.63113 114.92874L193.63113 116.33499L192.22488 116.33499ZM195.53738 113.70999L196.83426 113.60062Q196.97488 114.53812 197.49051 115.02249Q198.02176 115.49124 198.75613 115.49124Q199.64676 115.49124 200.25613 114.81937Q200.88113 114.14749 200.88113 113.05374Q200.88113 111.99124 200.28738 111.38187Q199.69363 110.77249 198.74051 110.77249Q198.14676 110.77249 197.66238 111.05374Q197.19363 111.31937 196.91238 111.74124L195.75613 111.60062L196.72488 106.44437L201.70926 106.44437L201.70926 107.63187L197.70926 107.63187L197.17801 110.31937Q198.08426 109.69437 199.06863 109.69437Q200.38113 109.69437 201.27176 110.60062Q202.17801 111.50687 202.17801 112.94437Q202.17801 114.30374 201.39676 115.28812Q200.42801 116.50687 198.75613 116.50687Q197.39676 116.50687 196.52176 115.74124Q195.66238 114.97562 195.53738 113.70999ZM203.77176 108.72562Q203.77176 107.64749 204.30301 106.89749Q204.84988 106.14749 205.88113 106.14749Q206.81863 106.14749 207.42801 106.81937Q208.05301 107.49124 208.05301 108.78812Q208.05301 110.06937 207.42801 110.75687Q206.80301 111.44437 205.89676 111.44437Q204.99051 111.44437 204.38113 110.77249Q203.77176 110.08499 203.77176 108.72562ZM205.91238 106.99124Q205.45926 106.99124 205.14676 107.39749Q204.84988 107.78812 204.84988 108.83499Q204.84988 109.80374 205.14676 110.19437Q205.45926 110.58499 205.91238 110.58499Q206.38113 110.58499 206.67801 110.19437Q206.99051 109.80374 206.99051 108.74124Q206.99051 107.77249 206.67801 107.38187Q206.36551 106.99124 205.91238 106.99124ZM205.91238 116.70999L211.39676 106.14749L212.39676 106.14749L206.94363 116.70999L205.91238 116.70999ZM210.25613 113.97562Q210.25613 112.89749 210.78738 112.16312Q211.33426 111.41312 212.36551 111.41312Q213.30301 111.41312 213.92801 112.08499Q214.55301 112.75687 214.55301 114.05374Q214.55301 115.33499 213.92801 116.02249Q213.30301 116.70999 212.36551 116.70999Q211.45926 116.70999 210.84988 116.03812Q210.25613 115.35062 210.25613 113.97562ZM212.39676 112.25687Q211.92801 112.25687 211.63113 112.66312Q211.33426 113.05374 211.33426 114.10062Q211.33426 115.06937 211.63113 115.45999Q211.94363 115.85062 212.39676 115.85062Q212.86551 115.85062 213.16238 115.45999Q213.47488 115.06937 213.47488 114.00687Q213.47488 113.03812 213.16238 112.64749Q212.86551 112.25687 212.39676 112.25687Z" fill-rule="nonzero"/><path fill="#4285f4" d="M28.2 251.8C28.2 255.11371 25.513708 257.8 22.2 257.8C18.886292 257.8 16.2 255.11371 16.2 251.8C16.2 248.4863 18.886292 245.8 22.2 245.8C25.513708 245.8 28.2 248.4863 28.2 251.8Z" fill-rule="nonzero"/><path fill="#1a1a1a" d="M37.121876 255.8L37.121876 247.20625L38.278126 247.20625L42.79375 253.95625L42.79375 247.20625L43.8875 247.20625L43.8875 255.8L42.715626 255.8L38.2 249.05L38.2 255.8L37.121876 255.8ZM45.60625 252.69063Q45.60625 250.95625 46.559376 250.12813Q47.35625 249.44063 48.5125 249.44063Q49.79375 249.44063 50.60625 250.28438Q51.434376 251.1125 51.434376 252.59688Q51.434376 253.8 51.075 254.4875Q50.715626 255.175 50.0125 255.56563Q49.325 255.94063 48.5125 255.94063Q47.215626 255.94063 46.403126 255.1125Q45.60625 254.26875 45.60625 252.69063ZM46.684376 252.69063Q46.684376 253.87813 47.2 254.47188Q47.73125 255.06563 48.5125 255.06563Q49.309376 255.06563 49.825 254.47188Q50.340626 253.87813 50.340626 252.65938Q50.340626 251.50313 49.809376 250.90938Q49.29375 250.31563 48.5125 250.31563Q47.73125 250.31563 47.2 250.90938Q46.684376 251.4875 46.684376 252.69063ZM60.059376 253.51875L61.090626 253.65938Q60.91875 254.72188 60.215626 255.33125Q59.5125 255.94063 58.496876 255.94063Q57.215626 255.94063 56.434376 255.1125Q55.66875 254.26875 55.66875 252.70625Q55.66875 251.70625 55.996876 250.95625Q56.340626 250.19063 57.0125 249.81563Q57.7 249.44063 58.5125 249.44063Q59.5125 249.44063 60.153126 249.95625Q60.809376 250.45625 60.996876 251.40938L59.965626 251.56563Q59.825 250.94063 59.45 250.62813Q59.075 250.3 58.54375 250.3Q57.746876 250.3 57.246876 250.87813Q56.746876 251.44063 56.746876 252.675Q56.746876 253.94063 57.23125 254.50313Q57.715626 255.06563 58.48125 255.06563Q59.10625 255.06563 59.5125 254.69063Q59.934376 254.31563 60.059376 253.51875ZM61.60625 252.69063Q61.60625 250.95625 62.559376 250.12813Q63.35625 249.44063 64.5125 249.44063Q65.79375 249.44063 66.60625 250.28438Q67.43437 251.1125 67.43437 252.59688Q67.43437 253.8 67.075 254.4875Q66.71562 255.175 66.0125 255.56563Q65.325 255.94063 64.5125 255.94063Q63.215626 255.94063 62.403126 255.1125Q61.60625 254.26875 61.60625 252.69063ZM62.684376 252.69063Q62.684376 253.87813 63.2 254.47188Q63.73125 255.06563 64.5125 255.06563Q65.30937 255.06563 65.825 254.47188Q66.34062 253.87813 66.34062 252.65938Q66.34062 251.50313 65.80937 250.90938Q65.29375 250.31563 64.5125 250.31563Q63.73125 250.31563 63.2 250.90938Q62.684376 251.4875 62.684376 252.69063ZM68.99687 255.8L68.99687 249.58125L69.93437 249.58125L69.93437 250.45625Q70.23125 249.9875 70.71562 249.72188Q71.2 249.44063 71.825 249.44063Q72.5125 249.44063 72.95 249.72188Q73.40312 250.00313 73.575 250.51875Q74.325 249.44063 75.49687 249.44063Q76.43437 249.44063 76.91875 249.95625Q77.41875 250.45625 77.41875 251.53438L77.41875 255.8L76.37187 255.8L76.37187 251.87813Q76.37187 251.25313 76.2625 250.97188Q76.16875 250.69063 75.90312 250.51875Q75.6375 250.34688 75.2625 250.34688Q74.60625 250.34688 74.16875 250.78438Q73.74687 251.22188 73.74687 252.19063L73.74687 255.8L72.68437 255.8L72.68437 251.75313Q72.68437 251.05 72.41875 250.70625Q72.16875 250.34688 71.59062 250.34688Q71.1375 250.34688 70.7625 250.58125Q70.3875 250.81563 70.21562 251.26875Q70.04375 251.72188 70.04375 252.56563L70.04375 255.8L68.99687 255.8ZM79.99687 255.8L79.99687 249.58125L80.93437 249.58125L80.93437 250.45625Q81.23125 249.9875 81.71562 249.72188Q82.2 249.44063 82.825 249.44063Q83.5125 249.44063 83.95 249.72188Q84.40312 250.00313 84.575 250.51875Q85.325 249.44063 86.49687 249.44063Q87.43437 249.44063 87.91875 249.95625Q88.41875 250.45625 88.41875 251.53438L88.41875 255.8L87.37187 255.8L87.37187 251.87813Q87.37187 251.25313 87.2625 250.97188Q87.16875 250.69063 86.90312 250.51875Q86.6375 250.34688 86.2625 250.34688Q85.60625 250.34688 85.16875 250.78438Q84.74687 251.22188 84.74687 252.19063L84.74687 255.8L83.68437 255.8L83.68437 251.75313Q83.68437 251.05 83.41875 250.70625Q83.16875 250.34688 82.59062 250.34688Q82.1375 250.34688 81.7625 250.58125Q81.3875 250.81563 81.21562 251.26875Q81.04375 251.72188 81.04375 252.56563L81.04375 255.8L79.99687 255.8ZM95.24687 253.8L96.34062 253.925Q96.09062 254.87813 95.3875 255.40938Q94.68437 255.94063 93.60625 255.94063Q92.24687 255.94063 91.43437 255.09688Q90.6375 254.25313 90.6375 252.7375Q90.6375 251.175 91.45 250.31563Q92.2625 249.44063 93.54375 249.44063Q94.79375 249.44063 95.575 250.28438Q96.37187 251.12813 96.37187 252.675Q96.37187 252.76875 96.37187 252.95625L91.73125 252.95625Q91.79375 253.9875 92.30937 254.53438Q92.825 255.06563 93.60625 255.06563Q94.18437 255.06563 94.59062 254.76875Q95.0125 254.45625 95.24687 253.8ZM91.79375 252.09688L95.2625 252.09688Q95.2 251.3 94.87187 250.90938Q94.35625 250.3 93.55937 250.3Q92.825 250.3 92.325 250.78438Q91.84062 251.26875 91.79375 252.09688ZM97.99687 255.8L97.99687 249.58125L98.93437 249.58125L98.93437 250.45625Q99.62187 249.44063 100.91875 249.44063Q101.48125 249.44063 101.95 249.64375Q102.43437 249.84688 102.66875 250.175Q102.90312 250.50313 102.99687 250.94063Q103.04375 251.2375 103.04375 251.97188L103.04375 255.8L101.99687 255.8L101.99687 252.01875Q101.99687 251.3625 101.87187 251.05Q101.74687 250.7375 101.43437 250.55Q101.12187 250.34688 100.7 250.34688Q100.02812 250.34688 99.52812 250.78438Q99.04375 251.20625 99.04375 252.39375L99.04375 255.8L97.99687 255.8ZM107.29375 254.8625L107.45 255.78438Q106.99687 255.87813 106.65312 255.87813Q106.075 255.87813 105.7625 255.70625Q105.45 255.51875 105.30937 255.22188Q105.18437 254.925 105.18437 253.97188L105.18437 250.39375L104.41875 250.39375L104.41875 249.58125L105.18437 249.58125L105.18437 248.03438L106.23125 247.40938L106.23125 249.58125L107.29375 249.58125L107.29375 250.39375L106.23125 250.39375L106.23125 254.03438Q106.23125 254.4875 106.27812 254.6125Q106.34062 254.7375 106.46562 254.81563Q106.59062 254.89375 106.825 254.89375Q107.0125 254.89375 107.29375 254.8625Z" fill-rule="nonzero"/><path fill="#ea4335" d="M135.2 251.8C135.2 255.11371 132.5137 257.8 129.2 257.8C125.88629 257.8 123.2 255.11371 123.2 251.8C123.2 248.4863 125.88629 245.8 129.2 245.8C132.5137 245.8 135.2 248.4863 135.2 251.8Z" fill-rule="nonzero"/><path fill="#1a1a1a" d="M144.325 255.8L144.325 247.20625L145.45 247.20625L145.45 255.8L144.325 255.8ZM146.99687 255.8L146.99687 249.58125L147.93437 249.58125L147.93437 250.45625Q148.62187 249.44063 149.91875 249.44063Q150.48125 249.44063 150.95 249.64375Q151.43437 249.84688 151.66875 250.175Q151.90312 250.50313 151.99687 250.94063Q152.04375 251.2375 152.04375 251.97188L152.04375 255.8L150.99687 255.8L150.99687 252.01875Q150.99687 251.3625 150.87187 251.05Q150.74687 250.7375 150.43437 250.55Q150.12187 250.34688 149.7 250.34688Q149.02812 250.34688 148.52812 250.78438Q148.04375 251.20625 148.04375 252.39375L148.04375 255.8L146.99687 255.8ZM158.05937 253.51875L159.09062 253.65938Q158.91875 254.72188 158.21562 255.33125Q157.5125 255.94063 156.49687 255.94063Q155.21562 255.94063 154.43437 255.1125Q153.66875 254.26875 153.66875 252.70625Q153.66875 251.70625 153.99687 250.95625Q154.34062 250.19063 155.0125 249.81563Q155.7 249.44063 156.5125 249.44063Q157.5125 249.44063 158.15312 249.95625Q158.80937 250.45625 158.99687 251.40938L157.96562 251.56563Q157.825 250.94063 157.45 250.62813Q157.075 250.3 156.54375 250.3Q155.74687 250.3 155.24687 250.87813Q154.74687 251.44063 154.74687 252.675Q154.74687 253.94063 155.23125 254.50313Q155.71562 255.06563 156.48125 255.06563Q157.10625 255.06563 157.5125 254.69063Q157.93437 254.31563 158.05937 253.51875ZM159.60625 252.69063Q159.60625 250.95625 160.55937 250.12813Q161.35625 249.44063 162.5125 249.44063Q163.79375 249.44063 164.60625 250.28438Q165.43437 251.1125 165.43437 252.59688Q165.43437 253.8 165.075 254.4875Q164.71562 255.175 164.0125 255.56563Q163.325 255.94063 162.5125 255.94063Q161.21562 255.94063 160.40312 255.1125Q159.60625 254.26875 159.60625 252.69063ZM160.68437 252.69063Q160.68437 253.87813 161.2 254.47188Q161.73125 255.06563 162.5125 255.06563Q163.30937 255.06563 163.825 254.47188Q164.34062 253.87813 164.34062 252.65938Q164.34062 251.50313 163.80937 250.90938Q163.29375 250.31563 162.5125 250.31563Q161.73125 250.31563 161.2 250.90938Q160.68437 251.4875 160.68437 252.69063ZM166.99687 255.8L166.99687 249.58125L167.93437 249.58125L167.93437 250.45625Q168.23125 249.9875 168.71562 249.72188Q169.2 249.44063 169.825 249.44063Q170.5125 249.44063 170.95 249.72188Q171.40312 250.00313 171.575 250.51875Q172.325 249.44063 173.49687 249.44063Q174.43437 249.44063 174.91875 249.95625Q175.41875 250.45625 175.41875 251.53438L175.41875 255.8L174.37187 255.8L174.37187 251.87813Q174.37187 251.25313 174.2625 250.97188Q174.16875 250.69063 173.90312 250.51875Q173.6375 250.34688 173.2625 250.34688Q172.60625 250.34688 172.16875 250.78438Q171.74687 251.22188 171.74687 252.19063L171.74687 255.8L170.68437 255.8L170.68437 251.75313Q170.68437 251.05 170.41875 250.70625Q170.16875 250.34688 169.59062 250.34688Q169.1375 250.34688 168.7625 250.58125Q168.3875 250.81563 168.21562 251.26875Q168.04375 251.72188 168.04375 252.56563L168.04375 255.8L166.99687 255.8ZM177.99687 258.1906L177.99687 249.58125L178.95 249.58125L178.95 250.37813Q179.29375 249.90938 179.71562 249.675Q180.15312 249.44063 180.7625 249.44063Q181.55937 249.44063 182.16875 249.84688Q182.77812 250.25313 183.075 251.00313Q183.3875 251.75313 183.3875 252.64375Q183.3875 253.59688 183.04375 254.3625Q182.71562 255.12813 182.05937 255.53438Q181.40312 255.94063 180.68437 255.94063Q180.15312 255.94063 179.73125 255.72188Q179.30937 255.4875 179.04375 255.15938L179.04375 258.1906L177.99687 258.1906ZM178.95 252.72188Q178.95 253.925 179.43437 254.50313Q179.91875 255.06563 180.60625 255.06563Q181.30937 255.06563 181.80937 254.47188Q182.30937 253.87813 182.30937 252.62813Q182.30937 251.44063 181.825 250.8625Q181.34062 250.26875 180.65312 250.26875Q179.98125 250.26875 179.46562 250.89375Q178.95 251.51875 178.95 252.72188ZM184.96562 255.8L184.96562 247.20625L186.02812 247.20625L186.02812 255.8L184.96562 255.8ZM192.24687 253.8L193.34062 253.925Q193.09062 254.87813 192.3875 255.40938Q191.68437 255.94063 190.60625 255.94063Q189.24687 255.94063 188.43437 255.09688Q187.6375 254.25313 187.6375 252.7375Q187.6375 251.175 188.45 250.31563Q189.2625 249.44063 190.54375 249.44063Q191.79375 249.44063 192.575 250.28438Q193.37187 251.12813 193.37187 252.675Q193.37187 252.76875 193.37187 252.95625L188.73125 252.95625Q188.79375 253.9875 189.30937 254.53438Q189.825 255.06563 190.60625 255.06563Q191.18437 255.06563 191.59062 254.76875Q192.0125 254.45625 192.24687 253.8ZM188.79375 252.09688L192.2625 252.09688Q192.2 251.3 191.87187 250.90938Q191.35625 250.3 190.55937 250.3Q189.825 250.3 189.325 250.78438Q188.84062 251.26875 188.79375 252.09688ZM197.29375 254.8625L197.45 255.78438Q196.99687 255.87813 196.65312 255.87813Q196.075 255.87813 195.7625 255.70625Q195.45 255.51875 195.30937 255.22188Q195.18437 254.925 195.18437 253.97188L195.18437 250.39375L194.41875 250.39375L194.41875 249.58125L195.18437 249.58125L195.18437 248.03438L196.23125 247.40938L196.23125 249.58125L197.29375 249.58125L197.29375 250.39375L196.23125 250.39375L196.23125 254.03438Q196.23125 254.4875 196.27812 254.6125Q196.34062 254.7375 196.46562 254.81563Q196.59062 254.89375 196.825 254.89375Q197.0125 254.89375 197.29375 254.8625ZM197.60625 252.69063Q197.60625 250.95625 198.55937 250.12813Q199.35625 249.44063 200.5125 249.44063Q201.79375 249.44063 202.60625 250.28438Q203.43437 251.1125 203.43437 252.59688Q203.43437 253.8 203.075 254.4875Q202.71562 255.175 202.0125 255.56563Q201.325 255.94063 200.5125 255.94063Q199.21562 255.94063 198.40312 255.1125Q197.60625 254.26875 197.60625 252.69063ZM198.68437 252.69063Q198.68437 253.87813 199.2 254.47188Q199.73125 255.06563 200.5125 255.06563Q201.30937 255.06563 201.825 254.47188Q202.34062 253.87813 202.34062 252.65938Q202.34062 251.50313 201.80937 250.90938Q201.29375 250.31563 200.5125 250.31563Q199.73125 250.31563 199.2 250.90938Q198.68437 251.4875 198.68437 252.69063Z" fill-rule="nonzero"/><path fill="#fbbc04" d="M232.2 251.8C232.2 255.11371 229.5137 257.8 226.2 257.8C222.88629 257.8 220.2 255.11371 220.2 251.8C220.2 248.4863 222.88629 245.8 226.2 245.8C229.5137 245.8 232.2 248.4863 232.2 251.8Z" fill-rule="nonzero"/><path fill="#1a1a1a" d="M241.12187 255.8L241.12187 247.20625L242.27812 247.20625L246.79375 253.95625L246.79375 247.20625L247.8875 247.20625L247.8875 255.8L246.71562 255.8L242.2 249.05L242.2 255.8L241.12187 255.8ZM254.24687 253.8L255.34062 253.925Q255.09062 254.87813 254.3875 255.40938Q253.68437 255.94063 252.60625 255.94063Q251.24687 255.94063 250.43437 255.09688Q249.6375 254.25313 249.6375 252.7375Q249.6375 251.175 250.45 250.31563Q251.2625 249.44063 252.54375 249.44063Q253.79375 249.44063 254.575 250.28438Q255.37187 251.12813 255.37187 252.675Q255.37187 252.76875 255.37187 252.95625L250.73125 252.95625Q250.79375 253.9875 251.30937 254.53438Q251.825 255.06563 252.60625 255.06563Q253.18437 255.06563 253.59062 254.76875Q254.0125 254.45625 254.24687 253.8ZM250.79375 252.09688L254.2625 252.09688Q254.2 251.3 253.87187 250.90938Q253.35625 250.3 252.55937 250.3Q251.825 250.3 251.325 250.78438Q250.84062 251.26875 250.79375 252.09688ZM256.575 253.94063L257.60626 253.78438Q257.7 254.40938 258.09064 254.7375Q258.4969 255.06563 259.23126 255.06563Q259.95 255.06563 260.29376 254.78438Q260.65314 254.4875 260.65314 254.08125Q260.65314 253.72188 260.34064 253.51875Q260.1219 253.37813 259.2625 253.15938Q258.10626 252.8625 257.65314 252.65938Q257.21564 252.44063 256.98126 252.06563Q256.7469 251.69063 256.7469 251.22188Q256.7469 250.81563 256.9344 250.45625Q257.1219 250.09688 257.45 249.8625Q257.7 249.69063 258.1219 249.56563Q258.54376 249.44063 259.04376 249.44063Q259.7625 249.44063 260.3094 249.65938Q260.8719 249.8625 261.1375 250.22188Q261.40314 250.58125 261.4969 251.175L260.46564 251.31563Q260.40314 250.84688 260.0594 250.58125Q259.73126 250.3 259.10626 250.3Q258.3875 250.3 258.075 250.55Q257.7625 250.78438 257.7625 251.1125Q257.7625 251.31563 257.8875 251.47188Q258.02814 251.64375 258.29376 251.75313Q258.45 251.81563 259.23126 252.01875Q260.35626 252.33125 260.79376 252.51875Q261.23126 252.70625 261.48126 253.06563Q261.73126 253.425 261.73126 253.97188Q261.73126 254.50313 261.41876 254.97188Q261.1219 255.425 260.54376 255.69063Q259.96564 255.94063 259.23126 255.94063Q258.0125 255.94063 257.3719 255.44063Q256.7469 254.925 256.575 253.94063ZM263.575 253.94063L264.60626 253.78438Q264.7 254.40938 265.09064 254.7375Q265.4969 255.06563 266.23126 255.06563Q266.95 255.06563 267.29376 254.78438Q267.65314 254.4875 267.65314 254.08125Q267.65314 253.72188 267.34064 253.51875Q267.1219 253.37813 266.2625 253.15938Q265.10626 252.8625 264.65314 252.65938Q264.21564 252.44063 263.98126 252.06563Q263.7469 251.69063 263.7469 251.22188Q263.7469 250.81563 263.9344 250.45625Q264.1219 250.09688 264.45 249.8625Q264.7 249.69063 265.1219 249.56563Q265.54376 249.44063 266.04376 249.44063Q266.7625 249.44063 267.3094 249.65938Q267.8719 249.8625 268.1375 250.22188Q268.40314 250.58125 268.4969 251.175L267.46564 251.31563Q267.40314 250.84688 267.0594 250.58125Q266.73126 250.3 266.10626 250.3Q265.3875 250.3 265.075 250.55Q264.7625 250.78438 264.7625 251.1125Q264.7625 251.31563 264.8875 251.47188Q265.02814 251.64375 265.29376 251.75313Q265.45 251.81563 266.23126 252.01875Q267.35626 252.33125 267.79376 252.51875Q268.23126 252.70625 268.48126 253.06563Q268.73126 253.425 268.73126 253.97188Q268.73126 254.50313 268.41876 254.97188Q268.1219 255.425 267.54376 255.69063Q266.96564 255.94063 266.23126 255.94063Q265.0125 255.94063 264.3719 255.44063Q263.7469 254.925 263.575 253.94063ZM275.075 255.8L275.075 254.87813Q274.34064 255.94063 273.09064 255.94063Q272.54376 255.94063 272.0594 255.7375Q271.59064 255.51875 271.35626 255.20625Q271.1219 254.87813 271.02814 254.40938Q270.96564 254.1125 270.96564 253.425L270.96564 249.58125L272.02814 249.58125L272.02814 253.03438Q272.02814 253.84688 272.09064 254.14375Q272.1844 254.55 272.4969 254.8Q272.825 255.03438 273.3094 255.03438Q273.77814 255.03438 274.1844 254.8Q274.60626 254.55 274.77814 254.12813Q274.96564 253.70625 274.96564 252.90938L274.96564 249.58125L276.0125 249.58125L276.0125 255.8L275.075 255.8ZM277.9969 255.8L277.9969 249.58125L278.9344 249.58125L278.9344 250.45625Q279.6219 249.44063 280.91876 249.44063Q281.48126 249.44063 281.95 249.64375Q282.4344 249.84688 282.66876 250.175Q282.90314 250.50313 282.9969 250.94063Q283.04376 251.2375 283.04376 251.97188L283.04376 255.8L281.9969 255.8L281.9969 252.01875Q281.9969 251.3625 281.8719 251.05Q281.7469 250.7375 281.4344 250.55Q281.1219 250.34688 280.7 250.34688Q280.02814 250.34688 279.52814 250.78438Q279.04376 251.20625 279.04376 252.39375L279.04376 255.8L277.9969 255.8ZM289.0594 255.03438Q288.46564 255.53438 287.91876 255.7375Q287.3875 255.94063 286.7625 255.94063Q285.73126 255.94063 285.1844 255.44063Q284.6375 254.94063 284.6375 254.15938Q284.6375 253.70625 284.84064 253.33125Q285.04376 252.94063 285.3875 252.72188Q285.73126 252.4875 286.15314 252.37813Q286.45 252.28438 287.09064 252.20625Q288.35626 252.06563 288.96564 251.84688Q288.96564 251.62813 288.96564 251.58125Q288.96564 250.925 288.66876 250.65938Q288.2625 250.31563 287.46564 250.31563Q286.73126 250.31563 286.3719 250.58125Q286.0125 250.83125 285.84064 251.4875L284.8094 251.34688Q284.95 250.69063 285.27814 250.28438Q285.60626 249.87813 286.21564 249.65938Q286.825 249.44063 287.6219 249.44063Q288.41876 249.44063 288.91876 249.62813Q289.41876 249.81563 289.65314 250.09688Q289.8875 250.37813 289.98126 250.81563Q290.02814 251.08125 290.02814 251.78438L290.02814 253.19063Q290.02814 254.65938 290.09064 255.05Q290.16876 255.44063 290.3719 255.8L289.2625 255.8Q289.10626 255.47188 289.0594 255.03438ZM288.96564 252.675Q288.3875 252.90938 287.2469 253.08125Q286.59064 253.175 286.325 253.3Q286.0594 253.40938 285.90314 253.62813Q285.7625 253.84688 285.7625 254.12813Q285.7625 254.55 286.075 254.83125Q286.40314 255.1125 287.0125 255.1125Q287.6219 255.1125 288.09064 254.84688Q288.575 254.58125 288.79376 254.1125Q288.96564 253.75313 288.96564 253.06563L288.96564 252.675ZM299.0594 253.51875L300.09064 253.65938Q299.91876 254.72188 299.21564 255.33125Q298.5125 255.94063 297.4969 255.94063Q296.21564 255.94063 295.4344 255.1125Q294.66876 254.26875 294.66876 252.70625Q294.66876 251.70625 294.9969 250.95625Q295.34064 250.19063 296.0125 249.81563Q296.7 249.44063 297.5125 249.44063Q298.5125 249.44063 299.15314 249.95625Q299.8094 250.45625 299.9969 251.40938L298.96564 251.56563Q298.825 250.94063 298.45 250.62813Q298.075 250.3 297.54376 250.3Q296.7469 250.3 296.2469 250.87813Q295.7469 251.44063 295.7469 252.675Q295.7469 253.94063 296.23126 254.50313Q296.71564 255.06563 297.48126 255.06563Q298.10626 255.06563 298.5125 254.69063Q298.9344 254.31563 299.0594 253.51875ZM300.98126 255.8L300.98126 249.58125L301.9344 249.58125L301.9344 250.51875Q302.29376 249.8625 302.59064 249.65938Q302.90314 249.44063 303.27814 249.44063Q303.8094 249.44063 304.35626 249.76875L303.9969 250.75313Q303.60626 250.51875 303.23126 250.51875Q302.8719 250.51875 302.59064 250.7375Q302.325 250.94063 302.21564 251.31563Q302.02814 251.87813 302.02814 252.53438L302.02814 255.8L300.98126 255.8ZM304.9969 248.425L304.9969 247.20625L306.0594 247.20625L306.0594 248.425L304.9969 248.425ZM304.9969 255.8L304.9969 249.58125L306.0594 249.58125L306.0594 255.8L304.9969 255.8ZM310.29376 254.8625L310.45 255.78438Q309.9969 255.87813 309.65314 255.87813Q309.075 255.87813 308.7625 255.70625Q308.45 255.51875 308.3094 255.22188Q308.1844 254.925 308.1844 253.97188L308.1844 250.39375L307.41876 250.39375L307.41876 249.58125L308.1844 249.58125L308.1844 248.03438L309.23126 247.40938L309.23126 249.58125L310.29376 249.58125L310.29376 250.39375L309.23126 250.39375L309.23126 254.03438Q309.23126 254.4875 309.27814 254.6125Q309.34064 254.7375 309.46564 254.81563Q309.59064 254.89375 309.825 254.89375Q310.0125 254.89375 310.29376 254.8625ZM310.9969 248.425L310.9969 247.20625L312.0594 247.20625L312.0594 248.425L310.9969 248.425ZM310.9969 255.8L310.9969 249.58125L312.0594 249.58125L312.0594 255.8L310.9969 255.8ZM318.0594 253.51875L319.09064 253.65938Q318.91876 254.72188 318.21564 255.33125Q317.5125 255.94063 316.4969 255.94063Q315.21564 255.94063 314.4344 255.1125Q313.66876 254.26875 313.66876 252.70625Q313.66876 251.70625 313.9969 250.95625Q314.34064 250.19063 315.0125 249.81563Q315.7 249.44063 316.5125 249.44063Q317.5125 249.44063 318.15314 249.95625Q318.8094 250.45625 318.9969 251.40938L317.96564 251.56563Q317.825 250.94063 317.45 250.62813Q317.075 250.3 316.54376 250.3Q315.7469 250.3 315.2469 250.87813Q314.7469 251.44063 314.7469 252.675Q314.7469 253.94063 315.23126 254.50313Q315.71564 255.06563 316.48126 255.06563Q317.10626 255.06563 317.5125 254.69063Q317.9344 254.31563 318.0594 253.51875ZM319.9969 248.425L319.9969 247.20625L321.0594 247.20625L321.0594 248.425L319.9969 248.425ZM319.9969 255.8L319.9969 249.58125L321.0594 249.58125L321.0594 255.8L319.9969 255.8ZM325.29376 254.8625L325.45 255.78438Q324.9969 255.87813 324.65314 255.87813Q324.075 255.87813 323.7625 255.70625Q323.45 255.51875 323.3094 255.22188Q323.1844 254.925 323.1844 253.97188L323.1844 250.39375L322.41876 250.39375L322.41876 249.58125L323.1844 249.58125L323.1844 248.03438L324.23126 247.40938L324.23126 249.58125L325.29376 249.58125L325.29376 250.39375L324.23126 250.39375L324.23126 254.03438Q324.23126 254.4875 324.27814 254.6125Q324.34064 254.7375 324.46564 254.81563Q324.59064 254.89375 324.825 254.89375Q325.0125 254.89375 325.29376 254.8625ZM330.0594 255.03438Q329.46564 255.53438 328.91876 255.7375Q328.3875 255.94063 327.7625 255.94063Q326.73126 255.94063 326.1844 255.44063Q325.6375 254.94063 325.6375 254.15938Q325.6375 253.70625 325.84064 253.33125Q326.04376 252.94063 326.3875 252.72188Q326.73126 252.4875 327.15314 252.37813Q327.45 252.28438 328.09064 252.20625Q329.35626 252.06563 329.96564 251.84688Q329.96564 251.62813 329.96564 251.58125Q329.96564 250.925 329.66876 250.65938Q329.2625 250.31563 328.46564 250.31563Q327.73126 250.31563 327.3719 250.58125Q327.0125 250.83125 326.84064 251.4875L325.8094 251.34688Q325.95 250.69063 326.27814 250.28438Q326.60626 249.87813 327.21564 249.65938Q327.825 249.44063 328.6219 249.44063Q329.41876 249.44063 329.91876 249.62813Q330.41876 249.81563 330.65314 250.09688Q330.8875 250.37813 330.98126 250.81563Q331.02814 251.08125 331.02814 251.78438L331.02814 253.19063Q331.02814 254.65938 331.09064 255.05Q331.16876 255.44063 331.3719 255.8L330.2625 255.8Q330.10626 255.47188 330.0594 255.03438ZM329.96564 252.675Q329.3875 252.90938 328.2469 253.08125Q327.59064 253.175 327.325 253.3Q327.0594 253.40938 326.90314 253.62813Q326.7625 253.84688 326.7625 254.12813Q326.7625 254.55 327.075 254.83125Q327.40314 255.1125 328.0125 255.1125Q328.6219 255.1125 329.09064 254.84688Q329.575 254.58125 329.79376 254.1125Q329.96564 253.75313 329.96564 253.06563L329.96564 252.675ZM329.3875 248.8L328.54376 248.8L327.1844 247.15938L328.60626 247.15938L329.3875 248.8Z" fill-rule="nonzero"/><path fill="#34a853" d="M118.7 269.8C118.7 273.1137 116.01371 275.8 112.7 275.8C109.38629 275.8 106.7 273.1137 106.7 269.8C106.7 266.4863 109.38629 263.8 112.7 263.8C116.01371 263.8 118.7 266.4863 118.7 269.8Z" fill-rule="nonzero"/><path fill="#1a1a1a" d="M127.62187 273.8L127.62187 265.20624L130.87187 265.20624Q131.71562 265.20624 132.16875 265.28436Q132.80937 265.39374 133.23125 265.6906Q133.66875 265.9875 133.91875 266.51874Q134.18437 267.05 134.18437 267.6906Q134.18437 268.78436 133.48125 269.55Q132.79375 270.3 130.96562 270.3L128.7625 270.3L128.7625 273.8L127.62187 273.8ZM128.7625 269.3L130.98125 269.3Q132.09062 269.3 132.54375 268.89374Q133.0125 268.47186 133.0125 267.72186Q133.0125 267.1906 132.73125 266.8156Q132.46562 266.425 132.02812 266.3Q131.73125 266.22186 130.96562 266.22186L128.7625 266.22186L128.7625 269.3ZM135.49687 266.425L135.49687 265.20624L136.55937 265.20624L136.55937 266.425L135.49687 266.425ZM135.49687 273.8L135.49687 267.58124L136.55937 267.58124L136.55937 273.8L135.49687 273.8ZM142.575 273.8L142.575 272.8781Q141.84062 273.9406 140.59062 273.9406Q140.04375 273.9406 139.55937 273.7375Q139.09062 273.51874 138.85625 273.20624Q138.62187 272.8781 138.52812 272.40936Q138.46562 272.1125 138.46562 271.425L138.46562 267.58124L139.52812 267.58124L139.52812 271.03436Q139.52812 271.84686 139.59062 272.14374Q139.68437 272.55 139.99687 272.8Q140.325 273.03436 140.80937 273.03436Q141.27812 273.03436 141.68437 272.8Q142.10625 272.55 142.27812 272.1281Q142.46562 271.70624 142.46562 270.90936L142.46562 267.58124L143.5125 267.58124L143.5125 273.8L142.575 273.8ZM141.96562 266.8L141.12187 266.8L139.7625 265.15936L141.18437 265.15936L141.96562 266.8ZM148.49687 276.1906L148.49687 267.58124L149.45 267.58124L149.45 268.3781Q149.79375 267.90936 150.21562 267.675Q150.65312 267.4406 151.2625 267.4406Q152.05937 267.4406 152.66875 267.84686Q153.27812 268.2531 153.575 269.0031Q153.8875 269.7531 153.8875 270.64374Q153.8875 271.59686 153.54375 272.3625Q153.21562 273.1281 152.55937 273.53436Q151.90312 273.9406 151.18437 273.9406Q150.65312 273.9406 150.23125 273.72186Q149.80937 273.4875 149.54375 273.15936L149.54375 276.1906L148.49687 276.1906ZM149.45 270.72186Q149.45 271.925 149.93437 272.5031Q150.41875 273.0656 151.10625 273.0656Q151.80937 273.0656 152.30937 272.47186Q152.80937 271.8781 152.80937 270.6281Q152.80937 269.4406 152.325 268.8625Q151.84062 268.26874 151.15312 268.26874Q150.48125 268.26874 149.96562 268.89374Q149.45 269.51874 149.45 270.72186ZM155.48125 273.8L155.48125 267.58124L156.43437 267.58124L156.43437 268.51874Q156.79375 267.8625 157.09062 267.65936Q157.40312 267.4406 157.77812 267.4406Q158.30937 267.4406 158.85625 267.76874L158.49687 268.7531Q158.10625 268.51874 157.73125 268.51874Q157.37187 268.51874 157.09062 268.7375Q156.825 268.9406 156.71562 269.3156Q156.52812 269.8781 156.52812 270.53436L156.52812 273.8L155.48125 273.8ZM159.10625 270.6906Q159.10625 268.95624 160.05937 268.1281Q160.85625 267.4406 162.0125 267.4406Q163.29375 267.4406 164.10625 268.28436Q164.93437 269.1125 164.93437 270.59686Q164.93437 271.8 164.575 272.4875Q164.21562 273.175 163.5125 273.5656Q162.825 273.9406 162.0125 273.9406Q160.71562 273.9406 159.90312 273.1125Q159.10625 272.26874 159.10625 270.6906ZM160.18437 270.6906Q160.18437 271.8781 160.7 272.47186Q161.23125 273.0656 162.0125 273.0656Q162.80937 273.0656 163.325 272.47186Q163.84062 271.8781 163.84062 270.65936Q163.84062 269.5031 163.30937 268.90936Q162.79375 268.3156 162.0125 268.3156Q161.23125 268.3156 160.7 268.90936Q160.18437 269.4875 160.18437 270.6906ZM166.29375 274.3156L167.325 274.47186Q167.3875 274.9406 167.68437 275.15936Q168.075 275.45624 168.74687 275.45624Q169.48125 275.45624 169.87187 275.15936Q170.27812 274.8625 170.41875 274.34686Q170.5125 274.01874 170.49687 272.9875Q169.80937 273.8 168.77812 273.8Q167.49687 273.8 166.79375 272.8781Q166.09062 271.9406 166.09062 270.65936Q166.09062 269.76874 166.40312 269.01874Q166.73125 268.2531 167.34062 267.84686Q167.95 267.4406 168.77812 267.4406Q169.8875 267.4406 170.60625 268.33124L170.60625 267.58124L171.575 267.58124L171.575 272.95624Q171.575 274.40936 171.27812 275.01874Q170.98125 275.6281 170.34062 275.97186Q169.7 276.33124 168.7625 276.33124Q167.65312 276.33124 166.96562 275.83124Q166.27812 275.33124 166.29375 274.3156ZM167.16875 270.58124Q167.16875 271.8 167.65312 272.3625Q168.1375 272.925 168.87187 272.925Q169.60625 272.925 170.09062 272.3625Q170.59062 271.8 170.59062 270.6125Q170.59062 269.47186 170.075 268.89374Q169.575 268.3156 168.85625 268.3156Q168.15312 268.3156 167.65312 268.89374Q167.16875 269.45624 167.16875 270.58124ZM173.48125 273.8L173.48125 267.58124L174.43437 267.58124L174.43437 268.51874Q174.79375 267.8625 175.09062 267.65936Q175.40312 267.4406 175.77812 267.4406Q176.30937 267.4406 176.85625 267.76874L176.49687 268.7531Q176.10625 268.51874 175.73125 268.51874Q175.37187 268.51874 175.09062 268.7375Q174.825 268.9406 174.71562 269.3156Q174.52812 269.8781 174.52812 270.53436L174.52812 273.8L173.48125 273.8ZM181.55937 273.03436Q180.96562 273.53436 180.41875 273.7375Q179.8875 273.9406 179.2625 273.9406Q178.23125 273.9406 177.68437 273.4406Q177.1375 272.9406 177.1375 272.15936Q177.1375 271.70624 177.34062 271.33124Q177.54375 270.9406 177.8875 270.72186Q178.23125 270.4875 178.65312 270.3781Q178.95 270.28436 179.59062 270.20624Q180.85625 270.0656 181.46562 269.84686Q181.46562 269.6281 181.46562 269.58124Q181.46562 268.925 181.16875 268.65936Q180.7625 268.3156 179.96562 268.3156Q179.23125 268.3156 178.87187 268.58124Q178.5125 268.83124 178.34062 269.4875L177.30937 269.34686Q177.45 268.6906 177.77812 268.28436Q178.10625 267.8781 178.71562 267.65936Q179.325 267.4406 180.12187 267.4406Q180.91875 267.4406 181.41875 267.6281Q181.91875 267.8156 182.15312 268.09686Q182.3875 268.3781 182.48125 268.8156Q182.52812 269.08124 182.52812 269.78436L182.52812 271.1906Q182.52812 272.65936 182.59062 273.05Q182.66875 273.4406 182.87187 273.8L181.7625 273.8Q181.60625 273.47186 181.55937 273.03436ZM181.46562 270.675Q180.8875 270.90936 179.74687 271.08124Q179.09062 271.175 178.825 271.3Q178.55937 271.40936 178.40312 271.6281Q178.2625 271.84686 178.2625 272.1281Q178.2625 272.55 178.575 272.83124Q178.90312 273.1125 179.5125 273.1125Q180.12187 273.1125 180.59062 272.84686Q181.075 272.58124 181.29375 272.1125Q181.46562 271.7531 181.46562 271.0656L181.46562 270.675ZM184.49687 273.8L184.49687 267.58124L185.43437 267.58124L185.43437 268.45624Q185.73125 267.9875 186.21562 267.72186Q186.7 267.4406 187.325 267.4406Q188.0125 267.4406 188.45 267.72186Q188.90312 268.0031 189.075 268.51874Q189.825 267.4406 190.99687 267.4406Q191.93437 267.4406 192.41875 267.95624Q192.91875 268.45624 192.91875 269.53436L192.91875 273.8L191.87187 273.8L191.87187 269.8781Q191.87187 269.2531 191.7625 268.97186Q191.66875 268.6906 191.40312 268.51874Q191.1375 268.34686 190.7625 268.34686Q190.10625 268.34686 189.66875 268.78436Q189.24687 269.22186 189.24687 270.1906L189.24687 273.8L188.18437 273.8L188.18437 269.7531Q188.18437 269.05 187.91875 268.70624Q187.66875 268.34686 187.09062 268.34686Q186.6375 268.34686 186.2625 268.58124Q185.8875 268.8156 185.71562 269.26874Q185.54375 269.72186 185.54375 270.5656L185.54375 273.8L184.49687 273.8ZM195.49687 273.8L195.49687 267.58124L196.43437 267.58124L196.43437 268.45624Q196.73125 267.9875 197.21562 267.72186Q197.7 267.4406 198.325 267.4406Q199.0125 267.4406 199.45 267.72186Q199.90312 268.0031 200.075 268.51874Q200.825 267.4406 201.99687 267.4406Q202.93437 267.4406 203.41875 267.95624Q203.91875 268.45624 203.91875 269.53436L203.91875 273.8L202.87187 273.8L202.87187 269.8781Q202.87187 269.2531 202.7625 268.97186Q202.66875 268.6906 202.40312 268.51874Q202.1375 268.34686 201.7625 268.34686Q201.10625 268.34686 200.66875 268.78436Q200.24687 269.22186 200.24687 270.1906L200.24687 273.8L199.18437 273.8L199.18437 269.7531Q199.18437 269.05 198.91875 268.70624Q198.66875 268.34686 198.09062 268.34686Q197.6375 268.34686 197.2625 268.58124Q196.8875 268.8156 196.71562 269.26874Q196.54375 269.72186 196.54375 270.5656L196.54375 273.8L195.49687 273.8ZM210.55937 273.03436Q209.96562 273.53436 209.41875 273.7375Q208.8875 273.9406 208.2625 273.9406Q207.23125 273.9406 206.68437 273.4406Q206.1375 272.9406 206.1375 272.15936Q206.1375 271.70624 206.34062 271.33124Q206.54375 270.9406 206.8875 270.72186Q207.23125 270.4875 207.65312 270.3781Q207.95 270.28436 208.59062 270.20624Q209.85625 270.0656 210.46562 269.84686Q210.46562 269.6281 210.46562 269.58124Q210.46562 268.925 210.16875 268.65936Q209.7625 268.3156 208.96562 268.3156Q208.23125 268.3156 207.87187 268.58124Q207.5125 268.83124 207.34062 269.4875L206.30937 269.34686Q206.45 268.6906 206.77812 268.28436Q207.10625 267.8781 207.71562 267.65936Q208.325 267.4406 209.12187 267.4406Q209.91875 267.4406 210.41875 267.6281Q210.91875 267.8156 211.15312 268.09686Q211.3875 268.3781 211.48125 268.8156Q211.52812 269.08124 211.52812 269.78436L211.52812 271.1906Q211.52812 272.65936 211.59062 273.05Q211.66875 273.4406 211.87187 273.8L210.7625 273.8Q210.60625 273.47186 210.55937 273.03436ZM210.46562 270.675Q209.8875 270.90936 208.74687 271.08124Q208.09062 271.175 207.825 271.3Q207.55937 271.40936 207.40312 271.6281Q207.2625 271.84686 207.2625 272.1281Q207.2625 272.55 207.575 272.83124Q207.90312 273.1125 208.5125 273.1125Q209.12187 273.1125 209.59062 272.84686Q210.075 272.58124 210.29375 272.1125Q210.46562 271.7531 210.46562 271.0656L210.46562 270.675ZM212.93437 273.8L212.93437 272.9406L216.90312 268.39374Q216.21562 268.425 215.7 268.425L213.16875 268.425L213.16875 267.58124L218.2625 267.58124L218.2625 268.26874L214.8875 272.22186L214.23125 272.9406Q214.95 272.89374 215.55937 272.89374L218.45 272.89374L218.45 273.8L212.93437 273.8ZM218.49687 266.425L218.49687 265.20624L219.55937 265.20624L219.55937 266.425L218.49687 266.425ZM218.49687 273.8L218.49687 267.58124L219.55937 267.58124L219.55937 273.8L218.49687 273.8ZM221.10625 270.6906Q221.10625 268.95624 222.05937 268.1281Q222.85625 267.4406 224.0125 267.4406Q225.29375 267.4406 226.10625 268.28436Q226.93437 269.1125 226.93437 270.59686Q226.93437 271.8 226.575 272.4875Q226.21562 273.175 225.5125 273.5656Q224.825 273.9406 224.0125 273.9406Q222.71562 273.9406 221.90312 273.1125Q221.10625 272.26874 221.10625 270.6906ZM222.18437 270.6906Q222.18437 271.8781 222.7 272.47186Q223.23125 273.0656 224.0125 273.0656Q224.80937 273.0656 225.325 272.47186Q225.84062 271.8781 225.84062 270.65936Q225.84062 269.5031 225.30937 268.90936Q224.79375 268.3156 224.0125 268.3156Q223.23125 268.3156 222.7 268.90936Q222.18437 269.4875 222.18437 270.6906ZM228.49687 273.8L228.49687 267.58124L229.43437 267.58124L229.43437 268.45624Q230.12187 267.4406 231.41875 267.4406Q231.98125 267.4406 232.45 267.64374Q232.93437 267.84686 233.16875 268.175Q233.40312 268.5031 233.49687 268.9406Q233.54375 269.2375 233.54375 269.97186L233.54375 273.8L232.49687 273.8L232.49687 270.01874Q232.49687 269.3625 232.37187 269.05Q232.24687 268.7375 231.93437 268.55Q231.62187 268.34686 231.2 268.34686Q230.52812 268.34686 230.02812 268.78436Q229.54375 269.20624 229.54375 270.39374L229.54375 273.8L228.49687 273.8ZM239.74687 271.8L240.84062 271.925Q240.59062 272.8781 239.8875 273.40936Q239.18437 273.9406 238.10625 273.9406Q236.74687 273.9406 235.93437 273.09686Q235.1375 272.2531 235.1375 270.7375Q235.1375 269.175 235.95 268.3156Q236.7625 267.4406 238.04375 267.4406Q239.29375 267.4406 240.075 268.28436Q240.87187 269.1281 240.87187 270.675Q240.87187 270.76874 240.87187 270.95624L236.23125 270.95624Q236.29375 271.9875 236.80937 272.53436Q237.325 273.0656 238.10625 273.0656Q238.68437 273.0656 239.09062 272.76874Q239.5125 272.45624 239.74687 271.8ZM236.29375 270.09686L239.7625 270.09686Q239.7 269.3 239.37187 268.90936Q238.85625 268.3 238.05937 268.3Q237.325 268.3 236.825 268.78436Q236.34062 269.26874 236.29375 270.09686Z" fill-rule="nonzero"/><path fill="#757575" d="M27.590626 32.66875Q28.91875 33.575 30.028126 33.996876L29.465626 35.309376Q27.91875 34.7625 26.3875 33.559376Q24.79375 34.45 22.871876 34.45Q20.934376 34.45 19.340626 33.5125Q17.7625 32.575 16.903126 30.871876Q16.059376 29.16875 16.059376 27.04375Q16.059376 24.91875 16.91875 23.184376Q17.778126 21.45 19.35625 20.54375Q20.95 19.621876 22.91875 19.621876Q24.903126 19.621876 26.48125 20.575Q28.075 21.5125 28.903126 23.215626Q29.746876 24.903126 29.746876 27.028126Q29.746876 28.79375 29.215626 30.215626Q28.684376 31.621876 27.590626 32.66875ZM23.41875 30.246876Q25.059376 30.7 26.121876 31.60625Q27.79375 30.090626 27.79375 27.028126Q27.79375 25.29375 27.2 23.996876Q26.621876 22.7 25.48125 21.98125Q24.340626 21.2625 22.91875 21.2625Q20.809376 21.2625 19.403126 22.715626Q18.0125 24.153126 18.0125 27.04375Q18.0125 29.840626 19.3875 31.340626Q20.778126 32.825 22.91875 32.825Q23.934376 32.825 24.840626 32.434376Q23.95 31.871876 22.965626 31.621876L23.41875 30.246876ZM39.309376 34.2L39.309376 32.66875Q38.10625 34.434376 36.028126 34.434376Q35.10625 34.434376 34.309376 34.090626Q33.5125 33.73125 33.121876 33.2Q32.746876 32.66875 32.590626 31.8875Q32.48125 31.371876 32.48125 30.246876L32.48125 23.825L34.23125 23.825L34.23125 29.575Q34.23125 30.95 34.340626 31.434376Q34.5125 32.121876 35.04375 32.528126Q35.590626 32.91875 36.371876 32.91875Q37.16875 32.91875 37.85625 32.5125Q38.559376 32.10625 38.840626 31.41875Q39.1375 30.715626 39.1375 29.3875L39.1375 23.825L40.8875 23.825L40.8875 34.2L39.309376 34.2ZM49.29375 32.91875Q48.309376 33.746876 47.403126 34.090626Q46.496876 34.434376 45.465626 34.434376Q43.7625 34.434376 42.840626 33.60625Q41.91875 32.7625 41.91875 31.465626Q41.91875 30.7 42.2625 30.075Q42.621876 29.45 43.184376 29.075Q43.746876 28.684376 44.45 28.48125Q44.965626 28.35625 46.0125 28.215626Q48.1375 27.965626 49.1375 27.621876Q49.153126 27.2625 49.153126 27.153126Q49.153126 26.090626 48.653126 25.6375Q47.98125 25.04375 46.653126 25.04375Q45.403126 25.04375 44.809376 25.48125Q44.23125 25.91875 43.95 27.028126L42.23125 26.79375Q42.465626 25.684376 42.996876 25.0125Q43.528126 24.325 44.54375 23.965626Q45.559376 23.590626 46.903126 23.590626Q48.23125 23.590626 49.059376 23.903126Q49.8875 24.215626 50.278126 24.7Q50.66875 25.16875 50.825 25.8875Q50.91875 26.340626 50.91875 27.5125L50.91875 29.85625Q50.91875 32.309376 51.028126 32.965626Q51.1375 33.60625 51.48125 34.2L49.6375 34.2Q49.371876 33.653126 49.29375 32.91875ZM49.1375 28.996876Q48.184376 29.3875 46.2625 29.653126Q45.184376 29.809376 44.73125 30.0125Q44.29375 30.2 44.04375 30.575Q43.79375 30.95 43.79375 31.41875Q43.79375 32.121876 44.325 32.590626Q44.85625 33.059376 45.8875 33.059376Q46.903126 33.059376 47.684376 32.621876Q48.48125 32.16875 48.85625 31.403126Q49.1375 30.79375 49.1375 29.6375L49.1375 28.996876ZM53.48125 34.2L53.48125 19.8875L55.23125 19.8875L55.23125 34.2L53.48125 34.2ZM57.528126 21.903126L57.528126 19.8875L59.29375 19.8875L59.29375 21.903126L57.528126 21.903126ZM57.528126 34.2L57.528126 23.825L59.29375 23.825L59.29375 34.2L57.528126 34.2ZM66.80937 31.10625L68.55937 30.825Q68.7 31.871876 69.37187 32.434376Q70.04375 32.98125 71.24687 32.98125Q72.45 32.98125 73.02812 32.496876Q73.62187 31.996876 73.62187 31.340626Q73.62187 30.746876 73.10625 30.403126Q72.74687 30.16875 71.30937 29.809376Q69.37187 29.309376 68.62187 28.965626Q67.8875 28.60625 67.49687 27.98125Q67.10625 27.340626 67.10625 26.575Q67.10625 25.8875 67.41875 25.29375Q67.74687 24.7 68.29375 24.309376Q68.7 24.0125 69.40312 23.809376Q70.12187 23.590626 70.93437 23.590626Q72.15312 23.590626 73.075 23.95Q73.99687 24.29375 74.43437 24.903126Q74.87187 25.496876 75.04375 26.496876L73.325 26.73125Q73.2 25.934376 72.6375 25.496876Q72.075 25.04375 71.05937 25.04375Q69.84062 25.04375 69.325 25.45Q68.80937 25.840626 68.80937 26.371876Q68.80937 26.715626 69.02812 26.996876Q69.23125 27.278126 69.7 27.465626Q69.96562 27.559376 71.24687 27.903126Q73.12187 28.403126 73.85625 28.73125Q74.59062 29.04375 75.0125 29.653126Q75.43437 30.246876 75.43437 31.153126Q75.43437 32.028126 74.91875 32.809376Q74.40312 33.590626 73.43437 34.0125Q72.46562 34.434376 71.24687 34.434376Q69.23125 34.434376 68.16875 33.590626Q67.10625 32.746876 66.80937 31.10625ZM76.87187 29.0125Q76.87187 26.1375 78.46562 24.746876Q79.80937 23.590626 81.73125 23.590626Q83.87187 23.590626 85.21562 24.996876Q86.575 26.403126 86.575 28.871876Q86.575 30.871876 85.98125 32.028126Q85.3875 33.16875 84.23125 33.809376Q83.09062 34.434376 81.73125 34.434376Q79.54375 34.434376 78.2 33.04375Q76.87187 31.6375 76.87187 29.0125ZM78.66875 29.0125Q78.66875 31.0125 79.52812 31.996876Q80.40312 32.98125 81.73125 32.98125Q83.04375 32.98125 83.90312 31.996876Q84.77812 30.996876 84.77812 28.95Q84.77812 27.028126 83.90312 26.04375Q83.02812 25.04375 81.73125 25.04375Q80.40312 25.04375 79.52812 26.04375Q78.66875 27.028126 78.66875 29.0125ZM88.5125 34.2L88.5125 23.825L90.10625 23.825L90.10625 25.309376Q91.24687 23.590626 93.40312 23.590626Q94.34062 23.590626 95.12187 23.934376Q95.91875 24.2625 96.30937 24.809376Q96.7 25.35625 96.85625 26.10625Q96.95 26.60625 96.95 27.825L96.95 34.2L95.18437 34.2L95.18437 27.8875Q95.18437 26.809376 94.98125 26.278126Q94.77812 25.746876 94.24687 25.434376Q93.73125 25.121876 93.02812 25.121876Q91.90312 25.121876 91.09062 25.840626Q90.27812 26.54375 90.27812 28.528126L90.27812 34.2L88.5125 34.2ZM97.87187 29.0125Q97.87187 26.1375 99.46562 24.746876Q100.80937 23.590626 102.73125 23.590626Q104.87187 23.590626 106.21562 24.996876Q107.575 26.403126 107.575 28.871876Q107.575 30.871876 106.98125 32.028126Q106.3875 33.16875 105.23125 33.809376Q104.09062 34.434376 102.73125 34.434376Q100.54375 34.434376 99.2 33.04375Q97.87187 31.6375 97.87187 29.0125ZM99.66875 29.0125Q99.66875 31.0125 100.52812 31.996876Q101.40312 32.98125 102.73125 32.98125Q104.04375 32.98125 104.90312 31.996876Q105.77812 30.996876 105.77812 28.95Q105.77812 27.028126 104.90312 26.04375Q104.02812 25.04375 102.73125 25.04375Q101.40312 25.04375 100.52812 26.04375Q99.66875 27.028126 99.66875 29.0125ZM115.48125 34.2L115.48125 19.8875L117.23125 19.8875L117.23125 34.2L115.48125 34.2ZM126.62187 30.85625L128.43437 31.090626Q128.0125 32.66875 126.84062 33.559376Q125.68437 34.434376 123.87187 34.434376Q121.60625 34.434376 120.2625 33.04375Q118.93437 31.6375 118.93437 29.10625Q118.93437 26.48125 120.27812 25.04375Q121.62187 23.590626 123.77812 23.590626Q125.85625 23.590626 127.16875 25.0125Q128.49687 26.41875 128.49687 28.996876Q128.49687 29.153126 128.48125 29.465626L120.74687 29.465626Q120.84062 31.16875 121.71562 32.075Q122.59062 32.98125 123.8875 32.98125Q124.85625 32.98125 125.52812 32.48125Q126.21562 31.965626 126.62187 30.85625ZM120.84062 28.0125L126.6375 28.0125Q126.52812 26.715626 125.98125 26.059376Q125.1375 25.04375 123.79375 25.04375Q122.59062 25.04375 121.7625 25.85625Q120.93437 26.653126 120.84062 28.0125ZM136.5125 38.16875L136.5125 23.825L138.12187 23.825L138.12187 25.16875Q138.68437 24.3875 139.3875 23.996876Q140.10625 23.590626 141.12187 23.590626Q142.45 23.590626 143.46562 24.278126Q144.48125 24.965626 144.99687 26.215626Q145.52812 27.45 145.52812 28.934376Q145.52812 30.528126 144.95 31.809376Q144.3875 33.075 143.29375 33.7625Q142.2 34.434376 140.99687 34.434376Q140.12187 34.434376 139.41875 34.059376Q138.73125 33.684376 138.27812 33.121876L138.27812 38.16875L136.5125 38.16875ZM138.10625 29.075Q138.10625 31.075 138.91875 32.028126Q139.73125 32.98125 140.8875 32.98125Q142.05937 32.98125 142.8875 31.996876Q143.73125 31.0125 143.73125 28.91875Q143.73125 26.95 142.90312 25.965626Q142.09062 24.965626 140.96562 24.965626Q139.84062 24.965626 138.96562 26.028126Q138.10625 27.075 138.10625 29.075ZM147.49687 34.2L147.49687 23.825L149.075 23.825L149.075 25.403126Q149.68437 24.29375 150.2 23.95Q150.71562 23.590626 151.325 23.590626Q152.21562 23.590626 153.1375 24.153126L152.52812 25.79375Q151.8875 25.403126 151.24687 25.403126Q150.66875 25.403126 150.2 25.7625Q149.74687 26.10625 149.54375 26.715626Q149.2625 27.653126 149.2625 28.7625L149.2625 34.2L147.49687 34.2ZM154.52812 21.903126L154.52812 19.8875L156.29375 19.8875L156.29375 21.903126L154.52812 21.903126ZM154.52812 34.2L154.52812 23.825L156.29375 23.825L156.29375 34.2L154.52812 34.2ZM158.5125 34.2L158.5125 23.825L160.10625 23.825L160.10625 25.309376Q161.24687 23.590626 163.40312 23.590626Q164.34062 23.590626 165.12187 23.934376Q165.91875 24.2625 166.30937 24.809376Q166.7 25.35625 166.85625 26.10625Q166.95 26.60625 166.95 27.825L166.95 34.2L165.18437 34.2L165.18437 27.8875Q165.18437 26.809376 164.98125 26.278126Q164.77812 25.746876 164.24687 25.434376Q163.73125 25.121876 163.02812 25.121876Q161.90312 25.121876 161.09062 25.840626Q160.27812 26.54375 160.27812 28.528126L160.27812 34.2L158.5125 34.2ZM175.29375 30.403126L177.0125 30.621876Q176.73125 32.41875 175.55937 33.434376Q174.40312 34.434376 172.7 34.434376Q170.575 34.434376 169.27812 33.04375Q167.98125 31.653126 167.98125 29.059376Q167.98125 27.371876 168.52812 26.121876Q169.09062 24.85625 170.23125 24.23125Q171.37187 23.590626 172.71562 23.590626Q174.40312 23.590626 175.46562 24.45Q176.54375 25.309376 176.85625 26.871876L175.1375 27.1375Q174.90312 26.090626 174.27812 25.575Q173.65312 25.04375 172.77812 25.04375Q171.45 25.04375 170.62187 25.996876Q169.79375 26.95 169.79375 28.996876Q169.79375 31.090626 170.59062 32.04375Q171.3875 32.98125 172.68437 32.98125Q173.71562 32.98125 174.40312 32.35625Q175.10625 31.715626 175.29375 30.403126ZM178.52812 21.903126L178.52812 19.8875L180.29375 19.8875L180.29375 21.903126L178.52812 21.903126ZM178.52812 34.2L178.52812 23.825L180.29375 23.825L180.29375 34.2L178.52812 34.2ZM182.5125 38.16875L182.5125 23.825L184.12187 23.825L184.12187 25.16875Q184.68437 24.3875 185.3875 23.996876Q186.10625 23.590626 187.12187 23.590626Q188.45 23.590626 189.46562 24.278126Q190.48125 24.965626 190.99687 26.215626Q191.52812 27.45 191.52812 28.934376Q191.52812 30.528126 190.95 31.809376Q190.3875 33.075 189.29375 33.7625Q188.2 34.434376 186.99687 34.434376Q186.12187 34.434376 185.41875 34.059376Q184.73125 33.684376 184.27812 33.121876L184.27812 38.16875L182.5125 38.16875ZM184.10625 29.075Q184.10625 31.075 184.91875 32.028126Q185.73125 32.98125 186.8875 32.98125Q188.05937 32.98125 188.8875 31.996876Q189.73125 31.0125 189.73125 28.91875Q189.73125 26.95 188.90312 25.965626Q188.09062 24.965626 186.96562 24.965626Q185.84062 24.965626 184.96562 26.028126Q184.10625 27.075 184.10625 29.075ZM200.29375 32.91875Q199.30937 33.746876 198.40312 34.090626Q197.49687 34.434376 196.46562 34.434376Q194.7625 34.434376 193.84062 33.60625Q192.91875 32.7625 192.91875 31.465626Q192.91875 30.7 193.2625 30.075Q193.62187 29.45 194.18437 29.075Q194.74687 28.684376 195.45 28.48125Q195.96562 28.35625 197.0125 28.215626Q199.1375 27.965626 200.1375 27.621876Q200.15312 27.2625 200.15312 27.153126Q200.15312 26.090626 199.65312 25.6375Q198.98125 25.04375 197.65312 25.04375Q196.40312 25.04375 195.80937 25.48125Q195.23125 25.91875 194.95 27.028126L193.23125 26.79375Q193.46562 25.684376 193.99687 25.0125Q194.52812 24.325 195.54375 23.965626Q196.55937 23.590626 197.90312 23.590626Q199.23125 23.590626 200.05937 23.903126Q200.8875 24.215626 201.27812 24.7Q201.66875 25.16875 201.825 25.8875Q201.91875 26.340626 201.91875 27.5125L201.91875 29.85625Q201.91875 32.309376 202.02812 32.965626Q202.1375 33.60625 202.48125 34.2L200.6375 34.2Q200.37187 33.653126 200.29375 32.91875ZM200.1375 28.996876Q199.18437 29.3875 197.2625 29.653126Q196.18437 29.809376 195.73125 30.0125Q195.29375 30.2 195.04375 30.575Q194.79375 30.95 194.79375 31.41875Q194.79375 32.121876 195.325 32.590626Q195.85625 33.059376 196.8875 33.059376Q197.90312 33.059376 198.68437 32.621876Q199.48125 32.16875 199.85625 31.403126Q200.1375 30.79375 200.1375 29.6375L200.1375 28.996876ZM204.48125 34.2L204.48125 19.8875L206.23125 19.8875L206.23125 34.2L204.48125 34.2ZM208.52812 21.903126L208.52812 19.8875L210.29375 19.8875L210.29375 21.903126L208.52812 21.903126ZM208.52812 34.2L208.52812 23.825L210.29375 23.825L210.29375 34.2L208.52812 34.2ZM225.29375 30.403126L227.0125 30.621876Q226.73125 32.41875 225.55937 33.434376Q224.40312 34.434376 222.7 34.434376Q220.575 34.434376 219.27812 33.04375Q217.98125 31.653126 217.98125 29.059376Q217.98125 27.371876 218.52812 26.121876Q219.09062 24.85625 220.23125 24.23125Q221.37187 23.590626 222.71562 23.590626Q224.40312 23.590626 225.46562 24.45Q226.54375 25.309376 226.85625 26.871876L225.1375 27.1375Q224.90312 26.090626 224.27812 25.575Q223.65312 25.04375 222.77812 25.04375Q221.45 25.04375 220.62187 25.996876Q219.79375 26.95 219.79375 28.996876Q219.79375 31.090626 220.59062 32.04375Q221.3875 32.98125 222.68437 32.98125Q223.71562 32.98125 224.40312 32.35625Q225.10625 31.715626 225.29375 30.403126ZM228.49687 34.2L228.49687 23.825L230.075 23.825L230.075 25.403126Q230.68437 24.29375 231.2 23.95Q231.71562 23.590626 232.325 23.590626Q233.21562 23.590626 234.1375 24.153126L233.52812 25.79375Q232.8875 25.403126 232.24687 25.403126Q231.66875 25.403126 231.2 25.7625Q230.74687 26.10625 230.54375 26.715626Q230.2625 27.653126 230.2625 28.7625L230.2625 34.2L228.49687 34.2ZM235.52812 21.903126L235.52812 19.8875L237.29375 19.8875L237.29375 21.903126L235.52812 21.903126ZM235.52812 34.2L235.52812 23.825L237.29375 23.825L237.29375 34.2L235.52812 34.2ZM243.35625 32.621876L243.60625 34.184376Q242.87187 34.340626 242.27812 34.340626Q241.325 34.340626 240.79375 34.04375Q240.27812 33.73125 240.05937 33.246876Q239.84062 32.746876 239.84062 31.16875L239.84062 25.2L238.55937 25.2L238.55937 23.825L239.84062 23.825L239.84062 21.2625L241.59062 20.2L241.59062 23.825L243.35625 23.825L243.35625 25.2L241.59062 25.2L241.59062 31.2625Q241.59062 32.0125 241.68437 32.23125Q241.77812 32.434376 241.98125 32.575Q242.2 32.7 242.59062 32.7Q242.87187 32.7 243.35625 32.621876ZM245.52812 21.903126L245.52812 19.8875L247.29375 19.8875L247.29375 21.903126L245.52812 21.903126ZM245.52812 34.2L245.52812 23.825L247.29375 23.825L247.29375 34.2L245.52812 34.2ZM256.29376 30.403126L258.0125 30.621876Q257.73126 32.41875 256.5594 33.434376Q255.40312 34.434376 253.7 34.434376Q251.575 34.434376 250.27812 33.04375Q248.98125 31.653126 248.98125 29.059376Q248.98125 27.371876 249.52812 26.121876Q250.09062 24.85625 251.23125 24.23125Q252.37187 23.590626 253.71562 23.590626Q255.40312 23.590626 256.46564 24.45Q257.54376 25.309376 257.85626 26.871876L256.1375 27.1375Q255.90312 26.090626 255.27812 25.575Q254.65312 25.04375 253.77812 25.04375Q252.45 25.04375 251.62187 25.996876Q250.79375 26.95 250.79375 28.996876Q250.79375 31.090626 251.59062 32.04375Q252.3875 32.98125 253.68437 32.98125Q254.71562 32.98125 255.40312 32.35625Q256.10626 31.715626 256.29376 30.403126ZM259.52814 21.903126L259.52814 19.8875L261.29376 19.8875L261.29376 21.903126L259.52814 21.903126ZM259.52814 34.2L259.52814 23.825L261.29376 23.825L261.29376 34.2L259.52814 34.2ZM267.35626 32.621876L267.60626 34.184376Q266.8719 34.340626 266.27814 34.340626Q265.325 34.340626 264.79376 34.04375Q264.27814 33.73125 264.0594 33.246876Q263.84064 32.746876 263.84064 31.16875L263.84064 25.2L262.5594 25.2L262.5594 23.825L263.84064 23.825L263.84064 21.2625L265.59064 20.2L265.59064 23.825L267.35626 23.825L267.35626 25.2L265.59064 25.2L265.59064 31.2625Q265.59064 32.0125 265.6844 32.23125Q265.77814 32.434376 265.98126 32.575Q266.2 32.7 266.59064 32.7Q266.8719 32.7 267.35626 32.621876ZM276.29376 32.91875Q275.3094 33.746876 274.40314 34.090626Q273.4969 34.434376 272.46564 34.434376Q270.7625 34.434376 269.84064 33.60625Q268.91876 32.7625 268.91876 31.465626Q268.91876 30.7 269.2625 30.075Q269.6219 29.45 270.1844 29.075Q270.7469 28.684376 271.45 28.48125Q271.96564 28.35625 273.0125 28.215626Q275.1375 27.965626 276.1375 27.621876Q276.15314 27.2625 276.15314 27.153126Q276.15314 26.090626 275.65314 25.6375Q274.98126 25.04375 273.65314 25.04375Q272.40314 25.04375 271.8094 25.48125Q271.23126 25.91875 270.95 27.028126L269.23126 26.79375Q269.46564 25.684376 269.9969 25.0125Q270.52814 24.325 271.54376 23.965626Q272.5594 23.590626 273.90314 23.590626Q275.23126 23.590626 276.0594 23.903126Q276.8875 24.215626 277.27814 24.7Q277.66876 25.16875 277.825 25.8875Q277.91876 26.340626 277.91876 27.5125L277.91876 29.85625Q277.91876 32.309376 278.02814 32.965626Q278.1375 33.60625 278.48126 34.2L276.6375 34.2Q276.3719 33.653126 276.29376 32.91875ZM276.1375 28.996876Q275.1844 29.3875 273.2625 29.653126Q272.1844 29.809376 271.73126 30.0125Q271.29376 30.2 271.04376 30.575Q270.79376 30.95 270.79376 31.41875Q270.79376 32.121876 271.325 32.590626Q271.85626 33.059376 272.8875 33.059376Q273.90314 33.059376 274.6844 32.621876Q275.48126 32.16875 275.85626 31.403126Q276.1375 30.79375 276.1375 29.6375L276.1375 28.996876ZM275.1844 22.54375L273.7625 22.54375L271.5125 19.809376L273.85626 19.809376L275.1844 22.54375ZM293.2469 34.2L293.2469 32.8875Q292.2625 34.434376 290.34064 34.434376Q289.10626 34.434376 288.0594 33.746876Q287.02814 33.059376 286.45 31.840626Q285.8875 30.621876 285.8875 29.028126Q285.8875 27.465626 286.40314 26.2Q286.91876 24.934376 287.95 24.2625Q288.9969 23.590626 290.2625 23.590626Q291.2 23.590626 291.9344 23.996876Q292.66876 24.3875 293.1375 25.0125L293.1375 19.8875L294.8719 19.8875L294.8719 34.2L293.2469 34.2ZM287.6844 29.028126Q287.6844 31.0125 288.52814 31.996876Q289.3719 32.98125 290.5125 32.98125Q291.66876 32.98125 292.46564 32.04375Q293.27814 31.10625 293.27814 29.16875Q293.27814 27.04375 292.45 26.04375Q291.6375 25.04375 290.4344 25.04375Q289.2625 25.04375 288.46564 26.0125Q287.6844 26.965626 287.6844 29.028126ZM304.6219 30.85625L306.4344 31.090626Q306.0125 32.66875 304.84064 33.559376Q303.6844 34.434376 301.8719 34.434376Q299.60626 34.434376 298.2625 33.04375Q296.9344 31.6375 296.9344 29.10625Q296.9344 26.48125 298.27814 25.04375Q299.6219 23.590626 301.77814 23.590626Q303.85626 23.590626 305.16876 25.0125Q306.4969 26.41875 306.4969 28.996876Q306.4969 29.153126 306.48126 29.465626L298.7469 29.465626Q298.84064 31.16875 299.71564 32.075Q300.59064 32.98125 301.8875 32.98125Q302.85626 32.98125 303.52814 32.48125Q304.21564 31.965626 304.6219 30.85625ZM298.84064 28.0125L304.6375 28.0125Q304.52814 26.715626 303.98126 26.059376Q303.1375 25.04375 301.79376 25.04375Q300.59064 25.04375 299.7625 25.85625Q298.9344 26.653126 298.84064 28.0125ZM308.48126 34.2L308.48126 19.8875L310.23126 19.8875L310.23126 34.2L308.48126 34.2ZM318.5125 38.16875L318.5125 23.825L320.1219 23.825L320.1219 25.16875Q320.6844 24.3875 321.3875 23.996876Q322.10626 23.590626 323.1219 23.590626Q324.45 23.590626 325.46564 24.278126Q326.48126 24.965626 326.9969 26.215626Q327.52814 27.45 327.52814 28.934376Q327.52814 30.528126 326.95 31.809376Q326.3875 33.075 325.29376 33.7625Q324.2 34.434376 322.9969 34.434376Q322.1219 34.434376 321.41876 34.059376Q320.73126 33.684376 320.27814 33.121876L320.27814 38.16875L318.5125 38.16875ZM320.10626 29.075Q320.10626 31.075 320.91876 32.028126Q321.73126 32.98125 322.8875 32.98125Q324.0594 32.98125 324.8875 31.996876Q325.73126 31.0125 325.73126 28.91875Q325.73126 26.95 324.90314 25.965626Q324.09064 24.965626 322.96564 24.965626Q321.84064 24.965626 320.96564 26.028126Q320.10626 27.075 320.10626 29.075ZM329.4969 34.2L329.4969 23.825L331.075 23.825L331.075 25.403126Q331.6844 24.29375 332.2 23.95Q332.71564 23.590626 333.325 23.590626Q334.21564 23.590626 335.1375 24.153126L334.52814 25.79375Q333.8875 25.403126 333.2469 25.403126Q332.66876 25.403126 332.2 25.7625Q331.7469 26.10625 331.54376 26.715626Q331.2625 27.653126 331.2625 28.7625L331.2625 34.2L329.4969 34.2ZM335.8719 29.0125Q335.8719 26.1375 337.46564 24.746876Q338.8094 23.590626 340.73126 23.590626Q342.8719 23.590626 344.21564 24.996876Q345.575 26.403126 345.575 28.871876Q345.575 30.871876 344.98126 32.028126Q344.3875 33.16875 343.23126 33.809376Q342.09064 34.434376 340.73126 34.434376Q338.54376 34.434376 337.2 33.04375Q335.8719 31.6375 335.8719 29.0125ZM337.66876 29.0125Q337.66876 31.0125 338.52814 31.996876Q339.40314 32.98125 340.73126 32.98125Q342.04376 32.98125 342.90314 31.996876Q343.77814 30.996876 343.77814 28.95Q343.77814 27.028126 342.90314 26.04375Q342.02814 25.04375 340.73126 25.04375Q339.40314 25.04375 338.52814 26.04375Q337.66876 27.028126 337.66876 29.0125ZM347.2 35.059376L348.90314 35.309376Q349.0125 36.10625 349.4969 36.465626Q350.15314 36.95 351.29376 36.95Q352.5125 36.95 353.16876 36.465626Q353.84064 35.98125 354.075 35.10625Q354.21564 34.559376 354.2 32.840626Q353.04376 34.2 351.325 34.2Q349.1844 34.2 348.0125 32.653126Q346.84064 31.10625 346.84064 28.95Q346.84064 27.465626 347.3719 26.215626Q347.91876 24.965626 348.9344 24.278126Q349.96564 23.590626 351.34064 23.590626Q353.16876 23.590626 354.3719 25.075L354.3719 23.825L355.98126 23.825L355.98126 32.79375Q355.98126 35.215626 355.48126 36.215626Q354.9969 37.23125 353.91876 37.809376Q352.85626 38.403126 351.29376 38.403126Q349.45 38.403126 348.29376 37.575Q347.15314 36.746876 347.2 35.059376ZM348.65314 28.825Q348.65314 30.871876 349.46564 31.809376Q350.27814 32.746876 351.4969 32.746876Q352.7 32.746876 353.5125 31.809376Q354.34064 30.871876 354.34064 28.8875Q354.34064 26.98125 353.4969 26.0125Q352.65314 25.04375 351.46564 25.04375Q350.29376 25.04375 349.46564 25.996876Q348.65314 26.95 348.65314 28.825ZM358.4969 34.2L358.4969 23.825L360.075 23.825L360.075 25.403126Q360.6844 24.29375 361.2 23.95Q361.71564 23.590626 362.325 23.590626Q363.21564 23.590626 364.1375 24.153126L363.52814 25.79375Q362.8875 25.403126 362.2469 25.403126Q361.66876 25.403126 361.2 25.7625Q360.7469 26.10625 360.54376 26.715626Q360.2625 27.653126 360.2625 28.7625L360.2625 34.2L358.4969 34.2ZM372.29376 32.91875Q371.3094 33.746876 370.40314 34.090626Q369.4969 34.434376 368.46564 34.434376Q366.7625 34.434376 365.84064 33.60625Q364.91876 32.7625 364.91876 31.465626Q364.91876 30.7 365.2625 30.075Q365.6219 29.45 366.1844 29.075Q366.7469 28.684376 367.45 28.48125Q367.96564 28.35625 369.0125 28.215626Q371.1375 27.965626 372.1375 27.621876Q372.15314 27.2625 372.15314 27.153126Q372.15314 26.090626 371.65314 25.6375Q370.98126 25.04375 369.65314 25.04375Q368.40314 25.04375 367.8094 25.48125Q367.23126 25.91875 366.95 27.028126L365.23126 26.79375Q365.46564 25.684376 365.9969 25.0125Q366.52814 24.325 367.54376 23.965626Q368.5594 23.590626 369.90314 23.590626Q371.23126 23.590626 372.0594 23.903126Q372.8875 24.215626 373.27814 24.7Q373.66876 25.16875 373.825 25.8875Q373.91876 26.340626 373.91876 27.5125L373.91876 29.85625Q373.91876 32.309376 374.02814 32.965626Q374.1375 33.60625 374.48126 34.2L372.6375 34.2Q372.3719 33.653126 372.29376 32.91875ZM372.1375 28.996876Q371.1844 29.3875 369.2625 29.653126Q368.1844 29.809376 367.73126 30.0125Q367.29376 30.2 367.04376 30.575Q366.79376 30.95 366.79376 31.41875Q366.79376 32.121876 367.325 32.590626Q367.85626 33.059376 368.8875 33.059376Q369.90314 33.059376 370.6844 32.621876Q371.48126 32.16875 371.85626 31.403126Q372.1375 30.79375 372.1375 29.6375L372.1375 28.996876ZM376.5125 34.2L376.5125 23.825L378.09064 23.825L378.09064 25.278126Q378.575 24.528126 379.3875 24.059376Q380.2 23.590626 381.23126 23.590626Q382.3875 23.590626 383.1219 24.075Q383.85626 24.54375 384.16876 25.403126Q385.40314 23.590626 387.3719 23.590626Q388.91876 23.590626 389.7469 24.45Q390.575 25.309376 390.575 27.075L390.575 34.2L388.825 34.2L388.825 27.66875Q388.825 26.60625 388.65314 26.153126Q388.48126 25.684376 388.02814 25.403126Q387.59064 25.121876 386.98126 25.121876Q385.8875 25.121876 385.15314 25.85625Q384.4344 26.575 384.4344 28.16875L384.4344 34.2L382.6844 34.2L382.6844 27.465626Q382.6844 26.29375 382.2469 25.715626Q381.825 25.121876 380.84064 25.121876Q380.10626 25.121876 379.46564 25.5125Q378.84064 25.903126 378.5594 26.653126Q378.27814 27.403126 378.27814 28.825L378.27814 34.2L376.5125 34.2ZM392.5125 34.2L392.5125 23.825L394.09064 23.825L394.09064 25.278126Q394.575 24.528126 395.3875 24.059376Q396.2 23.590626 397.23126 23.590626Q398.3875 23.590626 399.1219 24.075Q399.85626 24.54375 400.16876 25.403126Q401.40314 23.590626 403.3719 23.590626Q404.91876 23.590626 405.7469 24.45Q406.575 25.309376 406.575 27.075L406.575 34.2L404.825 34.2L404.825 27.66875Q404.825 26.60625 404.65314 26.153126Q404.48126 25.684376 404.02814 25.403126Q403.59064 25.121876 402.98126 25.121876Q401.8875 25.121876 401.15314 25.85625Q400.4344 26.575 400.4344 28.16875L400.4344 34.2L398.6844 34.2L398.6844 27.465626Q398.6844 26.29375 398.2469 25.715626Q397.825 25.121876 396.84064 25.121876Q396.10626 25.121876 395.46564 25.5125Q394.84064 25.903126 394.5594 26.653126Q394.27814 27.403126 394.27814 28.825L394.27814 34.2L392.5125 34.2ZM415.29376 32.91875Q414.3094 33.746876 413.40314 34.090626Q412.4969 34.434376 411.46564 34.434376Q409.7625 34.434376 408.84064 33.60625Q407.91876 32.7625 407.91876 31.465626Q407.91876 30.7 408.2625 30.075Q408.6219 29.45 409.1844 29.075Q409.7469 28.684376 410.45 28.48125Q410.96564 28.35625 412.0125 28.215626Q414.1375 27.965626 415.1375 27.621876Q415.15314 27.2625 415.15314 27.153126Q415.15314 26.090626 414.65314 25.6375Q413.98126 25.04375 412.65314 25.04375Q411.40314 25.04375 410.8094 25.48125Q410.23126 25.91875 409.95 27.028126L408.23126 26.79375Q408.46564 25.684376 408.9969 25.0125Q409.52814 24.325 410.54376 23.965626Q411.5594 23.590626 412.90314 23.590626Q414.23126 23.590626 415.0594 23.903126Q415.8875 24.215626 416.27814 24.7Q416.66876 25.16875 416.825 25.8875Q416.91876 26.340626 416.91876 27.5125L416.91876 29.85625Q416.91876 32.309376 417.02814 32.965626Q417.1375 33.60625 417.48126 34.2L415.6375 34.2Q415.3719 33.653126 415.29376 32.91875ZM415.1375 28.996876Q414.1844 29.3875 412.2625 29.653126Q411.1844 29.809376 410.73126 30.0125Q410.29376 30.2 410.04376 30.575Q409.79376 30.95 409.79376 31.41875Q409.79376 32.121876 410.325 32.590626Q410.85626 33.059376 411.8875 33.059376Q412.90314 33.059376 413.6844 32.621876Q414.48126 32.16875 414.85626 31.403126Q415.1375 30.79375 415.1375 29.6375L415.1375 28.996876ZM422.8094 30.66875Q422.79376 30.325 422.79376 30.153126Q422.79376 29.10625 423.09064 28.35625Q423.3094 27.79375 423.79376 27.215626Q424.1375 26.79375 425.04376 25.996876Q425.96564 25.184376 426.23126 24.715626Q426.5125 24.23125 426.5125 23.66875Q426.5125 22.6375 425.7 21.871876Q424.90314 21.090626 423.7469 21.090626Q422.6219 21.090626 421.8719 21.79375Q421.1219 22.496876 420.8875 23.98125L419.075 23.7625Q419.325 21.7625 420.52814 20.7Q421.73126 19.6375 423.71564 19.6375Q425.825 19.6375 427.075 20.778126Q428.325 21.91875 428.325 23.54375Q428.325 24.48125 427.8719 25.278126Q427.4344 26.059376 426.15314 27.2Q425.29376 27.965626 425.02814 28.325Q424.77814 28.684376 424.6375 29.153126Q424.5125 29.621876 424.4969 30.66875L422.8094 30.66875ZM422.7 34.2L422.7 32.2L424.7 32.2L424.7 34.2L422.7 34.2Z" fill-rule="nonzero"/></svg>