<svg version="1.1" viewBox="0.0 0.0 490.0 304.0" fill="none" stroke="none" stroke-linecap="square" stroke-miterlimit="10" width="490" height="304" xmlns:xlink="http://www.w3.org/1999/xlink" xmlns="http://www.w3.org/2000/svg"><path fill="#ffffff" d="M0 0L490.0 0L490.0 304.0L0 304.0L0 0Z" fill-rule="nonzero"/><path fill="#4285f4" d="M245.0 49.333332C259.62375 49.333332 274.03992 52.794346 287.0698 59.433395L245.0 142.0Z" fill-rule="nonzero"/><path fill="#ea4335" d="M287.0698 59.433395C295.73398 63.848015 303.6493 69.59884 310.52524 76.47477L245.0 142.0Z" fill-rule="nonzero"/><path fill="#fbbc04" d="M310.52524 76.47477C313.9579 79.90743 317.1155 83.604515 319.9689 87.5319L245.0 142.0Z" fill-rule="nonzero"/><path fill="#34a853" d="M319.9689 87.5319C345.15277 122.1945 343.2901 169.60234 315.4643 202.18219C287.63846 234.76204 241.10568 244.01797 202.9302 224.5666C164.75475 205.11523 144.89168 162.02892 154.89372 120.36739C164.89577 78.70589 202.15466 49.333332 245.0 49.333332L245.0 142.0Z" fill-rule="nonzero"/><path fill="#000000" d="M199.23839 196.96771Q198.47276 196.68646 198.09776 196.17084Q197.73839 195.65521 197.73839 194.92084Q197.73839 193.82709 198.51964 193.09271Q199.31651 192.34271 200.61339 192.34271Q201.92589 192.34271 202.72276 193.10834Q203.53526 193.87396 203.53526 194.96771Q203.53526 195.65521 203.16026 196.17084Q202.80089 196.68646 202.05089 196.96771Q202.97276 197.26459 203.45714 197.93646Q203.94151 198.60834 203.94151 199.54584Q203.94151 200.82709 203.03526 201.70209Q202.12901 202.57709 200.64464 202.57709Q199.16026 202.57709 198.23839 201.70209Q197.33214 200.81146 197.33214 199.49896Q197.33214 198.53021 197.83214 197.87396Q198.33214 197.20209 199.23839 196.96771ZM199.00401 194.88959Q199.00401 195.59271 199.45714 196.04584Q199.91026 196.49896 200.64464 196.49896Q201.36339 196.49896 201.81651 196.06146Q202.26964 195.60834 202.26964 194.95209Q202.26964 194.28021 201.80089 193.82709Q201.33214 193.35834 200.62901 193.35834Q199.92589 193.35834 199.45714 193.81146Q199.00401 194.24896 199.00401 194.88959ZM198.59776 199.51459Q198.59776 200.04584 198.84776 200.54584Q199.09776 201.03021 199.58214 201.29584Q200.08214 201.56146 200.66026 201.56146Q201.53526 201.56146 202.09776 200.99896Q202.67589 200.43646 202.67589 199.56146Q202.67589 198.67084 202.08214 198.09271Q201.50401 197.49896 200.61339 197.49896Q199.73839 197.49896 199.16026 198.07709Q198.59776 198.65521 198.59776 199.51459ZM205.34776 199.78021L206.64464 199.67084Q206.78526 200.60834 207.30089 201.09271Q207.83214 201.56146 208.56651 201.56146Q209.45714 201.56146 210.06651 200.88959Q210.69151 200.21771 210.69151 199.12396Q210.69151 198.06146 210.09776 197.45209Q209.50401 196.84271 208.55089 196.84271Q207.95714 196.84271 207.47276 197.12396Q207.00401 197.38959 206.72276 197.81146L205.56651 197.67084L206.53526 192.51459L211.51964 192.51459L211.51964 193.70209L207.51964 193.70209L206.98839 196.38959Q207.89464 195.76459 208.87901 195.76459Q210.19151 195.76459 211.08214 196.67084Q211.98839 197.57709 211.98839 199.01459Q211.98839 200.37396 211.20714 201.35834Q210.23839 202.57709 208.56651 202.57709Q207.20714 202.57709 206.33214 201.81146Q205.47276 201.04584 205.34776 199.78021ZM214.03526 202.40521L214.03526 200.99896L215.44151 200.99896L215.44151 202.40521L214.03526 202.40521ZM217.34776 197.46771Q217.34776 195.68646 217.70714 194.60834Q218.08214 193.51459 218.80089 192.93646Q219.51964 192.34271 220.61339 192.34271Q221.42589 192.34271 222.03526 192.67084Q222.64464 192.99896 223.03526 193.60834Q223.44151 194.21771 223.66026 195.09271Q223.87901 195.96771 223.87901 197.46771Q223.87901 199.23334 223.51964 200.31146Q223.16026 201.38959 222.44151 201.98334Q221.72276 202.57709 220.61339 202.57709Q219.17589 202.57709 218.34776 201.53021Q217.34776 200.28021 217.34776 197.46771ZM218.61339 197.46771Q218.61339 199.93646 219.19151 200.74896Q219.76964 201.56146 220.61339 201.56146Q221.47276 201.56146 222.05089 200.74896Q222.62901 199.92084 222.62901 197.46771Q222.62901 194.98334 222.05089 194.17084Q221.47276 193.35834 220.59776 193.35834Q219.75401 193.35834 219.25401 194.07709Q218.61339 194.99896 218.61339 197.46771ZM225.58214 194.79584Q225.58214 193.71771 226.11339 192.96771Q226.66026 192.21771 227.69151 192.21771Q228.62901 192.21771 229.23839 192.88959Q229.86339 193.56146 229.86339 194.85834Q229.86339 196.13959 229.23839 196.82709Q228.61339 197.51459 227.70714 197.51459Q226.80089 197.51459 226.19151 196.84271Q225.58214 196.15521 225.58214 194.79584ZM227.72276 193.06146Q227.26964 193.06146 226.95714 193.46771Q226.66026 193.85834 226.66026 194.90521Q226.66026 195.87396 226.95714 196.26459Q227.26964 196.65521 227.72276 196.65521Q228.19151 196.65521 228.48839 196.26459Q228.80089 195.87396 228.80089 194.81146Q228.80089 193.84271 228.48839 193.45209Q228.17589 193.06146 227.72276 193.06146ZM227.72276 202.78021L233.20714 192.21771L234.20714 192.21771L228.75401 202.78021L227.72276 202.78021ZM232.06651 200.04584Q232.06651 198.96771 232.59776 198.23334Q233.14464 197.48334 234.17589 197.48334Q235.11339 197.48334 235.73839 198.15521Q236.36339 198.82709 236.36339 200.12396Q236.36339 201.40521 235.73839 202.09271Q235.11339 202.78021 234.17589 202.78021Q233.26964 202.78021 232.66026 202.10834Q232.06651 201.42084 232.06651 200.04584ZM234.20714 198.32709Q233.73839 198.32709 233.44151 198.73334Q233.14464 199.12396 233.14464 200.17084Q233.14464 201.13959 233.44151 201.53021Q233.75401 201.92084 234.20714 201.92084Q234.67589 201.92084 234.97276 201.53021Q235.28526 201.13959 235.28526 200.07709Q235.28526 199.10834 234.97276 198.71771Q234.67589 198.32709 234.20714 198.32709Z" fill-rule="nonzero"/><path fill="#4285f4" d="M28.2 251.8C28.2 255.11371 25.513708 257.8 22.2 257.8C18.886292 257.8 16.2 255.11371 16.2 251.8C16.2 248.4863 18.886292 245.8 22.2 245.8C25.513708 245.8 28.2 248.4863 28.2 251.8Z" fill-rule="nonzero"/><path fill="#1a1a1a" d="M37.121876 255.8L37.121876 247.20625L38.278126 247.20625L42.79375 253.95625L42.79375 247.20625L43.8875 247.20625L43.8875 255.8L42.715626 255.8L38.2 249.05L38.2 255.8L37.121876 255.8ZM45.60625 252.69063Q45.60625 250.95625 46.559376 250.12813Q47.35625 249.44063 48.5125 249.44063Q49.79375 249.44063 50.60625 250.28438Q51.434376 251.1125 51.434376 252.59688Q51.434376 253.8 51.075 254.4875Q50.715626 255.175 50.0125 255.56563Q49.325 255.94063 48.5125 255.94063Q47.215626 255.94063 46.403126 255.1125Q45.60625 254.26875 45.60625 252.69063ZM46.684376 252.69063Q46.684376 253.87813 47.2 254.47188Q47.73125 255.06563 48.5125 255.06563Q49.309376 255.06563 49.825 254.47188Q50.340626 253.87813 50.340626 252.65938Q50.340626 251.50313 49.809376 250.90938Q49.29375 250.31563 48.5125 250.31563Q47.73125 250.31563 47.2 250.90938Q46.684376 251.4875 46.684376 252.69063ZM60.059376 253.51875L61.090626 253.65938Q60.91875 254.72188 60.215626 255.33125Q59.5125 255.94063 58.496876 255.94063Q57.215626 255.94063 56.434376 255.1125Q55.66875 254.26875 55.66875 252.70625Q55.66875 251.70625 55.996876 250.95625Q56.340626 250.19063 57.0125 249.81563Q57.7 249.44063 58.5125 249.44063Q59.5125 249.44063 60.153126 249.95625Q60.809376 250.45625 60.996876 251.40938L59.965626 251.56563Q59.825 250.94063 59.45 250.62813Q59.075 250.3 58.54375 250.3Q57.746876 250.3 57.246876 250.87813Q56.746876 251.44063 56.746876 252.675Q56.746876 253.94063 57.23125 254.50313Q57.715626 255.06563 58.48125 255.06563Q59.10625 255.06563 59.5125 254.69063Q59.934376 254.31563 60.059376 253.51875ZM61.60625 252.69063Q61.60625 250.95625 62.559376 250.12813Q63.35625 249.44063 64.5125 249.44063Q65.79375 249.44063 66.60625 250.28438Q67.43437 251.1125 67.43437 252.59688Q67.43437 253.8 67.075 254.4875Q66.71562 255.175 66.0125 255.56563Q65.325 255.94063 64.5125 255.94063Q63.215626 255.94063 62.403126 255.1125Q61.60625 254.26875 61.60625 252.69063ZM62.684376 252.69063Q62.684376 253.87813 63.2 254.47188Q63.73125 255.06563 64.5125 255.06563Q65.30937 255.06563 65.825 254.47188Q66.34062 253.87813 66.34062 252.65938Q66.34062 251.50313 65.80937 250.90938Q65.29375 250.31563 64.5125 250.31563Q63.73125 250.31563 63.2 250.90938Q62.684376 251.4875 62.684376 252.69063ZM68.99687 255.8L68.99687 249.58125L69.93437 249.58125L69.93437 250.45625Q70.23125 249.9875 70.71562 249.72188Q71.2 249.44063 71.825 249.44063Q72.5125 249.44063 72.95 249.72188Q73.40312 250.00313 73.575 250.51875Q74.325 249.44063 75.49687 249.44063Q76.43437 249.44063 76.91875 249.95625Q77.41875 250.45625 77.41875 251.53438L77.41875 255.8L76.37187 255.8L76.37187 251.87813Q76.37187 251.25313 76.2625 250.97188Q76.16875 250.69063 75.90312 250.51875Q75.6375 250.34688 75.2625 250.34688Q74.60625 250.34688 74.16875 250.78438Q73.74687 251.22188 73.74687 252.19063L73.74687 255.8L72.68437 255.8L72.68437 251.75313Q72.68437 251.05 72.41875 250.70625Q72.16875 250.34688 71.59062 250.34688Q71.1375 250.34688 70.7625 250.58125Q70.3875 250.81563 70.21562 251.26875Q70.04375 251.72188 70.04375 252.56563L70.04375 255.8L68.99687 255.8ZM79.99687 255.8L79.99687 249.58125L80.93437 249.58125L80.93437 250.45625Q81.23125 249.9875 81.71562 249.72188Q82.2 249.44063 82.825 249.44063Q83.5125 249.44063 83.95 249.72188Q84.40312 250.00313 84.575 250.51875Q85.325 249.44063 86.49687 249.44063Q87.43437 249.44063 87.91875 249.95625Q88.41875 250.45625 88.41875 251.53438L88.41875 255.8L87.37187 255.8L87.37187 251.87813Q87.37187 251.25313 87.2625 250.97188Q87.16875 250.69063 86.90312 250.51875Q86.6375 250.34688 86.2625 250.34688Q85.60625 250.34688 85.16875 250.78438Q84.74687 251.22188 84.74687 252.19063L84.74687 255.8L83.68437 255.8L83.68437 251.75313Q83.68437 251.05 83.41875 250.70625Q83.16875 250.34688 82.59062 250.34688Q82.1375 250.34688 81.7625 250.58125Q81.3875 250.81563 81.21562 251.26875Q81.04375 251.72188 81.04375 252.56563L81.04375 255.8L79.99687 255.8ZM95.24687 253.8L96.34062 253.925Q96.09062 254.87813 95.3875 255.40938Q94.68437 255.94063 93.60625 255.94063Q92.24687 255.94063 91.43437 255.09688Q90.6375 254.25313 90.6375 252.7375Q90.6375 251.175 91.45 250.31563Q92.2625 249.44063 93.54375 249.44063Q94.79375 249.44063 95.575 250.28438Q96.37187 251.12813 96.37187 252.675Q96.37187 252.76875 96.37187 252.95625L91.73125 252.95625Q91.79375 253.9875 92.30937 254.53438Q92.825 255.06563 93.60625 255.06563Q94.18437 255.06563 94.59062 254.76875Q95.0125 254.45625 95.24687 253.8ZM91.79375 252.09688L95.2625 252.09688Q95.2 251.3 94.87187 250.90938Q94.35625 250.3 93.55937 250.3Q92.825 250.3 92.325 250.78438Q91.84062 251.26875 91.79375 252.09688ZM97.99687 255.8L97.99687 249.58125L98.93437 249.58125L98.93437 250.45625Q99.62187 249.44063 100.91875 249.44063Q101.48125 249.44063 101.95 249.64375Q102.43437 249.84688 102.66875 250.175Q102.90312 250.50313 102.99687 250.94063Q103.04375 251.2375 103.04375 251.97188L103.04375 255.8L101.99687 255.8L101.99687 252.01875Q101.99687 251.3625 101.87187 251.05Q101.74687 250.7375 101.43437 250.55Q101.12187 250.34688 100.7 250.34688Q100.02812 250.34688 99.52812 250.78438Q99.04375 251.20625 99.04375 252.39375L99.04375 255.8L97.99687 255.8ZM107.29375 254.8625L107.45 255.78438Q106.99687 255.87813 106.65312 255.87813Q106.075 255.87813 105.7625 255.70625Q105.45 255.51875 105.30937 255.22188Q105.18437 254.925 105.18437 253.97188L105.18437 250.39375L104.41875 250.39375L104.41875 249.58125L105.18437 249.58125L105.18437 248.03438L106.23125 247.40938L106.23125 249.58125L107.29375 249.58125L107.29375 250.39375L106.23125 250.39375L106.23125 254.03438Q106.23125 254.4875 106.27812 254.6125Q106.34062 254.7375 106.46562 254.81563Q106.59062 254.89375 106.825 254.89375Q107.0125 254.89375 107.29375 254.8625Z" fill-rule="nonzero"/><path fill="#ea4335" d="M135.2 251.8C135.2 255.11371 132.5137 257.8 129.2 257.8C125.88629 257.8 123.2 255.11371 123.2 251.8C123.2 248.4863 125.88629 245.8 129.2 245.8C132.5137 245.8 135.2 248.4863 135.2 251.8Z" fill-rule="nonzero"/><path fill="#1a1a1a" d="M144.1375 255.8L144.1375 247.20625L147.95 247.20625Q149.10625 247.20625 149.7 247.44063Q150.29375 247.675 150.65312 248.26875Q151.0125 248.84688 151.0125 249.55Q151.0125 250.47188 150.41875 251.09688Q149.825 251.72188 148.59062 251.89375Q149.04375 252.1125 149.27812 252.31563Q149.77812 252.76875 150.21562 253.45625L151.71562 255.8L150.27812 255.8L149.15312 254.01875Q148.65312 253.2375 148.325 252.83125Q148.0125 252.425 147.74687 252.26875Q147.49687 252.09688 147.23125 252.01875Q147.04375 251.9875 146.60625 251.9875L145.27812 251.9875L145.27812 255.8L144.1375 255.8ZM145.27812 251.00313L147.73125 251.00313Q148.49687 251.00313 148.93437 250.84688Q149.3875 250.675 149.60625 250.33125Q149.84062 249.97188 149.84062 249.55Q149.84062 248.94063 149.3875 248.55Q148.95 248.15938 147.99687 248.15938L145.27812 248.15938L145.27812 251.00313ZM152.99687 248.425L152.99687 247.20625L154.05937 247.20625L154.05937 248.425L152.99687 248.425ZM152.99687 255.8L152.99687 249.58125L154.05937 249.58125L154.05937 255.8L152.99687 255.8ZM157.71562 255.8L155.35625 249.58125L156.46562 249.58125L157.80937 253.3Q158.0125 253.90938 158.2 254.55Q158.34062 254.06563 158.59062 253.37813L159.98125 249.58125L161.05937 249.58125L158.7 255.8L157.71562 255.8ZM165.24687 253.8L166.34062 253.925Q166.09062 254.87813 165.3875 255.40938Q164.68437 255.94063 163.60625 255.94063Q162.24687 255.94063 161.43437 255.09688Q160.6375 254.25313 160.6375 252.7375Q160.6375 251.175 161.45 250.31563Q162.2625 249.44063 163.54375 249.44063Q164.79375 249.44063 165.575 250.28438Q166.37187 251.12813 166.37187 252.675Q166.37187 252.76875 166.37187 252.95625L161.73125 252.95625Q161.79375 253.9875 162.30937 254.53438Q162.825 255.06563 163.60625 255.06563Q164.18437 255.06563 164.59062 254.76875Q165.0125 254.45625 165.24687 253.8ZM161.79375 252.09688L165.2625 252.09688Q165.2 251.3 164.87187 250.90938Q164.35625 250.3 163.55937 250.3Q162.825 250.3 162.325 250.78438Q161.84062 251.26875 161.79375 252.09688ZM172.02812 255.8L172.02812 255.01875Q171.43437 255.94063 170.29375 255.94063Q169.54375 255.94063 168.91875 255.53438Q168.29375 255.1125 167.95 254.37813Q167.60625 253.64375 167.60625 252.69063Q167.60625 251.76875 167.91875 251.00313Q168.23125 250.2375 168.85625 249.84688Q169.48125 249.44063 170.24687 249.44063Q170.80937 249.44063 171.24687 249.675Q171.68437 249.90938 171.96562 250.28438L171.96562 247.20625L173.0125 247.20625L173.0125 255.8L172.02812 255.8ZM168.7 252.69063Q168.7 253.89375 169.2 254.4875Q169.7 255.06563 170.3875 255.06563Q171.075 255.06563 171.55937 254.50313Q172.04375 253.94063 172.04375 252.78438Q172.04375 251.50313 171.54375 250.90938Q171.05937 250.31563 170.34062 250.31563Q169.6375 250.31563 169.16875 250.89375Q168.7 251.45625 168.7 252.69063ZM179.24687 253.8L180.34062 253.925Q180.09062 254.87813 179.3875 255.40938Q178.68437 255.94063 177.60625 255.94063Q176.24687 255.94063 175.43437 255.09688Q174.6375 254.25313 174.6375 252.7375Q174.6375 251.175 175.45 250.31563Q176.2625 249.44063 177.54375 249.44063Q178.79375 249.44063 179.575 250.28438Q180.37187 251.12813 180.37187 252.675Q180.37187 252.76875 180.37187 252.95625L175.73125 252.95625Q175.79375 253.9875 176.30937 254.53438Q176.825 255.06563 177.60625 255.06563Q178.18437 255.06563 178.59062 254.76875Q179.0125 254.45625 179.24687 253.8ZM175.79375 252.09688L179.2625 252.09688Q179.2 251.3 178.87187 250.90938Q178.35625 250.3 177.55937 250.3Q176.825 250.3 176.325 250.78438Q175.84062 251.26875 175.79375 252.09688ZM181.98125 255.8L181.98125 249.58125L182.93437 249.58125L182.93437 250.51875Q183.29375 249.8625 183.59062 249.65938Q183.90312 249.44063 184.27812 249.44063Q184.80937 249.44063 185.35625 249.76875L184.99687 250.75313Q184.60625 250.51875 184.23125 250.51875Q183.87187 250.51875 183.59062 250.7375Q183.325 250.94063 183.21562 251.31563Q183.02812 251.87813 183.02812 252.53438L183.02812 255.8L181.98125 255.8ZM190.24687 253.8L191.34062 253.925Q191.09062 254.87813 190.3875 255.40938Q189.68437 255.94063 188.60625 255.94063Q187.24687 255.94063 186.43437 255.09688Q185.6375 254.25313 185.6375 252.7375Q185.6375 251.175 186.45 250.31563Q187.2625 249.44063 188.54375 249.44063Q189.79375 249.44063 190.575 250.28438Q191.37187 251.12813 191.37187 252.675Q191.37187 252.76875 191.37187 252.95625L186.73125 252.95625Q186.79375 253.9875 187.30937 254.53438Q187.825 255.06563 188.60625 255.06563Q189.18437 255.06563 189.59062 254.76875Q190.0125 254.45625 190.24687 253.8ZM186.79375 252.09688L190.2625 252.09688Q190.2 251.3 189.87187 250.90938Q189.35625 250.3 188.55937 250.3Q187.825 250.3 187.325 250.78438Q186.84062 251.26875 186.79375 252.09688ZM195.575 253.94063L196.60625 253.78438Q196.7 254.40938 197.09062 254.7375Q197.49687 255.06563 198.23125 255.06563Q198.95 255.06563 199.29375 254.78438Q199.65312 254.4875 199.65312 254.08125Q199.65312 253.72188 199.34062 253.51875Q199.12187 253.37813 198.2625 253.15938Q197.10625 252.8625 196.65312 252.65938Q196.21562 252.44063 195.98125 252.06563Q195.74687 251.69063 195.74687 251.22188Q195.74687 250.81563 195.93437 250.45625Q196.12187 250.09688 196.45 249.8625Q196.7 249.69063 197.12187 249.56563Q197.54375 249.44063 198.04375 249.44063Q198.7625 249.44063 199.30937 249.65938Q199.87187 249.8625 200.1375 250.22188Q200.40312 250.58125 200.49687 251.175L199.46562 251.31563Q199.40312 250.84688 199.05937 250.58125Q198.73125 250.3 198.10625 250.3Q197.3875 250.3 197.075 250.55Q196.7625 250.78438 196.7625 251.1125Q196.7625 251.31563 196.8875 251.47188Q197.02812 251.64375 197.29375 251.75313Q197.45 251.81563 198.23125 252.01875Q199.35625 252.33125 199.79375 252.51875Q200.23125 252.70625 200.48125 253.06563Q200.73125 253.425 200.73125 253.97188Q200.73125 254.50313 200.41875 254.97188Q200.12187 255.425 199.54375 255.69063Q198.96562 255.94063 198.23125 255.94063Q197.0125 255.94063 196.37187 255.44063Q195.74687 254.925 195.575 253.94063ZM202.60625 252.69063Q202.60625 250.95625 203.55937 250.12813Q204.35625 249.44063 205.5125 249.44063Q206.79375 249.44063 207.60625 250.28438Q208.43437 251.1125 208.43437 252.59688Q208.43437 253.8 208.075 254.4875Q207.71562 255.175 207.0125 255.56563Q206.325 255.94063 205.5125 255.94063Q204.21562 255.94063 203.40312 255.1125Q202.60625 254.26875 202.60625 252.69063ZM203.68437 252.69063Q203.68437 253.87813 204.2 254.47188Q204.73125 255.06563 205.5125 255.06563Q206.30937 255.06563 206.825 254.47188Q207.34062 253.87813 207.34062 252.65938Q207.34062 251.50313 206.80937 250.90938Q206.29375 250.31563 205.5125 250.31563Q204.73125 250.31563 204.2 250.90938Q203.68437 251.4875 203.68437 252.69063ZM209.79375 256.3156L210.825 256.47186Q210.8875 256.9406 211.18437 257.15936Q211.575 257.45624 212.24687 257.45624Q212.98125 257.45624 213.37187 257.15936Q213.77812 256.8625 213.91875 256.34686Q214.0125 256.01874 213.99687 254.9875Q213.30937 255.8 212.27812 255.8Q210.99687 255.8 210.29375 254.87813Q209.59062 253.94063 209.59062 252.65938Q209.59062 251.76875 209.90312 251.01875Q210.23125 250.25313 210.84062 249.84688Q211.45 249.44063 212.27812 249.44063Q213.3875 249.44063 214.10625 250.33125L214.10625 249.58125L215.075 249.58125L215.075 254.95625Q215.075 256.40936 214.77812 257.01874Q214.48125 257.6281 213.84062 257.97186Q213.2 258.33124 212.2625 258.33124Q211.15312 258.33124 210.46562 257.83124Q209.77812 257.33124 209.79375 256.3156ZM210.66875 252.58125Q210.66875 253.8 211.15312 254.3625Q211.6375 254.925 212.37187 254.925Q213.10625 254.925 213.59062 254.3625Q214.09062 253.8 214.09062 252.6125Q214.09062 251.47188 213.575 250.89375Q213.075 250.31563 212.35625 250.31563Q211.65312 250.31563 211.15312 250.89375Q210.66875 251.45625 210.66875 252.58125ZM216.96562 255.8L216.96562 247.20625L218.02812 247.20625L218.02812 255.8L216.96562 255.8ZM219.99687 248.425L219.99687 247.20625L221.05937 247.20625L221.05937 248.425L219.99687 248.425ZM219.99687 255.8L219.99687 249.58125L221.05937 249.58125L221.05937 255.8L219.99687 255.8ZM227.24687 253.8L228.34062 253.925Q228.09062 254.87813 227.3875 255.40938Q226.68437 255.94063 225.60625 255.94063Q224.24687 255.94063 223.43437 255.09688Q222.6375 254.25313 222.6375 252.7375Q222.6375 251.175 223.45 250.31563Q224.2625 249.44063 225.54375 249.44063Q226.79375 249.44063 227.575 250.28438Q228.37187 251.12813 228.37187 252.675Q228.37187 252.76875 228.37187 252.95625L223.73125 252.95625Q223.79375 253.9875 224.30937 254.53438Q224.825 255.06563 225.60625 255.06563Q226.18437 255.06563 226.59062 254.76875Q227.0125 254.45625 227.24687 253.8ZM223.79375 252.09688L227.2625 252.09688Q227.2 251.3 226.87187 250.90938Q226.35625 250.3 225.55937 250.3Q224.825 250.3 224.325 250.78438Q223.84062 251.26875 223.79375 252.09688Z" fill-rule="nonzero"/><path fill="#fbbc04" d="M257.2 251.8C257.2 255.11371 254.5137 257.8 251.2 257.8C247.88629 257.8 245.2 255.11371 245.2 251.8C245.2 248.4863 247.88629 245.8 251.2 245.8C254.5137 245.8 257.2 248.4863 257.2 251.8Z" fill-rule="nonzero"/><path fill="#1a1a1a" d="M266.1375 255.8L266.1375 247.20625L269.95 247.20625Q271.10626 247.20625 271.7 247.44063Q272.29376 247.675 272.65314 248.26875Q273.0125 248.84688 273.0125 249.55Q273.0125 250.47188 272.41876 251.09688Q271.825 251.72188 270.59064 251.89375Q271.04376 252.1125 271.27814 252.31563Q271.77814 252.76875 272.21564 253.45625L273.71564 255.8L272.27814 255.8L271.15314 254.01875Q270.65314 253.2375 270.325 252.83125Q270.0125 252.425 269.7469 252.26875Q269.4969 252.09688 269.23126 252.01875Q269.04376 251.9875 268.60626 251.9875L267.27814 251.9875L267.27814 255.8L266.1375 255.8ZM267.27814 251.00313L269.73126 251.00313Q270.4969 251.00313 270.9344 250.84688Q271.3875 250.675 271.60626 250.33125Q271.84064 249.97188 271.84064 249.55Q271.84064 248.94063 271.3875 248.55Q270.95 248.15938 269.9969 248.15938L267.27814 248.15938L267.27814 251.00313ZM274.9969 248.425L274.9969 247.20625L276.0594 247.20625L276.0594 248.425L274.9969 248.425ZM274.9969 255.8L274.9969 249.58125L276.0594 249.58125L276.0594 255.8L274.9969 255.8ZM279.71564 255.8L277.35626 249.58125L278.46564 249.58125L279.8094 253.3Q280.0125 253.90938 280.2 254.55Q280.34064 254.06563 280.59064 253.37813L281.98126 249.58125L283.0594 249.58125L280.7 255.8L279.71564 255.8ZM287.2469 253.8L288.34064 253.925Q288.09064 254.87813 287.3875 255.40938Q286.6844 255.94063 285.60626 255.94063Q284.2469 255.94063 283.4344 255.09688Q282.6375 254.25313 282.6375 252.7375Q282.6375 251.175 283.45 250.31563Q284.2625 249.44063 285.54376 249.44063Q286.79376 249.44063 287.575 250.28438Q288.3719 251.12813 288.3719 252.675Q288.3719 252.76875 288.3719 252.95625L283.73126 252.95625Q283.79376 253.9875 284.3094 254.53438Q284.825 255.06563 285.60626 255.06563Q286.1844 255.06563 286.59064 254.76875Q287.0125 254.45625 287.2469 253.8ZM283.79376 252.09688L287.2625 252.09688Q287.2 251.3 286.8719 250.90938Q286.35626 250.3 285.5594 250.3Q284.825 250.3 284.325 250.78438Q283.84064 251.26875 283.79376 252.09688ZM294.02814 255.8L294.02814 255.01875Q293.4344 255.94063 292.29376 255.94063Q291.54376 255.94063 290.91876 255.53438Q290.29376 255.1125 289.95 254.37813Q289.60626 253.64375 289.60626 252.69063Q289.60626 251.76875 289.91876 251.00313Q290.23126 250.2375 290.85626 249.84688Q291.48126 249.44063 292.2469 249.44063Q292.8094 249.44063 293.2469 249.675Q293.6844 249.90938 293.96564 250.28438L293.96564 247.20625L295.0125 247.20625L295.0125 255.8L294.02814 255.8ZM290.7 252.69063Q290.7 253.89375 291.2 254.4875Q291.7 255.06563 292.3875 255.06563Q293.075 255.06563 293.5594 254.50313Q294.04376 253.94063 294.04376 252.78438Q294.04376 251.50313 293.54376 250.90938Q293.0594 250.31563 292.34064 250.31563Q291.6375 250.31563 291.16876 250.89375Q290.7 251.45625 290.7 252.69063ZM301.2469 253.8L302.34064 253.925Q302.09064 254.87813 301.3875 255.40938Q300.6844 255.94063 299.60626 255.94063Q298.2469 255.94063 297.4344 255.09688Q296.6375 254.25313 296.6375 252.7375Q296.6375 251.175 297.45 250.31563Q298.2625 249.44063 299.54376 249.44063Q300.79376 249.44063 301.575 250.28438Q302.3719 251.12813 302.3719 252.675Q302.3719 252.76875 302.3719 252.95625L297.73126 252.95625Q297.79376 253.9875 298.3094 254.53438Q298.825 255.06563 299.60626 255.06563Q300.1844 255.06563 300.59064 254.76875Q301.0125 254.45625 301.2469 253.8ZM297.79376 252.09688L301.2625 252.09688Q301.2 251.3 300.8719 250.90938Q300.35626 250.3 299.5594 250.3Q298.825 250.3 298.325 250.78438Q297.84064 251.26875 297.79376 252.09688ZM303.98126 255.8L303.98126 249.58125L304.9344 249.58125L304.9344 250.51875Q305.29376 249.8625 305.59064 249.65938Q305.90314 249.44063 306.27814 249.44063Q306.8094 249.44063 307.35626 249.76875L306.9969 250.75313Q306.60626 250.51875 306.23126 250.51875Q305.8719 250.51875 305.59064 250.7375Q305.325 250.94063 305.21564 251.31563Q305.02814 251.87813 305.02814 252.53438L305.02814 255.8L303.98126 255.8ZM312.2469 253.8L313.34064 253.925Q313.09064 254.87813 312.3875 255.40938Q311.6844 255.94063 310.60626 255.94063Q309.2469 255.94063 308.4344 255.09688Q307.6375 254.25313 307.6375 252.7375Q307.6375 251.175 308.45 250.31563Q309.2625 249.44063 310.54376 249.44063Q311.79376 249.44063 312.575 250.28438Q313.3719 251.12813 313.3719 252.675Q313.3719 252.76875 313.3719 252.95625L308.73126 252.95625Q308.79376 253.9875 309.3094 254.53438Q309.825 255.06563 310.60626 255.06563Q311.1844 255.06563 311.59064 254.76875Q312.0125 254.45625 312.2469 253.8ZM308.79376 252.09688L312.2625 252.09688Q312.2 251.3 311.8719 250.90938Q311.35626 250.3 310.5594 250.3Q309.825 250.3 309.325 250.78438Q308.84064 251.26875 308.79376 252.09688ZM317.9969 258.1906L317.9969 249.58125L318.95 249.58125L318.95 250.37813Q319.29376 249.90938 319.71564 249.675Q320.15314 249.44063 320.7625 249.44063Q321.5594 249.44063 322.16876 249.84688Q322.77814 250.25313 323.075 251.00313Q323.3875 251.75313 323.3875 252.64375Q323.3875 253.59688 323.04376 254.3625Q322.71564 255.12813 322.0594 255.53438Q321.40314 255.94063 320.6844 255.94063Q320.15314 255.94063 319.73126 255.72188Q319.3094 255.4875 319.04376 255.15938L319.04376 258.1906L317.9969 258.1906ZM318.95 252.72188Q318.95 253.925 319.4344 254.50313Q319.91876 255.06563 320.60626 255.06563Q321.3094 255.06563 321.8094 254.47188Q322.3094 253.87813 322.3094 252.62813Q322.3094 251.44063 321.825 250.8625Q321.34064 250.26875 320.65314 250.26875Q319.98126 250.26875 319.46564 250.89375Q318.95 251.51875 318.95 252.72188ZM329.2469 253.8L330.34064 253.925Q330.09064 254.87813 329.3875 255.40938Q328.6844 255.94063 327.60626 255.94063Q326.2469 255.94063 325.4344 255.09688Q324.6375 254.25313 324.6375 252.7375Q324.6375 251.175 325.45 250.31563Q326.2625 249.44063 327.54376 249.44063Q328.79376 249.44063 329.575 250.28438Q330.3719 251.12813 330.3719 252.675Q330.3719 252.76875 330.3719 252.95625L325.73126 252.95625Q325.79376 253.9875 326.3094 254.53438Q326.825 255.06563 327.60626 255.06563Q328.1844 255.06563 328.59064 254.76875Q329.0125 254.45625 329.2469 253.8ZM325.79376 252.09688L329.2625 252.09688Q329.2 251.3 328.8719 250.90938Q328.35626 250.3 327.5594 250.3Q326.825 250.3 326.325 250.78438Q325.84064 251.26875 325.79376 252.09688ZM331.575 253.94063L332.60626 253.78438Q332.7 254.40938 333.09064 254.7375Q333.4969 255.06563 334.23126 255.06563Q334.95 255.06563 335.29376 254.78438Q335.65314 254.4875 335.65314 254.08125Q335.65314 253.72188 335.34064 253.51875Q335.1219 253.37813 334.2625 253.15938Q333.10626 252.8625 332.65314 252.65938Q332.21564 252.44063 331.98126 252.06563Q331.7469 251.69063 331.7469 251.22188Q331.7469 250.81563 331.9344 250.45625Q332.1219 250.09688 332.45 249.8625Q332.7 249.69063 333.1219 249.56563Q333.54376 249.44063 334.04376 249.44063Q334.7625 249.44063 335.3094 249.65938Q335.8719 249.8625 336.1375 250.22188Q336.40314 250.58125 336.4969 251.175L335.46564 251.31563Q335.40314 250.84688 335.0594 250.58125Q334.73126 250.3 334.10626 250.3Q333.3875 250.3 333.075 250.55Q332.7625 250.78438 332.7625 251.1125Q332.7625 251.31563 332.8875 251.47188Q333.02814 251.64375 333.29376 251.75313Q333.45 251.81563 334.23126 252.01875Q335.35626 252.33125 335.79376 252.51875Q336.23126 252.70625 336.48126 253.06563Q336.73126 253.425 336.73126 253.97188Q336.73126 254.50313 336.41876 254.97188Q336.1219 255.425 335.54376 255.69063Q334.96564 255.94063 334.23126 255.94063Q333.0125 255.94063 332.3719 255.44063Q331.7469 254.925 331.575 253.94063ZM338.9969 248.425L338.9969 247.20625L340.0594 247.20625L340.0594 248.425L338.9969 248.425ZM338.9969 255.8L338.9969 249.58125L340.0594 249.58125L340.0594 255.8L338.9969 255.8Z" fill-rule="nonzero"/><path fill="#34a853" d="M369.2 251.8C369.2 255.11371 366.5137 257.8 363.2 257.8C359.8863 257.8 357.2 255.11371 357.2 251.8C357.2 248.4863 359.8863 245.8 363.2 245.8C366.5137 245.8 369.2 248.4863 369.2 251.8Z" fill-rule="nonzero"/><path fill="#1a1a1a" d="M378.1219 255.8L378.1219 247.20625L379.27814 247.20625L383.79376 253.95625L383.79376 247.20625L384.8875 247.20625L384.8875 255.8L383.71564 255.8L379.2 249.05L379.2 255.8L378.1219 255.8ZM391.2469 253.8L392.34064 253.925Q392.09064 254.87813 391.3875 255.40938Q390.6844 255.94063 389.60626 255.94063Q388.2469 255.94063 387.4344 255.09688Q386.6375 254.25313 386.6375 252.7375Q386.6375 251.175 387.45 250.31563Q388.2625 249.44063 389.54376 249.44063Q390.79376 249.44063 391.575 250.28438Q392.3719 251.12813 392.3719 252.675Q392.3719 252.76875 392.3719 252.95625L387.73126 252.95625Q387.79376 253.9875 388.3094 254.53438Q388.825 255.06563 389.60626 255.06563Q390.1844 255.06563 390.59064 254.76875Q391.0125 254.45625 391.2469 253.8ZM387.79376 252.09688L391.2625 252.09688Q391.2 251.3 390.8719 250.90938Q390.35626 250.3 389.5594 250.3Q388.825 250.3 388.325 250.78438Q387.84064 251.26875 387.79376 252.09688ZM393.575 253.94063L394.60626 253.78438Q394.7 254.40938 395.09064 254.7375Q395.4969 255.06563 396.23126 255.06563Q396.95 255.06563 397.29376 254.78438Q397.65314 254.4875 397.65314 254.08125Q397.65314 253.72188 397.34064 253.51875Q397.1219 253.37813 396.2625 253.15938Q395.10626 252.8625 394.65314 252.65938Q394.21564 252.44063 393.98126 252.06563Q393.7469 251.69063 393.7469 251.22188Q393.7469 250.81563 393.9344 250.45625Q394.1219 250.09688 394.45 249.8625Q394.7 249.69063 395.1219 249.56563Q395.54376 249.44063 396.04376 249.44063Q396.7625 249.44063 397.3094 249.65938Q397.8719 249.8625 398.1375 250.22188Q398.40314 250.58125 398.4969 251.175L397.46564 251.31563Q397.40314 250.84688 397.0594 250.58125Q396.73126 250.3 396.10626 250.3Q395.3875 250.3 395.075 250.55Q394.7625 250.78438 394.7625 251.1125Q394.7625 251.31563 394.8875 251.47188Q395.02814 251.64375 395.29376 251.75313Q395.45 251.81563 396.23126 252.01875Q397.35626 252.33125 397.79376 252.51875Q398.23126 252.70625 398.48126 253.06563Q398.73126 253.425 398.73126 253.97188Q398.73126 254.50313 398.41876 254.97188Q398.1219 255.425 397.54376 255.69063Q396.96564 255.94063 396.23126 255.94063Q395.0125 255.94063 394.3719 255.44063Q393.7469 254.925 393.575 253.94063ZM400.575 253.94063L401.60626 253.78438Q401.7 254.40938 402.09064 254.7375Q402.4969 255.06563 403.23126 255.06563Q403.95 255.06563 404.29376 254.78438Q404.65314 254.4875 404.65314 254.08125Q404.65314 253.72188 404.34064 253.51875Q404.1219 253.37813 403.2625 253.15938Q402.10626 252.8625 401.65314 252.65938Q401.21564 252.44063 400.98126 252.06563Q400.7469 251.69063 400.7469 251.22188Q400.7469 250.81563 400.9344 250.45625Q401.1219 250.09688 401.45 249.8625Q401.7 249.69063 402.1219 249.56563Q402.54376 249.44063 403.04376 249.44063Q403.7625 249.44063 404.3094 249.65938Q404.8719 249.8625 405.1375 250.22188Q405.40314 250.58125 405.4969 251.175L404.46564 251.31563Q404.40314 250.84688 404.0594 250.58125Q403.73126 250.3 403.10626 250.3Q402.3875 250.3 402.075 250.55Q401.7625 250.78438 401.7625 251.1125Q401.7625 251.31563 401.8875 251.47188Q402.02814 251.64375 402.29376 251.75313Q402.45 251.81563 403.23126 252.01875Q404.35626 252.33125 404.79376 252.51875Q405.23126 252.70625 405.48126 253.06563Q405.73126 253.425 405.73126 253.97188Q405.73126 254.50313 405.41876 254.97188Q405.1219 255.425 404.54376 255.69063Q403.96564 255.94063 403.23126 255.94063Q402.0125 255.94063 401.3719 255.44063Q400.7469 254.925 400.575 253.94063ZM412.075 255.8L412.075 254.87813Q411.34064 255.94063 410.09064 255.94063Q409.54376 255.94063 409.0594 255.7375Q408.59064 255.51875 408.35626 255.20625Q408.1219 254.87813 408.02814 254.40938Q407.96564 254.1125 407.96564 253.425L407.96564 249.58125L409.02814 249.58125L409.02814 253.03438Q409.02814 253.84688 409.09064 254.14375Q409.1844 254.55 409.4969 254.8Q409.825 255.03438 410.3094 255.03438Q410.77814 255.03438 411.1844 254.8Q411.60626 254.55 411.77814 254.12813Q411.96564 253.70625 411.96564 252.90938L411.96564 249.58125L413.0125 249.58125L413.0125 255.8L412.075 255.8ZM414.9969 255.8L414.9969 249.58125L415.9344 249.58125L415.9344 250.45625Q416.6219 249.44063 417.91876 249.44063Q418.48126 249.44063 418.95 249.64375Q419.4344 249.84688 419.66876 250.175Q419.90314 250.50313 419.9969 250.94063Q420.04376 251.2375 420.04376 251.97188L420.04376 255.8L418.9969 255.8L418.9969 252.01875Q418.9969 251.3625 418.8719 251.05Q418.7469 250.7375 418.4344 250.55Q418.1219 250.34688 417.7 250.34688Q417.02814 250.34688 416.52814 250.78438Q416.04376 251.20625 416.04376 252.39375L416.04376 255.8L414.9969 255.8ZM426.0594 255.03438Q425.46564 255.53438 424.91876 255.7375Q424.3875 255.94063 423.7625 255.94063Q422.73126 255.94063 422.1844 255.44063Q421.6375 254.94063 421.6375 254.15938Q421.6375 253.70625 421.84064 253.33125Q422.04376 252.94063 422.3875 252.72188Q422.73126 252.4875 423.15314 252.37813Q423.45 252.28438 424.09064 252.20625Q425.35626 252.06563 425.96564 251.84688Q425.96564 251.62813 425.96564 251.58125Q425.96564 250.925 425.66876 250.65938Q425.2625 250.31563 424.46564 250.31563Q423.73126 250.31563 423.3719 250.58125Q423.0125 250.83125 422.84064 251.4875L421.8094 251.34688Q421.95 250.69063 422.27814 250.28438Q422.60626 249.87813 423.21564 249.65938Q423.825 249.44063 424.6219 249.44063Q425.41876 249.44063 425.91876 249.62813Q426.41876 249.81563 426.65314 250.09688Q426.8875 250.37813 426.98126 250.81563Q427.02814 251.08125 427.02814 251.78438L427.02814 253.19063Q427.02814 254.65938 427.09064 255.05Q427.16876 255.44063 427.3719 255.8L426.2625 255.8Q426.10626 255.47188 426.0594 255.03438ZM425.96564 252.675Q425.3875 252.90938 424.2469 253.08125Q423.59064 253.175 423.325 253.3Q423.0594 253.40938 422.90314 253.62813Q422.7625 253.84688 422.7625 254.12813Q422.7625 254.55 423.075 254.83125Q423.40314 255.1125 424.0125 255.1125Q424.6219 255.1125 425.09064 254.84688Q425.575 254.58125 425.79376 254.1125Q425.96564 253.75313 425.96564 253.06563L425.96564 252.675ZM436.0594 253.51875L437.09064 253.65938Q436.91876 254.72188 436.21564 255.33125Q435.5125 255.94063 434.4969 255.94063Q433.21564 255.94063 432.4344 255.1125Q431.66876 254.26875 431.66876 252.70625Q431.66876 251.70625 431.9969 250.95625Q432.34064 250.19063 433.0125 249.81563Q433.7 249.44063 434.5125 249.44063Q435.5125 249.44063 436.15314 249.95625Q436.8094 250.45625 436.9969 251.40938L435.96564 251.56563Q435.825 250.94063 435.45 250.62813Q435.075 250.3 434.54376 250.3Q433.7469 250.3 433.2469 250.87813Q432.7469 251.44063 432.7469 252.675Q432.7469 253.94063 433.23126 254.50313Q433.71564 255.06563 434.48126 255.06563Q435.10626 255.06563 435.5125 254.69063Q435.9344 254.31563 436.0594 253.51875ZM437.98126 255.8L437.98126 249.58125L438.9344 249.58125L438.9344 250.51875Q439.29376 249.8625 439.59064 249.65938Q439.90314 249.44063 440.27814 249.44063Q440.8094 249.44063 441.35626 249.76875L440.9969 250.75313Q440.60626 250.51875 440.23126 250.51875Q439.8719 250.51875 439.59064 250.7375Q439.325 250.94063 439.21564 251.31563Q439.02814 251.87813 439.02814 252.53438L439.02814 255.8L437.98126 255.8ZM441.9969 248.425L441.9969 247.20625L443.0594 247.20625L443.0594 248.425L441.9969 248.425ZM441.9969 255.8L441.9969 249.58125L443.0594 249.58125L443.0594 255.8L441.9969 255.8ZM447.29376 254.8625L447.45 255.78438Q446.9969 255.87813 446.65314 255.87813Q446.075 255.87813 445.7625 255.70625Q445.45 255.51875 445.3094 255.22188Q445.1844 254.925 445.1844 253.97188L445.1844 250.39375L444.41876 250.39375L444.41876 249.58125L445.1844 249.58125L445.1844 248.03438L446.23126 247.40938L446.23126 249.58125L447.29376 249.58125L447.29376 250.39375L446.23126 250.39375L446.23126 254.03438Q446.23126 254.4875 446.27814 254.6125Q446.34064 254.7375 446.46564 254.81563Q446.59064 254.89375 446.825 254.89375Q447.0125 254.89375 447.29376 254.8625ZM447.9969 248.425L447.9969 247.20625L449.0594 247.20625L449.0594 248.425L447.9969 248.425ZM447.9969 255.8L447.9969 249.58125L449.0594 249.58125L449.0594 255.8L447.9969 255.8ZM455.0594 253.51875L456.09064 253.65938Q455.91876 254.72188 455.21564 255.33125Q454.5125 255.94063 453.4969 255.94063Q452.21564 255.94063 451.4344 255.1125Q450.66876 254.26875 450.66876 252.70625Q450.66876 251.70625 450.9969 250.95625Q451.34064 250.19063 452.0125 249.81563Q452.7 249.44063 453.5125 249.44063Q454.5125 249.44063 455.15314 249.95625Q455.8094 250.45625 455.9969 251.40938L454.96564 251.56563Q454.825 250.94063 454.45 250.62813Q454.075 250.3 453.54376 250.3Q452.7469 250.3 452.2469 250.87813Q451.7469 251.44063 451.7469 252.675Q451.7469 253.94063 452.23126 254.50313Q452.71564 255.06563 453.48126 255.06563Q454.10626 255.06563 454.5125 254.69063Q454.9344 254.31563 455.0594 253.51875ZM456.9969 248.425L456.9969 247.20625L458.0594 247.20625L458.0594 248.425L456.9969 248.425ZM456.9969 255.8L456.9969 249.58125L458.0594 249.58125L458.0594 255.8L456.9969 255.8ZM462.29376 254.8625L462.45 255.78438Q461.9969 255.87813 461.65314 255.87813Q461.075 255.87813 460.7625 255.70625Q460.45 255.51875 460.3094 255.22188Q460.1844 254.925 460.1844 253.97188L460.1844 250.39375L459.41876 250.39375L459.41876 249.58125L460.1844 249.58125L460.1844 248.03438L461.23126 247.40938L461.23126 249.58125L462.29376 249.58125L462.29376 250.39375L461.23126 250.39375L461.23126 254.03438Q461.23126 254.4875 461.27814 254.6125Q461.34064 254.7375 461.46564 254.81563Q461.59064 254.89375 461.825 254.89375Q462.0125 254.89375 462.29376 254.8625ZM467.0594 255.03438Q466.46564 255.53438 465.91876 255.7375Q465.3875 255.94063 464.7625 255.94063Q463.73126 255.94063 463.1844 255.44063Q462.6375 254.94063 462.6375 254.15938Q462.6375 253.70625 462.84064 253.33125Q463.04376 252.94063 463.3875 252.72188Q463.73126 252.4875 464.15314 252.37813Q464.45 252.28438 465.09064 252.20625Q466.35626 252.06563 466.96564 251.84688Q466.96564 251.62813 466.96564 251.58125Q466.96564 250.925 466.66876 250.65938Q466.2625 250.31563 465.46564 250.31563Q464.73126 250.31563 464.3719 250.58125Q464.0125 250.83125 463.84064 251.4875L462.8094 251.34688Q462.95 250.69063 463.27814 250.28438Q463.60626 249.87813 464.21564 249.65938Q464.825 249.44063 465.6219 249.44063Q466.41876 249.44063 466.91876 249.62813Q467.41876 249.81563 467.65314 250.09688Q467.8875 250.37813 467.98126 250.81563Q468.02814 251.08125 468.02814 251.78438L468.02814 253.19063Q468.02814 254.65938 468.09064 255.05Q468.16876 255.44063 468.3719 255.8L467.2625 255.8Q467.10626 255.47188 467.0594 255.03438ZM466.96564 252.675Q466.3875 252.90938 465.2469 253.08125Q464.59064 253.175 464.325 253.3Q464.0594 253.40938 463.90314 253.62813Q463.7625 253.84688 463.7625 254.12813Q463.7625 254.55 464.075 254.83125Q464.40314 255.1125 465.0125 255.1125Q465.6219 255.1125 466.09064 254.84688Q466.575 254.58125 466.79376 254.1125Q466.96564 253.75313 466.96564 253.06563L466.96564 252.675ZM466.3875 248.8L465.54376 248.8L464.1844 247.15938L465.60626 247.15938L466.3875 248.8Z" fill-rule="nonzero"/><path fill="#757575" d="M27.590626 32.66875Q28.91875 33.575 30.028126 33.996876L29.465626 35.309376Q27.91875 34.7625 26.3875 33.559376Q24.79375 34.45 22.871876 34.45Q20.934376 34.45 19.340626 33.5125Q17.7625 32.575 16.903126 30.871876Q16.059376 29.16875 16.059376 27.04375Q16.059376 24.91875 16.91875 23.184376Q17.778126 21.45 19.35625 20.54375Q20.95 19.621876 22.91875 19.621876Q24.903126 19.621876 26.48125 20.575Q28.075 21.5125 28.903126 23.215626Q29.746876 24.903126 29.746876 27.028126Q29.746876 28.79375 29.215626 30.215626Q28.684376 31.621876 27.590626 32.66875ZM23.41875 30.246876Q25.059376 30.7 26.121876 31.60625Q27.79375 30.090626 27.79375 27.028126Q27.79375 25.29375 27.2 23.996876Q26.621876 22.7 25.48125 21.98125Q24.340626 21.2625 22.91875 21.2625Q20.809376 21.2625 19.403126 22.715626Q18.0125 24.153126 18.0125 27.04375Q18.0125 29.840626 19.3875 31.340626Q20.778126 32.825 22.91875 32.825Q23.934376 32.825 24.840626 32.434376Q23.95 31.871876 22.965626 31.621876L23.41875 30.246876ZM39.309376 34.2L39.309376 32.66875Q38.10625 34.434376 36.028126 34.434376Q35.10625 34.434376 34.309376 34.090626Q33.5125 33.73125 33.121876 33.2Q32.746876 32.66875 32.590626 31.8875Q32.48125 31.371876 32.48125 30.246876L32.48125 23.825L34.23125 23.825L34.23125 29.575Q34.23125 30.95 34.340626 31.434376Q34.5125 32.121876 35.04375 32.528126Q35.590626 32.91875 36.371876 32.91875Q37.16875 32.91875 37.85625 32.5125Q38.559376 32.10625 38.840626 31.41875Q39.1375 30.715626 39.1375 29.3875L39.1375 23.825L40.8875 23.825L40.8875 34.2L39.309376 34.2ZM49.29375 32.91875Q48.309376 33.746876 47.403126 34.090626Q46.496876 34.434376 45.465626 34.434376Q43.7625 34.434376 42.840626 33.60625Q41.91875 32.7625 41.91875 31.465626Q41.91875 30.7 42.2625 30.075Q42.621876 29.45 43.184376 29.075Q43.746876 28.684376 44.45 28.48125Q44.965626 28.35625 46.0125 28.215626Q48.1375 27.965626 49.1375 27.621876Q49.153126 27.2625 49.153126 27.153126Q49.153126 26.090626 48.653126 25.6375Q47.98125 25.04375 46.653126 25.04375Q45.403126 25.04375 44.809376 25.48125Q44.23125 25.91875 43.95 27.028126L42.23125 26.79375Q42.465626 25.684376 42.996876 25.0125Q43.528126 24.325 44.54375 23.965626Q45.559376 23.590626 46.903126 23.590626Q48.23125 23.590626 49.059376 23.903126Q49.8875 24.215626 50.278126 24.7Q50.66875 25.16875 50.825 25.8875Q50.91875 26.340626 50.91875 27.5125L50.91875 29.85625Q50.91875 32.309376 51.028126 32.965626Q51.1375 33.60625 51.48125 34.2L49.6375 34.2Q49.371876 33.653126 49.29375 32.91875ZM49.1375 28.996876Q48.184376 29.3875 46.2625 29.653126Q45.184376 29.809376 44.73125 30.0125Q44.29375 30.2 44.04375 30.575Q43.79375 30.95 43.79375 31.41875Q43.79375 32.121876 44.325 32.590626Q44.85625 33.059376 45.8875 33.059376Q46.903126 33.059376 47.684376 32.621876Q48.48125 32.16875 48.85625 31.403126Q49.1375 30.79375 49.1375 29.6375L49.1375 28.996876ZM53.48125 34.2L53.48125 19.8875L55.23125 19.8875L55.23125 34.2L53.48125 34.2ZM57.528126 21.903126L57.528126 19.8875L59.29375 19.8875L59.29375 21.903126L57.528126 21.903126ZM57.528126 34.2L57.528126 23.825L59.29375 23.825L59.29375 34.2L57.528126 34.2ZM66.80937 31.10625L68.55937 30.825Q68.7 31.871876 69.37187 32.434376Q70.04375 32.98125 71.24687 32.98125Q72.45 32.98125 73.02812 32.496876Q73.62187 31.996876 73.62187 31.340626Q73.62187 30.746876 73.10625 30.403126Q72.74687 30.16875 71.30937 29.809376Q69.37187 29.309376 68.62187 28.965626Q67.8875 28.60625 67.49687 27.98125Q67.10625 27.340626 67.10625 26.575Q67.10625 25.8875 67.41875 25.29375Q67.74687 24.7 68.29375 24.309376Q68.7 24.0125 69.40312 23.809376Q70.12187 23.590626 70.93437 23.590626Q72.15312 23.590626 73.075 23.95Q73.99687 24.29375 74.43437 24.903126Q74.87187 25.496876 75.04375 26.496876L73.325 26.73125Q73.2 25.934376 72.6375 25.496876Q72.075 25.04375 71.05937 25.04375Q69.84062 25.04375 69.325 25.45Q68.80937 25.840626 68.80937 26.371876Q68.80937 26.715626 69.02812 26.996876Q69.23125 27.278126 69.7 27.465626Q69.96562 27.559376 71.24687 27.903126Q73.12187 28.403126 73.85625 28.73125Q74.59062 29.04375 75.0125 29.653126Q75.43437 30.246876 75.43437 31.153126Q75.43437 32.028126 74.91875 32.809376Q74.40312 33.590626 73.43437 34.0125Q72.46562 34.434376 71.24687 34.434376Q69.23125 34.434376 68.16875 33.590626Q67.10625 32.746876 66.80937 31.10625ZM76.87187 29.0125Q76.87187 26.1375 78.46562 24.746876Q79.80937 23.590626 81.73125 23.590626Q83.87187 23.590626 85.21562 24.996876Q86.575 26.403126 86.575 28.871876Q86.575 30.871876 85.98125 32.028126Q85.3875 33.16875 84.23125 33.809376Q83.09062 34.434376 81.73125 34.434376Q79.54375 34.434376 78.2 33.04375Q76.87187 31.6375 76.87187 29.0125ZM78.66875 29.0125Q78.66875 31.0125 79.52812 31.996876Q80.40312 32.98125 81.73125 32.98125Q83.04375 32.98125 83.90312 31.996876Q84.77812 30.996876 84.77812 28.95Q84.77812 27.028126 83.90312 26.04375Q83.02812 25.04375 81.73125 25.04375Q80.40312 25.04375 79.52812 26.04375Q78.66875 27.028126 78.66875 29.0125ZM88.5125 34.2L88.5125 23.825L90.10625 23.825L90.10625 25.309376Q91.24687 23.590626 93.40312 23.590626Q94.34062 23.590626 95.12187 23.934376Q95.91875 24.2625 96.30937 24.809376Q96.7 25.35625 96.85625 26.10625Q96.95 26.60625 96.95 27.825L96.95 34.2L95.18437 34.2L95.18437 27.8875Q95.18437 26.809376 94.98125 26.278126Q94.77812 25.746876 94.24687 25.434376Q93.73125 25.121876 93.02812 25.121876Q91.90312 25.121876 91.09062 25.840626Q90.27812 26.54375 90.27812 28.528126L90.27812 34.2L88.5125 34.2ZM97.87187 29.0125Q97.87187 26.1375 99.46562 24.746876Q100.80937 23.590626 102.73125 23.590626Q104.87187 23.590626 106.21562 24.996876Q107.575 26.403126 107.575 28.871876Q107.575 30.871876 106.98125 32.028126Q106.3875 33.16875 105.23125 33.809376Q104.09062 34.434376 102.73125 34.434376Q100.54375 34.434376 99.2 33.04375Q97.87187 31.6375 97.87187 29.0125ZM99.66875 29.0125Q99.66875 31.0125 100.52812 31.996876Q101.40312 32.98125 102.73125 32.98125Q104.04375 32.98125 104.90312 31.996876Q105.77812 30.996876 105.77812 28.95Q105.77812 27.028126 104.90312 26.04375Q104.02812 25.04375 102.73125 25.04375Q101.40312 25.04375 100.52812 26.04375Q99.66875 27.028126 99.66875 29.0125ZM115.48125 34.2L115.48125 19.8875L117.23125 19.8875L117.23125 34.2L115.48125 34.2ZM126.62187 30.85625L128.43437 31.090626Q128.0125 32.66875 126.84062 33.559376Q125.68437 34.434376 123.87187 34.434376Q121.60625 34.434376 120.2625 33.04375Q118.93437 31.6375 118.93437 29.10625Q118.93437 26.48125 120.27812 25.04375Q121.62187 23.590626 123.77812 23.590626Q125.85625 23.590626 127.16875 25.0125Q128.49687 26.41875 128.49687 28.996876Q128.49687 29.153126 128.48125 29.465626L120.74687 29.465626Q120.84062 31.16875 121.71562 32.075Q122.59062 32.98125 123.8875 32.98125Q124.85625 32.98125 125.52812 32.48125Q126.21562 31.965626 126.62187 30.85625ZM120.84062 28.0125L126.6375 28.0125Q126.52812 26.715626 125.98125 26.059376Q125.1375 25.04375 123.79375 25.04375Q122.59062 25.04375 121.7625 25.85625Q120.93437 26.653126 120.84062 28.0125ZM136.5125 38.16875L136.5125 23.825L138.12187 23.825L138.12187 25.16875Q138.68437 24.3875 139.3875 23.996876Q140.10625 23.590626 141.12187 23.590626Q142.45 23.590626 143.46562 24.278126Q144.48125 24.965626 144.99687 26.215626Q145.52812 27.45 145.52812 28.934376Q145.52812 30.528126 144.95 31.809376Q144.3875 33.075 143.29375 33.7625Q142.2 34.434376 140.99687 34.434376Q140.12187 34.434376 139.41875 34.059376Q138.73125 33.684376 138.27812 33.121876L138.27812 38.16875L136.5125 38.16875ZM138.10625 29.075Q138.10625 31.075 138.91875 32.028126Q139.73125 32.98125 140.8875 32.98125Q142.05937 32.98125 142.8875 31.996876Q143.73125 31.0125 143.73125 28.91875Q143.73125 26.95 142.90312 25.965626Q142.09062 24.965626 140.96562 24.965626Q139.84062 24.965626 138.96562 26.028126Q138.10625 27.075 138.10625 29.075ZM147.49687 34.2L147.49687 23.825L149.075 23.825L149.075 25.403126Q149.68437 24.29375 150.2 23.95Q150.71562 23.590626 151.325 23.590626Q152.21562 23.590626 153.1375 24.153126L152.52812 25.79375Q151.8875 25.403126 151.24687 25.403126Q150.66875 25.403126 150.2 25.7625Q149.74687 26.10625 149.54375 26.715626Q149.2625 27.653126 149.2625 28.7625L149.2625 34.2L147.49687 34.2ZM154.52812 21.903126L154.52812 19.8875L156.29375 19.8875L156.29375 21.903126L154.52812 21.903126ZM154.52812 34.2L154.52812 23.825L156.29375 23.825L156.29375 34.2L154.52812 34.2ZM158.5125 34.2L158.5125 23.825L160.10625 23.825L160.10625 25.309376Q161.24687 23.590626 163.40312 23.590626Q164.34062 23.590626 165.12187 23.934376Q165.91875 24.2625 166.30937 24.809376Q166.7 25.35625 166.85625 26.10625Q166.95 26.60625 166.95 27.825L166.95 34.2L165.18437 34.2L165.18437 27.8875Q165.18437 26.809376 164.98125 26.278126Q164.77812 25.746876 164.24687 25.434376Q163.73125 25.121876 163.02812 25.121876Q161.90312 25.121876 161.09062 25.840626Q160.27812 26.54375 160.27812 28.528126L160.27812 34.2L158.5125 34.2ZM175.29375 30.403126L177.0125 30.621876Q176.73125 32.41875 175.55937 33.434376Q174.40312 34.434376 172.7 34.434376Q170.575 34.434376 169.27812 33.04375Q167.98125 31.653126 167.98125 29.059376Q167.98125 27.371876 168.52812 26.121876Q169.09062 24.85625 170.23125 24.23125Q171.37187 23.590626 172.71562 23.590626Q174.40312 23.590626 175.46562 24.45Q176.54375 25.309376 176.85625 26.871876L175.1375 27.1375Q174.90312 26.090626 174.27812 25.575Q173.65312 25.04375 172.77812 25.04375Q171.45 25.04375 170.62187 25.996876Q169.79375 26.95 169.79375 28.996876Q169.79375 31.090626 170.59062 32.04375Q171.3875 32.98125 172.68437 32.98125Q173.71562 32.98125 174.40312 32.35625Q175.10625 31.715626 175.29375 30.403126ZM178.52812 21.903126L178.52812 19.8875L180.29375 19.8875L180.29375 21.903126L178.52812 21.903126ZM178.52812 34.2L178.52812 23.825L180.29375 23.825L180.29375 34.2L178.52812 34.2ZM182.5125 38.16875L182.5125 23.825L184.12187 23.825L184.12187 25.16875Q184.68437 24.3875 185.3875 23.996876Q186.10625 23.590626 187.12187 23.590626Q188.45 23.590626 189.46562 24.278126Q190.48125 24.965626 190.99687 26.215626Q191.52812 27.45 191.52812 28.934376Q191.52812 30.528126 190.95 31.809376Q190.3875 33.075 189.29375 33.7625Q188.2 34.434376 186.99687 34.434376Q186.12187 34.434376 185.41875 34.059376Q184.73125 33.684376 184.27812 33.121876L184.27812 38.16875L182.5125 38.16875ZM184.10625 29.075Q184.10625 31.075 184.91875 32.028126Q185.73125 32.98125 186.8875 32.98125Q188.05937 32.98125 188.8875 31.996876Q189.73125 31.0125 189.73125 28.91875Q189.73125 26.95 188.90312 25.965626Q188.09062 24.965626 186.96562 24.965626Q185.84062 24.965626 184.96562 26.028126Q184.10625 27.075 184.10625 29.075ZM200.29375 32.91875Q199.30937 33.746876 198.40312 34.090626Q197.49687 34.434376 196.46562 34.434376Q194.7625 34.434376 193.84062 33.60625Q192.91875 32.7625 192.91875 31.465626Q192.91875 30.7 193.2625 30.075Q193.62187 29.45 194.18437 29.075Q194.74687 28.684376 195.45 28.48125Q195.96562 28.35625 197.0125 28.215626Q199.1375 27.965626 200.1375 27.621876Q200.15312 27.2625 200.15312 27.153126Q200.15312 26.090626 199.65312 25.6375Q198.98125 25.04375 197.65312 25.04375Q196.40312 25.04375 195.80937 25.48125Q195.23125 25.91875 194.95 27.028126L193.23125 26.79375Q193.46562 25.684376 193.99687 25.0125Q194.52812 24.325 195.54375 23.965626Q196.55937 23.590626 197.90312 23.590626Q199.23125 23.590626 200.05937 23.903126Q200.8875 24.215626 201.27812 24.7Q201.66875 25.16875 201.825 25.8875Q201.91875 26.340626 201.91875 27.5125L201.91875 29.85625Q201.91875 32.309376 202.02812 32.965626Q202.1375 33.60625 202.48125 34.2L200.6375 34.2Q200.37187 33.653126 200.29375 32.91875ZM200.1375 28.996876Q199.18437 29.3875 197.2625 29.653126Q196.18437 29.809376 195.73125 30.0125Q195.29375 30.2 195.04375 30.575Q194.79375 30.95 194.79375 31.41875Q194.79375 32.121876 195.325 32.590626Q195.85625 33.059376 196.8875 33.059376Q197.90312 33.059376 198.68437 32.621876Q199.48125 32.16875 199.85625 31.403126Q200.1375 30.79375 200.1375 29.6375L200.1375 28.996876ZM204.48125 34.2L204.48125 19.8875L206.23125 19.8875L206.23125 34.2L204.48125 34.2ZM208.52812 21.903126L208.52812 19.8875L210.29375 19.8875L210.29375 21.903126L208.52812 21.903126ZM208.52812 34.2L208.52812 23.825L210.29375 23.825L210.29375 34.2L208.52812 34.2ZM225.29375 30.403126L227.0125 30.621876Q226.73125 32.41875 225.55937 33.434376Q224.40312 34.434376 222.7 34.434376Q220.575 34.434376 219.27812 33.04375Q217.98125 31.653126 217.98125 29.059376Q217.98125 27.371876 218.52812 26.121876Q219.09062 24.85625 220.23125 24.23125Q221.37187 23.590626 222.71562 23.590626Q224.40312 23.590626 225.46562 24.45Q226.54375 25.309376 226.85625 26.871876L225.1375 27.1375Q224.90312 26.090626 224.27812 25.575Q223.65312 25.04375 222.77812 25.04375Q221.45 25.04375 220.62187 25.996876Q219.79375 26.95 219.79375 28.996876Q219.79375 31.090626 220.59062 32.04375Q221.3875 32.98125 222.68437 32.98125Q223.71562 32.98125 224.40312 32.35625Q225.10625 31.715626 225.29375 30.403126ZM228.49687 34.2L228.49687 23.825L230.075 23.825L230.075 25.403126Q230.68437 24.29375 231.2 23.95Q231.71562 23.590626 232.325 23.590626Q233.21562 23.590626 234.1375 24.153126L233.52812 25.79375Q232.8875 25.403126 232.24687 25.403126Q231.66875 25.403126 231.2 25.7625Q230.74687 26.10625 230.54375 26.715626Q230.2625 27.653126 230.2625 28.7625L230.2625 34.2L228.49687 34.2ZM235.52812 21.903126L235.52812 19.8875L237.29375 19.8875L237.29375 21.903126L235.52812 21.903126ZM235.52812 34.2L235.52812 23.825L237.29375 23.825L237.29375 34.2L235.52812 34.2ZM243.35625 32.621876L243.60625 34.184376Q242.87187 34.340626 242.27812 34.340626Q241.325 34.340626 240.79375 34.04375Q240.27812 33.73125 240.05937 33.246876Q239.84062 32.746876 239.84062 31.16875L239.84062 25.2L238.55937 25.2L238.55937 23.825L239.84062 23.825L239.84062 21.2625L241.59062 20.2L241.59062 23.825L243.35625 23.825L243.35625 25.2L241.59062 25.2L241.59062 31.2625Q241.59062 32.0125 241.68437 32.23125Q241.77812 32.434376 241.98125 32.575Q242.2 32.7 242.59062 32.7Q242.87187 32.7 243.35625 32.621876ZM245.52812 21.903126L245.52812 19.8875L247.29375 19.8875L247.29375 21.903126L245.52812 21.903126ZM245.52812 34.2L245.52812 23.825L247.29375 23.825L247.29375 34.2L245.52812 34.2ZM256.29376 30.403126L258.0125 30.621876Q257.73126 32.41875 256.5594 33.434376Q255.40312 34.434376 253.7 34.434376Q251.575 34.434376 250.27812 33.04375Q248.98125 31.653126 248.98125 29.059376Q248.98125 27.371876 249.52812 26.121876Q250.09062 24.85625 251.23125 24.23125Q252.37187 23.590626 253.71562 23.590626Q255.40312 23.590626 256.46564 24.45Q257.54376 25.309376 257.85626 26.871876L256.1375 27.1375Q255.90312 26.090626 255.27812 25.575Q254.65312 25.04375 253.77812 25.04375Q252.45 25.04375 251.62187 25.996876Q250.79375 26.95 250.79375 28.996876Q250.79375 31.090626 251.59062 32.04375Q252.3875 32.98125 253.68437 32.98125Q254.71562 32.98125 255.40312 32.35625Q256.10626 31.715626 256.29376 30.403126ZM259.52814 21.903126L259.52814 19.8875L261.29376 19.8875L261.29376 21.903126L259.52814 21.903126ZM259.52814 34.2L259.52814 23.825L261.29376 23.825L261.29376 34.2L259.52814 34.2ZM267.35626 32.621876L267.60626 34.184376Q266.8719 34.340626 266.27814 34.340626Q265.325 34.340626 264.79376 34.04375Q264.27814 33.73125 264.0594 33.246876Q263.84064 32.746876 263.84064 31.16875L263.84064 25.2L262.5594 25.2L262.5594 23.825L263.84064 23.825L263.84064 21.2625L265.59064 20.2L265.59064 23.825L267.35626 23.825L267.35626 25.2L265.59064 25.2L265.59064 31.2625Q265.59064 32.0125 265.6844 32.23125Q265.77814 32.434376 265.98126 32.575Q266.2 32.7 266.59064 32.7Q266.8719 32.7 267.35626 32.621876ZM276.29376 32.91875Q275.3094 33.746876 274.40314 34.090626Q273.4969 34.434376 272.46564 34.434376Q270.7625 34.434376 269.84064 33.60625Q268.91876 32.7625 268.91876 31.465626Q268.91876 30.7 269.2625 30.075Q269.6219 29.45 270.1844 29.075Q270.7469 28.684376 271.45 28.48125Q271.96564 28.35625 273.0125 28.215626Q275.1375 27.965626 276.1375 27.621876Q276.15314 27.2625 276.15314 27.153126Q276.15314 26.090626 275.65314 25.6375Q274.98126 25.04375 273.65314 25.04375Q272.40314 25.04375 271.8094 25.48125Q271.23126 25.91875 270.95 27.028126L269.23126 26.79375Q269.46564 25.684376 269.9969 25.0125Q270.52814 24.325 271.54376 23.965626Q272.5594 23.590626 273.90314 23.590626Q275.23126 23.590626 276.0594 23.903126Q276.8875 24.215626 277.27814 24.7Q277.66876 25.16875 277.825 25.8875Q277.91876 26.340626 277.91876 27.5125L277.91876 29.85625Q277.91876 32.309376 278.02814 32.965626Q278.1375 33.60625 278.48126 34.2L276.6375 34.2Q276.3719 33.653126 276.29376 32.91875ZM276.1375 28.996876Q275.1844 29.3875 273.2625 29.653126Q272.1844 29.809376 271.73126 30.0125Q271.29376 30.2 271.04376 30.575Q270.79376 30.95 270.79376 31.41875Q270.79376 32.121876 271.325 32.590626Q271.85626 33.059376 272.8875 33.059376Q273.90314 33.059376 274.6844 32.621876Q275.48126 32.16875 275.85626 31.403126Q276.1375 30.79375 276.1375 29.6375L276.1375 28.996876ZM275.1844 22.54375L273.7625 22.54375L271.5125 19.809376L273.85626 19.809376L275.1844 22.54375ZM286.4969 34.2L286.4969 23.825L288.075 23.825L288.075 25.403126Q288.6844 24.29375 289.2 23.95Q289.71564 23.590626 290.325 23.590626Q291.21564 23.590626 292.1375 24.153126L291.52814 25.79375Q290.8875 25.403126 290.2469 25.403126Q289.66876 25.403126 289.2 25.7625Q288.7469 26.10625 288.54376 26.715626Q288.2625 27.653126 288.2625 28.7625L288.2625 34.2L286.4969 34.2ZM293.52814 21.903126L293.52814 19.8875L295.29376 19.8875L295.29376 21.903126L293.52814 21.903126ZM293.52814 34.2L293.52814 23.825L295.29376 23.825L295.29376 34.2L293.52814 34.2ZM297.2 35.059376L298.90314 35.309376Q299.0125 36.10625 299.4969 36.465626Q300.15314 36.95 301.29376 36.95Q302.5125 36.95 303.16876 36.465626Q303.84064 35.98125 304.075 35.10625Q304.21564 34.559376 304.2 32.840626Q303.04376 34.2 301.325 34.2Q299.1844 34.2 298.0125 32.653126Q296.84064 31.10625 296.84064 28.95Q296.84064 27.465626 297.3719 26.215626Q297.91876 24.965626 298.9344 24.278126Q299.96564 23.590626 301.34064 23.590626Q303.16876 23.590626 304.3719 25.075L304.3719 23.825L305.98126 23.825L305.98126 32.79375Q305.98126 35.215626 305.48126 36.215626Q304.9969 37.23125 303.91876 37.809376Q302.85626 38.403126 301.29376 38.403126Q299.45 38.403126 298.29376 37.575Q297.15314 36.746876 297.2 35.059376ZM298.65314 28.825Q298.65314 30.871876 299.46564 31.809376Q300.27814 32.746876 301.4969 32.746876Q302.7 32.746876 303.5125 31.809376Q304.34064 30.871876 304.34064 28.8875Q304.34064 26.98125 303.4969 26.0125Q302.65314 25.04375 301.46564 25.04375Q300.29376 25.04375 299.46564 25.996876Q298.65314 26.95 298.65314 28.825ZM315.3094 34.2L315.3094 32.66875Q314.10626 34.434376 312.02814 34.434376Q311.10626 34.434376 310.3094 34.090626Q309.5125 33.73125 309.1219 33.2Q308.7469 32.66875 308.59064 31.8875Q308.48126 31.371876 308.48126 30.246876L308.48126 23.825L310.23126 23.825L310.23126 29.575Q310.23126 30.95 310.34064 31.434376Q310.5125 32.121876 311.04376 32.528126Q311.59064 32.91875 312.3719 32.91875Q313.16876 32.91875 313.85626 32.5125Q314.5594 32.10625 314.84064 31.41875Q315.1375 30.715626 315.1375 29.3875L315.1375 23.825L316.8875 23.825L316.8875 34.2L315.3094 34.2ZM325.29376 32.91875Q324.3094 33.746876 323.40314 34.090626Q322.4969 34.434376 321.46564 34.434376Q319.7625 34.434376 318.84064 33.60625Q317.91876 32.7625 317.91876 31.465626Q317.91876 30.7 318.2625 30.075Q318.6219 29.45 319.1844 29.075Q319.7469 28.684376 320.45 28.48125Q320.96564 28.35625 322.0125 28.215626Q324.1375 27.965626 325.1375 27.621876Q325.15314 27.2625 325.15314 27.153126Q325.15314 26.090626 324.65314 25.6375Q323.98126 25.04375 322.65314 25.04375Q321.40314 25.04375 320.8094 25.48125Q320.23126 25.91875 319.95 27.028126L318.23126 26.79375Q318.46564 25.684376 318.9969 25.0125Q319.52814 24.325 320.54376 23.965626Q321.5594 23.590626 322.90314 23.590626Q324.23126 23.590626 325.0594 23.903126Q325.8875 24.215626 326.27814 24.7Q326.66876 25.16875 326.825 25.8875Q326.91876 26.340626 326.91876 27.5125L326.91876 29.85625Q326.91876 32.309376 327.02814 32.965626Q327.1375 33.60625 327.48126 34.2L325.6375 34.2Q325.3719 33.653126 325.29376 32.91875ZM325.1375 28.996876Q324.1844 29.3875 322.2625 29.653126Q321.1844 29.809376 320.73126 30.0125Q320.29376 30.2 320.04376 30.575Q319.79376 30.95 319.79376 31.41875Q319.79376 32.121876 320.325 32.590626Q320.85626 33.059376 321.8875 33.059376Q322.90314 33.059376 323.6844 32.621876Q324.48126 32.16875 324.85626 31.403126Q325.1375 30.79375 325.1375 29.6375L325.1375 28.996876ZM329.4969 34.2L329.4969 23.825L331.075 23.825L331.075 25.403126Q331.6844 24.29375 332.2 23.95Q332.71564 23.590626 333.325 23.590626Q334.21564 23.590626 335.1375 24.153126L334.52814 25.79375Q333.8875 25.403126 333.2469 25.403126Q332.66876 25.403126 332.2 25.7625Q331.7469 26.10625 331.54376 26.715626Q331.2625 27.653126 331.2625 28.7625L331.2625 34.2L329.4969 34.2ZM343.2469 34.2L343.2469 32.8875Q342.2625 34.434376 340.34064 34.434376Q339.10626 34.434376 338.0594 33.746876Q337.02814 33.059376 336.45 31.840626Q335.8875 30.621876 335.8875 29.028126Q335.8875 27.465626 336.40314 26.2Q336.91876 24.934376 337.95 24.2625Q338.9969 23.590626 340.2625 23.590626Q341.2 23.590626 341.9344 23.996876Q342.66876 24.3875 343.1375 25.0125L343.1375 19.8875L344.8719 19.8875L344.8719 34.2L343.2469 34.2ZM337.6844 29.028126Q337.6844 31.0125 338.52814 31.996876Q339.3719 32.98125 340.5125 32.98125Q341.66876 32.98125 342.46564 32.04375Q343.27814 31.10625 343.27814 29.16875Q343.27814 27.04375 342.45 26.04375Q341.6375 25.04375 340.4344 25.04375Q339.2625 25.04375 338.46564 26.0125Q337.6844 26.965626 337.6844 29.028126ZM346.8719 29.0125Q346.8719 26.1375 348.46564 24.746876Q349.8094 23.590626 351.73126 23.590626Q353.8719 23.590626 355.21564 24.996876Q356.575 26.403126 356.575 28.871876Q356.575 30.871876 355.98126 32.028126Q355.3875 33.16875 354.23126 33.809376Q353.09064 34.434376 351.73126 34.434376Q349.54376 34.434376 348.2 33.04375Q346.8719 31.6375 346.8719 29.0125ZM348.66876 29.0125Q348.66876 31.0125 349.52814 31.996876Q350.40314 32.98125 351.73126 32.98125Q353.04376 32.98125 353.90314 31.996876Q354.77814 30.996876 354.77814 28.95Q354.77814 27.028126 353.90314 26.04375Q353.02814 25.04375 351.73126 25.04375Q350.40314 25.04375 349.52814 26.04375Q348.66876 27.028126 348.66876 29.0125ZM364.48126 34.2L364.48126 19.8875L366.23126 19.8875L366.23126 34.2L364.48126 34.2ZM375.29376 32.91875Q374.3094 33.746876 373.40314 34.090626Q372.4969 34.434376 371.46564 34.434376Q369.7625 34.434376 368.84064 33.60625Q367.91876 32.7625 367.91876 31.465626Q367.91876 30.7 368.2625 30.075Q368.6219 29.45 369.1844 29.075Q369.7469 28.684376 370.45 28.48125Q370.96564 28.35625 372.0125 28.215626Q374.1375 27.965626 375.1375 27.621876Q375.15314 27.2625 375.15314 27.153126Q375.15314 26.090626 374.65314 25.6375Q373.98126 25.04375 372.65314 25.04375Q371.40314 25.04375 370.8094 25.48125Q370.23126 25.91875 369.95 27.028126L368.23126 26.79375Q368.46564 25.684376 368.9969 25.0125Q369.52814 24.325 370.54376 23.965626Q371.5594 23.590626 372.90314 23.590626Q374.23126 23.590626 375.0594 23.903126Q375.8875 24.215626 376.27814 24.7Q376.66876 25.16875 376.825 25.8875Q376.91876 26.340626 376.91876 27.5125L376.91876 29.85625Q376.91876 32.309376 377.02814 32.965626Q377.1375 33.60625 377.48126 34.2L375.6375 34.2Q375.3719 33.653126 375.29376 32.91875ZM375.1375 28.996876Q374.1844 29.3875 372.2625 29.653126Q371.1844 29.809376 370.73126 30.0125Q370.29376 30.2 370.04376 30.575Q369.79376 30.95 369.79376 31.41875Q369.79376 32.121876 370.325 32.590626Q370.85626 33.059376 371.8875 33.059376Q372.90314 33.059376 373.6844 32.621876Q374.48126 32.16875 374.85626 31.403126Q375.1375 30.79375 375.1375 29.6375L375.1375 28.996876ZM385.5125 38.16875L385.5125 23.825L387.1219 23.825L387.1219 25.16875Q387.6844 24.3875 388.3875 23.996876Q389.10626 23.590626 390.1219 23.590626Q391.45 23.590626 392.46564 24.278126Q393.48126 24.965626 393.9969 26.215626Q394.52814 27.45 394.52814 28.934376Q394.52814 30.528126 393.95 31.809376Q393.3875 33.075 392.29376 33.7625Q391.2 34.434376 389.9969 34.434376Q389.1219 34.434376 388.41876 34.059376Q387.73126 33.684376 387.27814 33.121876L387.27814 38.16875L385.5125 38.16875ZM387.10626 29.075Q387.10626 31.075 387.91876 32.028126Q388.73126 32.98125 389.8875 32.98125Q391.0594 32.98125 391.8875 31.996876Q392.73126 31.0125 392.73126 28.91875Q392.73126 26.95 391.90314 25.965626Q391.09064 24.965626 389.96564 24.965626Q388.84064 24.965626 387.96564 26.028126Q387.10626 27.075 387.10626 29.075ZM396.4969 34.2L396.4969 23.825L398.075 23.825L398.075 25.403126Q398.6844 24.29375 399.2 23.95Q399.71564 23.590626 400.325 23.590626Q401.21564 23.590626 402.1375 24.153126L401.52814 25.79375Q400.8875 25.403126 400.2469 25.403126Q399.66876 25.403126 399.2 25.7625Q398.7469 26.10625 398.54376 26.715626Q398.2625 27.653126 398.2625 28.7625L398.2625 34.2L396.4969 34.2ZM402.8719 29.0125Q402.8719 26.1375 404.46564 24.746876Q405.8094 23.590626 407.73126 23.590626Q409.8719 23.590626 411.21564 24.996876Q412.575 26.403126 412.575 28.871876Q412.575 30.871876 411.98126 32.028126Q411.3875 33.16875 410.23126 33.809376Q409.09064 34.434376 407.73126 34.434376Q405.54376 34.434376 404.2 33.04375Q402.8719 31.6375 402.8719 29.0125ZM404.66876 29.0125Q404.66876 31.0125 405.52814 31.996876Q406.40314 32.98125 407.73126 32.98125Q409.04376 32.98125 409.90314 31.996876Q410.77814 30.996876 410.77814 28.95Q410.77814 27.028126 409.90314 26.04375Q409.02814 25.04375 407.73126 25.04375Q406.40314 25.04375 405.52814 26.04375Q404.66876 27.028126 404.66876 29.0125ZM417.40314 34.2L413.45 23.825L415.3094 23.825L417.54376 30.04375Q417.90314 31.04375 418.2 32.121876Q418.4344 31.309376 418.85626 30.153126L421.15314 23.825L422.96564 23.825L419.04376 34.2L417.40314 34.2ZM430.29376 32.91875Q429.3094 33.746876 428.40314 34.090626Q427.4969 34.434376 426.46564 34.434376Q424.7625 34.434376 423.84064 33.60625Q422.91876 32.7625 422.91876 31.465626Q422.91876 30.7 423.2625 30.075Q423.6219 29.45 424.1844 29.075Q424.7469 28.684376 425.45 28.48125Q425.96564 28.35625 427.0125 28.215626Q429.1375 27.965626 430.1375 27.621876Q430.15314 27.2625 430.15314 27.153126Q430.15314 26.090626 429.65314 25.6375Q428.98126 25.04375 427.65314 25.04375Q426.40314 25.04375 425.8094 25.48125Q425.23126 25.91875 424.95 27.028126L423.23126 26.79375Q423.46564 25.684376 423.9969 25.0125Q424.52814 24.325 425.54376 23.965626Q426.5594 23.590626 427.90314 23.590626Q429.23126 23.590626 430.0594 23.903126Q430.8875 24.215626 431.27814 24.7Q431.66876 25.16875 431.825 25.8875Q431.91876 26.340626 431.91876 27.5125L431.91876 29.85625Q431.91876 32.309376 432.02814 32.965626Q432.1375 33.60625 432.48126 34.2L430.6375 34.2Q430.3719 33.653126 430.29376 32.91875ZM430.1375 28.996876Q429.1844 29.3875 427.2625 29.653126Q426.1844 29.809376 425.73126 30.0125Q425.29376 30.2 425.04376 30.575Q424.79376 30.95 424.79376 31.41875Q424.79376 32.121876 425.325 32.590626Q425.85626 33.059376 426.8875 33.059376Q427.90314 33.059376 428.6844 32.621876Q429.48126 32.16875 429.85626 31.403126Q430.1375 30.79375 430.1375 29.6375L430.1375 28.996876Z" fill-rule="nonzero"/></svg>