<svg version="1.1" viewBox="0.0 0.0 490.0 304.0" fill="none" stroke="none" stroke-linecap="square" stroke-miterlimit="10" width="490" height="304" xmlns:xlink="http://www.w3.org/1999/xlink" xmlns="http://www.w3.org/2000/svg"><path fill="#ffffff" d="M0 0L490.0 0L490.0 304.0L0 304.0L0 0Z" fill-rule="nonzero"/><path fill="#4285f4" d="M245.0 49.333332C264.56927 49.333332 283.63623 55.52856 299.4681 67.03109L245.0 142.0Z" fill-rule="nonzero"/><path fill="#fbbc04" d="M190.5319 67.03109C206.36378 55.52856 225.43073 49.333332 245.0 49.333332L245.0 142.0Z" fill-rule="nonzero"/><path fill="#ea4335" d="M299.4681 67.03109C331.9466 90.628105 345.53693 132.4548 333.13123 170.63557C320.72556 208.81635 285.14563 234.66667 245.0 234.66667C204.85437 234.66667 169.27444 208.81635 156.86876 170.63557C144.46307 132.4548 158.0534 90.628105 190.5319 67.03109L245.0 142.0Z" fill-rule="nonzero"/><path fill="#000000" d="M227.46875 212.21951Q226.70312 211.93826 226.32812 211.42264Q225.96875 210.90701 225.96875 210.17264Q225.96875 209.07889 226.75 208.34451Q227.54688 207.59451 228.84375 207.59451Q230.15625 207.59451 230.95312 208.36014Q231.76562 209.12576 231.76562 210.21951Q231.76562 210.90701 231.39062 211.42264Q231.03125 211.93826 230.28125 212.21951Q231.20312 212.51639 231.6875 213.18826Q232.17188 213.86014 232.17188 214.79764Q232.17188 216.07889 231.26562 216.95389Q230.35938 217.82889 228.875 217.82889Q227.39062 217.82889 226.46875 216.95389Q225.5625 216.06326 225.5625 214.75076Q225.5625 213.78201 226.0625 213.12576Q226.5625 212.45389 227.46875 212.21951ZM227.23438 210.14139Q227.23438 210.84451 227.6875 211.29764Q228.14062 211.75076 228.875 211.75076Q229.59375 211.75076 230.04688 211.31326Q230.5 210.86014 230.5 210.20389Q230.5 209.53201 230.03125 209.07889Q229.5625 208.61014 228.85938 208.61014Q228.15625 208.61014 227.6875 209.06326Q227.23438 209.50076 227.23438 210.14139ZM226.82812 214.76639Q226.82812 215.29764 227.07812 215.79764Q227.32812 216.28201 227.8125 216.54764Q228.3125 216.81326 228.89062 216.81326Q229.76562 216.81326 230.32812 216.25076Q230.90625 215.68826 230.90625 214.81326Q230.90625 213.92264 230.3125 213.34451Q229.73438 212.75076 228.84375 212.75076Q227.96875 212.75076 227.39062 213.32889Q226.82812 213.90701 226.82812 214.76639ZM233.57812 212.71951Q233.57812 210.93826 233.9375 209.86014Q234.3125 208.76639 235.03125 208.18826Q235.75 207.59451 236.84375 207.59451Q237.65625 207.59451 238.26562 207.92264Q238.875 208.25076 239.26562 208.86014Q239.67188 209.46951 239.89062 210.34451Q240.10938 211.21951 240.10938 212.71951Q240.10938 214.48514 239.75 215.56326Q239.39062 216.64139 238.67188 217.23514Q237.95312 217.82889 236.84375 217.82889Q235.40625 217.82889 234.57812 216.78201Q233.57812 215.53201 233.57812 212.71951ZM234.84375 212.71951Q234.84375 215.18826 235.42188 216.00076Q236.0 216.81326 236.84375 216.81326Q237.70312 216.81326 238.28125 216.00076Q238.85938 215.17264 238.85938 212.71951Q238.85938 210.23514 238.28125 209.42264Q237.70312 208.61014 236.82812 208.61014Q235.98438 208.61014 235.48438 209.32889Q234.84375 210.25076 234.84375 212.71951ZM242.26562 217.65701L242.26562 216.25076L243.67188 216.25076L243.67188 217.65701L242.26562 217.65701ZM245.57812 212.71951Q245.57812 210.93826 245.9375 209.86014Q246.3125 208.76639 247.03125 208.18826Q247.75 207.59451 248.84375 207.59451Q249.65625 207.59451 250.26562 207.92264Q250.875 208.25076 251.26562 208.86014Q251.67188 209.46951 251.89062 210.34451Q252.10938 211.21951 252.10938 212.71951Q252.10938 214.48514 251.75 215.56326Q251.39062 216.64139 250.67188 217.23514Q249.95312 217.82889 248.84375 217.82889Q247.40625 217.82889 246.57812 216.78201Q245.57812 215.53201 245.57812 212.71951ZM246.84375 212.71951Q246.84375 215.18826 247.42188 216.00076Q248.0 216.81326 248.84375 216.81326Q249.70312 216.81326 250.28125 216.00076Q250.85938 215.17264 250.85938 212.71951Q250.85938 210.23514 250.28125 209.42264Q249.70312 208.61014 248.82812 208.61014Q247.98438 208.61014 247.48438 209.32889Q246.84375 210.25076 246.84375 212.71951ZM253.8125 210.04764Q253.8125 208.96951 254.34375 208.21951Q254.89062 207.46951 255.92188 207.46951Q256.85938 207.46951 257.46875 208.14139Q258.09375 208.81326 258.09375 210.11014Q258.09375 211.39139 257.46875 212.07889Q256.84375 212.76639 255.9375 212.76639Q255.03125 212.76639 254.42188 212.09451Q253.8125 211.40701 253.8125 210.04764ZM255.95312 208.31326Q255.5 208.31326 255.1875 208.71951Q254.89062 209.11014 254.89062 210.15701Q254.89062 211.12576 255.1875 211.51639Q255.5 211.90701 255.95312 211.90701Q256.42188 211.90701 256.71875 211.51639Q257.03125 211.12576 257.03125 210.06326Q257.03125 209.09451 256.71875 208.70389Q256.40625 208.31326 255.95312 208.31326ZM255.95312 218.03201L261.4375 207.46951L262.4375 207.46951L256.98438 218.03201L255.95312 218.03201ZM260.29688 215.29764Q260.29688 214.21951 260.82812 213.48514Q261.375 212.73514 262.40625 212.73514Q263.34375 212.73514 263.96875 213.40701Q264.59375 214.07889 264.59375 215.37576Q264.59375 216.65701 263.96875 217.34451Q263.34375 218.03201 262.40625 218.03201Q261.5 218.03201 260.89062 217.36014Q260.29688 216.67264 260.29688 215.29764ZM262.4375 213.57889Q261.96875 213.57889 261.67188 213.98514Q261.375 214.37576 261.375 215.42264Q261.375 216.39139 261.67188 216.78201Q261.98438 217.17264 262.4375 217.17264Q262.90625 217.17264 263.20312 216.78201Q263.51562 216.39139 263.51562 215.32889Q263.51562 214.36014 263.20312 213.96951Q262.90625 213.57889 262.4375 213.57889Z" fill-rule="nonzero"/><path fill="#4285f4" d="M28.2 251.8C28.2 255.11371 25.513708 257.8 22.2 257.8C18.886292 257.8 16.2 255.11371 16.2 251.8C16.2 248.4863 18.886292 245.8 22.2 245.8C25.513708 245.8 28.2 248.4863 28.2 251.8Z" fill-rule="nonzero"/><path fill="#1a1a1a" d="M37.121876 255.8L37.121876 247.20625L38.278126 247.20625L42.79375 253.95625L42.79375 247.20625L43.8875 247.20625L43.8875 255.8L42.715626 255.8L38.2 249.05L38.2 255.8L37.121876 255.8ZM45.60625 252.69063Q45.60625 250.95625 46.559376 250.12813Q47.35625 249.44063 48.5125 249.44063Q49.79375 249.44063 50.60625 250.28438Q51.434376 251.1125 51.434376 252.59688Q51.434376 253.8 51.075 254.4875Q50.715626 255.175 50.0125 255.56563Q49.325 255.94063 48.5125 255.94063Q47.215626 255.94063 46.403126 255.1125Q45.60625 254.26875 45.60625 252.69063ZM46.684376 252.69063Q46.684376 253.87813 47.2 254.47188Q47.73125 255.06563 48.5125 255.06563Q49.309376 255.06563 49.825 254.47188Q50.340626 253.87813 50.340626 252.65938Q50.340626 251.50313 49.809376 250.90938Q49.29375 250.31563 48.5125 250.31563Q47.73125 250.31563 47.2 250.90938Q46.684376 251.4875 46.684376 252.69063ZM60.059376 253.51875L61.090626 253.65938Q60.91875 254.72188 60.215626 255.33125Q59.5125 255.94063 58.496876 255.94063Q57.215626 255.94063 56.434376 255.1125Q55.66875 254.26875 55.66875 252.70625Q55.66875 251.70625 55.996876 250.95625Q56.340626 250.19063 57.0125 249.81563Q57.7 249.44063 58.5125 249.44063Q59.5125 249.44063 60.153126 249.95625Q60.809376 250.45625 60.996876 251.40938L59.965626 251.56563Q59.825 250.94063 59.45 250.62813Q59.075 250.3 58.54375 250.3Q57.746876 250.3 57.246876 250.87813Q56.746876 251.44063 56.746876 252.675Q56.746876 253.94063 57.23125 254.50313Q57.715626 255.06563 58.48125 255.06563Q59.10625 255.06563 59.5125 254.69063Q59.934376 254.31563 60.059376 253.51875ZM61.60625 252.69063Q61.60625 250.95625 62.559376 250.12813Q63.35625 249.44063 64.5125 249.44063Q65.79375 249.44063 66.60625 250.28438Q67.43437 251.1125 67.43437 252.59688Q67.43437 253.8 67.075 254.4875Q66.71562 255.175 66.0125 255.56563Q65.325 255.94063 64.5125 255.94063Q63.215626 255.94063 62.403126 255.1125Q61.60625 254.26875 61.60625 252.69063ZM62.684376 252.69063Q62.684376 253.87813 63.2 254.47188Q63.73125 255.06563 64.5125 255.06563Q65.30937 255.06563 65.825 254.47188Q66.34062 253.87813 66.34062 252.65938Q66.34062 251.50313 65.80937 250.90938Q65.29375 250.31563 64.5125 250.31563Q63.73125 250.31563 63.2 250.90938Q62.684376 251.4875 62.684376 252.69063ZM68.99687 255.8L68.99687 249.58125L69.93437 249.58125L69.93437 250.45625Q70.23125 249.9875 70.71562 249.72188Q71.2 249.44063 71.825 249.44063Q72.5125 249.44063 72.95 249.72188Q73.40312 250.00313 73.575 250.51875Q74.325 249.44063 75.49687 249.44063Q76.43437 249.44063 76.91875 249.95625Q77.41875 250.45625 77.41875 251.53438L77.41875 255.8L76.37187 255.8L76.37187 251.87813Q76.37187 251.25313 76.2625 250.97188Q76.16875 250.69063 75.90312 250.51875Q75.6375 250.34688 75.2625 250.34688Q74.60625 250.34688 74.16875 250.78438Q73.74687 251.22188 73.74687 252.19063L73.74687 255.8L72.68437 255.8L72.68437 251.75313Q72.68437 251.05 72.41875 250.70625Q72.16875 250.34688 71.59062 250.34688Q71.1375 250.34688 70.7625 250.58125Q70.3875 250.81563 70.21562 251.26875Q70.04375 251.72188 70.04375 252.56563L70.04375 255.8L68.99687 255.8ZM79.99687 255.8L79.99687 249.58125L80.93437 249.58125L80.93437 250.45625Q81.23125 249.9875 81.71562 249.72188Q82.2 249.44063 82.825 249.44063Q83.5125 249.44063 83.95 249.72188Q84.40312 250.00313 84.575 250.51875Q85.325 249.44063 86.49687 249.44063Q87.43437 249.44063 87.91875 249.95625Q88.41875 250.45625 88.41875 251.53438L88.41875 255.8L87.37187 255.8L87.37187 251.87813Q87.37187 251.25313 87.2625 250.97188Q87.16875 250.69063 86.90312 250.51875Q86.6375 250.34688 86.2625 250.34688Q85.60625 250.34688 85.16875 250.78438Q84.74687 251.22188 84.74687 252.19063L84.74687 255.8L83.68437 255.8L83.68437 251.75313Q83.68437 251.05 83.41875 250.70625Q83.16875 250.34688 82.59062 250.34688Q82.1375 250.34688 81.7625 250.58125Q81.3875 250.81563 81.21562 251.26875Q81.04375 251.72188 81.04375 252.56563L81.04375 255.8L79.99687 255.8ZM95.24687 253.8L96.34062 253.925Q96.09062 254.87813 95.3875 255.40938Q94.68437 255.94063 93.60625 255.94063Q92.24687 255.94063 91.43437 255.09688Q90.6375 254.25313 90.6375 252.7375Q90.6375 251.175 91.45 250.31563Q92.2625 249.44063 93.54375 249.44063Q94.79375 249.44063 95.575 250.28438Q96.37187 251.12813 96.37187 252.675Q96.37187 252.76875 96.37187 252.95625L91.73125 252.95625Q91.79375 253.9875 92.30937 254.53438Q92.825 255.06563 93.60625 255.06563Q94.18437 255.06563 94.59062 254.76875Q95.0125 254.45625 95.24687 253.8ZM91.79375 252.09688L95.2625 252.09688Q95.2 251.3 94.87187 250.90938Q94.35625 250.3 93.55937 250.3Q92.825 250.3 92.325 250.78438Q91.84062 251.26875 91.79375 252.09688ZM97.99687 255.8L97.99687 249.58125L98.93437 249.58125L98.93437 250.45625Q99.62187 249.44063 100.91875 249.44063Q101.48125 249.44063 101.95 249.64375Q102.43437 249.84688 102.66875 250.175Q102.90312 250.50313 102.99687 250.94063Q103.04375 251.2375 103.04375 251.97188L103.04375 255.8L101.99687 255.8L101.99687 252.01875Q101.99687 251.3625 101.87187 251.05Q101.74687 250.7375 101.43437 250.55Q101.12187 250.34688 100.7 250.34688Q100.02812 250.34688 99.52812 250.78438Q99.04375 251.20625 99.04375 252.39375L99.04375 255.8L97.99687 255.8ZM107.29375 254.8625L107.45 255.78438Q106.99687 255.87813 106.65312 255.87813Q106.075 255.87813 105.7625 255.70625Q105.45 255.51875 105.30937 255.22188Q105.18437 254.925 105.18437 253.97188L105.18437 250.39375L104.41875 250.39375L104.41875 249.58125L105.18437 249.58125L105.18437 248.03438L106.23125 247.40938L106.23125 249.58125L107.29375 249.58125L107.29375 250.39375L106.23125 250.39375L106.23125 254.03438Q106.23125 254.4875 106.27812 254.6125Q106.34062 254.7375 106.46562 254.81563Q106.59062 254.89375 106.825 254.89375Q107.0125 254.89375 107.29375 254.8625Z" fill-rule="nonzero"/><path fill="#ea4335" d="M135.2 251.8C135.2 255.11371 132.5137 257.8 129.2 257.8C125.88629 257.8 123.2 255.11371 123.2 251.8C123.2 248.4863 125.88629 245.8 129.2 245.8C132.5137 245.8 135.2 248.4863 135.2 251.8Z" fill-rule="nonzero"/><path fill="#1a1a1a" d="M144.12187 255.8L144.12187 247.20625L145.27812 247.20625L149.79375 253.95625L149.79375 247.20625L150.8875 247.20625L150.8875 255.8L149.71562 255.8L145.2 249.05L145.2 255.8L144.12187 255.8ZM157.24687 253.8L158.34062 253.925Q158.09062 254.87813 157.3875 255.40938Q156.68437 255.94063 155.60625 255.94063Q154.24687 255.94063 153.43437 255.09688Q152.6375 254.25313 152.6375 252.7375Q152.6375 251.175 153.45 250.31563Q154.2625 249.44063 155.54375 249.44063Q156.79375 249.44063 157.575 250.28438Q158.37187 251.12813 158.37187 252.675Q158.37187 252.76875 158.37187 252.95625L153.73125 252.95625Q153.79375 253.9875 154.30937 254.53438Q154.825 255.06563 155.60625 255.06563Q156.18437 255.06563 156.59062 254.76875Q157.0125 254.45625 157.24687 253.8ZM153.79375 252.09688L157.2625 252.09688Q157.2 251.3 156.87187 250.90938Q156.35625 250.3 155.55937 250.3Q154.825 250.3 154.325 250.78438Q153.84062 251.26875 153.79375 252.09688ZM159.575 253.94063L160.60625 253.78438Q160.7 254.40938 161.09062 254.7375Q161.49687 255.06563 162.23125 255.06563Q162.95 255.06563 163.29375 254.78438Q163.65312 254.4875 163.65312 254.08125Q163.65312 253.72188 163.34062 253.51875Q163.12187 253.37813 162.2625 253.15938Q161.10625 252.8625 160.65312 252.65938Q160.21562 252.44063 159.98125 252.06563Q159.74687 251.69063 159.74687 251.22188Q159.74687 250.81563 159.93437 250.45625Q160.12187 250.09688 160.45 249.8625Q160.7 249.69063 161.12187 249.56563Q161.54375 249.44063 162.04375 249.44063Q162.7625 249.44063 163.30937 249.65938Q163.87187 249.8625 164.1375 250.22188Q164.40312 250.58125 164.49687 251.175L163.46562 251.31563Q163.40312 250.84688 163.05937 250.58125Q162.73125 250.3 162.10625 250.3Q161.3875 250.3 161.075 250.55Q160.7625 250.78438 160.7625 251.1125Q160.7625 251.31563 160.8875 251.47188Q161.02812 251.64375 161.29375 251.75313Q161.45 251.81563 162.23125 252.01875Q163.35625 252.33125 163.79375 252.51875Q164.23125 252.70625 164.48125 253.06563Q164.73125 253.425 164.73125 253.97188Q164.73125 254.50313 164.41875 254.97188Q164.12187 255.425 163.54375 255.69063Q162.96562 255.94063 162.23125 255.94063Q161.0125 255.94063 160.37187 255.44063Q159.74687 254.925 159.575 253.94063ZM166.575 253.94063L167.60625 253.78438Q167.7 254.40938 168.09062 254.7375Q168.49687 255.06563 169.23125 255.06563Q169.95 255.06563 170.29375 254.78438Q170.65312 254.4875 170.65312 254.08125Q170.65312 253.72188 170.34062 253.51875Q170.12187 253.37813 169.2625 253.15938Q168.10625 252.8625 167.65312 252.65938Q167.21562 252.44063 166.98125 252.06563Q166.74687 251.69063 166.74687 251.22188Q166.74687 250.81563 166.93437 250.45625Q167.12187 250.09688 167.45 249.8625Q167.7 249.69063 168.12187 249.56563Q168.54375 249.44063 169.04375 249.44063Q169.7625 249.44063 170.30937 249.65938Q170.87187 249.8625 171.1375 250.22188Q171.40312 250.58125 171.49687 251.175L170.46562 251.31563Q170.40312 250.84688 170.05937 250.58125Q169.73125 250.3 169.10625 250.3Q168.3875 250.3 168.075 250.55Q167.7625 250.78438 167.7625 251.1125Q167.7625 251.31563 167.8875 251.47188Q168.02812 251.64375 168.29375 251.75313Q168.45 251.81563 169.23125 252.01875Q170.35625 252.33125 170.79375 252.51875Q171.23125 252.70625 171.48125 253.06563Q171.73125 253.425 171.73125 253.97188Q171.73125 254.50313 171.41875 254.97188Q171.12187 255.425 170.54375 255.69063Q169.96562 255.94063 169.23125 255.94063Q168.0125 255.94063 167.37187 255.44063Q166.74687 254.925 166.575 253.94063ZM178.075 255.8L178.075 254.87813Q177.34062 255.94063 176.09062 255.94063Q175.54375 255.94063 175.05937 255.7375Q174.59062 255.51875 174.35625 255.20625Q174.12187 254.87813 174.02812 254.40938Q173.96562 254.1125 173.96562 253.425L173.96562 249.58125L175.02812 249.58125L175.02812 253.03438Q175.02812 253.84688 175.09062 254.14375Q175.18437 254.55 175.49687 254.8Q175.825 255.03438 176.30937 255.03438Q176.77812 255.03438 177.18437 254.8Q177.60625 254.55 177.77812 254.12813Q177.96562 253.70625 177.96562 252.90938L177.96562 249.58125L179.0125 249.58125L179.0125 255.8L178.075 255.8ZM180.99687 255.8L180.99687 249.58125L181.93437 249.58125L181.93437 250.45625Q182.62187 249.44063 183.91875 249.44063Q184.48125 249.44063 184.95 249.64375Q185.43437 249.84688 185.66875 250.175Q185.90312 250.50313 185.99687 250.94063Q186.04375 251.2375 186.04375 251.97188L186.04375 255.8L184.99687 255.8L184.99687 252.01875Q184.99687 251.3625 184.87187 251.05Q184.74687 250.7375 184.43437 250.55Q184.12187 250.34688 183.7 250.34688Q183.02812 250.34688 182.52812 250.78438Q182.04375 251.20625 182.04375 252.39375L182.04375 255.8L180.99687 255.8ZM192.05937 255.03438Q191.46562 255.53438 190.91875 255.7375Q190.3875 255.94063 189.7625 255.94063Q188.73125 255.94063 188.18437 255.44063Q187.6375 254.94063 187.6375 254.15938Q187.6375 253.70625 187.84062 253.33125Q188.04375 252.94063 188.3875 252.72188Q188.73125 252.4875 189.15312 252.37813Q189.45 252.28438 190.09062 252.20625Q191.35625 252.06563 191.96562 251.84688Q191.96562 251.62813 191.96562 251.58125Q191.96562 250.925 191.66875 250.65938Q191.2625 250.31563 190.46562 250.31563Q189.73125 250.31563 189.37187 250.58125Q189.0125 250.83125 188.84062 251.4875L187.80937 251.34688Q187.95 250.69063 188.27812 250.28438Q188.60625 249.87813 189.21562 249.65938Q189.825 249.44063 190.62187 249.44063Q191.41875 249.44063 191.91875 249.62813Q192.41875 249.81563 192.65312 250.09688Q192.8875 250.37813 192.98125 250.81563Q193.02812 251.08125 193.02812 251.78438L193.02812 253.19063Q193.02812 254.65938 193.09062 255.05Q193.16875 255.44063 193.37187 255.8L192.2625 255.8Q192.10625 255.47188 192.05937 255.03438ZM191.96562 252.675Q191.3875 252.90938 190.24687 253.08125Q189.59062 253.175 189.325 253.3Q189.05937 253.40938 188.90312 253.62813Q188.7625 253.84688 188.7625 254.12813Q188.7625 254.55 189.075 254.83125Q189.40312 255.1125 190.0125 255.1125Q190.62187 255.1125 191.09062 254.84688Q191.575 254.58125 191.79375 254.1125Q191.96562 253.75313 191.96562 253.06563L191.96562 252.675ZM202.05937 253.51875L203.09062 253.65938Q202.91875 254.72188 202.21562 255.33125Q201.5125 255.94063 200.49687 255.94063Q199.21562 255.94063 198.43437 255.1125Q197.66875 254.26875 197.66875 252.70625Q197.66875 251.70625 197.99687 250.95625Q198.34062 250.19063 199.0125 249.81563Q199.7 249.44063 200.5125 249.44063Q201.5125 249.44063 202.15312 249.95625Q202.80937 250.45625 202.99687 251.40938L201.96562 251.56563Q201.825 250.94063 201.45 250.62813Q201.075 250.3 200.54375 250.3Q199.74687 250.3 199.24687 250.87813Q198.74687 251.44063 198.74687 252.675Q198.74687 253.94063 199.23125 254.50313Q199.71562 255.06563 200.48125 255.06563Q201.10625 255.06563 201.5125 254.69063Q201.93437 254.31563 202.05937 253.51875ZM203.98125 255.8L203.98125 249.58125L204.93437 249.58125L204.93437 250.51875Q205.29375 249.8625 205.59062 249.65938Q205.90312 249.44063 206.27812 249.44063Q206.80937 249.44063 207.35625 249.76875L206.99687 250.75313Q206.60625 250.51875 206.23125 250.51875Q205.87187 250.51875 205.59062 250.7375Q205.325 250.94063 205.21562 251.31563Q205.02812 251.87813 205.02812 252.53438L205.02812 255.8L203.98125 255.8ZM207.99687 248.425L207.99687 247.20625L209.05937 247.20625L209.05937 248.425L207.99687 248.425ZM207.99687 255.8L207.99687 249.58125L209.05937 249.58125L209.05937 255.8L207.99687 255.8ZM213.29375 254.8625L213.45 255.78438Q212.99687 255.87813 212.65312 255.87813Q212.075 255.87813 211.7625 255.70625Q211.45 255.51875 211.30937 255.22188Q211.18437 254.925 211.18437 253.97188L211.18437 250.39375L210.41875 250.39375L210.41875 249.58125L211.18437 249.58125L211.18437 248.03438L212.23125 247.40938L212.23125 249.58125L213.29375 249.58125L213.29375 250.39375L212.23125 250.39375L212.23125 254.03438Q212.23125 254.4875 212.27812 254.6125Q212.34062 254.7375 212.46562 254.81563Q212.59062 254.89375 212.825 254.89375Q213.0125 254.89375 213.29375 254.8625ZM213.99687 248.425L213.99687 247.20625L215.05937 247.20625L215.05937 248.425L213.99687 248.425ZM213.99687 255.8L213.99687 249.58125L215.05937 249.58125L215.05937 255.8L213.99687 255.8ZM221.05937 253.51875L222.09062 253.65938Q221.91875 254.72188 221.21562 255.33125Q220.5125 255.94063 219.49687 255.94063Q218.21562 255.94063 217.43437 255.1125Q216.66875 254.26875 216.66875 252.70625Q216.66875 251.70625 216.99687 250.95625Q217.34062 250.19063 218.0125 249.81563Q218.7 249.44063 219.5125 249.44063Q220.5125 249.44063 221.15312 249.95625Q221.80937 250.45625 221.99687 251.40938L220.96562 251.56563Q220.825 250.94063 220.45 250.62813Q220.075 250.3 219.54375 250.3Q218.74687 250.3 218.24687 250.87813Q217.74687 251.44063 217.74687 252.675Q217.74687 253.94063 218.23125 254.50313Q218.71562 255.06563 219.48125 255.06563Q220.10625 255.06563 220.5125 254.69063Q220.93437 254.31563 221.05937 253.51875ZM222.99687 248.425L222.99687 247.20625L224.05937 247.20625L224.05937 248.425L222.99687 248.425ZM222.99687 255.8L222.99687 249.58125L224.05937 249.58125L224.05937 255.8L222.99687 255.8ZM228.29375 254.8625L228.45 255.78438Q227.99687 255.87813 227.65312 255.87813Q227.075 255.87813 226.7625 255.70625Q226.45 255.51875 226.30937 255.22188Q226.18437 254.925 226.18437 253.97188L226.18437 250.39375L225.41875 250.39375L225.41875 249.58125L226.18437 249.58125L226.18437 248.03438L227.23125 247.40938L227.23125 249.58125L228.29375 249.58125L228.29375 250.39375L227.23125 250.39375L227.23125 254.03438Q227.23125 254.4875 227.27812 254.6125Q227.34062 254.7375 227.46562 254.81563Q227.59062 254.89375 227.825 254.89375Q228.0125 254.89375 228.29375 254.8625ZM233.05937 255.03438Q232.46562 255.53438 231.91875 255.7375Q231.3875 255.94063 230.7625 255.94063Q229.73125 255.94063 229.18437 255.44063Q228.6375 254.94063 228.6375 254.15938Q228.6375 253.70625 228.84062 253.33125Q229.04375 252.94063 229.3875 252.72188Q229.73125 252.4875 230.15312 252.37813Q230.45 252.28438 231.09062 252.20625Q232.35625 252.06563 232.96562 251.84688Q232.96562 251.62813 232.96562 251.58125Q232.96562 250.925 232.66875 250.65938Q232.2625 250.31563 231.46562 250.31563Q230.73125 250.31563 230.37187 250.58125Q230.0125 250.83125 229.84062 251.4875L228.80937 251.34688Q228.95 250.69063 229.27812 250.28438Q229.60625 249.87813 230.21562 249.65938Q230.825 249.44063 231.62187 249.44063Q232.41875 249.44063 232.91875 249.62813Q233.41875 249.81563 233.65312 250.09688Q233.8875 250.37813 233.98125 250.81563Q234.02812 251.08125 234.02812 251.78438L234.02812 253.19063Q234.02812 254.65938 234.09062 255.05Q234.16875 255.44063 234.37187 255.8L233.2625 255.8Q233.10625 255.47188 233.05937 255.03438ZM232.96562 252.675Q232.3875 252.90938 231.24687 253.08125Q230.59062 253.175 230.325 253.3Q230.05937 253.40938 229.90312 253.62813Q229.7625 253.84688 229.7625 254.12813Q229.7625 254.55 230.075 254.83125Q230.40312 255.1125 231.0125 255.1125Q231.62187 255.1125 232.09062 254.84688Q232.575 254.58125 232.79375 254.1125Q232.96562 253.75313 232.96562 253.06563L232.96562 252.675ZM232.3875 248.8L231.54375 248.8L230.18437 247.15938L231.60625 247.15938L232.3875 248.8Z" fill-rule="nonzero"/><path fill="#fbbc04" d="M263.2 251.8C263.2 255.11371 260.5137 257.8 257.2 257.8C253.88629 257.8 251.2 255.11371 251.2 251.8C251.2 248.4863 253.88629 245.8 257.2 245.8C260.5137 245.8 263.2 248.4863 263.2 251.8Z" fill-rule="nonzero"/><path fill="#1a1a1a" d="M272.1219 255.8L272.1219 247.20625L275.3719 247.20625Q276.21564 247.20625 276.66876 247.28438Q277.3094 247.39375 277.73126 247.69063Q278.16876 247.9875 278.41876 248.51875Q278.6844 249.05 278.6844 249.69063Q278.6844 250.78438 277.98126 251.55Q277.29376 252.3 275.46564 252.3L273.2625 252.3L273.2625 255.8L272.1219 255.8ZM273.2625 251.3L275.48126 251.3Q276.59064 251.3 277.04376 250.89375Q277.5125 250.47188 277.5125 249.72188Q277.5125 249.19063 277.23126 248.81563Q276.96564 248.425 276.52814 248.3Q276.23126 248.22188 275.46564 248.22188L273.2625 248.22188L273.2625 251.3ZM279.9969 248.425L279.9969 247.20625L281.0594 247.20625L281.0594 248.425L279.9969 248.425ZM279.9969 255.8L279.9969 249.58125L281.0594 249.58125L281.0594 255.8L279.9969 255.8ZM287.075 255.8L287.075 254.87813Q286.34064 255.94063 285.09064 255.94063Q284.54376 255.94063 284.0594 255.7375Q283.59064 255.51875 283.35626 255.20625Q283.1219 254.87813 283.02814 254.40938Q282.96564 254.1125 282.96564 253.425L282.96564 249.58125L284.02814 249.58125L284.02814 253.03438Q284.02814 253.84688 284.09064 254.14375Q284.1844 254.55 284.4969 254.8Q284.825 255.03438 285.3094 255.03438Q285.77814 255.03438 286.1844 254.8Q286.60626 254.55 286.77814 254.12813Q286.96564 253.70625 286.96564 252.90938L286.96564 249.58125L288.0125 249.58125L288.0125 255.8L287.075 255.8ZM286.46564 248.8L285.6219 248.8L284.2625 247.15938L285.6844 247.15938L286.46564 248.8ZM297.0594 255.03438Q296.46564 255.53438 295.91876 255.7375Q295.3875 255.94063 294.7625 255.94063Q293.73126 255.94063 293.1844 255.44063Q292.6375 254.94063 292.6375 254.15938Q292.6375 253.70625 292.84064 253.33125Q293.04376 252.94063 293.3875 252.72188Q293.73126 252.4875 294.15314 252.37813Q294.45 252.28438 295.09064 252.20625Q296.35626 252.06563 296.96564 251.84688Q296.96564 251.62813 296.96564 251.58125Q296.96564 250.925 296.66876 250.65938Q296.2625 250.31563 295.46564 250.31563Q294.73126 250.31563 294.3719 250.58125Q294.0125 250.83125 293.84064 251.4875L292.8094 251.34688Q292.95 250.69063 293.27814 250.28438Q293.60626 249.87813 294.21564 249.65938Q294.825 249.44063 295.6219 249.44063Q296.41876 249.44063 296.91876 249.62813Q297.41876 249.81563 297.65314 250.09688Q297.8875 250.37813 297.98126 250.81563Q298.02814 251.08125 298.02814 251.78438L298.02814 253.19063Q298.02814 254.65938 298.09064 255.05Q298.16876 255.44063 298.3719 255.8L297.2625 255.8Q297.10626 255.47188 297.0594 255.03438ZM296.96564 252.675Q296.3875 252.90938 295.2469 253.08125Q294.59064 253.175 294.325 253.3Q294.0594 253.40938 293.90314 253.62813Q293.7625 253.84688 293.7625 254.12813Q293.7625 254.55 294.075 254.83125Q294.40314 255.1125 295.0125 255.1125Q295.6219 255.1125 296.09064 254.84688Q296.575 254.58125 296.79376 254.1125Q296.96564 253.75313 296.96564 253.06563L296.96564 252.675ZM299.9969 258.1906L299.9969 249.58125L300.95 249.58125L300.95 250.37813Q301.29376 249.90938 301.71564 249.675Q302.15314 249.44063 302.7625 249.44063Q303.5594 249.44063 304.16876 249.84688Q304.77814 250.25313 305.075 251.00313Q305.3875 251.75313 305.3875 252.64375Q305.3875 253.59688 305.04376 254.3625Q304.71564 255.12813 304.0594 255.53438Q303.40314 255.94063 302.6844 255.94063Q302.15314 255.94063 301.73126 255.72188Q301.3094 255.4875 301.04376 255.15938L301.04376 258.1906L299.9969 258.1906ZM300.95 252.72188Q300.95 253.925 301.4344 254.50313Q301.91876 255.06563 302.60626 255.06563Q303.3094 255.06563 303.8094 254.47188Q304.3094 253.87813 304.3094 252.62813Q304.3094 251.44063 303.825 250.8625Q303.34064 250.26875 302.65314 250.26875Q301.98126 250.26875 301.46564 250.89375Q300.95 251.51875 300.95 252.72188ZM306.9969 258.1906L306.9969 249.58125L307.95 249.58125L307.95 250.37813Q308.29376 249.90938 308.71564 249.675Q309.15314 249.44063 309.7625 249.44063Q310.5594 249.44063 311.16876 249.84688Q311.77814 250.25313 312.075 251.00313Q312.3875 251.75313 312.3875 252.64375Q312.3875 253.59688 312.04376 254.3625Q311.71564 255.12813 311.0594 255.53438Q310.40314 255.94063 309.6844 255.94063Q309.15314 255.94063 308.73126 255.72188Q308.3094 255.4875 308.04376 255.15938L308.04376 258.1906L306.9969 258.1906ZM307.95 252.72188Q307.95 253.925 308.4344 254.50313Q308.91876 255.06563 309.60626 255.06563Q310.3094 255.06563 310.8094 254.47188Q311.3094 253.87813 311.3094 252.62813Q311.3094 251.44063 310.825 250.8625Q310.34064 250.26875 309.65314 250.26875Q308.98126 250.26875 308.46564 250.89375Q307.95 251.51875 307.95 252.72188ZM313.98126 255.8L313.98126 249.58125L314.9344 249.58125L314.9344 250.51875Q315.29376 249.8625 315.59064 249.65938Q315.90314 249.44063 316.27814 249.44063Q316.8094 249.44063 317.35626 249.76875L316.9969 250.75313Q316.60626 250.51875 316.23126 250.51875Q315.8719 250.51875 315.59064 250.7375Q315.325 250.94063 315.21564 251.31563Q315.02814 251.87813 315.02814 252.53438L315.02814 255.8L313.98126 255.8ZM317.60626 252.69063Q317.60626 250.95625 318.5594 250.12813Q319.35626 249.44063 320.5125 249.44063Q321.79376 249.44063 322.60626 250.28438Q323.4344 251.1125 323.4344 252.59688Q323.4344 253.8 323.075 254.4875Q322.71564 255.175 322.0125 255.56563Q321.325 255.94063 320.5125 255.94063Q319.21564 255.94063 318.40314 255.1125Q317.60626 254.26875 317.60626 252.69063ZM318.6844 252.69063Q318.6844 253.87813 319.2 254.47188Q319.73126 255.06563 320.5125 255.06563Q321.3094 255.06563 321.825 254.47188Q322.34064 253.87813 322.34064 252.65938Q322.34064 251.50313 321.8094 250.90938Q321.29376 250.31563 320.5125 250.31563Q319.73126 250.31563 319.2 250.90938Q318.6844 251.4875 318.6844 252.69063ZM325.2469 255.8L325.2469 250.39375L324.3094 250.39375L324.3094 249.58125L325.2469 249.58125L325.2469 248.90938Q325.2469 248.28438 325.35626 247.9875Q325.5125 247.56563 325.8875 247.31563Q326.27814 247.06563 326.96564 247.06563Q327.41876 247.06563 327.95 247.175L327.79376 248.08125Q327.46564 248.03438 327.16876 248.03438Q326.6844 248.03438 326.48126 248.2375Q326.29376 248.44063 326.29376 249.00313L326.29376 249.58125L327.5125 249.58125L327.5125 250.39375L326.29376 250.39375L326.29376 255.8L325.2469 255.8ZM327.60626 252.69063Q327.60626 250.95625 328.5594 250.12813Q329.35626 249.44063 330.5125 249.44063Q331.79376 249.44063 332.60626 250.28438Q333.4344 251.1125 333.4344 252.59688Q333.4344 253.8 333.075 254.4875Q332.71564 255.175 332.0125 255.56563Q331.325 255.94063 330.5125 255.94063Q329.21564 255.94063 328.40314 255.1125Q327.60626 254.26875 327.60626 252.69063ZM328.6844 252.69063Q328.6844 253.87813 329.2 254.47188Q329.73126 255.06563 330.5125 255.06563Q331.3094 255.06563 331.825 254.47188Q332.34064 253.87813 332.34064 252.65938Q332.34064 251.50313 331.8094 250.90938Q331.29376 250.31563 330.5125 250.31563Q329.73126 250.31563 329.2 250.90938Q328.6844 251.4875 328.6844 252.69063ZM334.9969 255.8L334.9969 249.58125L335.9344 249.58125L335.9344 250.45625Q336.6219 249.44063 337.91876 249.44063Q338.48126 249.44063 338.95 249.64375Q339.4344 249.84688 339.66876 250.175Q339.90314 250.50313 339.9969 250.94063Q340.04376 251.2375 340.04376 251.97188L340.04376 255.8L338.9969 255.8L338.9969 252.01875Q338.9969 251.3625 338.8719 251.05Q338.7469 250.7375 338.4344 250.55Q338.1219 250.34688 337.7 250.34688Q337.02814 250.34688 336.52814 250.78438Q336.04376 251.20625 336.04376 252.39375L336.04376 255.8L334.9969 255.8ZM346.02814 255.8L346.02814 255.01875Q345.4344 255.94063 344.29376 255.94063Q343.54376 255.94063 342.91876 255.53438Q342.29376 255.1125 341.95 254.37813Q341.60626 253.64375 341.60626 252.69063Q341.60626 251.76875 341.91876 251.00313Q342.23126 250.2375 342.85626 249.84688Q343.48126 249.44063 344.2469 249.44063Q344.8094 249.44063 345.2469 249.675Q345.6844 249.90938 345.96564 250.28438L345.96564 247.20625L347.0125 247.20625L347.0125 255.8L346.02814 255.8ZM342.7 252.69063Q342.7 253.89375 343.2 254.4875Q343.7 255.06563 344.3875 255.06563Q345.075 255.06563 345.5594 254.50313Q346.04376 253.94063 346.04376 252.78438Q346.04376 251.50313 345.54376 250.90938Q345.0594 250.31563 344.34064 250.31563Q343.6375 250.31563 343.16876 250.89375Q342.7 251.45625 342.7 252.69063ZM348.9969 248.425L348.9969 247.20625L350.0594 247.20625L350.0594 248.425L348.9969 248.425ZM348.9969 255.8L348.9969 249.58125L350.0594 249.58125L350.0594 255.8L348.9969 255.8ZM351.9969 255.8L351.9969 249.58125L352.9344 249.58125L352.9344 250.45625Q353.23126 249.9875 353.71564 249.72188Q354.2 249.44063 354.825 249.44063Q355.5125 249.44063 355.95 249.72188Q356.40314 250.00313 356.575 250.51875Q357.325 249.44063 358.4969 249.44063Q359.4344 249.44063 359.91876 249.95625Q360.41876 250.45625 360.41876 251.53438L360.41876 255.8L359.3719 255.8L359.3719 251.87813Q359.3719 251.25313 359.2625 250.97188Q359.16876 250.69063 358.90314 250.51875Q358.6375 250.34688 358.2625 250.34688Q357.60626 250.34688 357.16876 250.78438Q356.7469 251.22188 356.7469 252.19063L356.7469 255.8L355.6844 255.8L355.6844 251.75313Q355.6844 251.05 355.41876 250.70625Q355.16876 250.34688 354.59064 250.34688Q354.1375 250.34688 353.7625 250.58125Q353.3875 250.81563 353.21564 251.26875Q353.04376 251.72188 353.04376 252.56563L353.04376 255.8L351.9969 255.8ZM367.2469 253.8L368.34064 253.925Q368.09064 254.87813 367.3875 255.40938Q366.6844 255.94063 365.60626 255.94063Q364.2469 255.94063 363.4344 255.09688Q362.6375 254.25313 362.6375 252.7375Q362.6375 251.175 363.45 250.31563Q364.2625 249.44063 365.54376 249.44063Q366.79376 249.44063 367.575 250.28438Q368.3719 251.12813 368.3719 252.675Q368.3719 252.76875 368.3719 252.95625L363.73126 252.95625Q363.79376 253.9875 364.3094 254.53438Q364.825 255.06563 365.60626 255.06563Q366.1844 255.06563 366.59064 254.76875Q367.0125 254.45625 367.2469 253.8ZM363.79376 252.09688L367.2625 252.09688Q367.2 251.3 366.8719 250.90938Q366.35626 250.3 365.5594 250.3Q364.825 250.3 364.325 250.78438Q363.84064 251.26875 363.79376 252.09688ZM369.9969 255.8L369.9969 249.58125L370.9344 249.58125L370.9344 250.45625Q371.6219 249.44063 372.91876 249.44063Q373.48126 249.44063 373.95 249.64375Q374.4344 249.84688 374.66876 250.175Q374.90314 250.50313 374.9969 250.94063Q375.04376 251.2375 375.04376 251.97188L375.04376 255.8L373.9969 255.8L373.9969 252.01875Q373.9969 251.3625 373.8719 251.05Q373.7469 250.7375 373.4344 250.55Q373.1219 250.34688 372.7 250.34688Q372.02814 250.34688 371.52814 250.78438Q371.04376 251.20625 371.04376 252.39375L371.04376 255.8L369.9969 255.8ZM379.29376 254.8625L379.45 255.78438Q378.9969 255.87813 378.65314 255.87813Q378.075 255.87813 377.7625 255.70625Q377.45 255.51875 377.3094 255.22188Q377.1844 254.925 377.1844 253.97188L377.1844 250.39375L376.41876 250.39375L376.41876 249.58125L377.1844 249.58125L377.1844 248.03438L378.23126 247.40938L378.23126 249.58125L379.29376 249.58125L379.29376 250.39375L378.23126 250.39375L378.23126 254.03438Q378.23126 254.4875 378.27814 254.6125Q378.34064 254.7375 378.46564 254.81563Q378.59064 254.89375 378.825 254.89375Q379.0125 254.89375 379.29376 254.8625ZM379.9969 248.425L379.9969 247.20625L381.0594 247.20625L381.0594 248.425L379.9969 248.425ZM379.9969 255.8L379.9969 249.58125L381.0594 249.58125L381.0594 255.8L379.9969 255.8ZM382.2 255.94063L384.6844 247.06563L385.52814 247.06563L383.04376 255.94063L382.2 255.94063ZM390.2469 253.8L391.34064 253.925Q391.09064 254.87813 390.3875 255.40938Q389.6844 255.94063 388.60626 255.94063Q387.2469 255.94063 386.4344 255.09688Q385.6375 254.25313 385.6375 252.7375Q385.6375 251.175 386.45 250.31563Q387.2625 249.44063 388.54376 249.44063Q389.79376 249.44063 390.575 250.28438Q391.3719 251.12813 391.3719 252.675Q391.3719 252.76875 391.3719 252.95625L386.73126 252.95625Q386.79376 253.9875 387.3094 254.53438Q387.825 255.06563 388.60626 255.06563Q389.1844 255.06563 389.59064 254.76875Q390.0125 254.45625 390.2469 253.8ZM386.79376 252.09688L390.2625 252.09688Q390.2 251.3 389.8719 250.90938Q389.35626 250.3 388.5594 250.3Q387.825 250.3 387.325 250.78438Q386.84064 251.26875 386.79376 252.09688ZM392.575 253.94063L393.60626 253.78438Q393.7 254.40938 394.09064 254.7375Q394.4969 255.06563 395.23126 255.06563Q395.95 255.06563 396.29376 254.78438Q396.65314 254.4875 396.65314 254.08125Q396.65314 253.72188 396.34064 253.51875Q396.1219 253.37813 395.2625 253.15938Q394.10626 252.8625 393.65314 252.65938Q393.21564 252.44063 392.98126 252.06563Q392.7469 251.69063 392.7469 251.22188Q392.7469 250.81563 392.9344 250.45625Q393.1219 250.09688 393.45 249.8625Q393.7 249.69063 394.1219 249.56563Q394.54376 249.44063 395.04376 249.44063Q395.7625 249.44063 396.3094 249.65938Q396.8719 249.8625 397.1375 250.22188Q397.40314 250.58125 397.4969 251.175L396.46564 251.31563Q396.40314 250.84688 396.0594 250.58125Q395.73126 250.3 395.10626 250.3Q394.3875 250.3 394.075 250.55Q393.7625 250.78438 393.7625 251.1125Q393.7625 251.31563 393.8875 251.47188Q394.02814 251.64375 394.29376 251.75313Q394.45 251.81563 395.23126 252.01875Q396.35626 252.33125 396.79376 252.51875Q397.23126 252.70625 397.48126 253.06563Q397.73126 253.425 397.73126 253.97188Q397.73126 254.50313 397.41876 254.97188Q397.1219 255.425 396.54376 255.69063Q395.96564 255.94063 395.23126 255.94063Q394.0125 255.94063 393.3719 255.44063Q392.7469 254.925 392.575 253.94063ZM404.2469 253.8L405.34064 253.925Q405.09064 254.87813 404.3875 255.40938Q403.6844 255.94063 402.60626 255.94063Q401.2469 255.94063 400.4344 255.09688Q399.6375 254.25313 399.6375 252.7375Q399.6375 251.175 400.45 250.31563Q401.2625 249.44063 402.54376 249.44063Q403.79376 249.44063 404.575 250.28438Q405.3719 251.12813 405.3719 252.675Q405.3719 252.76875 405.3719 252.95625L400.73126 252.95625Q400.79376 253.9875 401.3094 254.53438Q401.825 255.06563 402.60626 255.06563Q403.1844 255.06563 403.59064 254.76875Q404.0125 254.45625 404.2469 253.8ZM400.79376 252.09688L404.2625 252.09688Q404.2 251.3 403.8719 250.90938Q403.35626 250.3 402.5594 250.3Q401.825 250.3 401.325 250.78438Q400.84064 251.26875 400.79376 252.09688ZM406.98126 255.8L406.98126 249.58125L407.9344 249.58125L407.9344 250.51875Q408.29376 249.8625 408.59064 249.65938Q408.90314 249.44063 409.27814 249.44063Q409.8094 249.44063 410.35626 249.76875L409.9969 250.75313Q409.60626 250.51875 409.23126 250.51875Q408.8719 250.51875 408.59064 250.7375Q408.325 250.94063 408.21564 251.31563Q408.02814 251.87813 408.02814 252.53438L408.02814 255.8L406.98126 255.8ZM415.0594 253.51875L416.09064 253.65938Q415.91876 254.72188 415.21564 255.33125Q414.5125 255.94063 413.4969 255.94063Q412.21564 255.94063 411.4344 255.1125Q410.66876 254.26875 410.66876 252.70625Q410.66876 251.70625 410.9969 250.95625Q411.34064 250.19063 412.0125 249.81563Q412.7 249.44063 413.5125 249.44063Q414.5125 249.44063 415.15314 249.95625Q415.8094 250.45625 415.9969 251.40938L414.96564 251.56563Q414.825 250.94063 414.45 250.62813Q414.075 250.3 413.54376 250.3Q412.7469 250.3 412.2469 250.87813Q411.7469 251.44063 411.7469 252.675Q411.7469 253.94063 412.23126 254.50313Q412.71564 255.06563 413.48126 255.06563Q414.10626 255.06563 414.5125 254.69063Q414.9344 254.31563 415.0594 253.51875ZM416.9969 248.425L416.9969 247.20625L418.0594 247.20625L418.0594 248.425L416.9969 248.425ZM416.9969 255.8L416.9969 249.58125L418.0594 249.58125L418.0594 255.8L416.9969 255.8ZM419.4344 255.8L419.4344 254.94063L423.40314 250.39375Q422.71564 250.425 422.2 250.425L419.66876 250.425L419.66876 249.58125L424.7625 249.58125L424.7625 250.26875L421.3875 254.22188L420.73126 254.94063Q421.45 254.89375 422.0594 254.89375L424.95 254.89375L424.95 255.8L419.4344 255.8ZM424.9969 248.425L424.9969 247.20625L426.0594 247.20625L426.0594 248.425L424.9969 248.425ZM424.9969 255.8L424.9969 249.58125L426.0594 249.58125L426.0594 255.8L424.9969 255.8Z" fill-rule="nonzero"/><path fill="#757575" d="M27.590626 32.66875Q28.91875 33.575 30.028126 33.996876L29.465626 35.309376Q27.91875 34.7625 26.3875 33.559376Q24.79375 34.45 22.871876 34.45Q20.934376 34.45 19.340626 33.5125Q17.7625 32.575 16.903126 30.871876Q16.059376 29.16875 16.059376 27.04375Q16.059376 24.91875 16.91875 23.184376Q17.778126 21.45 19.35625 20.54375Q20.95 19.621876 22.91875 19.621876Q24.903126 19.621876 26.48125 20.575Q28.075 21.5125 28.903126 23.215626Q29.746876 24.903126 29.746876 27.028126Q29.746876 28.79375 29.215626 30.215626Q28.684376 31.621876 27.590626 32.66875ZM23.41875 30.246876Q25.059376 30.7 26.121876 31.60625Q27.79375 30.090626 27.79375 27.028126Q27.79375 25.29375 27.2 23.996876Q26.621876 22.7 25.48125 21.98125Q24.340626 21.2625 22.91875 21.2625Q20.809376 21.2625 19.403126 22.715626Q18.0125 24.153126 18.0125 27.04375Q18.0125 29.840626 19.3875 31.340626Q20.778126 32.825 22.91875 32.825Q23.934376 32.825 24.840626 32.434376Q23.95 31.871876 22.965626 31.621876L23.41875 30.246876ZM39.309376 34.2L39.309376 32.66875Q38.10625 34.434376 36.028126 34.434376Q35.10625 34.434376 34.309376 34.090626Q33.5125 33.73125 33.121876 33.2Q32.746876 32.66875 32.590626 31.8875Q32.48125 31.371876 32.48125 30.246876L32.48125 23.825L34.23125 23.825L34.23125 29.575Q34.23125 30.95 34.340626 31.434376Q34.5125 32.121876 35.04375 32.528126Q35.590626 32.91875 36.371876 32.91875Q37.16875 32.91875 37.85625 32.5125Q38.559376 32.10625 38.840626 31.41875Q39.1375 30.715626 39.1375 29.3875L39.1375 23.825L40.8875 23.825L40.8875 34.2L39.309376 34.2ZM49.29375 32.91875Q48.309376 33.746876 47.403126 34.090626Q46.496876 34.434376 45.465626 34.434376Q43.7625 34.434376 42.840626 33.60625Q41.91875 32.7625 41.91875 31.465626Q41.91875 30.7 42.2625 30.075Q42.621876 29.45 43.184376 29.075Q43.746876 28.684376 44.45 28.48125Q44.965626 28.35625 46.0125 28.215626Q48.1375 27.965626 49.1375 27.621876Q49.153126 27.2625 49.153126 27.153126Q49.153126 26.090626 48.653126 25.6375Q47.98125 25.04375 46.653126 25.04375Q45.403126 25.04375 44.809376 25.48125Q44.23125 25.91875 43.95 27.028126L42.23125 26.79375Q42.465626 25.684376 42.996876 25.0125Q43.528126 24.325 44.54375 23.965626Q45.559376 23.590626 46.903126 23.590626Q48.23125 23.590626 49.059376 23.903126Q49.8875 24.215626 50.278126 24.7Q50.66875 25.16875 50.825 25.8875Q50.91875 26.340626 50.91875 27.5125L50.91875 29.85625Q50.91875 32.309376 51.028126 32.965626Q51.1375 33.60625 51.48125 34.2L49.6375 34.2Q49.371876 33.653126 49.29375 32.91875ZM49.1375 28.996876Q48.184376 29.3875 46.2625 29.653126Q45.184376 29.809376 44.73125 30.0125Q44.29375 30.2 44.04375 30.575Q43.79375 30.95 43.79375 31.41875Q43.79375 32.121876 44.325 32.590626Q44.85625 33.059376 45.8875 33.059376Q46.903126 33.059376 47.684376 32.621876Q48.48125 32.16875 48.85625 31.403126Q49.1375 30.79375 49.1375 29.6375L49.1375 28.996876ZM53.48125 34.2L53.48125 19.8875L55.23125 19.8875L55.23125 34.2L53.48125 34.2ZM57.528126 21.903126L57.528126 19.8875L59.29375 19.8875L59.29375 21.903126L57.528126 21.903126ZM57.528126 34.2L57.528126 23.825L59.29375 23.825L59.29375 34.2L57.528126 34.2ZM66.80937 31.10625L68.55937 30.825Q68.7 31.871876 69.37187 32.434376Q70.04375 32.98125 71.24687 32.98125Q72.45 32.98125 73.02812 32.496876Q73.62187 31.996876 73.62187 31.340626Q73.62187 30.746876 73.10625 30.403126Q72.74687 30.16875 71.30937 29.809376Q69.37187 29.309376 68.62187 28.965626Q67.8875 28.60625 67.49687 27.98125Q67.10625 27.340626 67.10625 26.575Q67.10625 25.8875 67.41875 25.29375Q67.74687 24.7 68.29375 24.309376Q68.7 24.0125 69.40312 23.809376Q70.12187 23.590626 70.93437 23.590626Q72.15312 23.590626 73.075 23.95Q73.99687 24.29375 74.43437 24.903126Q74.87187 25.496876 75.04375 26.496876L73.325 26.73125Q73.2 25.934376 72.6375 25.496876Q72.075 25.04375 71.05937 25.04375Q69.84062 25.04375 69.325 25.45Q68.80937 25.840626 68.80937 26.371876Q68.80937 26.715626 69.02812 26.996876Q69.23125 27.278126 69.7 27.465626Q69.96562 27.559376 71.24687 27.903126Q73.12187 28.403126 73.85625 28.73125Q74.59062 29.04375 75.0125 29.653126Q75.43437 30.246876 75.43437 31.153126Q75.43437 32.028126 74.91875 32.809376Q74.40312 33.590626 73.43437 34.0125Q72.46562 34.434376 71.24687 34.434376Q69.23125 34.434376 68.16875 33.590626Q67.10625 32.746876 66.80937 31.10625ZM76.87187 29.0125Q76.87187 26.1375 78.46562 24.746876Q79.80937 23.590626 81.73125 23.590626Q83.87187 23.590626 85.21562 24.996876Q86.575 26.403126 86.575 28.871876Q86.575 30.871876 85.98125 32.028126Q85.3875 33.16875 84.23125 33.809376Q83.09062 34.434376 81.73125 34.434376Q79.54375 34.434376 78.2 33.04375Q76.87187 31.6375 76.87187 29.0125ZM78.66875 29.0125Q78.66875 31.0125 79.52812 31.996876Q80.40312 32.98125 81.73125 32.98125Q83.04375 32.98125 83.90312 31.996876Q84.77812 30.996876 84.77812 28.95Q84.77812 27.028126 83.90312 26.04375Q83.02812 25.04375 81.73125 25.04375Q80.40312 25.04375 79.52812 26.04375Q78.66875 27.028126 78.66875 29.0125ZM88.5125 34.2L88.5125 23.825L90.10625 23.825L90.10625 25.309376Q91.24687 23.590626 93.40312 23.590626Q94.34062 23.590626 95.12187 23.934376Q95.91875 24.2625 96.30937 24.809376Q96.7 25.35625 96.85625 26.10625Q96.95 26.60625 96.95 27.825L96.95 34.2L95.18437 34.2L95.18437 27.8875Q95.18437 26.809376 94.98125 26.278126Q94.77812 25.746876 94.24687 25.434376Q93.73125 25.121876 93.02812 25.121876Q91.90312 25.121876 91.09062 25.840626Q90.27812 26.54375 90.27812 28.528126L90.27812 34.2L88.5125 34.2ZM97.87187 29.0125Q97.87187 26.1375 99.46562 24.746876Q100.80937 23.590626 102.73125 23.590626Q104.87187 23.590626 106.21562 24.996876Q107.575 26.403126 107.575 28.871876Q107.575 30.871876 106.98125 32.028126Q106.3875 33.16875 105.23125 33.809376Q104.09062 34.434376 102.73125 34.434376Q100.54375 34.434376 99.2 33.04375Q97.87187 31.6375 97.87187 29.0125ZM99.66875 29.0125Q99.66875 31.0125 100.52812 31.996876Q101.40312 32.98125 102.73125 32.98125Q104.04375 32.98125 104.90312 31.996876Q105.77812 30.996876 105.77812 28.95Q105.77812 27.028126 104.90312 26.04375Q104.02812 25.04375 102.73125 25.04375Q101.40312 25.04375 100.52812 26.04375Q99.66875 27.028126 99.66875 29.0125ZM115.48125 34.2L115.48125 19.8875L117.23125 19.8875L117.23125 34.2L115.48125 34.2ZM126.62187 30.85625L128.43437 31.090626Q128.0125 32.66875 126.84062 33.559376Q125.68437 34.434376 123.87187 34.434376Q121.60625 34.434376 120.2625 33.04375Q118.93437 31.6375 118.93437 29.10625Q118.93437 26.48125 120.27812 25.04375Q121.62187 23.590626 123.77812 23.590626Q125.85625 23.590626 127.16875 25.0125Q128.49687 26.41875 128.49687 28.996876Q128.49687 29.153126 128.48125 29.465626L120.74687 29.465626Q120.84062 31.16875 121.71562 32.075Q122.59062 32.98125 123.8875 32.98125Q124.85625 32.98125 125.52812 32.48125Q126.21562 31.965626 126.62187 30.85625ZM120.84062 28.0125L126.6375 28.0125Q126.52812 26.715626 125.98125 26.059376Q125.1375 25.04375 123.79375 25.04375Q122.59062 25.04375 121.7625 25.85625Q120.93437 26.653126 120.84062 28.0125ZM136.5125 38.16875L136.5125 23.825L138.12187 23.825L138.12187 25.16875Q138.68437 24.3875 139.3875 23.996876Q140.10625 23.590626 141.12187 23.590626Q142.45 23.590626 143.46562 24.278126Q144.48125 24.965626 144.99687 26.215626Q145.52812 27.45 145.52812 28.934376Q145.52812 30.528126 144.95 31.809376Q144.3875 33.075 143.29375 33.7625Q142.2 34.434376 140.99687 34.434376Q140.12187 34.434376 139.41875 34.059376Q138.73125 33.684376 138.27812 33.121876L138.27812 38.16875L136.5125 38.16875ZM138.10625 29.075Q138.10625 31.075 138.91875 32.028126Q139.73125 32.98125 140.8875 32.98125Q142.05937 32.98125 142.8875 31.996876Q143.73125 31.0125 143.73125 28.91875Q143.73125 26.95 142.90312 25.965626Q142.09062 24.965626 140.96562 24.965626Q139.84062 24.965626 138.96562 26.028126Q138.10625 27.075 138.10625 29.075ZM147.49687 34.2L147.49687 23.825L149.075 23.825L149.075 25.403126Q149.68437 24.29375 150.2 23.95Q150.71562 23.590626 151.325 23.590626Q152.21562 23.590626 153.1375 24.153126L152.52812 25.79375Q151.8875 25.403126 151.24687 25.403126Q150.66875 25.403126 150.2 25.7625Q149.74687 26.10625 149.54375 26.715626Q149.2625 27.653126 149.2625 28.7625L149.2625 34.2L147.49687 34.2ZM154.52812 21.903126L154.52812 19.8875L156.29375 19.8875L156.29375 21.903126L154.52812 21.903126ZM154.52812 34.2L154.52812 23.825L156.29375 23.825L156.29375 34.2L154.52812 34.2ZM158.5125 34.2L158.5125 23.825L160.10625 23.825L160.10625 25.309376Q161.24687 23.590626 163.40312 23.590626Q164.34062 23.590626 165.12187 23.934376Q165.91875 24.2625 166.30937 24.809376Q166.7 25.35625 166.85625 26.10625Q166.95 26.60625 166.95 27.825L166.95 34.2L165.18437 34.2L165.18437 27.8875Q165.18437 26.809376 164.98125 26.278126Q164.77812 25.746876 164.24687 25.434376Q163.73125 25.121876 163.02812 25.121876Q161.90312 25.121876 161.09062 25.840626Q160.27812 26.54375 160.27812 28.528126L160.27812 34.2L158.5125 34.2ZM175.29375 30.403126L177.0125 30.621876Q176.73125 32.41875 175.55937 33.434376Q174.40312 34.434376 172.7 34.434376Q170.575 34.434376 169.27812 33.04375Q167.98125 31.653126 167.98125 29.059376Q167.98125 27.371876 168.52812 26.121876Q169.09062 24.85625 170.23125 24.23125Q171.37187 23.590626 172.71562 23.590626Q174.40312 23.590626 175.46562 24.45Q176.54375 25.309376 176.85625 26.871876L175.1375 27.1375Q174.90312 26.090626 174.27812 25.575Q173.65312 25.04375 172.77812 25.04375Q171.45 25.04375 170.62187 25.996876Q169.79375 26.95 169.79375 28.996876Q169.79375 31.090626 170.59062 32.04375Q171.3875 32.98125 172.68437 32.98125Q173.71562 32.98125 174.40312 32.35625Q175.10625 31.715626 175.29375 30.403126ZM178.52812 21.903126L178.52812 19.8875L180.29375 19.8875L180.29375 21.903126L178.52812 21.903126ZM178.52812 34.2L178.52812 23.825L180.29375 23.825L180.29375 34.2L178.52812 34.2ZM182.5125 38.16875L182.5125 23.825L184.12187 23.825L184.12187 25.16875Q184.68437 24.3875 185.3875 23.996876Q186.10625 23.590626 187.12187 23.590626Q188.45 23.590626 189.46562 24.278126Q190.48125 24.965626 190.99687 26.215626Q191.52812 27.45 191.52812 28.934376Q191.52812 30.528126 190.95 31.809376Q190.3875 33.075 189.29375 33.7625Q188.2 34.434376 186.99687 34.434376Q186.12187 34.434376 185.41875 34.059376Q184.73125 33.684376 184.27812 33.121876L184.27812 38.16875L182.5125 38.16875ZM184.10625 29.075Q184.10625 31.075 184.91875 32.028126Q185.73125 32.98125 186.8875 32.98125Q188.05937 32.98125 188.8875 31.996876Q189.73125 31.0125 189.73125 28.91875Q189.73125 26.95 188.90312 25.965626Q188.09062 24.965626 186.96562 24.965626Q185.84062 24.965626 184.96562 26.028126Q184.10625 27.075 184.10625 29.075ZM200.29375 32.91875Q199.30937 33.746876 198.40312 34.090626Q197.49687 34.434376 196.46562 34.434376Q194.7625 34.434376 193.84062 33.60625Q192.91875 32.7625 192.91875 31.465626Q192.91875 30.7 193.2625 30.075Q193.62187 29.45 194.18437 29.075Q194.74687 28.684376 195.45 28.48125Q195.96562 28.35625 197.0125 28.215626Q199.1375 27.965626 200.1375 27.621876Q200.15312 27.2625 200.15312 27.153126Q200.15312 26.090626 199.65312 25.6375Q198.98125 25.04375 197.65312 25.04375Q196.40312 25.04375 195.80937 25.48125Q195.23125 25.91875 194.95 27.028126L193.23125 26.79375Q193.46562 25.684376 193.99687 25.0125Q194.52812 24.325 195.54375 23.965626Q196.55937 23.590626 197.90312 23.590626Q199.23125 23.590626 200.05937 23.903126Q200.8875 24.215626 201.27812 24.7Q201.66875 25.16875 201.825 25.8875Q201.91875 26.340626 201.91875 27.5125L201.91875 29.85625Q201.91875 32.309376 202.02812 32.965626Q202.1375 33.60625 202.48125 34.2L200.6375 34.2Q200.37187 33.653126 200.29375 32.91875ZM200.1375 28.996876Q199.18437 29.3875 197.2625 29.653126Q196.18437 29.809376 195.73125 30.0125Q195.29375 30.2 195.04375 30.575Q194.79375 30.95 194.79375 31.41875Q194.79375 32.121876 195.325 32.590626Q195.85625 33.059376 196.8875 33.059376Q197.90312 33.059376 198.68437 32.621876Q199.48125 32.16875 199.85625 31.403126Q200.1375 30.79375 200.1375 29.6375L200.1375 28.996876ZM204.48125 34.2L204.48125 19.8875L206.23125 19.8875L206.23125 34.2L204.48125 34.2ZM208.52812 21.903126L208.52812 19.8875L210.29375 19.8875L210.29375 21.903126L208.52812 21.903126ZM208.52812 34.2L208.52812 23.825L210.29375 23.825L210.29375 34.2L208.52812 34.2ZM225.29375 30.403126L227.0125 30.621876Q226.73125 32.41875 225.55937 33.434376Q224.40312 34.434376 222.7 34.434376Q220.575 34.434376 219.27812 33.04375Q217.98125 31.653126 217.98125 29.059376Q217.98125 27.371876 218.52812 26.121876Q219.09062 24.85625 220.23125 24.23125Q221.37187 23.590626 222.71562 23.590626Q224.40312 23.590626 225.46562 24.45Q226.54375 25.309376 226.85625 26.871876L225.1375 27.1375Q224.90312 26.090626 224.27812 25.575Q223.65312 25.04375 222.77812 25.04375Q221.45 25.04375 220.62187 25.996876Q219.79375 26.95 219.79375 28.996876Q219.79375 31.090626 220.59062 32.04375Q221.3875 32.98125 222.68437 32.98125Q223.71562 32.98125 224.40312 32.35625Q225.10625 31.715626 225.29375 30.403126ZM228.49687 34.2L228.49687 23.825L230.075 23.825L230.075 25.403126Q230.68437 24.29375 231.2 23.95Q231.71562 23.590626 232.325 23.590626Q233.21562 23.590626 234.1375 24.153126L233.52812 25.79375Q232.8875 25.403126 232.24687 25.403126Q231.66875 25.403126 231.2 25.7625Q230.74687 26.10625 230.54375 26.715626Q230.2625 27.653126 230.2625 28.7625L230.2625 34.2L228.49687 34.2ZM235.52812 21.903126L235.52812 19.8875L237.29375 19.8875L237.29375 21.903126L235.52812 21.903126ZM235.52812 34.2L235.52812 23.825L237.29375 23.825L237.29375 34.2L235.52812 34.2ZM243.35625 32.621876L243.60625 34.184376Q242.87187 34.340626 242.27812 34.340626Q241.325 34.340626 240.79375 34.04375Q240.27812 33.73125 240.05937 33.246876Q239.84062 32.746876 239.84062 31.16875L239.84062 25.2L238.55937 25.2L238.55937 23.825L239.84062 23.825L239.84062 21.2625L241.59062 20.2L241.59062 23.825L243.35625 23.825L243.35625 25.2L241.59062 25.2L241.59062 31.2625Q241.59062 32.0125 241.68437 32.23125Q241.77812 32.434376 241.98125 32.575Q242.2 32.7 242.59062 32.7Q242.87187 32.7 243.35625 32.621876ZM245.52812 21.903126L245.52812 19.8875L247.29375 19.8875L247.29375 21.903126L245.52812 21.903126ZM245.52812 34.2L245.52812 23.825L247.29375 23.825L247.29375 34.2L245.52812 34.2ZM256.29376 30.403126L258.0125 30.621876Q257.73126 32.41875 256.5594 33.434376Q255.40312 34.434376 253.7 34.434376Q251.575 34.434376 250.27812 33.04375Q248.98125 31.653126 248.98125 29.059376Q248.98125 27.371876 249.52812 26.121876Q250.09062 24.85625 251.23125 24.23125Q252.37187 23.590626 253.71562 23.590626Q255.40312 23.590626 256.46564 24.45Q257.54376 25.309376 257.85626 26.871876L256.1375 27.1375Q255.90312 26.090626 255.27812 25.575Q254.65312 25.04375 253.77812 25.04375Q252.45 25.04375 251.62187 25.996876Q250.79375 26.95 250.79375 28.996876Q250.79375 31.090626 251.59062 32.04375Q252.3875 32.98125 253.68437 32.98125Q254.71562 32.98125 255.40312 32.35625Q256.10626 31.715626 256.29376 30.403126ZM259.52814 21.903126L259.52814 19.8875L261.29376 19.8875L261.29376 21.903126L259.52814 21.903126ZM259.52814 34.2L259.52814 23.825L261.29376 23.825L261.29376 34.2L259.52814 34.2ZM267.35626 32.621876L267.60626 34.184376Q266.8719 34.340626 266.27814 34.340626Q265.325 34.340626 264.79376 34.04375Q264.27814 33.73125 264.0594 33.246876Q263.84064 32.746876 263.84064 31.16875L263.84064 25.2L262.5594 25.2L262.5594 23.825L263.84064 23.825L263.84064 21.2625L265.59064 20.2L265.59064 23.825L267.35626 23.825L267.35626 25.2L265.59064 25.2L265.59064 31.2625Q265.59064 32.0125 265.6844 32.23125Q265.77814 32.434376 265.98126 32.575Q266.2 32.7 266.59064 32.7Q266.8719 32.7 267.35626 32.621876ZM276.29376 32.91875Q275.3094 33.746876 274.40314 34.090626Q273.4969 34.434376 272.46564 34.434376Q270.7625 34.434376 269.84064 33.60625Q268.91876 32.7625 268.91876 31.465626Q268.91876 30.7 269.2625 30.075Q269.6219 29.45 270.1844 29.075Q270.7469 28.684376 271.45 28.48125Q271.96564 28.35625 273.0125 28.215626Q275.1375 27.965626 276.1375 27.621876Q276.15314 27.2625 276.15314 27.153126Q276.15314 26.090626 275.65314 25.6375Q274.98126 25.04375 273.65314 25.04375Q272.40314 25.04375 271.8094 25.48125Q271.23126 25.91875 270.95 27.028126L269.23126 26.79375Q269.46564 25.684376 269.9969 25.0125Q270.52814 24.325 271.54376 23.965626Q272.5594 23.590626 273.90314 23.590626Q275.23126 23.590626 276.0594 23.903126Q276.8875 24.215626 277.27814 24.7Q277.66876 25.16875 277.825 25.8875Q277.91876 26.340626 277.91876 27.5125L277.91876 29.85625Q277.91876 32.309376 278.02814 32.965626Q278.1375 33.60625 278.48126 34.2L276.6375 34.2Q276.3719 33.653126 276.29376 32.91875ZM276.1375 28.996876Q275.1844 29.3875 273.2625 29.653126Q272.1844 29.809376 271.73126 30.0125Q271.29376 30.2 271.04376 30.575Q270.79376 30.95 270.79376 31.41875Q270.79376 32.121876 271.325 32.590626Q271.85626 33.059376 272.8875 33.059376Q273.90314 33.059376 274.6844 32.621876Q275.48126 32.16875 275.85626 31.403126Q276.1375 30.79375 276.1375 29.6375L276.1375 28.996876ZM275.1844 22.54375L273.7625 22.54375L271.5125 19.809376L273.85626 19.809376L275.1844 22.54375ZM293.2469 34.2L293.2469 32.8875Q292.2625 34.434376 290.34064 34.434376Q289.10626 34.434376 288.0594 33.746876Q287.02814 33.059376 286.45 31.840626Q285.8875 30.621876 285.8875 29.028126Q285.8875 27.465626 286.40314 26.2Q286.91876 24.934376 287.95 24.2625Q288.9969 23.590626 290.2625 23.590626Q291.2 23.590626 291.9344 23.996876Q292.66876 24.3875 293.1375 25.0125L293.1375 19.8875L294.8719 19.8875L294.8719 34.2L293.2469 34.2ZM287.6844 29.028126Q287.6844 31.0125 288.52814 31.996876Q289.3719 32.98125 290.5125 32.98125Q291.66876 32.98125 292.46564 32.04375Q293.27814 31.10625 293.27814 29.16875Q293.27814 27.04375 292.45 26.04375Q291.6375 25.04375 290.4344 25.04375Q289.2625 25.04375 288.46564 26.0125Q287.6844 26.965626 287.6844 29.028126ZM304.6219 30.85625L306.4344 31.090626Q306.0125 32.66875 304.84064 33.559376Q303.6844 34.434376 301.8719 34.434376Q299.60626 34.434376 298.2625 33.04375Q296.9344 31.6375 296.9344 29.10625Q296.9344 26.48125 298.27814 25.04375Q299.6219 23.590626 301.77814 23.590626Q303.85626 23.590626 305.16876 25.0125Q306.4969 26.41875 306.4969 28.996876Q306.4969 29.153126 306.48126 29.465626L298.7469 29.465626Q298.84064 31.16875 299.71564 32.075Q300.59064 32.98125 301.8875 32.98125Q302.85626 32.98125 303.52814 32.48125Q304.21564 31.965626 304.6219 30.85625ZM298.84064 28.0125L304.6375 28.0125Q304.52814 26.715626 303.98126 26.059376Q303.1375 25.04375 301.79376 25.04375Q300.59064 25.04375 299.7625 25.85625Q298.9344 26.653126 298.84064 28.0125ZM308.48126 34.2L308.48126 19.8875L310.23126 19.8875L310.23126 34.2L308.48126 34.2ZM317.8094 31.10625L319.5594 30.825Q319.7 31.871876 320.3719 32.434376Q321.04376 32.98125 322.2469 32.98125Q323.45 32.98125 324.02814 32.496876Q324.6219 31.996876 324.6219 31.340626Q324.6219 30.746876 324.10626 30.403126Q323.7469 30.16875 322.3094 29.809376Q320.3719 29.309376 319.6219 28.965626Q318.8875 28.60625 318.4969 27.98125Q318.10626 27.340626 318.10626 26.575Q318.10626 25.8875 318.41876 25.29375Q318.7469 24.7 319.29376 24.309376Q319.7 24.0125 320.40314 23.809376Q321.1219 23.590626 321.9344 23.590626Q323.15314 23.590626 324.075 23.95Q324.9969 24.29375 325.4344 24.903126Q325.8719 25.496876 326.04376 26.496876L324.325 26.73125Q324.2 25.934376 323.6375 25.496876Q323.075 25.04375 322.0594 25.04375Q320.84064 25.04375 320.325 25.45Q319.8094 25.840626 319.8094 26.371876Q319.8094 26.715626 320.02814 26.996876Q320.23126 27.278126 320.7 27.465626Q320.96564 27.559376 322.2469 27.903126Q324.1219 28.403126 324.85626 28.73125Q325.59064 29.04375 326.0125 29.653126Q326.4344 30.246876 326.4344 31.153126Q326.4344 32.028126 325.91876 32.809376Q325.40314 33.590626 324.4344 34.0125Q323.46564 34.434376 322.2469 34.434376Q320.23126 34.434376 319.16876 33.590626Q318.10626 32.746876 317.8094 31.10625ZM328.52814 21.903126L328.52814 19.8875L330.29376 19.8875L330.29376 21.903126L328.52814 21.903126ZM328.52814 34.2L328.52814 23.825L330.29376 23.825L330.29376 34.2L328.52814 34.2ZM336.35626 32.621876L336.60626 34.184376Q335.8719 34.340626 335.27814 34.340626Q334.325 34.340626 333.79376 34.04375Q333.27814 33.73125 333.0594 33.246876Q332.84064 32.746876 332.84064 31.16875L332.84064 25.2L331.5594 25.2L331.5594 23.825L332.84064 23.825L332.84064 21.2625L334.59064 20.2L334.59064 23.825L336.35626 23.825L336.35626 25.2L334.59064 25.2L334.59064 31.2625Q334.59064 32.0125 334.6844 32.23125Q334.77814 32.434376 334.98126 32.575Q335.2 32.7 335.59064 32.7Q335.8719 32.7 336.35626 32.621876ZM337.8719 29.0125Q337.8719 26.1375 339.46564 24.746876Q340.8094 23.590626 342.73126 23.590626Q344.8719 23.590626 346.21564 24.996876Q347.575 26.403126 347.575 28.871876Q347.575 30.871876 346.98126 32.028126Q346.3875 33.16875 345.23126 33.809376Q344.09064 34.434376 342.73126 34.434376Q340.54376 34.434376 339.2 33.04375Q337.8719 31.6375 337.8719 29.0125ZM339.66876 29.0125Q339.66876 31.0125 340.52814 31.996876Q341.40314 32.98125 342.73126 32.98125Q344.04376 32.98125 344.90314 31.996876Q345.77814 30.996876 345.77814 28.95Q345.77814 27.028126 344.90314 26.04375Q344.02814 25.04375 342.73126 25.04375Q341.40314 25.04375 340.52814 26.04375Q339.66876 27.028126 339.66876 29.0125ZM362.2469 34.2L362.2469 32.8875Q361.2625 34.434376 359.34064 34.434376Q358.10626 34.434376 357.0594 33.746876Q356.02814 33.059376 355.45 31.840626Q354.8875 30.621876 354.8875 29.028126Q354.8875 27.465626 355.40314 26.2Q355.91876 24.934376 356.95 24.2625Q357.9969 23.590626 359.2625 23.590626Q360.2 23.590626 360.9344 23.996876Q361.66876 24.3875 362.1375 25.0125L362.1375 19.8875L363.8719 19.8875L363.8719 34.2L362.2469 34.2ZM356.6844 29.028126Q356.6844 31.0125 357.52814 31.996876Q358.3719 32.98125 359.5125 32.98125Q360.66876 32.98125 361.46564 32.04375Q362.27814 31.10625 362.27814 29.16875Q362.27814 27.04375 361.45 26.04375Q360.6375 25.04375 359.4344 25.04375Q358.2625 25.04375 357.46564 26.0125Q356.6844 26.965626 356.6844 29.028126ZM373.6219 30.85625L375.4344 31.090626Q375.0125 32.66875 373.84064 33.559376Q372.6844 34.434376 370.8719 34.434376Q368.60626 34.434376 367.2625 33.04375Q365.9344 31.6375 365.9344 29.10625Q365.9344 26.48125 367.27814 25.04375Q368.6219 23.590626 370.77814 23.590626Q372.85626 23.590626 374.16876 25.0125Q375.4969 26.41875 375.4969 28.996876Q375.4969 29.153126 375.48126 29.465626L367.7469 29.465626Q367.84064 31.16875 368.71564 32.075Q369.59064 32.98125 370.8875 32.98125Q371.85626 32.98125 372.52814 32.48125Q373.21564 31.965626 373.6219 30.85625ZM367.84064 28.0125L373.6375 28.0125Q373.52814 26.715626 372.98126 26.059376Q372.1375 25.04375 370.79376 25.04375Q369.59064 25.04375 368.7625 25.85625Q367.9344 26.653126 367.84064 28.0125ZM377.48126 34.2L377.48126 19.8875L379.23126 19.8875L379.23126 34.2L377.48126 34.2ZM394.29376 30.403126L396.0125 30.621876Q395.73126 32.41875 394.5594 33.434376Q393.40314 34.434376 391.7 34.434376Q389.575 34.434376 388.27814 33.04375Q386.98126 31.653126 386.98126 29.059376Q386.98126 27.371876 387.52814 26.121876Q388.09064 24.85625 389.23126 24.23125Q390.3719 23.590626 391.71564 23.590626Q393.40314 23.590626 394.46564 24.45Q395.54376 25.309376 395.85626 26.871876L394.1375 27.1375Q393.90314 26.090626 393.27814 25.575Q392.65314 25.04375 391.77814 25.04375Q390.45 25.04375 389.6219 25.996876Q388.79376 26.95 388.79376 28.996876Q388.79376 31.090626 389.59064 32.04375Q390.3875 32.98125 391.6844 32.98125Q392.71564 32.98125 393.40314 32.35625Q394.10626 31.715626 394.29376 30.403126ZM396.8719 29.0125Q396.8719 26.1375 398.46564 24.746876Q399.8094 23.590626 401.73126 23.590626Q403.8719 23.590626 405.21564 24.996876Q406.575 26.403126 406.575 28.871876Q406.575 30.871876 405.98126 32.028126Q405.3875 33.16875 404.23126 33.809376Q403.09064 34.434376 401.73126 34.434376Q399.54376 34.434376 398.2 33.04375Q396.8719 31.6375 396.8719 29.0125ZM398.66876 29.0125Q398.66876 31.0125 399.52814 31.996876Q400.40314 32.98125 401.73126 32.98125Q403.04376 32.98125 403.90314 31.996876Q404.77814 30.996876 404.77814 28.95Q404.77814 27.028126 403.90314 26.04375Q403.02814 25.04375 401.73126 25.04375Q400.40314 25.04375 399.52814 26.04375Q398.66876 27.028126 398.66876 29.0125ZM408.4969 34.2L408.4969 23.825L410.075 23.825L410.075 25.403126Q410.6844 24.29375 411.2 23.95Q411.71564 23.590626 412.325 23.590626Q413.21564 23.590626 414.1375 24.153126L413.52814 25.79375Q412.8875 25.403126 412.2469 25.403126Q411.66876 25.403126 411.2 25.7625Q410.7469 26.10625 410.54376 26.715626Q410.2625 27.653126 410.2625 28.7625L410.2625 34.2L408.4969 34.2ZM414.8094 31.10625L416.5594 30.825Q416.7 31.871876 417.3719 32.434376Q418.04376 32.98125 419.2469 32.98125Q420.45 32.98125 421.02814 32.496876Q421.6219 31.996876 421.6219 31.340626Q421.6219 30.746876 421.10626 30.403126Q420.7469 30.16875 419.3094 29.809376Q417.3719 29.309376 416.6219 28.965626Q415.8875 28.60625 415.4969 27.98125Q415.10626 27.340626 415.10626 26.575Q415.10626 25.8875 415.41876 25.29375Q415.7469 24.7 416.29376 24.309376Q416.7 24.0125 417.40314 23.809376Q418.1219 23.590626 418.9344 23.590626Q420.15314 23.590626 421.075 23.95Q421.9969 24.29375 422.4344 24.903126Q422.8719 25.496876 423.04376 26.496876L421.325 26.73125Q421.2 25.934376 420.6375 25.496876Q420.075 25.04375 419.0594 25.04375Q417.84064 25.04375 417.325 25.45Q416.8094 25.840626 416.8094 26.371876Q416.8094 26.715626 417.02814 26.996876Q417.23126 27.278126 417.7 27.465626Q417.96564 27.559376 419.2469 27.903126Q421.1219 28.403126 421.85626 28.73125Q422.59064 29.04375 423.0125 29.653126Q423.4344 30.246876 423.4344 31.153126Q423.4344 32.028126 422.91876 32.809376Q422.40314 33.590626 421.4344 34.0125Q420.46564 34.434376 419.2469 34.434376Q417.23126 34.434376 416.16876 33.590626Q415.10626 32.746876 414.8094 31.10625ZM424.8719 29.0125Q424.8719 26.1375 426.46564 24.746876Q427.8094 23.590626 429.73126 23.590626Q431.8719 23.590626 433.21564 24.996876Q434.575 26.403126 434.575 28.871876Q434.575 30.871876 433.98126 32.028126Q433.3875 33.16875 432.23126 33.809376Q431.09064 34.434376 429.73126 34.434376Q427.54376 34.434376 426.2 33.04375Q424.8719 31.6375 424.8719 29.0125ZM426.66876 29.0125Q426.66876 31.0125 427.52814 31.996876Q428.40314 32.98125 429.73126 32.98125Q431.04376 32.98125 431.90314 31.996876Q432.77814 30.996876 432.77814 28.95Q432.77814 27.028126 431.90314 26.04375Q431.02814 25.04375 429.73126 25.04375Q428.40314 25.04375 427.52814 26.04375Q426.66876 27.028126 426.66876 29.0125ZM439.8094 30.66875Q439.79376 30.325 439.79376 30.153126Q439.79376 29.10625 440.09064 28.35625Q440.3094 27.79375 440.79376 27.215626Q441.1375 26.79375 442.04376 25.996876Q442.96564 25.184376 443.23126 24.715626Q443.5125 24.23125 443.5125 23.66875Q443.5125 22.6375 442.7 21.871876Q441.90314 21.090626 440.7469 21.090626Q439.6219 21.090626 438.8719 21.79375Q438.1219 22.496876 437.8875 23.98125L436.075 23.7625Q436.325 21.7625 437.52814 20.7Q438.73126 19.6375 440.71564 19.6375Q442.825 19.6375 444.075 20.778126Q445.325 21.91875 445.325 23.54375Q445.325 24.48125 444.8719 25.278126Q444.4344 26.059376 443.15314 27.2Q442.29376 27.965626 442.02814 28.325Q441.77814 28.684376 441.6375 29.153126Q441.5125 29.621876 441.4969 30.66875L439.8094 30.66875ZM439.7 34.2L439.7 32.2L441.7 32.2L441.7 34.2L439.7 34.2Z" fill-rule="nonzero"/></svg>