<svg version="1.1" viewBox="0.0 0.0 490.0 304.0" fill="none" stroke="none" stroke-linecap="square" stroke-miterlimit="10" width="490" height="304" xmlns:xlink="http://www.w3.org/1999/xlink" xmlns="http://www.w3.org/2000/svg"><path fill="#ffffff" d="M0 0L490.0 0L490.0 304.0L0 304.0L0 0Z" fill-rule="nonzero"/><path fill="#4285f4" d="M245.0 49.333332C269.57672 49.333332 293.14685 59.0964 310.52524 76.47477L245.0 142.0Z" fill-rule="nonzero"/><path fill="#ea4335" d="M310.52524 76.47477C331.50018 97.44972 341.1661 127.198395 336.5258 156.49626L245.0 142.0Z" fill-rule="nonzero"/><path fill="#34a853" d="M216.36443 53.868763C225.61253 50.863873 235.27597 49.333332 245.0 49.333332L245.0 142.0Z" fill-rule="nonzero"/><path fill="#fbbc04" d="M336.5258 156.49626C329.39517 201.51712 290.58206 234.66667 245.0 234.66667C199.41795 234.66667 160.60481 201.51712 153.47421 156.49626C146.34361 111.4754 173.01332 67.95439 216.36443 53.868763L245.0 142.0Z" fill-rule="nonzero"/><path fill="#000000" d="M254.41739 88.57933L253.18301 88.57933L253.18301 80.73558Q252.74551 81.157455 252.01114 81.594955Q251.29239 82.01683 250.72989 82.219955L250.72989 81.032455Q251.76114 80.54808 252.52676 79.86058Q253.30801 79.17308 253.62051 78.51683L254.41739 78.51683L254.41739 88.57933ZM264.2455 87.39183L264.2455 88.57933L257.6205 88.57933Q257.6049 88.14183 257.76114 87.719955Q258.02676 87.04808 258.57364 86.39183Q259.13614 85.73558 260.183 84.876205Q261.82364 83.532455 262.38614 82.751205Q262.96426 81.969955 262.96426 81.26683Q262.96426 80.532455 262.433 80.032455Q261.9174 79.532455 261.08926 79.532455Q260.19864 79.532455 259.65176 80.063705Q259.1205 80.594955 259.1205 81.54808L257.8549 81.407455Q257.9799 80.001205 258.82364 79.26683Q259.683 78.51683 261.1049 78.51683Q262.558 78.51683 263.38614 79.313705Q264.2299 80.11058 264.2299 81.29808Q264.2299 81.907455 263.9799 82.48558Q263.7455 83.063705 263.1674 83.70433Q262.6049 84.344955 261.27676 85.469955Q260.1674 86.39183 259.8549 86.73558Q259.5424 87.063705 259.33926 87.39183L264.2455 87.39183ZM266.46426 88.57933L266.46426 87.17308L267.8705 87.17308L267.8705 88.57933L266.46426 88.57933ZM269.77676 85.95433L271.07364 85.844955Q271.21426 86.782455 271.7299 87.26683Q272.26114 87.73558 272.9955 87.73558Q273.88614 87.73558 274.4955 87.063705Q275.1205 86.39183 275.1205 85.29808Q275.1205 84.23558 274.52676 83.626205Q273.933 83.01683 272.9799 83.01683Q272.38614 83.01683 271.90176 83.29808Q271.433 83.563705 271.15176 83.98558L269.9955 83.844955L270.96426 78.688705L275.94864 78.688705L275.94864 79.876205L271.94864 79.876205L271.4174 82.563705Q272.32364 81.938705 273.308 81.938705Q274.6205 81.938705 275.51114 82.844955Q276.4174 83.751205 276.4174 85.188705Q276.4174 86.54808 275.63614 87.532455Q274.6674 88.751205 272.9955 88.751205Q271.63614 88.751205 270.76114 87.98558Q269.90176 87.219955 269.77676 85.95433ZM278.01114 80.969955Q278.01114 79.89183 278.5424 79.14183Q279.08926 78.39183 280.1205 78.39183Q281.058 78.39183 281.6674 79.063705Q282.2924 79.73558 282.2924 81.032455Q282.2924 82.313705 281.6674 83.001205Q281.0424 83.688705 280.13614 83.688705Q279.2299 83.688705 278.6205 83.01683Q278.01114 82.32933 278.01114 80.969955ZM280.15176 79.23558Q279.69864 79.23558 279.38614 79.64183Q279.08926 80.032455 279.08926 81.07933Q279.08926 82.04808 279.38614 82.438705Q279.69864 82.82933 280.15176 82.82933Q280.6205 82.82933 280.9174 82.438705Q281.2299 82.04808 281.2299 80.98558Q281.2299 80.01683 280.9174 79.626205Q280.6049 79.23558 280.15176 79.23558ZM280.15176 88.95433L285.63614 78.39183L286.63614 78.39183L281.183 88.95433L280.15176 88.95433ZM284.4955 86.219955Q284.4955 85.14183 285.02676 84.407455Q285.57364 83.657455 286.6049 83.657455Q287.5424 83.657455 288.1674 84.32933Q288.7924 85.001205 288.7924 86.29808Q288.7924 87.57933 288.1674 88.26683Q287.5424 88.95433 286.6049 88.95433Q285.69864 88.95433 285.08926 88.282455Q284.4955 87.594955 284.4955 86.219955ZM286.63614 84.501205Q286.1674 84.501205 285.8705 84.907455Q285.57364 85.29808 285.57364 86.344955Q285.57364 87.313705 285.8705 87.70433Q286.183 88.094955 286.63614 88.094955Q287.1049 88.094955 287.40176 87.70433Q287.71426 87.313705 287.71426 86.251205Q287.71426 85.282455 287.40176 84.89183Q287.1049 84.501205 286.63614 84.501205Z" fill-rule="nonzero"/><path fill="#000000" d="M286.52374 128.7054L285.28937 128.7054L285.28937 120.86165Q284.85187 121.28352 284.1175 121.72102Q283.39874 122.1429 282.83624 122.34602L282.83624 121.15852Q283.8675 120.67415 284.63312 119.98665Q285.41437 119.29915 285.72687 118.6429L286.52374 118.6429L286.52374 128.7054ZM289.88312 126.0804L291.18 125.97102Q291.32062 126.90852 291.83624 127.3929Q292.3675 127.86165 293.10187 127.86165Q293.9925 127.86165 294.60187 127.18977Q295.22687 126.5179 295.22687 125.42415Q295.22687 124.36165 294.63312 123.75227Q294.03937 123.1429 293.08624 123.1429Q292.4925 123.1429 292.00812 123.42415Q291.53937 123.68977 291.25812 124.11165L290.10187 123.97102L291.07062 118.81477L296.055 118.81477L296.055 120.00227L292.055 120.00227L291.52374 122.68977Q292.43 122.06477 293.41437 122.06477Q294.72687 122.06477 295.6175 122.97102Q296.52374 123.87727 296.52374 125.31477Q296.52374 126.67415 295.7425 127.65852Q294.77374 128.87727 293.10187 128.87727Q291.7425 128.87727 290.8675 128.11165Q290.00812 127.34602 289.88312 126.0804ZM298.57062 128.7054L298.57062 127.29915L299.97687 127.29915L299.97687 128.7054L298.57062 128.7054ZM301.88312 123.7679Q301.88312 121.98665 302.2425 120.90852Q302.6175 119.81477 303.33624 119.23665Q304.055 118.6429 305.14874 118.6429Q305.96124 118.6429 306.57062 118.97102Q307.18 119.29915 307.57062 119.90852Q307.97687 120.5179 308.19562 121.3929Q308.41437 122.2679 308.41437 123.7679Q308.41437 125.53352 308.055 126.61165Q307.69562 127.68977 306.97687 128.28352Q306.25812 128.87727 305.14874 128.87727Q303.71124 128.87727 302.88312 127.8304Q301.88312 126.5804 301.88312 123.7679ZM303.14874 123.7679Q303.14874 126.23665 303.72687 127.04915Q304.305 127.86165 305.14874 127.86165Q306.00812 127.86165 306.58624 127.04915Q307.16437 126.22102 307.16437 123.7679Q307.16437 121.28352 306.58624 120.47102Q306.00812 119.65852 305.13312 119.65852Q304.28937 119.65852 303.78937 120.37727Q303.14874 121.29915 303.14874 123.7679ZM310.1175 121.09602Q310.1175 120.0179 310.64874 119.2679Q311.19562 118.5179 312.22687 118.5179Q313.16437 118.5179 313.77374 119.18977Q314.39874 119.86165 314.39874 121.15852Q314.39874 122.43977 313.77374 123.12727Q313.14874 123.81477 312.2425 123.81477Q311.33624 123.81477 310.72687 123.1429Q310.1175 122.4554 310.1175 121.09602ZM312.25812 119.36165Q311.805 119.36165 311.4925 119.7679Q311.19562 120.15852 311.19562 121.2054Q311.19562 122.17415 311.4925 122.56477Q311.805 122.9554 312.25812 122.9554Q312.72687 122.9554 313.02374 122.56477Q313.33624 122.17415 313.33624 121.11165Q313.33624 120.1429 313.02374 119.75227Q312.71124 119.36165 312.25812 119.36165ZM312.25812 129.0804L317.7425 118.5179L318.7425 118.5179L313.28937 129.0804L312.25812 129.0804ZM316.60187 126.34602Q316.60187 125.2679 317.13312 124.53352Q317.68 123.78352 318.71124 123.78352Q319.64874 123.78352 320.27374 124.4554Q320.89874 125.12727 320.89874 126.42415Q320.89874 127.7054 320.27374 128.3929Q319.64874 129.0804 318.71124 129.0804Q317.805 129.0804 317.19562 128.40852Q316.60187 127.72102 316.60187 126.34602ZM318.7425 124.62727Q318.27374 124.62727 317.97687 125.03352Q317.68 125.42415 317.68 126.47102Q317.68 127.43977 317.97687 127.8304Q318.28937 128.22102 318.7425 128.22102Q319.21124 128.22102 319.50812 127.8304Q319.82062 127.43977 319.82062 126.37727Q319.82062 125.40852 319.50812 125.0179Q319.21124 124.62727 318.7425 124.62727Z" fill-rule="nonzero"/><path fill="#000000" d="M193.08647 184.9628L191.86772 185.05655Q191.69585 184.32217 191.39897 183.99405Q190.89897 183.47842 190.1646 183.47842Q189.57085 183.47842 189.13335 183.80655Q188.55522 184.22842 188.21147 185.04092Q187.88335 185.85342 187.86772 187.35342Q188.30522 186.68155 188.94585 186.35342Q189.6021 186.0253 190.30522 186.0253Q191.5396 186.0253 192.39897 186.93155Q193.25835 187.8378 193.25835 189.2753Q193.25835 190.2128 192.8521 191.0253Q192.44585 191.8378 191.7271 192.2753Q191.02397 192.69717 190.11772 192.69717Q188.58647 192.69717 187.61772 191.57217Q186.64897 190.43155 186.64897 187.8378Q186.64897 184.93155 187.71147 183.60342Q188.64897 182.4628 190.24272 182.4628Q191.43022 182.4628 192.18022 183.13467Q192.93022 183.79092 193.08647 184.9628ZM188.05522 189.2753Q188.05522 189.91592 188.32085 190.49405Q188.6021 191.07217 189.08647 191.38467Q189.57085 191.68155 190.1021 191.68155Q190.88335 191.68155 191.44585 191.05655Q192.00835 190.43155 192.00835 189.35342Q192.00835 188.30655 191.44585 187.7128Q190.89897 187.10342 190.05522 187.10342Q189.2271 187.10342 188.63335 187.7128Q188.05522 188.30655 188.05522 189.2753ZM194.77397 183.82217L194.77397 182.63467L201.27397 182.63467L201.27397 183.5878Q200.30522 184.60342 199.36772 186.29092Q198.43022 187.97842 197.9146 189.7753Q197.55522 191.0253 197.44585 192.5253L196.18022 192.5253Q196.19585 191.3378 196.63335 189.66592Q197.08647 187.99405 197.9146 186.44717Q198.75835 184.88467 199.69585 183.82217L194.77397 183.82217ZM203.38335 192.5253L203.38335 191.11905L204.7896 191.11905L204.7896 192.5253L203.38335 192.5253ZM206.69585 189.9003L207.99272 189.79092Q208.13335 190.72842 208.64897 191.2128Q209.18022 191.68155 209.9146 191.68155Q210.80522 191.68155 211.4146 191.00967Q212.0396 190.3378 212.0396 189.24405Q212.0396 188.18155 211.44585 187.57217Q210.8521 186.9628 209.89897 186.9628Q209.30522 186.9628 208.82085 187.24405Q208.3521 187.50967 208.07085 187.93155L206.9146 187.79092L207.88335 182.63467L212.86772 182.63467L212.86772 183.82217L208.86772 183.82217L208.33647 186.50967Q209.24272 185.88467 210.2271 185.88467Q211.5396 185.88467 212.43022 186.79092Q213.33647 187.69717 213.33647 189.13467Q213.33647 190.49405 212.55522 191.47842Q211.58647 192.69717 209.9146 192.69717Q208.55522 192.69717 207.68022 191.93155Q206.82085 191.16592 206.69585 189.9003ZM214.93022 184.91592Q214.93022 183.8378 215.46147 183.0878Q216.00835 182.3378 217.0396 182.3378Q217.9771 182.3378 218.58647 183.00967Q219.21147 183.68155 219.21147 184.97842Q219.21147 186.25967 218.58647 186.94717Q217.96147 187.63467 217.05522 187.63467Q216.14897 187.63467 215.5396 186.9628Q214.93022 186.2753 214.93022 184.91592ZM217.07085 183.18155Q216.61772 183.18155 216.30522 183.5878Q216.00835 183.97842 216.00835 185.0253Q216.00835 185.99405 216.30522 186.38467Q216.61772 186.7753 217.07085 186.7753Q217.5396 186.7753 217.83647 186.38467Q218.14897 185.99405 218.14897 184.93155Q218.14897 183.9628 217.83647 183.57217Q217.52397 183.18155 217.07085 183.18155ZM217.07085 192.9003L222.55522 182.3378L223.55522 182.3378L218.1021 192.9003L217.07085 192.9003ZM221.4146 190.16592Q221.4146 189.0878 221.94585 188.35342Q222.49272 187.60342 223.52397 187.60342Q224.46147 187.60342 225.08647 188.2753Q225.71147 188.94717 225.71147 190.24405Q225.71147 191.5253 225.08647 192.2128Q224.46147 192.9003 223.52397 192.9003Q222.61772 192.9003 222.00835 192.22842Q221.4146 191.54092 221.4146 190.16592ZM223.55522 188.44717Q223.08647 188.44717 222.7896 188.85342Q222.49272 189.24405 222.49272 190.29092Q222.49272 191.25967 222.7896 191.6503Q223.1021 192.04092 223.55522 192.04092Q224.02397 192.04092 224.32085 191.6503Q224.63335 191.25967 224.63335 190.19717Q224.63335 189.22842 224.32085 188.8378Q224.02397 188.44717 223.55522 188.44717Z" fill-rule="nonzero"/><path fill="#4285f4" d="M28.2 251.8C28.2 255.11371 25.513708 257.8 22.2 257.8C18.886292 257.8 16.2 255.11371 16.2 251.8C16.2 248.4863 18.886292 245.8 22.2 245.8C25.513708 245.8 28.2 248.4863 28.2 251.8Z" fill-rule="nonzero"/><path fill="#1a1a1a" d="M37.121876 255.8L37.121876 247.20625L38.278126 247.20625L42.79375 253.95625L42.79375 247.20625L43.8875 247.20625L43.8875 255.8L42.715626 255.8L38.2 249.05L38.2 255.8L37.121876 255.8ZM45.60625 252.69063Q45.60625 250.95625 46.559376 250.12813Q47.35625 249.44063 48.5125 249.44063Q49.79375 249.44063 50.60625 250.28438Q51.434376 251.1125 51.434376 252.59688Q51.434376 253.8 51.075 254.4875Q50.715626 255.175 50.0125 255.56563Q49.325 255.94063 48.5125 255.94063Q47.215626 255.94063 46.403126 255.1125Q45.60625 254.26875 45.60625 252.69063ZM46.684376 252.69063Q46.684376 253.87813 47.2 254.47188Q47.73125 255.06563 48.5125 255.06563Q49.309376 255.06563 49.825 254.47188Q50.340626 253.87813 50.340626 252.65938Q50.340626 251.50313 49.809376 250.90938Q49.29375 250.31563 48.5125 250.31563Q47.73125 250.31563 47.2 250.90938Q46.684376 251.4875 46.684376 252.69063ZM60.059376 253.51875L61.090626 253.65938Q60.91875 254.72188 60.215626 255.33125Q59.5125 255.94063 58.496876 255.94063Q57.215626 255.94063 56.434376 255.1125Q55.66875 254.26875 55.66875 252.70625Q55.66875 251.70625 55.996876 250.95625Q56.340626 250.19063 57.0125 249.81563Q57.7 249.44063 58.5125 249.44063Q59.5125 249.44063 60.153126 249.95625Q60.809376 250.45625 60.996876 251.40938L59.965626 251.56563Q59.825 250.94063 59.45 250.62813Q59.075 250.3 58.54375 250.3Q57.746876 250.3 57.246876 250.87813Q56.746876 251.44063 56.746876 252.675Q56.746876 253.94063 57.23125 254.50313Q57.715626 255.06563 58.48125 255.06563Q59.10625 255.06563 59.5125 254.69063Q59.934376 254.31563 60.059376 253.51875ZM61.60625 252.69063Q61.60625 250.95625 62.559376 250.12813Q63.35625 249.44063 64.5125 249.44063Q65.79375 249.44063 66.60625 250.28438Q67.43437 251.1125 67.43437 252.59688Q67.43437 253.8 67.075 254.4875Q66.71562 255.175 66.0125 255.56563Q65.325 255.94063 64.5125 255.94063Q63.215626 255.94063 62.403126 255.1125Q61.60625 254.26875 61.60625 252.69063ZM62.684376 252.69063Q62.684376 253.87813 63.2 254.47188Q63.73125 255.06563 64.5125 255.06563Q65.30937 255.06563 65.825 254.47188Q66.34062 253.87813 66.34062 252.65938Q66.34062 251.50313 65.80937 250.90938Q65.29375 250.31563 64.5125 250.31563Q63.73125 250.31563 63.2 250.90938Q62.684376 251.4875 62.684376 252.69063ZM68.99687 255.8L68.99687 249.58125L69.93437 249.58125L69.93437 250.45625Q70.23125 249.9875 70.71562 249.72188Q71.2 249.44063 71.825 249.44063Q72.5125 249.44063 72.95 249.72188Q73.40312 250.00313 73.575 250.51875Q74.325 249.44063 75.49687 249.44063Q76.43437 249.44063 76.91875 249.95625Q77.41875 250.45625 77.41875 251.53438L77.41875 255.8L76.37187 255.8L76.37187 251.87813Q76.37187 251.25313 76.2625 250.97188Q76.16875 250.69063 75.90312 250.51875Q75.6375 250.34688 75.2625 250.34688Q74.60625 250.34688 74.16875 250.78438Q73.74687 251.22188 73.74687 252.19063L73.74687 255.8L72.68437 255.8L72.68437 251.75313Q72.68437 251.05 72.41875 250.70625Q72.16875 250.34688 71.59062 250.34688Q71.1375 250.34688 70.7625 250.58125Q70.3875 250.81563 70.21562 251.26875Q70.04375 251.72188 70.04375 252.56563L70.04375 255.8L68.99687 255.8ZM79.99687 255.8L79.99687 249.58125L80.93437 249.58125L80.93437 250.45625Q81.23125 249.9875 81.71562 249.72188Q82.2 249.44063 82.825 249.44063Q83.5125 249.44063 83.95 249.72188Q84.40312 250.00313 84.575 250.51875Q85.325 249.44063 86.49687 249.44063Q87.43437 249.44063 87.91875 249.95625Q88.41875 250.45625 88.41875 251.53438L88.41875 255.8L87.37187 255.8L87.37187 251.87813Q87.37187 251.25313 87.2625 250.97188Q87.16875 250.69063 86.90312 250.51875Q86.6375 250.34688 86.2625 250.34688Q85.60625 250.34688 85.16875 250.78438Q84.74687 251.22188 84.74687 252.19063L84.74687 255.8L83.68437 255.8L83.68437 251.75313Q83.68437 251.05 83.41875 250.70625Q83.16875 250.34688 82.59062 250.34688Q82.1375 250.34688 81.7625 250.58125Q81.3875 250.81563 81.21562 251.26875Q81.04375 251.72188 81.04375 252.56563L81.04375 255.8L79.99687 255.8ZM95.24687 253.8L96.34062 253.925Q96.09062 254.87813 95.3875 255.40938Q94.68437 255.94063 93.60625 255.94063Q92.24687 255.94063 91.43437 255.09688Q90.6375 254.25313 90.6375 252.7375Q90.6375 251.175 91.45 250.31563Q92.2625 249.44063 93.54375 249.44063Q94.79375 249.44063 95.575 250.28438Q96.37187 251.12813 96.37187 252.675Q96.37187 252.76875 96.37187 252.95625L91.73125 252.95625Q91.79375 253.9875 92.30937 254.53438Q92.825 255.06563 93.60625 255.06563Q94.18437 255.06563 94.59062 254.76875Q95.0125 254.45625 95.24687 253.8ZM91.79375 252.09688L95.2625 252.09688Q95.2 251.3 94.87187 250.90938Q94.35625 250.3 93.55937 250.3Q92.825 250.3 92.325 250.78438Q91.84062 251.26875 91.79375 252.09688ZM97.99687 255.8L97.99687 249.58125L98.93437 249.58125L98.93437 250.45625Q99.62187 249.44063 100.91875 249.44063Q101.48125 249.44063 101.95 249.64375Q102.43437 249.84688 102.66875 250.175Q102.90312 250.50313 102.99687 250.94063Q103.04375 251.2375 103.04375 251.97188L103.04375 255.8L101.99687 255.8L101.99687 252.01875Q101.99687 251.3625 101.87187 251.05Q101.74687 250.7375 101.43437 250.55Q101.12187 250.34688 100.7 250.34688Q100.02812 250.34688 99.52812 250.78438Q99.04375 251.20625 99.04375 252.39375L99.04375 255.8L97.99687 255.8ZM107.29375 254.8625L107.45 255.78438Q106.99687 255.87813 106.65312 255.87813Q106.075 255.87813 105.7625 255.70625Q105.45 255.51875 105.30937 255.22188Q105.18437 254.925 105.18437 253.97188L105.18437 250.39375L104.41875 250.39375L104.41875 249.58125L105.18437 249.58125L105.18437 248.03438L106.23125 247.40938L106.23125 249.58125L107.29375 249.58125L107.29375 250.39375L106.23125 250.39375L106.23125 254.03438Q106.23125 254.4875 106.27812 254.6125Q106.34062 254.7375 106.46562 254.81563Q106.59062 254.89375 106.825 254.89375Q107.0125 254.89375 107.29375 254.8625Z" fill-rule="nonzero"/><path fill="#ea4335" d="M135.2 251.8C135.2 255.11371 132.5137 257.8 129.2 257.8C125.88629 257.8 123.2 255.11371 123.2 251.8C123.2 248.4863 125.88629 245.8 129.2 245.8C132.5137 245.8 135.2 248.4863 135.2 251.8Z" fill-rule="nonzero"/><path fill="#1a1a1a" d="M144.12187 255.8L144.12187 247.20625L147.37187 247.20625Q148.21562 247.20625 148.66875 247.28438Q149.30937 247.39375 149.73125 247.69063Q150.16875 247.9875 150.41875 248.51875Q150.68437 249.05 150.68437 249.69063Q150.68437 250.78438 149.98125 251.55Q149.29375 252.3 147.46562 252.3L145.2625 252.3L145.2625 255.8L144.12187 255.8ZM145.2625 251.3L147.48125 251.3Q148.59062 251.3 149.04375 250.89375Q149.5125 250.47188 149.5125 249.72188Q149.5125 249.19063 149.23125 248.81563Q148.96562 248.425 148.52812 248.3Q148.23125 248.22188 147.46562 248.22188L145.2625 248.22188L145.2625 251.3ZM151.60625 252.69063Q151.60625 250.95625 152.55937 250.12813Q153.35625 249.44063 154.5125 249.44063Q155.79375 249.44063 156.60625 250.28438Q157.43437 251.1125 157.43437 252.59688Q157.43437 253.8 157.075 254.4875Q156.71562 255.175 156.0125 255.56563Q155.325 255.94063 154.5125 255.94063Q153.21562 255.94063 152.40312 255.1125Q151.60625 254.26875 151.60625 252.69063ZM152.68437 252.69063Q152.68437 253.87813 153.2 254.47188Q153.73125 255.06563 154.5125 255.06563Q155.30937 255.06563 155.825 254.47188Q156.34062 253.87813 156.34062 252.65938Q156.34062 251.50313 155.80937 250.90938Q155.29375 250.31563 154.5125 250.31563Q153.73125 250.31563 153.2 250.90938Q152.68437 251.4875 152.68437 252.69063ZM163.05937 253.51875L164.09062 253.65938Q163.91875 254.72188 163.21562 255.33125Q162.5125 255.94063 161.49687 255.94063Q160.21562 255.94063 159.43437 255.1125Q158.66875 254.26875 158.66875 252.70625Q158.66875 251.70625 158.99687 250.95625Q159.34062 250.19063 160.0125 249.81563Q160.7 249.44063 161.5125 249.44063Q162.5125 249.44063 163.15312 249.95625Q163.80937 250.45625 163.99687 251.40938L162.96562 251.56563Q162.825 250.94063 162.45 250.62813Q162.075 250.3 161.54375 250.3Q160.74687 250.3 160.24687 250.87813Q159.74687 251.44063 159.74687 252.675Q159.74687 253.94063 160.23125 254.50313Q160.71562 255.06563 161.48125 255.06563Q162.10625 255.06563 162.5125 254.69063Q162.93437 254.31563 163.05937 253.51875ZM164.60625 252.69063Q164.60625 250.95625 165.55937 250.12813Q166.35625 249.44063 167.5125 249.44063Q168.79375 249.44063 169.60625 250.28438Q170.43437 251.1125 170.43437 252.59688Q170.43437 253.8 170.075 254.4875Q169.71562 255.175 169.0125 255.56563Q168.325 255.94063 167.5125 255.94063Q166.21562 255.94063 165.40312 255.1125Q164.60625 254.26875 164.60625 252.69063ZM165.68437 252.69063Q165.68437 253.87813 166.2 254.47188Q166.73125 255.06563 167.5125 255.06563Q168.30937 255.06563 168.825 254.47188Q169.34062 253.87813 169.34062 252.65938Q169.34062 251.50313 168.80937 250.90938Q168.29375 250.31563 167.5125 250.31563Q166.73125 250.31563 166.2 250.90938Q165.68437 251.4875 165.68437 252.69063ZM179.05937 253.51875L180.09062 253.65938Q179.91875 254.72188 179.21562 255.33125Q178.5125 255.94063 177.49687 255.94063Q176.21562 255.94063 175.43437 255.1125Q174.66875 254.26875 174.66875 252.70625Q174.66875 251.70625 174.99687 250.95625Q175.34062 250.19063 176.0125 249.81563Q176.7 249.44063 177.5125 249.44063Q178.5125 249.44063 179.15312 249.95625Q179.80937 250.45625 179.99687 251.40938L178.96562 251.56563Q178.825 250.94063 178.45 250.62813Q178.075 250.3 177.54375 250.3Q176.74687 250.3 176.24687 250.87813Q175.74687 251.44063 175.74687 252.675Q175.74687 253.94063 176.23125 254.50313Q176.71562 255.06563 177.48125 255.06563Q178.10625 255.06563 178.5125 254.69063Q178.93437 254.31563 179.05937 253.51875ZM180.99687 255.8L180.99687 247.20625L182.04375 247.20625L182.04375 250.28438Q182.77812 249.44063 183.90312 249.44063Q184.60625 249.44063 185.10625 249.72188Q185.62187 249.9875 185.84062 250.47188Q186.05937 250.94063 186.05937 251.8625L186.05937 255.8L185.0125 255.8L185.0125 251.8625Q185.0125 251.06563 184.66875 250.70625Q184.325 250.34688 183.7 250.34688Q183.23125 250.34688 182.80937 250.59688Q182.40312 250.83125 182.21562 251.25313Q182.04375 251.65938 182.04375 252.39375L182.04375 255.8L180.99687 255.8ZM187.99687 248.425L187.99687 247.20625L189.05937 247.20625L189.05937 248.425L187.99687 248.425ZM187.99687 255.8L187.99687 249.58125L189.05937 249.58125L189.05937 255.8L187.99687 255.8ZM195.05937 255.03438Q194.46562 255.53438 193.91875 255.7375Q193.3875 255.94063 192.7625 255.94063Q191.73125 255.94063 191.18437 255.44063Q190.6375 254.94063 190.6375 254.15938Q190.6375 253.70625 190.84062 253.33125Q191.04375 252.94063 191.3875 252.72188Q191.73125 252.4875 192.15312 252.37813Q192.45 252.28438 193.09062 252.20625Q194.35625 252.06563 194.96562 251.84688Q194.96562 251.62813 194.96562 251.58125Q194.96562 250.925 194.66875 250.65938Q194.2625 250.31563 193.46562 250.31563Q192.73125 250.31563 192.37187 250.58125Q192.0125 250.83125 191.84062 251.4875L190.80937 251.34688Q190.95 250.69063 191.27812 250.28438Q191.60625 249.87813 192.21562 249.65938Q192.825 249.44063 193.62187 249.44063Q194.41875 249.44063 194.91875 249.62813Q195.41875 249.81563 195.65312 250.09688Q195.8875 250.37813 195.98125 250.81563Q196.02812 251.08125 196.02812 251.78438L196.02812 253.19063Q196.02812 254.65938 196.09062 255.05Q196.16875 255.44063 196.37187 255.8L195.2625 255.8Q195.10625 255.47188 195.05937 255.03438ZM194.96562 252.675Q194.3875 252.90938 193.24687 253.08125Q192.59062 253.175 192.325 253.3Q192.05937 253.40938 191.90312 253.62813Q191.7625 253.84688 191.7625 254.12813Q191.7625 254.55 192.075 254.83125Q192.40312 255.1125 193.0125 255.1125Q193.62187 255.1125 194.09062 254.84688Q194.575 254.58125 194.79375 254.1125Q194.96562 253.75313 194.96562 253.06563L194.96562 252.675ZM197.98125 255.8L197.98125 249.58125L198.93437 249.58125L198.93437 250.51875Q199.29375 249.8625 199.59062 249.65938Q199.90312 249.44063 200.27812 249.44063Q200.80937 249.44063 201.35625 249.76875L200.99687 250.75313Q200.60625 250.51875 200.23125 250.51875Q199.87187 250.51875 199.59062 250.7375Q199.325 250.94063 199.21562 251.31563Q199.02812 251.87813 199.02812 252.53438L199.02812 255.8L197.98125 255.8ZM206.24687 253.8L207.34062 253.925Q207.09062 254.87813 206.3875 255.40938Q205.68437 255.94063 204.60625 255.94063Q203.24687 255.94063 202.43437 255.09688Q201.6375 254.25313 201.6375 252.7375Q201.6375 251.175 202.45 250.31563Q203.2625 249.44063 204.54375 249.44063Q205.79375 249.44063 206.575 250.28438Q207.37187 251.12813 207.37187 252.675Q207.37187 252.76875 207.37187 252.95625L202.73125 252.95625Q202.79375 253.9875 203.30937 254.53438Q203.825 255.06563 204.60625 255.06563Q205.18437 255.06563 205.59062 254.76875Q206.0125 254.45625 206.24687 253.8ZM202.79375 252.09688L206.2625 252.09688Q206.2 251.3 205.87187 250.90938Q205.35625 250.3 204.55937 250.3Q203.825 250.3 203.325 250.78438Q202.84062 251.26875 202.79375 252.09688Z" fill-rule="nonzero"/><path fill="#fbbc04" d="M236.2 251.8C236.2 255.11371 233.5137 257.8 230.2 257.8C226.88629 257.8 224.2 255.11371 224.2 251.8C224.2 248.4863 226.88629 245.8 230.2 245.8C233.5137 245.8 236.2 248.4863 236.2 251.8Z" fill-rule="nonzero"/><path fill="#1a1a1a" d="M245.12187 255.8L245.12187 247.20625L246.27812 247.20625L250.79375 253.95625L250.79375 247.20625L251.8875 247.20625L251.8875 255.8L250.71562 255.8L246.2 249.05L246.2 255.8L245.12187 255.8ZM258.2469 253.8L259.34064 253.925Q259.09064 254.87813 258.3875 255.40938Q257.6844 255.94063 256.60626 255.94063Q255.24687 255.94063 254.43437 255.09688Q253.6375 254.25313 253.6375 252.7375Q253.6375 251.175 254.45 250.31563Q255.2625 249.44063 256.54376 249.44063Q257.79376 249.44063 258.575 250.28438Q259.3719 251.12813 259.3719 252.675Q259.3719 252.76875 259.3719 252.95625L254.73125 252.95625Q254.79375 253.9875 255.30937 254.53438Q255.825 255.06563 256.60626 255.06563Q257.1844 255.06563 257.59064 254.76875Q258.0125 254.45625 258.2469 253.8ZM254.79375 252.09688L258.2625 252.09688Q258.2 251.3 257.8719 250.90938Q257.35626 250.3 256.5594 250.3Q255.825 250.3 255.325 250.78438Q254.84062 251.26875 254.79375 252.09688ZM260.575 253.94063L261.60626 253.78438Q261.7 254.40938 262.09064 254.7375Q262.4969 255.06563 263.23126 255.06563Q263.95 255.06563 264.29376 254.78438Q264.65314 254.4875 264.65314 254.08125Q264.65314 253.72188 264.34064 253.51875Q264.1219 253.37813 263.2625 253.15938Q262.10626 252.8625 261.65314 252.65938Q261.21564 252.44063 260.98126 252.06563Q260.7469 251.69063 260.7469 251.22188Q260.7469 250.81563 260.9344 250.45625Q261.1219 250.09688 261.45 249.8625Q261.7 249.69063 262.1219 249.56563Q262.54376 249.44063 263.04376 249.44063Q263.7625 249.44063 264.3094 249.65938Q264.8719 249.8625 265.1375 250.22188Q265.40314 250.58125 265.4969 251.175L264.46564 251.31563Q264.40314 250.84688 264.0594 250.58125Q263.73126 250.3 263.10626 250.3Q262.3875 250.3 262.075 250.55Q261.7625 250.78438 261.7625 251.1125Q261.7625 251.31563 261.8875 251.47188Q262.02814 251.64375 262.29376 251.75313Q262.45 251.81563 263.23126 252.01875Q264.35626 252.33125 264.79376 252.51875Q265.23126 252.70625 265.48126 253.06563Q265.73126 253.425 265.73126 253.97188Q265.73126 254.50313 265.41876 254.97188Q265.1219 255.425 264.54376 255.69063Q263.96564 255.94063 263.23126 255.94063Q262.0125 255.94063 261.3719 255.44063Q260.7469 254.925 260.575 253.94063ZM267.575 253.94063L268.60626 253.78438Q268.7 254.40938 269.09064 254.7375Q269.4969 255.06563 270.23126 255.06563Q270.95 255.06563 271.29376 254.78438Q271.65314 254.4875 271.65314 254.08125Q271.65314 253.72188 271.34064 253.51875Q271.1219 253.37813 270.2625 253.15938Q269.10626 252.8625 268.65314 252.65938Q268.21564 252.44063 267.98126 252.06563Q267.7469 251.69063 267.7469 251.22188Q267.7469 250.81563 267.9344 250.45625Q268.1219 250.09688 268.45 249.8625Q268.7 249.69063 269.1219 249.56563Q269.54376 249.44063 270.04376 249.44063Q270.7625 249.44063 271.3094 249.65938Q271.8719 249.8625 272.1375 250.22188Q272.40314 250.58125 272.4969 251.175L271.46564 251.31563Q271.40314 250.84688 271.0594 250.58125Q270.73126 250.3 270.10626 250.3Q269.3875 250.3 269.075 250.55Q268.7625 250.78438 268.7625 251.1125Q268.7625 251.31563 268.8875 251.47188Q269.02814 251.64375 269.29376 251.75313Q269.45 251.81563 270.23126 252.01875Q271.35626 252.33125 271.79376 252.51875Q272.23126 252.70625 272.48126 253.06563Q272.73126 253.425 272.73126 253.97188Q272.73126 254.50313 272.41876 254.97188Q272.1219 255.425 271.54376 255.69063Q270.96564 255.94063 270.23126 255.94063Q269.0125 255.94063 268.3719 255.44063Q267.7469 254.925 267.575 253.94063ZM279.075 255.8L279.075 254.87813Q278.34064 255.94063 277.09064 255.94063Q276.54376 255.94063 276.0594 255.7375Q275.59064 255.51875 275.35626 255.20625Q275.1219 254.87813 275.02814 254.40938Q274.96564 254.1125 274.96564 253.425L274.96564 249.58125L276.02814 249.58125L276.02814 253.03438Q276.02814 253.84688 276.09064 254.14375Q276.1844 254.55 276.4969 254.8Q276.825 255.03438 277.3094 255.03438Q277.77814 255.03438 278.1844 254.8Q278.60626 254.55 278.77814 254.12813Q278.96564 253.70625 278.96564 252.90938L278.96564 249.58125L280.0125 249.58125L280.0125 255.8L279.075 255.8ZM281.9969 255.8L281.9969 249.58125L282.9344 249.58125L282.9344 250.45625Q283.6219 249.44063 284.91876 249.44063Q285.48126 249.44063 285.95 249.64375Q286.4344 249.84688 286.66876 250.175Q286.90314 250.50313 286.9969 250.94063Q287.04376 251.2375 287.04376 251.97188L287.04376 255.8L285.9969 255.8L285.9969 252.01875Q285.9969 251.3625 285.8719 251.05Q285.7469 250.7375 285.4344 250.55Q285.1219 250.34688 284.7 250.34688Q284.02814 250.34688 283.52814 250.78438Q283.04376 251.20625 283.04376 252.39375L283.04376 255.8L281.9969 255.8ZM293.0594 255.03438Q292.46564 255.53438 291.91876 255.7375Q291.3875 255.94063 290.7625 255.94063Q289.73126 255.94063 289.1844 255.44063Q288.6375 254.94063 288.6375 254.15938Q288.6375 253.70625 288.84064 253.33125Q289.04376 252.94063 289.3875 252.72188Q289.73126 252.4875 290.15314 252.37813Q290.45 252.28438 291.09064 252.20625Q292.35626 252.06563 292.96564 251.84688Q292.96564 251.62813 292.96564 251.58125Q292.96564 250.925 292.66876 250.65938Q292.2625 250.31563 291.46564 250.31563Q290.73126 250.31563 290.3719 250.58125Q290.0125 250.83125 289.84064 251.4875L288.8094 251.34688Q288.95 250.69063 289.27814 250.28438Q289.60626 249.87813 290.21564 249.65938Q290.825 249.44063 291.6219 249.44063Q292.41876 249.44063 292.91876 249.62813Q293.41876 249.81563 293.65314 250.09688Q293.8875 250.37813 293.98126 250.81563Q294.02814 251.08125 294.02814 251.78438L294.02814 253.19063Q294.02814 254.65938 294.09064 255.05Q294.16876 255.44063 294.3719 255.8L293.2625 255.8Q293.10626 255.47188 293.0594 255.03438ZM292.96564 252.675Q292.3875 252.90938 291.2469 253.08125Q290.59064 253.175 290.325 253.3Q290.0594 253.40938 289.90314 253.62813Q289.7625 253.84688 289.7625 254.12813Q289.7625 254.55 290.075 254.83125Q290.40314 255.1125 291.0125 255.1125Q291.6219 255.1125 292.09064 254.84688Q292.575 254.58125 292.79376 254.1125Q292.96564 253.75313 292.96564 253.06563L292.96564 252.675ZM303.0594 253.51875L304.09064 253.65938Q303.91876 254.72188 303.21564 255.33125Q302.5125 255.94063 301.4969 255.94063Q300.21564 255.94063 299.4344 255.1125Q298.66876 254.26875 298.66876 252.70625Q298.66876 251.70625 298.9969 250.95625Q299.34064 250.19063 300.0125 249.81563Q300.7 249.44063 301.5125 249.44063Q302.5125 249.44063 303.15314 249.95625Q303.8094 250.45625 303.9969 251.40938L302.96564 251.56563Q302.825 250.94063 302.45 250.62813Q302.075 250.3 301.54376 250.3Q300.7469 250.3 300.2469 250.87813Q299.7469 251.44063 299.7469 252.675Q299.7469 253.94063 300.23126 254.50313Q300.71564 255.06563 301.48126 255.06563Q302.10626 255.06563 302.5125 254.69063Q302.9344 254.31563 303.0594 253.51875ZM304.98126 255.8L304.98126 249.58125L305.9344 249.58125L305.9344 250.51875Q306.29376 249.8625 306.59064 249.65938Q306.90314 249.44063 307.27814 249.44063Q307.8094 249.44063 308.35626 249.76875L307.9969 250.75313Q307.60626 250.51875 307.23126 250.51875Q306.8719 250.51875 306.59064 250.7375Q306.325 250.94063 306.21564 251.31563Q306.02814 251.87813 306.02814 252.53438L306.02814 255.8L304.98126 255.8ZM308.9969 248.425L308.9969 247.20625L310.0594 247.20625L310.0594 248.425L308.9969 248.425ZM308.9969 255.8L308.9969 249.58125L310.0594 249.58125L310.0594 255.8L308.9969 255.8ZM314.29376 254.8625L314.45 255.78438Q313.9969 255.87813 313.65314 255.87813Q313.075 255.87813 312.7625 255.70625Q312.45 255.51875 312.3094 255.22188Q312.1844 254.925 312.1844 253.97188L312.1844 250.39375L311.41876 250.39375L311.41876 249.58125L312.1844 249.58125L312.1844 248.03438L313.23126 247.40938L313.23126 249.58125L314.29376 249.58125L314.29376 250.39375L313.23126 250.39375L313.23126 254.03438Q313.23126 254.4875 313.27814 254.6125Q313.34064 254.7375 313.46564 254.81563Q313.59064 254.89375 313.825 254.89375Q314.0125 254.89375 314.29376 254.8625ZM314.9969 248.425L314.9969 247.20625L316.0594 247.20625L316.0594 248.425L314.9969 248.425ZM314.9969 255.8L314.9969 249.58125L316.0594 249.58125L316.0594 255.8L314.9969 255.8ZM322.0594 253.51875L323.09064 253.65938Q322.91876 254.72188 322.21564 255.33125Q321.5125 255.94063 320.4969 255.94063Q319.21564 255.94063 318.4344 255.1125Q317.66876 254.26875 317.66876 252.70625Q317.66876 251.70625 317.9969 250.95625Q318.34064 250.19063 319.0125 249.81563Q319.7 249.44063 320.5125 249.44063Q321.5125 249.44063 322.15314 249.95625Q322.8094 250.45625 322.9969 251.40938L321.96564 251.56563Q321.825 250.94063 321.45 250.62813Q321.075 250.3 320.54376 250.3Q319.7469 250.3 319.2469 250.87813Q318.7469 251.44063 318.7469 252.675Q318.7469 253.94063 319.23126 254.50313Q319.71564 255.06563 320.48126 255.06563Q321.10626 255.06563 321.5125 254.69063Q321.9344 254.31563 322.0594 253.51875ZM323.9969 248.425L323.9969 247.20625L325.0594 247.20625L325.0594 248.425L323.9969 248.425ZM323.9969 255.8L323.9969 249.58125L325.0594 249.58125L325.0594 255.8L323.9969 255.8ZM329.29376 254.8625L329.45 255.78438Q328.9969 255.87813 328.65314 255.87813Q328.075 255.87813 327.7625 255.70625Q327.45 255.51875 327.3094 255.22188Q327.1844 254.925 327.1844 253.97188L327.1844 250.39375L326.41876 250.39375L326.41876 249.58125L327.1844 249.58125L327.1844 248.03438L328.23126 247.40938L328.23126 249.58125L329.29376 249.58125L329.29376 250.39375L328.23126 250.39375L328.23126 254.03438Q328.23126 254.4875 328.27814 254.6125Q328.34064 254.7375 328.46564 254.81563Q328.59064 254.89375 328.825 254.89375Q329.0125 254.89375 329.29376 254.8625ZM334.0594 255.03438Q333.46564 255.53438 332.91876 255.7375Q332.3875 255.94063 331.7625 255.94063Q330.73126 255.94063 330.1844 255.44063Q329.6375 254.94063 329.6375 254.15938Q329.6375 253.70625 329.84064 253.33125Q330.04376 252.94063 330.3875 252.72188Q330.73126 252.4875 331.15314 252.37813Q331.45 252.28438 332.09064 252.20625Q333.35626 252.06563 333.96564 251.84688Q333.96564 251.62813 333.96564 251.58125Q333.96564 250.925 333.66876 250.65938Q333.2625 250.31563 332.46564 250.31563Q331.73126 250.31563 331.3719 250.58125Q331.0125 250.83125 330.84064 251.4875L329.8094 251.34688Q329.95 250.69063 330.27814 250.28438Q330.60626 249.87813 331.21564 249.65938Q331.825 249.44063 332.6219 249.44063Q333.41876 249.44063 333.91876 249.62813Q334.41876 249.81563 334.65314 250.09688Q334.8875 250.37813 334.98126 250.81563Q335.02814 251.08125 335.02814 251.78438L335.02814 253.19063Q335.02814 254.65938 335.09064 255.05Q335.16876 255.44063 335.3719 255.8L334.2625 255.8Q334.10626 255.47188 334.0594 255.03438ZM333.96564 252.675Q333.3875 252.90938 332.2469 253.08125Q331.59064 253.175 331.325 253.3Q331.0594 253.40938 330.90314 253.62813Q330.7625 253.84688 330.7625 254.12813Q330.7625 254.55 331.075 254.83125Q331.40314 255.1125 332.0125 255.1125Q332.6219 255.1125 333.09064 254.84688Q333.575 254.58125 333.79376 254.1125Q333.96564 253.75313 333.96564 253.06563L333.96564 252.675ZM333.3875 248.8L332.54376 248.8L331.1844 247.15938L332.60626 247.15938L333.3875 248.8Z" fill-rule="nonzero"/><path fill="#34a853" d="M364.2 251.8C364.2 255.11371 361.5137 257.8 358.2 257.8C354.8863 257.8 352.2 255.11371 352.2 251.8C352.2 248.4863 354.8863 245.8 358.2 245.8C361.5137 245.8 364.2 248.4863 364.2 251.8Z" fill-rule="nonzero"/><path fill="#1a1a1a" d="M373.1219 255.8L373.1219 247.20625L376.3719 247.20625Q377.21564 247.20625 377.66876 247.28438Q378.3094 247.39375 378.73126 247.69063Q379.16876 247.9875 379.41876 248.51875Q379.6844 249.05 379.6844 249.69063Q379.6844 250.78438 378.98126 251.55Q378.29376 252.3 376.46564 252.3L374.2625 252.3L374.2625 255.8L373.1219 255.8ZM374.2625 251.3L376.48126 251.3Q377.59064 251.3 378.04376 250.89375Q378.5125 250.47188 378.5125 249.72188Q378.5125 249.19063 378.23126 248.81563Q377.96564 248.425 377.52814 248.3Q377.23126 248.22188 376.46564 248.22188L374.2625 248.22188L374.2625 251.3ZM380.60626 252.69063Q380.60626 250.95625 381.5594 250.12813Q382.35626 249.44063 383.5125 249.44063Q384.79376 249.44063 385.60626 250.28438Q386.4344 251.1125 386.4344 252.59688Q386.4344 253.8 386.075 254.4875Q385.71564 255.175 385.0125 255.56563Q384.325 255.94063 383.5125 255.94063Q382.21564 255.94063 381.40314 255.1125Q380.60626 254.26875 380.60626 252.69063ZM381.6844 252.69063Q381.6844 253.87813 382.2 254.47188Q382.73126 255.06563 383.5125 255.06563Q384.3094 255.06563 384.825 254.47188Q385.34064 253.87813 385.34064 252.65938Q385.34064 251.50313 384.8094 250.90938Q384.29376 250.31563 383.5125 250.31563Q382.73126 250.31563 382.2 250.90938Q381.6844 251.4875 381.6844 252.69063ZM392.0594 253.51875L393.09064 253.65938Q392.91876 254.72188 392.21564 255.33125Q391.5125 255.94063 390.4969 255.94063Q389.21564 255.94063 388.4344 255.1125Q387.66876 254.26875 387.66876 252.70625Q387.66876 251.70625 387.9969 250.95625Q388.34064 250.19063 389.0125 249.81563Q389.7 249.44063 390.5125 249.44063Q391.5125 249.44063 392.15314 249.95625Q392.8094 250.45625 392.9969 251.40938L391.96564 251.56563Q391.825 250.94063 391.45 250.62813Q391.075 250.3 390.54376 250.3Q389.7469 250.3 389.2469 250.87813Q388.7469 251.44063 388.7469 252.675Q388.7469 253.94063 389.23126 254.50313Q389.71564 255.06563 390.48126 255.06563Q391.10626 255.06563 391.5125 254.69063Q391.9344 254.31563 392.0594 253.51875ZM393.60626 252.69063Q393.60626 250.95625 394.5594 250.12813Q395.35626 249.44063 396.5125 249.44063Q397.79376 249.44063 398.60626 250.28438Q399.4344 251.1125 399.4344 252.59688Q399.4344 253.8 399.075 254.4875Q398.71564 255.175 398.0125 255.56563Q397.325 255.94063 396.5125 255.94063Q395.21564 255.94063 394.40314 255.1125Q393.60626 254.26875 393.60626 252.69063ZM394.6844 252.69063Q394.6844 253.87813 395.2 254.47188Q395.73126 255.06563 396.5125 255.06563Q397.3094 255.06563 397.825 254.47188Q398.34064 253.87813 398.34064 252.65938Q398.34064 251.50313 397.8094 250.90938Q397.29376 250.31563 396.5125 250.31563Q395.73126 250.31563 395.2 250.90938Q394.6844 251.4875 394.6844 252.69063ZM408.02814 255.8L408.02814 255.01875Q407.4344 255.94063 406.29376 255.94063Q405.54376 255.94063 404.91876 255.53438Q404.29376 255.1125 403.95 254.37813Q403.60626 253.64375 403.60626 252.69063Q403.60626 251.76875 403.91876 251.00313Q404.23126 250.2375 404.85626 249.84688Q405.48126 249.44063 406.2469 249.44063Q406.8094 249.44063 407.2469 249.675Q407.6844 249.90938 407.96564 250.28438L407.96564 247.20625L409.0125 247.20625L409.0125 255.8L408.02814 255.8ZM404.7 252.69063Q404.7 253.89375 405.2 254.4875Q405.7 255.06563 406.3875 255.06563Q407.075 255.06563 407.5594 254.50313Q408.04376 253.94063 408.04376 252.78438Q408.04376 251.50313 407.54376 250.90938Q407.0594 250.31563 406.34064 250.31563Q405.6375 250.31563 405.16876 250.89375Q404.7 251.45625 404.7 252.69063ZM415.2469 253.8L416.34064 253.925Q416.09064 254.87813 415.3875 255.40938Q414.6844 255.94063 413.60626 255.94063Q412.2469 255.94063 411.4344 255.09688Q410.6375 254.25313 410.6375 252.7375Q410.6375 251.175 411.45 250.31563Q412.2625 249.44063 413.54376 249.44063Q414.79376 249.44063 415.575 250.28438Q416.3719 251.12813 416.3719 252.675Q416.3719 252.76875 416.3719 252.95625L411.73126 252.95625Q411.79376 253.9875 412.3094 254.53438Q412.825 255.06563 413.60626 255.06563Q414.1844 255.06563 414.59064 254.76875Q415.0125 254.45625 415.2469 253.8ZM411.79376 252.09688L415.2625 252.09688Q415.2 251.3 414.8719 250.90938Q414.35626 250.3 413.5594 250.3Q412.825 250.3 412.325 250.78438Q411.84064 251.26875 411.79376 252.09688ZM420.29376 254.8625L420.45 255.78438Q419.9969 255.87813 419.65314 255.87813Q419.075 255.87813 418.7625 255.70625Q418.45 255.51875 418.3094 255.22188Q418.1844 254.925 418.1844 253.97188L418.1844 250.39375L417.41876 250.39375L417.41876 249.58125L418.1844 249.58125L418.1844 248.03438L419.23126 247.40938L419.23126 249.58125L420.29376 249.58125L420.29376 250.39375L419.23126 250.39375L419.23126 254.03438Q419.23126 254.4875 419.27814 254.6125Q419.34064 254.7375 419.46564 254.81563Q419.59064 254.89375 419.825 254.89375Q420.0125 254.89375 420.29376 254.8625ZM423.29376 254.8625L423.45 255.78438Q422.9969 255.87813 422.65314 255.87813Q422.075 255.87813 421.7625 255.70625Q421.45 255.51875 421.3094 255.22188Q421.1844 254.925 421.1844 253.97188L421.1844 250.39375L420.41876 250.39375L420.41876 249.58125L421.1844 249.58125L421.1844 248.03438L422.23126 247.40938L422.23126 249.58125L423.29376 249.58125L423.29376 250.39375L422.23126 250.39375L422.23126 254.03438Q422.23126 254.4875 422.27814 254.6125Q422.34064 254.7375 422.46564 254.81563Q422.59064 254.89375 422.825 254.89375Q423.0125 254.89375 423.29376 254.8625ZM428.0594 255.03438Q427.46564 255.53438 426.91876 255.7375Q426.3875 255.94063 425.7625 255.94063Q424.73126 255.94063 424.1844 255.44063Q423.6375 254.94063 423.6375 254.15938Q423.6375 253.70625 423.84064 253.33125Q424.04376 252.94063 424.3875 252.72188Q424.73126 252.4875 425.15314 252.37813Q425.45 252.28438 426.09064 252.20625Q427.35626 252.06563 427.96564 251.84688Q427.96564 251.62813 427.96564 251.58125Q427.96564 250.925 427.66876 250.65938Q427.2625 250.31563 426.46564 250.31563Q425.73126 250.31563 425.3719 250.58125Q425.0125 250.83125 424.84064 251.4875L423.8094 251.34688Q423.95 250.69063 424.27814 250.28438Q424.60626 249.87813 425.21564 249.65938Q425.825 249.44063 426.6219 249.44063Q427.41876 249.44063 427.91876 249.62813Q428.41876 249.81563 428.65314 250.09688Q428.8875 250.37813 428.98126 250.81563Q429.02814 251.08125 429.02814 251.78438L429.02814 253.19063Q429.02814 254.65938 429.09064 255.05Q429.16876 255.44063 429.3719 255.8L428.2625 255.8Q428.10626 255.47188 428.0594 255.03438ZM427.96564 252.675Q427.3875 252.90938 426.2469 253.08125Q425.59064 253.175 425.325 253.3Q425.0594 253.40938 424.90314 253.62813Q424.7625 253.84688 424.7625 254.12813Q424.7625 254.55 425.075 254.83125Q425.40314 255.1125 426.0125 255.1125Q426.6219 255.1125 427.09064 254.84688Q427.575 254.58125 427.79376 254.1125Q427.96564 253.75313 427.96564 253.06563L427.96564 252.675ZM430.79376 256.3156L431.825 256.47186Q431.8875 256.9406 432.1844 257.15936Q432.575 257.45624 433.2469 257.45624Q433.98126 257.45624 434.3719 257.15936Q434.77814 256.8625 434.91876 256.34686Q435.0125 256.01874 434.9969 254.9875Q434.3094 255.8 433.27814 255.8Q431.9969 255.8 431.29376 254.87813Q430.59064 253.94063 430.59064 252.65938Q430.59064 251.76875 430.90314 251.01875Q431.23126 250.25313 431.84064 249.84688Q432.45 249.44063 433.27814 249.44063Q434.3875 249.44063 435.10626 250.33125L435.10626 249.58125L436.075 249.58125L436.075 254.95625Q436.075 256.40936 435.77814 257.01874Q435.48126 257.6281 434.84064 257.97186Q434.2 258.33124 433.2625 258.33124Q432.15314 258.33124 431.46564 257.83124Q430.77814 257.33124 430.79376 256.3156ZM431.66876 252.58125Q431.66876 253.8 432.15314 254.3625Q432.6375 254.925 433.3719 254.925Q434.10626 254.925 434.59064 254.3625Q435.09064 253.8 435.09064 252.6125Q435.09064 251.47188 434.575 250.89375Q434.075 250.31563 433.35626 250.31563Q432.65314 250.31563 432.15314 250.89375Q431.66876 251.45625 431.66876 252.58125ZM437.96564 255.8L437.96564 247.20625L439.02814 247.20625L439.02814 255.8L437.96564 255.8ZM440.9969 248.425L440.9969 247.20625L442.0594 247.20625L442.0594 248.425L440.9969 248.425ZM440.9969 255.8L440.9969 249.58125L442.0594 249.58125L442.0594 255.8L440.9969 255.8ZM448.0594 255.03438Q447.46564 255.53438 446.91876 255.7375Q446.3875 255.94063 445.7625 255.94063Q444.73126 255.94063 444.1844 255.44063Q443.6375 254.94063 443.6375 254.15938Q443.6375 253.70625 443.84064 253.33125Q444.04376 252.94063 444.3875 252.72188Q444.73126 252.4875 445.15314 252.37813Q445.45 252.28438 446.09064 252.20625Q447.35626 252.06563 447.96564 251.84688Q447.96564 251.62813 447.96564 251.58125Q447.96564 250.925 447.66876 250.65938Q447.2625 250.31563 446.46564 250.31563Q445.73126 250.31563 445.3719 250.58125Q445.0125 250.83125 444.84064 251.4875L443.8094 251.34688Q443.95 250.69063 444.27814 250.28438Q444.60626 249.87813 445.21564 249.65938Q445.825 249.44063 446.6219 249.44063Q447.41876 249.44063 447.91876 249.62813Q448.41876 249.81563 448.65314 250.09688Q448.8875 250.37813 448.98126 250.81563Q449.02814 251.08125 449.02814 251.78438L449.02814 253.19063Q449.02814 254.65938 449.09064 255.05Q449.16876 255.44063 449.3719 255.8L448.2625 255.8Q448.10626 255.47188 448.0594 255.03438ZM447.96564 252.675Q447.3875 252.90938 446.2469 253.08125Q445.59064 253.175 445.325 253.3Q445.0594 253.40938 444.90314 253.62813Q444.7625 253.84688 444.7625 254.12813Q444.7625 254.55 445.075 254.83125Q445.40314 255.1125 446.0125 255.1125Q446.6219 255.1125 447.09064 254.84688Q447.575 254.58125 447.79376 254.1125Q447.96564 253.75313 447.96564 253.06563L447.96564 252.675ZM453.29376 254.8625L453.45 255.78438Q452.9969 255.87813 452.65314 255.87813Q452.075 255.87813 451.7625 255.70625Q451.45 255.51875 451.3094 255.22188Q451.1844 254.925 451.1844 253.97188L451.1844 250.39375L450.41876 250.39375L450.41876 249.58125L451.1844 249.58125L451.1844 248.03438L452.23126 247.40938L452.23126 249.58125L453.29376 249.58125L453.29376 250.39375L452.23126 250.39375L452.23126 254.03438Q452.23126 254.4875 452.27814 254.6125Q452.34064 254.7375 452.46564 254.81563Q452.59064 254.89375 452.825 254.89375Q453.0125 254.89375 453.29376 254.8625ZM458.2469 253.8L459.34064 253.925Q459.09064 254.87813 458.3875 255.40938Q457.6844 255.94063 456.60626 255.94063Q455.2469 255.94063 454.4344 255.09688Q453.6375 254.25313 453.6375 252.7375Q453.6375 251.175 454.45 250.31563Q455.2625 249.44063 456.54376 249.44063Q457.79376 249.44063 458.575 250.28438Q459.3719 251.12813 459.3719 252.675Q459.3719 252.76875 459.3719 252.95625L454.73126 252.95625Q454.79376 253.9875 455.3094 254.53438Q455.825 255.06563 456.60626 255.06563Q457.1844 255.06563 457.59064 254.76875Q458.0125 254.45625 458.2469 253.8ZM454.79376 252.09688L458.2625 252.09688Q458.2 251.3 457.8719 250.90938Q457.35626 250.3 456.5594 250.3Q455.825 250.3 455.325 250.78438Q454.84064 251.26875 454.79376 252.09688Z" fill-rule="nonzero"/><path fill="#757575" d="M27.590626 32.66875Q28.91875 33.575 30.028126 33.996876L29.465626 35.309376Q27.91875 34.7625 26.3875 33.559376Q24.79375 34.45 22.871876 34.45Q20.934376 34.45 19.340626 33.5125Q17.7625 32.575 16.903126 30.871876Q16.059376 29.16875 16.059376 27.04375Q16.059376 24.91875 16.91875 23.184376Q17.778126 21.45 19.35625 20.54375Q20.95 19.621876 22.91875 19.621876Q24.903126 19.621876 26.48125 20.575Q28.075 21.5125 28.903126 23.215626Q29.746876 24.903126 29.746876 27.028126Q29.746876 28.79375 29.215626 30.215626Q28.684376 31.621876 27.590626 32.66875ZM23.41875 30.246876Q25.059376 30.7 26.121876 31.60625Q27.79375 30.090626 27.79375 27.028126Q27.79375 25.29375 27.2 23.996876Q26.621876 22.7 25.48125 21.98125Q24.340626 21.2625 22.91875 21.2625Q20.809376 21.2625 19.403126 22.715626Q18.0125 24.153126 18.0125 27.04375Q18.0125 29.840626 19.3875 31.340626Q20.778126 32.825 22.91875 32.825Q23.934376 32.825 24.840626 32.434376Q23.95 31.871876 22.965626 31.621876L23.41875 30.246876ZM39.309376 34.2L39.309376 32.66875Q38.10625 34.434376 36.028126 34.434376Q35.10625 34.434376 34.309376 34.090626Q33.5125 33.73125 33.121876 33.2Q32.746876 32.66875 32.590626 31.8875Q32.48125 31.371876 32.48125 30.246876L32.48125 23.825L34.23125 23.825L34.23125 29.575Q34.23125 30.95 34.340626 31.434376Q34.5125 32.121876 35.04375 32.528126Q35.590626 32.91875 36.371876 32.91875Q37.16875 32.91875 37.85625 32.5125Q38.559376 32.10625 38.840626 31.41875Q39.1375 30.715626 39.1375 29.3875L39.1375 23.825L40.8875 23.825L40.8875 34.2L39.309376 34.2ZM49.29375 32.91875Q48.309376 33.746876 47.403126 34.090626Q46.496876 34.434376 45.465626 34.434376Q43.7625 34.434376 42.840626 33.60625Q41.91875 32.7625 41.91875 31.465626Q41.91875 30.7 42.2625 30.075Q42.621876 29.45 43.184376 29.075Q43.746876 28.684376 44.45 28.48125Q44.965626 28.35625 46.0125 28.215626Q48.1375 27.965626 49.1375 27.621876Q49.153126 27.2625 49.153126 27.153126Q49.153126 26.090626 48.653126 25.6375Q47.98125 25.04375 46.653126 25.04375Q45.403126 25.04375 44.809376 25.48125Q44.23125 25.91875 43.95 27.028126L42.23125 26.79375Q42.465626 25.684376 42.996876 25.0125Q43.528126 24.325 44.54375 23.965626Q45.559376 23.590626 46.903126 23.590626Q48.23125 23.590626 49.059376 23.903126Q49.8875 24.215626 50.278126 24.7Q50.66875 25.16875 50.825 25.8875Q50.91875 26.340626 50.91875 27.5125L50.91875 29.85625Q50.91875 32.309376 51.028126 32.965626Q51.1375 33.60625 51.48125 34.2L49.6375 34.2Q49.371876 33.653126 49.29375 32.91875ZM49.1375 28.996876Q48.184376 29.3875 46.2625 29.653126Q45.184376 29.809376 44.73125 30.0125Q44.29375 30.2 44.04375 30.575Q43.79375 30.95 43.79375 31.41875Q43.79375 32.121876 44.325 32.590626Q44.85625 33.059376 45.8875 33.059376Q46.903126 33.059376 47.684376 32.621876Q48.48125 32.16875 48.85625 31.403126Q49.1375 30.79375 49.1375 29.6375L49.1375 28.996876ZM53.48125 34.2L53.48125 19.8875L55.23125 19.8875L55.23125 34.2L53.48125 34.2ZM57.528126 21.903126L57.528126 19.8875L59.29375 19.8875L59.29375 21.903126L57.528126 21.903126ZM57.528126 34.2L57.528126 23.825L59.29375 23.825L59.29375 34.2L57.528126 34.2ZM66.80937 31.10625L68.55937 30.825Q68.7 31.871876 69.37187 32.434376Q70.04375 32.98125 71.24687 32.98125Q72.45 32.98125 73.02812 32.496876Q73.62187 31.996876 73.62187 31.340626Q73.62187 30.746876 73.10625 30.403126Q72.74687 30.16875 71.30937 29.809376Q69.37187 29.309376 68.62187 28.965626Q67.8875 28.60625 67.49687 27.98125Q67.10625 27.340626 67.10625 26.575Q67.10625 25.8875 67.41875 25.29375Q67.74687 24.7 68.29375 24.309376Q68.7 24.0125 69.40312 23.809376Q70.12187 23.590626 70.93437 23.590626Q72.15312 23.590626 73.075 23.95Q73.99687 24.29375 74.43437 24.903126Q74.87187 25.496876 75.04375 26.496876L73.325 26.73125Q73.2 25.934376 72.6375 25.496876Q72.075 25.04375 71.05937 25.04375Q69.84062 25.04375 69.325 25.45Q68.80937 25.840626 68.80937 26.371876Q68.80937 26.715626 69.02812 26.996876Q69.23125 27.278126 69.7 27.465626Q69.96562 27.559376 71.24687 27.903126Q73.12187 28.403126 73.85625 28.73125Q74.59062 29.04375 75.0125 29.653126Q75.43437 30.246876 75.43437 31.153126Q75.43437 32.028126 74.91875 32.809376Q74.40312 33.590626 73.43437 34.0125Q72.46562 34.434376 71.24687 34.434376Q69.23125 34.434376 68.16875 33.590626Q67.10625 32.746876 66.80937 31.10625ZM76.87187 29.0125Q76.87187 26.1375 78.46562 24.746876Q79.80937 23.590626 81.73125 23.590626Q83.87187 23.590626 85.21562 24.996876Q86.575 26.403126 86.575 28.871876Q86.575 30.871876 85.98125 32.028126Q85.3875 33.16875 84.23125 33.809376Q83.09062 34.434376 81.73125 34.434376Q79.54375 34.434376 78.2 33.04375Q76.87187 31.6375 76.87187 29.0125ZM78.66875 29.0125Q78.66875 31.0125 79.52812 31.996876Q80.40312 32.98125 81.73125 32.98125Q83.04375 32.98125 83.90312 31.996876Q84.77812 30.996876 84.77812 28.95Q84.77812 27.028126 83.90312 26.04375Q83.02812 25.04375 81.73125 25.04375Q80.40312 25.04375 79.52812 26.04375Q78.66875 27.028126 78.66875 29.0125ZM88.5125 34.2L88.5125 23.825L90.10625 23.825L90.10625 25.309376Q91.24687 23.590626 93.40312 23.590626Q94.34062 23.590626 95.12187 23.934376Q95.91875 24.2625 96.30937 24.809376Q96.7 25.35625 96.85625 26.10625Q96.95 26.60625 96.95 27.825L96.95 34.2L95.18437 34.2L95.18437 27.8875Q95.18437 26.809376 94.98125 26.278126Q94.77812 25.746876 94.24687 25.434376Q93.73125 25.121876 93.02812 25.121876Q91.90312 25.121876 91.09062 25.840626Q90.27812 26.54375 90.27812 28.528126L90.27812 34.2L88.5125 34.2ZM97.87187 29.0125Q97.87187 26.1375 99.46562 24.746876Q100.80937 23.590626 102.73125 23.590626Q104.87187 23.590626 106.21562 24.996876Q107.575 26.403126 107.575 28.871876Q107.575 30.871876 106.98125 32.028126Q106.3875 33.16875 105.23125 33.809376Q104.09062 34.434376 102.73125 34.434376Q100.54375 34.434376 99.2 33.04375Q97.87187 31.6375 97.87187 29.0125ZM99.66875 29.0125Q99.66875 31.0125 100.52812 31.996876Q101.40312 32.98125 102.73125 32.98125Q104.04375 32.98125 104.90312 31.996876Q105.77812 30.996876 105.77812 28.95Q105.77812 27.028126 104.90312 26.04375Q104.02812 25.04375 102.73125 25.04375Q101.40312 25.04375 100.52812 26.04375Q99.66875 27.028126 99.66875 29.0125ZM115.48125 34.2L115.48125 19.8875L117.23125 19.8875L117.23125 34.2L115.48125 34.2ZM126.62187 30.85625L128.43437 31.090626Q128.0125 32.66875 126.84062 33.559376Q125.68437 34.434376 123.87187 34.434376Q121.60625 34.434376 120.2625 33.04375Q118.93437 31.6375 118.93437 29.10625Q118.93437 26.48125 120.27812 25.04375Q121.62187 23.590626 123.77812 23.590626Q125.85625 23.590626 127.16875 25.0125Q128.49687 26.41875 128.49687 28.996876Q128.49687 29.153126 128.48125 29.465626L120.74687 29.465626Q120.84062 31.16875 121.71562 32.075Q122.59062 32.98125 123.8875 32.98125Q124.85625 32.98125 125.52812 32.48125Q126.21562 31.965626 126.62187 30.85625ZM120.84062 28.0125L126.6375 28.0125Q126.52812 26.715626 125.98125 26.059376Q125.1375 25.04375 123.79375 25.04375Q122.59062 25.04375 121.7625 25.85625Q120.93437 26.653126 120.84062 28.0125ZM136.5125 38.16875L136.5125 23.825L138.12187 23.825L138.12187 25.16875Q138.68437 24.3875 139.3875 23.996876Q140.10625 23.590626 141.12187 23.590626Q142.45 23.590626 143.46562 24.278126Q144.48125 24.965626 144.99687 26.215626Q145.52812 27.45 145.52812 28.934376Q145.52812 30.528126 144.95 31.809376Q144.3875 33.075 143.29375 33.7625Q142.2 34.434376 140.99687 34.434376Q140.12187 34.434376 139.41875 34.059376Q138.73125 33.684376 138.27812 33.121876L138.27812 38.16875L136.5125 38.16875ZM138.10625 29.075Q138.10625 31.075 138.91875 32.028126Q139.73125 32.98125 140.8875 32.98125Q142.05937 32.98125 142.8875 31.996876Q143.73125 31.0125 143.73125 28.91875Q143.73125 26.95 142.90312 25.965626Q142.09062 24.965626 140.96562 24.965626Q139.84062 24.965626 138.96562 26.028126Q138.10625 27.075 138.10625 29.075ZM147.49687 34.2L147.49687 23.825L149.075 23.825L149.075 25.403126Q149.68437 24.29375 150.2 23.95Q150.71562 23.590626 151.325 23.590626Q152.21562 23.590626 153.1375 24.153126L152.52812 25.79375Q151.8875 25.403126 151.24687 25.403126Q150.66875 25.403126 150.2 25.7625Q149.74687 26.10625 149.54375 26.715626Q149.2625 27.653126 149.2625 28.7625L149.2625 34.2L147.49687 34.2ZM154.52812 21.903126L154.52812 19.8875L156.29375 19.8875L156.29375 21.903126L154.52812 21.903126ZM154.52812 34.2L154.52812 23.825L156.29375 23.825L156.29375 34.2L154.52812 34.2ZM158.5125 34.2L158.5125 23.825L160.10625 23.825L160.10625 25.309376Q161.24687 23.590626 163.40312 23.590626Q164.34062 23.590626 165.12187 23.934376Q165.91875 24.2625 166.30937 24.809376Q166.7 25.35625 166.85625 26.10625Q166.95 26.60625 166.95 27.825L166.95 34.2L165.18437 34.2L165.18437 27.8875Q165.18437 26.809376 164.98125 26.278126Q164.77812 25.746876 164.24687 25.434376Q163.73125 25.121876 163.02812 25.121876Q161.90312 25.121876 161.09062 25.840626Q160.27812 26.54375 160.27812 28.528126L160.27812 34.2L158.5125 34.2ZM175.29375 30.403126L177.0125 30.621876Q176.73125 32.41875 175.55937 33.434376Q174.40312 34.434376 172.7 34.434376Q170.575 34.434376 169.27812 33.04375Q167.98125 31.653126 167.98125 29.059376Q167.98125 27.371876 168.52812 26.121876Q169.09062 24.85625 170.23125 24.23125Q171.37187 23.590626 172.71562 23.590626Q174.40312 23.590626 175.46562 24.45Q176.54375 25.309376 176.85625 26.871876L175.1375 27.1375Q174.90312 26.090626 174.27812 25.575Q173.65312 25.04375 172.77812 25.04375Q171.45 25.04375 170.62187 25.996876Q169.79375 26.95 169.79375 28.996876Q169.79375 31.090626 170.59062 32.04375Q171.3875 32.98125 172.68437 32.98125Q173.71562 32.98125 174.40312 32.35625Q175.10625 31.715626 175.29375 30.403126ZM178.52812 21.903126L178.52812 19.8875L180.29375 19.8875L180.29375 21.903126L178.52812 21.903126ZM178.52812 34.2L178.52812 23.825L180.29375 23.825L180.29375 34.2L178.52812 34.2ZM182.5125 38.16875L182.5125 23.825L184.12187 23.825L184.12187 25.16875Q184.68437 24.3875 185.3875 23.996876Q186.10625 23.590626 187.12187 23.590626Q188.45 23.590626 189.46562 24.278126Q190.48125 24.965626 190.99687 26.215626Q191.52812 27.45 191.52812 28.934376Q191.52812 30.528126 190.95 31.809376Q190.3875 33.075 189.29375 33.7625Q188.2 34.434376 186.99687 34.434376Q186.12187 34.434376 185.41875 34.059376Q184.73125 33.684376 184.27812 33.121876L184.27812 38.16875L182.5125 38.16875ZM184.10625 29.075Q184.10625 31.075 184.91875 32.028126Q185.73125 32.98125 186.8875 32.98125Q188.05937 32.98125 188.8875 31.996876Q189.73125 31.0125 189.73125 28.91875Q189.73125 26.95 188.90312 25.965626Q188.09062 24.965626 186.96562 24.965626Q185.84062 24.965626 184.96562 26.028126Q184.10625 27.075 184.10625 29.075ZM200.29375 32.91875Q199.30937 33.746876 198.40312 34.090626Q197.49687 34.434376 196.46562 34.434376Q194.7625 34.434376 193.84062 33.60625Q192.91875 32.7625 192.91875 31.465626Q192.91875 30.7 193.2625 30.075Q193.62187 29.45 194.18437 29.075Q194.74687 28.684376 195.45 28.48125Q195.96562 28.35625 197.0125 28.215626Q199.1375 27.965626 200.1375 27.621876Q200.15312 27.2625 200.15312 27.153126Q200.15312 26.090626 199.65312 25.6375Q198.98125 25.04375 197.65312 25.04375Q196.40312 25.04375 195.80937 25.48125Q195.23125 25.91875 194.95 27.028126L193.23125 26.79375Q193.46562 25.684376 193.99687 25.0125Q194.52812 24.325 195.54375 23.965626Q196.55937 23.590626 197.90312 23.590626Q199.23125 23.590626 200.05937 23.903126Q200.8875 24.215626 201.27812 24.7Q201.66875 25.16875 201.825 25.8875Q201.91875 26.340626 201.91875 27.5125L201.91875 29.85625Q201.91875 32.309376 202.02812 32.965626Q202.1375 33.60625 202.48125 34.2L200.6375 34.2Q200.37187 33.653126 200.29375 32.91875ZM200.1375 28.996876Q199.18437 29.3875 197.2625 29.653126Q196.18437 29.809376 195.73125 30.0125Q195.29375 30.2 195.04375 30.575Q194.79375 30.95 194.79375 31.41875Q194.79375 32.121876 195.325 32.590626Q195.85625 33.059376 196.8875 33.059376Q197.90312 33.059376 198.68437 32.621876Q199.48125 32.16875 199.85625 31.403126Q200.1375 30.79375 200.1375 29.6375L200.1375 28.996876ZM204.48125 34.2L204.48125 19.8875L206.23125 19.8875L206.23125 34.2L204.48125 34.2ZM208.52812 21.903126L208.52812 19.8875L210.29375 19.8875L210.29375 21.903126L208.52812 21.903126ZM208.52812 34.2L208.52812 23.825L210.29375 23.825L210.29375 34.2L208.52812 34.2ZM225.29375 30.403126L227.0125 30.621876Q226.73125 32.41875 225.55937 33.434376Q224.40312 34.434376 222.7 34.434376Q220.575 34.434376 219.27812 33.04375Q217.98125 31.653126 217.98125 29.059376Q217.98125 27.371876 218.52812 26.121876Q219.09062 24.85625 220.23125 24.23125Q221.37187 23.590626 222.71562 23.590626Q224.40312 23.590626 225.46562 24.45Q226.54375 25.309376 226.85625 26.871876L225.1375 27.1375Q224.90312 26.090626 224.27812 25.575Q223.65312 25.04375 222.77812 25.04375Q221.45 25.04375 220.62187 25.996876Q219.79375 26.95 219.79375 28.996876Q219.79375 31.090626 220.59062 32.04375Q221.3875 32.98125 222.68437 32.98125Q223.71562 32.98125 224.40312 32.35625Q225.10625 31.715626 225.29375 30.403126ZM228.49687 34.2L228.49687 23.825L230.075 23.825L230.075 25.403126Q230.68437 24.29375 231.2 23.95Q231.71562 23.590626 232.325 23.590626Q233.21562 23.590626 234.1375 24.153126L233.52812 25.79375Q232.8875 25.403126 232.24687 25.403126Q231.66875 25.403126 231.2 25.7625Q230.74687 26.10625 230.54375 26.715626Q230.2625 27.653126 230.2625 28.7625L230.2625 34.2L228.49687 34.2ZM235.52812 21.903126L235.52812 19.8875L237.29375 19.8875L237.29375 21.903126L235.52812 21.903126ZM235.52812 34.2L235.52812 23.825L237.29375 23.825L237.29375 34.2L235.52812 34.2ZM243.35625 32.621876L243.60625 34.184376Q242.87187 34.340626 242.27812 34.340626Q241.325 34.340626 240.79375 34.04375Q240.27812 33.73125 240.05937 33.246876Q239.84062 32.746876 239.84062 31.16875L239.84062 25.2L238.55937 25.2L238.55937 23.825L239.84062 23.825L239.84062 21.2625L241.59062 20.2L241.59062 23.825L243.35625 23.825L243.35625 25.2L241.59062 25.2L241.59062 31.2625Q241.59062 32.0125 241.68437 32.23125Q241.77812 32.434376 241.98125 32.575Q242.2 32.7 242.59062 32.7Q242.87187 32.7 243.35625 32.621876ZM245.52812 21.903126L245.52812 19.8875L247.29375 19.8875L247.29375 21.903126L245.52812 21.903126ZM245.52812 34.2L245.52812 23.825L247.29375 23.825L247.29375 34.2L245.52812 34.2ZM256.29376 30.403126L258.0125 30.621876Q257.73126 32.41875 256.5594 33.434376Q255.40312 34.434376 253.7 34.434376Q251.575 34.434376 250.27812 33.04375Q248.98125 31.653126 248.98125 29.059376Q248.98125 27.371876 249.52812 26.121876Q250.09062 24.85625 251.23125 24.23125Q252.37187 23.590626 253.71562 23.590626Q255.40312 23.590626 256.46564 24.45Q257.54376 25.309376 257.85626 26.871876L256.1375 27.1375Q255.90312 26.090626 255.27812 25.575Q254.65312 25.04375 253.77812 25.04375Q252.45 25.04375 251.62187 25.996876Q250.79375 26.95 250.79375 28.996876Q250.79375 31.090626 251.59062 32.04375Q252.3875 32.98125 253.68437 32.98125Q254.71562 32.98125 255.40312 32.35625Q256.10626 31.715626 256.29376 30.403126ZM259.52814 21.903126L259.52814 19.8875L261.29376 19.8875L261.29376 21.903126L259.52814 21.903126ZM259.52814 34.2L259.52814 23.825L261.29376 23.825L261.29376 34.2L259.52814 34.2ZM267.35626 32.621876L267.60626 34.184376Q266.8719 34.340626 266.27814 34.340626Q265.325 34.340626 264.79376 34.04375Q264.27814 33.73125 264.0594 33.246876Q263.84064 32.746876 263.84064 31.16875L263.84064 25.2L262.5594 25.2L262.5594 23.825L263.84064 23.825L263.84064 21.2625L265.59064 20.2L265.59064 23.825L267.35626 23.825L267.35626 25.2L265.59064 25.2L265.59064 31.2625Q265.59064 32.0125 265.6844 32.23125Q265.77814 32.434376 265.98126 32.575Q266.2 32.7 266.59064 32.7Q266.8719 32.7 267.35626 32.621876ZM276.29376 32.91875Q275.3094 33.746876 274.40314 34.090626Q273.4969 34.434376 272.46564 34.434376Q270.7625 34.434376 269.84064 33.60625Q268.91876 32.7625 268.91876 31.465626Q268.91876 30.7 269.2625 30.075Q269.6219 29.45 270.1844 29.075Q270.7469 28.684376 271.45 28.48125Q271.96564 28.35625 273.0125 28.215626Q275.1375 27.965626 276.1375 27.621876Q276.15314 27.2625 276.15314 27.153126Q276.15314 26.090626 275.65314 25.6375Q274.98126 25.04375 273.65314 25.04375Q272.40314 25.04375 271.8094 25.48125Q271.23126 25.91875 270.95 27.028126L269.23126 26.79375Q269.46564 25.684376 269.9969 25.0125Q270.52814 24.325 271.54376 23.965626Q272.5594 23.590626 273.90314 23.590626Q275.23126 23.590626 276.0594 23.903126Q276.8875 24.215626 277.27814 24.7Q277.66876 25.16875 277.825 25.8875Q277.91876 26.340626 277.91876 27.5125L277.91876 29.85625Q277.91876 32.309376 278.02814 32.965626Q278.1375 33.60625 278.48126 34.2L276.6375 34.2Q276.3719 33.653126 276.29376 32.91875ZM276.1375 28.996876Q275.1844 29.3875 273.2625 29.653126Q272.1844 29.809376 271.73126 30.0125Q271.29376 30.2 271.04376 30.575Q270.79376 30.95 270.79376 31.41875Q270.79376 32.121876 271.325 32.590626Q271.85626 33.059376 272.8875 33.059376Q273.90314 33.059376 274.6844 32.621876Q275.48126 32.16875 275.85626 31.403126Q276.1375 30.79375 276.1375 29.6375L276.1375 28.996876ZM275.1844 22.54375L273.7625 22.54375L271.5125 19.809376L273.85626 19.809376L275.1844 22.54375ZM286.4969 34.2L286.4969 23.825L288.075 23.825L288.075 25.403126Q288.6844 24.29375 289.2 23.95Q289.71564 23.590626 290.325 23.590626Q291.21564 23.590626 292.1375 24.153126L291.52814 25.79375Q290.8875 25.403126 290.2469 25.403126Q289.66876 25.403126 289.2 25.7625Q288.7469 26.10625 288.54376 26.715626Q288.2625 27.653126 288.2625 28.7625L288.2625 34.2L286.4969 34.2ZM293.52814 21.903126L293.52814 19.8875L295.29376 19.8875L295.29376 21.903126L293.52814 21.903126ZM293.52814 34.2L293.52814 23.825L295.29376 23.825L295.29376 34.2L293.52814 34.2ZM296.8094 31.10625L298.5594 30.825Q298.7 31.871876 299.3719 32.434376Q300.04376 32.98125 301.2469 32.98125Q302.45 32.98125 303.02814 32.496876Q303.6219 31.996876 303.6219 31.340626Q303.6219 30.746876 303.10626 30.403126Q302.7469 30.16875 301.3094 29.809376Q299.3719 29.309376 298.6219 28.965626Q297.8875 28.60625 297.4969 27.98125Q297.10626 27.340626 297.10626 26.575Q297.10626 25.8875 297.41876 25.29375Q297.7469 24.7 298.29376 24.309376Q298.7 24.0125 299.40314 23.809376Q300.1219 23.590626 300.9344 23.590626Q302.15314 23.590626 303.075 23.95Q303.9969 24.29375 304.4344 24.903126Q304.8719 25.496876 305.04376 26.496876L303.325 26.73125Q303.2 25.934376 302.6375 25.496876Q302.075 25.04375 301.0594 25.04375Q299.84064 25.04375 299.325 25.45Q298.8094 25.840626 298.8094 26.371876Q298.8094 26.715626 299.02814 26.996876Q299.23126 27.278126 299.7 27.465626Q299.96564 27.559376 301.2469 27.903126Q303.1219 28.403126 303.85626 28.73125Q304.59064 29.04375 305.0125 29.653126Q305.4344 30.246876 305.4344 31.153126Q305.4344 32.028126 304.91876 32.809376Q304.40314 33.590626 303.4344 34.0125Q302.46564 34.434376 301.2469 34.434376Q299.23126 34.434376 298.16876 33.590626Q297.10626 32.746876 296.8094 31.10625ZM314.29376 30.403126L316.0125 30.621876Q315.73126 32.41875 314.5594 33.434376Q313.40314 34.434376 311.7 34.434376Q309.575 34.434376 308.27814 33.04375Q306.98126 31.653126 306.98126 29.059376Q306.98126 27.371876 307.52814 26.121876Q308.09064 24.85625 309.23126 24.23125Q310.3719 23.590626 311.71564 23.590626Q313.40314 23.590626 314.46564 24.45Q315.54376 25.309376 315.85626 26.871876L314.1375 27.1375Q313.90314 26.090626 313.27814 25.575Q312.65314 25.04375 311.77814 25.04375Q310.45 25.04375 309.6219 25.996876Q308.79376 26.95 308.79376 28.996876Q308.79376 31.090626 309.59064 32.04375Q310.3875 32.98125 311.6844 32.98125Q312.71564 32.98125 313.40314 32.35625Q314.10626 31.715626 314.29376 30.403126ZM316.8719 29.0125Q316.8719 26.1375 318.46564 24.746876Q319.8094 23.590626 321.73126 23.590626Q323.8719 23.590626 325.21564 24.996876Q326.575 26.403126 326.575 28.871876Q326.575 30.871876 325.98126 32.028126Q325.3875 33.16875 324.23126 33.809376Q323.09064 34.434376 321.73126 34.434376Q319.54376 34.434376 318.2 33.04375Q316.8719 31.6375 316.8719 29.0125ZM318.66876 29.0125Q318.66876 31.0125 319.52814 31.996876Q320.40314 32.98125 321.73126 32.98125Q323.04376 32.98125 323.90314 31.996876Q324.77814 30.996876 324.77814 28.95Q324.77814 27.028126 323.90314 26.04375Q323.02814 25.04375 321.73126 25.04375Q320.40314 25.04375 319.52814 26.04375Q318.66876 27.028126 318.66876 29.0125ZM328.5125 34.2L328.5125 23.825L330.10626 23.825L330.10626 25.309376Q331.2469 23.590626 333.40314 23.590626Q334.34064 23.590626 335.1219 23.934376Q335.91876 24.2625 336.3094 24.809376Q336.7 25.35625 336.85626 26.10625Q336.95 26.60625 336.95 27.825L336.95 34.2L335.1844 34.2L335.1844 27.8875Q335.1844 26.809376 334.98126 26.278126Q334.77814 25.746876 334.2469 25.434376Q333.73126 25.121876 333.02814 25.121876Q331.90314 25.121876 331.09064 25.840626Q330.27814 26.54375 330.27814 28.528126L330.27814 34.2L328.5125 34.2ZM342.35626 32.621876L342.60626 34.184376Q341.8719 34.340626 341.27814 34.340626Q340.325 34.340626 339.79376 34.04375Q339.27814 33.73125 339.0594 33.246876Q338.84064 32.746876 338.84064 31.16875L338.84064 25.2L337.5594 25.2L337.5594 23.825L338.84064 23.825L338.84064 21.2625L340.59064 20.2L340.59064 23.825L342.35626 23.825L342.35626 25.2L340.59064 25.2L340.59064 31.2625Q340.59064 32.0125 340.6844 32.23125Q340.77814 32.434376 340.98126 32.575Q341.2 32.7 341.59064 32.7Q341.8719 32.7 342.35626 32.621876ZM344.4969 34.2L344.4969 23.825L346.075 23.825L346.075 25.403126Q346.6844 24.29375 347.2 23.95Q347.71564 23.590626 348.325 23.590626Q349.21564 23.590626 350.1375 24.153126L349.52814 25.79375Q348.8875 25.403126 348.2469 25.403126Q347.66876 25.403126 347.2 25.7625Q346.7469 26.10625 346.54376 26.715626Q346.2625 27.653126 346.2625 28.7625L346.2625 34.2L344.4969 34.2ZM358.29376 32.91875Q357.3094 33.746876 356.40314 34.090626Q355.4969 34.434376 354.46564 34.434376Q352.7625 34.434376 351.84064 33.60625Q350.91876 32.7625 350.91876 31.465626Q350.91876 30.7 351.2625 30.075Q351.6219 29.45 352.1844 29.075Q352.7469 28.684376 353.45 28.48125Q353.96564 28.35625 355.0125 28.215626Q357.1375 27.965626 358.1375 27.621876Q358.15314 27.2625 358.15314 27.153126Q358.15314 26.090626 357.65314 25.6375Q356.98126 25.04375 355.65314 25.04375Q354.40314 25.04375 353.8094 25.48125Q353.23126 25.91875 352.95 27.028126L351.23126 26.79375Q351.46564 25.684376 351.9969 25.0125Q352.52814 24.325 353.54376 23.965626Q354.5594 23.590626 355.90314 23.590626Q357.23126 23.590626 358.0594 23.903126Q358.8875 24.215626 359.27814 24.7Q359.66876 25.16875 359.825 25.8875Q359.91876 26.340626 359.91876 27.5125L359.91876 29.85625Q359.91876 32.309376 360.02814 32.965626Q360.1375 33.60625 360.48126 34.2L358.6375 34.2Q358.3719 33.653126 358.29376 32.91875ZM358.1375 28.996876Q357.1844 29.3875 355.2625 29.653126Q354.1844 29.809376 353.73126 30.0125Q353.29376 30.2 353.04376 30.575Q352.79376 30.95 352.79376 31.41875Q352.79376 32.121876 353.325 32.590626Q353.85626 33.059376 354.8875 33.059376Q355.90314 33.059376 356.6844 32.621876Q357.48126 32.16875 357.85626 31.403126Q358.1375 30.79375 358.1375 29.6375L358.1375 28.996876ZM366.35626 32.621876L366.60626 34.184376Q365.8719 34.340626 365.27814 34.340626Q364.325 34.340626 363.79376 34.04375Q363.27814 33.73125 363.0594 33.246876Q362.84064 32.746876 362.84064 31.16875L362.84064 25.2L361.5594 25.2L361.5594 23.825L362.84064 23.825L362.84064 21.2625L364.59064 20.2L364.59064 23.825L366.35626 23.825L366.35626 25.2L364.59064 25.2L364.59064 31.2625Q364.59064 32.0125 364.6844 32.23125Q364.77814 32.434376 364.98126 32.575Q365.2 32.7 365.59064 32.7Q365.8719 32.7 366.35626 32.621876ZM375.6219 30.85625L377.4344 31.090626Q377.0125 32.66875 375.84064 33.559376Q374.6844 34.434376 372.8719 34.434376Q370.60626 34.434376 369.2625 33.04375Q367.9344 31.6375 367.9344 29.10625Q367.9344 26.48125 369.27814 25.04375Q370.6219 23.590626 372.77814 23.590626Q374.85626 23.590626 376.16876 25.0125Q377.4969 26.41875 377.4969 28.996876Q377.4969 29.153126 377.48126 29.465626L369.7469 29.465626Q369.84064 31.16875 370.71564 32.075Q371.59064 32.98125 372.8875 32.98125Q373.85626 32.98125 374.52814 32.48125Q375.21564 31.965626 375.6219 30.85625ZM369.84064 28.0125L375.6375 28.0125Q375.52814 26.715626 374.98126 26.059376Q374.1375 25.04375 372.79376 25.04375Q371.59064 25.04375 370.7625 25.85625Q369.9344 26.653126 369.84064 28.0125ZM385.5125 34.2L385.5125 23.825L387.10626 23.825L387.10626 25.309376Q388.2469 23.590626 390.40314 23.590626Q391.34064 23.590626 392.1219 23.934376Q392.91876 24.2625 393.3094 24.809376Q393.7 25.35625 393.85626 26.10625Q393.95 26.60625 393.95 27.825L393.95 34.2L392.1844 34.2L392.1844 27.8875Q392.1844 26.809376 391.98126 26.278126Q391.77814 25.746876 391.2469 25.434376Q390.73126 25.121876 390.02814 25.121876Q388.90314 25.121876 388.09064 25.840626Q387.27814 26.54375 387.27814 28.528126L387.27814 34.2L385.5125 34.2ZM402.6219 30.85625L404.4344 31.090626Q404.0125 32.66875 402.84064 33.559376Q401.6844 34.434376 399.8719 34.434376Q397.60626 34.434376 396.2625 33.04375Q394.9344 31.6375 394.9344 29.10625Q394.9344 26.48125 396.27814 25.04375Q397.6219 23.590626 399.77814 23.590626Q401.85626 23.590626 403.16876 25.0125Q404.4969 26.41875 404.4969 28.996876Q404.4969 29.153126 404.48126 29.465626L396.7469 29.465626Q396.84064 31.16875 397.71564 32.075Q398.59064 32.98125 399.8875 32.98125Q400.85626 32.98125 401.52814 32.48125Q402.21564 31.965626 402.6219 30.85625ZM396.84064 28.0125L402.6375 28.0125Q402.52814 26.715626 401.98126 26.059376Q401.1375 25.04375 399.79376 25.04375Q398.59064 25.04375 397.7625 25.85625Q396.9344 26.653126 396.84064 28.0125ZM406.48126 34.2L406.48126 19.8875L408.23126 19.8875L408.23126 34.2L406.48126 34.2ZM410.48126 34.2L410.48126 19.8875L412.23126 19.8875L412.23126 34.2L410.48126 34.2ZM421.6219 30.85625L423.4344 31.090626Q423.0125 32.66875 421.84064 33.559376Q420.6844 34.434376 418.8719 34.434376Q416.60626 34.434376 415.2625 33.04375Q413.9344 31.6375 413.9344 29.10625Q413.9344 26.48125 415.27814 25.04375Q416.6219 23.590626 418.77814 23.590626Q420.85626 23.590626 422.16876 25.0125Q423.4969 26.41875 423.4969 28.996876Q423.4969 29.153126 423.48126 29.465626L415.7469 29.465626Q415.84064 31.16875 416.71564 32.075Q417.59064 32.98125 418.8875 32.98125Q419.85626 32.98125 420.52814 32.48125Q421.21564 31.965626 421.6219 30.85625ZM415.84064 28.0125L421.6375 28.0125Q421.52814 26.715626 420.98126 26.059376Q420.1375 25.04375 418.79376 25.04375Q417.59064 25.04375 416.7625 25.85625Q415.9344 26.653126 415.84064 28.0125Z" fill-rule="nonzero"/></svg>