<svg version="1.1" viewBox="0.0 0.0 490.0 304.0" fill="none" stroke="none" stroke-linecap="square" stroke-miterlimit="10" width="490" height="304" xmlns:xlink="http://www.w3.org/1999/xlink" xmlns="http://www.w3.org/2000/svg"><path fill="#ffffff" d="M0 0L490.0 0L490.0 304.0L0 304.0L0 0Z" fill-rule="nonzero"/><path fill="#4285f4" d="M245.0 49.333332C269.57672 49.333332 293.14685 59.0964 310.52524 76.47477L245.0 142.0Z" fill-rule="nonzero"/><path fill="#34a853" d="M179.47478 76.47477C196.85315 59.0964 220.42328 49.333332 245.0 49.333332L245.0 142.0Z" fill-rule="nonzero"/><path fill="#fbbc04" d="M156.86876 170.63557C146.10068 137.4948 154.83473 101.11481 179.47478 76.47477L245.0 142.0Z" fill-rule="nonzero"/><path fill="#ea4335" d="M310.52524 76.47477C337.65338 103.602936 345.25967 144.64275 329.6552 179.69093C314.05075 214.73912 278.46265 236.54755 240.1502 234.53967C201.83775 232.5318 168.72421 207.12288 156.86876 170.63557L245.0 142.0Z" fill-rule="nonzero"/><path fill="#000000" d="M254.41739 88.57933L253.18301 88.57933L253.18301 80.73558Q252.74551 81.157455 252.01114 81.594955Q251.29239 82.01683 250.72989 82.219955L250.72989 81.032455Q251.76114 80.54808 252.52676 79.86058Q253.30801 79.17308 253.62051 78.51683L254.41739 78.51683L254.41739 88.57933ZM264.2455 87.39183L264.2455 88.57933L257.6205 88.57933Q257.6049 88.14183 257.76114 87.719955Q258.02676 87.04808 258.57364 86.39183Q259.13614 85.73558 260.183 84.876205Q261.82364 83.532455 262.38614 82.751205Q262.96426 81.969955 262.96426 81.26683Q262.96426 80.532455 262.433 80.032455Q261.9174 79.532455 261.08926 79.532455Q260.19864 79.532455 259.65176 80.063705Q259.1205 80.594955 259.1205 81.54808L257.8549 81.407455Q257.9799 80.001205 258.82364 79.26683Q259.683 78.51683 261.1049 78.51683Q262.558 78.51683 263.38614 79.313705Q264.2299 80.11058 264.2299 81.29808Q264.2299 81.907455 263.9799 82.48558Q263.7455 83.063705 263.1674 83.70433Q262.6049 84.344955 261.27676 85.469955Q260.1674 86.39183 259.8549 86.73558Q259.5424 87.063705 259.33926 87.39183L264.2455 87.39183ZM266.46426 88.57933L266.46426 87.17308L267.8705 87.17308L267.8705 88.57933L266.46426 88.57933ZM269.77676 85.95433L271.07364 85.844955Q271.21426 86.782455 271.7299 87.26683Q272.26114 87.73558 272.9955 87.73558Q273.88614 87.73558 274.4955 87.063705Q275.1205 86.39183 275.1205 85.29808Q275.1205 84.23558 274.52676 83.626205Q273.933 83.01683 272.9799 83.01683Q272.38614 83.01683 271.90176 83.29808Q271.433 83.563705 271.15176 83.98558L269.9955 83.844955L270.96426 78.688705L275.94864 78.688705L275.94864 79.876205L271.94864 79.876205L271.4174 82.563705Q272.32364 81.938705 273.308 81.938705Q274.6205 81.938705 275.51114 82.844955Q276.4174 83.751205 276.4174 85.188705Q276.4174 86.54808 275.63614 87.532455Q274.6674 88.751205 272.9955 88.751205Q271.63614 88.751205 270.76114 87.98558Q269.90176 87.219955 269.77676 85.95433ZM278.01114 80.969955Q278.01114 79.89183 278.5424 79.14183Q279.08926 78.39183 280.1205 78.39183Q281.058 78.39183 281.6674 79.063705Q282.2924 79.73558 282.2924 81.032455Q282.2924 82.313705 281.6674 83.001205Q281.0424 83.688705 280.13614 83.688705Q279.2299 83.688705 278.6205 83.01683Q278.01114 82.32933 278.01114 80.969955ZM280.15176 79.23558Q279.69864 79.23558 279.38614 79.64183Q279.08926 80.032455 279.08926 81.07933Q279.08926 82.04808 279.38614 82.438705Q279.69864 82.82933 280.15176 82.82933Q280.6205 82.82933 280.9174 82.438705Q281.2299 82.04808 281.2299 80.98558Q281.2299 80.01683 280.9174 79.626205Q280.6049 79.23558 280.15176 79.23558ZM280.15176 88.95433L285.63614 78.39183L286.63614 78.39183L281.183 88.95433L280.15176 88.95433ZM284.4955 86.219955Q284.4955 85.14183 285.02676 84.407455Q285.57364 83.657455 286.6049 83.657455Q287.5424 83.657455 288.1674 84.32933Q288.7924 85.001205 288.7924 86.29808Q288.7924 87.57933 288.1674 88.26683Q287.5424 88.95433 286.6049 88.95433Q285.69864 88.95433 285.08926 88.282455Q284.4955 87.594955 284.4955 86.219955ZM286.63614 84.501205Q286.1674 84.501205 285.8705 84.907455Q285.57364 85.29808 285.57364 86.344955Q285.57364 87.313705 285.8705 87.70433Q286.183 88.094955 286.63614 88.094955Q287.1049 88.094955 287.40176 87.70433Q287.71426 87.313705 287.71426 86.251205Q287.71426 85.282455 287.40176 84.89183Q287.1049 84.501205 286.63614 84.501205Z" fill-rule="nonzero"/><path fill="#000000" d="M257.59305 196.6186L258.88992 196.50923Q259.03055 197.44673 259.54617 197.9311Q260.07742 198.39986 260.8118 198.39986Q261.70242 198.39986 262.3118 197.72798Q262.9368 197.0561 262.9368 195.96236Q262.9368 194.89986 262.34305 194.29048Q261.7493 193.6811 260.79617 193.6811Q260.20242 193.6811 259.71805 193.96236Q259.2493 194.22798 258.96805 194.64986L257.8118 194.50923L258.78055 189.35298L263.76492 189.35298L263.76492 190.54048L259.76492 190.54048L259.23367 193.22798Q260.13992 192.60298 261.1243 192.60298Q262.4368 192.60298 263.32742 193.50923Q264.23367 194.41548 264.23367 195.85298Q264.23367 197.21236 263.45242 198.19673Q262.48367 199.41548 260.8118 199.41548Q259.45242 199.41548 258.57742 198.64986Q257.71805 197.88423 257.59305 196.6186ZM265.67117 190.54048L265.67117 189.35298L272.17117 189.35298L272.17117 190.3061Q271.20242 191.32173 270.26492 193.00923Q269.32742 194.69673 268.8118 196.4936Q268.45242 197.7436 268.34305 199.2436L267.07742 199.2436Q267.09305 198.0561 267.53055 196.38423Q267.98367 194.71236 268.8118 193.16548Q269.65555 191.60298 270.59305 190.54048L265.67117 190.54048ZM274.28055 199.2436L274.28055 197.83736L275.6868 197.83736L275.6868 199.2436L274.28055 199.2436ZM277.59305 196.6186L278.88992 196.50923Q279.03055 197.44673 279.54617 197.9311Q280.07742 198.39986 280.8118 198.39986Q281.70242 198.39986 282.3118 197.72798Q282.9368 197.0561 282.9368 195.96236Q282.9368 194.89986 282.34305 194.29048Q281.7493 193.6811 280.79617 193.6811Q280.20242 193.6811 279.71805 193.96236Q279.2493 194.22798 278.96805 194.64986L277.8118 194.50923L278.78055 189.35298L283.76492 189.35298L283.76492 190.54048L279.76492 190.54048L279.23367 193.22798Q280.13992 192.60298 281.1243 192.60298Q282.4368 192.60298 283.32742 193.50923Q284.23367 194.41548 284.23367 195.85298Q284.23367 197.21236 283.45242 198.19673Q282.48367 199.41548 280.8118 199.41548Q279.45242 199.41548 278.57742 198.64986Q277.71805 197.88423 277.59305 196.6186ZM285.82742 191.63423Q285.82742 190.5561 286.35867 189.8061Q286.90555 189.0561 287.9368 189.0561Q288.8743 189.0561 289.48367 189.72798Q290.10867 190.39986 290.10867 191.69673Q290.10867 192.97798 289.48367 193.66548Q288.85867 194.35298 287.95242 194.35298Q287.04617 194.35298 286.4368 193.6811Q285.82742 192.9936 285.82742 191.63423ZM287.96805 189.89986Q287.51492 189.89986 287.20242 190.3061Q286.90555 190.69673 286.90555 191.7436Q286.90555 192.71236 287.20242 193.10298Q287.51492 193.4936 287.96805 193.4936Q288.4368 193.4936 288.73367 193.10298Q289.04617 192.71236 289.04617 191.64986Q289.04617 190.6811 288.73367 190.29048Q288.42117 189.89986 287.96805 189.89986ZM287.96805 199.6186L293.45242 189.0561L294.45242 189.0561L288.9993 199.6186L287.96805 199.6186ZM292.3118 196.88423Q292.3118 195.8061 292.84305 195.07173Q293.38992 194.32173 294.42117 194.32173Q295.35867 194.32173 295.98367 194.9936Q296.60867 195.66548 296.60867 196.96236Q296.60867 198.2436 295.98367 198.9311Q295.35867 199.6186 294.42117 199.6186Q293.51492 199.6186 292.90555 198.94673Q292.3118 198.25923 292.3118 196.88423ZM294.45242 195.16548Q293.98367 195.16548 293.6868 195.57173Q293.38992 195.96236 293.38992 197.00923Q293.38992 197.97798 293.6868 198.3686Q293.9993 198.75923 294.45242 198.75923Q294.92117 198.75923 295.21805 198.3686Q295.53055 197.97798 295.53055 196.91548Q295.53055 195.94673 295.21805 195.5561Q294.92117 195.16548 294.45242 195.16548Z" fill-rule="nonzero"/><path fill="#000000" d="M172.22536 133.07703L170.99098 133.07703L170.99098 125.23328Q170.55348 125.65515 169.8191 126.09265Q169.10036 126.51453 168.53786 126.71765L168.53786 125.53015Q169.5691 125.04578 170.33473 124.35828Q171.11598 123.67078 171.42848 123.01453L172.22536 123.01453L172.22536 133.07703ZM175.66286 124.3739L175.66286 123.1864L182.16286 123.1864L182.16286 124.13953Q181.1941 125.15515 180.2566 126.84265Q179.3191 128.53015 178.80348 130.32703Q178.4441 131.57703 178.33473 133.07703L177.0691 133.07703Q177.08473 131.88953 177.52223 130.21765Q177.97536 128.54578 178.80348 126.9989Q179.64723 125.4364 180.58473 124.3739L175.66286 124.3739ZM184.27223 133.07703L184.27223 131.67078L185.67848 131.67078L185.67848 133.07703L184.27223 133.07703ZM187.58473 130.45203L188.8816 130.34265Q189.02223 131.28015 189.53786 131.76453Q190.0691 132.23328 190.80348 132.23328Q191.6941 132.23328 192.30348 131.5614Q192.92848 130.88953 192.92848 129.79578Q192.92848 128.73328 192.33473 128.1239Q191.74098 127.51453 190.78786 127.51453Q190.1941 127.51453 189.70973 127.79578Q189.24098 128.0614 188.95973 128.48328L187.80348 128.34265L188.77223 123.1864L193.7566 123.1864L193.7566 124.3739L189.7566 124.3739L189.22536 127.0614Q190.1316 126.4364 191.11598 126.4364Q192.42848 126.4364 193.3191 127.34265Q194.22536 128.2489 194.22536 129.6864Q194.22536 131.04578 193.4441 132.03015Q192.47536 133.2489 190.80348 133.2489Q189.4441 133.2489 188.5691 132.48328Q187.70973 131.71765 187.58473 130.45203ZM195.8191 125.46765Q195.8191 124.38953 196.35036 123.63953Q196.89723 122.88953 197.92848 122.88953Q198.86598 122.88953 199.47536 123.5614Q200.10036 124.23328 200.10036 125.53015Q200.10036 126.8114 199.47536 127.4989Q198.85036 128.1864 197.9441 128.1864Q197.03786 128.1864 196.42848 127.51453Q195.8191 126.82703 195.8191 125.46765ZM197.95973 123.73328Q197.5066 123.73328 197.1941 124.13953Q196.89723 124.53015 196.89723 125.57703Q196.89723 126.54578 197.1941 126.9364Q197.5066 127.32703 197.95973 127.32703Q198.42848 127.32703 198.72536 126.9364Q199.03786 126.54578 199.03786 125.48328Q199.03786 124.51453 198.72536 124.1239Q198.41286 123.73328 197.95973 123.73328ZM197.95973 133.45203L203.4441 122.88953L204.4441 122.88953L198.99098 133.45203L197.95973 133.45203ZM202.30348 130.71765Q202.30348 129.63953 202.83473 128.90515Q203.3816 128.15515 204.41286 128.15515Q205.35036 128.15515 205.97536 128.82703Q206.60036 129.4989 206.60036 130.79578Q206.60036 132.07703 205.97536 132.76453Q205.35036 133.45203 204.41286 133.45203Q203.5066 133.45203 202.89723 132.78015Q202.30348 132.09265 202.30348 130.71765ZM204.4441 128.9989Q203.97536 128.9989 203.67848 129.40515Q203.3816 129.79578 203.3816 130.84265Q203.3816 131.8114 203.67848 132.20203Q203.99098 132.59265 204.4441 132.59265Q204.91286 132.59265 205.20973 132.20203Q205.52223 131.8114 205.52223 130.7489Q205.52223 129.78015 205.20973 129.38953Q204.91286 128.9989 204.4441 128.9989Z" fill-rule="nonzero"/><path fill="#000000" d="M206.02011 88.57933L204.78574 88.57933L204.78574 80.73558Q204.34824 81.157455 203.61386 81.594955Q202.89511 82.01683 202.33261 82.219955L202.33261 81.032455Q203.36386 80.54808 204.12949 79.86058Q204.91074 79.17308 205.22324 78.51683L206.02011 78.51683L206.02011 88.57933ZM215.84824 87.39183L215.84824 88.57933L209.22324 88.57933Q209.20761 88.14183 209.36386 87.719955Q209.62949 87.04808 210.17636 86.39183Q210.73886 85.73558 211.78574 84.876205Q213.42636 83.532455 213.98886 82.751205Q214.56699 81.969955 214.56699 81.26683Q214.56699 80.532455 214.03574 80.032455Q213.52011 79.532455 212.69199 79.532455Q211.80136 79.532455 211.25449 80.063705Q210.72324 80.594955 210.72324 81.54808L209.45761 81.407455Q209.58261 80.001205 210.42636 79.26683Q211.28574 78.51683 212.70761 78.51683Q214.16074 78.51683 214.98886 79.313705Q215.83261 80.11058 215.83261 81.29808Q215.83261 81.907455 215.58261 82.48558Q215.34824 83.063705 214.77011 83.70433Q214.20761 84.344955 212.87949 85.469955Q211.77011 86.39183 211.45761 86.73558Q211.14511 87.063705 210.94199 87.39183L215.84824 87.39183ZM218.06699 88.57933L218.06699 87.17308L219.47324 87.17308L219.47324 88.57933L218.06699 88.57933ZM221.37949 85.95433L222.67636 85.844955Q222.81699 86.782455 223.33261 87.26683Q223.86386 87.73558 224.59824 87.73558Q225.48886 87.73558 226.09824 87.063705Q226.72324 86.39183 226.72324 85.29808Q226.72324 84.23558 226.12949 83.626205Q225.53574 83.01683 224.58261 83.01683Q223.98886 83.01683 223.50449 83.29808Q223.03574 83.563705 222.75449 83.98558L221.59824 83.844955L222.56699 78.688705L227.55136 78.688705L227.55136 79.876205L223.55136 79.876205L223.02011 82.563705Q223.92636 81.938705 224.91074 81.938705Q226.22324 81.938705 227.11386 82.844955Q228.02011 83.751205 228.02011 85.188705Q228.02011 86.54808 227.23886 87.532455Q226.27011 88.751205 224.59824 88.751205Q223.23886 88.751205 222.36386 87.98558Q221.50449 87.219955 221.37949 85.95433ZM229.61386 80.969955Q229.61386 79.89183 230.14511 79.14183Q230.69199 78.39183 231.72324 78.39183Q232.66074 78.39183 233.27011 79.063705Q233.89511 79.73558 233.89511 81.032455Q233.89511 82.313705 233.27011 83.001205Q232.64511 83.688705 231.73886 83.688705Q230.83261 83.688705 230.22324 83.01683Q229.61386 82.32933 229.61386 80.969955ZM231.75449 79.23558Q231.30136 79.23558 230.98886 79.64183Q230.69199 80.032455 230.69199 81.07933Q230.69199 82.04808 230.98886 82.438705Q231.30136 82.82933 231.75449 82.82933Q232.22324 82.82933 232.52011 82.438705Q232.83261 82.04808 232.83261 80.98558Q232.83261 80.01683 232.52011 79.626205Q232.20761 79.23558 231.75449 79.23558ZM231.75449 88.95433L237.23886 78.39183L238.23886 78.39183L232.78574 88.95433L231.75449 88.95433ZM236.09824 86.219955Q236.09824 85.14183 236.62949 84.407455Q237.17636 83.657455 238.20761 83.657455Q239.14511 83.657455 239.77011 84.32933Q240.39511 85.001205 240.39511 86.29808Q240.39511 87.57933 239.77011 88.26683Q239.14511 88.95433 238.20761 88.95433Q237.30136 88.95433 236.69199 88.282455Q236.09824 87.594955 236.09824 86.219955ZM238.23886 84.501205Q237.77011 84.501205 237.47324 84.907455Q237.17636 85.29808 237.17636 86.344955Q237.17636 87.313705 237.47324 87.70433Q237.78574 88.094955 238.23886 88.094955Q238.70761 88.094955 239.00449 87.70433Q239.31699 87.313705 239.31699 86.251205Q239.31699 85.282455 239.00449 84.89183Q238.70761 84.501205 238.23886 84.501205Z" fill-rule="nonzero"/><path fill="#4285f4" d="M28.2 251.8C28.2 255.11371 25.513708 257.8 22.2 257.8C18.886292 257.8 16.2 255.11371 16.2 251.8C16.2 248.4863 18.886292 245.8 22.2 245.8C25.513708 245.8 28.2 248.4863 28.2 251.8Z" fill-rule="nonzero"/><path fill="#1a1a1a" d="M37.121876 255.8L37.121876 247.20625L38.278126 247.20625L42.79375 253.95625L42.79375 247.20625L43.8875 247.20625L43.8875 255.8L42.715626 255.8L38.2 249.05L38.2 255.8L37.121876 255.8ZM45.60625 252.69063Q45.60625 250.95625 46.559376 250.12813Q47.35625 249.44063 48.5125 249.44063Q49.79375 249.44063 50.60625 250.28438Q51.434376 251.1125 51.434376 252.59688Q51.434376 253.8 51.075 254.4875Q50.715626 255.175 50.0125 255.56563Q49.325 255.94063 48.5125 255.94063Q47.215626 255.94063 46.403126 255.1125Q45.60625 254.26875 45.60625 252.69063ZM46.684376 252.69063Q46.684376 253.87813 47.2 254.47188Q47.73125 255.06563 48.5125 255.06563Q49.309376 255.06563 49.825 254.47188Q50.340626 253.87813 50.340626 252.65938Q50.340626 251.50313 49.809376 250.90938Q49.29375 250.31563 48.5125 250.31563Q47.73125 250.31563 47.2 250.90938Q46.684376 251.4875 46.684376 252.69063ZM60.059376 253.51875L61.090626 253.65938Q60.91875 254.72188 60.215626 255.33125Q59.5125 255.94063 58.496876 255.94063Q57.215626 255.94063 56.434376 255.1125Q55.66875 254.26875 55.66875 252.70625Q55.66875 251.70625 55.996876 250.95625Q56.340626 250.19063 57.0125 249.81563Q57.7 249.44063 58.5125 249.44063Q59.5125 249.44063 60.153126 249.95625Q60.809376 250.45625 60.996876 251.40938L59.965626 251.56563Q59.825 250.94063 59.45 250.62813Q59.075 250.3 58.54375 250.3Q57.746876 250.3 57.246876 250.87813Q56.746876 251.44063 56.746876 252.675Q56.746876 253.94063 57.23125 254.50313Q57.715626 255.06563 58.48125 255.06563Q59.10625 255.06563 59.5125 254.69063Q59.934376 254.31563 60.059376 253.51875ZM61.60625 252.69063Q61.60625 250.95625 62.559376 250.12813Q63.35625 249.44063 64.5125 249.44063Q65.79375 249.44063 66.60625 250.28438Q67.43437 251.1125 67.43437 252.59688Q67.43437 253.8 67.075 254.4875Q66.71562 255.175 66.0125 255.56563Q65.325 255.94063 64.5125 255.94063Q63.215626 255.94063 62.403126 255.1125Q61.60625 254.26875 61.60625 252.69063ZM62.684376 252.69063Q62.684376 253.87813 63.2 254.47188Q63.73125 255.06563 64.5125 255.06563Q65.30937 255.06563 65.825 254.47188Q66.34062 253.87813 66.34062 252.65938Q66.34062 251.50313 65.80937 250.90938Q65.29375 250.31563 64.5125 250.31563Q63.73125 250.31563 63.2 250.90938Q62.684376 251.4875 62.684376 252.69063ZM68.99687 255.8L68.99687 249.58125L69.93437 249.58125L69.93437 250.45625Q70.23125 249.9875 70.71562 249.72188Q71.2 249.44063 71.825 249.44063Q72.5125 249.44063 72.95 249.72188Q73.40312 250.00313 73.575 250.51875Q74.325 249.44063 75.49687 249.44063Q76.43437 249.44063 76.91875 249.95625Q77.41875 250.45625 77.41875 251.53438L77.41875 255.8L76.37187 255.8L76.37187 251.87813Q76.37187 251.25313 76.2625 250.97188Q76.16875 250.69063 75.90312 250.51875Q75.6375 250.34688 75.2625 250.34688Q74.60625 250.34688 74.16875 250.78438Q73.74687 251.22188 73.74687 252.19063L73.74687 255.8L72.68437 255.8L72.68437 251.75313Q72.68437 251.05 72.41875 250.70625Q72.16875 250.34688 71.59062 250.34688Q71.1375 250.34688 70.7625 250.58125Q70.3875 250.81563 70.21562 251.26875Q70.04375 251.72188 70.04375 252.56563L70.04375 255.8L68.99687 255.8ZM79.99687 255.8L79.99687 249.58125L80.93437 249.58125L80.93437 250.45625Q81.23125 249.9875 81.71562 249.72188Q82.2 249.44063 82.825 249.44063Q83.5125 249.44063 83.95 249.72188Q84.40312 250.00313 84.575 250.51875Q85.325 249.44063 86.49687 249.44063Q87.43437 249.44063 87.91875 249.95625Q88.41875 250.45625 88.41875 251.53438L88.41875 255.8L87.37187 255.8L87.37187 251.87813Q87.37187 251.25313 87.2625 250.97188Q87.16875 250.69063 86.90312 250.51875Q86.6375 250.34688 86.2625 250.34688Q85.60625 250.34688 85.16875 250.78438Q84.74687 251.22188 84.74687 252.19063L84.74687 255.8L83.68437 255.8L83.68437 251.75313Q83.68437 251.05 83.41875 250.70625Q83.16875 250.34688 82.59062 250.34688Q82.1375 250.34688 81.7625 250.58125Q81.3875 250.81563 81.21562 251.26875Q81.04375 251.72188 81.04375 252.56563L81.04375 255.8L79.99687 255.8ZM95.24687 253.8L96.34062 253.925Q96.09062 254.87813 95.3875 255.40938Q94.68437 255.94063 93.60625 255.94063Q92.24687 255.94063 91.43437 255.09688Q90.6375 254.25313 90.6375 252.7375Q90.6375 251.175 91.45 250.31563Q92.2625 249.44063 93.54375 249.44063Q94.79375 249.44063 95.575 250.28438Q96.37187 251.12813 96.37187 252.675Q96.37187 252.76875 96.37187 252.95625L91.73125 252.95625Q91.79375 253.9875 92.30937 254.53438Q92.825 255.06563 93.60625 255.06563Q94.18437 255.06563 94.59062 254.76875Q95.0125 254.45625 95.24687 253.8ZM91.79375 252.09688L95.2625 252.09688Q95.2 251.3 94.87187 250.90938Q94.35625 250.3 93.55937 250.3Q92.825 250.3 92.325 250.78438Q91.84062 251.26875 91.79375 252.09688ZM97.99687 255.8L97.99687 249.58125L98.93437 249.58125L98.93437 250.45625Q99.62187 249.44063 100.91875 249.44063Q101.48125 249.44063 101.95 249.64375Q102.43437 249.84688 102.66875 250.175Q102.90312 250.50313 102.99687 250.94063Q103.04375 251.2375 103.04375 251.97188L103.04375 255.8L101.99687 255.8L101.99687 252.01875Q101.99687 251.3625 101.87187 251.05Q101.74687 250.7375 101.43437 250.55Q101.12187 250.34688 100.7 250.34688Q100.02812 250.34688 99.52812 250.78438Q99.04375 251.20625 99.04375 252.39375L99.04375 255.8L97.99687 255.8ZM107.29375 254.8625L107.45 255.78438Q106.99687 255.87813 106.65312 255.87813Q106.075 255.87813 105.7625 255.70625Q105.45 255.51875 105.30937 255.22188Q105.18437 254.925 105.18437 253.97188L105.18437 250.39375L104.41875 250.39375L104.41875 249.58125L105.18437 249.58125L105.18437 248.03438L106.23125 247.40938L106.23125 249.58125L107.29375 249.58125L107.29375 250.39375L106.23125 250.39375L106.23125 254.03438Q106.23125 254.4875 106.27812 254.6125Q106.34062 254.7375 106.46562 254.81563Q106.59062 254.89375 106.825 254.89375Q107.0125 254.89375 107.29375 254.8625Z" fill-rule="nonzero"/><path fill="#ea4335" d="M135.2 251.8C135.2 255.11371 132.5137 257.8 129.2 257.8C125.88629 257.8 123.2 255.11371 123.2 251.8C123.2 248.4863 125.88629 245.8 129.2 245.8C132.5137 245.8 135.2 248.4863 135.2 251.8Z" fill-rule="nonzero"/><path fill="#1a1a1a" d="M144.12187 255.8L144.12187 247.20625L145.27812 247.20625L149.79375 253.95625L149.79375 247.20625L150.8875 247.20625L150.8875 255.8L149.71562 255.8L145.2 249.05L145.2 255.8L144.12187 255.8ZM157.24687 253.8L158.34062 253.925Q158.09062 254.87813 157.3875 255.40938Q156.68437 255.94063 155.60625 255.94063Q154.24687 255.94063 153.43437 255.09688Q152.6375 254.25313 152.6375 252.7375Q152.6375 251.175 153.45 250.31563Q154.2625 249.44063 155.54375 249.44063Q156.79375 249.44063 157.575 250.28438Q158.37187 251.12813 158.37187 252.675Q158.37187 252.76875 158.37187 252.95625L153.73125 252.95625Q153.79375 253.9875 154.30937 254.53438Q154.825 255.06563 155.60625 255.06563Q156.18437 255.06563 156.59062 254.76875Q157.0125 254.45625 157.24687 253.8ZM153.79375 252.09688L157.2625 252.09688Q157.2 251.3 156.87187 250.90938Q156.35625 250.3 155.55937 250.3Q154.825 250.3 154.325 250.78438Q153.84062 251.26875 153.79375 252.09688ZM159.575 253.94063L160.60625 253.78438Q160.7 254.40938 161.09062 254.7375Q161.49687 255.06563 162.23125 255.06563Q162.95 255.06563 163.29375 254.78438Q163.65312 254.4875 163.65312 254.08125Q163.65312 253.72188 163.34062 253.51875Q163.12187 253.37813 162.2625 253.15938Q161.10625 252.8625 160.65312 252.65938Q160.21562 252.44063 159.98125 252.06563Q159.74687 251.69063 159.74687 251.22188Q159.74687 250.81563 159.93437 250.45625Q160.12187 250.09688 160.45 249.8625Q160.7 249.69063 161.12187 249.56563Q161.54375 249.44063 162.04375 249.44063Q162.7625 249.44063 163.30937 249.65938Q163.87187 249.8625 164.1375 250.22188Q164.40312 250.58125 164.49687 251.175L163.46562 251.31563Q163.40312 250.84688 163.05937 250.58125Q162.73125 250.3 162.10625 250.3Q161.3875 250.3 161.075 250.55Q160.7625 250.78438 160.7625 251.1125Q160.7625 251.31563 160.8875 251.47188Q161.02812 251.64375 161.29375 251.75313Q161.45 251.81563 162.23125 252.01875Q163.35625 252.33125 163.79375 252.51875Q164.23125 252.70625 164.48125 253.06563Q164.73125 253.425 164.73125 253.97188Q164.73125 254.50313 164.41875 254.97188Q164.12187 255.425 163.54375 255.69063Q162.96562 255.94063 162.23125 255.94063Q161.0125 255.94063 160.37187 255.44063Q159.74687 254.925 159.575 253.94063ZM166.575 253.94063L167.60625 253.78438Q167.7 254.40938 168.09062 254.7375Q168.49687 255.06563 169.23125 255.06563Q169.95 255.06563 170.29375 254.78438Q170.65312 254.4875 170.65312 254.08125Q170.65312 253.72188 170.34062 253.51875Q170.12187 253.37813 169.2625 253.15938Q168.10625 252.8625 167.65312 252.65938Q167.21562 252.44063 166.98125 252.06563Q166.74687 251.69063 166.74687 251.22188Q166.74687 250.81563 166.93437 250.45625Q167.12187 250.09688 167.45 249.8625Q167.7 249.69063 168.12187 249.56563Q168.54375 249.44063 169.04375 249.44063Q169.7625 249.44063 170.30937 249.65938Q170.87187 249.8625 171.1375 250.22188Q171.40312 250.58125 171.49687 251.175L170.46562 251.31563Q170.40312 250.84688 170.05937 250.58125Q169.73125 250.3 169.10625 250.3Q168.3875 250.3 168.075 250.55Q167.7625 250.78438 167.7625 251.1125Q167.7625 251.31563 167.8875 251.47188Q168.02812 251.64375 168.29375 251.75313Q168.45 251.81563 169.23125 252.01875Q170.35625 252.33125 170.79375 252.51875Q171.23125 252.70625 171.48125 253.06563Q171.73125 253.425 171.73125 253.97188Q171.73125 254.50313 171.41875 254.97188Q171.12187 255.425 170.54375 255.69063Q169.96562 255.94063 169.23125 255.94063Q168.0125 255.94063 167.37187 255.44063Q166.74687 254.925 166.575 253.94063ZM178.075 255.8L178.075 254.87813Q177.34062 255.94063 176.09062 255.94063Q175.54375 255.94063 175.05937 255.7375Q174.59062 255.51875 174.35625 255.20625Q174.12187 254.87813 174.02812 254.40938Q173.96562 254.1125 173.96562 253.425L173.96562 249.58125L175.02812 249.58125L175.02812 253.03438Q175.02812 253.84688 175.09062 254.14375Q175.18437 254.55 175.49687 254.8Q175.825 255.03438 176.30937 255.03438Q176.77812 255.03438 177.18437 254.8Q177.60625 254.55 177.77812 254.12813Q177.96562 253.70625 177.96562 252.90938L177.96562 249.58125L179.0125 249.58125L179.0125 255.8L178.075 255.8ZM180.99687 255.8L180.99687 249.58125L181.93437 249.58125L181.93437 250.45625Q182.62187 249.44063 183.91875 249.44063Q184.48125 249.44063 184.95 249.64375Q185.43437 249.84688 185.66875 250.175Q185.90312 250.50313 185.99687 250.94063Q186.04375 251.2375 186.04375 251.97188L186.04375 255.8L184.99687 255.8L184.99687 252.01875Q184.99687 251.3625 184.87187 251.05Q184.74687 250.7375 184.43437 250.55Q184.12187 250.34688 183.7 250.34688Q183.02812 250.34688 182.52812 250.78438Q182.04375 251.20625 182.04375 252.39375L182.04375 255.8L180.99687 255.8ZM192.05937 255.03438Q191.46562 255.53438 190.91875 255.7375Q190.3875 255.94063 189.7625 255.94063Q188.73125 255.94063 188.18437 255.44063Q187.6375 254.94063 187.6375 254.15938Q187.6375 253.70625 187.84062 253.33125Q188.04375 252.94063 188.3875 252.72188Q188.73125 252.4875 189.15312 252.37813Q189.45 252.28438 190.09062 252.20625Q191.35625 252.06563 191.96562 251.84688Q191.96562 251.62813 191.96562 251.58125Q191.96562 250.925 191.66875 250.65938Q191.2625 250.31563 190.46562 250.31563Q189.73125 250.31563 189.37187 250.58125Q189.0125 250.83125 188.84062 251.4875L187.80937 251.34688Q187.95 250.69063 188.27812 250.28438Q188.60625 249.87813 189.21562 249.65938Q189.825 249.44063 190.62187 249.44063Q191.41875 249.44063 191.91875 249.62813Q192.41875 249.81563 192.65312 250.09688Q192.8875 250.37813 192.98125 250.81563Q193.02812 251.08125 193.02812 251.78438L193.02812 253.19063Q193.02812 254.65938 193.09062 255.05Q193.16875 255.44063 193.37187 255.8L192.2625 255.8Q192.10625 255.47188 192.05937 255.03438ZM191.96562 252.675Q191.3875 252.90938 190.24687 253.08125Q189.59062 253.175 189.325 253.3Q189.05937 253.40938 188.90312 253.62813Q188.7625 253.84688 188.7625 254.12813Q188.7625 254.55 189.075 254.83125Q189.40312 255.1125 190.0125 255.1125Q190.62187 255.1125 191.09062 254.84688Q191.575 254.58125 191.79375 254.1125Q191.96562 253.75313 191.96562 253.06563L191.96562 252.675ZM202.05937 253.51875L203.09062 253.65938Q202.91875 254.72188 202.21562 255.33125Q201.5125 255.94063 200.49687 255.94063Q199.21562 255.94063 198.43437 255.1125Q197.66875 254.26875 197.66875 252.70625Q197.66875 251.70625 197.99687 250.95625Q198.34062 250.19063 199.0125 249.81563Q199.7 249.44063 200.5125 249.44063Q201.5125 249.44063 202.15312 249.95625Q202.80937 250.45625 202.99687 251.40938L201.96562 251.56563Q201.825 250.94063 201.45 250.62813Q201.075 250.3 200.54375 250.3Q199.74687 250.3 199.24687 250.87813Q198.74687 251.44063 198.74687 252.675Q198.74687 253.94063 199.23125 254.50313Q199.71562 255.06563 200.48125 255.06563Q201.10625 255.06563 201.5125 254.69063Q201.93437 254.31563 202.05937 253.51875ZM203.98125 255.8L203.98125 249.58125L204.93437 249.58125L204.93437 250.51875Q205.29375 249.8625 205.59062 249.65938Q205.90312 249.44063 206.27812 249.44063Q206.80937 249.44063 207.35625 249.76875L206.99687 250.75313Q206.60625 250.51875 206.23125 250.51875Q205.87187 250.51875 205.59062 250.7375Q205.325 250.94063 205.21562 251.31563Q205.02812 251.87813 205.02812 252.53438L205.02812 255.8L203.98125 255.8ZM207.99687 248.425L207.99687 247.20625L209.05937 247.20625L209.05937 248.425L207.99687 248.425ZM207.99687 255.8L207.99687 249.58125L209.05937 249.58125L209.05937 255.8L207.99687 255.8ZM213.29375 254.8625L213.45 255.78438Q212.99687 255.87813 212.65312 255.87813Q212.075 255.87813 211.7625 255.70625Q211.45 255.51875 211.30937 255.22188Q211.18437 254.925 211.18437 253.97188L211.18437 250.39375L210.41875 250.39375L210.41875 249.58125L211.18437 249.58125L211.18437 248.03438L212.23125 247.40938L212.23125 249.58125L213.29375 249.58125L213.29375 250.39375L212.23125 250.39375L212.23125 254.03438Q212.23125 254.4875 212.27812 254.6125Q212.34062 254.7375 212.46562 254.81563Q212.59062 254.89375 212.825 254.89375Q213.0125 254.89375 213.29375 254.8625ZM213.99687 248.425L213.99687 247.20625L215.05937 247.20625L215.05937 248.425L213.99687 248.425ZM213.99687 255.8L213.99687 249.58125L215.05937 249.58125L215.05937 255.8L213.99687 255.8ZM221.05937 253.51875L222.09062 253.65938Q221.91875 254.72188 221.21562 255.33125Q220.5125 255.94063 219.49687 255.94063Q218.21562 255.94063 217.43437 255.1125Q216.66875 254.26875 216.66875 252.70625Q216.66875 251.70625 216.99687 250.95625Q217.34062 250.19063 218.0125 249.81563Q218.7 249.44063 219.5125 249.44063Q220.5125 249.44063 221.15312 249.95625Q221.80937 250.45625 221.99687 251.40938L220.96562 251.56563Q220.825 250.94063 220.45 250.62813Q220.075 250.3 219.54375 250.3Q218.74687 250.3 218.24687 250.87813Q217.74687 251.44063 217.74687 252.675Q217.74687 253.94063 218.23125 254.50313Q218.71562 255.06563 219.48125 255.06563Q220.10625 255.06563 220.5125 254.69063Q220.93437 254.31563 221.05937 253.51875ZM222.99687 248.425L222.99687 247.20625L224.05937 247.20625L224.05937 248.425L222.99687 248.425ZM222.99687 255.8L222.99687 249.58125L224.05937 249.58125L224.05937 255.8L222.99687 255.8ZM228.29375 254.8625L228.45 255.78438Q227.99687 255.87813 227.65312 255.87813Q227.075 255.87813 226.7625 255.70625Q226.45 255.51875 226.30937 255.22188Q226.18437 254.925 226.18437 253.97188L226.18437 250.39375L225.41875 250.39375L225.41875 249.58125L226.18437 249.58125L226.18437 248.03438L227.23125 247.40938L227.23125 249.58125L228.29375 249.58125L228.29375 250.39375L227.23125 250.39375L227.23125 254.03438Q227.23125 254.4875 227.27812 254.6125Q227.34062 254.7375 227.46562 254.81563Q227.59062 254.89375 227.825 254.89375Q228.0125 254.89375 228.29375 254.8625ZM233.05937 255.03438Q232.46562 255.53438 231.91875 255.7375Q231.3875 255.94063 230.7625 255.94063Q229.73125 255.94063 229.18437 255.44063Q228.6375 254.94063 228.6375 254.15938Q228.6375 253.70625 228.84062 253.33125Q229.04375 252.94063 229.3875 252.72188Q229.73125 252.4875 230.15312 252.37813Q230.45 252.28438 231.09062 252.20625Q232.35625 252.06563 232.96562 251.84688Q232.96562 251.62813 232.96562 251.58125Q232.96562 250.925 232.66875 250.65938Q232.2625 250.31563 231.46562 250.31563Q230.73125 250.31563 230.37187 250.58125Q230.0125 250.83125 229.84062 251.4875L228.80937 251.34688Q228.95 250.69063 229.27812 250.28438Q229.60625 249.87813 230.21562 249.65938Q230.825 249.44063 231.62187 249.44063Q232.41875 249.44063 232.91875 249.62813Q233.41875 249.81563 233.65312 250.09688Q233.8875 250.37813 233.98125 250.81563Q234.02812 251.08125 234.02812 251.78438L234.02812 253.19063Q234.02812 254.65938 234.09062 255.05Q234.16875 255.44063 234.37187 255.8L233.2625 255.8Q233.10625 255.47188 233.05937 255.03438ZM232.96562 252.675Q232.3875 252.90938 231.24687 253.08125Q230.59062 253.175 230.325 253.3Q230.05937 253.40938 229.90312 253.62813Q229.7625 253.84688 229.7625 254.12813Q229.7625 254.55 230.075 254.83125Q230.40312 255.1125 231.0125 255.1125Q231.62187 255.1125 232.09062 254.84688Q232.575 254.58125 232.79375 254.1125Q232.96562 253.75313 232.96562 253.06563L232.96562 252.675ZM232.3875 248.8L231.54375 248.8L230.18437 247.15938L231.60625 247.15938L232.3875 248.8Z" fill-rule="nonzero"/><path fill="#fbbc04" d="M263.2 251.8C263.2 255.11371 260.5137 257.8 257.2 257.8C253.88629 257.8 251.2 255.11371 251.2 251.8C251.2 248.4863 253.88629 245.8 257.2 245.8C260.5137 245.8 263.2 248.4863 263.2 251.8Z" fill-rule="nonzero"/><path fill="#1a1a1a" d="M272.1219 255.8L272.1219 247.20625L275.3719 247.20625Q276.21564 247.20625 276.66876 247.28438Q277.3094 247.39375 277.73126 247.69063Q278.16876 247.9875 278.41876 248.51875Q278.6844 249.05 278.6844 249.69063Q278.6844 250.78438 277.98126 251.55Q277.29376 252.3 275.46564 252.3L273.2625 252.3L273.2625 255.8L272.1219 255.8ZM273.2625 251.3L275.48126 251.3Q276.59064 251.3 277.04376 250.89375Q277.5125 250.47188 277.5125 249.72188Q277.5125 249.19063 277.23126 248.81563Q276.96564 248.425 276.52814 248.3Q276.23126 248.22188 275.46564 248.22188L273.2625 248.22188L273.2625 251.3ZM279.60626 252.69063Q279.60626 250.95625 280.5594 250.12813Q281.35626 249.44063 282.5125 249.44063Q283.79376 249.44063 284.60626 250.28438Q285.4344 251.1125 285.4344 252.59688Q285.4344 253.8 285.075 254.4875Q284.71564 255.175 284.0125 255.56563Q283.325 255.94063 282.5125 255.94063Q281.21564 255.94063 280.40314 255.1125Q279.60626 254.26875 279.60626 252.69063ZM280.6844 252.69063Q280.6844 253.87813 281.2 254.47188Q281.73126 255.06563 282.5125 255.06563Q283.3094 255.06563 283.825 254.47188Q284.34064 253.87813 284.34064 252.65938Q284.34064 251.50313 283.8094 250.90938Q283.29376 250.31563 282.5125 250.31563Q281.73126 250.31563 281.2 250.90938Q280.6844 251.4875 280.6844 252.69063ZM291.0594 253.51875L292.09064 253.65938Q291.91876 254.72188 291.21564 255.33125Q290.5125 255.94063 289.4969 255.94063Q288.21564 255.94063 287.4344 255.1125Q286.66876 254.26875 286.66876 252.70625Q286.66876 251.70625 286.9969 250.95625Q287.34064 250.19063 288.0125 249.81563Q288.7 249.44063 289.5125 249.44063Q290.5125 249.44063 291.15314 249.95625Q291.8094 250.45625 291.9969 251.40938L290.96564 251.56563Q290.825 250.94063 290.45 250.62813Q290.075 250.3 289.54376 250.3Q288.7469 250.3 288.2469 250.87813Q287.7469 251.44063 287.7469 252.675Q287.7469 253.94063 288.23126 254.50313Q288.71564 255.06563 289.48126 255.06563Q290.10626 255.06563 290.5125 254.69063Q290.9344 254.31563 291.0594 253.51875ZM292.60626 252.69063Q292.60626 250.95625 293.5594 250.12813Q294.35626 249.44063 295.5125 249.44063Q296.79376 249.44063 297.60626 250.28438Q298.4344 251.1125 298.4344 252.59688Q298.4344 253.8 298.075 254.4875Q297.71564 255.175 297.0125 255.56563Q296.325 255.94063 295.5125 255.94063Q294.21564 255.94063 293.40314 255.1125Q292.60626 254.26875 292.60626 252.69063ZM293.6844 252.69063Q293.6844 253.87813 294.2 254.47188Q294.73126 255.06563 295.5125 255.06563Q296.3094 255.06563 296.825 254.47188Q297.34064 253.87813 297.34064 252.65938Q297.34064 251.50313 296.8094 250.90938Q296.29376 250.31563 295.5125 250.31563Q294.73126 250.31563 294.2 250.90938Q293.6844 251.4875 293.6844 252.69063ZM307.0594 253.51875L308.09064 253.65938Q307.91876 254.72188 307.21564 255.33125Q306.5125 255.94063 305.4969 255.94063Q304.21564 255.94063 303.4344 255.1125Q302.66876 254.26875 302.66876 252.70625Q302.66876 251.70625 302.9969 250.95625Q303.34064 250.19063 304.0125 249.81563Q304.7 249.44063 305.5125 249.44063Q306.5125 249.44063 307.15314 249.95625Q307.8094 250.45625 307.9969 251.40938L306.96564 251.56563Q306.825 250.94063 306.45 250.62813Q306.075 250.3 305.54376 250.3Q304.7469 250.3 304.2469 250.87813Q303.7469 251.44063 303.7469 252.675Q303.7469 253.94063 304.23126 254.50313Q304.71564 255.06563 305.48126 255.06563Q306.10626 255.06563 306.5125 254.69063Q306.9344 254.31563 307.0594 253.51875ZM308.9969 255.8L308.9969 247.20625L310.04376 247.20625L310.04376 250.28438Q310.77814 249.44063 311.90314 249.44063Q312.60626 249.44063 313.10626 249.72188Q313.6219 249.9875 313.84064 250.47188Q314.0594 250.94063 314.0594 251.8625L314.0594 255.8L313.0125 255.8L313.0125 251.8625Q313.0125 251.06563 312.66876 250.70625Q312.325 250.34688 311.7 250.34688Q311.23126 250.34688 310.8094 250.59688Q310.40314 250.83125 310.21564 251.25313Q310.04376 251.65938 310.04376 252.39375L310.04376 255.8L308.9969 255.8ZM315.9969 248.425L315.9969 247.20625L317.0594 247.20625L317.0594 248.425L315.9969 248.425ZM315.9969 255.8L315.9969 249.58125L317.0594 249.58125L317.0594 255.8L315.9969 255.8ZM323.0594 255.03438Q322.46564 255.53438 321.91876 255.7375Q321.3875 255.94063 320.7625 255.94063Q319.73126 255.94063 319.1844 255.44063Q318.6375 254.94063 318.6375 254.15938Q318.6375 253.70625 318.84064 253.33125Q319.04376 252.94063 319.3875 252.72188Q319.73126 252.4875 320.15314 252.37813Q320.45 252.28438 321.09064 252.20625Q322.35626 252.06563 322.96564 251.84688Q322.96564 251.62813 322.96564 251.58125Q322.96564 250.925 322.66876 250.65938Q322.2625 250.31563 321.46564 250.31563Q320.73126 250.31563 320.3719 250.58125Q320.0125 250.83125 319.84064 251.4875L318.8094 251.34688Q318.95 250.69063 319.27814 250.28438Q319.60626 249.87813 320.21564 249.65938Q320.825 249.44063 321.6219 249.44063Q322.41876 249.44063 322.91876 249.62813Q323.41876 249.81563 323.65314 250.09688Q323.8875 250.37813 323.98126 250.81563Q324.02814 251.08125 324.02814 251.78438L324.02814 253.19063Q324.02814 254.65938 324.09064 255.05Q324.16876 255.44063 324.3719 255.8L323.2625 255.8Q323.10626 255.47188 323.0594 255.03438ZM322.96564 252.675Q322.3875 252.90938 321.2469 253.08125Q320.59064 253.175 320.325 253.3Q320.0594 253.40938 319.90314 253.62813Q319.7625 253.84688 319.7625 254.12813Q319.7625 254.55 320.075 254.83125Q320.40314 255.1125 321.0125 255.1125Q321.6219 255.1125 322.09064 254.84688Q322.575 254.58125 322.79376 254.1125Q322.96564 253.75313 322.96564 253.06563L322.96564 252.675ZM325.98126 255.8L325.98126 249.58125L326.9344 249.58125L326.9344 250.51875Q327.29376 249.8625 327.59064 249.65938Q327.90314 249.44063 328.27814 249.44063Q328.8094 249.44063 329.35626 249.76875L328.9969 250.75313Q328.60626 250.51875 328.23126 250.51875Q327.8719 250.51875 327.59064 250.7375Q327.325 250.94063 327.21564 251.31563Q327.02814 251.87813 327.02814 252.53438L327.02814 255.8L325.98126 255.8ZM329.60626 252.69063Q329.60626 250.95625 330.5594 250.12813Q331.35626 249.44063 332.5125 249.44063Q333.79376 249.44063 334.60626 250.28438Q335.4344 251.1125 335.4344 252.59688Q335.4344 253.8 335.075 254.4875Q334.71564 255.175 334.0125 255.56563Q333.325 255.94063 332.5125 255.94063Q331.21564 255.94063 330.40314 255.1125Q329.60626 254.26875 329.60626 252.69063ZM330.6844 252.69063Q330.6844 253.87813 331.2 254.47188Q331.73126 255.06563 332.5125 255.06563Q333.3094 255.06563 333.825 254.47188Q334.34064 253.87813 334.34064 252.65938Q334.34064 251.50313 333.8094 250.90938Q333.29376 250.31563 332.5125 250.31563Q331.73126 250.31563 331.2 250.90938Q330.6844 251.4875 330.6844 252.69063Z" fill-rule="nonzero"/><path fill="#34a853" d="M364.2 251.8C364.2 255.11371 361.5137 257.8 358.2 257.8C354.8863 257.8 352.2 255.11371 352.2 251.8C352.2 248.4863 354.8863 245.8 358.2 245.8C361.5137 245.8 364.2 248.4863 364.2 251.8Z" fill-rule="nonzero"/><path fill="#1a1a1a" d="M373.1219 255.8L373.1219 247.20625L376.3719 247.20625Q377.21564 247.20625 377.66876 247.28438Q378.3094 247.39375 378.73126 247.69063Q379.16876 247.9875 379.41876 248.51875Q379.6844 249.05 379.6844 249.69063Q379.6844 250.78438 378.98126 251.55Q378.29376 252.3 376.46564 252.3L374.2625 252.3L374.2625 255.8L373.1219 255.8ZM374.2625 251.3L376.48126 251.3Q377.59064 251.3 378.04376 250.89375Q378.5125 250.47188 378.5125 249.72188Q378.5125 249.19063 378.23126 248.81563Q377.96564 248.425 377.52814 248.3Q377.23126 248.22188 376.46564 248.22188L374.2625 248.22188L374.2625 251.3ZM380.60626 252.69063Q380.60626 250.95625 381.5594 250.12813Q382.35626 249.44063 383.5125 249.44063Q384.79376 249.44063 385.60626 250.28438Q386.4344 251.1125 386.4344 252.59688Q386.4344 253.8 386.075 254.4875Q385.71564 255.175 385.0125 255.56563Q384.325 255.94063 383.5125 255.94063Q382.21564 255.94063 381.40314 255.1125Q380.60626 254.26875 380.60626 252.69063ZM381.6844 252.69063Q381.6844 253.87813 382.2 254.47188Q382.73126 255.06563 383.5125 255.06563Q384.3094 255.06563 384.825 254.47188Q385.34064 253.87813 385.34064 252.65938Q385.34064 251.50313 384.8094 250.90938Q384.29376 250.31563 383.5125 250.31563Q382.73126 250.31563 382.2 250.90938Q381.6844 251.4875 381.6844 252.69063ZM392.0594 253.51875L393.09064 253.65938Q392.91876 254.72188 392.21564 255.33125Q391.5125 255.94063 390.4969 255.94063Q389.21564 255.94063 388.4344 255.1125Q387.66876 254.26875 387.66876 252.70625Q387.66876 251.70625 387.9969 250.95625Q388.34064 250.19063 389.0125 249.81563Q389.7 249.44063 390.5125 249.44063Q391.5125 249.44063 392.15314 249.95625Q392.8094 250.45625 392.9969 251.40938L391.96564 251.56563Q391.825 250.94063 391.45 250.62813Q391.075 250.3 390.54376 250.3Q389.7469 250.3 389.2469 250.87813Q388.7469 251.44063 388.7469 252.675Q388.7469 253.94063 389.23126 254.50313Q389.71564 255.06563 390.48126 255.06563Q391.10626 255.06563 391.5125 254.69063Q391.9344 254.31563 392.0594 253.51875ZM393.60626 252.69063Q393.60626 250.95625 394.5594 250.12813Q395.35626 249.44063 396.5125 249.44063Q397.79376 249.44063 398.60626 250.28438Q399.4344 251.1125 399.4344 252.59688Q399.4344 253.8 399.075 254.4875Q398.71564 255.175 398.0125 255.56563Q397.325 255.94063 396.5125 255.94063Q395.21564 255.94063 394.40314 255.1125Q393.60626 254.26875 393.60626 252.69063ZM394.6844 252.69063Q394.6844 253.87813 395.2 254.47188Q395.73126 255.06563 396.5125 255.06563Q397.3094 255.06563 397.825 254.47188Q398.34064 253.87813 398.34064 252.65938Q398.34064 251.50313 397.8094 250.90938Q397.29376 250.31563 396.5125 250.31563Q395.73126 250.31563 395.2 250.90938Q394.6844 251.4875 394.6844 252.69063ZM408.0594 253.51875L409.09064 253.65938Q408.91876 254.72188 408.21564 255.33125Q407.5125 255.94063 406.4969 255.94063Q405.21564 255.94063 404.4344 255.1125Q403.66876 254.26875 403.66876 252.70625Q403.66876 251.70625 403.9969 250.95625Q404.34064 250.19063 405.0125 249.81563Q405.7 249.44063 406.5125 249.44063Q407.5125 249.44063 408.15314 249.95625Q408.8094 250.45625 408.9969 251.40938L407.96564 251.56563Q407.825 250.94063 407.45 250.62813Q407.075 250.3 406.54376 250.3Q405.7469 250.3 405.2469 250.87813Q404.7469 251.44063 404.7469 252.675Q404.7469 253.94063 405.23126 254.50313Q405.71564 255.06563 406.48126 255.06563Q407.10626 255.06563 407.5125 254.69063Q407.9344 254.31563 408.0594 253.51875ZM409.60626 252.69063Q409.60626 250.95625 410.5594 250.12813Q411.35626 249.44063 412.5125 249.44063Q413.79376 249.44063 414.60626 250.28438Q415.4344 251.1125 415.4344 252.59688Q415.4344 253.8 415.075 254.4875Q414.71564 255.175 414.0125 255.56563Q413.325 255.94063 412.5125 255.94063Q411.21564 255.94063 410.40314 255.1125Q409.60626 254.26875 409.60626 252.69063ZM410.6844 252.69063Q410.6844 253.87813 411.2 254.47188Q411.73126 255.06563 412.5125 255.06563Q413.3094 255.06563 413.825 254.47188Q414.34064 253.87813 414.34064 252.65938Q414.34064 251.50313 413.8094 250.90938Q413.29376 250.31563 412.5125 250.31563Q411.73126 250.31563 411.2 250.90938Q410.6844 251.4875 410.6844 252.69063ZM416.9969 248.425L416.9969 247.20625L418.0594 247.20625L418.0594 248.425L416.9969 248.425ZM416.9969 255.8L416.9969 249.58125L418.0594 249.58125L418.0594 255.8L416.9969 255.8ZM419.9969 255.8L419.9969 249.58125L420.9344 249.58125L420.9344 250.45625Q421.6219 249.44063 422.91876 249.44063Q423.48126 249.44063 423.95 249.64375Q424.4344 249.84688 424.66876 250.175Q424.90314 250.50313 424.9969 250.94063Q425.04376 251.2375 425.04376 251.97188L425.04376 255.8L423.9969 255.8L423.9969 252.01875Q423.9969 251.3625 423.8719 251.05Q423.7469 250.7375 423.4344 250.55Q423.1219 250.34688 422.7 250.34688Q422.02814 250.34688 421.52814 250.78438Q421.04376 251.20625 421.04376 252.39375L421.04376 255.8L419.9969 255.8ZM428.71564 255.8L426.35626 249.58125L427.46564 249.58125L428.8094 253.3Q429.0125 253.90938 429.2 254.55Q429.34064 254.06563 429.59064 253.37813L430.98126 249.58125L432.0594 249.58125L429.7 255.8L428.71564 255.8ZM431.60626 252.69063Q431.60626 250.95625 432.5594 250.12813Q433.35626 249.44063 434.5125 249.44063Q435.79376 249.44063 436.60626 250.28438Q437.4344 251.1125 437.4344 252.59688Q437.4344 253.8 437.075 254.4875Q436.71564 255.175 436.0125 255.56563Q435.325 255.94063 434.5125 255.94063Q433.21564 255.94063 432.40314 255.1125Q431.60626 254.26875 431.60626 252.69063ZM432.6844 252.69063Q432.6844 253.87813 433.2 254.47188Q433.73126 255.06563 434.5125 255.06563Q435.3094 255.06563 435.825 254.47188Q436.34064 253.87813 436.34064 252.65938Q436.34064 251.50313 435.8094 250.90938Q435.29376 250.31563 434.5125 250.31563Q433.73126 250.31563 433.2 250.90938Q432.6844 251.4875 432.6844 252.69063ZM438.96564 255.8L438.96564 247.20625L440.02814 247.20625L440.02814 255.8L438.96564 255.8ZM441.79376 256.3156L442.825 256.47186Q442.8875 256.9406 443.1844 257.15936Q443.575 257.45624 444.2469 257.45624Q444.98126 257.45624 445.3719 257.15936Q445.77814 256.8625 445.91876 256.34686Q446.0125 256.01874 445.9969 254.9875Q445.3094 255.8 444.27814 255.8Q442.9969 255.8 442.29376 254.87813Q441.59064 253.94063 441.59064 252.65938Q441.59064 251.76875 441.90314 251.01875Q442.23126 250.25313 442.84064 249.84688Q443.45 249.44063 444.27814 249.44063Q445.3875 249.44063 446.10626 250.33125L446.10626 249.58125L447.075 249.58125L447.075 254.95625Q447.075 256.40936 446.77814 257.01874Q446.48126 257.6281 445.84064 257.97186Q445.2 258.33124 444.2625 258.33124Q443.15314 258.33124 442.46564 257.83124Q441.77814 257.33124 441.79376 256.3156ZM442.66876 252.58125Q442.66876 253.8 443.15314 254.3625Q443.6375 254.925 444.3719 254.925Q445.10626 254.925 445.59064 254.3625Q446.09064 253.8 446.09064 252.6125Q446.09064 251.47188 445.575 250.89375Q445.075 250.31563 444.35626 250.31563Q443.65314 250.31563 443.15314 250.89375Q442.66876 251.45625 442.66876 252.58125ZM453.2469 253.8L454.34064 253.925Q454.09064 254.87813 453.3875 255.40938Q452.6844 255.94063 451.60626 255.94063Q450.2469 255.94063 449.4344 255.09688Q448.6375 254.25313 448.6375 252.7375Q448.6375 251.175 449.45 250.31563Q450.2625 249.44063 451.54376 249.44063Q452.79376 249.44063 453.575 250.28438Q454.3719 251.12813 454.3719 252.675Q454.3719 252.76875 454.3719 252.95625L449.73126 252.95625Q449.79376 253.9875 450.3094 254.53438Q450.825 255.06563 451.60626 255.06563Q452.1844 255.06563 452.59064 254.76875Q453.0125 254.45625 453.2469 253.8ZM449.79376 252.09688L453.2625 252.09688Q453.2 251.3 452.8719 250.90938Q452.35626 250.3 451.5594 250.3Q450.825 250.3 450.325 250.78438Q449.84064 251.26875 449.79376 252.09688ZM455.9969 255.8L455.9969 249.58125L456.9344 249.58125L456.9344 250.45625Q457.6219 249.44063 458.91876 249.44063Q459.48126 249.44063 459.95 249.64375Q460.4344 249.84688 460.66876 250.175Q460.90314 250.50313 460.9969 250.94063Q461.04376 251.2375 461.04376 251.97188L461.04376 255.8L459.9969 255.8L459.9969 252.01875Q459.9969 251.3625 459.8719 251.05Q459.7469 250.7375 459.4344 250.55Q459.1219 250.34688 458.7 250.34688Q458.02814 250.34688 457.52814 250.78438Q457.04376 251.20625 457.04376 252.39375L457.04376 255.8L455.9969 255.8ZM465.29376 254.8625L465.45 255.78438Q464.9969 255.87813 464.65314 255.87813Q464.075 255.87813 463.7625 255.70625Q463.45 255.51875 463.3094 255.22188Q463.1844 254.925 463.1844 253.97188L463.1844 250.39375L462.41876 250.39375L462.41876 249.58125L463.1844 249.58125L463.1844 248.03438L464.23126 247.40938L464.23126 249.58125L465.29376 249.58125L465.29376 250.39375L464.23126 250.39375L464.23126 254.03438Q464.23126 254.4875 464.27814 254.6125Q464.34064 254.7375 464.46564 254.81563Q464.59064 254.89375 464.825 254.89375Q465.0125 254.89375 465.29376 254.8625ZM470.2469 253.8L471.34064 253.925Q471.09064 254.87813 470.3875 255.40938Q469.6844 255.94063 468.60626 255.94063Q467.2469 255.94063 466.4344 255.09688Q465.6375 254.25313 465.6375 252.7375Q465.6375 251.175 466.45 250.31563Q467.2625 249.44063 468.54376 249.44063Q469.79376 249.44063 470.575 250.28438Q471.3719 251.12813 471.3719 252.675Q471.3719 252.76875 471.3719 252.95625L466.73126 252.95625Q466.79376 253.9875 467.3094 254.53438Q467.825 255.06563 468.60626 255.06563Q469.1844 255.06563 469.59064 254.76875Q470.0125 254.45625 470.2469 253.8ZM466.79376 252.09688L470.2625 252.09688Q470.2 251.3 469.8719 250.90938Q469.35626 250.3 468.5594 250.3Q467.825 250.3 467.325 250.78438Q466.84064 251.26875 466.79376 252.09688Z" fill-rule="nonzero"/><path fill="#757575" d="M27.590626 32.66875Q28.91875 33.575 30.028126 33.996876L29.465626 35.309376Q27.91875 34.7625 26.3875 33.559376Q24.79375 34.45 22.871876 34.45Q20.934376 34.45 19.340626 33.5125Q17.7625 32.575 16.903126 30.871876Q16.059376 29.16875 16.059376 27.04375Q16.059376 24.91875 16.91875 23.184376Q17.778126 21.45 19.35625 20.54375Q20.95 19.621876 22.91875 19.621876Q24.903126 19.621876 26.48125 20.575Q28.075 21.5125 28.903126 23.215626Q29.746876 24.903126 29.746876 27.028126Q29.746876 28.79375 29.215626 30.215626Q28.684376 31.621876 27.590626 32.66875ZM23.41875 30.246876Q25.059376 30.7 26.121876 31.60625Q27.79375 30.090626 27.79375 27.028126Q27.79375 25.29375 27.2 23.996876Q26.621876 22.7 25.48125 21.98125Q24.340626 21.2625 22.91875 21.2625Q20.809376 21.2625 19.403126 22.715626Q18.0125 24.153126 18.0125 27.04375Q18.0125 29.840626 19.3875 31.340626Q20.778126 32.825 22.91875 32.825Q23.934376 32.825 24.840626 32.434376Q23.95 31.871876 22.965626 31.621876L23.41875 30.246876ZM39.309376 34.2L39.309376 32.66875Q38.10625 34.434376 36.028126 34.434376Q35.10625 34.434376 34.309376 34.090626Q33.5125 33.73125 33.121876 33.2Q32.746876 32.66875 32.590626 31.8875Q32.48125 31.371876 32.48125 30.246876L32.48125 23.825L34.23125 23.825L34.23125 29.575Q34.23125 30.95 34.340626 31.434376Q34.5125 32.121876 35.04375 32.528126Q35.590626 32.91875 36.371876 32.91875Q37.16875 32.91875 37.85625 32.5125Q38.559376 32.10625 38.840626 31.41875Q39.1375 30.715626 39.1375 29.3875L39.1375 23.825L40.8875 23.825L40.8875 34.2L39.309376 34.2ZM49.29375 32.91875Q48.309376 33.746876 47.403126 34.090626Q46.496876 34.434376 45.465626 34.434376Q43.7625 34.434376 42.840626 33.60625Q41.91875 32.7625 41.91875 31.465626Q41.91875 30.7 42.2625 30.075Q42.621876 29.45 43.184376 29.075Q43.746876 28.684376 44.45 28.48125Q44.965626 28.35625 46.0125 28.215626Q48.1375 27.965626 49.1375 27.621876Q49.153126 27.2625 49.153126 27.153126Q49.153126 26.090626 48.653126 25.6375Q47.98125 25.04375 46.653126 25.04375Q45.403126 25.04375 44.809376 25.48125Q44.23125 25.91875 43.95 27.028126L42.23125 26.79375Q42.465626 25.684376 42.996876 25.0125Q43.528126 24.325 44.54375 23.965626Q45.559376 23.590626 46.903126 23.590626Q48.23125 23.590626 49.059376 23.903126Q49.8875 24.215626 50.278126 24.7Q50.66875 25.16875 50.825 25.8875Q50.91875 26.340626 50.91875 27.5125L50.91875 29.85625Q50.91875 32.309376 51.028126 32.965626Q51.1375 33.60625 51.48125 34.2L49.6375 34.2Q49.371876 33.653126 49.29375 32.91875ZM49.1375 28.996876Q48.184376 29.3875 46.2625 29.653126Q45.184376 29.809376 44.73125 30.0125Q44.29375 30.2 44.04375 30.575Q43.79375 30.95 43.79375 31.41875Q43.79375 32.121876 44.325 32.590626Q44.85625 33.059376 45.8875 33.059376Q46.903126 33.059376 47.684376 32.621876Q48.48125 32.16875 48.85625 31.403126Q49.1375 30.79375 49.1375 29.6375L49.1375 28.996876ZM53.48125 34.2L53.48125 19.8875L55.23125 19.8875L55.23125 34.2L53.48125 34.2ZM57.528126 21.903126L57.528126 19.8875L59.29375 19.8875L59.29375 21.903126L57.528126 21.903126ZM57.528126 34.2L57.528126 23.825L59.29375 23.825L59.29375 34.2L57.528126 34.2ZM66.80937 31.10625L68.55937 30.825Q68.7 31.871876 69.37187 32.434376Q70.04375 32.98125 71.24687 32.98125Q72.45 32.98125 73.02812 32.496876Q73.62187 31.996876 73.62187 31.340626Q73.62187 30.746876 73.10625 30.403126Q72.74687 30.16875 71.30937 29.809376Q69.37187 29.309376 68.62187 28.965626Q67.8875 28.60625 67.49687 27.98125Q67.10625 27.340626 67.10625 26.575Q67.10625 25.8875 67.41875 25.29375Q67.74687 24.7 68.29375 24.309376Q68.7 24.0125 69.40312 23.809376Q70.12187 23.590626 70.93437 23.590626Q72.15312 23.590626 73.075 23.95Q73.99687 24.29375 74.43437 24.903126Q74.87187 25.496876 75.04375 26.496876L73.325 26.73125Q73.2 25.934376 72.6375 25.496876Q72.075 25.04375 71.05937 25.04375Q69.84062 25.04375 69.325 25.45Q68.80937 25.840626 68.80937 26.371876Q68.80937 26.715626 69.02812 26.996876Q69.23125 27.278126 69.7 27.465626Q69.96562 27.559376 71.24687 27.903126Q73.12187 28.403126 73.85625 28.73125Q74.59062 29.04375 75.0125 29.653126Q75.43437 30.246876 75.43437 31.153126Q75.43437 32.028126 74.91875 32.809376Q74.40312 33.590626 73.43437 34.0125Q72.46562 34.434376 71.24687 34.434376Q69.23125 34.434376 68.16875 33.590626Q67.10625 32.746876 66.80937 31.10625ZM76.87187 29.0125Q76.87187 26.1375 78.46562 24.746876Q79.80937 23.590626 81.73125 23.590626Q83.87187 23.590626 85.21562 24.996876Q86.575 26.403126 86.575 28.871876Q86.575 30.871876 85.98125 32.028126Q85.3875 33.16875 84.23125 33.809376Q83.09062 34.434376 81.73125 34.434376Q79.54375 34.434376 78.2 33.04375Q76.87187 31.6375 76.87187 29.0125ZM78.66875 29.0125Q78.66875 31.0125 79.52812 31.996876Q80.40312 32.98125 81.73125 32.98125Q83.04375 32.98125 83.90312 31.996876Q84.77812 30.996876 84.77812 28.95Q84.77812 27.028126 83.90312 26.04375Q83.02812 25.04375 81.73125 25.04375Q80.40312 25.04375 79.52812 26.04375Q78.66875 27.028126 78.66875 29.0125ZM88.5125 34.2L88.5125 23.825L90.10625 23.825L90.10625 25.309376Q91.24687 23.590626 93.40312 23.590626Q94.34062 23.590626 95.12187 23.934376Q95.91875 24.2625 96.30937 24.809376Q96.7 25.35625 96.85625 26.10625Q96.95 26.60625 96.95 27.825L96.95 34.2L95.18437 34.2L95.18437 27.8875Q95.18437 26.809376 94.98125 26.278126Q94.77812 25.746876 94.24687 25.434376Q93.73125 25.121876 93.02812 25.121876Q91.90312 25.121876 91.09062 25.840626Q90.27812 26.54375 90.27812 28.528126L90.27812 34.2L88.5125 34.2ZM97.87187 29.0125Q97.87187 26.1375 99.46562 24.746876Q100.80937 23.590626 102.73125 23.590626Q104.87187 23.590626 106.21562 24.996876Q107.575 26.403126 107.575 28.871876Q107.575 30.871876 106.98125 32.028126Q106.3875 33.16875 105.23125 33.809376Q104.09062 34.434376 102.73125 34.434376Q100.54375 34.434376 99.2 33.04375Q97.87187 31.6375 97.87187 29.0125ZM99.66875 29.0125Q99.66875 31.0125 100.52812 31.996876Q101.40312 32.98125 102.73125 32.98125Q104.04375 32.98125 104.90312 31.996876Q105.77812 30.996876 105.77812 28.95Q105.77812 27.028126 104.90312 26.04375Q104.02812 25.04375 102.73125 25.04375Q101.40312 25.04375 100.52812 26.04375Q99.66875 27.028126 99.66875 29.0125ZM115.48125 34.2L115.48125 19.8875L117.23125 19.8875L117.23125 34.2L115.48125 34.2ZM126.62187 30.85625L128.43437 31.090626Q128.0125 32.66875 126.84062 33.559376Q125.68437 34.434376 123.87187 34.434376Q121.60625 34.434376 120.2625 33.04375Q118.93437 31.6375 118.93437 29.10625Q118.93437 26.48125 120.27812 25.04375Q121.62187 23.590626 123.77812 23.590626Q125.85625 23.590626 127.16875 25.0125Q128.49687 26.41875 128.49687 28.996876Q128.49687 29.153126 128.48125 29.465626L120.74687 29.465626Q120.84062 31.16875 121.71562 32.075Q122.59062 32.98125 123.8875 32.98125Q124.85625 32.98125 125.52812 32.48125Q126.21562 31.965626 126.62187 30.85625ZM120.84062 28.0125L126.6375 28.0125Q126.52812 26.715626 125.98125 26.059376Q125.1375 25.04375 123.79375 25.04375Q122.59062 25.04375 121.7625 25.85625Q120.93437 26.653126 120.84062 28.0125ZM136.5125 38.16875L136.5125 23.825L138.12187 23.825L138.12187 25.16875Q138.68437 24.3875 139.3875 23.996876Q140.10625 23.590626 141.12187 23.590626Q142.45 23.590626 143.46562 24.278126Q144.48125 24.965626 144.99687 26.215626Q145.52812 27.45 145.52812 28.934376Q145.52812 30.528126 144.95 31.809376Q144.3875 33.075 143.29375 33.7625Q142.2 34.434376 140.99687 34.434376Q140.12187 34.434376 139.41875 34.059376Q138.73125 33.684376 138.27812 33.121876L138.27812 38.16875L136.5125 38.16875ZM138.10625 29.075Q138.10625 31.075 138.91875 32.028126Q139.73125 32.98125 140.8875 32.98125Q142.05937 32.98125 142.8875 31.996876Q143.73125 31.0125 143.73125 28.91875Q143.73125 26.95 142.90312 25.965626Q142.09062 24.965626 140.96562 24.965626Q139.84062 24.965626 138.96562 26.028126Q138.10625 27.075 138.10625 29.075ZM147.49687 34.2L147.49687 23.825L149.075 23.825L149.075 25.403126Q149.68437 24.29375 150.2 23.95Q150.71562 23.590626 151.325 23.590626Q152.21562 23.590626 153.1375 24.153126L152.52812 25.79375Q151.8875 25.403126 151.24687 25.403126Q150.66875 25.403126 150.2 25.7625Q149.74687 26.10625 149.54375 26.715626Q149.2625 27.653126 149.2625 28.7625L149.2625 34.2L147.49687 34.2ZM154.52812 21.903126L154.52812 19.8875L156.29375 19.8875L156.29375 21.903126L154.52812 21.903126ZM154.52812 34.2L154.52812 23.825L156.29375 23.825L156.29375 34.2L154.52812 34.2ZM158.5125 34.2L158.5125 23.825L160.10625 23.825L160.10625 25.309376Q161.24687 23.590626 163.40312 23.590626Q164.34062 23.590626 165.12187 23.934376Q165.91875 24.2625 166.30937 24.809376Q166.7 25.35625 166.85625 26.10625Q166.95 26.60625 166.95 27.825L166.95 34.2L165.18437 34.2L165.18437 27.8875Q165.18437 26.809376 164.98125 26.278126Q164.77812 25.746876 164.24687 25.434376Q163.73125 25.121876 163.02812 25.121876Q161.90312 25.121876 161.09062 25.840626Q160.27812 26.54375 160.27812 28.528126L160.27812 34.2L158.5125 34.2ZM175.29375 30.403126L177.0125 30.621876Q176.73125 32.41875 175.55937 33.434376Q174.40312 34.434376 172.7 34.434376Q170.575 34.434376 169.27812 33.04375Q167.98125 31.653126 167.98125 29.059376Q167.98125 27.371876 168.52812 26.121876Q169.09062 24.85625 170.23125 24.23125Q171.37187 23.590626 172.71562 23.590626Q174.40312 23.590626 175.46562 24.45Q176.54375 25.309376 176.85625 26.871876L175.1375 27.1375Q174.90312 26.090626 174.27812 25.575Q173.65312 25.04375 172.77812 25.04375Q171.45 25.04375 170.62187 25.996876Q169.79375 26.95 169.79375 28.996876Q169.79375 31.090626 170.59062 32.04375Q171.3875 32.98125 172.68437 32.98125Q173.71562 32.98125 174.40312 32.35625Q175.10625 31.715626 175.29375 30.403126ZM178.52812 21.903126L178.52812 19.8875L180.29375 19.8875L180.29375 21.903126L178.52812 21.903126ZM178.52812 34.2L178.52812 23.825L180.29375 23.825L180.29375 34.2L178.52812 34.2ZM182.5125 38.16875L182.5125 23.825L184.12187 23.825L184.12187 25.16875Q184.68437 24.3875 185.3875 23.996876Q186.10625 23.590626 187.12187 23.590626Q188.45 23.590626 189.46562 24.278126Q190.48125 24.965626 190.99687 26.215626Q191.52812 27.45 191.52812 28.934376Q191.52812 30.528126 190.95 31.809376Q190.3875 33.075 189.29375 33.7625Q188.2 34.434376 186.99687 34.434376Q186.12187 34.434376 185.41875 34.059376Q184.73125 33.684376 184.27812 33.121876L184.27812 38.16875L182.5125 38.16875ZM184.10625 29.075Q184.10625 31.075 184.91875 32.028126Q185.73125 32.98125 186.8875 32.98125Q188.05937 32.98125 188.8875 31.996876Q189.73125 31.0125 189.73125 28.91875Q189.73125 26.95 188.90312 25.965626Q188.09062 24.965626 186.96562 24.965626Q185.84062 24.965626 184.96562 26.028126Q184.10625 27.075 184.10625 29.075ZM200.29375 32.91875Q199.30937 33.746876 198.40312 34.090626Q197.49687 34.434376 196.46562 34.434376Q194.7625 34.434376 193.84062 33.60625Q192.91875 32.7625 192.91875 31.465626Q192.91875 30.7 193.2625 30.075Q193.62187 29.45 194.18437 29.075Q194.74687 28.684376 195.45 28.48125Q195.96562 28.35625 197.0125 28.215626Q199.1375 27.965626 200.1375 27.621876Q200.15312 27.2625 200.15312 27.153126Q200.15312 26.090626 199.65312 25.6375Q198.98125 25.04375 197.65312 25.04375Q196.40312 25.04375 195.80937 25.48125Q195.23125 25.91875 194.95 27.028126L193.23125 26.79375Q193.46562 25.684376 193.99687 25.0125Q194.52812 24.325 195.54375 23.965626Q196.55937 23.590626 197.90312 23.590626Q199.23125 23.590626 200.05937 23.903126Q200.8875 24.215626 201.27812 24.7Q201.66875 25.16875 201.825 25.8875Q201.91875 26.340626 201.91875 27.5125L201.91875 29.85625Q201.91875 32.309376 202.02812 32.965626Q202.1375 33.60625 202.48125 34.2L200.6375 34.2Q200.37187 33.653126 200.29375 32.91875ZM200.1375 28.996876Q199.18437 29.3875 197.2625 29.653126Q196.18437 29.809376 195.73125 30.0125Q195.29375 30.2 195.04375 30.575Q194.79375 30.95 194.79375 31.41875Q194.79375 32.121876 195.325 32.590626Q195.85625 33.059376 196.8875 33.059376Q197.90312 33.059376 198.68437 32.621876Q199.48125 32.16875 199.85625 31.403126Q200.1375 30.79375 200.1375 29.6375L200.1375 28.996876ZM204.48125 34.2L204.48125 19.8875L206.23125 19.8875L206.23125 34.2L204.48125 34.2ZM208.52812 21.903126L208.52812 19.8875L210.29375 19.8875L210.29375 21.903126L208.52812 21.903126ZM208.52812 34.2L208.52812 23.825L210.29375 23.825L210.29375 34.2L208.52812 34.2ZM225.29375 30.403126L227.0125 30.621876Q226.73125 32.41875 225.55937 33.434376Q224.40312 34.434376 222.7 34.434376Q220.575 34.434376 219.27812 33.04375Q217.98125 31.653126 217.98125 29.059376Q217.98125 27.371876 218.52812 26.121876Q219.09062 24.85625 220.23125 24.23125Q221.37187 23.590626 222.71562 23.590626Q224.40312 23.590626 225.46562 24.45Q226.54375 25.309376 226.85625 26.871876L225.1375 27.1375Q224.90312 26.090626 224.27812 25.575Q223.65312 25.04375 222.77812 25.04375Q221.45 25.04375 220.62187 25.996876Q219.79375 26.95 219.79375 28.996876Q219.79375 31.090626 220.59062 32.04375Q221.3875 32.98125 222.68437 32.98125Q223.71562 32.98125 224.40312 32.35625Q225.10625 31.715626 225.29375 30.403126ZM228.49687 34.2L228.49687 23.825L230.075 23.825L230.075 25.403126Q230.68437 24.29375 231.2 23.95Q231.71562 23.590626 232.325 23.590626Q233.21562 23.590626 234.1375 24.153126L233.52812 25.79375Q232.8875 25.403126 232.24687 25.403126Q231.66875 25.403126 231.2 25.7625Q230.74687 26.10625 230.54375 26.715626Q230.2625 27.653126 230.2625 28.7625L230.2625 34.2L228.49687 34.2ZM235.52812 21.903126L235.52812 19.8875L237.29375 19.8875L237.29375 21.903126L235.52812 21.903126ZM235.52812 34.2L235.52812 23.825L237.29375 23.825L237.29375 34.2L235.52812 34.2ZM243.35625 32.621876L243.60625 34.184376Q242.87187 34.340626 242.27812 34.340626Q241.325 34.340626 240.79375 34.04375Q240.27812 33.73125 240.05937 33.246876Q239.84062 32.746876 239.84062 31.16875L239.84062 25.2L238.55937 25.2L238.55937 23.825L239.84062 23.825L239.84062 21.2625L241.59062 20.2L241.59062 23.825L243.35625 23.825L243.35625 25.2L241.59062 25.2L241.59062 31.2625Q241.59062 32.0125 241.68437 32.23125Q241.77812 32.434376 241.98125 32.575Q242.2 32.7 242.59062 32.7Q242.87187 32.7 243.35625 32.621876ZM245.52812 21.903126L245.52812 19.8875L247.29375 19.8875L247.29375 21.903126L245.52812 21.903126ZM245.52812 34.2L245.52812 23.825L247.29375 23.825L247.29375 34.2L245.52812 34.2ZM256.29376 30.403126L258.0125 30.621876Q257.73126 32.41875 256.5594 33.434376Q255.40312 34.434376 253.7 34.434376Q251.575 34.434376 250.27812 33.04375Q248.98125 31.653126 248.98125 29.059376Q248.98125 27.371876 249.52812 26.121876Q250.09062 24.85625 251.23125 24.23125Q252.37187 23.590626 253.71562 23.590626Q255.40312 23.590626 256.46564 24.45Q257.54376 25.309376 257.85626 26.871876L256.1375 27.1375Q255.90312 26.090626 255.27812 25.575Q254.65312 25.04375 253.77812 25.04375Q252.45 25.04375 251.62187 25.996876Q250.79375 26.95 250.79375 28.996876Q250.79375 31.090626 251.59062 32.04375Q252.3875 32.98125 253.68437 32.98125Q254.71562 32.98125 255.40312 32.35625Q256.10626 31.715626 256.29376 30.403126ZM259.52814 21.903126L259.52814 19.8875L261.29376 19.8875L261.29376 21.903126L259.52814 21.903126ZM259.52814 34.2L259.52814 23.825L261.29376 23.825L261.29376 34.2L259.52814 34.2ZM267.35626 32.621876L267.60626 34.184376Q266.8719 34.340626 266.27814 34.340626Q265.325 34.340626 264.79376 34.04375Q264.27814 33.73125 264.0594 33.246876Q263.84064 32.746876 263.84064 31.16875L263.84064 25.2L262.5594 25.2L262.5594 23.825L263.84064 23.825L263.84064 21.2625L265.59064 20.2L265.59064 23.825L267.35626 23.825L267.35626 25.2L265.59064 25.2L265.59064 31.2625Q265.59064 32.0125 265.6844 32.23125Q265.77814 32.434376 265.98126 32.575Q266.2 32.7 266.59064 32.7Q266.8719 32.7 267.35626 32.621876ZM276.29376 32.91875Q275.3094 33.746876 274.40314 34.090626Q273.4969 34.434376 272.46564 34.434376Q270.7625 34.434376 269.84064 33.60625Q268.91876 32.7625 268.91876 31.465626Q268.91876 30.7 269.2625 30.075Q269.6219 29.45 270.1844 29.075Q270.7469 28.684376 271.45 28.48125Q271.96564 28.35625 273.0125 28.215626Q275.1375 27.965626 276.1375 27.621876Q276.15314 27.2625 276.15314 27.153126Q276.15314 26.090626 275.65314 25.6375Q274.98126 25.04375 273.65314 25.04375Q272.40314 25.04375 271.8094 25.48125Q271.23126 25.91875 270.95 27.028126L269.23126 26.79375Q269.46564 25.684376 269.9969 25.0125Q270.52814 24.325 271.54376 23.965626Q272.5594 23.590626 273.90314 23.590626Q275.23126 23.590626 276.0594 23.903126Q276.8875 24.215626 277.27814 24.7Q277.66876 25.16875 277.825 25.8875Q277.91876 26.340626 277.91876 27.5125L277.91876 29.85625Q277.91876 32.309376 278.02814 32.965626Q278.1375 33.60625 278.48126 34.2L276.6375 34.2Q276.3719 33.653126 276.29376 32.91875ZM276.1375 28.996876Q275.1844 29.3875 273.2625 29.653126Q272.1844 29.809376 271.73126 30.0125Q271.29376 30.2 271.04376 30.575Q270.79376 30.95 270.79376 31.41875Q270.79376 32.121876 271.325 32.590626Q271.85626 33.059376 272.8875 33.059376Q273.90314 33.059376 274.6844 32.621876Q275.48126 32.16875 275.85626 31.403126Q276.1375 30.79375 276.1375 29.6375L276.1375 28.996876ZM275.1844 22.54375L273.7625 22.54375L271.5125 19.809376L273.85626 19.809376L275.1844 22.54375ZM293.2469 34.2L293.2469 32.8875Q292.2625 34.434376 290.34064 34.434376Q289.10626 34.434376 288.0594 33.746876Q287.02814 33.059376 286.45 31.840626Q285.8875 30.621876 285.8875 29.028126Q285.8875 27.465626 286.40314 26.2Q286.91876 24.934376 287.95 24.2625Q288.9969 23.590626 290.2625 23.590626Q291.2 23.590626 291.9344 23.996876Q292.66876 24.3875 293.1375 25.0125L293.1375 19.8875L294.8719 19.8875L294.8719 34.2L293.2469 34.2ZM287.6844 29.028126Q287.6844 31.0125 288.52814 31.996876Q289.3719 32.98125 290.5125 32.98125Q291.66876 32.98125 292.46564 32.04375Q293.27814 31.10625 293.27814 29.16875Q293.27814 27.04375 292.45 26.04375Q291.6375 25.04375 290.4344 25.04375Q289.2625 25.04375 288.46564 26.0125Q287.6844 26.965626 287.6844 29.028126ZM304.6219 30.85625L306.4344 31.090626Q306.0125 32.66875 304.84064 33.559376Q303.6844 34.434376 301.8719 34.434376Q299.60626 34.434376 298.2625 33.04375Q296.9344 31.6375 296.9344 29.10625Q296.9344 26.48125 298.27814 25.04375Q299.6219 23.590626 301.77814 23.590626Q303.85626 23.590626 305.16876 25.0125Q306.4969 26.41875 306.4969 28.996876Q306.4969 29.153126 306.48126 29.465626L298.7469 29.465626Q298.84064 31.16875 299.71564 32.075Q300.59064 32.98125 301.8875 32.98125Q302.85626 32.98125 303.52814 32.48125Q304.21564 31.965626 304.6219 30.85625ZM298.84064 28.0125L304.6375 28.0125Q304.52814 26.715626 303.98126 26.059376Q303.1375 25.04375 301.79376 25.04375Q300.59064 25.04375 299.7625 25.85625Q298.9344 26.653126 298.84064 28.0125ZM308.48126 34.2L308.48126 19.8875L310.23126 19.8875L310.23126 34.2L308.48126 34.2ZM325.2469 34.2L325.2469 32.8875Q324.2625 34.434376 322.34064 34.434376Q321.10626 34.434376 320.0594 33.746876Q319.02814 33.059376 318.45 31.840626Q317.8875 30.621876 317.8875 29.028126Q317.8875 27.465626 318.40314 26.2Q318.91876 24.934376 319.95 24.2625Q320.9969 23.590626 322.2625 23.590626Q323.2 23.590626 323.9344 23.996876Q324.66876 24.3875 325.1375 25.0125L325.1375 19.8875L326.8719 19.8875L326.8719 34.2L325.2469 34.2ZM319.6844 29.028126Q319.6844 31.0125 320.52814 31.996876Q321.3719 32.98125 322.5125 32.98125Q323.66876 32.98125 324.46564 32.04375Q325.27814 31.10625 325.27814 29.16875Q325.27814 27.04375 324.45 26.04375Q323.6375 25.04375 322.4344 25.04375Q321.2625 25.04375 320.46564 26.0125Q319.6844 26.965626 319.6844 29.028126ZM328.8719 29.0125Q328.8719 26.1375 330.46564 24.746876Q331.8094 23.590626 333.73126 23.590626Q335.8719 23.590626 337.21564 24.996876Q338.575 26.403126 338.575 28.871876Q338.575 30.871876 337.98126 32.028126Q337.3875 33.16875 336.23126 33.809376Q335.09064 34.434376 333.73126 34.434376Q331.54376 34.434376 330.2 33.04375Q328.8719 31.6375 328.8719 29.0125ZM330.66876 29.0125Q330.66876 31.0125 331.52814 31.996876Q332.40314 32.98125 333.73126 32.98125Q335.04376 32.98125 335.90314 31.996876Q336.77814 30.996876 336.77814 28.95Q336.77814 27.028126 335.90314 26.04375Q335.02814 25.04375 333.73126 25.04375Q332.40314 25.04375 331.52814 26.04375Q330.66876 27.028126 330.66876 29.0125ZM347.29376 30.403126L349.0125 30.621876Q348.73126 32.41875 347.5594 33.434376Q346.40314 34.434376 344.7 34.434376Q342.575 34.434376 341.27814 33.04375Q339.98126 31.653126 339.98126 29.059376Q339.98126 27.371876 340.52814 26.121876Q341.09064 24.85625 342.23126 24.23125Q343.3719 23.590626 344.71564 23.590626Q346.40314 23.590626 347.46564 24.45Q348.54376 25.309376 348.85626 26.871876L347.1375 27.1375Q346.90314 26.090626 346.27814 25.575Q345.65314 25.04375 344.77814 25.04375Q343.45 25.04375 342.6219 25.996876Q341.79376 26.95 341.79376 28.996876Q341.79376 31.090626 342.59064 32.04375Q343.3875 32.98125 344.6844 32.98125Q345.71564 32.98125 346.40314 32.35625Q347.10626 31.715626 347.29376 30.403126ZM357.6219 30.85625L359.4344 31.090626Q359.0125 32.66875 357.84064 33.559376Q356.6844 34.434376 354.8719 34.434376Q352.60626 34.434376 351.2625 33.04375Q349.9344 31.6375 349.9344 29.10625Q349.9344 26.48125 351.27814 25.04375Q352.6219 23.590626 354.77814 23.590626Q356.85626 23.590626 358.16876 25.0125Q359.4969 26.41875 359.4969 28.996876Q359.4969 29.153126 359.48126 29.465626L351.7469 29.465626Q351.84064 31.16875 352.71564 32.075Q353.59064 32.98125 354.8875 32.98125Q355.85626 32.98125 356.52814 32.48125Q357.21564 31.965626 357.6219 30.85625ZM351.84064 28.0125L357.6375 28.0125Q357.52814 26.715626 356.98126 26.059376Q356.1375 25.04375 354.79376 25.04375Q353.59064 25.04375 352.7625 25.85625Q351.9344 26.653126 351.84064 28.0125ZM361.5125 34.2L361.5125 23.825L363.10626 23.825L363.10626 25.309376Q364.2469 23.590626 366.40314 23.590626Q367.34064 23.590626 368.1219 23.934376Q368.91876 24.2625 369.3094 24.809376Q369.7 25.35625 369.85626 26.10625Q369.95 26.60625 369.95 27.825L369.95 34.2L368.1844 34.2L368.1844 27.8875Q368.1844 26.809376 367.98126 26.278126Q367.77814 25.746876 367.2469 25.434376Q366.73126 25.121876 366.02814 25.121876Q364.90314 25.121876 364.09064 25.840626Q363.27814 26.54375 363.27814 28.528126L363.27814 34.2L361.5125 34.2ZM375.35626 32.621876L375.60626 34.184376Q374.8719 34.340626 374.27814 34.340626Q373.325 34.340626 372.79376 34.04375Q372.27814 33.73125 372.0594 33.246876Q371.84064 32.746876 371.84064 31.16875L371.84064 25.2L370.5594 25.2L370.5594 23.825L371.84064 23.825L371.84064 21.2625L373.59064 20.2L373.59064 23.825L375.35626 23.825L375.35626 25.2L373.59064 25.2L373.59064 31.2625Q373.59064 32.0125 373.6844 32.23125Q373.77814 32.434376 373.98126 32.575Q374.2 32.7 374.59064 32.7Q374.8719 32.7 375.35626 32.621876ZM384.6219 30.85625L386.4344 31.090626Q386.0125 32.66875 384.84064 33.559376Q383.6844 34.434376 381.8719 34.434376Q379.60626 34.434376 378.2625 33.04375Q376.9344 31.6375 376.9344 29.10625Q376.9344 26.48125 378.27814 25.04375Q379.6219 23.590626 381.77814 23.590626Q383.85626 23.590626 385.16876 25.0125Q386.4969 26.41875 386.4969 28.996876Q386.4969 29.153126 386.48126 29.465626L378.7469 29.465626Q378.84064 31.16875 379.71564 32.075Q380.59064 32.98125 381.8875 32.98125Q382.85626 32.98125 383.52814 32.48125Q384.21564 31.965626 384.6219 30.85625ZM378.84064 28.0125L384.6375 28.0125Q384.52814 26.715626 383.98126 26.059376Q383.1375 25.04375 381.79376 25.04375Q380.59064 25.04375 379.7625 25.85625Q378.9344 26.653126 378.84064 28.0125ZM391.8094 30.66875Q391.79376 30.325 391.79376 30.153126Q391.79376 29.10625 392.09064 28.35625Q392.3094 27.79375 392.79376 27.215626Q393.1375 26.79375 394.04376 25.996876Q394.96564 25.184376 395.23126 24.715626Q395.5125 24.23125 395.5125 23.66875Q395.5125 22.6375 394.7 21.871876Q393.90314 21.090626 392.7469 21.090626Q391.6219 21.090626 390.8719 21.79375Q390.1219 22.496876 389.8875 23.98125L388.075 23.7625Q388.325 21.7625 389.52814 20.7Q390.73126 19.6375 392.71564 19.6375Q394.825 19.6375 396.075 20.778126Q397.325 21.91875 397.325 23.54375Q397.325 24.48125 396.8719 25.278126Q396.4344 26.059376 395.15314 27.2Q394.29376 27.965626 394.02814 28.325Q393.77814 28.684376 393.6375 29.153126Q393.5125 29.621876 393.4969 30.66875L391.8094 30.66875ZM391.7 34.2L391.7 32.2L393.7 32.2L393.7 34.2L391.7 34.2Z" fill-rule="nonzero"/></svg>