<svg version="1.1" viewBox="0.0 0.0 490.0 304.0" fill="none" stroke="none" stroke-linecap="square" stroke-miterlimit="10" width="490" height="304" xmlns:xlink="http://www.w3.org/1999/xlink" xmlns="http://www.w3.org/2000/svg"><path fill="#ffffff" d="M0 0L490.0 0L490.0 304.0L0 304.0L0 0Z" fill-rule="nonzero"/><path fill="#4285f4" d="M245.0 49.333332C259.62375 49.333332 274.03992 52.794346 287.0698 59.433395L245.0 142.0Z" fill-rule="nonzero"/><path fill="#ea4335" d="M287.0698 59.433395C313.49976 72.90015 331.88547 98.20588 336.5258 127.50374C341.1661 156.8016 331.50018 186.55028 310.52524 207.52522L245.0 142.0Z" fill-rule="nonzero"/><path fill="#ff6d01" d="M230.50374 50.474213C235.29848 49.7148 240.1455 49.333332 245.0 49.333332L245.0 142.0Z" fill-rule="nonzero"/><path fill="#34a853" d="M153.47421 127.50374C159.75438 87.85236 190.85237 56.754375 230.50374 50.474213L245.0 142.0Z" fill-rule="nonzero"/><path fill="#fbbc04" d="M310.52524 207.52522C282.13797 235.91248 238.70024 242.79234 202.9302 224.5666C167.16019 206.34087 147.19405 167.15512 153.47421 127.50374L245.0 142.0Z" fill-rule="nonzero"/><path fill="#000000" d="M285.06796 134.93959L286.2867 134.76772Q286.50546 135.81459 287.00546 136.28334Q287.5211 136.73647 288.25546 136.73647Q289.13046 136.73647 289.7242 136.14272Q290.31796 135.53334 290.31796 134.64272Q290.31796 133.79897 289.75546 133.25209Q289.2086 132.70522 288.36484 132.70522Q288.00546 132.70522 287.48984 132.83022L287.63046 131.75209Q287.75546 131.76772 287.81796 131.76772Q288.61484 131.76772 289.23984 131.36147Q289.86484 130.95522 289.86484 130.09584Q289.86484 129.42397 289.4117 128.98647Q288.9586 128.53334 288.2242 128.53334Q287.50546 128.53334 287.0211 128.98647Q286.55234 129.42397 286.4117 130.33022L285.19296 130.11147Q285.4117 128.87709 286.2086 128.20522Q287.00546 127.517715 288.19296 127.517715Q289.0211 127.517715 289.7086 127.87709Q290.3961 128.22084 290.75546 128.83022Q291.13046 129.43959 291.13046 130.12709Q291.13046 130.76772 290.7867 131.29897Q290.44296 131.83022 289.75546 132.15834Q290.6461 132.36147 291.13046 133.00209Q291.63046 133.64272 291.63046 134.62709Q291.63046 135.93959 290.6617 136.84584Q289.7086 137.75209 288.25546 137.75209Q286.92734 137.75209 286.05234 136.97084Q285.19296 136.18959 285.06796 134.93959ZM293.05234 132.64272Q293.05234 130.86147 293.4117 129.78334Q293.7867 128.68959 294.50546 128.11147Q295.2242 127.517715 296.31796 127.517715Q297.13046 127.517715 297.73984 127.84584Q298.3492 128.17397 298.73984 128.78334Q299.1461 129.39272 299.36484 130.26772Q299.5836 131.14272 299.5836 132.64272Q299.5836 134.40834 299.2242 135.48647Q298.86484 136.56459 298.1461 137.15834Q297.42734 137.75209 296.31796 137.75209Q294.88046 137.75209 294.05234 136.70522Q293.05234 135.45522 293.05234 132.64272ZM294.31796 132.64272Q294.31796 135.11147 294.8961 135.92397Q295.4742 136.73647 296.31796 136.73647Q297.17734 136.73647 297.75546 135.92397Q298.3336 135.09584 298.3336 132.64272Q298.3336 130.15834 297.75546 129.34584Q297.17734 128.53334 296.30234 128.53334Q295.4586 128.53334 294.9586 129.25209Q294.31796 130.17397 294.31796 132.64272ZM301.73984 137.58022L301.73984 136.17397L303.1461 136.17397L303.1461 137.58022L301.73984 137.58022ZM305.05234 132.64272Q305.05234 130.86147 305.4117 129.78334Q305.7867 128.68959 306.50546 128.11147Q307.2242 127.517715 308.31796 127.517715Q309.13046 127.517715 309.73984 127.84584Q310.3492 128.17397 310.73984 128.78334Q311.1461 129.39272 311.36484 130.26772Q311.5836 131.14272 311.5836 132.64272Q311.5836 134.40834 311.2242 135.48647Q310.86484 136.56459 310.1461 137.15834Q309.42734 137.75209 308.31796 137.75209Q306.88046 137.75209 306.05234 136.70522Q305.05234 135.45522 305.05234 132.64272ZM306.31796 132.64272Q306.31796 135.11147 306.8961 135.92397Q307.4742 136.73647 308.31796 136.73647Q309.17734 136.73647 309.75546 135.92397Q310.3336 135.09584 310.3336 132.64272Q310.3336 130.15834 309.75546 129.34584Q309.17734 128.53334 308.30234 128.53334Q307.4586 128.53334 306.9586 129.25209Q306.31796 130.17397 306.31796 132.64272ZM313.2867 129.97084Q313.2867 128.89272 313.81796 128.14272Q314.36484 127.392715 315.3961 127.392715Q316.3336 127.392715 316.94296 128.06459Q317.56796 128.73647 317.56796 130.03334Q317.56796 131.31459 316.94296 132.00209Q316.31796 132.68959 315.4117 132.68959Q314.50546 132.68959 313.8961 132.01772Q313.2867 131.33022 313.2867 129.97084ZM315.42734 128.23647Q314.9742 128.23647 314.6617 128.64272Q314.36484 129.03334 314.36484 130.08022Q314.36484 131.04897 314.6617 131.43959Q314.9742 131.83022 315.42734 131.83022Q315.8961 131.83022 316.19296 131.43959Q316.50546 131.04897 316.50546 129.98647Q316.50546 129.01772 316.19296 128.62709Q315.88046 128.23647 315.42734 128.23647ZM315.42734 137.95522L320.9117 127.392715L321.9117 127.392715L316.4586 137.95522L315.42734 137.95522ZM319.7711 135.22084Q319.7711 134.14272 320.30234 133.40834Q320.8492 132.65834 321.88046 132.65834Q322.81796 132.65834 323.44296 133.33022Q324.06796 134.00209 324.06796 135.29897Q324.06796 136.58022 323.44296 137.26772Q322.81796 137.95522 321.88046 137.95522Q320.9742 137.95522 320.36484 137.28334Q319.7711 136.59584 319.7711 135.22084ZM321.9117 133.50209Q321.44296 133.50209 321.1461 133.90834Q320.8492 134.29897 320.8492 135.34584Q320.8492 136.31459 321.1461 136.70522Q321.4586 137.09584 321.9117 137.09584Q322.38046 137.09584 322.67734 136.70522Q322.98984 136.31459 322.98984 135.25209Q322.98984 134.28334 322.67734 133.89272Q322.38046 133.50209 321.9117 133.50209Z" fill-rule="nonzero"/><path fill="#000000" d="M201.30089 202.40521L201.30089 199.99896L196.94151 199.99896L196.94151 198.87396L201.51964 192.38959L202.51964 192.38959L202.51964 198.87396L203.87901 198.87396L203.87901 199.99896L202.51964 199.99896L202.51964 202.40521L201.30089 202.40521ZM201.30089 198.87396L201.30089 194.35834L198.16026 198.87396L201.30089 198.87396ZM205.34776 197.46771Q205.34776 195.68646 205.70714 194.60834Q206.08214 193.51459 206.80089 192.93646Q207.51964 192.34271 208.61339 192.34271Q209.42589 192.34271 210.03526 192.67084Q210.64464 192.99896 211.03526 193.60834Q211.44151 194.21771 211.66026 195.09271Q211.87901 195.96771 211.87901 197.46771Q211.87901 199.23334 211.51964 200.31146Q211.16026 201.38959 210.44151 201.98334Q209.72276 202.57709 208.61339 202.57709Q207.17589 202.57709 206.34776 201.53021Q205.34776 200.28021 205.34776 197.46771ZM206.61339 197.46771Q206.61339 199.93646 207.19151 200.74896Q207.76964 201.56146 208.61339 201.56146Q209.47276 201.56146 210.05089 200.74896Q210.62901 199.92084 210.62901 197.46771Q210.62901 194.98334 210.05089 194.17084Q209.47276 193.35834 208.59776 193.35834Q207.75401 193.35834 207.25401 194.07709Q206.61339 194.99896 206.61339 197.46771ZM214.03526 202.40521L214.03526 200.99896L215.44151 200.99896L215.44151 202.40521L214.03526 202.40521ZM217.34776 197.46771Q217.34776 195.68646 217.70714 194.60834Q218.08214 193.51459 218.80089 192.93646Q219.51964 192.34271 220.61339 192.34271Q221.42589 192.34271 222.03526 192.67084Q222.64464 192.99896 223.03526 193.60834Q223.44151 194.21771 223.66026 195.09271Q223.87901 195.96771 223.87901 197.46771Q223.87901 199.23334 223.51964 200.31146Q223.16026 201.38959 222.44151 201.98334Q221.72276 202.57709 220.61339 202.57709Q219.17589 202.57709 218.34776 201.53021Q217.34776 200.28021 217.34776 197.46771ZM218.61339 197.46771Q218.61339 199.93646 219.19151 200.74896Q219.76964 201.56146 220.61339 201.56146Q221.47276 201.56146 222.05089 200.74896Q222.62901 199.92084 222.62901 197.46771Q222.62901 194.98334 222.05089 194.17084Q221.47276 193.35834 220.59776 193.35834Q219.75401 193.35834 219.25401 194.07709Q218.61339 194.99896 218.61339 197.46771ZM225.58214 194.79584Q225.58214 193.71771 226.11339 192.96771Q226.66026 192.21771 227.69151 192.21771Q228.62901 192.21771 229.23839 192.88959Q229.86339 193.56146 229.86339 194.85834Q229.86339 196.13959 229.23839 196.82709Q228.61339 197.51459 227.70714 197.51459Q226.80089 197.51459 226.19151 196.84271Q225.58214 196.15521 225.58214 194.79584ZM227.72276 193.06146Q227.26964 193.06146 226.95714 193.46771Q226.66026 193.85834 226.66026 194.90521Q226.66026 195.87396 226.95714 196.26459Q227.26964 196.65521 227.72276 196.65521Q228.19151 196.65521 228.48839 196.26459Q228.80089 195.87396 228.80089 194.81146Q228.80089 193.84271 228.48839 193.45209Q228.17589 193.06146 227.72276 193.06146ZM227.72276 202.78021L233.20714 192.21771L234.20714 192.21771L228.75401 202.78021L227.72276 202.78021ZM232.06651 200.04584Q232.06651 198.96771 232.59776 198.23334Q233.14464 197.48334 234.17589 197.48334Q235.11339 197.48334 235.73839 198.15521Q236.36339 198.82709 236.36339 200.12396Q236.36339 201.40521 235.73839 202.09271Q235.11339 202.78021 234.17589 202.78021Q233.26964 202.78021 232.66026 202.10834Q232.06651 201.42084 232.06651 200.04584ZM234.20714 198.32709Q233.73839 198.32709 233.44151 198.73334Q233.14464 199.12396 233.14464 200.17084Q233.14464 201.13959 233.44151 201.53021Q233.75401 201.92084 234.20714 201.92084Q234.67589 201.92084 234.97276 201.53021Q235.28526 201.13959 235.28526 200.07709Q235.28526 199.10834 234.97276 198.71771Q234.67589 198.32709 234.20714 198.32709Z" fill-rule="nonzero"/><path fill="#000000" d="M190.0636 103.82922L190.0636 105.01672L183.4386 105.01672Q183.42297 104.57922 183.57922 104.15735Q183.84485 103.48547 184.39172 102.82922Q184.95422 102.17297 186.0011 101.3136Q187.64172 99.96985 188.20422 99.1886Q188.78235 98.40735 188.78235 97.70422Q188.78235 96.96985 188.2511 96.46985Q187.73547 95.96985 186.90735 95.96985Q186.01672 95.96985 185.46985 96.5011Q184.9386 97.03235 184.9386 97.98547L183.67297 97.84485Q183.79797 96.4386 184.64172 95.70422Q185.5011 94.95422 186.92297 94.95422Q188.3761 94.95422 189.20422 95.7511Q190.04797 96.54797 190.04797 97.73547Q190.04797 98.34485 189.79797 98.92297Q189.5636 99.5011 188.98547 100.14172Q188.42297 100.78235 187.09485 101.90735Q185.98547 102.82922 185.67297 103.17297Q185.36047 103.5011 185.15735 103.82922L190.0636 103.82922ZM191.59485 100.07922Q191.59485 98.29797 191.95422 97.21985Q192.32922 96.1261 193.04797 95.54797Q193.76672 94.95422 194.86047 94.95422Q195.67297 94.95422 196.28235 95.28235Q196.89172 95.61047 197.28235 96.21985Q197.6886 96.82922 197.90735 97.70422Q198.1261 98.57922 198.1261 100.07922Q198.1261 101.84485 197.76672 102.92297Q197.40735 104.0011 196.6886 104.59485Q195.96985 105.1886 194.86047 105.1886Q193.42297 105.1886 192.59485 104.14172Q191.59485 102.89172 191.59485 100.07922ZM192.86047 100.07922Q192.86047 102.54797 193.4386 103.36047Q194.01672 104.17297 194.86047 104.17297Q195.71985 104.17297 196.29797 103.36047Q196.8761 102.53235 196.8761 100.07922Q196.8761 97.59485 196.29797 96.78235Q195.71985 95.96985 194.84485 95.96985Q194.0011 95.96985 193.5011 96.6886Q192.86047 97.61047 192.86047 100.07922ZM200.28235 105.01672L200.28235 103.61047L201.6886 103.61047L201.6886 105.01672L200.28235 105.01672ZM203.59485 100.07922Q203.59485 98.29797 203.95422 97.21985Q204.32922 96.1261 205.04797 95.54797Q205.76672 94.95422 206.86047 94.95422Q207.67297 94.95422 208.28235 95.28235Q208.89172 95.61047 209.28235 96.21985Q209.6886 96.82922 209.90735 97.70422Q210.1261 98.57922 210.1261 100.07922Q210.1261 101.84485 209.76672 102.92297Q209.40735 104.0011 208.6886 104.59485Q207.96985 105.1886 206.86047 105.1886Q205.42297 105.1886 204.59485 104.14172Q203.59485 102.89172 203.59485 100.07922ZM204.86047 100.07922Q204.86047 102.54797 205.4386 103.36047Q206.01672 104.17297 206.86047 104.17297Q207.71985 104.17297 208.29797 103.36047Q208.8761 102.53235 208.8761 100.07922Q208.8761 97.59485 208.29797 96.78235Q207.71985 95.96985 206.84485 95.96985Q206.0011 95.96985 205.5011 96.6886Q204.86047 97.61047 204.86047 100.07922ZM211.82922 97.40735Q211.82922 96.32922 212.36047 95.57922Q212.90735 94.82922 213.9386 94.82922Q214.8761 94.82922 215.48547 95.5011Q216.11047 96.17297 216.11047 97.46985Q216.11047 98.7511 215.48547 99.4386Q214.86047 100.1261 213.95422 100.1261Q213.04797 100.1261 212.4386 99.45422Q211.82922 98.76672 211.82922 97.40735ZM213.96985 95.67297Q213.51672 95.67297 213.20422 96.07922Q212.90735 96.46985 212.90735 97.51672Q212.90735 98.48547 213.20422 98.8761Q213.51672 99.26672 213.96985 99.26672Q214.4386 99.26672 214.73547 98.8761Q215.04797 98.48547 215.04797 97.42297Q215.04797 96.45422 214.73547 96.0636Q214.42297 95.67297 213.96985 95.67297ZM213.96985 105.39172L219.45422 94.82922L220.45422 94.82922L215.0011 105.39172L213.96985 105.39172ZM218.3136 102.65735Q218.3136 101.57922 218.84485 100.84485Q219.39172 100.09485 220.42297 100.09485Q221.36047 100.09485 221.98547 100.76672Q222.61047 101.4386 222.61047 102.73547Q222.61047 104.01672 221.98547 104.70422Q221.36047 105.39172 220.42297 105.39172Q219.51672 105.39172 218.90735 104.71985Q218.3136 104.03235 218.3136 102.65735ZM220.45422 100.9386Q219.98547 100.9386 219.6886 101.34485Q219.39172 101.73547 219.39172 102.78235Q219.39172 103.7511 219.6886 104.14172Q220.0011 104.53235 220.45422 104.53235Q220.92297 104.53235 221.21985 104.14172Q221.53235 103.7511 221.53235 102.6886Q221.53235 101.71985 221.21985 101.32922Q220.92297 100.9386 220.45422 100.9386Z" fill-rule="nonzero"/><path fill="#4285f4" d="M28.2 251.8C28.2 255.11371 25.513708 257.8 22.2 257.8C18.886292 257.8 16.2 255.11371 16.2 251.8C16.2 248.4863 18.886292 245.8 22.2 245.8C25.513708 245.8 28.2 248.4863 28.2 251.8Z" fill-rule="nonzero"/><path fill="#1a1a1a" d="M37.121876 255.8L37.121876 247.20625L40.371876 247.20625Q41.215626 247.20625 41.66875 247.28438Q42.309376 247.39375 42.73125 247.69063Q43.16875 247.9875 43.41875 248.51875Q43.684376 249.05 43.684376 249.69063Q43.684376 250.78438 42.98125 251.55Q42.29375 252.3 40.465626 252.3L38.2625 252.3L38.2625 255.8L37.121876 255.8ZM38.2625 251.3L40.48125 251.3Q41.590626 251.3 42.04375 250.89375Q42.5125 250.47188 42.5125 249.72188Q42.5125 249.19063 42.23125 248.81563Q41.965626 248.425 41.528126 248.3Q41.23125 248.22188 40.465626 248.22188L38.2625 248.22188L38.2625 251.3ZM44.98125 255.8L44.98125 249.58125L45.934376 249.58125L45.934376 250.51875Q46.29375 249.8625 46.590626 249.65938Q46.903126 249.44063 47.278126 249.44063Q47.809376 249.44063 48.35625 249.76875L47.996876 250.75313Q47.60625 250.51875 47.23125 250.51875Q46.871876 250.51875 46.590626 250.7375Q46.325 250.94063 46.215626 251.31563Q46.028126 251.87813 46.028126 252.53438L46.028126 255.8L44.98125 255.8ZM48.60625 252.69063Q48.60625 250.95625 49.559376 250.12813Q50.35625 249.44063 51.5125 249.44063Q52.79375 249.44063 53.60625 250.28438Q54.434376 251.1125 54.434376 252.59688Q54.434376 253.8 54.075 254.4875Q53.715626 255.175 53.0125 255.56563Q52.325 255.94063 51.5125 255.94063Q50.215626 255.94063 49.403126 255.1125Q48.60625 254.26875 48.60625 252.69063ZM49.684376 252.69063Q49.684376 253.87813 50.2 254.47188Q50.73125 255.06563 51.5125 255.06563Q52.309376 255.06563 52.825 254.47188Q53.340626 253.87813 53.340626 252.65938Q53.340626 251.50313 52.809376 250.90938Q52.29375 250.31563 51.5125 250.31563Q50.73125 250.31563 50.2 250.90938Q49.684376 251.4875 49.684376 252.69063ZM55.79375 256.3156L56.825 256.47186Q56.8875 256.9406 57.184376 257.15936Q57.575 257.45624 58.246876 257.45624Q58.98125 257.45624 59.371876 257.15936Q59.778126 256.8625 59.91875 256.34686Q60.0125 256.01874 59.996876 254.9875Q59.309376 255.8 58.278126 255.8Q56.996876 255.8 56.29375 254.87813Q55.590626 253.94063 55.590626 252.65938Q55.590626 251.76875 55.903126 251.01875Q56.23125 250.25313 56.840626 249.84688Q57.45 249.44063 58.278126 249.44063Q59.3875 249.44063 60.10625 250.33125L60.10625 249.58125L61.075 249.58125L61.075 254.95625Q61.075 256.40936 60.778126 257.01874Q60.48125 257.6281 59.840626 257.97186Q59.2 258.33124 58.2625 258.33124Q57.153126 258.33124 56.465626 257.83124Q55.778126 257.33124 55.79375 256.3156ZM56.66875 252.58125Q56.66875 253.8 57.153126 254.3625Q57.6375 254.925 58.371876 254.925Q59.10625 254.925 59.590626 254.3625Q60.090626 253.8 60.090626 252.6125Q60.090626 251.47188 59.575 250.89375Q59.075 250.31563 58.35625 250.31563Q57.653126 250.31563 57.153126 250.89375Q56.66875 251.45625 56.66875 252.58125ZM62.98125 255.8L62.98125 249.58125L63.934376 249.58125L63.934376 250.51875Q64.29375 249.8625 64.59062 249.65938Q64.90312 249.44063 65.27812 249.44063Q65.80937 249.44063 66.35625 249.76875L65.99687 250.75313Q65.60625 250.51875 65.23125 250.51875Q64.87187 250.51875 64.59062 250.7375Q64.325 250.94063 64.21562 251.31563Q64.02812 251.87813 64.02812 252.53438L64.02812 255.8L62.98125 255.8ZM71.05937 255.03438Q70.46562 255.53438 69.91875 255.7375Q69.3875 255.94063 68.7625 255.94063Q67.73125 255.94063 67.18437 255.44063Q66.6375 254.94063 66.6375 254.15938Q66.6375 253.70625 66.84062 253.33125Q67.04375 252.94063 67.3875 252.72188Q67.73125 252.4875 68.15312 252.37813Q68.45 252.28438 69.09062 252.20625Q70.35625 252.06563 70.96562 251.84688Q70.96562 251.62813 70.96562 251.58125Q70.96562 250.925 70.66875 250.65938Q70.2625 250.31563 69.46562 250.31563Q68.73125 250.31563 68.37187 250.58125Q68.0125 250.83125 67.84062 251.4875L66.80937 251.34688Q66.95 250.69063 67.27812 250.28438Q67.60625 249.87813 68.21562 249.65938Q68.825 249.44063 69.62187 249.44063Q70.41875 249.44063 70.91875 249.62813Q71.41875 249.81563 71.65312 250.09688Q71.8875 250.37813 71.98125 250.81563Q72.02812 251.08125 72.02812 251.78438L72.02812 253.19063Q72.02812 254.65938 72.09062 255.05Q72.16875 255.44063 72.37187 255.8L71.2625 255.8Q71.10625 255.47188 71.05937 255.03438ZM70.96562 252.675Q70.3875 252.90938 69.24687 253.08125Q68.59062 253.175 68.325 253.3Q68.05937 253.40938 67.90312 253.62813Q67.7625 253.84688 67.7625 254.12813Q67.7625 254.55 68.075 254.83125Q68.40312 255.1125 69.0125 255.1125Q69.62187 255.1125 70.09062 254.84688Q70.575 254.58125 70.79375 254.1125Q70.96562 253.75313 70.96562 253.06563L70.96562 252.675ZM73.99687 255.8L73.99687 249.58125L74.93437 249.58125L74.93437 250.45625Q75.23125 249.9875 75.71562 249.72188Q76.2 249.44063 76.825 249.44063Q77.5125 249.44063 77.95 249.72188Q78.40312 250.00313 78.575 250.51875Q79.325 249.44063 80.49687 249.44063Q81.43437 249.44063 81.91875 249.95625Q82.41875 250.45625 82.41875 251.53438L82.41875 255.8L81.37187 255.8L81.37187 251.87813Q81.37187 251.25313 81.2625 250.97188Q81.16875 250.69063 80.90312 250.51875Q80.6375 250.34688 80.2625 250.34688Q79.60625 250.34688 79.16875 250.78438Q78.74687 251.22188 78.74687 252.19063L78.74687 255.8L77.68437 255.8L77.68437 251.75313Q77.68437 251.05 77.41875 250.70625Q77.16875 250.34688 76.59062 250.34688Q76.1375 250.34688 75.7625 250.58125Q75.3875 250.81563 75.21562 251.26875Q75.04375 251.72188 75.04375 252.56563L75.04375 255.8L73.99687 255.8ZM84.99687 255.8L84.99687 249.58125L85.93437 249.58125L85.93437 250.45625Q86.23125 249.9875 86.71562 249.72188Q87.2 249.44063 87.825 249.44063Q88.5125 249.44063 88.95 249.72188Q89.40312 250.00313 89.575 250.51875Q90.325 249.44063 91.49687 249.44063Q92.43437 249.44063 92.91875 249.95625Q93.41875 250.45625 93.41875 251.53438L93.41875 255.8L92.37187 255.8L92.37187 251.87813Q92.37187 251.25313 92.2625 250.97188Q92.16875 250.69063 91.90312 250.51875Q91.6375 250.34688 91.2625 250.34688Q90.60625 250.34688 90.16875 250.78438Q89.74687 251.22188 89.74687 252.19063L89.74687 255.8L88.68437 255.8L88.68437 251.75313Q88.68437 251.05 88.41875 250.70625Q88.16875 250.34688 87.59062 250.34688Q87.1375 250.34688 86.7625 250.58125Q86.3875 250.81563 86.21562 251.26875Q86.04375 251.72188 86.04375 252.56563L86.04375 255.8L84.99687 255.8ZM100.05937 255.03438Q99.46562 255.53438 98.91875 255.7375Q98.3875 255.94063 97.7625 255.94063Q96.73125 255.94063 96.18437 255.44063Q95.6375 254.94063 95.6375 254.15938Q95.6375 253.70625 95.84062 253.33125Q96.04375 252.94063 96.3875 252.72188Q96.73125 252.4875 97.15312 252.37813Q97.45 252.28438 98.09062 252.20625Q99.35625 252.06563 99.96562 251.84688Q99.96562 251.62813 99.96562 251.58125Q99.96562 250.925 99.66875 250.65938Q99.2625 250.31563 98.46562 250.31563Q97.73125 250.31563 97.37187 250.58125Q97.0125 250.83125 96.84062 251.4875L95.80937 251.34688Q95.95 250.69063 96.27812 250.28438Q96.60625 249.87813 97.21562 249.65938Q97.825 249.44063 98.62187 249.44063Q99.41875 249.44063 99.91875 249.62813Q100.41875 249.81563 100.65312 250.09688Q100.8875 250.37813 100.98125 250.81563Q101.02812 251.08125 101.02812 251.78438L101.02812 253.19063Q101.02812 254.65938 101.09062 255.05Q101.16875 255.44063 101.37187 255.8L100.2625 255.8Q100.10625 255.47188 100.05937 255.03438ZM99.96562 252.675Q99.3875 252.90938 98.24687 253.08125Q97.59062 253.175 97.325 253.3Q97.05937 253.40938 96.90312 253.62813Q96.7625 253.84688 96.7625 254.12813Q96.7625 254.55 97.075 254.83125Q97.40312 255.1125 98.0125 255.1125Q98.62187 255.1125 99.09062 254.84688Q99.575 254.58125 99.79375 254.1125Q99.96562 253.75313 99.96562 253.06563L99.96562 252.675ZM110.02812 255.8L110.02812 255.01875Q109.43437 255.94063 108.29375 255.94063Q107.54375 255.94063 106.91875 255.53438Q106.29375 255.1125 105.95 254.37813Q105.60625 253.64375 105.60625 252.69063Q105.60625 251.76875 105.91875 251.00313Q106.23125 250.2375 106.85625 249.84688Q107.48125 249.44063 108.24687 249.44063Q108.80937 249.44063 109.24687 249.675Q109.68437 249.90938 109.96562 250.28438L109.96562 247.20625L111.0125 247.20625L111.0125 255.8L110.02812 255.8ZM106.7 252.69063Q106.7 253.89375 107.2 254.4875Q107.7 255.06563 108.3875 255.06563Q109.075 255.06563 109.55937 254.50313Q110.04375 253.94063 110.04375 252.78438Q110.04375 251.50313 109.54375 250.90938Q109.05937 250.31563 108.34062 250.31563Q107.6375 250.31563 107.16875 250.89375Q106.7 251.45625 106.7 252.69063ZM117.24687 253.8L118.34062 253.925Q118.09062 254.87813 117.3875 255.40938Q116.68437 255.94063 115.60625 255.94063Q114.24687 255.94063 113.43437 255.09688Q112.6375 254.25313 112.6375 252.7375Q112.6375 251.175 113.45 250.31563Q114.2625 249.44063 115.54375 249.44063Q116.79375 249.44063 117.575 250.28438Q118.37187 251.12813 118.37187 252.675Q118.37187 252.76875 118.37187 252.95625L113.73125 252.95625Q113.79375 253.9875 114.30937 254.53438Q114.825 255.06563 115.60625 255.06563Q116.18437 255.06563 116.59062 254.76875Q117.0125 254.45625 117.24687 253.8ZM113.79375 252.09688L117.2625 252.09688Q117.2 251.3 116.87187 250.90938Q116.35625 250.3 115.55937 250.3Q114.825 250.3 114.325 250.78438Q113.84062 251.26875 113.79375 252.09688ZM122.29375 254.8625L122.45 255.78438Q121.99687 255.87813 121.65312 255.87813Q121.075 255.87813 120.7625 255.70625Q120.45 255.51875 120.30937 255.22188Q120.18437 254.925 120.18437 253.97188L120.18437 250.39375L119.41875 250.39375L119.41875 249.58125L120.18437 249.58125L120.18437 248.03438L121.23125 247.40938L121.23125 249.58125L122.29375 249.58125L122.29375 250.39375L121.23125 250.39375L121.23125 254.03438Q121.23125 254.4875 121.27812 254.6125Q121.34062 254.7375 121.46562 254.81563Q121.59062 254.89375 121.825 254.89375Q122.0125 254.89375 122.29375 254.8625ZM125.29375 254.8625L125.45 255.78438Q124.99687 255.87813 124.65312 255.87813Q124.075 255.87813 123.7625 255.70625Q123.45 255.51875 123.30937 255.22188Q123.18437 254.925 123.18437 253.97188L123.18437 250.39375L122.41875 250.39375L122.41875 249.58125L123.18437 249.58125L123.18437 248.03438L124.23125 247.40938L124.23125 249.58125L125.29375 249.58125L125.29375 250.39375L124.23125 250.39375L124.23125 254.03438Q124.23125 254.4875 124.27812 254.6125Q124.34062 254.7375 124.46562 254.81563Q124.59062 254.89375 124.825 254.89375Q125.0125 254.89375 125.29375 254.8625ZM130.05937 255.03438Q129.46562 255.53438 128.91875 255.7375Q128.3875 255.94063 127.7625 255.94063Q126.73125 255.94063 126.18437 255.44063Q125.6375 254.94063 125.6375 254.15938Q125.6375 253.70625 125.84062 253.33125Q126.04375 252.94063 126.3875 252.72188Q126.73125 252.4875 127.15312 252.37813Q127.45 252.28438 128.09062 252.20625Q129.35625 252.06563 129.96562 251.84688Q129.96562 251.62813 129.96562 251.58125Q129.96562 250.925 129.66875 250.65938Q129.2625 250.31563 128.46562 250.31563Q127.73125 250.31563 127.37187 250.58125Q127.0125 250.83125 126.84062 251.4875L125.80937 251.34688Q125.95 250.69063 126.27812 250.28438Q126.60625 249.87813 127.21562 249.65938Q127.825 249.44063 128.62187 249.44063Q129.41875 249.44063 129.91875 249.62813Q130.41875 249.81563 130.65312 250.09688Q130.8875 250.37813 130.98125 250.81563Q131.02812 251.08125 131.02812 251.78438L131.02812 253.19063Q131.02812 254.65938 131.09062 255.05Q131.16875 255.44063 131.37187 255.8L130.2625 255.8Q130.10625 255.47188 130.05937 255.03438ZM129.96562 252.675Q129.3875 252.90938 128.24687 253.08125Q127.59062 253.175 127.325 253.3Q127.05937 253.40938 126.90312 253.62813Q126.7625 253.84688 126.7625 254.12813Q126.7625 254.55 127.075 254.83125Q127.40312 255.1125 128.0125 255.1125Q128.62187 255.1125 129.09062 254.84688Q129.575 254.58125 129.79375 254.1125Q129.96562 253.75313 129.96562 253.06563L129.96562 252.675ZM132.79375 256.3156L133.825 256.47186Q133.8875 256.9406 134.18437 257.15936Q134.575 257.45624 135.24687 257.45624Q135.98125 257.45624 136.37187 257.15936Q136.77812 256.8625 136.91875 256.34686Q137.0125 256.01874 136.99687 254.9875Q136.30937 255.8 135.27812 255.8Q133.99687 255.8 133.29375 254.87813Q132.59062 253.94063 132.59062 252.65938Q132.59062 251.76875 132.90312 251.01875Q133.23125 250.25313 133.84062 249.84688Q134.45 249.44063 135.27812 249.44063Q136.3875 249.44063 137.10625 250.33125L137.10625 249.58125L138.075 249.58125L138.075 254.95625Q138.075 256.40936 137.77812 257.01874Q137.48125 257.6281 136.84062 257.97186Q136.2 258.33124 135.2625 258.33124Q134.15312 258.33124 133.46562 257.83124Q132.77812 257.33124 132.79375 256.3156ZM133.66875 252.58125Q133.66875 253.8 134.15312 254.3625Q134.6375 254.925 135.37187 254.925Q136.10625 254.925 136.59062 254.3625Q137.09062 253.8 137.09062 252.6125Q137.09062 251.47188 136.575 250.89375Q136.075 250.31563 135.35625 250.31563Q134.65312 250.31563 134.15312 250.89375Q133.66875 251.45625 133.66875 252.58125ZM139.96562 255.8L139.96562 247.20625L141.02812 247.20625L141.02812 255.8L139.96562 255.8ZM142.99687 248.425L142.99687 247.20625L144.05937 247.20625L144.05937 248.425L142.99687 248.425ZM142.99687 255.8L142.99687 249.58125L144.05937 249.58125L144.05937 255.8L142.99687 255.8ZM150.05937 255.03438Q149.46562 255.53438 148.91875 255.7375Q148.3875 255.94063 147.7625 255.94063Q146.73125 255.94063 146.18437 255.44063Q145.6375 254.94063 145.6375 254.15938Q145.6375 253.70625 145.84062 253.33125Q146.04375 252.94063 146.3875 252.72188Q146.73125 252.4875 147.15312 252.37813Q147.45 252.28438 148.09062 252.20625Q149.35625 252.06563 149.96562 251.84688Q149.96562 251.62813 149.96562 251.58125Q149.96562 250.925 149.66875 250.65938Q149.2625 250.31563 148.46562 250.31563Q147.73125 250.31563 147.37187 250.58125Q147.0125 250.83125 146.84062 251.4875L145.80937 251.34688Q145.95 250.69063 146.27812 250.28438Q146.60625 249.87813 147.21562 249.65938Q147.825 249.44063 148.62187 249.44063Q149.41875 249.44063 149.91875 249.62813Q150.41875 249.81563 150.65312 250.09688Q150.8875 250.37813 150.98125 250.81563Q151.02812 251.08125 151.02812 251.78438L151.02812 253.19063Q151.02812 254.65938 151.09062 255.05Q151.16875 255.44063 151.37187 255.8L150.2625 255.8Q150.10625 255.47188 150.05937 255.03438ZM149.96562 252.675Q149.3875 252.90938 148.24687 253.08125Q147.59062 253.175 147.325 253.3Q147.05937 253.40938 146.90312 253.62813Q146.7625 253.84688 146.7625 254.12813Q146.7625 254.55 147.075 254.83125Q147.40312 255.1125 148.0125 255.1125Q148.62187 255.1125 149.09062 254.84688Q149.575 254.58125 149.79375 254.1125Q149.96562 253.75313 149.96562 253.06563L149.96562 252.675ZM155.29375 254.8625L155.45 255.78438Q154.99687 255.87813 154.65312 255.87813Q154.075 255.87813 153.7625 255.70625Q153.45 255.51875 153.30937 255.22188Q153.18437 254.925 153.18437 253.97188L153.18437 250.39375L152.41875 250.39375L152.41875 249.58125L153.18437 249.58125L153.18437 248.03438L154.23125 247.40938L154.23125 249.58125L155.29375 249.58125L155.29375 250.39375L154.23125 250.39375L154.23125 254.03438Q154.23125 254.4875 154.27812 254.6125Q154.34062 254.7375 154.46562 254.81563Q154.59062 254.89375 154.825 254.89375Q155.0125 254.89375 155.29375 254.8625ZM155.60625 252.69063Q155.60625 250.95625 156.55937 250.12813Q157.35625 249.44063 158.5125 249.44063Q159.79375 249.44063 160.60625 250.28438Q161.43437 251.1125 161.43437 252.59688Q161.43437 253.8 161.075 254.4875Q160.71562 255.175 160.0125 255.56563Q159.325 255.94063 158.5125 255.94063Q157.21562 255.94063 156.40312 255.1125Q155.60625 254.26875 155.60625 252.69063ZM156.68437 252.69063Q156.68437 253.87813 157.2 254.47188Q157.73125 255.06563 158.5125 255.06563Q159.30937 255.06563 159.825 254.47188Q160.34062 253.87813 160.34062 252.65938Q160.34062 251.50313 159.80937 250.90938Q159.29375 250.31563 158.5125 250.31563Q157.73125 250.31563 157.2 250.90938Q156.68437 251.4875 156.68437 252.69063Z" fill-rule="nonzero"/><path fill="#ea4335" d="M190.2 251.8C190.2 255.11371 187.5137 257.8 184.2 257.8C180.88629 257.8 178.2 255.11371 178.2 251.8C178.2 248.4863 180.88629 245.8 184.2 245.8C187.5137 245.8 190.2 248.4863 190.2 251.8Z" fill-rule="nonzero"/><path fill="#1a1a1a" d="M199.09062 255.8L199.09062 247.20625L200.80937 247.20625L202.84062 253.28438Q203.12187 254.14375 203.24687 254.56563Q203.3875 254.09688 203.7 253.19063L205.7625 247.20625L207.29375 247.20625L207.29375 255.8L206.2 255.8L206.2 248.6125L203.7 255.8L202.66875 255.8L200.18437 248.4875L200.18437 255.8L199.09062 255.8ZM212.05937 255.03438Q211.46562 255.53438 210.91875 255.7375Q210.3875 255.94063 209.7625 255.94063Q208.73125 255.94063 208.18437 255.44063Q207.6375 254.94063 207.6375 254.15938Q207.6375 253.70625 207.84062 253.33125Q208.04375 252.94063 208.3875 252.72188Q208.73125 252.4875 209.15312 252.37813Q209.45 252.28438 210.09062 252.20625Q211.35625 252.06563 211.96562 251.84688Q211.96562 251.62813 211.96562 251.58125Q211.96562 250.925 211.66875 250.65938Q211.2625 250.31563 210.46562 250.31563Q209.73125 250.31563 209.37187 250.58125Q209.0125 250.83125 208.84062 251.4875L207.80937 251.34688Q207.95 250.69063 208.27812 250.28438Q208.60625 249.87813 209.21562 249.65938Q209.825 249.44063 210.62187 249.44063Q211.41875 249.44063 211.91875 249.62813Q212.41875 249.81563 212.65312 250.09688Q212.8875 250.37813 212.98125 250.81563Q213.02812 251.08125 213.02812 251.78438L213.02812 253.19063Q213.02812 254.65938 213.09062 255.05Q213.16875 255.44063 213.37187 255.8L212.2625 255.8Q212.10625 255.47188 212.05937 255.03438ZM211.96562 252.675Q211.3875 252.90938 210.24687 253.08125Q209.59062 253.175 209.325 253.3Q209.05937 253.40938 208.90312 253.62813Q208.7625 253.84688 208.7625 254.12813Q208.7625 254.55 209.075 254.83125Q209.40312 255.1125 210.0125 255.1125Q210.62187 255.1125 211.09062 254.84688Q211.575 254.58125 211.79375 254.1125Q211.96562 253.75313 211.96562 253.06563L211.96562 252.675ZM214.99687 258.1906L214.99687 249.58125L215.95 249.58125L215.95 250.37813Q216.29375 249.90938 216.71562 249.675Q217.15312 249.44063 217.7625 249.44063Q218.55937 249.44063 219.16875 249.84688Q219.77812 250.25313 220.075 251.00313Q220.3875 251.75313 220.3875 252.64375Q220.3875 253.59688 220.04375 254.3625Q219.71562 255.12813 219.05937 255.53438Q218.40312 255.94063 217.68437 255.94063Q217.15312 255.94063 216.73125 255.72188Q216.30937 255.4875 216.04375 255.15938L216.04375 258.1906L214.99687 258.1906ZM215.95 252.72188Q215.95 253.925 216.43437 254.50313Q216.91875 255.06563 217.60625 255.06563Q218.30937 255.06563 218.80937 254.47188Q219.30937 253.87813 219.30937 252.62813Q219.30937 251.44063 218.825 250.8625Q218.34062 250.26875 217.65312 250.26875Q216.98125 250.26875 216.46562 250.89375Q215.95 251.51875 215.95 252.72188ZM221.99687 258.1906L221.99687 249.58125L222.95 249.58125L222.95 250.37813Q223.29375 249.90938 223.71562 249.675Q224.15312 249.44063 224.7625 249.44063Q225.55937 249.44063 226.16875 249.84688Q226.77812 250.25313 227.075 251.00313Q227.3875 251.75313 227.3875 252.64375Q227.3875 253.59688 227.04375 254.3625Q226.71562 255.12813 226.05937 255.53438Q225.40312 255.94063 224.68437 255.94063Q224.15312 255.94063 223.73125 255.72188Q223.30937 255.4875 223.04375 255.15938L223.04375 258.1906L221.99687 258.1906ZM222.95 252.72188Q222.95 253.925 223.43437 254.50313Q223.91875 255.06563 224.60625 255.06563Q225.30937 255.06563 225.80937 254.47188Q226.30937 253.87813 226.30937 252.62813Q226.30937 251.44063 225.825 250.8625Q225.34062 250.26875 224.65312 250.26875Q223.98125 250.26875 223.46562 250.89375Q222.95 251.51875 222.95 252.72188ZM228.99687 248.425L228.99687 247.20625L230.05937 247.20625L230.05937 248.425L228.99687 248.425ZM228.99687 255.8L228.99687 249.58125L230.05937 249.58125L230.05937 255.8L228.99687 255.8ZM231.99687 255.8L231.99687 249.58125L232.93437 249.58125L232.93437 250.45625Q233.62187 249.44063 234.91875 249.44063Q235.48125 249.44063 235.95 249.64375Q236.43437 249.84688 236.66875 250.175Q236.90312 250.50313 236.99687 250.94063Q237.04375 251.2375 237.04375 251.97188L237.04375 255.8L235.99687 255.8L235.99687 252.01875Q235.99687 251.3625 235.87187 251.05Q235.74687 250.7375 235.43437 250.55Q235.12187 250.34688 234.7 250.34688Q234.02812 250.34688 233.52812 250.78438Q233.04375 251.20625 233.04375 252.39375L233.04375 255.8L231.99687 255.8ZM238.79375 256.3156L239.825 256.47186Q239.8875 256.9406 240.18437 257.15936Q240.575 257.45624 241.24687 257.45624Q241.98125 257.45624 242.37187 257.15936Q242.77812 256.8625 242.91875 256.34686Q243.0125 256.01874 242.99687 254.9875Q242.30937 255.8 241.27812 255.8Q239.99687 255.8 239.29375 254.87813Q238.59062 253.94063 238.59062 252.65938Q238.59062 251.76875 238.90312 251.01875Q239.23125 250.25313 239.84062 249.84688Q240.45 249.44063 241.27812 249.44063Q242.3875 249.44063 243.10625 250.33125L243.10625 249.58125L244.075 249.58125L244.075 254.95625Q244.075 256.40936 243.77812 257.01874Q243.48125 257.6281 242.84062 257.97186Q242.2 258.33124 241.2625 258.33124Q240.15312 258.33124 239.46562 257.83124Q238.77812 257.33124 238.79375 256.3156ZM239.66875 252.58125Q239.66875 253.8 240.15312 254.3625Q240.6375 254.925 241.37187 254.925Q242.10625 254.925 242.59062 254.3625Q243.09062 253.8 243.09062 252.6125Q243.09062 251.47188 242.575 250.89375Q242.075 250.31563 241.35625 250.31563Q240.65312 250.31563 240.15312 250.89375Q239.66875 251.45625 239.66875 252.58125ZM253.05937 255.03438Q252.46562 255.53438 251.91875 255.7375Q251.3875 255.94063 250.7625 255.94063Q249.73125 255.94063 249.18437 255.44063Q248.6375 254.94063 248.6375 254.15938Q248.6375 253.70625 248.84062 253.33125Q249.04375 252.94063 249.3875 252.72188Q249.73125 252.4875 250.15312 252.37813Q250.45 252.28438 251.09062 252.20625Q252.35625 252.06563 252.96562 251.84688Q252.96562 251.62813 252.96562 251.58125Q252.96562 250.925 252.66875 250.65938Q252.2625 250.31563 251.46562 250.31563Q250.73125 250.31563 250.37187 250.58125Q250.0125 250.83125 249.84062 251.4875L248.80937 251.34688Q248.95 250.69063 249.27812 250.28438Q249.60625 249.87813 250.21562 249.65938Q250.825 249.44063 251.62187 249.44063Q252.41875 249.44063 252.91875 249.62813Q253.41875 249.81563 253.65312 250.09688Q253.8875 250.37813 253.98125 250.81563Q254.02812 251.08125 254.02812 251.78438L254.02812 253.19063Q254.02812 254.65938 254.09062 255.05Q254.16875 255.44063 254.37187 255.8L253.2625 255.8Q253.10625 255.47188 253.05937 255.03438ZM252.96562 252.675Q252.3875 252.90938 251.24687 253.08125Q250.59062 253.175 250.325 253.3Q250.05937 253.40938 249.90312 253.62813Q249.7625 253.84688 249.7625 254.12813Q249.7625 254.55 250.075 254.83125Q250.40312 255.1125 251.0125 255.1125Q251.62187 255.1125 252.09062 254.84688Q252.575 254.58125 252.79375 254.1125Q252.96562 253.75313 252.96562 253.06563L252.96562 252.675ZM255.98125 255.8L255.98125 249.58125L256.9344 249.58125L256.9344 250.51875Q257.29376 249.8625 257.59064 249.65938Q257.90314 249.44063 258.27814 249.44063Q258.8094 249.44063 259.35626 249.76875L258.9969 250.75313Q258.60626 250.51875 258.23126 250.51875Q257.8719 250.51875 257.59064 250.7375Q257.325 250.94063 257.21564 251.31563Q257.02814 251.87813 257.02814 252.53438L257.02814 255.8L255.98125 255.8ZM259.79376 256.3156L260.825 256.47186Q260.8875 256.9406 261.1844 257.15936Q261.575 257.45624 262.2469 257.45624Q262.98126 257.45624 263.3719 257.15936Q263.77814 256.8625 263.91876 256.34686Q264.0125 256.01874 263.9969 254.9875Q263.3094 255.8 262.27814 255.8Q260.9969 255.8 260.29376 254.87813Q259.59064 253.94063 259.59064 252.65938Q259.59064 251.76875 259.90314 251.01875Q260.23126 250.25313 260.84064 249.84688Q261.45 249.44063 262.27814 249.44063Q263.3875 249.44063 264.10626 250.33125L264.10626 249.58125L265.075 249.58125L265.075 254.95625Q265.075 256.40936 264.77814 257.01874Q264.48126 257.6281 263.84064 257.97186Q263.2 258.33124 262.2625 258.33124Q261.15314 258.33124 260.46564 257.83124Q259.77814 257.33124 259.79376 256.3156ZM260.66876 252.58125Q260.66876 253.8 261.15314 254.3625Q261.6375 254.925 262.3719 254.925Q263.10626 254.925 263.59064 254.3625Q264.09064 253.8 264.09064 252.6125Q264.09064 251.47188 263.575 250.89375Q263.075 250.31563 262.35626 250.31563Q261.65314 250.31563 261.15314 250.89375Q260.66876 251.45625 260.66876 252.58125ZM266.60626 252.69063Q266.60626 250.95625 267.5594 250.12813Q268.35626 249.44063 269.5125 249.44063Q270.79376 249.44063 271.60626 250.28438Q272.4344 251.1125 272.4344 252.59688Q272.4344 253.8 272.075 254.4875Q271.71564 255.175 271.0125 255.56563Q270.325 255.94063 269.5125 255.94063Q268.21564 255.94063 267.40314 255.1125Q266.60626 254.26875 266.60626 252.69063ZM267.6844 252.69063Q267.6844 253.87813 268.2 254.47188Q268.73126 255.06563 269.5125 255.06563Q270.3094 255.06563 270.825 254.47188Q271.34064 253.87813 271.34064 252.65938Q271.34064 251.50313 270.8094 250.90938Q270.29376 250.31563 269.5125 250.31563Q268.73126 250.31563 268.2 250.90938Q267.6844 251.4875 267.6844 252.69063ZM273.9969 255.8L273.9969 249.58125L274.9344 249.58125L274.9344 250.45625Q275.23126 249.9875 275.71564 249.72188Q276.2 249.44063 276.825 249.44063Q277.5125 249.44063 277.95 249.72188Q278.40314 250.00313 278.575 250.51875Q279.325 249.44063 280.4969 249.44063Q281.4344 249.44063 281.91876 249.95625Q282.41876 250.45625 282.41876 251.53438L282.41876 255.8L281.3719 255.8L281.3719 251.87813Q281.3719 251.25313 281.2625 250.97188Q281.16876 250.69063 280.90314 250.51875Q280.6375 250.34688 280.2625 250.34688Q279.60626 250.34688 279.16876 250.78438Q278.7469 251.22188 278.7469 252.19063L278.7469 255.8L277.6844 255.8L277.6844 251.75313Q277.6844 251.05 277.41876 250.70625Q277.16876 250.34688 276.59064 250.34688Q276.1375 250.34688 275.7625 250.58125Q275.3875 250.81563 275.21564 251.26875Q275.04376 251.72188 275.04376 252.56563L275.04376 255.8L273.9969 255.8ZM289.2469 253.8L290.34064 253.925Q290.09064 254.87813 289.3875 255.40938Q288.6844 255.94063 287.60626 255.94063Q286.2469 255.94063 285.4344 255.09688Q284.6375 254.25313 284.6375 252.7375Q284.6375 251.175 285.45 250.31563Q286.2625 249.44063 287.54376 249.44063Q288.79376 249.44063 289.575 250.28438Q290.3719 251.12813 290.3719 252.675Q290.3719 252.76875 290.3719 252.95625L285.73126 252.95625Q285.79376 253.9875 286.3094 254.53438Q286.825 255.06563 287.60626 255.06563Q288.1844 255.06563 288.59064 254.76875Q289.0125 254.45625 289.2469 253.8ZM285.79376 252.09688L289.2625 252.09688Q289.2 251.3 288.8719 250.90938Q288.35626 250.3 287.5594 250.3Q286.825 250.3 286.325 250.78438Q285.84064 251.26875 285.79376 252.09688ZM291.9969 255.8L291.9969 249.58125L292.9344 249.58125L292.9344 250.45625Q293.6219 249.44063 294.91876 249.44063Q295.48126 249.44063 295.95 249.64375Q296.4344 249.84688 296.66876 250.175Q296.90314 250.50313 296.9969 250.94063Q297.04376 251.2375 297.04376 251.97188L297.04376 255.8L295.9969 255.8L295.9969 252.01875Q295.9969 251.3625 295.8719 251.05Q295.7469 250.7375 295.4344 250.55Q295.1219 250.34688 294.7 250.34688Q294.02814 250.34688 293.52814 250.78438Q293.04376 251.20625 293.04376 252.39375L293.04376 255.8L291.9969 255.8ZM301.29376 254.8625L301.45 255.78438Q300.9969 255.87813 300.65314 255.87813Q300.075 255.87813 299.7625 255.70625Q299.45 255.51875 299.3094 255.22188Q299.1844 254.925 299.1844 253.97188L299.1844 250.39375L298.41876 250.39375L298.41876 249.58125L299.1844 249.58125L299.1844 248.03438L300.23126 247.40938L300.23126 249.58125L301.29376 249.58125L301.29376 250.39375L300.23126 250.39375L300.23126 254.03438Q300.23126 254.4875 300.27814 254.6125Q300.34064 254.7375 300.46564 254.81563Q300.59064 254.89375 300.825 254.89375Q301.0125 254.89375 301.29376 254.8625ZM301.9969 248.425L301.9969 247.20625L303.0594 247.20625L303.0594 248.425L301.9969 248.425ZM301.9969 255.8L301.9969 249.58125L303.0594 249.58125L303.0594 255.8L301.9969 255.8ZM304.2 255.94063L306.6844 247.06563L307.52814 247.06563L305.04376 255.94063L304.2 255.94063ZM310.29376 254.8625L310.45 255.78438Q309.9969 255.87813 309.65314 255.87813Q309.075 255.87813 308.7625 255.70625Q308.45 255.51875 308.3094 255.22188Q308.1844 254.925 308.1844 253.97188L308.1844 250.39375L307.41876 250.39375L307.41876 249.58125L308.1844 249.58125L308.1844 248.03438L309.23126 247.40938L309.23126 249.58125L310.29376 249.58125L310.29376 250.39375L309.23126 250.39375L309.23126 254.03438Q309.23126 254.4875 309.27814 254.6125Q309.34064 254.7375 309.46564 254.81563Q309.59064 254.89375 309.825 254.89375Q310.0125 254.89375 310.29376 254.8625ZM315.2469 253.8L316.34064 253.925Q316.09064 254.87813 315.3875 255.40938Q314.6844 255.94063 313.60626 255.94063Q312.2469 255.94063 311.4344 255.09688Q310.6375 254.25313 310.6375 252.7375Q310.6375 251.175 311.45 250.31563Q312.2625 249.44063 313.54376 249.44063Q314.79376 249.44063 315.575 250.28438Q316.3719 251.12813 316.3719 252.675Q316.3719 252.76875 316.3719 252.95625L311.73126 252.95625Q311.79376 253.9875 312.3094 254.53438Q312.825 255.06563 313.60626 255.06563Q314.1844 255.06563 314.59064 254.76875Q315.0125 254.45625 315.2469 253.8ZM311.79376 252.09688L315.2625 252.09688Q315.2 251.3 314.8719 250.90938Q314.35626 250.3 313.5594 250.3Q312.825 250.3 312.325 250.78438Q311.84064 251.26875 311.79376 252.09688ZM317.575 253.94063L318.60626 253.78438Q318.7 254.40938 319.09064 254.7375Q319.4969 255.06563 320.23126 255.06563Q320.95 255.06563 321.29376 254.78438Q321.65314 254.4875 321.65314 254.08125Q321.65314 253.72188 321.34064 253.51875Q321.1219 253.37813 320.2625 253.15938Q319.10626 252.8625 318.65314 252.65938Q318.21564 252.44063 317.98126 252.06563Q317.7469 251.69063 317.7469 251.22188Q317.7469 250.81563 317.9344 250.45625Q318.1219 250.09688 318.45 249.8625Q318.7 249.69063 319.1219 249.56563Q319.54376 249.44063 320.04376 249.44063Q320.7625 249.44063 321.3094 249.65938Q321.8719 249.8625 322.1375 250.22188Q322.40314 250.58125 322.4969 251.175L321.46564 251.31563Q321.40314 250.84688 321.0594 250.58125Q320.73126 250.3 320.10626 250.3Q319.3875 250.3 319.075 250.55Q318.7625 250.78438 318.7625 251.1125Q318.7625 251.31563 318.8875 251.47188Q319.02814 251.64375 319.29376 251.75313Q319.45 251.81563 320.23126 252.01875Q321.35626 252.33125 321.79376 252.51875Q322.23126 252.70625 322.48126 253.06563Q322.73126 253.425 322.73126 253.97188Q322.73126 254.50313 322.41876 254.97188Q322.1219 255.425 321.54376 255.69063Q320.96564 255.94063 320.23126 255.94063Q319.0125 255.94063 318.3719 255.44063Q317.7469 254.925 317.575 253.94063ZM327.29376 254.8625L327.45 255.78438Q326.9969 255.87813 326.65314 255.87813Q326.075 255.87813 325.7625 255.70625Q325.45 255.51875 325.3094 255.22188Q325.1844 254.925 325.1844 253.97188L325.1844 250.39375L324.41876 250.39375L324.41876 249.58125L325.1844 249.58125L325.1844 248.03438L326.23126 247.40938L326.23126 249.58125L327.29376 249.58125L327.29376 250.39375L326.23126 250.39375L326.23126 254.03438Q326.23126 254.4875 326.27814 254.6125Q326.34064 254.7375 326.46564 254.81563Q326.59064 254.89375 326.825 254.89375Q327.0125 254.89375 327.29376 254.8625ZM327.9969 248.425L327.9969 247.20625L329.0594 247.20625L329.0594 248.425L327.9969 248.425ZM327.9969 255.8L327.9969 249.58125L329.0594 249.58125L329.0594 255.8L327.9969 255.8ZM330.2 255.94063L332.6844 247.06563L333.52814 247.06563L331.04376 255.94063L330.2 255.94063ZM335.71564 255.8L333.35626 249.58125L334.46564 249.58125L335.8094 253.3Q336.0125 253.90938 336.2 254.55Q336.34064 254.06563 336.59064 253.37813L337.98126 249.58125L339.0594 249.58125L336.7 255.8L335.71564 255.8ZM338.9969 248.425L338.9969 247.20625L340.0594 247.20625L340.0594 248.425L338.9969 248.425ZM338.9969 255.8L338.9969 249.58125L340.0594 249.58125L340.0594 255.8L338.9969 255.8ZM346.02814 255.8L346.02814 255.01875Q345.4344 255.94063 344.29376 255.94063Q343.54376 255.94063 342.91876 255.53438Q342.29376 255.1125 341.95 254.37813Q341.60626 253.64375 341.60626 252.69063Q341.60626 251.76875 341.91876 251.00313Q342.23126 250.2375 342.85626 249.84688Q343.48126 249.44063 344.2469 249.44063Q344.8094 249.44063 345.2469 249.675Q345.6844 249.90938 345.96564 250.28438L345.96564 247.20625L347.0125 247.20625L347.0125 255.8L346.02814 255.8ZM342.7 252.69063Q342.7 253.89375 343.2 254.4875Q343.7 255.06563 344.3875 255.06563Q345.075 255.06563 345.5594 254.50313Q346.04376 253.94063 346.04376 252.78438Q346.04376 251.50313 345.54376 250.90938Q345.0594 250.31563 344.34064 250.31563Q343.6375 250.31563 343.16876 250.89375Q342.7 251.45625 342.7 252.69063ZM353.2469 253.8L354.34064 253.925Q354.09064 254.87813 353.3875 255.40938Q352.6844 255.94063 351.60626 255.94063Q350.2469 255.94063 349.4344 255.09688Q348.6375 254.25313 348.6375 252.7375Q348.6375 251.175 349.45 250.31563Q350.2625 249.44063 351.54376 249.44063Q352.79376 249.44063 353.575 250.28438Q354.3719 251.12813 354.3719 252.675Q354.3719 252.76875 354.3719 252.95625L349.73126 252.95625Q349.79376 253.9875 350.3094 254.53438Q350.825 255.06563 351.60626 255.06563Q352.1844 255.06563 352.59064 254.76875Q353.0125 254.45625 353.2469 253.8ZM349.79376 252.09688L353.2625 252.09688Q353.2 251.3 352.8719 250.90938Q352.35626 250.3 351.5594 250.3Q350.825 250.3 350.325 250.78438Q349.84064 251.26875 349.79376 252.09688ZM355.60626 252.69063Q355.60626 250.95625 356.5594 250.12813Q357.35626 249.44063 358.5125 249.44063Q359.79376 249.44063 360.60626 250.28438Q361.4344 251.1125 361.4344 252.59688Q361.4344 253.8 361.075 254.4875Q360.71564 255.175 360.0125 255.56563Q359.325 255.94063 358.5125 255.94063Q357.21564 255.94063 356.40314 255.1125Q355.60626 254.26875 355.60626 252.69063ZM356.6844 252.69063Q356.6844 253.87813 357.2 254.47188Q357.73126 255.06563 358.5125 255.06563Q359.3094 255.06563 359.825 254.47188Q360.34064 253.87813 360.34064 252.65938Q360.34064 251.50313 359.8094 250.90938Q359.29376 250.31563 358.5125 250.31563Q357.73126 250.31563 357.2 250.90938Q356.6844 251.4875 356.6844 252.69063ZM362.96564 255.8L362.96564 247.20625L364.02814 247.20625L364.02814 255.8L362.96564 255.8ZM370.2469 253.8L371.34064 253.925Q371.09064 254.87813 370.3875 255.40938Q369.6844 255.94063 368.60626 255.94063Q367.2469 255.94063 366.4344 255.09688Q365.6375 254.25313 365.6375 252.7375Q365.6375 251.175 366.45 250.31563Q367.2625 249.44063 368.54376 249.44063Q369.79376 249.44063 370.575 250.28438Q371.3719 251.12813 371.3719 252.675Q371.3719 252.76875 371.3719 252.95625L366.73126 252.95625Q366.79376 253.9875 367.3094 254.53438Q367.825 255.06563 368.60626 255.06563Q369.1844 255.06563 369.59064 254.76875Q370.0125 254.45625 370.2469 253.8ZM366.79376 252.09688L370.2625 252.09688Q370.2 251.3 369.8719 250.90938Q369.35626 250.3 368.5594 250.3Q367.825 250.3 367.325 250.78438Q366.84064 251.26875 366.79376 252.09688ZM372.4344 255.8L372.4344 254.94063L376.40314 250.39375Q375.71564 250.425 375.2 250.425L372.66876 250.425L372.66876 249.58125L377.7625 249.58125L377.7625 250.26875L374.3875 254.22188L373.73126 254.94063Q374.45 254.89375 375.0594 254.89375L377.95 254.89375L377.95 255.8L372.4344 255.8ZM377.9969 248.425L377.9969 247.20625L379.0594 247.20625L379.0594 248.425L377.9969 248.425ZM377.9969 255.8L377.9969 249.58125L379.0594 249.58125L379.0594 255.8L377.9969 255.8ZM380.60626 252.69063Q380.60626 250.95625 381.5594 250.12813Q382.35626 249.44063 383.5125 249.44063Q384.79376 249.44063 385.60626 250.28438Q386.4344 251.1125 386.4344 252.59688Q386.4344 253.8 386.075 254.4875Q385.71564 255.175 385.0125 255.56563Q384.325 255.94063 383.5125 255.94063Q382.21564 255.94063 381.40314 255.1125Q380.60626 254.26875 380.60626 252.69063ZM381.6844 252.69063Q381.6844 253.87813 382.2 254.47188Q382.73126 255.06563 383.5125 255.06563Q384.3094 255.06563 384.825 254.47188Q385.34064 253.87813 385.34064 252.65938Q385.34064 251.50313 384.8094 250.90938Q384.29376 250.31563 383.5125 250.31563Q382.73126 250.31563 382.2 250.90938Q381.6844 251.4875 381.6844 252.69063ZM387.9969 255.8L387.9969 249.58125L388.9344 249.58125L388.9344 250.45625Q389.6219 249.44063 390.91876 249.44063Q391.48126 249.44063 391.95 249.64375Q392.4344 249.84688 392.66876 250.175Q392.90314 250.50313 392.9969 250.94063Q393.04376 251.2375 393.04376 251.97188L393.04376 255.8L391.9969 255.8L391.9969 252.01875Q391.9969 251.3625 391.8719 251.05Q391.7469 250.7375 391.4344 250.55Q391.1219 250.34688 390.7 250.34688Q390.02814 250.34688 389.52814 250.78438Q389.04376 251.20625 389.04376 252.39375L389.04376 255.8L387.9969 255.8ZM394.9969 248.425L394.9969 247.20625L396.0594 247.20625L396.0594 248.425L394.9969 248.425ZM394.9969 255.8L394.9969 249.58125L396.0594 249.58125L396.0594 255.8L394.9969 255.8Z" fill-rule="nonzero"/><path fill="#fbbc04" d="M37.7 269.8C37.7 273.1137 35.01371 275.8 31.7 275.8C28.386292 275.8 25.7 273.1137 25.7 269.8C25.7 266.4863 28.386292 263.8 31.7 263.8C35.01371 263.8 37.7 266.4863 37.7 269.8Z" fill-rule="nonzero"/><path fill="#1a1a1a" d="M46.621876 273.8L46.621876 265.20624L47.778126 265.20624L52.29375 271.95624L52.29375 265.20624L53.3875 265.20624L53.3875 273.8L52.215626 273.8L47.7 267.05L47.7 273.8L46.621876 273.8ZM55.10625 270.6906Q55.10625 268.95624 56.059376 268.1281Q56.85625 267.4406 58.0125 267.4406Q59.29375 267.4406 60.10625 268.28436Q60.934376 269.1125 60.934376 270.59686Q60.934376 271.8 60.575 272.4875Q60.215626 273.175 59.5125 273.5656Q58.825 273.9406 58.0125 273.9406Q56.715626 273.9406 55.903126 273.1125Q55.10625 272.26874 55.10625 270.6906ZM56.184376 270.6906Q56.184376 271.8781 56.7 272.47186Q57.23125 273.0656 58.0125 273.0656Q58.809376 273.0656 59.325 272.47186Q59.840626 271.8781 59.840626 270.65936Q59.840626 269.5031 59.309376 268.90936Q58.79375 268.3156 58.0125 268.3156Q57.23125 268.3156 56.7 268.90936Q56.184376 269.4875 56.184376 270.6906ZM62.496876 273.8L62.496876 267.58124L63.434376 267.58124L63.434376 268.45624Q64.12187 267.4406 65.41875 267.4406Q65.98125 267.4406 66.45 267.64374Q66.93437 267.84686 67.16875 268.175Q67.40312 268.5031 67.49687 268.9406Q67.54375 269.2375 67.54375 269.97186L67.54375 273.8L66.49687 273.8L66.49687 270.01874Q66.49687 269.3625 66.37187 269.05Q66.24687 268.7375 65.93437 268.55Q65.62187 268.34686 65.2 268.34686Q64.52812 268.34686 64.02812 268.78436Q63.54375 269.20624 63.54375 270.39374L63.54375 273.8L62.496876 273.8ZM76.575 273.8L76.575 272.8781Q75.84062 273.9406 74.59062 273.9406Q74.04375 273.9406 73.55937 273.7375Q73.09062 273.51874 72.85625 273.20624Q72.62187 272.8781 72.52812 272.40936Q72.46562 272.1125 72.46562 271.425L72.46562 267.58124L73.52812 267.58124L73.52812 271.03436Q73.52812 271.84686 73.59062 272.14374Q73.68437 272.55 73.99687 272.8Q74.325 273.03436 74.80937 273.03436Q75.27812 273.03436 75.68437 272.8Q76.10625 272.55 76.27812 272.1281Q76.46562 271.70624 76.46562 270.90936L76.46562 267.58124L77.5125 267.58124L77.5125 273.8L76.575 273.8ZM79.075 271.9406L80.10625 271.78436Q80.2 272.40936 80.59062 272.7375Q80.99687 273.0656 81.73125 273.0656Q82.45 273.0656 82.79375 272.78436Q83.15312 272.4875 83.15312 272.08124Q83.15312 271.72186 82.84062 271.51874Q82.62187 271.3781 81.7625 271.15936Q80.60625 270.8625 80.15312 270.65936Q79.71562 270.4406 79.48125 270.0656Q79.24687 269.6906 79.24687 269.22186Q79.24687 268.8156 79.43437 268.45624Q79.62187 268.09686 79.95 267.8625Q80.2 267.6906 80.62187 267.5656Q81.04375 267.4406 81.54375 267.4406Q82.2625 267.4406 82.80937 267.65936Q83.37187 267.8625 83.6375 268.22186Q83.90312 268.58124 83.99687 269.175L82.96562 269.3156Q82.90312 268.84686 82.55937 268.58124Q82.23125 268.3 81.60625 268.3Q80.8875 268.3 80.575 268.55Q80.2625 268.78436 80.2625 269.1125Q80.2625 269.3156 80.3875 269.47186Q80.52812 269.64374 80.79375 269.7531Q80.95 269.8156 81.73125 270.01874Q82.85625 270.33124 83.29375 270.51874Q83.73125 270.70624 83.98125 271.0656Q84.23125 271.425 84.23125 271.97186Q84.23125 272.5031 83.91875 272.97186Q83.62187 273.425 83.04375 273.6906Q82.46562 273.9406 81.73125 273.9406Q80.5125 273.9406 79.87187 273.4406Q79.24687 272.925 79.075 271.9406ZM90.55937 273.03436Q89.96562 273.53436 89.41875 273.7375Q88.8875 273.9406 88.2625 273.9406Q87.23125 273.9406 86.68437 273.4406Q86.1375 272.9406 86.1375 272.15936Q86.1375 271.70624 86.34062 271.33124Q86.54375 270.9406 86.8875 270.72186Q87.23125 270.4875 87.65312 270.3781Q87.95 270.28436 88.59062 270.20624Q89.85625 270.0656 90.46562 269.84686Q90.46562 269.6281 90.46562 269.58124Q90.46562 268.925 90.16875 268.65936Q89.7625 268.3156 88.96562 268.3156Q88.23125 268.3156 87.87187 268.58124Q87.5125 268.83124 87.34062 269.4875L86.30937 269.34686Q86.45 268.6906 86.77812 268.28436Q87.10625 267.8781 87.71562 267.65936Q88.325 267.4406 89.12187 267.4406Q89.91875 267.4406 90.41875 267.6281Q90.91875 267.8156 91.15312 268.09686Q91.3875 268.3781 91.48125 268.8156Q91.52812 269.08124 91.52812 269.78436L91.52812 271.1906Q91.52812 272.65936 91.59062 273.05Q91.66875 273.4406 91.87187 273.8L90.7625 273.8Q90.60625 273.47186 90.55937 273.03436ZM90.46562 270.675Q89.8875 270.90936 88.74687 271.08124Q88.09062 271.175 87.825 271.3Q87.55937 271.40936 87.40312 271.6281Q87.2625 271.84686 87.2625 272.1281Q87.2625 272.55 87.575 272.83124Q87.90312 273.1125 88.5125 273.1125Q89.12187 273.1125 89.59062 272.84686Q90.075 272.58124 90.29375 272.1125Q90.46562 271.7531 90.46562 271.0656L90.46562 270.675ZM95.79375 272.8625L95.95 273.78436Q95.49687 273.8781 95.15312 273.8781Q94.575 273.8781 94.2625 273.70624Q93.95 273.51874 93.80937 273.22186Q93.68437 272.925 93.68437 271.97186L93.68437 268.39374L92.91875 268.39374L92.91875 267.58124L93.68437 267.58124L93.68437 266.03436L94.73125 265.40936L94.73125 267.58124L95.79375 267.58124L95.79375 268.39374L94.73125 268.39374L94.73125 272.03436Q94.73125 272.4875 94.77812 272.6125Q94.84062 272.7375 94.96562 272.8156Q95.09062 272.89374 95.325 272.89374Q95.5125 272.89374 95.79375 272.8625ZM96.10625 270.6906Q96.10625 268.95624 97.05937 268.1281Q97.85625 267.4406 99.0125 267.4406Q100.29375 267.4406 101.10625 268.28436Q101.93437 269.1125 101.93437 270.59686Q101.93437 271.8 101.575 272.4875Q101.21562 273.175 100.5125 273.5656Q99.825 273.9406 99.0125 273.9406Q97.71562 273.9406 96.90312 273.1125Q96.10625 272.26874 96.10625 270.6906ZM97.18437 270.6906Q97.18437 271.8781 97.7 272.47186Q98.23125 273.0656 99.0125 273.0656Q99.80937 273.0656 100.325 272.47186Q100.84062 271.8781 100.84062 270.65936Q100.84062 269.5031 100.30937 268.90936Q99.79375 268.3156 99.0125 268.3156Q98.23125 268.3156 97.7 268.90936Q97.18437 269.4875 97.18437 270.6906Z" fill-rule="nonzero"/><path fill="#34a853" d="M130.7 269.8C130.7 273.1137 128.0137 275.8 124.7 275.8C121.38629 275.8 118.7 273.1137 118.7 269.8C118.7 266.4863 121.38629 263.8 124.7 263.8C128.0137 263.8 130.7 266.4863 130.7 269.8Z" fill-rule="nonzero"/><path fill="#1a1a1a" d="M139.27812 269.6125Q139.27812 267.47186 140.41875 266.26874Q141.575 265.05 143.3875 265.05Q144.59062 265.05 145.54375 265.6281Q146.49687 266.1906 146.99687 267.20624Q147.49687 268.22186 147.49687 269.51874Q147.49687 270.8156 146.96562 271.84686Q146.43437 272.8781 145.46562 273.40936Q144.5125 273.9406 143.3875 273.9406Q142.16875 273.9406 141.21562 273.3625Q140.2625 272.76874 139.7625 271.76874Q139.27812 270.7531 139.27812 269.6125ZM140.45 269.6281Q140.45 271.1906 141.27812 272.08124Q142.12187 272.97186 143.3875 272.97186Q144.66875 272.97186 145.49687 272.08124Q146.325 271.175 146.325 269.5031Q146.325 268.45624 145.96562 267.675Q145.62187 266.89374 144.93437 266.47186Q144.24687 266.03436 143.40312 266.03436Q142.2 266.03436 141.325 266.8625Q140.45 267.6906 140.45 269.6281ZM148.48125 273.8L148.48125 267.58124L149.43437 267.58124L149.43437 268.51874Q149.79375 267.8625 150.09062 267.65936Q150.40312 267.4406 150.77812 267.4406Q151.30937 267.4406 151.85625 267.76874L151.49687 268.7531Q151.10625 268.51874 150.73125 268.51874Q150.37187 268.51874 150.09062 268.7375Q149.825 268.9406 149.71562 269.3156Q149.52812 269.8781 149.52812 270.53436L149.52812 273.8L148.48125 273.8ZM152.29375 274.3156L153.325 274.47186Q153.3875 274.9406 153.68437 275.15936Q154.075 275.45624 154.74687 275.45624Q155.48125 275.45624 155.87187 275.15936Q156.27812 274.8625 156.41875 274.34686Q156.5125 274.01874 156.49687 272.9875Q155.80937 273.8 154.77812 273.8Q153.49687 273.8 152.79375 272.8781Q152.09062 271.9406 152.09062 270.65936Q152.09062 269.76874 152.40312 269.01874Q152.73125 268.2531 153.34062 267.84686Q153.95 267.4406 154.77812 267.4406Q155.8875 267.4406 156.60625 268.33124L156.60625 267.58124L157.575 267.58124L157.575 272.95624Q157.575 274.40936 157.27812 275.01874Q156.98125 275.6281 156.34062 275.97186Q155.7 276.33124 154.7625 276.33124Q153.65312 276.33124 152.96562 275.83124Q152.27812 275.33124 152.29375 274.3156ZM153.16875 270.58124Q153.16875 271.8 153.65312 272.3625Q154.1375 272.925 154.87187 272.925Q155.60625 272.925 156.09062 272.3625Q156.59062 271.8 156.59062 270.6125Q156.59062 269.47186 156.075 268.89374Q155.575 268.3156 154.85625 268.3156Q154.15312 268.3156 153.65312 268.89374Q153.16875 269.45624 153.16875 270.58124ZM163.55937 273.03436Q162.96562 273.53436 162.41875 273.7375Q161.8875 273.9406 161.2625 273.9406Q160.23125 273.9406 159.68437 273.4406Q159.1375 272.9406 159.1375 272.15936Q159.1375 271.70624 159.34062 271.33124Q159.54375 270.9406 159.8875 270.72186Q160.23125 270.4875 160.65312 270.3781Q160.95 270.28436 161.59062 270.20624Q162.85625 270.0656 163.46562 269.84686Q163.46562 269.6281 163.46562 269.58124Q163.46562 268.925 163.16875 268.65936Q162.7625 268.3156 161.96562 268.3156Q161.23125 268.3156 160.87187 268.58124Q160.5125 268.83124 160.34062 269.4875L159.30937 269.34686Q159.45 268.6906 159.77812 268.28436Q160.10625 267.8781 160.71562 267.65936Q161.325 267.4406 162.12187 267.4406Q162.91875 267.4406 163.41875 267.6281Q163.91875 267.8156 164.15312 268.09686Q164.3875 268.3781 164.48125 268.8156Q164.52812 269.08124 164.52812 269.78436L164.52812 271.1906Q164.52812 272.65936 164.59062 273.05Q164.66875 273.4406 164.87187 273.8L163.7625 273.8Q163.60625 273.47186 163.55937 273.03436ZM163.46562 270.675Q162.8875 270.90936 161.74687 271.08124Q161.09062 271.175 160.825 271.3Q160.55937 271.40936 160.40312 271.6281Q160.2625 271.84686 160.2625 272.1281Q160.2625 272.55 160.575 272.83124Q160.90312 273.1125 161.5125 273.1125Q162.12187 273.1125 162.59062 272.84686Q163.075 272.58124 163.29375 272.1125Q163.46562 271.7531 163.46562 271.0656L163.46562 270.675ZM166.49687 273.8L166.49687 267.58124L167.43437 267.58124L167.43437 268.45624Q168.12187 267.4406 169.41875 267.4406Q169.98125 267.4406 170.45 267.64374Q170.93437 267.84686 171.16875 268.175Q171.40312 268.5031 171.49687 268.9406Q171.54375 269.2375 171.54375 269.97186L171.54375 273.8L170.49687 273.8L170.49687 270.01874Q170.49687 269.3625 170.37187 269.05Q170.24687 268.7375 169.93437 268.55Q169.62187 268.34686 169.2 268.34686Q168.52812 268.34686 168.02812 268.78436Q167.54375 269.20624 167.54375 270.39374L167.54375 273.8L166.49687 273.8ZM173.49687 266.425L173.49687 265.20624L174.55937 265.20624L174.55937 266.425L173.49687 266.425ZM173.49687 273.8L173.49687 267.58124L174.55937 267.58124L174.55937 273.8L173.49687 273.8ZM175.93437 273.8L175.93437 272.9406L179.90312 268.39374Q179.21562 268.425 178.7 268.425L176.16875 268.425L176.16875 267.58124L181.2625 267.58124L181.2625 268.26874L177.8875 272.22186L177.23125 272.9406Q177.95 272.89374 178.55937 272.89374L181.45 272.89374L181.45 273.8L175.93437 273.8ZM180.93437 273.8L180.93437 272.9406L184.90312 268.39374Q184.21562 268.425 183.7 268.425L181.16875 268.425L181.16875 267.58124L186.2625 267.58124L186.2625 268.26874L182.8875 272.22186L182.23125 272.9406Q182.95 272.89374 183.55937 272.89374L186.45 272.89374L186.45 273.8L180.93437 273.8ZM190.55937 273.03436Q189.96562 273.53436 189.41875 273.7375Q188.8875 273.9406 188.2625 273.9406Q187.23125 273.9406 186.68437 273.4406Q186.1375 272.9406 186.1375 272.15936Q186.1375 271.70624 186.34062 271.33124Q186.54375 270.9406 186.8875 270.72186Q187.23125 270.4875 187.65312 270.3781Q187.95 270.28436 188.59062 270.20624Q189.85625 270.0656 190.46562 269.84686Q190.46562 269.6281 190.46562 269.58124Q190.46562 268.925 190.16875 268.65936Q189.7625 268.3156 188.96562 268.3156Q188.23125 268.3156 187.87187 268.58124Q187.5125 268.83124 187.34062 269.4875L186.30937 269.34686Q186.45 268.6906 186.77812 268.28436Q187.10625 267.8781 187.71562 267.65936Q188.325 267.4406 189.12187 267.4406Q189.91875 267.4406 190.41875 267.6281Q190.91875 267.8156 191.15312 268.09686Q191.3875 268.3781 191.48125 268.8156Q191.52812 269.08124 191.52812 269.78436L191.52812 271.1906Q191.52812 272.65936 191.59062 273.05Q191.66875 273.4406 191.87187 273.8L190.7625 273.8Q190.60625 273.47186 190.55937 273.03436ZM190.46562 270.675Q189.8875 270.90936 188.74687 271.08124Q188.09062 271.175 187.825 271.3Q187.55937 271.40936 187.40312 271.6281Q187.2625 271.84686 187.2625 272.1281Q187.2625 272.55 187.575 272.83124Q187.90312 273.1125 188.5125 273.1125Q189.12187 273.1125 189.59062 272.84686Q190.075 272.58124 190.29375 272.1125Q190.46562 271.7531 190.46562 271.0656L190.46562 270.675ZM192.93437 273.8L192.93437 272.9406L196.90312 268.39374Q196.21562 268.425 195.7 268.425L193.16875 268.425L193.16875 267.58124L198.2625 267.58124L198.2625 268.26874L194.8875 272.22186L194.23125 272.9406Q194.95 272.89374 195.55937 272.89374L198.45 272.89374L198.45 273.8L192.93437 273.8ZM198.49687 266.425L198.49687 265.20624L199.55937 265.20624L199.55937 266.425L198.49687 266.425ZM198.49687 273.8L198.49687 267.58124L199.55937 267.58124L199.55937 273.8L198.49687 273.8ZM201.10625 270.6906Q201.10625 268.95624 202.05937 268.1281Q202.85625 267.4406 204.0125 267.4406Q205.29375 267.4406 206.10625 268.28436Q206.93437 269.1125 206.93437 270.59686Q206.93437 271.8 206.575 272.4875Q206.21562 273.175 205.5125 273.5656Q204.825 273.9406 204.0125 273.9406Q202.71562 273.9406 201.90312 273.1125Q201.10625 272.26874 201.10625 270.6906ZM202.18437 270.6906Q202.18437 271.8781 202.7 272.47186Q203.23125 273.0656 204.0125 273.0656Q204.80937 273.0656 205.325 272.47186Q205.84062 271.8781 205.84062 270.65936Q205.84062 269.5031 205.30937 268.90936Q204.79375 268.3156 204.0125 268.3156Q203.23125 268.3156 202.7 268.90936Q202.18437 269.4875 202.18437 270.6906ZM208.49687 273.8L208.49687 267.58124L209.43437 267.58124L209.43437 268.45624Q210.12187 267.4406 211.41875 267.4406Q211.98125 267.4406 212.45 267.64374Q212.93437 267.84686 213.16875 268.175Q213.40312 268.5031 213.49687 268.9406Q213.54375 269.2375 213.54375 269.97186L213.54375 273.8L212.49687 273.8L212.49687 270.01874Q212.49687 269.3625 212.37187 269.05Q212.24687 268.7375 211.93437 268.55Q211.62187 268.34686 211.2 268.34686Q210.52812 268.34686 210.02812 268.78436Q209.54375 269.20624 209.54375 270.39374L209.54375 273.8L208.49687 273.8ZM219.74687 271.8L220.84062 271.925Q220.59062 272.8781 219.8875 273.40936Q219.18437 273.9406 218.10625 273.9406Q216.74687 273.9406 215.93437 273.09686Q215.1375 272.2531 215.1375 270.7375Q215.1375 269.175 215.95 268.3156Q216.7625 267.4406 218.04375 267.4406Q219.29375 267.4406 220.075 268.28436Q220.87187 269.1281 220.87187 270.675Q220.87187 270.76874 220.87187 270.95624L216.23125 270.95624Q216.29375 271.9875 216.80937 272.53436Q217.325 273.0656 218.10625 273.0656Q218.68437 273.0656 219.09062 272.76874Q219.5125 272.45624 219.74687 271.8ZM216.29375 270.09686L219.7625 270.09686Q219.7 269.3 219.37187 268.90936Q218.85625 268.3 218.05937 268.3Q217.325 268.3 216.825 268.78436Q216.34062 269.26874 216.29375 270.09686ZM225.075 271.9406L226.10625 271.78436Q226.2 272.40936 226.59062 272.7375Q226.99687 273.0656 227.73125 273.0656Q228.45 273.0656 228.79375 272.78436Q229.15312 272.4875 229.15312 272.08124Q229.15312 271.72186 228.84062 271.51874Q228.62187 271.3781 227.7625 271.15936Q226.60625 270.8625 226.15312 270.65936Q225.71562 270.4406 225.48125 270.0656Q225.24687 269.6906 225.24687 269.22186Q225.24687 268.8156 225.43437 268.45624Q225.62187 268.09686 225.95 267.8625Q226.2 267.6906 226.62187 267.5656Q227.04375 267.4406 227.54375 267.4406Q228.2625 267.4406 228.80937 267.65936Q229.37187 267.8625 229.6375 268.22186Q229.90312 268.58124 229.99687 269.175L228.96562 269.3156Q228.90312 268.84686 228.55937 268.58124Q228.23125 268.3 227.60625 268.3Q226.8875 268.3 226.575 268.55Q226.2625 268.78436 226.2625 269.1125Q226.2625 269.3156 226.3875 269.47186Q226.52812 269.64374 226.79375 269.7531Q226.95 269.8156 227.73125 270.01874Q228.85625 270.33124 229.29375 270.51874Q229.73125 270.70624 229.98125 271.0656Q230.23125 271.425 230.23125 271.97186Q230.23125 272.5031 229.91875 272.97186Q229.62187 273.425 229.04375 273.6906Q228.46562 273.9406 227.73125 273.9406Q226.5125 273.9406 225.87187 273.4406Q225.24687 272.925 225.075 271.9406ZM234.79375 272.8625L234.95 273.78436Q234.49687 273.8781 234.15312 273.8781Q233.575 273.8781 233.2625 273.70624Q232.95 273.51874 232.80937 273.22186Q232.68437 272.925 232.68437 271.97186L232.68437 268.39374L231.91875 268.39374L231.91875 267.58124L232.68437 267.58124L232.68437 266.03436L233.73125 265.40936L233.73125 267.58124L234.79375 267.58124L234.79375 268.39374L233.73125 268.39374L233.73125 272.03436Q233.73125 272.4875 233.77812 272.6125Q233.84062 272.7375 233.96562 272.8156Q234.09062 272.89374 234.325 272.89374Q234.5125 272.89374 234.79375 272.8625ZM239.575 273.8L239.575 272.8781Q238.84062 273.9406 237.59062 273.9406Q237.04375 273.9406 236.55937 273.7375Q236.09062 273.51874 235.85625 273.20624Q235.62187 272.8781 235.52812 272.40936Q235.46562 272.1125 235.46562 271.425L235.46562 267.58124L236.52812 267.58124L236.52812 271.03436Q236.52812 271.84686 236.59062 272.14374Q236.68437 272.55 236.99687 272.8Q237.325 273.03436 237.80937 273.03436Q238.27812 273.03436 238.68437 272.8Q239.10625 272.55 239.27812 272.1281Q239.46562 271.70624 239.46562 270.90936L239.46562 267.58124L240.5125 267.58124L240.5125 273.8L239.575 273.8ZM246.52812 273.8L246.52812 273.01874Q245.93437 273.9406 244.79375 273.9406Q244.04375 273.9406 243.41875 273.53436Q242.79375 273.1125 242.45 272.3781Q242.10625 271.64374 242.10625 270.6906Q242.10625 269.76874 242.41875 269.0031Q242.73125 268.2375 243.35625 267.84686Q243.98125 267.4406 244.74687 267.4406Q245.30937 267.4406 245.74687 267.675Q246.18437 267.90936 246.46562 268.28436L246.46562 265.20624L247.5125 265.20624L247.5125 273.8L246.52812 273.8ZM243.2 270.6906Q243.2 271.89374 243.7 272.4875Q244.2 273.0656 244.8875 273.0656Q245.575 273.0656 246.05937 272.5031Q246.54375 271.9406 246.54375 270.78436Q246.54375 269.5031 246.04375 268.90936Q245.55937 268.3156 244.84062 268.3156Q244.1375 268.3156 243.66875 268.89374Q243.2 269.45624 243.2 270.6906ZM249.49687 266.425L249.49687 265.20624L250.55937 265.20624L250.55937 266.425L249.49687 266.425ZM249.49687 273.8L249.49687 267.58124L250.55937 267.58124L250.55937 273.8L249.49687 273.8ZM252.10625 270.6906Q252.10625 268.95624 253.05937 268.1281Q253.85625 267.4406 255.0125 267.4406Q256.29376 267.4406 257.10626 268.28436Q257.9344 269.1125 257.9344 270.59686Q257.9344 271.8 257.575 272.4875Q257.21564 273.175 256.5125 273.5656Q255.825 273.9406 255.0125 273.9406Q253.71562 273.9406 252.90312 273.1125Q252.10625 272.26874 252.10625 270.6906ZM253.18437 270.6906Q253.18437 271.8781 253.7 272.47186Q254.23125 273.0656 255.0125 273.0656Q255.80937 273.0656 256.325 272.47186Q256.84064 271.8781 256.84064 270.65936Q256.84064 269.5031 256.3094 268.90936Q255.79375 268.3156 255.0125 268.3156Q254.23125 268.3156 253.7 268.90936Q253.18437 269.4875 253.18437 270.6906Z" fill-rule="nonzero"/><path fill="#ff6d01" d="M286.7 269.8C286.7 273.1137 284.0137 275.8 280.7 275.8C277.3863 275.8 274.7 273.1137 274.7 269.8C274.7 266.4863 277.3863 263.8 280.7 263.8C284.0137 263.8 286.7 266.4863 286.7 269.8Z" fill-rule="nonzero"/><path fill="#1a1a1a" d="M295.6219 273.8L295.6219 265.20624L298.59064 265.20624Q299.59064 265.20624 300.1219 265.33124Q300.85626 265.5031 301.3719 265.9406Q302.0594 266.51874 302.3875 267.425Q302.73126 268.3156 302.73126 269.45624Q302.73126 270.4406 302.4969 271.1906Q302.27814 271.9406 301.91876 272.4406Q301.5594 272.9406 301.1219 273.22186Q300.7 273.5031 300.10626 273.65936Q299.5125 273.8 298.73126 273.8L295.6219 273.8ZM296.7625 272.78436L298.59064 272.78436Q299.45 272.78436 299.9344 272.6281Q300.41876 272.47186 300.7 272.175Q301.10626 271.78436 301.325 271.09686Q301.5594 270.40936 301.5594 269.4406Q301.5594 268.09686 301.10626 267.3781Q300.66876 266.64374 300.04376 266.39374Q299.575 266.22186 298.575 266.22186L296.7625 266.22186L296.7625 272.78436ZM304.10626 270.6906Q304.10626 268.95624 305.0594 268.1281Q305.85626 267.4406 307.0125 267.4406Q308.29376 267.4406 309.10626 268.28436Q309.9344 269.1125 309.9344 270.59686Q309.9344 271.8 309.575 272.4875Q309.21564 273.175 308.5125 273.5656Q307.825 273.9406 307.0125 273.9406Q305.71564 273.9406 304.90314 273.1125Q304.10626 272.26874 304.10626 270.6906ZM305.1844 270.6906Q305.1844 271.8781 305.7 272.47186Q306.23126 273.0656 307.0125 273.0656Q307.8094 273.0656 308.325 272.47186Q308.84064 271.8781 308.84064 270.65936Q308.84064 269.5031 308.3094 268.90936Q307.79376 268.3156 307.0125 268.3156Q306.23126 268.3156 305.7 268.90936Q305.1844 269.4875 305.1844 270.6906ZM315.5594 271.51874L316.59064 271.65936Q316.41876 272.72186 315.71564 273.33124Q315.0125 273.9406 313.9969 273.9406Q312.71564 273.9406 311.9344 273.1125Q311.16876 272.26874 311.16876 270.70624Q311.16876 269.70624 311.4969 268.95624Q311.84064 268.1906 312.5125 267.8156Q313.2 267.4406 314.0125 267.4406Q315.0125 267.4406 315.65314 267.95624Q316.3094 268.45624 316.4969 269.40936L315.46564 269.5656Q315.325 268.9406 314.95 268.6281Q314.575 268.3 314.04376 268.3Q313.2469 268.3 312.7469 268.8781Q312.2469 269.4406 312.2469 270.675Q312.2469 271.9406 312.73126 272.5031Q313.21564 273.0656 313.98126 273.0656Q314.60626 273.0656 315.0125 272.6906Q315.4344 272.3156 315.5594 271.51874ZM321.575 273.8L321.575 272.8781Q320.84064 273.9406 319.59064 273.9406Q319.04376 273.9406 318.5594 273.7375Q318.09064 273.51874 317.85626 273.20624Q317.6219 272.8781 317.52814 272.40936Q317.46564 272.1125 317.46564 271.425L317.46564 267.58124L318.52814 267.58124L318.52814 271.03436Q318.52814 271.84686 318.59064 272.14374Q318.6844 272.55 318.9969 272.8Q319.325 273.03436 319.8094 273.03436Q320.27814 273.03436 320.6844 272.8Q321.10626 272.55 321.27814 272.1281Q321.46564 271.70624 321.46564 270.90936L321.46564 267.58124L322.5125 267.58124L322.5125 273.8L321.575 273.8ZM324.4969 273.8L324.4969 267.58124L325.4344 267.58124L325.4344 268.45624Q325.73126 267.9875 326.21564 267.72186Q326.7 267.4406 327.325 267.4406Q328.0125 267.4406 328.45 267.72186Q328.90314 268.0031 329.075 268.51874Q329.825 267.4406 330.9969 267.4406Q331.9344 267.4406 332.41876 267.95624Q332.91876 268.45624 332.91876 269.53436L332.91876 273.8L331.8719 273.8L331.8719 269.8781Q331.8719 269.2531 331.7625 268.97186Q331.66876 268.6906 331.40314 268.51874Q331.1375 268.34686 330.7625 268.34686Q330.10626 268.34686 329.66876 268.78436Q329.2469 269.22186 329.2469 270.1906L329.2469 273.8L328.1844 273.8L328.1844 269.7531Q328.1844 269.05 327.91876 268.70624Q327.66876 268.34686 327.09064 268.34686Q326.6375 268.34686 326.2625 268.58124Q325.8875 268.8156 325.71564 269.26874Q325.54376 269.72186 325.54376 270.5656L325.54376 273.8L324.4969 273.8ZM339.7469 271.8L340.84064 271.925Q340.59064 272.8781 339.8875 273.40936Q339.1844 273.9406 338.10626 273.9406Q336.7469 273.9406 335.9344 273.09686Q335.1375 272.2531 335.1375 270.7375Q335.1375 269.175 335.95 268.3156Q336.7625 267.4406 338.04376 267.4406Q339.29376 267.4406 340.075 268.28436Q340.8719 269.1281 340.8719 270.675Q340.8719 270.76874 340.8719 270.95624L336.23126 270.95624Q336.29376 271.9875 336.8094 272.53436Q337.325 273.0656 338.10626 273.0656Q338.6844 273.0656 339.09064 272.76874Q339.5125 272.45624 339.7469 271.8ZM336.29376 270.09686L339.7625 270.09686Q339.7 269.3 339.3719 268.90936Q338.85626 268.3 338.0594 268.3Q337.325 268.3 336.825 268.78436Q336.34064 269.26874 336.29376 270.09686ZM342.4969 273.8L342.4969 267.58124L343.4344 267.58124L343.4344 268.45624Q344.1219 267.4406 345.41876 267.4406Q345.98126 267.4406 346.45 267.64374Q346.9344 267.84686 347.16876 268.175Q347.40314 268.5031 347.4969 268.9406Q347.54376 269.2375 347.54376 269.97186L347.54376 273.8L346.4969 273.8L346.4969 270.01874Q346.4969 269.3625 346.3719 269.05Q346.2469 268.7375 345.9344 268.55Q345.6219 268.34686 345.2 268.34686Q344.52814 268.34686 344.02814 268.78436Q343.54376 269.20624 343.54376 270.39374L343.54376 273.8L342.4969 273.8ZM351.79376 272.8625L351.95 273.78436Q351.4969 273.8781 351.15314 273.8781Q350.575 273.8781 350.2625 273.70624Q349.95 273.51874 349.8094 273.22186Q349.6844 272.925 349.6844 271.97186L349.6844 268.39374L348.91876 268.39374L348.91876 267.58124L349.6844 267.58124L349.6844 266.03436L350.73126 265.40936L350.73126 267.58124L351.79376 267.58124L351.79376 268.39374L350.73126 268.39374L350.73126 272.03436Q350.73126 272.4875 350.77814 272.6125Q350.84064 272.7375 350.96564 272.8156Q351.09064 272.89374 351.325 272.89374Q351.5125 272.89374 351.79376 272.8625ZM356.5594 273.03436Q355.96564 273.53436 355.41876 273.7375Q354.8875 273.9406 354.2625 273.9406Q353.23126 273.9406 352.6844 273.4406Q352.1375 272.9406 352.1375 272.15936Q352.1375 271.70624 352.34064 271.33124Q352.54376 270.9406 352.8875 270.72186Q353.23126 270.4875 353.65314 270.3781Q353.95 270.28436 354.59064 270.20624Q355.85626 270.0656 356.46564 269.84686Q356.46564 269.6281 356.46564 269.58124Q356.46564 268.925 356.16876 268.65936Q355.7625 268.3156 354.96564 268.3156Q354.23126 268.3156 353.8719 268.58124Q353.5125 268.83124 353.34064 269.4875L352.3094 269.34686Q352.45 268.6906 352.77814 268.28436Q353.10626 267.8781 353.71564 267.65936Q354.325 267.4406 355.1219 267.4406Q355.91876 267.4406 356.41876 267.6281Q356.91876 267.8156 357.15314 268.09686Q357.3875 268.3781 357.48126 268.8156Q357.52814 269.08124 357.52814 269.78436L357.52814 271.1906Q357.52814 272.65936 357.59064 273.05Q357.66876 273.4406 357.8719 273.8L356.7625 273.8Q356.60626 273.47186 356.5594 273.03436ZM356.46564 270.675Q355.8875 270.90936 354.7469 271.08124Q354.09064 271.175 353.825 271.3Q353.5594 271.40936 353.40314 271.6281Q353.2625 271.84686 353.2625 272.1281Q353.2625 272.55 353.575 272.83124Q353.90314 273.1125 354.5125 273.1125Q355.1219 273.1125 355.59064 272.84686Q356.075 272.58124 356.29376 272.1125Q356.46564 271.7531 356.46564 271.0656L356.46564 270.675ZM358.9344 273.8L358.9344 272.9406L362.90314 268.39374Q362.21564 268.425 361.7 268.425L359.16876 268.425L359.16876 267.58124L364.2625 267.58124L364.2625 268.26874L360.8875 272.22186L360.23126 272.9406Q360.95 272.89374 361.5594 272.89374L364.45 272.89374L364.45 273.8L358.9344 273.8ZM364.4969 266.425L364.4969 265.20624L365.5594 265.20624L365.5594 266.425L364.4969 266.425ZM364.4969 273.8L364.4969 267.58124L365.5594 267.58124L365.5594 273.8L364.4969 273.8ZM367.10626 270.6906Q367.10626 268.95624 368.0594 268.1281Q368.85626 267.4406 370.0125 267.4406Q371.29376 267.4406 372.10626 268.28436Q372.9344 269.1125 372.9344 270.59686Q372.9344 271.8 372.575 272.4875Q372.21564 273.175 371.5125 273.5656Q370.825 273.9406 370.0125 273.9406Q368.71564 273.9406 367.90314 273.1125Q367.10626 272.26874 367.10626 270.6906ZM368.1844 270.6906Q368.1844 271.8781 368.7 272.47186Q369.23126 273.0656 370.0125 273.0656Q370.8094 273.0656 371.325 272.47186Q371.84064 271.8781 371.84064 270.65936Q371.84064 269.5031 371.3094 268.90936Q370.79376 268.3156 370.0125 268.3156Q369.23126 268.3156 368.7 268.90936Q368.1844 269.4875 368.1844 270.6906ZM374.4969 273.8L374.4969 267.58124L375.4344 267.58124L375.4344 268.45624Q376.1219 267.4406 377.41876 267.4406Q377.98126 267.4406 378.45 267.64374Q378.9344 267.84686 379.16876 268.175Q379.40314 268.5031 379.4969 268.9406Q379.54376 269.2375 379.54376 269.97186L379.54376 273.8L378.4969 273.8L378.4969 270.01874Q378.4969 269.3625 378.3719 269.05Q378.2469 268.7375 377.9344 268.55Q377.6219 268.34686 377.2 268.34686Q376.52814 268.34686 376.02814 268.78436Q375.54376 269.20624 375.54376 270.39374L375.54376 273.8L374.4969 273.8ZM385.7469 271.8L386.84064 271.925Q386.59064 272.8781 385.8875 273.40936Q385.1844 273.9406 384.10626 273.9406Q382.7469 273.9406 381.9344 273.09686Q381.1375 272.2531 381.1375 270.7375Q381.1375 269.175 381.95 268.3156Q382.7625 267.4406 384.04376 267.4406Q385.29376 267.4406 386.075 268.28436Q386.8719 269.1281 386.8719 270.675Q386.8719 270.76874 386.8719 270.95624L382.23126 270.95624Q382.29376 271.9875 382.8094 272.53436Q383.325 273.0656 384.10626 273.0656Q384.6844 273.0656 385.09064 272.76874Q385.5125 272.45624 385.7469 271.8ZM382.29376 270.09686L385.7625 270.09686Q385.7 269.3 385.3719 268.90936Q384.85626 268.3 384.0594 268.3Q383.325 268.3 382.825 268.78436Q382.34064 269.26874 382.29376 270.09686Z" fill-rule="nonzero"/><path fill="#757575" d="M16.746876 34.2L16.746876 19.8875L22.1375 19.8875Q23.575 19.8875 24.325 20.0125Q25.371876 20.2 26.090626 20.7Q26.809376 21.184376 27.23125 22.075Q27.66875 22.965626 27.66875 24.028126Q27.66875 25.85625 26.496876 27.121876Q25.340626 28.371876 22.309376 28.371876L18.6375 28.371876L18.6375 34.2L16.746876 34.2ZM18.6375 26.684376L22.340626 26.684376Q24.16875 26.684376 24.934376 26.0125Q25.715626 25.325 25.715626 24.075Q25.715626 23.184376 25.2625 22.54375Q24.809376 21.903126 24.075 21.7Q23.590626 21.575 22.29375 21.575L18.6375 21.575L18.6375 26.684376ZM36.621876 30.85625L38.434376 31.090626Q38.0125 32.66875 36.840626 33.559376Q35.684376 34.434376 33.871876 34.434376Q31.60625 34.434376 30.2625 33.04375Q28.934376 31.6375 28.934376 29.10625Q28.934376 26.48125 30.278126 25.04375Q31.621876 23.590626 33.778126 23.590626Q35.85625 23.590626 37.16875 25.0125Q38.496876 26.41875 38.496876 28.996876Q38.496876 29.153126 38.48125 29.465626L30.746876 29.465626Q30.840626 31.16875 31.715626 32.075Q32.590626 32.98125 33.8875 32.98125Q34.85625 32.98125 35.528126 32.48125Q36.215626 31.965626 36.621876 30.85625ZM30.840626 28.0125L36.6375 28.0125Q36.528126 26.715626 35.98125 26.059376Q35.1375 25.04375 33.79375 25.04375Q32.590626 25.04375 31.7625 25.85625Q30.934376 26.653126 30.840626 28.0125ZM40.496876 34.2L40.496876 23.825L42.075 23.825L42.075 25.403126Q42.684376 24.29375 43.2 23.95Q43.715626 23.590626 44.325 23.590626Q45.215626 23.590626 46.1375 24.153126L45.528126 25.79375Q44.8875 25.403126 44.246876 25.403126Q43.66875 25.403126 43.2 25.7625Q42.746876 26.10625 42.54375 26.715626Q42.2625 27.653126 42.2625 28.7625L42.2625 34.2L40.496876 34.2ZM54.29375 30.403126L56.0125 30.621876Q55.73125 32.41875 54.559376 33.434376Q53.403126 34.434376 51.7 34.434376Q49.575 34.434376 48.278126 33.04375Q46.98125 31.653126 46.98125 29.059376Q46.98125 27.371876 47.528126 26.121876Q48.090626 24.85625 49.23125 24.23125Q50.371876 23.590626 51.715626 23.590626Q53.403126 23.590626 54.465626 24.45Q55.54375 25.309376 55.85625 26.871876L54.1375 27.1375Q53.903126 26.090626 53.278126 25.575Q52.653126 25.04375 51.778126 25.04375Q50.45 25.04375 49.621876 25.996876Q48.79375 26.95 48.79375 28.996876Q48.79375 31.090626 49.590626 32.04375Q50.3875 32.98125 51.684376 32.98125Q52.715626 32.98125 53.403126 32.35625Q54.10625 31.715626 54.29375 30.403126ZM57.5125 34.2L57.5125 19.8875L59.278126 19.8875L59.278126 25.0125Q60.5125 23.590626 62.3875 23.590626Q63.528126 23.590626 64.37187 24.04375Q65.23125 24.496876 65.59062 25.309376Q65.96562 26.10625 65.96562 27.621876L65.96562 34.2L64.21562 34.2L64.21562 27.621876Q64.21562 26.309376 63.6375 25.715626Q63.059376 25.10625 62.028126 25.10625Q61.246876 25.10625 60.54375 25.5125Q59.85625 25.91875 59.559376 26.621876Q59.278126 27.309376 59.278126 28.528126L59.278126 34.2L57.5125 34.2ZM74.62187 30.85625L76.43437 31.090626Q76.0125 32.66875 74.84062 33.559376Q73.68437 34.434376 71.87187 34.434376Q69.60625 34.434376 68.2625 33.04375Q66.93437 31.6375 66.93437 29.10625Q66.93437 26.48125 68.27812 25.04375Q69.62187 23.590626 71.77812 23.590626Q73.85625 23.590626 75.16875 25.0125Q76.49687 26.41875 76.49687 28.996876Q76.49687 29.153126 76.48125 29.465626L68.74687 29.465626Q68.84062 31.16875 69.71562 32.075Q70.59062 32.98125 71.8875 32.98125Q72.85625 32.98125 73.52812 32.48125Q74.21562 31.965626 74.62187 30.85625ZM68.84062 28.0125L74.6375 28.0125Q74.52812 26.715626 73.98125 26.059376Q73.1375 25.04375 71.79375 25.04375Q70.59062 25.04375 69.7625 25.85625Q68.93437 26.653126 68.84062 28.0125ZM70.74687 22.54375L72.04375 19.809376L74.34062 19.809376L72.2 22.54375L70.74687 22.54375ZM84.5125 34.2L84.5125 19.8875L86.27812 19.8875L86.27812 25.0125Q87.5125 23.590626 89.3875 23.590626Q90.52812 23.590626 91.37187 24.04375Q92.23125 24.496876 92.59062 25.309376Q92.96562 26.10625 92.96562 27.621876L92.96562 34.2L91.21562 34.2L91.21562 27.621876Q91.21562 26.309376 90.6375 25.715626Q90.05937 25.10625 89.02812 25.10625Q88.24687 25.10625 87.54375 25.5125Q86.85625 25.91875 86.55937 26.621876Q86.27812 27.309376 86.27812 28.528126L86.27812 34.2L84.5125 34.2ZM101.29375 32.91875Q100.30937 33.746876 99.40312 34.090626Q98.49687 34.434376 97.46562 34.434376Q95.7625 34.434376 94.84062 33.60625Q93.91875 32.7625 93.91875 31.465626Q93.91875 30.7 94.2625 30.075Q94.62187 29.45 95.18437 29.075Q95.74687 28.684376 96.45 28.48125Q96.96562 28.35625 98.0125 28.215626Q100.1375 27.965626 101.1375 27.621876Q101.15312 27.2625 101.15312 27.153126Q101.15312 26.090626 100.65312 25.6375Q99.98125 25.04375 98.65312 25.04375Q97.40312 25.04375 96.80937 25.48125Q96.23125 25.91875 95.95 27.028126L94.23125 26.79375Q94.46562 25.684376 94.99687 25.0125Q95.52812 24.325 96.54375 23.965626Q97.55937 23.590626 98.90312 23.590626Q100.23125 23.590626 101.05937 23.903126Q101.8875 24.215626 102.27812 24.7Q102.66875 25.16875 102.825 25.8875Q102.91875 26.340626 102.91875 27.5125L102.91875 29.85625Q102.91875 32.309376 103.02812 32.965626Q103.1375 33.60625 103.48125 34.2L101.6375 34.2Q101.37187 33.653126 101.29375 32.91875ZM101.1375 28.996876Q100.18437 29.3875 98.2625 29.653126Q97.18437 29.809376 96.73125 30.0125Q96.29375 30.2 96.04375 30.575Q95.79375 30.95 95.79375 31.41875Q95.79375 32.121876 96.325 32.590626Q96.85625 33.059376 97.8875 33.059376Q98.90312 33.059376 99.68437 32.621876Q100.48125 32.16875 100.85625 31.403126Q101.1375 30.79375 101.1375 29.6375L101.1375 28.996876ZM118.30937 34.2L118.30937 32.66875Q117.10625 34.434376 115.02812 34.434376Q114.10625 34.434376 113.30937 34.090626Q112.5125 33.73125 112.12187 33.2Q111.74687 32.66875 111.59062 31.8875Q111.48125 31.371876 111.48125 30.246876L111.48125 23.825L113.23125 23.825L113.23125 29.575Q113.23125 30.95 113.34062 31.434376Q113.5125 32.121876 114.04375 32.528126Q114.59062 32.91875 115.37187 32.91875Q116.16875 32.91875 116.85625 32.5125Q117.55937 32.10625 117.84062 31.41875Q118.1375 30.715626 118.1375 29.3875L118.1375 23.825L119.8875 23.825L119.8875 34.2L118.30937 34.2ZM120.80937 31.10625L122.55937 30.825Q122.7 31.871876 123.37187 32.434376Q124.04375 32.98125 125.24687 32.98125Q126.45 32.98125 127.02812 32.496876Q127.62187 31.996876 127.62187 31.340626Q127.62187 30.746876 127.10625 30.403126Q126.74687 30.16875 125.30937 29.809376Q123.37187 29.309376 122.62187 28.965626Q121.8875 28.60625 121.49687 27.98125Q121.10625 27.340626 121.10625 26.575Q121.10625 25.8875 121.41875 25.29375Q121.74687 24.7 122.29375 24.309376Q122.7 24.0125 123.40312 23.809376Q124.12187 23.590626 124.93437 23.590626Q126.15312 23.590626 127.075 23.95Q127.99687 24.29375 128.43437 24.903126Q128.87187 25.496876 129.04375 26.496876L127.325 26.73125Q127.2 25.934376 126.6375 25.496876Q126.075 25.04375 125.05937 25.04375Q123.84062 25.04375 123.325 25.45Q122.80937 25.840626 122.80937 26.371876Q122.80937 26.715626 123.02812 26.996876Q123.23125 27.278126 123.7 27.465626Q123.96562 27.559376 125.24687 27.903126Q127.12187 28.403126 127.85625 28.73125Q128.59062 29.04375 129.0125 29.653126Q129.43437 30.246876 129.43437 31.153126Q129.43437 32.028126 128.91875 32.809376Q128.40312 33.590626 127.43437 34.0125Q126.46562 34.434376 125.24687 34.434376Q123.23125 34.434376 122.16875 33.590626Q121.10625 32.746876 120.80937 31.10625ZM138.30937 34.2L138.30937 32.66875Q137.10625 34.434376 135.02812 34.434376Q134.10625 34.434376 133.30937 34.090626Q132.5125 33.73125 132.12187 33.2Q131.74687 32.66875 131.59062 31.8875Q131.48125 31.371876 131.48125 30.246876L131.48125 23.825L133.23125 23.825L133.23125 29.575Q133.23125 30.95 133.34062 31.434376Q133.5125 32.121876 134.04375 32.528126Q134.59062 32.91875 135.37187 32.91875Q136.16875 32.91875 136.85625 32.5125Q137.55937 32.10625 137.84062 31.41875Q138.1375 30.715626 138.1375 29.3875L138.1375 23.825L139.8875 23.825L139.8875 34.2L138.30937 34.2ZM141.93437 34.2L141.93437 25.2L140.3875 25.2L140.3875 23.825L141.93437 23.825L141.93437 22.73125Q141.93437 21.684376 142.12187 21.16875Q142.37187 20.48125 143.0125 20.059376Q143.65312 19.6375 144.80937 19.6375Q145.55937 19.6375 146.45 19.809376L146.18437 21.340626Q145.6375 21.246876 145.15312 21.246876Q144.35625 21.246876 144.0125 21.590626Q143.68437 21.934376 143.68437 22.871876L143.68437 23.825L145.71562 23.825L145.71562 25.2L143.68437 25.2L143.68437 34.2L141.93437 34.2ZM147.49687 34.2L147.49687 23.825L149.075 23.825L149.075 25.403126Q149.68437 24.29375 150.2 23.95Q150.71562 23.590626 151.325 23.590626Q152.21562 23.590626 153.1375 24.153126L152.52812 25.79375Q151.8875 25.403126 151.24687 25.403126Q150.66875 25.403126 150.2 25.7625Q149.74687 26.10625 149.54375 26.715626Q149.2625 27.653126 149.2625 28.7625L149.2625 34.2L147.49687 34.2ZM161.30937 34.2L161.30937 32.66875Q160.10625 34.434376 158.02812 34.434376Q157.10625 34.434376 156.30937 34.090626Q155.5125 33.73125 155.12187 33.2Q154.74687 32.66875 154.59062 31.8875Q154.48125 31.371876 154.48125 30.246876L154.48125 23.825L156.23125 23.825L156.23125 29.575Q156.23125 30.95 156.34062 31.434376Q156.5125 32.121876 157.04375 32.528126Q157.59062 32.91875 158.37187 32.91875Q159.16875 32.91875 159.85625 32.5125Q160.55937 32.10625 160.84062 31.41875Q161.1375 30.715626 161.1375 29.3875L161.1375 23.825L162.8875 23.825L162.8875 34.2L161.30937 34.2ZM164.52812 21.903126L164.52812 19.8875L166.29375 19.8875L166.29375 21.903126L164.52812 21.903126ZM164.52812 34.2L164.52812 23.825L166.29375 23.825L166.29375 34.2L164.52812 34.2ZM172.35625 32.621876L172.60625 34.184376Q171.87187 34.340626 171.27812 34.340626Q170.325 34.340626 169.79375 34.04375Q169.27812 33.73125 169.05937 33.246876Q168.84062 32.746876 168.84062 31.16875L168.84062 25.2L167.55937 25.2L167.55937 23.825L168.84062 23.825L168.84062 21.2625L170.59062 20.2L170.59062 23.825L172.35625 23.825L172.35625 25.2L170.59062 25.2L170.59062 31.2625Q170.59062 32.0125 170.68437 32.23125Q170.77812 32.434376 170.98125 32.575Q171.2 32.7 171.59062 32.7Q171.87187 32.7 172.35625 32.621876ZM173.87187 29.0125Q173.87187 26.1375 175.46562 24.746876Q176.80937 23.590626 178.73125 23.590626Q180.87187 23.590626 182.21562 24.996876Q183.575 26.403126 183.575 28.871876Q183.575 30.871876 182.98125 32.028126Q182.3875 33.16875 181.23125 33.809376Q180.09062 34.434376 178.73125 34.434376Q176.54375 34.434376 175.2 33.04375Q173.87187 31.6375 173.87187 29.0125ZM175.66875 29.0125Q175.66875 31.0125 176.52812 31.996876Q177.40312 32.98125 178.73125 32.98125Q180.04375 32.98125 180.90312 31.996876Q181.77812 30.996876 181.77812 28.95Q181.77812 27.028126 180.90312 26.04375Q180.02812 25.04375 178.73125 25.04375Q177.40312 25.04375 176.52812 26.04375Q175.66875 27.028126 175.66875 29.0125ZM198.24687 34.2L198.24687 32.8875Q197.2625 34.434376 195.34062 34.434376Q194.10625 34.434376 193.05937 33.746876Q192.02812 33.059376 191.45 31.840626Q190.8875 30.621876 190.8875 29.028126Q190.8875 27.465626 191.40312 26.2Q191.91875 24.934376 192.95 24.2625Q193.99687 23.590626 195.2625 23.590626Q196.2 23.590626 196.93437 23.996876Q197.66875 24.3875 198.1375 25.0125L198.1375 19.8875L199.87187 19.8875L199.87187 34.2L198.24687 34.2ZM192.68437 29.028126Q192.68437 31.0125 193.52812 31.996876Q194.37187 32.98125 195.5125 32.98125Q196.66875 32.98125 197.46562 32.04375Q198.27812 31.10625 198.27812 29.16875Q198.27812 27.04375 197.45 26.04375Q196.6375 25.04375 195.43437 25.04375Q194.2625 25.04375 193.46562 26.0125Q192.68437 26.965626 192.68437 29.028126ZM209.62187 30.85625L211.43437 31.090626Q211.0125 32.66875 209.84062 33.559376Q208.68437 34.434376 206.87187 34.434376Q204.60625 34.434376 203.2625 33.04375Q201.93437 31.6375 201.93437 29.10625Q201.93437 26.48125 203.27812 25.04375Q204.62187 23.590626 206.77812 23.590626Q208.85625 23.590626 210.16875 25.0125Q211.49687 26.41875 211.49687 28.996876Q211.49687 29.153126 211.48125 29.465626L203.74687 29.465626Q203.84062 31.16875 204.71562 32.075Q205.59062 32.98125 206.8875 32.98125Q207.85625 32.98125 208.52812 32.48125Q209.21562 31.965626 209.62187 30.85625ZM203.84062 28.0125L209.6375 28.0125Q209.52812 26.715626 208.98125 26.059376Q208.1375 25.04375 206.79375 25.04375Q205.59062 25.04375 204.7625 25.85625Q203.93437 26.653126 203.84062 28.0125ZM213.48125 34.2L213.48125 19.8875L215.23125 19.8875L215.23125 34.2L213.48125 34.2ZM223.74687 34.2L223.74687 19.8875L228.66875 19.8875Q230.34062 19.8875 231.23125 20.090626Q232.45 20.371876 233.325 21.10625Q234.45 22.075 235.0125 23.559376Q235.575 25.04375 235.575 26.965626Q235.575 28.590626 235.2 29.85625Q234.825 31.10625 234.21562 31.934376Q233.62187 32.7625 232.91875 33.246876Q232.21562 33.715626 231.21562 33.965626Q230.21562 34.2 228.90312 34.2L223.74687 34.2ZM225.6375 32.5125L228.7 32.5125Q230.10625 32.5125 230.90312 32.246876Q231.71562 31.98125 232.2 31.496876Q232.87187 30.825 233.24687 29.7Q233.62187 28.559376 233.62187 26.934376Q233.62187 24.684376 232.8875 23.48125Q232.15312 22.278126 231.09062 21.871876Q230.34062 21.575 228.65312 21.575L225.6375 21.575L225.6375 32.5125ZM237.52812 21.903126L237.52812 19.8875L239.29375 19.8875L239.29375 21.903126L237.52812 21.903126ZM237.52812 34.2L237.52812 23.825L239.29375 23.825L239.29375 34.2L237.52812 34.2ZM248.29375 32.91875Q247.30937 33.746876 246.40312 34.090626Q245.49687 34.434376 244.46562 34.434376Q242.7625 34.434376 241.84062 33.60625Q240.91875 32.7625 240.91875 31.465626Q240.91875 30.7 241.2625 30.075Q241.62187 29.45 242.18437 29.075Q242.74687 28.684376 243.45 28.48125Q243.96562 28.35625 245.0125 28.215626Q247.1375 27.965626 248.1375 27.621876Q248.15312 27.2625 248.15312 27.153126Q248.15312 26.090626 247.65312 25.6375Q246.98125 25.04375 245.65312 25.04375Q244.40312 25.04375 243.80937 25.48125Q243.23125 25.91875 242.95 27.028126L241.23125 26.79375Q241.46562 25.684376 241.99687 25.0125Q242.52812 24.325 243.54375 23.965626Q244.55937 23.590626 245.90312 23.590626Q247.23125 23.590626 248.05937 23.903126Q248.8875 24.215626 249.27812 24.7Q249.66875 25.16875 249.825 25.8875Q249.91875 26.340626 249.91875 27.5125L249.91875 29.85625Q249.91875 32.309376 250.02812 32.965626Q250.1375 33.60625 250.48125 34.2L248.6375 34.2Q248.37187 33.653126 248.29375 32.91875ZM248.1375 28.996876Q247.18437 29.3875 245.2625 29.653126Q244.18437 29.809376 243.73125 30.0125Q243.29375 30.2 243.04375 30.575Q242.79375 30.95 242.79375 31.41875Q242.79375 32.121876 243.325 32.590626Q243.85625 33.059376 244.8875 33.059376Q245.90312 33.059376 246.68437 32.621876Q247.48125 32.16875 247.85625 31.403126Q248.1375 30.79375 248.1375 29.6375L248.1375 28.996876ZM252.49687 34.2L252.49687 23.825L254.075 23.825L254.075 25.403126Q254.68437 24.29375 255.2 23.95Q255.71562 23.590626 256.325 23.590626Q257.21564 23.590626 258.1375 24.153126L257.52814 25.79375Q256.8875 25.403126 256.2469 25.403126Q255.66875 25.403126 255.2 25.7625Q254.74687 26.10625 254.54375 26.715626Q254.2625 27.653126 254.2625 28.7625L254.2625 34.2L252.49687 34.2ZM259.52814 21.903126L259.52814 19.8875L261.29376 19.8875L261.29376 21.903126L259.52814 21.903126ZM259.52814 34.2L259.52814 23.825L261.29376 23.825L261.29376 34.2L259.52814 34.2ZM262.8719 29.0125Q262.8719 26.1375 264.46564 24.746876Q265.8094 23.590626 267.73126 23.590626Q269.8719 23.590626 271.21564 24.996876Q272.575 26.403126 272.575 28.871876Q272.575 30.871876 271.98126 32.028126Q271.3875 33.16875 270.23126 33.809376Q269.09064 34.434376 267.73126 34.434376Q265.54376 34.434376 264.2 33.04375Q262.8719 31.6375 262.8719 29.0125ZM264.66876 29.0125Q264.66876 31.0125 265.52814 31.996876Q266.40314 32.98125 267.73126 32.98125Q269.04376 32.98125 269.90314 31.996876Q270.77814 30.996876 270.77814 28.95Q270.77814 27.028126 269.90314 26.04375Q269.02814 25.04375 267.73126 25.04375Q266.40314 25.04375 265.52814 26.04375Q264.66876 27.028126 264.66876 29.0125ZM287.2469 34.2L287.2469 32.8875Q286.2625 34.434376 284.34064 34.434376Q283.10626 34.434376 282.0594 33.746876Q281.02814 33.059376 280.45 31.840626Q279.8875 30.621876 279.8875 29.028126Q279.8875 27.465626 280.40314 26.2Q280.91876 24.934376 281.95 24.2625Q282.9969 23.590626 284.2625 23.590626Q285.2 23.590626 285.9344 23.996876Q286.66876 24.3875 287.1375 25.0125L287.1375 19.8875L288.8719 19.8875L288.8719 34.2L287.2469 34.2ZM281.6844 29.028126Q281.6844 31.0125 282.52814 31.996876Q283.3719 32.98125 284.5125 32.98125Q285.66876 32.98125 286.46564 32.04375Q287.27814 31.10625 287.27814 29.16875Q287.27814 27.04375 286.45 26.04375Q285.6375 25.04375 284.4344 25.04375Q283.2625 25.04375 282.46564 26.0125Q281.6844 26.965626 281.6844 29.028126ZM298.6219 30.85625L300.4344 31.090626Q300.0125 32.66875 298.84064 33.559376Q297.6844 34.434376 295.8719 34.434376Q293.60626 34.434376 292.2625 33.04375Q290.9344 31.6375 290.9344 29.10625Q290.9344 26.48125 292.27814 25.04375Q293.6219 23.590626 295.77814 23.590626Q297.85626 23.590626 299.16876 25.0125Q300.4969 26.41875 300.4969 28.996876Q300.4969 29.153126 300.48126 29.465626L292.7469 29.465626Q292.84064 31.16875 293.71564 32.075Q294.59064 32.98125 295.8875 32.98125Q296.85626 32.98125 297.52814 32.48125Q298.21564 31.965626 298.6219 30.85625ZM292.84064 28.0125L298.6375 28.0125Q298.52814 26.715626 297.98126 26.059376Q297.1375 25.04375 295.79376 25.04375Q294.59064 25.04375 293.7625 25.85625Q292.9344 26.653126 292.84064 28.0125ZM302.48126 34.2L302.48126 19.8875L304.23126 19.8875L304.23126 34.2L302.48126 34.2ZM306.48126 34.2L306.48126 19.8875L308.23126 19.8875L308.23126 34.2L306.48126 34.2ZM317.6219 30.85625L319.4344 31.090626Q319.0125 32.66875 317.84064 33.559376Q316.6844 34.434376 314.8719 34.434376Q312.60626 34.434376 311.2625 33.04375Q309.9344 31.6375 309.9344 29.10625Q309.9344 26.48125 311.27814 25.04375Q312.6219 23.590626 314.77814 23.590626Q316.85626 23.590626 318.16876 25.0125Q319.4969 26.41875 319.4969 28.996876Q319.4969 29.153126 319.48126 29.465626L311.7469 29.465626Q311.84064 31.16875 312.71564 32.075Q313.59064 32.98125 314.8875 32.98125Q315.85626 32.98125 316.52814 32.48125Q317.21564 31.965626 317.6219 30.85625ZM311.84064 28.0125L317.6375 28.0125Q317.52814 26.715626 316.98126 26.059376Q316.1375 25.04375 314.79376 25.04375Q313.59064 25.04375 312.7625 25.85625Q311.9344 26.653126 311.84064 28.0125ZM327.66876 34.2L327.66876 19.8875L329.5594 19.8875L329.5594 32.5125L336.60626 32.5125L336.60626 34.2L327.66876 34.2ZM345.6219 30.85625L347.4344 31.090626Q347.0125 32.66875 345.84064 33.559376Q344.6844 34.434376 342.8719 34.434376Q340.60626 34.434376 339.2625 33.04375Q337.9344 31.6375 337.9344 29.10625Q337.9344 26.48125 339.27814 25.04375Q340.6219 23.590626 342.77814 23.590626Q344.85626 23.590626 346.16876 25.0125Q347.4969 26.41875 347.4969 28.996876Q347.4969 29.153126 347.48126 29.465626L339.7469 29.465626Q339.84064 31.16875 340.71564 32.075Q341.59064 32.98125 342.8875 32.98125Q343.85626 32.98125 344.52814 32.48125Q345.21564 31.965626 345.6219 30.85625ZM339.84064 28.0125L345.6375 28.0125Q345.52814 26.715626 344.98126 26.059376Q344.1375 25.04375 342.79376 25.04375Q341.59064 25.04375 340.7625 25.85625Q339.9344 26.653126 339.84064 28.0125ZM348.59064 34.2L348.59064 32.778126L355.2 25.2Q354.075 25.246876 353.21564 25.246876L348.98126 25.246876L348.98126 23.825L357.46564 23.825L357.46564 24.996876L351.84064 31.575L350.7625 32.778126Q351.9344 32.684376 352.98126 32.684376L357.77814 32.684376L357.77814 34.2L348.59064 34.2ZM358.52814 21.903126L358.52814 19.8875L360.29376 19.8875L360.29376 21.903126L358.52814 21.903126ZM358.52814 34.2L358.52814 23.825L360.29376 23.825L360.29376 34.2L358.52814 34.2ZM361.8719 29.0125Q361.8719 26.1375 363.46564 24.746876Q364.8094 23.590626 366.73126 23.590626Q368.8719 23.590626 370.21564 24.996876Q371.575 26.403126 371.575 28.871876Q371.575 30.871876 370.98126 32.028126Q370.3875 33.16875 369.23126 33.809376Q368.09064 34.434376 366.73126 34.434376Q364.54376 34.434376 363.2 33.04375Q361.8719 31.6375 361.8719 29.0125ZM363.66876 29.0125Q363.66876 31.0125 364.52814 31.996876Q365.40314 32.98125 366.73126 32.98125Q368.04376 32.98125 368.90314 31.996876Q369.77814 30.996876 369.77814 28.95Q369.77814 27.028126 368.90314 26.04375Q368.02814 25.04375 366.73126 25.04375Q365.40314 25.04375 364.52814 26.04375Q363.66876 27.028126 363.66876 29.0125ZM373.5125 34.2L373.5125 23.825L375.10626 23.825L375.10626 25.309376Q376.2469 23.590626 378.40314 23.590626Q379.34064 23.590626 380.1219 23.934376Q380.91876 24.2625 381.3094 24.809376Q381.7 25.35625 381.85626 26.10625Q381.95 26.60625 381.95 27.825L381.95 34.2L380.1844 34.2L380.1844 27.8875Q380.1844 26.809376 379.98126 26.278126Q379.77814 25.746876 379.2469 25.434376Q378.73126 25.121876 378.02814 25.121876Q376.90314 25.121876 376.09064 25.840626Q375.27814 26.54375 375.27814 28.528126L375.27814 34.2L373.5125 34.2ZM383.52814 21.903126L383.52814 19.8875L385.29376 19.8875L385.29376 21.903126L383.52814 21.903126ZM383.52814 34.2L383.52814 23.825L385.29376 23.825L385.29376 34.2L383.52814 34.2ZM390.8094 30.66875Q390.79376 30.325 390.79376 30.153126Q390.79376 29.10625 391.09064 28.35625Q391.3094 27.79375 391.79376 27.215626Q392.1375 26.79375 393.04376 25.996876Q393.96564 25.184376 394.23126 24.715626Q394.5125 24.23125 394.5125 23.66875Q394.5125 22.6375 393.7 21.871876Q392.90314 21.090626 391.7469 21.090626Q390.6219 21.090626 389.8719 21.79375Q389.1219 22.496876 388.8875 23.98125L387.075 23.7625Q387.325 21.7625 388.52814 20.7Q389.73126 19.6375 391.71564 19.6375Q393.825 19.6375 395.075 20.778126Q396.325 21.91875 396.325 23.54375Q396.325 24.48125 395.8719 25.278126Q395.4344 26.059376 394.15314 27.2Q393.29376 27.965626 393.02814 28.325Q392.77814 28.684376 392.6375 29.153126Q392.5125 29.621876 392.4969 30.66875L390.8094 30.66875ZM390.7 34.2L390.7 32.2L392.7 32.2L392.7 34.2L390.7 34.2Z" fill-rule="nonzero"/></svg>