<svg version="1.1" viewBox="0.0 0.0 666.0 314.0" fill="none" stroke="none" stroke-linecap="square" stroke-miterlimit="10" width="666" height="314" xmlns:xlink="http://www.w3.org/1999/xlink" xmlns="http://www.w3.org/2000/svg"><path fill="#ffffff" d="M0 0L666.0 0L666.0 314.0L0 314.0L0 0Z" fill-rule="nonzero"/><path stroke="#333333" stroke-width="1.0" stroke-linecap="butt" d="M63.5 236.5L650.5 236.5" fill-rule="nonzero"/><path stroke="#cccccc" stroke-width="1.0" stroke-linecap="butt" d="M63.5 205.5L650.5 205.5" fill-rule="nonzero"/><path stroke="#cccccc" stroke-width="1.0" stroke-linecap="butt" d="M63.5 174.5L650.5 174.5" fill-rule="nonzero"/><path stroke="#cccccc" stroke-width="1.0" stroke-linecap="butt" d="M63.5 143.5L650.5 143.5" fill-rule="nonzero"/><path stroke="#cccccc" stroke-width="1.0" stroke-linecap="butt" d="M63.5 112.5L650.5 112.5" fill-rule="nonzero"/><path stroke="#cccccc" stroke-width="1.0" stroke-linecap="butt" d="M63.5 81.5L650.5 81.5" fill-rule="nonzero"/><clipPath id="id_0"><path d="M63.7 81.63333L650.3 81.63333L650.3 236.38333L63.7 236.38333L63.7 81.63333Z" clip-rule="nonzero"/></clipPath><path stroke="#000000" stroke-width="2.0" stroke-linecap="butt" stroke-opacity="0.0" clip-path="url(#id_0)" d="M127.0 236.0L111.0 236.0L111.0 236.0L127.0 236.0Z" fill-rule="nonzero"/><path fill="#4285f4" clip-path="url(#id_0)" d="M127.0 236.0L111.0 236.0L111.0 236.0L127.0 236.0Z" fill-rule="nonzero"/><path stroke="#000000" stroke-width="2.0" stroke-linecap="butt" stroke-opacity="0.0" clip-path="url(#id_0)" d="M262.0 236.0L246.0 236.0L246.0 215.0C246.0 213.89543 246.89543 213.0 248.0 213.0L260.0 213.0C261.10458 213.0 262.0 213.89543 262.0 215.0Z" fill-rule="nonzero"/><path fill="#4285f4" clip-path="url(#id_0)" d="M262.0 236.0L246.0 236.0L246.0 215.0C246.0 213.89543 246.89543 213.0 248.0 213.0L260.0 213.0C261.10458 213.0 262.0 213.89543 262.0 215.0Z" fill-rule="nonzero"/><path stroke="#000000" stroke-width="2.0" stroke-linecap="butt" stroke-opacity="0.0" clip-path="url(#id_0)" d="M396.0 236.0L380.0 236.0L380.0 236.0L396.0 236.0Z" fill-rule="nonzero"/><path fill="#4285f4" clip-path="url(#id_0)" d="M396.0 236.0L380.0 236.0L380.0 236.0L396.0 236.0Z" fill-rule="nonzero"/><path stroke="#000000" stroke-width="2.0" stroke-linecap="butt" stroke-opacity="0.0" clip-path="url(#id_0)" d="M531.0 236.0L515.0 236.0L515.0 215.0C515.0 213.89543 515.89545 213.0 517.0 213.0L529.0 213.0C530.10455 213.0 531.0 213.89543 531.0 215.0Z" fill-rule="nonzero"/><path fill="#4285f4" clip-path="url(#id_0)" d="M531.0 236.0L515.0 236.0L515.0 215.0C515.0 213.89543 515.89545 213.0 517.0 213.0L529.0 213.0C530.10455 213.0 531.0 213.89543 531.0 215.0Z" fill-rule="nonzero"/><path stroke="#000000" stroke-width="2.0" stroke-linecap="butt" stroke-opacity="0.0" clip-path="url(#id_0)" d="M145.0 236.0L129.0 236.0L129.0 231.0C129.0 229.89543 129.89543 229.0 131.0 229.0L143.0 229.0C144.10457 229.0 145.0 229.89543 145.0 231.0Z" fill-rule="nonzero"/><path fill="#ea4335" clip-path="url(#id_0)" d="M145.0 236.0L129.0 236.0L129.0 231.0C129.0 229.89543 129.89543 229.0 131.0 229.0L143.0 229.0C144.10457 229.0 145.0 229.89543 145.0 231.0Z" fill-rule="nonzero"/><path stroke="#000000" stroke-width="2.0" stroke-linecap="butt" stroke-opacity="0.0" clip-path="url(#id_0)" d="M280.0 236.0L264.0 236.0L264.0 169.0C264.0 167.89543 264.89542 167.0 266.0 167.0L278.0 167.0C279.10458 167.0 280.0 167.89543 280.0 169.0Z" fill-rule="nonzero"/><path fill="#ea4335" clip-path="url(#id_0)" d="M280.0 236.0L264.0 236.0L264.0 169.0C264.0 167.89543 264.89542 167.0 266.0 167.0L278.0 167.0C279.10458 167.0 280.0 167.89543 280.0 169.0Z" fill-rule="nonzero"/><path stroke="#000000" stroke-width="2.0" stroke-linecap="butt" stroke-opacity="0.0" clip-path="url(#id_0)" d="M414.0 236.0L398.0 236.0L398.0 207.0C398.0 205.89543 398.89542 205.0 400.0 205.0L412.0 205.0C413.10458 205.0 414.0 205.89543 414.0 207.0Z" fill-rule="nonzero"/><path fill="#ea4335" clip-path="url(#id_0)" d="M414.0 236.0L398.0 236.0L398.0 207.0C398.0 205.89543 398.89542 205.0 400.0 205.0L412.0 205.0C413.10458 205.0 414.0 205.89543 414.0 207.0Z" fill-rule="nonzero"/><path stroke="#000000" stroke-width="2.0" stroke-linecap="butt" stroke-opacity="0.0" clip-path="url(#id_0)" d="M549.0 236.0L533.0 236.0L533.0 153.0C533.0 151.89543 533.89545 151.0 535.0 151.0L547.0 151.0C548.10455 151.0 549.0 151.89543 549.0 153.0Z" fill-rule="nonzero"/><path fill="#ea4335" clip-path="url(#id_0)" d="M549.0 236.0L533.0 236.0L533.0 153.0C533.0 151.89543 533.89545 151.0 535.0 151.0L547.0 151.0C548.10455 151.0 549.0 151.89543 549.0 153.0Z" fill-rule="nonzero"/><path stroke="#000000" stroke-width="2.0" stroke-linecap="butt" stroke-opacity="0.0" clip-path="url(#id_0)" d="M163.0 236.0L147.0 236.0L147.0 200.0C147.0 198.89543 147.89543 198.0 149.0 198.0L161.0 198.0C162.10457 198.0 163.0 198.89543 163.0 200.0Z" fill-rule="nonzero"/><path fill="#fbbc04" clip-path="url(#id_0)" d="M163.0 236.0L147.0 236.0L147.0 200.0C147.0 198.89543 147.89543 198.0 149.0 198.0L161.0 198.0C162.10457 198.0 163.0 198.89543 163.0 200.0Z" fill-rule="nonzero"/><path stroke="#000000" stroke-width="2.0" stroke-linecap="butt" stroke-opacity="0.0" clip-path="url(#id_0)" d="M298.0 236.0L282.0 236.0L282.0 146.0C282.0 144.89543 282.89542 144.0 284.0 144.0L296.0 144.0C297.10458 144.0 298.0 144.89543 298.0 146.0Z" fill-rule="nonzero"/><path fill="#fbbc04" clip-path="url(#id_0)" d="M298.0 236.0L282.0 236.0L282.0 146.0C282.0 144.89543 282.89542 144.0 284.0 144.0L296.0 144.0C297.10458 144.0 298.0 144.89543 298.0 146.0Z" fill-rule="nonzero"/><path stroke="#000000" stroke-width="2.0" stroke-linecap="butt" stroke-opacity="0.0" clip-path="url(#id_0)" d="M432.0 236.0L416.0 236.0L416.0 153.0C416.0 151.89543 416.89542 151.0 418.0 151.0L430.0 151.0C431.10458 151.0 432.0 151.89543 432.0 153.0Z" fill-rule="nonzero"/><path fill="#fbbc04" clip-path="url(#id_0)" d="M432.0 236.0L416.0 236.0L416.0 153.0C416.0 151.89543 416.89542 151.0 418.0 151.0L430.0 151.0C431.10458 151.0 432.0 151.89543 432.0 153.0Z" fill-rule="nonzero"/><path stroke="#000000" stroke-width="2.0" stroke-linecap="butt" stroke-opacity="0.0" clip-path="url(#id_0)" d="M567.0 236.0L551.0 236.0L551.0 161.0C551.0 159.89543 551.89545 159.0 553.0 159.0L565.0 159.0C566.10455 159.0 567.0 159.89543 567.0 161.0Z" fill-rule="nonzero"/><path fill="#fbbc04" clip-path="url(#id_0)" d="M567.0 236.0L551.0 236.0L551.0 161.0C551.0 159.89543 551.89545 159.0 553.0 159.0L565.0 159.0C566.10455 159.0 567.0 159.89543 567.0 161.0Z" fill-rule="nonzero"/><path stroke="#000000" stroke-width="2.0" stroke-linecap="butt" stroke-opacity="0.0" clip-path="url(#id_0)" d="M181.0 236.0L165.0 236.0L165.0 115.0C165.0 113.89543 165.89543 113.0 167.0 113.0L179.0 113.0C180.10457 113.0 181.0 113.89543 181.0 115.0Z" fill-rule="nonzero"/><path fill="#34a853" clip-path="url(#id_0)" d="M181.0 236.0L165.0 236.0L165.0 115.0C165.0 113.89543 165.89543 113.0 167.0 113.0L179.0 113.0C180.10457 113.0 181.0 113.89543 181.0 115.0Z" fill-rule="nonzero"/><path stroke="#000000" stroke-width="2.0" stroke-linecap="butt" stroke-opacity="0.0" clip-path="url(#id_0)" d="M316.0 236.0L300.0 236.0L300.0 153.0C300.0 151.89543 300.89542 151.0 302.0 151.0L314.0 151.0C315.10458 151.0 316.0 151.89543 316.0 153.0Z" fill-rule="nonzero"/><path fill="#34a853" clip-path="url(#id_0)" d="M316.0 236.0L300.0 236.0L300.0 153.0C300.0 151.89543 300.89542 151.0 302.0 151.0L314.0 151.0C315.10458 151.0 316.0 151.89543 316.0 153.0Z" fill-rule="nonzero"/><path stroke="#000000" stroke-width="2.0" stroke-linecap="butt" stroke-opacity="0.0" clip-path="url(#id_0)" d="M450.0 236.0L434.0 236.0L434.0 130.0C434.0 128.89543 434.89542 128.0 436.0 128.0L448.0 128.0C449.10458 128.0 450.0 128.89543 450.0 130.0Z" fill-rule="nonzero"/><path fill="#34a853" clip-path="url(#id_0)" d="M450.0 236.0L434.0 236.0L434.0 130.0C434.0 128.89543 434.89542 128.0 436.0 128.0L448.0 128.0C449.10458 128.0 450.0 128.89543 450.0 130.0Z" fill-rule="nonzero"/><path stroke="#000000" stroke-width="2.0" stroke-linecap="butt" stroke-opacity="0.0" clip-path="url(#id_0)" d="M585.0 236.0L569.0 236.0L569.0 153.0C569.0 151.89543 569.89545 151.0 571.0 151.0L583.0 151.0C584.10455 151.0 585.0 151.89543 585.0 153.0Z" fill-rule="nonzero"/><path fill="#34a853" clip-path="url(#id_0)" d="M585.0 236.0L569.0 236.0L569.0 153.0C569.0 151.89543 569.89545 151.0 571.0 151.0L583.0 151.0C584.10455 151.0 585.0 151.89543 585.0 153.0Z" fill-rule="nonzero"/><path stroke="#000000" stroke-width="2.0" stroke-linecap="butt" stroke-opacity="0.0" clip-path="url(#id_0)" d="M199.0 236.0L183.0 236.0L183.0 99.0C183.0 97.89543 183.89543 97.0 185.0 97.0L197.0 97.0C198.10457 97.0 199.0 97.89543 199.0 99.0Z" fill-rule="nonzero"/><path fill="#ff6d01" clip-path="url(#id_0)" d="M199.0 236.0L183.0 236.0L183.0 99.0C183.0 97.89543 183.89543 97.0 185.0 97.0L197.0 97.0C198.10457 97.0 199.0 97.89543 199.0 99.0Z" fill-rule="nonzero"/><path stroke="#000000" stroke-width="2.0" stroke-linecap="butt" stroke-opacity="0.0" clip-path="url(#id_0)" d="M334.0 236.0L318.0 236.0L318.0 200.0C318.0 198.89543 318.89542 198.0 320.0 198.0L332.0 198.0C333.10458 198.0 334.0 198.89543 334.0 200.0Z" fill-rule="nonzero"/><path fill="#ff6d01" clip-path="url(#id_0)" d="M334.0 236.0L318.0 236.0L318.0 200.0C318.0 198.89543 318.89542 198.0 320.0 198.0L332.0 198.0C333.10458 198.0 334.0 198.89543 334.0 200.0Z" fill-rule="nonzero"/><path stroke="#000000" stroke-width="2.0" stroke-linecap="butt" stroke-opacity="0.0" clip-path="url(#id_0)" d="M468.0 236.0L452.0 236.0L452.0 153.0C452.0 151.89543 452.89542 151.0 454.0 151.0L466.0 151.0C467.10458 151.0 468.0 151.89543 468.0 153.0Z" fill-rule="nonzero"/><path fill="#ff6d01" clip-path="url(#id_0)" d="M468.0 236.0L452.0 236.0L452.0 153.0C452.0 151.89543 452.89542 151.0 454.0 151.0L466.0 151.0C467.10458 151.0 468.0 151.89543 468.0 153.0Z" fill-rule="nonzero"/><path stroke="#000000" stroke-width="2.0" stroke-linecap="butt" stroke-opacity="0.0" clip-path="url(#id_0)" d="M603.0 236.0L587.0 236.0L587.0 200.0C587.0 198.89543 587.89545 198.0 589.0 198.0L601.0 198.0C602.10455 198.0 603.0 198.89543 603.0 200.0Z" fill-rule="nonzero"/><path fill="#ff6d01" clip-path="url(#id_0)" d="M603.0 236.0L587.0 236.0L587.0 200.0C587.0 198.89543 587.89545 198.0 589.0 198.0L601.0 198.0C602.10455 198.0 603.0 198.89543 603.0 200.0Z" fill-rule="nonzero"/><path fill="#000000" d="M23.2 236.14896Q23.2 234.6177 23.5125 233.69583Q23.825 232.75833 24.434376 232.25833Q25.059376 231.75833 25.996876 231.75833Q26.684376 231.75833 27.2 232.03958Q27.73125 232.32083 28.075 232.85208Q28.41875 233.3677 28.60625 234.1177Q28.79375 234.8677 28.79375 236.14896Q28.79375 237.66458 28.48125 238.58646Q28.184376 239.50833 27.559376 240.02396Q26.95 240.52396 25.996876 240.52396Q24.7625 240.52396 24.04375 239.63333Q23.2 238.57083 23.2 236.14896ZM24.278126 236.14896Q24.278126 238.25833 24.778126 238.96146Q25.278126 239.66458 25.996876 239.66458Q26.73125 239.66458 27.215626 238.96146Q27.715626 238.25833 27.715626 236.14896Q27.715626 234.02396 27.215626 233.33646Q26.73125 232.63333 25.98125 232.63333Q25.2625 232.63333 24.825 233.2427Q24.278126 234.02396 24.278126 236.14896ZM30.79375 240.38333L30.79375 239.1802L31.996876 239.1802L31.996876 240.38333L30.79375 240.38333ZM33.2 236.14896Q33.2 234.6177 33.5125 233.69583Q33.825 232.75833 34.434376 232.25833Q35.059376 231.75833 35.996876 231.75833Q36.684376 231.75833 37.2 232.03958Q37.73125 232.32083 38.075 232.85208Q38.41875 233.3677 38.60625 234.1177Q38.79375 234.8677 38.79375 236.14896Q38.79375 237.66458 38.48125 238.58646Q38.184376 239.50833 37.559376 240.02396Q36.95 240.52396 35.996876 240.52396Q34.7625 240.52396 34.04375 239.63333Q33.2 238.57083 33.2 236.14896ZM34.278126 236.14896Q34.278126 238.25833 34.778126 238.96146Q35.278126 239.66458 35.996876 239.66458Q36.73125 239.66458 37.215626 238.96146Q37.715626 238.25833 37.715626 236.14896Q37.715626 234.02396 37.215626 233.33646Q36.73125 232.63333 35.98125 232.63333Q35.2625 232.63333 34.825 233.2427Q34.278126 234.02396 34.278126 236.14896ZM40.2 236.14896Q40.2 234.6177 40.5125 233.69583Q40.825 232.75833 41.434376 232.25833Q42.059376 231.75833 42.996876 231.75833Q43.684376 231.75833 44.2 232.03958Q44.73125 232.32083 45.075 232.85208Q45.41875 233.3677 45.60625 234.1177Q45.79375 234.8677 45.79375 236.14896Q45.79375 237.66458 45.48125 238.58646Q45.184376 239.50833 44.559376 240.02396Q43.95 240.52396 42.996876 240.52396Q41.7625 240.52396 41.04375 239.63333Q40.2 238.57083 40.2 236.14896ZM41.278126 236.14896Q41.278126 238.25833 41.778126 238.96146Q42.278126 239.66458 42.996876 239.66458Q43.73125 239.66458 44.215626 238.96146Q44.715626 238.25833 44.715626 236.14896Q44.715626 234.02396 44.215626 233.33646Q43.73125 232.63333 42.98125 232.63333Q42.2625 232.63333 41.825 233.2427Q41.278126 234.02396 41.278126 236.14896ZM47.403126 233.85208Q47.403126 232.9302 47.85625 232.28958Q48.325 231.64896 49.2 231.64896Q50.0125 231.64896 50.54375 232.22708Q51.075 232.8052 51.075 233.91458Q51.075 235.00833 50.528126 235.60208Q49.996876 236.1802 49.215626 236.1802Q48.434376 236.1802 47.91875 235.60208Q47.403126 235.02396 47.403126 233.85208ZM49.23125 232.3677Q48.840626 232.3677 48.575 232.71146Q48.325 233.0552 48.325 233.96146Q48.325 234.78958 48.575 235.13333Q48.840626 235.46146 49.23125 235.46146Q49.6375 235.46146 49.8875 235.1177Q50.153126 234.77396 50.153126 233.88333Q50.153126 233.03958 49.8875 232.71146Q49.621876 232.3677 49.23125 232.3677ZM49.23125 240.69583L53.934376 231.64896L54.79375 231.64896L50.10625 240.69583L49.23125 240.69583ZM52.95 238.3677Q52.95 237.44583 53.403126 236.8052Q53.871876 236.16458 54.7625 236.16458Q55.575 236.16458 56.10625 236.7427Q56.6375 237.3052 56.6375 238.4302Q56.6375 239.52396 56.090626 240.1177Q55.559376 240.69583 54.7625 240.69583Q53.996876 240.69583 53.465626 240.1177Q52.95 239.53958 52.95 238.3677ZM54.79375 236.88333Q54.3875 236.88333 54.121876 237.22708Q53.871876 237.57083 53.871876 238.47708Q53.871876 239.28958 54.1375 239.63333Q54.403126 239.97708 54.79375 239.97708Q55.184376 239.97708 55.45 239.63333Q55.715626 239.28958 55.715626 238.38333Q55.715626 237.5552 55.45 237.22708Q55.184376 236.88333 54.79375 236.88333Z" fill-rule="nonzero"/><path fill="#000000" d="M20.16875 209.43333L19.121876 209.43333L19.121876 202.71458Q18.73125 203.07396 18.10625 203.44896Q17.496876 203.80833 17.0125 203.98021L17.0125 202.96458Q17.8875 202.54271 18.54375 201.96458Q19.215626 201.37083 19.496876 200.80833L20.16875 200.80833L20.16875 209.43333ZM23.2 205.19896Q23.2 203.66771 23.5125 202.74583Q23.825 201.80833 24.434376 201.30833Q25.059376 200.80833 25.996876 200.80833Q26.684376 200.80833 27.2 201.08958Q27.73125 201.37083 28.075 201.90208Q28.41875 202.41771 28.60625 203.16771Q28.79375 203.91771 28.79375 205.19896Q28.79375 206.71458 28.48125 207.63646Q28.184376 208.55833 27.559376 209.07396Q26.95 209.57396 25.996876 209.57396Q24.7625 209.57396 24.04375 208.68333Q23.2 207.62083 23.2 205.19896ZM24.278126 205.19896Q24.278126 207.30833 24.778126 208.01146Q25.278126 208.71458 25.996876 208.71458Q26.73125 208.71458 27.215626 208.01146Q27.715626 207.30833 27.715626 205.19896Q27.715626 203.07396 27.215626 202.38646Q26.73125 201.68333 25.98125 201.68333Q25.2625 201.68333 24.825 202.29271Q24.278126 203.07396 24.278126 205.19896ZM30.79375 209.43333L30.79375 208.23021L31.996876 208.23021L31.996876 209.43333L30.79375 209.43333ZM33.2 205.19896Q33.2 203.66771 33.5125 202.74583Q33.825 201.80833 34.434376 201.30833Q35.059376 200.80833 35.996876 200.80833Q36.684376 200.80833 37.2 201.08958Q37.73125 201.37083 38.075 201.90208Q38.41875 202.41771 38.60625 203.16771Q38.79375 203.91771 38.79375 205.19896Q38.79375 206.71458 38.48125 207.63646Q38.184376 208.55833 37.559376 209.07396Q36.95 209.57396 35.996876 209.57396Q34.7625 209.57396 34.04375 208.68333Q33.2 207.62083 33.2 205.19896ZM34.278126 205.19896Q34.278126 207.30833 34.778126 208.01146Q35.278126 208.71458 35.996876 208.71458Q36.73125 208.71458 37.215626 208.01146Q37.715626 207.30833 37.715626 205.19896Q37.715626 203.07396 37.215626 202.38646Q36.73125 201.68333 35.98125 201.68333Q35.2625 201.68333 34.825 202.29271Q34.278126 203.07396 34.278126 205.19896ZM40.2 205.19896Q40.2 203.66771 40.5125 202.74583Q40.825 201.80833 41.434376 201.30833Q42.059376 200.80833 42.996876 200.80833Q43.684376 200.80833 44.2 201.08958Q44.73125 201.37083 45.075 201.90208Q45.41875 202.41771 45.60625 203.16771Q45.79375 203.91771 45.79375 205.19896Q45.79375 206.71458 45.48125 207.63646Q45.184376 208.55833 44.559376 209.07396Q43.95 209.57396 42.996876 209.57396Q41.7625 209.57396 41.04375 208.68333Q40.2 207.62083 40.2 205.19896ZM41.278126 205.19896Q41.278126 207.30833 41.778126 208.01146Q42.278126 208.71458 42.996876 208.71458Q43.73125 208.71458 44.215626 208.01146Q44.715626 207.30833 44.715626 205.19896Q44.715626 203.07396 44.215626 202.38646Q43.73125 201.68333 42.98125 201.68333Q42.2625 201.68333 41.825 202.29271Q41.278126 203.07396 41.278126 205.19896ZM47.403126 202.90208Q47.403126 201.98021 47.85625 201.33958Q48.325 200.69896 49.2 200.69896Q50.0125 200.69896 50.54375 201.27708Q51.075 201.85521 51.075 202.96458Q51.075 204.05833 50.528126 204.65208Q49.996876 205.23021 49.215626 205.23021Q48.434376 205.23021 47.91875 204.65208Q47.403126 204.07396 47.403126 202.90208ZM49.23125 201.41771Q48.840626 201.41771 48.575 201.76146Q48.325 202.10521 48.325 203.01146Q48.325 203.83958 48.575 204.18333Q48.840626 204.51146 49.23125 204.51146Q49.6375 204.51146 49.8875 204.16771Q50.153126 203.82396 50.153126 202.93333Q50.153126 202.08958 49.8875 201.76146Q49.621876 201.41771 49.23125 201.41771ZM49.23125 209.74583L53.934376 200.69896L54.79375 200.69896L50.10625 209.74583L49.23125 209.74583ZM52.95 207.41771Q52.95 206.49583 53.403126 205.85521Q53.871876 205.21458 54.7625 205.21458Q55.575 205.21458 56.10625 205.79271Q56.6375 206.35521 56.6375 207.48021Q56.6375 208.57396 56.090626 209.16771Q55.559376 209.74583 54.7625 209.74583Q53.996876 209.74583 53.465626 209.16771Q52.95 208.58958 52.95 207.41771ZM54.79375 205.93333Q54.3875 205.93333 54.121876 206.27708Q53.871876 206.62083 53.871876 207.52708Q53.871876 208.33958 54.1375 208.68333Q54.403126 209.02708 54.79375 209.02708Q55.184376 209.02708 55.45 208.68333Q55.715626 208.33958 55.715626 207.43333Q55.715626 206.60521 55.45 206.27708Q55.184376 205.93333 54.79375 205.93333Z" fill-rule="nonzero"/><path fill="#000000" d="M21.746876 177.46771L21.746876 178.48334L16.059376 178.48334Q16.059376 178.10834 16.184376 177.74896Q16.403126 177.17084 16.871876 176.60834Q17.35625 176.04584 18.2625 175.31146Q19.66875 174.15521 20.153126 173.48334Q20.653126 172.81146 20.653126 172.21771Q20.653126 171.59271 20.2 171.17084Q19.746876 170.73334 19.028126 170.73334Q18.2625 170.73334 17.809376 171.18646Q17.35625 171.63959 17.340626 172.45209L16.2625 172.34271Q16.371876 171.12396 17.090626 170.49896Q17.825 169.85834 19.059376 169.85834Q20.29375 169.85834 21.0125 170.54584Q21.73125 171.23334 21.73125 172.24896Q21.73125 172.76459 21.5125 173.26459Q21.309376 173.74896 20.809376 174.31146Q20.325 174.85834 19.2 175.81146Q18.246876 176.60834 17.965626 176.90521Q17.7 177.18646 17.528126 177.46771L21.746876 177.46771ZM23.2 174.24896Q23.2 172.71771 23.5125 171.79584Q23.825 170.85834 24.434376 170.35834Q25.059376 169.85834 25.996876 169.85834Q26.684376 169.85834 27.2 170.13959Q27.73125 170.42084 28.075 170.95209Q28.41875 171.46771 28.60625 172.21771Q28.79375 172.96771 28.79375 174.24896Q28.79375 175.76459 28.48125 176.68646Q28.184376 177.60834 27.559376 178.12396Q26.95 178.62396 25.996876 178.62396Q24.7625 178.62396 24.04375 177.73334Q23.2 176.67084 23.2 174.24896ZM24.278126 174.24896Q24.278126 176.35834 24.778126 177.06146Q25.278126 177.76459 25.996876 177.76459Q26.73125 177.76459 27.215626 177.06146Q27.715626 176.35834 27.715626 174.24896Q27.715626 172.12396 27.215626 171.43646Q26.73125 170.73334 25.98125 170.73334Q25.2625 170.73334 24.825 171.34271Q24.278126 172.12396 24.278126 174.24896ZM30.79375 178.48334L30.79375 177.28021L31.996876 177.28021L31.996876 178.48334L30.79375 178.48334ZM33.2 174.24896Q33.2 172.71771 33.5125 171.79584Q33.825 170.85834 34.434376 170.35834Q35.059376 169.85834 35.996876 169.85834Q36.684376 169.85834 37.2 170.13959Q37.73125 170.42084 38.075 170.95209Q38.41875 171.46771 38.60625 172.21771Q38.79375 172.96771 38.79375 174.24896Q38.79375 175.76459 38.48125 176.68646Q38.184376 177.60834 37.559376 178.12396Q36.95 178.62396 35.996876 178.62396Q34.7625 178.62396 34.04375 177.73334Q33.2 176.67084 33.2 174.24896ZM34.278126 174.24896Q34.278126 176.35834 34.778126 177.06146Q35.278126 177.76459 35.996876 177.76459Q36.73125 177.76459 37.215626 177.06146Q37.715626 176.35834 37.715626 174.24896Q37.715626 172.12396 37.215626 171.43646Q36.73125 170.73334 35.98125 170.73334Q35.2625 170.73334 34.825 171.34271Q34.278126 172.12396 34.278126 174.24896ZM40.2 174.24896Q40.2 172.71771 40.5125 171.79584Q40.825 170.85834 41.434376 170.35834Q42.059376 169.85834 42.996876 169.85834Q43.684376 169.85834 44.2 170.13959Q44.73125 170.42084 45.075 170.95209Q45.41875 171.46771 45.60625 172.21771Q45.79375 172.96771 45.79375 174.24896Q45.79375 175.76459 45.48125 176.68646Q45.184376 177.60834 44.559376 178.12396Q43.95 178.62396 42.996876 178.62396Q41.7625 178.62396 41.04375 177.73334Q40.2 176.67084 40.2 174.24896ZM41.278126 174.24896Q41.278126 176.35834 41.778126 177.06146Q42.278126 177.76459 42.996876 177.76459Q43.73125 177.76459 44.215626 177.06146Q44.715626 176.35834 44.715626 174.24896Q44.715626 172.12396 44.215626 171.43646Q43.73125 170.73334 42.98125 170.73334Q42.2625 170.73334 41.825 171.34271Q41.278126 172.12396 41.278126 174.24896ZM47.403126 171.95209Q47.403126 171.03021 47.85625 170.38959Q48.325 169.74896 49.2 169.74896Q50.0125 169.74896 50.54375 170.32709Q51.075 170.90521 51.075 172.01459Q51.075 173.10834 50.528126 173.70209Q49.996876 174.28021 49.215626 174.28021Q48.434376 174.28021 47.91875 173.70209Q47.403126 173.12396 47.403126 171.95209ZM49.23125 170.46771Q48.840626 170.46771 48.575 170.81146Q48.325 171.15521 48.325 172.06146Q48.325 172.88959 48.575 173.23334Q48.840626 173.56146 49.23125 173.56146Q49.6375 173.56146 49.8875 173.21771Q50.153126 172.87396 50.153126 171.98334Q50.153126 171.13959 49.8875 170.81146Q49.621876 170.46771 49.23125 170.46771ZM49.23125 178.79584L53.934376 169.74896L54.79375 169.74896L50.10625 178.79584L49.23125 178.79584ZM52.95 176.46771Q52.95 175.54584 53.403126 174.90521Q53.871876 174.26459 54.7625 174.26459Q55.575 174.26459 56.10625 174.84271Q56.6375 175.40521 56.6375 176.53021Q56.6375 177.62396 56.090626 178.21771Q55.559376 178.79584 54.7625 178.79584Q53.996876 178.79584 53.465626 178.21771Q52.95 177.63959 52.95 176.46771ZM54.79375 174.98334Q54.3875 174.98334 54.121876 175.32709Q53.871876 175.67084 53.871876 176.57709Q53.871876 177.38959 54.1375 177.73334Q54.403126 178.07709 54.79375 178.07709Q55.184376 178.07709 55.45 177.73334Q55.715626 177.38959 55.715626 176.48334Q55.715626 175.65521 55.45 175.32709Q55.184376 174.98334 54.79375 174.98334Z" fill-rule="nonzero"/><path fill="#000000" d="M16.2 145.26772L17.2625 145.12709Q17.434376 146.01772 17.871876 146.42397Q18.309376 146.81459 18.934376 146.81459Q19.684376 146.81459 20.2 146.29897Q20.715626 145.78334 20.715626 145.01772Q20.715626 144.29897 20.23125 143.83022Q19.7625 143.34584 19.028126 143.34584Q18.73125 143.34584 18.278126 143.47084L18.403126 142.53334Q18.5125 142.54897 18.575 142.54897Q19.246876 142.54897 19.778126 142.20522Q20.325 141.84584 20.325 141.11147Q20.325 140.53334 19.934376 140.15834Q19.54375 139.76772 18.91875 139.76772Q18.309376 139.76772 17.8875 140.15834Q17.48125 140.54897 17.371876 141.31459L16.309376 141.12709Q16.496876 140.08022 17.184376 139.50209Q17.871876 138.90834 18.8875 138.90834Q19.590626 138.90834 20.184376 139.22084Q20.778126 139.51772 21.090626 140.03334Q21.403126 140.54897 21.403126 141.14272Q21.403126 141.68959 21.10625 142.15834Q20.809376 142.61147 20.23125 142.87709Q20.98125 143.04897 21.403126 143.61147Q21.825 144.15834 21.825 145.00209Q21.825 146.12709 20.996876 146.90834Q20.184376 147.68959 18.934376 147.68959Q17.809376 147.68959 17.059376 147.01772Q16.309376 146.33022 16.2 145.26772ZM23.2 143.29897Q23.2 141.76772 23.5125 140.84584Q23.825 139.90834 24.434376 139.40834Q25.059376 138.90834 25.996876 138.90834Q26.684376 138.90834 27.2 139.18959Q27.73125 139.47084 28.075 140.00209Q28.41875 140.51772 28.60625 141.26772Q28.79375 142.01772 28.79375 143.29897Q28.79375 144.81459 28.48125 145.73647Q28.184376 146.65834 27.559376 147.17397Q26.95 147.67397 25.996876 147.67397Q24.7625 147.67397 24.04375 146.78334Q23.2 145.72084 23.2 143.29897ZM24.278126 143.29897Q24.278126 145.40834 24.778126 146.11147Q25.278126 146.81459 25.996876 146.81459Q26.73125 146.81459 27.215626 146.11147Q27.715626 145.40834 27.715626 143.29897Q27.715626 141.17397 27.215626 140.48647Q26.73125 139.78334 25.98125 139.78334Q25.2625 139.78334 24.825 140.39272Q24.278126 141.17397 24.278126 143.29897ZM30.79375 147.53334L30.79375 146.33022L31.996876 146.33022L31.996876 147.53334L30.79375 147.53334ZM33.2 143.29897Q33.2 141.76772 33.5125 140.84584Q33.825 139.90834 34.434376 139.40834Q35.059376 138.90834 35.996876 138.90834Q36.684376 138.90834 37.2 139.18959Q37.73125 139.47084 38.075 140.00209Q38.41875 140.51772 38.60625 141.26772Q38.79375 142.01772 38.79375 143.29897Q38.79375 144.81459 38.48125 145.73647Q38.184376 146.65834 37.559376 147.17397Q36.95 147.67397 35.996876 147.67397Q34.7625 147.67397 34.04375 146.78334Q33.2 145.72084 33.2 143.29897ZM34.278126 143.29897Q34.278126 145.40834 34.778126 146.11147Q35.278126 146.81459 35.996876 146.81459Q36.73125 146.81459 37.215626 146.11147Q37.715626 145.40834 37.715626 143.29897Q37.715626 141.17397 37.215626 140.48647Q36.73125 139.78334 35.98125 139.78334Q35.2625 139.78334 34.825 140.39272Q34.278126 141.17397 34.278126 143.29897ZM40.2 143.29897Q40.2 141.76772 40.5125 140.84584Q40.825 139.90834 41.434376 139.40834Q42.059376 138.90834 42.996876 138.90834Q43.684376 138.90834 44.2 139.18959Q44.73125 139.47084 45.075 140.00209Q45.41875 140.51772 45.60625 141.26772Q45.79375 142.01772 45.79375 143.29897Q45.79375 144.81459 45.48125 145.73647Q45.184376 146.65834 44.559376 147.17397Q43.95 147.67397 42.996876 147.67397Q41.7625 147.67397 41.04375 146.78334Q40.2 145.72084 40.2 143.29897ZM41.278126 143.29897Q41.278126 145.40834 41.778126 146.11147Q42.278126 146.81459 42.996876 146.81459Q43.73125 146.81459 44.215626 146.11147Q44.715626 145.40834 44.715626 143.29897Q44.715626 141.17397 44.215626 140.48647Q43.73125 139.78334 42.98125 139.78334Q42.2625 139.78334 41.825 140.39272Q41.278126 141.17397 41.278126 143.29897ZM47.403126 141.00209Q47.403126 140.08022 47.85625 139.43959Q48.325 138.79897 49.2 138.79897Q50.0125 138.79897 50.54375 139.37709Q51.075 139.95522 51.075 141.06459Q51.075 142.15834 50.528126 142.75209Q49.996876 143.33022 49.215626 143.33022Q48.434376 143.33022 47.91875 142.75209Q47.403126 142.17397 47.403126 141.00209ZM49.23125 139.51772Q48.840626 139.51772 48.575 139.86147Q48.325 140.20522 48.325 141.11147Q48.325 141.93959 48.575 142.28334Q48.840626 142.61147 49.23125 142.61147Q49.6375 142.61147 49.8875 142.26772Q50.153126 141.92397 50.153126 141.03334Q50.153126 140.18959 49.8875 139.86147Q49.621876 139.51772 49.23125 139.51772ZM49.23125 147.84584L53.934376 138.79897L54.79375 138.79897L50.10625 147.84584L49.23125 147.84584ZM52.95 145.51772Q52.95 144.59584 53.403126 143.95522Q53.871876 143.31459 54.7625 143.31459Q55.575 143.31459 56.10625 143.89272Q56.6375 144.45522 56.6375 145.58022Q56.6375 146.67397 56.090626 147.26772Q55.559376 147.84584 54.7625 147.84584Q53.996876 147.84584 53.465626 147.26772Q52.95 146.68959 52.95 145.51772ZM54.79375 144.03334Q54.3875 144.03334 54.121876 144.37709Q53.871876 144.72084 53.871876 145.62709Q53.871876 146.43959 54.1375 146.78334Q54.403126 147.12709 54.79375 147.12709Q55.184376 147.12709 55.45 146.78334Q55.715626 146.43959 55.715626 145.53334Q55.715626 144.70522 55.45 144.37709Q55.184376 144.03334 54.79375 144.03334Z" fill-rule="nonzero"/><path fill="#000000" d="M19.575 116.583336L19.575 114.520836L15.85625 114.520836L15.85625 113.552086L19.778126 107.989586L20.6375 107.989586L20.6375 113.552086L21.79375 113.552086L21.79375 114.520836L20.6375 114.520836L20.6375 116.583336L19.575 116.583336ZM19.575 113.552086L19.575 109.69271L16.8875 113.552086L19.575 113.552086ZM23.2 112.34896Q23.2 110.81771 23.5125 109.895836Q23.825 108.958336 24.434376 108.458336Q25.059376 107.958336 25.996876 107.958336Q26.684376 107.958336 27.2 108.239586Q27.73125 108.520836 28.075 109.052086Q28.41875 109.56771 28.60625 110.31771Q28.79375 111.06771 28.79375 112.34896Q28.79375 113.864586 28.48125 114.78646Q28.184376 115.708336 27.559376 116.22396Q26.95 116.72396 25.996876 116.72396Q24.7625 116.72396 24.04375 115.833336Q23.2 114.770836 23.2 112.34896ZM24.278126 112.34896Q24.278126 114.458336 24.778126 115.16146Q25.278126 115.864586 25.996876 115.864586Q26.73125 115.864586 27.215626 115.16146Q27.715626 114.458336 27.715626 112.34896Q27.715626 110.22396 27.215626 109.53646Q26.73125 108.833336 25.98125 108.833336Q25.2625 108.833336 24.825 109.44271Q24.278126 110.22396 24.278126 112.34896ZM30.79375 116.583336L30.79375 115.38021L31.996876 115.38021L31.996876 116.583336L30.79375 116.583336ZM33.2 112.34896Q33.2 110.81771 33.5125 109.895836Q33.825 108.958336 34.434376 108.458336Q35.059376 107.958336 35.996876 107.958336Q36.684376 107.958336 37.2 108.239586Q37.73125 108.520836 38.075 109.052086Q38.41875 109.56771 38.60625 110.31771Q38.79375 111.06771 38.79375 112.34896Q38.79375 113.864586 38.48125 114.78646Q38.184376 115.708336 37.559376 116.22396Q36.95 116.72396 35.996876 116.72396Q34.7625 116.72396 34.04375 115.833336Q33.2 114.770836 33.2 112.34896ZM34.278126 112.34896Q34.278126 114.458336 34.778126 115.16146Q35.278126 115.864586 35.996876 115.864586Q36.73125 115.864586 37.215626 115.16146Q37.715626 114.458336 37.715626 112.34896Q37.715626 110.22396 37.215626 109.53646Q36.73125 108.833336 35.98125 108.833336Q35.2625 108.833336 34.825 109.44271Q34.278126 110.22396 34.278126 112.34896ZM40.2 112.34896Q40.2 110.81771 40.5125 109.895836Q40.825 108.958336 41.434376 108.458336Q42.059376 107.958336 42.996876 107.958336Q43.684376 107.958336 44.2 108.239586Q44.73125 108.520836 45.075 109.052086Q45.41875 109.56771 45.60625 110.31771Q45.79375 111.06771 45.79375 112.34896Q45.79375 113.864586 45.48125 114.78646Q45.184376 115.708336 44.559376 116.22396Q43.95 116.72396 42.996876 116.72396Q41.7625 116.72396 41.04375 115.833336Q40.2 114.770836 40.2 112.34896ZM41.278126 112.34896Q41.278126 114.458336 41.778126 115.16146Q42.278126 115.864586 42.996876 115.864586Q43.73125 115.864586 44.215626 115.16146Q44.715626 114.458336 44.715626 112.34896Q44.715626 110.22396 44.215626 109.53646Q43.73125 108.833336 42.98125 108.833336Q42.2625 108.833336 41.825 109.44271Q41.278126 110.22396 41.278126 112.34896ZM47.403126 110.052086Q47.403126 109.13021 47.85625 108.489586Q48.325 107.84896 49.2 107.84896Q50.0125 107.84896 50.54375 108.427086Q51.075 109.00521 51.075 110.114586Q51.075 111.208336 50.528126 111.802086Q49.996876 112.38021 49.215626 112.38021Q48.434376 112.38021 47.91875 111.802086Q47.403126 111.22396 47.403126 110.052086ZM49.23125 108.56771Q48.840626 108.56771 48.575 108.91146Q48.325 109.25521 48.325 110.16146Q48.325 110.989586 48.575 111.333336Q48.840626 111.66146 49.23125 111.66146Q49.6375 111.66146 49.8875 111.31771Q50.153126 110.97396 50.153126 110.083336Q50.153126 109.239586 49.8875 108.91146Q49.621876 108.56771 49.23125 108.56771ZM49.23125 116.895836L53.934376 107.84896L54.79375 107.84896L50.10625 116.895836L49.23125 116.895836ZM52.95 114.56771Q52.95 113.645836 53.403126 113.00521Q53.871876 112.364586 54.7625 112.364586Q55.575 112.364586 56.10625 112.94271Q56.6375 113.50521 56.6375 114.63021Q56.6375 115.72396 56.090626 116.31771Q55.559376 116.895836 54.7625 116.895836Q53.996876 116.895836 53.465626 116.31771Q52.95 115.739586 52.95 114.56771ZM54.79375 113.083336Q54.3875 113.083336 54.121876 113.427086Q53.871876 113.770836 53.871876 114.677086Q53.871876 115.489586 54.1375 115.833336Q54.403126 116.177086 54.79375 116.177086Q55.184376 116.177086 55.45 115.833336Q55.715626 115.489586 55.715626 114.583336Q55.715626 113.75521 55.45 113.427086Q55.184376 113.083336 54.79375 113.083336Z" fill-rule="nonzero"/><path fill="#000000" d="M16.2 83.38333L17.309376 83.28958Q17.434376 84.10208 17.871876 84.50833Q18.325 84.91458 18.965626 84.91458Q19.715626 84.91458 20.246876 84.33646Q20.778126 83.75833 20.778126 82.82083Q20.778126 81.91458 20.2625 81.39896Q19.7625 80.86771 18.934376 80.86771Q18.434376 80.86771 18.0125 81.10208Q17.60625 81.33646 17.371876 81.69583L16.3875 81.57083L17.215626 77.16458L21.496876 77.16458L21.496876 78.16458L18.059376 78.16458L17.60625 80.47708Q18.371876 79.93021 19.215626 79.93021Q20.340626 79.93021 21.10625 80.71146Q21.8875 81.49271 21.8875 82.72708Q21.8875 83.88333 21.215626 84.74271Q20.3875 85.77396 18.965626 85.77396Q17.79375 85.77396 17.04375 85.11771Q16.309376 84.46146 16.2 83.38333ZM23.2 81.39896Q23.2 79.86771 23.5125 78.94583Q23.825 78.00833 24.434376 77.50833Q25.059376 77.00833 25.996876 77.00833Q26.684376 77.00833 27.2 77.28958Q27.73125 77.57083 28.075 78.10208Q28.41875 78.61771 28.60625 79.36771Q28.79375 80.11771 28.79375 81.39896Q28.79375 82.91458 28.48125 83.83646Q28.184376 84.75833 27.559376 85.27396Q26.95 85.77396 25.996876 85.77396Q24.7625 85.77396 24.04375 84.88333Q23.2 83.82083 23.2 81.39896ZM24.278126 81.39896Q24.278126 83.50833 24.778126 84.21146Q25.278126 84.91458 25.996876 84.91458Q26.73125 84.91458 27.215626 84.21146Q27.715626 83.50833 27.715626 81.39896Q27.715626 79.27396 27.215626 78.58646Q26.73125 77.88333 25.98125 77.88333Q25.2625 77.88333 24.825 78.49271Q24.278126 79.27396 24.278126 81.39896ZM30.79375 85.63333L30.79375 84.43021L31.996876 84.43021L31.996876 85.63333L30.79375 85.63333ZM33.2 81.39896Q33.2 79.86771 33.5125 78.94583Q33.825 78.00833 34.434376 77.50833Q35.059376 77.00833 35.996876 77.00833Q36.684376 77.00833 37.2 77.28958Q37.73125 77.57083 38.075 78.10208Q38.41875 78.61771 38.60625 79.36771Q38.79375 80.11771 38.79375 81.39896Q38.79375 82.91458 38.48125 83.83646Q38.184376 84.75833 37.559376 85.27396Q36.95 85.77396 35.996876 85.77396Q34.7625 85.77396 34.04375 84.88333Q33.2 83.82083 33.2 81.39896ZM34.278126 81.39896Q34.278126 83.50833 34.778126 84.21146Q35.278126 84.91458 35.996876 84.91458Q36.73125 84.91458 37.215626 84.21146Q37.715626 83.50833 37.715626 81.39896Q37.715626 79.27396 37.215626 78.58646Q36.73125 77.88333 35.98125 77.88333Q35.2625 77.88333 34.825 78.49271Q34.278126 79.27396 34.278126 81.39896ZM40.2 81.39896Q40.2 79.86771 40.5125 78.94583Q40.825 78.00833 41.434376 77.50833Q42.059376 77.00833 42.996876 77.00833Q43.684376 77.00833 44.2 77.28958Q44.73125 77.57083 45.075 78.10208Q45.41875 78.61771 45.60625 79.36771Q45.79375 80.11771 45.79375 81.39896Q45.79375 82.91458 45.48125 83.83646Q45.184376 84.75833 44.559376 85.27396Q43.95 85.77396 42.996876 85.77396Q41.7625 85.77396 41.04375 84.88333Q40.2 83.82083 40.2 81.39896ZM41.278126 81.39896Q41.278126 83.50833 41.778126 84.21146Q42.278126 84.91458 42.996876 84.91458Q43.73125 84.91458 44.215626 84.21146Q44.715626 83.50833 44.715626 81.39896Q44.715626 79.27396 44.215626 78.58646Q43.73125 77.88333 42.98125 77.88333Q42.2625 77.88333 41.825 78.49271Q41.278126 79.27396 41.278126 81.39896ZM47.403126 79.10208Q47.403126 78.18021 47.85625 77.53958Q48.325 76.89896 49.2 76.89896Q50.0125 76.89896 50.54375 77.47708Q51.075 78.05521 51.075 79.16458Q51.075 80.25833 50.528126 80.85208Q49.996876 81.43021 49.215626 81.43021Q48.434376 81.43021 47.91875 80.85208Q47.403126 80.27396 47.403126 79.10208ZM49.23125 77.61771Q48.840626 77.61771 48.575 77.96146Q48.325 78.30521 48.325 79.21146Q48.325 80.03958 48.575 80.38333Q48.840626 80.71146 49.23125 80.71146Q49.6375 80.71146 49.8875 80.36771Q50.153126 80.02396 50.153126 79.13333Q50.153126 78.28958 49.8875 77.96146Q49.621876 77.61771 49.23125 77.61771ZM49.23125 85.94583L53.934376 76.89896L54.79375 76.89896L50.10625 85.94583L49.23125 85.94583ZM52.95 83.61771Q52.95 82.69583 53.403126 82.05521Q53.871876 81.41458 54.7625 81.41458Q55.575 81.41458 56.10625 81.99271Q56.6375 82.55521 56.6375 83.68021Q56.6375 84.77396 56.090626 85.36771Q55.559376 85.94583 54.7625 85.94583Q53.996876 85.94583 53.465626 85.36771Q52.95 84.78958 52.95 83.61771ZM54.79375 82.13333Q54.3875 82.13333 54.121876 82.47708Q53.871876 82.82083 53.871876 83.72708Q53.871876 84.53958 54.1375 84.88333Q54.403126 85.22708 54.79375 85.22708Q55.184376 85.22708 55.45 84.88333Q55.715626 84.53958 55.715626 83.63333Q55.715626 82.80521 55.45 82.47708Q55.184376 82.13333 54.79375 82.13333Z" fill-rule="nonzero"/><path fill="#000000" d="M153.01161 254.87924L152.3045 254.17213L154.85672 251.59782L157.11063 253.85172Q157.00014 254.91238 156.61343 255.78522Q156.21568 256.647 155.55278 257.3099Q154.65785 258.20483 153.54195 258.56946Q152.42604 258.91196 151.33223 258.56946Q150.23843 258.20483 149.34349 257.3099Q148.44856 256.41498 148.05081 255.28802Q147.65306 254.13898 147.98453 253.07832Q148.30493 252.0066 149.2109 251.10063Q149.87383 250.43771 150.61407 250.11731Q151.35432 249.7969 152.03934 249.8853Q152.72435 249.95158 153.49774 250.41562L152.97847 251.33266Q152.3708 251.01224 151.8957 250.957Q151.43167 250.89072 150.90134 251.11168Q150.35995 251.32161 149.90697 251.7746Q149.35454 252.32703 149.11148 252.90155Q148.87946 253.46503 148.90155 253.99535Q148.9347 254.51463 149.13358 254.97867Q149.46503 255.77417 150.1169 256.42603Q150.93448 257.24362 151.76312 257.51984Q152.59177 257.77396 153.38727 257.5088Q154.18275 257.24362 154.79042 256.63596Q155.30971 256.11667 155.60802 255.42061Q155.89528 254.7135 155.92842 254.23842L154.79042 253.10042L153.01161 254.87924ZM158.80106 253.86276L152.72435 247.78607L153.47565 247.03477L159.55235 253.11147L158.80106 253.86276ZM155.72955 246.50444L154.86777 245.64265L155.61906 244.89136L156.48085 245.75314L155.72955 246.50444ZM160.94447 251.71935L156.54715 247.32204L157.29845 246.57072L161.69577 250.96805L160.94447 251.71935Z" fill-rule="nonzero"/><path fill="#000000" d="M288.0721 259.44226L281.99542 253.36557L282.80197 252.55904L288.1605 257.91757L291.15466 254.92342L291.8728 255.64157L288.0721 259.44226ZM294.55762 250.12836L295.4194 249.44334Q295.9166 250.29408 295.79504 251.16692Q295.67352 252.03975 294.91116 252.8021Q293.94995 253.76332 292.7788 253.74123Q291.6187 253.70808 290.547 252.63637Q289.44214 251.53152 289.409 250.34932Q289.3648 249.15608 290.27078 248.2501Q291.15466 247.36621 292.3037 247.41042Q293.4638 247.44356 294.55762 248.53737Q294.6239 248.60365 294.7565 248.73624L291.47507 252.01765Q292.24847 252.70267 292.99976 252.72476Q293.74002 252.73581 294.29245 252.18338Q294.70123 251.77458 294.7786 251.2774Q294.85593 250.75812 294.55762 250.12836ZM290.9116 251.36578L293.36438 248.91301Q292.7567 248.39374 292.24847 248.34953Q291.45297 248.28325 290.8895 248.84673Q290.3702 249.366 290.35916 250.06206Q290.35916 250.74707 290.9116 251.36578Z" fill-rule="nonzero"/><path fill="#000000" d="M392.69388 289.6711L386.61716 283.5944L387.41266 282.79892L393.48935 288.8756L392.69388 289.6711ZM394.56107 287.8039L388.48438 281.7272L389.23566 280.9759L395.31238 287.0526L394.56107 287.8039ZM400.08533 279.05347L400.91397 278.42368Q401.54373 279.2965 401.47745 280.2246Q401.41116 281.15268 400.69302 281.87082Q399.78702 282.77682 398.64902 282.74365Q397.51102 282.68842 396.4062 281.58356Q395.69907 280.87646 395.40076 280.1141Q395.10245 279.32968 395.31238 278.58942Q395.53333 277.8381 396.10785 277.26358Q396.81497 276.5565 397.63257 276.4681Q398.45016 276.3576 399.25668 276.899L398.63797 277.73868Q398.0966 277.39618 397.61047 277.44037Q397.11328 277.4735 396.73764 277.84915Q396.17416 278.41263 396.2294 279.175Q396.2736 279.9263 397.14642 280.79913Q398.04135 281.69406 398.78162 281.7493Q399.52185 281.80453 400.06323 281.26315Q400.5052 280.82123 400.52728 280.2688Q400.56042 279.70532 400.08533 279.05347ZM400.59357 277.37408Q399.3672 276.14767 399.45557 274.88815Q399.5329 273.83853 400.3505 273.02094Q401.25647 272.11496 402.42764 272.13705Q403.5988 272.13705 404.64838 273.18668Q405.4991 274.0374 405.73114 274.77768Q405.96317 275.5179 405.7422 276.29132Q405.5212 277.04263 404.9467 277.61716Q404.02966 278.53418 402.86957 278.52313Q401.70947 278.49 400.59357 277.37408ZM401.35593 276.61172Q402.19562 277.45142 402.98007 277.50665Q403.77554 277.55084 404.32797 276.9984Q404.89145 276.43494 404.8362 275.6505Q404.78098 274.86606 403.9192 274.00427Q403.1016 273.18668 402.3061 273.1425Q401.52164 273.08725 400.9692 273.63968Q400.4168 274.1921 400.461 274.98758Q400.5052 275.761 401.35593 276.61172ZM408.00714 274.35782L403.60983 269.9605L404.28378 269.28653L404.9467 269.94946Q404.7368 269.2313 404.80307 268.87775Q404.86935 268.5021 405.13452 268.23694Q405.51016 267.86127 406.1289 267.7066L406.57083 268.65677Q406.1289 268.76727 405.86374 269.0324Q405.60962 269.28653 405.56543 269.6401Q405.5212 269.97156 405.70905 270.31406Q405.9742 270.8444 406.43826 271.3084L408.7474 273.61758L408.00714 274.35782ZM409.23352 270.5019L409.85226 269.6622Q410.36047 270.03784 410.8687 269.99365Q411.388 269.93842 411.9073 269.41913Q412.41553 268.9109 412.45972 268.46896Q412.5039 268.0049 412.21664 267.71765Q411.96252 267.46353 411.59793 267.54086Q411.3438 267.5961 410.58145 268.0491Q409.55396 268.65677 409.0899 268.83356Q408.62585 268.98822 408.19498 268.8888Q407.76407 268.78937 407.43262 268.4579Q407.14536 268.17062 407.02383 267.78394Q406.90228 267.39725 406.96857 266.99948Q407.02383 266.70117 407.23373 266.31448Q407.44366 265.9278 407.7972 265.57422Q408.30545 265.066 408.84683 264.83398Q409.3882 264.57986 409.83014 264.64615Q410.2721 264.71243 410.75824 265.066L410.12848 265.89462Q409.7528 265.60736 409.32193 265.66263Q408.89102 265.69577 408.4491 266.1377Q407.94086 266.64594 407.89667 267.0437Q407.84143 267.4304 408.07343 267.6624Q408.21707 267.80603 408.41595 267.82812Q408.6369 267.85022 408.90207 267.73975Q409.05676 267.67346 409.7528 267.26465Q410.7693 266.69012 411.2112 266.51337Q411.65317 266.33658 412.08405 266.4139Q412.51495 266.49127 412.90164 266.87796Q413.2773 267.2536 413.3878 267.80603Q413.49826 268.33636 413.2773 268.93298Q413.0453 269.51855 412.526 270.03784Q411.6642 270.89963 410.85767 270.99905Q410.05112 271.07642 409.23352 270.5019ZM413.3215 264.64615Q412.0951 263.41977 412.1835 262.16022Q412.26083 261.11063 413.07843 260.29303Q413.9844 259.38705 415.15555 259.40915Q416.3267 259.40915 417.3763 260.45874Q418.22705 261.30948 418.45908 262.04974Q418.6911 262.79 418.47012 263.5634Q418.24915 264.3147 417.67462 264.88922Q416.7576 265.80624 415.5975 265.7952Q414.4374 265.76205 413.3215 264.64615ZM414.08383 263.8838Q414.92352 264.72348 415.70798 264.77875Q416.50348 264.82294 417.0559 264.2705Q417.6194 263.70703 417.56415 262.92258Q417.50888 262.13812 416.6471 261.27634Q415.8295 260.45874 415.03403 260.41455Q414.24957 260.3593 413.69714 260.91174Q413.1447 261.46417 413.1889 262.25967Q413.2331 263.03305 414.08383 263.8838ZM422.86743 259.49753L416.79074 253.42084L417.53098 252.68057L419.70755 254.85715Q419.63022 253.74124 420.42572 252.94574Q420.92288 252.44856 421.4753 252.29388Q422.02774 252.11711 422.52493 252.30493Q423.01108 252.4817 423.66293 253.13358L426.44717 255.9178L425.7069 256.65805L422.92267 253.87383Q422.3592 253.31035 421.86203 253.2993Q421.36484 253.28825 420.92288 253.7302Q420.59143 254.06165 420.4699 254.53673Q420.34836 254.98973 420.5141 255.42062Q420.6798 255.82942 421.1991 256.3487L423.6077 258.7573L422.86743 259.49753ZM430.14844 251.13379Q430.08212 251.90718 429.83908 252.43752Q429.60706 252.95679 429.1651 253.39874Q428.4359 254.12794 427.69565 254.16109Q426.95538 254.19423 426.40295 253.6418Q426.08255 253.3214 425.96103 252.9126Q425.82843 252.49275 425.91684 252.095Q425.99417 251.68622 426.21515 251.31056Q426.35876 251.03435 426.75653 250.52611Q427.55203 249.53174 427.82822 248.94617Q427.67355 248.79149 427.6404 248.75835Q427.17636 248.29431 426.77863 248.3164Q426.2483 248.3606 425.6848 248.92407Q425.16553 249.44336 425.09924 249.8853Q425.0219 250.3162 425.3644 250.90176L424.53577 251.53152Q424.17117 250.96805 424.1159 250.44878Q424.06067 249.92949 424.33688 249.34392Q424.6131 248.75835 425.17657 248.19487Q425.74005 247.6314 426.2262 247.41043Q426.71234 247.18945 427.07693 247.2226Q427.44153 247.25575 427.81717 247.49881Q428.03815 247.65349 428.53534 248.15068L429.5297 249.14505Q430.56827 250.18361 430.88867 250.41563Q431.22012 250.6366 431.6179 250.74709L430.83344 251.53152Q430.49094 251.41 430.14844 251.13379ZM428.41382 249.53174Q428.17075 250.10626 427.48572 251.03435Q427.08798 251.56468 426.98856 251.8409Q426.87805 252.10605 426.92224 252.37122Q426.9775 252.62534 427.17636 252.8242Q427.47467 253.12253 427.89453 253.10042Q428.3254 253.06728 428.75632 252.63638Q429.1872 252.20549 429.33084 251.68622Q429.4855 251.15588 429.30875 250.66974Q429.17615 250.2941 428.69003 249.80795L428.41382 249.53174Z" fill-rule="nonzero"/><path fill="#000000" d="M552.7572 260.54715L553.4422 259.72955Q553.9615 260.13837 554.44763 260.22675Q554.9338 260.31512 555.5304 260.09418Q556.127 259.8511 556.6463 259.33182Q557.0993 258.8788 557.32025 258.3927Q557.53015 257.8955 557.46387 257.49777Q557.3976 257.0779 557.1214 256.8017Q556.8341 256.51443 556.45844 256.47025Q556.0718 256.415 555.5525 256.64703Q555.1989 256.8017 554.16034 257.4425Q553.1329 258.0723 552.62463 258.22696Q551.9507 258.4369 551.4093 258.31534Q550.8569 258.18277 550.437 257.7629Q549.984 257.30994 549.8404 256.65808Q549.6968 255.98412 549.99506 255.28806Q550.2934 254.5699 550.90106 253.96222Q551.575 253.28827 552.31525 252.98996Q553.04443 252.68059 553.7516 252.83527Q554.44763 252.9789 555.00006 253.48714L554.2819 254.31578Q553.6411 253.80754 552.9892 253.88489Q552.33734 253.94012 551.6413 254.63618Q550.9121 255.36539 550.8458 255.962Q550.77954 256.55862 551.15515 256.9343Q551.48663 257.26575 551.9286 257.24365Q552.3705 257.22156 553.5637 256.47025Q554.768 255.7079 555.29834 255.50902Q556.0828 255.2328 556.7126 255.35434Q557.3313 255.46483 557.8285 255.962Q558.31464 256.44815 558.4693 257.15524Q558.6129 257.85132 558.33673 258.61365Q558.04944 259.36496 557.3976 260.0168Q556.569 260.84546 555.77344 261.1769Q554.97797 261.4863 554.1714 261.32056Q553.3759 261.14377 552.7572 260.54715ZM562.1374 252.2497L562.9992 251.5647Q563.4964 252.41544 563.3749 253.28827Q563.2533 254.1611 562.49097 254.92345Q561.5297 255.88467 560.3586 255.86258Q559.1985 255.82942 558.1268 254.75772Q557.0219 253.65286 556.9888 252.47067Q556.9446 251.27744 557.8506 250.37144Q558.73444 249.48756 559.8835 249.53175Q561.0436 249.56491 562.1374 250.6587Q562.20374 250.725 562.3363 250.85759L559.0549 254.139Q559.82825 254.824 560.5796 254.84612Q561.3198 254.85716 561.87225 254.30473Q562.28107 253.89594 562.3584 253.39874Q562.4357 252.87947 562.1374 252.2497ZM558.4914 253.48714L560.94415 251.03436Q560.3365 250.51508 559.82825 250.47089Q559.0328 250.40459 558.4693 250.96806Q557.95 251.48735 557.93896 252.18341Q557.93896 252.86842 558.4914 253.48714ZM560.28125 246.50446L559.4195 245.64267L560.1708 244.89137L561.03253 245.75316L560.28125 246.50446ZM565.49615 251.71938L561.0989 247.32205L561.85016 246.57076L566.2475 250.96806L565.49615 251.71938Z" fill-rule="nonzero"/><path fill="#4285f4" d="M131.0 52.166668C131.0 51.614384 131.44771 51.166668 132.0 51.166668L142.0 51.166668C142.55229 51.166668 143.0 51.614384 143.0 52.166668L143.0 62.166668C143.0 62.718952 142.55229 63.166668 142.0 63.166668L132.0 63.166668C131.44771 63.166668 131.0 62.718952 131.0 62.166668Z" fill-rule="nonzero"/><path fill="#1a1a1a" d="M151.92188 61.166668L151.92188 52.572918L154.89062 52.572918Q155.89062 52.572918 156.42188 52.697918Q157.15625 52.869793 157.67188 53.307293Q158.35938 53.885418 158.6875 54.791668Q159.03125 55.682293 159.03125 56.822918Q159.03125 57.807293 158.79688 58.557293Q158.57812 59.307293 158.21875 59.807293Q157.85938 60.307293 157.42188 60.588543Q157.0 60.869793 156.40625 61.026043Q155.8125 61.166668 155.03125 61.166668L151.92188 61.166668ZM153.0625 60.151043L154.89062 60.151043Q155.75 60.151043 156.23438 59.994793Q156.71875 59.838543 157.0 59.541668Q157.40625 59.151043 157.625 58.463543Q157.85938 57.776043 157.85938 56.807293Q157.85938 55.463543 157.40625 54.744793Q156.96875 54.010418 156.34375 53.760418Q155.875 53.588543 154.875 53.588543L153.0625 53.588543L153.0625 60.151043ZM165.04688 59.166668L166.14062 59.291668Q165.89062 60.244793 165.1875 60.776043Q164.48438 61.307293 163.40625 61.307293Q162.04688 61.307293 161.23438 60.463543Q160.4375 59.619793 160.4375 58.104168Q160.4375 56.541668 161.25 55.682293Q162.0625 54.807293 163.34375 54.807293Q164.59375 54.807293 165.375 55.651043Q166.17188 56.494793 166.17188 58.041668Q166.17188 58.135418 166.17188 58.322918L161.53125 58.322918Q161.59375 59.354168 162.10938 59.901043Q162.625 60.432293 163.40625 60.432293Q163.98438 60.432293 164.39062 60.135418Q164.8125 59.822918 165.04688 59.166668ZM161.59375 57.463543L165.0625 57.463543Q165.0 56.666668 164.67188 56.276043Q164.15625 55.666668 163.35938 55.666668Q162.625 55.666668 162.125 56.151043Q161.64062 56.635418 161.59375 57.463543ZM171.85938 58.885418L172.89062 59.026043Q172.71875 60.088543 172.01562 60.697918Q171.3125 61.307293 170.29688 61.307293Q169.01562 61.307293 168.23438 60.479168Q167.46875 59.635418 167.46875 58.072918Q167.46875 57.072918 167.79688 56.322918Q168.14062 55.557293 168.8125 55.182293Q169.5 54.807293 170.3125 54.807293Q171.3125 54.807293 171.95312 55.322918Q172.60938 55.822918 172.79688 56.776043L171.76562 56.932293Q171.625 56.307293 171.25 55.994793Q170.875 55.666668 170.34375 55.666668Q169.54688 55.666668 169.04688 56.244793Q168.54688 56.807293 168.54688 58.041668Q168.54688 59.307293 169.03125 59.869793Q169.51562 60.432293 170.28125 60.432293Q170.90625 60.432293 171.3125 60.057293Q171.73438 59.682293 171.85938 58.885418ZM173.79688 53.791668L173.79688 52.572918L174.85938 52.572918L174.85938 53.791668L173.79688 53.791668ZM173.79688 61.166668L173.79688 54.947918L174.85938 54.947918L174.85938 61.166668L173.79688 61.166668ZM176.375 59.307293L177.40625 59.151043Q177.5 59.776043 177.89062 60.104168Q178.29688 60.432293 179.03125 60.432293Q179.75 60.432293 180.09375 60.151043Q180.45312 59.854168 180.45312 59.447918Q180.45312 59.088543 180.14062 58.885418Q179.92188 58.744793 179.0625 58.526043Q177.90625 58.229168 177.45312 58.026043Q177.01562 57.807293 176.78125 57.432293Q176.54688 57.057293 176.54688 56.588543Q176.54688 56.182293 176.73438 55.822918Q176.92188 55.463543 177.25 55.229168Q177.5 55.057293 177.92188 54.932293Q178.34375 54.807293 178.84375 54.807293Q179.5625 54.807293 180.10938 55.026043Q180.67188 55.229168 180.9375 55.588543Q181.20312 55.947918 181.29688 56.541668L180.26562 56.682293Q180.20312 56.213543 179.85938 55.947918Q179.53125 55.666668 178.90625 55.666668Q178.1875 55.666668 177.875 55.916668Q177.5625 56.151043 177.5625 56.479168Q177.5625 56.682293 177.6875 56.838543Q177.82812 57.010418 178.09375 57.119793Q178.25 57.182293 179.03125 57.385418Q180.15625 57.697918 180.59375 57.885418Q181.03125 58.072918 181.28125 58.432293Q181.53125 58.791668 181.53125 59.338543Q181.53125 59.869793 181.21875 60.338543Q180.92188 60.791668 180.34375 61.057293Q179.76562 61.307293 179.03125 61.307293Q177.8125 61.307293 177.17188 60.807293Q176.54688 60.291668 176.375 59.307293ZM187.85938 60.401043Q187.26562 60.901043 186.71875 61.104168Q186.1875 61.307293 185.5625 61.307293Q184.53125 61.307293 183.98438 60.807293Q183.4375 60.307293 183.4375 59.526043Q183.4375 59.072918 183.64062 58.697918Q183.84375 58.307293 184.1875 58.088543Q184.53125 57.854168 184.95312 57.744793Q185.25 57.651043 185.89062 57.572918Q187.15625 57.432293 187.76562 57.213543Q187.76562 56.994793 187.76562 56.947918Q187.76562 56.291668 187.46875 56.026043Q187.0625 55.682293 186.26562 55.682293Q185.53125 55.682293 185.17188 55.947918Q184.8125 56.197918 184.64062 56.854168L183.60938 56.713543Q183.75 56.057293 184.07812 55.651043Q184.40625 55.244793 185.01562 55.026043Q185.625 54.807293 186.42188 54.807293Q187.21875 54.807293 187.71875 54.994793Q188.21875 55.182293 188.45312 55.463543Q188.6875 55.744793 188.78125 56.182293Q188.82812 56.447918 188.82812 57.151043L188.82812 58.557293Q188.82812 60.026043 188.89062 60.416668Q188.96875 60.807293 189.17188 61.166668L188.0625 61.166668Q187.90625 60.838543 187.85938 60.401043ZM187.76562 58.041668Q187.1875 58.276043 186.04688 58.447918Q185.39062 58.541668 185.125 58.666668Q184.85938 58.776043 184.70312 58.994793Q184.5625 59.213543 184.5625 59.494793Q184.5625 59.916668 184.875 60.197918Q185.20312 60.479168 185.8125 60.479168Q186.42188 60.479168 186.89062 60.213543Q187.375 59.947918 187.59375 59.479168Q187.76562 59.119793 187.76562 58.432293L187.76562 58.041668ZM190.79688 61.166668L190.79688 54.947918L191.73438 54.947918L191.73438 55.822918Q192.03125 55.354168 192.51562 55.088543Q193.0 54.807293 193.625 54.807293Q194.3125 54.807293 194.75 55.088543Q195.20312 55.369793 195.375 55.885418Q196.125 54.807293 197.29688 54.807293Q198.23438 54.807293 198.71875 55.322918Q199.21875 55.822918 199.21875 56.901043L199.21875 61.166668L198.17188 61.166668L198.17188 57.244793Q198.17188 56.619793 198.0625 56.338543Q197.96875 56.057293 197.70312 55.885418Q197.4375 55.713543 197.0625 55.713543Q196.40625 55.713543 195.96875 56.151043Q195.54688 56.588543 195.54688 57.557293L195.54688 61.166668L194.48438 61.166668L194.48438 57.119793Q194.48438 56.416668 194.21875 56.072918Q193.96875 55.713543 193.39062 55.713543Q192.9375 55.713543 192.5625 55.947918Q192.1875 56.182293 192.01562 56.635418Q191.84375 57.088543 191.84375 57.932293L191.84375 61.166668L190.79688 61.166668ZM206.04688 59.166668L207.14062 59.291668Q206.89062 60.244793 206.1875 60.776043Q205.48438 61.307293 204.40625 61.307293Q203.04688 61.307293 202.23438 60.463543Q201.4375 59.619793 201.4375 58.104168Q201.4375 56.541668 202.25 55.682293Q203.0625 54.807293 204.34375 54.807293Q205.59375 54.807293 206.375 55.651043Q207.17188 56.494793 207.17188 58.041668Q207.17188 58.135418 207.17188 58.322918L202.53125 58.322918Q202.59375 59.354168 203.10938 59.901043Q203.625 60.432293 204.40625 60.432293Q204.98438 60.432293 205.39062 60.135418Q205.8125 59.822918 206.04688 59.166668ZM202.59375 57.463543L206.0625 57.463543Q206.0 56.666668 205.67188 56.276043Q205.15625 55.666668 204.35938 55.666668Q203.625 55.666668 203.125 56.151043Q202.64062 56.635418 202.59375 57.463543ZM208.79688 61.166668L208.79688 54.947918L209.73438 54.947918L209.73438 55.822918Q210.42188 54.807293 211.71875 54.807293Q212.28125 54.807293 212.75 55.010418Q213.23438 55.213543 213.46875 55.541668Q213.70312 55.869793 213.79688 56.307293Q213.84375 56.604168 213.84375 57.338543L213.84375 61.166668L212.79688 61.166668L212.79688 57.385418Q212.79688 56.729168 212.67188 56.416668Q212.54688 56.104168 212.23438 55.916668Q211.92188 55.713543 211.5 55.713543Q210.82812 55.713543 210.32812 56.151043Q209.84375 56.572918 209.84375 57.760418L209.84375 61.166668L208.79688 61.166668ZM218.09375 60.229168L218.25 61.151043Q217.79688 61.244793 217.45312 61.244793Q216.875 61.244793 216.5625 61.072918Q216.25 60.885418 216.10938 60.588543Q215.98438 60.291668 215.98438 59.338543L215.98438 55.760418L215.21875 55.760418L215.21875 54.947918L215.98438 54.947918L215.98438 53.401043L217.03125 52.776043L217.03125 54.947918L218.09375 54.947918L218.09375 55.760418L217.03125 55.760418L217.03125 59.401043Q217.03125 59.854168 217.07812 59.979168Q217.14062 60.104168 217.26562 60.182293Q217.39062 60.260418 217.625 60.260418Q217.8125 60.260418 218.09375 60.229168ZM223.04688 59.166668L224.14062 59.291668Q223.89062 60.244793 223.1875 60.776043Q222.48438 61.307293 221.40625 61.307293Q220.04688 61.307293 219.23438 60.463543Q218.4375 59.619793 218.4375 58.104168Q218.4375 56.541668 219.25 55.682293Q220.0625 54.807293 221.34375 54.807293Q222.59375 54.807293 223.375 55.651043Q224.17188 56.494793 224.17188 58.041668Q224.17188 58.135418 224.17188 58.322918L219.53125 58.322918Q219.59375 59.354168 220.10938 59.901043Q220.625 60.432293 221.40625 60.432293Q221.98438 60.432293 222.39062 60.135418Q222.8125 59.822918 223.04688 59.166668ZM219.59375 57.463543L223.0625 57.463543Q223.0 56.666668 222.67188 56.276043Q222.15625 55.666668 221.35938 55.666668Q220.625 55.666668 220.125 56.151043Q219.64062 56.635418 219.59375 57.463543ZM228.79688 61.166668L228.79688 54.947918L229.73438 54.947918L229.73438 55.822918Q230.42188 54.807293 231.71875 54.807293Q232.28125 54.807293 232.75 55.010418Q233.23438 55.213543 233.46875 55.541668Q233.70312 55.869793 233.79688 56.307293Q233.84375 56.604168 233.84375 57.338543L233.84375 61.166668L232.79688 61.166668L232.79688 57.385418Q232.79688 56.729168 232.67188 56.416668Q232.54688 56.104168 232.23438 55.916668Q231.92188 55.713543 231.5 55.713543Q230.82812 55.713543 230.32812 56.151043Q229.84375 56.572918 229.84375 57.760418L229.84375 61.166668L228.79688 61.166668ZM235.40625 58.057293Q235.40625 56.322918 236.35938 55.494793Q237.15625 54.807293 238.3125 54.807293Q239.59375 54.807293 240.40625 55.651043Q241.23438 56.479168 241.23438 57.963543Q241.23438 59.166668 240.875 59.854168Q240.51562 60.541668 239.8125 60.932293Q239.125 61.307293 238.3125 61.307293Q237.01562 61.307293 236.20312 60.479168Q235.40625 59.635418 235.40625 58.057293ZM236.48438 58.057293Q236.48438 59.244793 237.0 59.838543Q237.53125 60.432293 238.3125 60.432293Q239.10938 60.432293 239.625 59.838543Q240.14062 59.244793 240.14062 58.026043Q240.14062 56.869793 239.60938 56.276043Q239.09375 55.682293 238.3125 55.682293Q237.53125 55.682293 237.0 56.276043Q236.48438 56.854168 236.48438 58.057293Z" fill-rule="nonzero"/><path fill="#ea4335" d="M258.0 52.166668C258.0 51.614384 258.44772 51.166668 259.0 51.166668L269.0 51.166668C269.55228 51.166668 270.0 51.614384 270.0 52.166668L270.0 62.166668C270.0 62.718952 269.55228 63.166668 269.0 63.166668L259.0 63.166668C258.44772 63.166668 258.0 62.718952 258.0 62.166668Z" fill-rule="nonzero"/><path fill="#1a1a1a" d="M278.79688 61.166668L278.79688 54.947918L279.73438 54.947918L279.73438 55.822918Q280.42188 54.807293 281.71875 54.807293Q282.28125 54.807293 282.75 55.010418Q283.23438 55.213543 283.46875 55.541668Q283.70312 55.869793 283.79688 56.307293Q283.84375 56.604168 283.84375 57.338543L283.84375 61.166668L282.79688 61.166668L282.79688 57.385418Q282.79688 56.729168 282.67188 56.416668Q282.54688 56.104168 282.23438 55.916668Q281.92188 55.713543 281.5 55.713543Q280.82812 55.713543 280.32812 56.151043Q279.84375 56.572918 279.84375 57.760418L279.84375 61.166668L278.79688 61.166668ZM285.40625 58.057293Q285.40625 56.322918 286.35938 55.494793Q287.15625 54.807293 288.3125 54.807293Q289.59375 54.807293 290.40625 55.651043Q291.23438 56.479168 291.23438 57.963543Q291.23438 59.166668 290.875 59.854168Q290.51562 60.541668 289.8125 60.932293Q289.125 61.307293 288.3125 61.307293Q287.01562 61.307293 286.20312 60.479168Q285.40625 59.635418 285.40625 58.057293ZM286.48438 58.057293Q286.48438 59.244793 287.0 59.838543Q287.53125 60.432293 288.3125 60.432293Q289.10938 60.432293 289.625 59.838543Q290.14062 59.244793 290.14062 58.026043Q290.14062 56.869793 289.60938 56.276043Q289.09375 55.682293 288.3125 55.682293Q287.53125 55.682293 287.0 56.276043Q286.48438 56.854168 286.48438 58.057293Z" fill-rule="nonzero"/><path fill="#fbbc04" d="M308.0 52.166668C308.0 51.614384 308.44772 51.166668 309.0 51.166668L319.0 51.166668C319.55228 51.166668 320.0 51.614384 320.0 52.166668L320.0 62.166668C320.0 62.718952 319.55228 63.166668 319.0 63.166668L309.0 63.166668C308.44772 63.166668 308.0 62.718952 308.0 62.166668Z" fill-rule="nonzero"/><path fill="#1a1a1a" d="M328.79688 61.166668L328.79688 54.947918L329.73438 54.947918L329.73438 55.822918Q330.42188 54.807293 331.71875 54.807293Q332.28125 54.807293 332.75 55.010418Q333.23438 55.213543 333.46875 55.541668Q333.70312 55.869793 333.79688 56.307293Q333.84375 56.604168 333.84375 57.338543L333.84375 61.166668L332.79688 61.166668L332.79688 57.385418Q332.79688 56.729168 332.67188 56.416668Q332.54688 56.104168 332.23438 55.916668Q331.92188 55.713543 331.5 55.713543Q330.82812 55.713543 330.32812 56.151043Q329.84375 56.572918 329.84375 57.760418L329.84375 61.166668L328.79688 61.166668ZM335.40625 58.057293Q335.40625 56.322918 336.35938 55.494793Q337.15625 54.807293 338.3125 54.807293Q339.59375 54.807293 340.40625 55.651043Q341.23438 56.479168 341.23438 57.963543Q341.23438 59.166668 340.875 59.854168Q340.51562 60.541668 339.8125 60.932293Q339.125 61.307293 338.3125 61.307293Q337.01562 61.307293 336.20312 60.479168Q335.40625 59.635418 335.40625 58.057293ZM336.48438 58.057293Q336.48438 59.244793 337.0 59.838543Q337.53125 60.432293 338.3125 60.432293Q339.10938 60.432293 339.625 59.838543Q340.14062 59.244793 340.14062 58.026043Q340.14062 56.869793 339.60938 56.276043Q339.09375 55.682293 338.3125 55.682293Q337.53125 55.682293 337.0 56.276043Q336.48438 56.854168 336.48438 58.057293ZM342.79688 61.166668L342.79688 54.947918L343.73438 54.947918L343.73438 55.822918Q344.42188 54.807293 345.71875 54.807293Q346.28125 54.807293 346.75 55.010418Q347.23438 55.213543 347.46875 55.541668Q347.70312 55.869793 347.79688 56.307293Q347.84375 56.604168 347.84375 57.338543L347.84375 61.166668L346.79688 61.166668L346.79688 57.385418Q346.79688 56.729168 346.67188 56.416668Q346.54688 56.104168 346.23438 55.916668Q345.92188 55.713543 345.5 55.713543Q344.82812 55.713543 344.32812 56.151043Q343.84375 56.572918 343.84375 57.760418L343.84375 61.166668L342.79688 61.166668ZM352.375 59.307293L353.40625 59.151043Q353.5 59.776043 353.89062 60.104168Q354.29688 60.432293 355.03125 60.432293Q355.75 60.432293 356.09375 60.151043Q356.45312 59.854168 356.45312 59.447918Q356.45312 59.088543 356.14062 58.885418Q355.92188 58.744793 355.0625 58.526043Q353.90625 58.229168 353.45312 58.026043Q353.01562 57.807293 352.78125 57.432293Q352.54688 57.057293 352.54688 56.588543Q352.54688 56.182293 352.73438 55.822918Q352.92188 55.463543 353.25 55.229168Q353.5 55.057293 353.92188 54.932293Q354.34375 54.807293 354.84375 54.807293Q355.5625 54.807293 356.10938 55.026043Q356.67188 55.229168 356.9375 55.588543Q357.20312 55.947918 357.29688 56.541668L356.26562 56.682293Q356.20312 56.213543 355.85938 55.947918Q355.53125 55.666668 354.90625 55.666668Q354.1875 55.666668 353.875 55.916668Q353.5625 56.151043 353.5625 56.479168Q353.5625 56.682293 353.6875 56.838543Q353.82812 57.010418 354.09375 57.119793Q354.25 57.182293 355.03125 57.385418Q356.15625 57.697918 356.59375 57.885418Q357.03125 58.072918 357.28125 58.432293Q357.53125 58.791668 357.53125 59.338543Q357.53125 59.869793 357.21875 60.338543Q356.92188 60.791668 356.34375 61.057293Q355.76562 61.307293 355.03125 61.307293Q353.8125 61.307293 353.17188 60.807293Q352.54688 60.291668 352.375 59.307293ZM359.40625 58.057293Q359.40625 56.322918 360.35938 55.494793Q361.15625 54.807293 362.3125 54.807293Q363.59375 54.807293 364.40625 55.651043Q365.23438 56.479168 365.23438 57.963543Q365.23438 59.166668 364.875 59.854168Q364.51562 60.541668 363.8125 60.932293Q363.125 61.307293 362.3125 61.307293Q361.01562 61.307293 360.20312 60.479168Q359.40625 59.635418 359.40625 58.057293ZM360.48438 58.057293Q360.48438 59.244793 361.0 59.838543Q361.53125 60.432293 362.3125 60.432293Q363.10938 60.432293 363.625 59.838543Q364.14062 59.244793 364.14062 58.026043Q364.14062 56.869793 363.60938 56.276043Q363.09375 55.682293 362.3125 55.682293Q361.53125 55.682293 361.0 56.276043Q360.48438 56.854168 360.48438 58.057293Z" fill-rule="nonzero"/><path fill="#34a853" d="M382.0 52.166668C382.0 51.614384 382.44772 51.166668 383.0 51.166668L393.0 51.166668C393.55228 51.166668 394.0 51.614384 394.0 52.166668L394.0 62.166668C394.0 62.718952 393.55228 63.166668 393.0 63.166668L383.0 63.166668C382.44772 63.166668 382.0 62.718952 382.0 62.166668Z" fill-rule="nonzero"/><path fill="#1a1a1a" d="M402.375 59.307293L403.40625 59.151043Q403.5 59.776043 403.89062 60.104168Q404.29688 60.432293 405.03125 60.432293Q405.75 60.432293 406.09375 60.151043Q406.45312 59.854168 406.45312 59.447918Q406.45312 59.088543 406.14062 58.885418Q405.92188 58.744793 405.0625 58.526043Q403.90625 58.229168 403.45312 58.026043Q403.01562 57.807293 402.78125 57.432293Q402.54688 57.057293 402.54688 56.588543Q402.54688 56.182293 402.73438 55.822918Q402.92188 55.463543 403.25 55.229168Q403.5 55.057293 403.92188 54.932293Q404.34375 54.807293 404.84375 54.807293Q405.5625 54.807293 406.10938 55.026043Q406.67188 55.229168 406.9375 55.588543Q407.20312 55.947918 407.29688 56.541668L406.26562 56.682293Q406.20312 56.213543 405.85938 55.947918Q405.53125 55.666668 404.90625 55.666668Q404.1875 55.666668 403.875 55.916668Q403.5625 56.151043 403.5625 56.479168Q403.5625 56.682293 403.6875 56.838543Q403.82812 57.010418 404.09375 57.119793Q404.25 57.182293 405.03125 57.385418Q406.15625 57.697918 406.59375 57.885418Q407.03125 58.072918 407.28125 58.432293Q407.53125 58.791668 407.53125 59.338543Q407.53125 59.869793 407.21875 60.338543Q406.92188 60.791668 406.34375 61.057293Q405.76562 61.307293 405.03125 61.307293Q403.8125 61.307293 403.17188 60.807293Q402.54688 60.291668 402.375 59.307293ZM410.15625 61.166668L410.15625 54.947918L411.21875 54.947918L411.21875 61.166668L410.15625 61.166668ZM411.40625 54.166668L410.5625 54.166668L409.20312 52.526043L410.625 52.526043L411.40625 54.166668Z" fill-rule="nonzero"/><path fill="#ff6d01" d="M428.0 52.166668C428.0 51.614384 428.44772 51.166668 429.0 51.166668L439.0 51.166668C439.55228 51.166668 440.0 51.614384 440.0 52.166668L440.0 62.166668C440.0 62.718952 439.55228 63.166668 439.0 63.166668L429.0 63.166668C428.44772 63.166668 428.0 62.718952 428.0 62.166668Z" fill-rule="nonzero"/><path fill="#1a1a1a" d="M448.92188 61.166668L448.92188 52.572918L451.89062 52.572918Q452.89062 52.572918 453.42188 52.697918Q454.15625 52.869793 454.67188 53.307293Q455.35938 53.885418 455.6875 54.791668Q456.03125 55.682293 456.03125 56.822918Q456.03125 57.807293 455.79688 58.557293Q455.57812 59.307293 455.21875 59.807293Q454.85938 60.307293 454.42188 60.588543Q454.0 60.869793 453.40625 61.026043Q452.8125 61.166668 452.03125 61.166668L448.92188 61.166668ZM450.0625 60.151043L451.89062 60.151043Q452.75 60.151043 453.23438 59.994793Q453.71875 59.838543 454.0 59.541668Q454.40625 59.151043 454.625 58.463543Q454.85938 57.776043 454.85938 56.807293Q454.85938 55.463543 454.40625 54.744793Q453.96875 54.010418 453.34375 53.760418Q452.875 53.588543 451.875 53.588543L450.0625 53.588543L450.0625 60.151043ZM462.04688 59.166668L463.14062 59.291668Q462.89062 60.244793 462.1875 60.776043Q461.48438 61.307293 460.40625 61.307293Q459.04688 61.307293 458.23438 60.463543Q457.4375 59.619793 457.4375 58.104168Q457.4375 56.541668 458.25 55.682293Q459.0625 54.807293 460.34375 54.807293Q461.59375 54.807293 462.375 55.651043Q463.17188 56.494793 463.17188 58.041668Q463.17188 58.135418 463.17188 58.322918L458.53125 58.322918Q458.59375 59.354168 459.10938 59.901043Q459.625 60.432293 460.40625 60.432293Q460.98438 60.432293 461.39062 60.135418Q461.8125 59.822918 462.04688 59.166668ZM458.59375 57.463543L462.0625 57.463543Q462.0 56.666668 461.67188 56.276043Q461.15625 55.666668 460.35938 55.666668Q459.625 55.666668 459.125 56.151043Q458.64062 56.635418 458.59375 57.463543ZM468.85938 58.885418L469.89062 59.026043Q469.71875 60.088543 469.01562 60.697918Q468.3125 61.307293 467.29688 61.307293Q466.01562 61.307293 465.23438 60.479168Q464.46875 59.635418 464.46875 58.072918Q464.46875 57.072918 464.79688 56.322918Q465.14062 55.557293 465.8125 55.182293Q466.5 54.807293 467.3125 54.807293Q468.3125 54.807293 468.95312 55.322918Q469.60938 55.822918 469.79688 56.776043L468.76562 56.932293Q468.625 56.307293 468.25 55.994793Q467.875 55.666668 467.34375 55.666668Q466.54688 55.666668 466.04688 56.244793Q465.54688 56.807293 465.54688 58.041668Q465.54688 59.307293 466.03125 59.869793Q466.51562 60.432293 467.28125 60.432293Q467.90625 60.432293 468.3125 60.057293Q468.73438 59.682293 468.85938 58.885418ZM470.79688 53.791668L470.79688 52.572918L471.85938 52.572918L471.85938 53.791668L470.79688 53.791668ZM470.79688 61.166668L470.79688 54.947918L471.85938 54.947918L471.85938 61.166668L470.79688 61.166668ZM473.375 59.307293L474.40625 59.151043Q474.5 59.776043 474.89062 60.104168Q475.29688 60.432293 476.03125 60.432293Q476.75 60.432293 477.09375 60.151043Q477.45312 59.854168 477.45312 59.447918Q477.45312 59.088543 477.14062 58.885418Q476.92188 58.744793 476.0625 58.526043Q474.90625 58.229168 474.45312 58.026043Q474.01562 57.807293 473.78125 57.432293Q473.54688 57.057293 473.54688 56.588543Q473.54688 56.182293 473.73438 55.822918Q473.92188 55.463543 474.25 55.229168Q474.5 55.057293 474.92188 54.932293Q475.34375 54.807293 475.84375 54.807293Q476.5625 54.807293 477.10938 55.026043Q477.67188 55.229168 477.9375 55.588543Q478.20312 55.947918 478.29688 56.541668L477.26562 56.682293Q477.20312 56.213543 476.85938 55.947918Q476.53125 55.666668 475.90625 55.666668Q475.1875 55.666668 474.875 55.916668Q474.5625 56.151043 474.5625 56.479168Q474.5625 56.682293 474.6875 56.838543Q474.82812 57.010418 475.09375 57.119793Q475.25 57.182293 476.03125 57.385418Q477.15625 57.697918 477.59375 57.885418Q478.03125 58.072918 478.28125 58.432293Q478.53125 58.791668 478.53125 59.338543Q478.53125 59.869793 478.21875 60.338543Q477.92188 60.791668 477.34375 61.057293Q476.76562 61.307293 476.03125 61.307293Q474.8125 61.307293 474.17188 60.807293Q473.54688 60.291668 473.375 59.307293ZM484.85938 60.401043Q484.26562 60.901043 483.71875 61.104168Q483.1875 61.307293 482.5625 61.307293Q481.53125 61.307293 480.98438 60.807293Q480.4375 60.307293 480.4375 59.526043Q480.4375 59.072918 480.64062 58.697918Q480.84375 58.307293 481.1875 58.088543Q481.53125 57.854168 481.95312 57.744793Q482.25 57.651043 482.89062 57.572918Q484.15625 57.432293 484.76562 57.213543Q484.76562 56.994793 484.76562 56.947918Q484.76562 56.291668 484.46875 56.026043Q484.0625 55.682293 483.26562 55.682293Q482.53125 55.682293 482.17188 55.947918Q481.8125 56.197918 481.64062 56.854168L480.60938 56.713543Q480.75 56.057293 481.07812 55.651043Q481.40625 55.244793 482.01562 55.026043Q482.625 54.807293 483.42188 54.807293Q484.21875 54.807293 484.71875 54.994793Q485.21875 55.182293 485.45312 55.463543Q485.6875 55.744793 485.78125 56.182293Q485.82812 56.447918 485.82812 57.151043L485.82812 58.557293Q485.82812 60.026043 485.89062 60.416668Q485.96875 60.807293 486.17188 61.166668L485.0625 61.166668Q484.90625 60.838543 484.85938 60.401043ZM484.76562 58.041668Q484.1875 58.276043 483.04688 58.447918Q482.39062 58.541668 482.125 58.666668Q481.85938 58.776043 481.70312 58.994793Q481.5625 59.213543 481.5625 59.494793Q481.5625 59.916668 481.875 60.197918Q482.20312 60.479168 482.8125 60.479168Q483.42188 60.479168 483.89062 60.213543Q484.375 59.947918 484.59375 59.479168Q484.76562 59.119793 484.76562 58.432293L484.76562 58.041668ZM487.79688 61.166668L487.79688 54.947918L488.73438 54.947918L488.73438 55.822918Q489.03125 55.354168 489.51562 55.088543Q490.0 54.807293 490.625 54.807293Q491.3125 54.807293 491.75 55.088543Q492.20312 55.369793 492.375 55.885418Q493.125 54.807293 494.29688 54.807293Q495.23438 54.807293 495.71875 55.322918Q496.21875 55.822918 496.21875 56.901043L496.21875 61.166668L495.17188 61.166668L495.17188 57.244793Q495.17188 56.619793 495.0625 56.338543Q494.96875 56.057293 494.70312 55.885418Q494.4375 55.713543 494.0625 55.713543Q493.40625 55.713543 492.96875 56.151043Q492.54688 56.588543 492.54688 57.557293L492.54688 61.166668L491.48438 61.166668L491.48438 57.119793Q491.48438 56.416668 491.21875 56.072918Q490.96875 55.713543 490.39062 55.713543Q489.9375 55.713543 489.5625 55.947918Q489.1875 56.182293 489.01562 56.635418Q488.84375 57.088543 488.84375 57.932293L488.84375 61.166668L487.79688 61.166668ZM503.04688 59.166668L504.14062 59.291668Q503.89062 60.244793 503.1875 60.776043Q502.48438 61.307293 501.40625 61.307293Q500.04688 61.307293 499.23438 60.463543Q498.4375 59.619793 498.4375 58.104168Q498.4375 56.541668 499.25 55.682293Q500.0625 54.807293 501.34375 54.807293Q502.59375 54.807293 503.375 55.651043Q504.17188 56.494793 504.17188 58.041668Q504.17188 58.135418 504.17188 58.322918L499.53125 58.322918Q499.59375 59.354168 500.10938 59.901043Q500.625 60.432293 501.40625 60.432293Q501.98438 60.432293 502.39062 60.135418Q502.8125 59.822918 503.04688 59.166668ZM499.59375 57.463543L503.0625 57.463543Q503.0 56.666668 502.67188 56.276043Q502.15625 55.666668 501.35938 55.666668Q500.625 55.666668 500.125 56.151043Q499.64062 56.635418 499.59375 57.463543ZM505.79688 61.166668L505.79688 54.947918L506.73438 54.947918L506.73438 55.822918Q507.42188 54.807293 508.71875 54.807293Q509.28125 54.807293 509.75 55.010418Q510.23438 55.213543 510.46875 55.541668Q510.70312 55.869793 510.79688 56.307293Q510.84375 56.604168 510.84375 57.338543L510.84375 61.166668L509.79688 61.166668L509.79688 57.385418Q509.79688 56.729168 509.67188 56.416668Q509.54688 56.104168 509.23438 55.916668Q508.92188 55.713543 508.5 55.713543Q507.82812 55.713543 507.32812 56.151043Q506.84375 56.572918 506.84375 57.760418L506.84375 61.166668L505.79688 61.166668ZM515.09375 60.229168L515.25 61.151043Q514.7969 61.244793 514.4531 61.244793Q513.875 61.244793 513.5625 61.072918Q513.25 60.885418 513.1094 60.588543Q512.9844 60.291668 512.9844 59.338543L512.9844 55.760418L512.21875 55.760418L512.21875 54.947918L512.9844 54.947918L512.9844 53.401043L514.03125 52.776043L514.03125 54.947918L515.09375 54.947918L515.09375 55.760418L514.03125 55.760418L514.03125 59.401043Q514.03125 59.854168 514.0781 59.979168Q514.1406 60.104168 514.2656 60.182293Q514.3906 60.260418 514.625 60.260418Q514.8125 60.260418 515.09375 60.229168ZM520.0469 59.166668L521.1406 59.291668Q520.8906 60.244793 520.1875 60.776043Q519.4844 61.307293 518.40625 61.307293Q517.0469 61.307293 516.2344 60.463543Q515.4375 59.619793 515.4375 58.104168Q515.4375 56.541668 516.25 55.682293Q517.0625 54.807293 518.34375 54.807293Q519.59375 54.807293 520.375 55.651043Q521.1719 56.494793 521.1719 58.041668Q521.1719 58.135418 521.1719 58.322918L516.53125 58.322918Q516.59375 59.354168 517.1094 59.901043Q517.625 60.432293 518.40625 60.432293Q518.9844 60.432293 519.3906 60.135418Q519.8125 59.822918 520.0469 59.166668ZM516.59375 57.463543L520.0625 57.463543Q520.0 56.666668 519.6719 56.276043Q519.15625 55.666668 518.3594 55.666668Q517.625 55.666668 517.125 56.151043Q516.6406 56.635418 516.59375 57.463543ZM525.375 59.307293L526.40625 59.151043Q526.5 59.776043 526.8906 60.104168Q527.2969 60.432293 528.03125 60.432293Q528.75 60.432293 529.09375 60.151043Q529.4531 59.854168 529.4531 59.447918Q529.4531 59.088543 529.1406 58.885418Q528.9219 58.744793 528.0625 58.526043Q526.90625 58.229168 526.4531 58.026043Q526.0156 57.807293 525.78125 57.432293Q525.5469 57.057293 525.5469 56.588543Q525.5469 56.182293 525.7344 55.822918Q525.9219 55.463543 526.25 55.229168Q526.5 55.057293 526.9219 54.932293Q527.34375 54.807293 527.84375 54.807293Q528.5625 54.807293 529.1094 55.026043Q529.6719 55.229168 529.9375 55.588543Q530.2031 55.947918 530.2969 56.541668L529.2656 56.682293Q529.2031 56.213543 528.8594 55.947918Q528.53125 55.666668 527.90625 55.666668Q527.1875 55.666668 526.875 55.916668Q526.5625 56.151043 526.5625 56.479168Q526.5625 56.682293 526.6875 56.838543Q526.8281 57.010418 527.09375 57.119793Q527.25 57.182293 528.03125 57.385418Q529.15625 57.697918 529.59375 57.885418Q530.03125 58.072918 530.28125 58.432293Q530.53125 58.791668 530.53125 59.338543Q530.53125 59.869793 530.21875 60.338543Q529.9219 60.791668 529.34375 61.057293Q528.7656 61.307293 528.03125 61.307293Q526.8125 61.307293 526.1719 60.807293Q525.5469 60.291668 525.375 59.307293ZM533.15625 61.166668L533.15625 54.947918L534.21875 54.947918L534.21875 61.166668L533.15625 61.166668ZM534.40625 54.166668L533.5625 54.166668L532.2031 52.526043L533.625 52.526043L534.40625 54.166668Z" fill-rule="nonzero"/><path fill="#757575" d="M27.465626 29.684376L29.35625 30.153126Q28.7625 32.496876 27.215626 33.73125Q25.66875 34.95 23.41875 34.95Q21.10625 34.95 19.653126 34.0125Q18.215626 33.059376 17.45 31.278126Q16.7 29.48125 16.7 27.434376Q16.7 25.2 17.54375 23.54375Q18.403126 21.871876 19.98125 21.0125Q21.559376 20.1375 23.45 20.1375Q25.60625 20.1375 27.059376 21.23125Q28.528126 22.325 29.10625 24.309376L27.246876 24.746876Q26.746876 23.184376 25.79375 22.48125Q24.85625 21.7625 23.41875 21.7625Q21.7625 21.7625 20.653126 22.559376Q19.54375 23.340626 19.090626 24.684376Q18.653126 26.0125 18.653126 27.41875Q18.653126 29.246876 19.184376 30.621876Q19.715626 31.98125 20.840626 32.653126Q21.965626 33.325 23.2625 33.325Q24.85625 33.325 25.965626 32.403126Q27.075 31.48125 27.465626 29.684376ZM30.371876 29.5125Q30.371876 26.6375 31.965626 25.246876Q33.309376 24.090626 35.23125 24.090626Q37.371876 24.090626 38.715626 25.496876Q40.075 26.903126 40.075 29.371876Q40.075 31.371876 39.48125 32.528126Q38.8875 33.66875 37.73125 34.309376Q36.590626 34.934376 35.23125 34.934376Q33.04375 34.934376 31.7 33.54375Q30.371876 32.1375 30.371876 29.5125ZM32.16875 29.5125Q32.16875 31.5125 33.028126 32.496876Q33.903126 33.48125 35.23125 33.48125Q36.54375 33.48125 37.403126 32.496876Q38.278126 31.496876 38.278126 29.45Q38.278126 27.528126 37.403126 26.54375Q36.528126 25.54375 35.23125 25.54375Q33.903126 25.54375 33.028126 26.54375Q32.16875 27.528126 32.16875 29.5125ZM42.0125 34.7L42.0125 24.325L43.60625 24.325L43.60625 25.809376Q44.746876 24.090626 46.903126 24.090626Q47.840626 24.090626 48.621876 24.434376Q49.41875 24.7625 49.809376 25.309376Q50.2 25.85625 50.35625 26.60625Q50.45 27.10625 50.45 28.325L50.45 34.7L48.684376 34.7L48.684376 28.3875Q48.684376 27.309376 48.48125 26.778126Q48.278126 26.246876 47.746876 25.934376Q47.23125 25.621876 46.528126 25.621876Q45.403126 25.621876 44.590626 26.340626Q43.778126 27.04375 43.778126 29.028126L43.778126 34.7L42.0125 34.7ZM55.85625 33.121876L56.10625 34.684376Q55.371876 34.840626 54.778126 34.840626Q53.825 34.840626 53.29375 34.54375Q52.778126 34.23125 52.559376 33.746876Q52.340626 33.246876 52.340626 31.66875L52.340626 25.7L51.059376 25.7L51.059376 24.325L52.340626 24.325L52.340626 21.7625L54.090626 20.7L54.090626 24.325L55.85625 24.325L55.85625 25.7L54.090626 25.7L54.090626 31.7625Q54.090626 32.5125 54.184376 32.73125Q54.278126 32.934376 54.48125 33.075Q54.7 33.2 55.090626 33.2Q55.371876 33.2 55.85625 33.121876ZM65.12187 31.35625L66.93437 31.590626Q66.5125 33.16875 65.34062 34.059376Q64.18437 34.934376 62.371876 34.934376Q60.10625 34.934376 58.7625 33.54375Q57.434376 32.1375 57.434376 29.60625Q57.434376 26.98125 58.778126 25.54375Q60.121876 24.090626 62.278126 24.090626Q64.35625 24.090626 65.66875 25.5125Q66.99687 26.91875 66.99687 29.496876Q66.99687 29.653126 66.98125 29.965626L59.246876 29.965626Q59.340626 31.66875 60.215626 32.575Q61.090626 33.48125 62.3875 33.48125Q63.35625 33.48125 64.02812 32.98125Q64.71562 32.465626 65.12187 31.35625ZM59.340626 28.5125L65.1375 28.5125Q65.02812 27.215626 64.48125 26.559376Q63.6375 25.54375 62.29375 25.54375Q61.090626 25.54375 60.2625 26.35625Q59.434376 27.153126 59.340626 28.5125ZM69.0125 34.7L69.0125 24.325L70.60625 24.325L70.60625 25.809376Q71.74687 24.090626 73.90312 24.090626Q74.84062 24.090626 75.62187 24.434376Q76.41875 24.7625 76.80937 25.309376Q77.2 25.85625 77.35625 26.60625Q77.45 27.10625 77.45 28.325L77.45 34.7L75.68437 34.7L75.68437 28.3875Q75.68437 27.309376 75.48125 26.778126Q75.27812 26.246876 74.74687 25.934376Q74.23125 25.621876 73.52812 25.621876Q72.40312 25.621876 71.59062 26.340626Q70.77812 27.04375 70.77812 29.028126L70.77812 34.7L69.0125 34.7ZM85.80937 34.7L85.80937 33.16875Q84.60625 34.934376 82.52812 34.934376Q81.60625 34.934376 80.80937 34.590626Q80.0125 34.23125 79.62187 33.7Q79.24687 33.16875 79.09062 32.3875Q78.98125 31.871876 78.98125 30.746876L78.98125 24.325L80.73125 24.325L80.73125 30.075Q80.73125 31.45 80.84062 31.934376Q81.0125 32.621876 81.54375 33.028126Q82.09062 33.41875 82.87187 33.41875Q83.66875 33.41875 84.35625 33.0125Q85.05937 32.60625 85.34062 31.91875Q85.6375 31.215626 85.6375 29.8875L85.6375 24.325L87.3875 24.325L87.3875 34.7L85.80937 34.7ZM92.85625 33.121876L93.10625 34.684376Q92.37187 34.840626 91.77812 34.840626Q90.825 34.840626 90.29375 34.54375Q89.77812 34.23125 89.55937 33.746876Q89.34062 33.246876 89.34062 31.66875L89.34062 25.7L88.05937 25.7L88.05937 24.325L89.34062 24.325L89.34062 21.7625L91.09062 20.7L91.09062 24.325L92.85625 24.325L92.85625 25.7L91.09062 25.7L91.09062 31.7625Q91.09062 32.5125 91.18437 32.73125Q91.27812 32.934376 91.48125 33.075Q91.7 33.2 92.09062 33.2Q92.37187 33.2 92.85625 33.121876ZM95.02812 22.403126L95.02812 20.3875L96.79375 20.3875L96.79375 22.403126L95.02812 22.403126ZM95.02812 34.7L95.02812 24.325L96.79375 24.325L96.79375 34.7L95.02812 34.7ZM111.74687 34.7L111.74687 33.3875Q110.7625 34.934376 108.84062 34.934376Q107.60625 34.934376 106.55937 34.246876Q105.52812 33.559376 104.95 32.340626Q104.3875 31.121876 104.3875 29.528126Q104.3875 27.965626 104.90312 26.7Q105.41875 25.434376 106.45 24.7625Q107.49687 24.090626 108.7625 24.090626Q109.7 24.090626 110.43437 24.496876Q111.16875 24.8875 111.6375 25.5125L111.6375 20.3875L113.37187 20.3875L113.37187 34.7L111.74687 34.7ZM106.18437 29.528126Q106.18437 31.5125 107.02812 32.496876Q107.87187 33.48125 109.0125 33.48125Q110.16875 33.48125 110.96562 32.54375Q111.77812 31.60625 111.77812 29.66875Q111.77812 27.54375 110.95 26.54375Q110.1375 25.54375 108.93437 25.54375Q107.7625 25.54375 106.96562 26.5125Q106.18437 27.465626 106.18437 29.528126ZM123.12187 31.35625L124.93437 31.590626Q124.5125 33.16875 123.34062 34.059376Q122.18437 34.934376 120.37187 34.934376Q118.10625 34.934376 116.7625 33.54375Q115.43437 32.1375 115.43437 29.60625Q115.43437 26.98125 116.77812 25.54375Q118.12187 24.090626 120.27812 24.090626Q122.35625 24.090626 123.66875 25.5125Q124.99687 26.91875 124.99687 29.496876Q124.99687 29.653126 124.98125 29.965626L117.24687 29.965626Q117.34062 31.66875 118.21562 32.575Q119.09062 33.48125 120.3875 33.48125Q121.35625 33.48125 122.02812 32.98125Q122.71562 32.465626 123.12187 31.35625ZM117.34062 28.5125L123.1375 28.5125Q123.02812 27.215626 122.48125 26.559376Q121.6375 25.54375 120.29375 25.54375Q119.09062 25.54375 118.2625 26.35625Q117.43437 27.153126 117.34062 28.5125ZM126.98125 34.7L126.98125 20.3875L128.73125 20.3875L128.73125 34.7L126.98125 34.7ZM143.79375 30.903126L145.5125 31.121876Q145.23125 32.91875 144.05937 33.934376Q142.90312 34.934376 141.2 34.934376Q139.075 34.934376 137.77812 33.54375Q136.48125 32.153126 136.48125 29.559376Q136.48125 27.871876 137.02812 26.621876Q137.59062 25.35625 138.73125 24.73125Q139.87187 24.090626 141.21562 24.090626Q142.90312 24.090626 143.96562 24.95Q145.04375 25.809376 145.35625 27.371876L143.6375 27.6375Q143.40312 26.590626 142.77812 26.075Q142.15312 25.54375 141.27812 25.54375Q139.95 25.54375 139.12187 26.496876Q138.29375 27.45 138.29375 29.496876Q138.29375 31.590626 139.09062 32.54375Q139.8875 33.48125 141.18437 33.48125Q142.21562 33.48125 142.90312 32.85625Q143.60625 32.215626 143.79375 30.903126ZM146.37187 29.5125Q146.37187 26.6375 147.96562 25.246876Q149.30937 24.090626 151.23125 24.090626Q153.37187 24.090626 154.71562 25.496876Q156.075 26.903126 156.075 29.371876Q156.075 31.371876 155.48125 32.528126Q154.8875 33.66875 153.73125 34.309376Q152.59062 34.934376 151.23125 34.934376Q149.04375 34.934376 147.7 33.54375Q146.37187 32.1375 146.37187 29.5125ZM148.16875 29.5125Q148.16875 31.5125 149.02812 32.496876Q149.90312 33.48125 151.23125 33.48125Q152.54375 33.48125 153.40312 32.496876Q154.27812 31.496876 154.27812 29.45Q154.27812 27.528126 153.40312 26.54375Q152.52812 25.54375 151.23125 25.54375Q149.90312 25.54375 149.02812 26.54375Q148.16875 27.528126 148.16875 29.5125ZM157.99687 34.7L157.99687 24.325L159.575 24.325L159.575 25.903126Q160.18437 24.79375 160.7 24.45Q161.21562 24.090626 161.825 24.090626Q162.71562 24.090626 163.6375 24.653126L163.02812 26.29375Q162.3875 25.903126 161.74687 25.903126Q161.16875 25.903126 160.7 26.2625Q160.24687 26.60625 160.04375 27.215626Q159.7625 28.153126 159.7625 29.2625L159.7625 34.7L157.99687 34.7ZM164.30937 31.60625L166.05937 31.325Q166.2 32.371876 166.87187 32.934376Q167.54375 33.48125 168.74687 33.48125Q169.95 33.48125 170.52812 32.996876Q171.12187 32.496876 171.12187 31.840626Q171.12187 31.246876 170.60625 30.903126Q170.24687 30.66875 168.80937 30.309376Q166.87187 29.809376 166.12187 29.465626Q165.3875 29.10625 164.99687 28.48125Q164.60625 27.840626 164.60625 27.075Q164.60625 26.3875 164.91875 25.79375Q165.24687 25.2 165.79375 24.809376Q166.2 24.5125 166.90312 24.309376Q167.62187 24.090626 168.43437 24.090626Q169.65312 24.090626 170.575 24.45Q171.49687 24.79375 171.93437 25.403126Q172.37187 25.996876 172.54375 26.996876L170.825 27.23125Q170.7 26.434376 170.1375 25.996876Q169.575 25.54375 168.55937 25.54375Q167.34062 25.54375 166.825 25.95Q166.30937 26.340626 166.30937 26.871876Q166.30937 27.215626 166.52812 27.496876Q166.73125 27.778126 167.2 27.965626Q167.46562 28.059376 168.74687 28.403126Q170.62187 28.903126 171.35625 29.23125Q172.09062 29.54375 172.5125 30.153126Q172.93437 30.746876 172.93437 31.653126Q172.93437 32.528126 172.41875 33.309376Q171.90312 34.090626 170.93437 34.5125Q169.96562 34.934376 168.74687 34.934376Q166.73125 34.934376 165.66875 34.090626Q164.60625 33.246876 164.30937 31.60625ZM174.37187 29.5125Q174.37187 26.6375 175.96562 25.246876Q177.30937 24.090626 179.23125 24.090626Q181.37187 24.090626 182.71562 25.496876Q184.075 26.903126 184.075 29.371876Q184.075 31.371876 183.48125 32.528126Q182.8875 33.66875 181.73125 34.309376Q180.59062 34.934376 179.23125 34.934376Q177.04375 34.934376 175.7 33.54375Q174.37187 32.1375 174.37187 29.5125ZM176.16875 29.5125Q176.16875 31.5125 177.02812 32.496876Q177.90312 33.48125 179.23125 33.48125Q180.54375 33.48125 181.40312 32.496876Q182.27812 31.496876 182.27812 29.45Q182.27812 27.528126 181.40312 26.54375Q180.52812 25.54375 179.23125 25.54375Q177.90312 25.54375 177.02812 26.54375Q176.16875 27.528126 176.16875 29.5125Z" fill-rule="nonzero"/></svg>