<svg version="1.1" viewBox="0.0 0.0 577.0 314.0" fill="none" stroke="none" stroke-linecap="square" stroke-miterlimit="10" width="577" height="314" xmlns:xlink="http://www.w3.org/1999/xlink" xmlns="http://www.w3.org/2000/svg"><path fill="#ffffff" d="M0 0L577.0 0L577.0 314.0L0 314.0L0 0Z" fill-rule="nonzero"/><path stroke="#333333" stroke-width="1.0" stroke-linecap="butt" d="M63.5 237.5L561.5 237.5" fill-rule="nonzero"/><path stroke="#cccccc" stroke-width="1.0" stroke-linecap="butt" d="M63.5 198.5L561.5 198.5" fill-rule="nonzero"/><path stroke="#cccccc" stroke-width="1.0" stroke-linecap="butt" d="M63.5 159.5L561.5 159.5" fill-rule="nonzero"/><path stroke="#cccccc" stroke-width="1.0" stroke-linecap="butt" d="M63.5 120.5L561.5 120.5" fill-rule="nonzero"/><path stroke="#cccccc" stroke-width="1.0" stroke-linecap="butt" d="M63.5 81.5L561.5 81.5" fill-rule="nonzero"/><clipPath id="id_0"><path d="M63.7 81.63333L561.3 81.63333L561.3 237.38333L63.7 237.38333L63.7 81.63333Z" clip-rule="nonzero"/></clipPath><path stroke="#000000" stroke-width="2.0" stroke-linecap="butt" stroke-opacity="0.0" clip-path="url(#id_0)" d="M164.0 237.0L138.0 237.0L138.0 142.0C138.0 140.89543 138.89543 140.0 140.0 140.0L162.0 140.0C163.10457 140.0 164.0 140.89543 164.0 142.0Z" fill-rule="nonzero"/><path fill="#4285f4" clip-path="url(#id_0)" d="M164.0 237.0L138.0 237.0L138.0 142.0C138.0 140.89543 138.89543 140.0 140.0 140.0L162.0 140.0C163.10457 140.0 164.0 140.89543 164.0 142.0Z" fill-rule="nonzero"/><path stroke="#000000" stroke-width="2.0" stroke-linecap="butt" stroke-opacity="0.0" clip-path="url(#id_0)" d="M375.0 237.0L349.0 237.0L349.0 237.0L375.0 237.0Z" fill-rule="nonzero"/><path fill="#4285f4" clip-path="url(#id_0)" d="M375.0 237.0L349.0 237.0L349.0 237.0L375.0 237.0Z" fill-rule="nonzero"/><path stroke="#000000" stroke-width="2.0" stroke-linecap="butt" stroke-opacity="0.0" clip-path="url(#id_0)" d="M192.0 237.0L166.0 237.0L166.0 200.0C166.0 198.89543 166.89543 198.0 168.0 198.0L190.0 198.0C191.10457 198.0 192.0 198.89543 192.0 200.0Z" fill-rule="nonzero"/><path fill="#ea4335" clip-path="url(#id_0)" d="M192.0 237.0L166.0 237.0L166.0 200.0C166.0 198.89543 166.89543 198.0 168.0 198.0L190.0 198.0C191.10457 198.0 192.0 198.89543 192.0 200.0Z" fill-rule="nonzero"/><path stroke="#000000" stroke-width="2.0" stroke-linecap="butt" stroke-opacity="0.0" clip-path="url(#id_0)" d="M403.0 237.0L377.0 237.0L377.0 230.0C377.0 228.89543 377.89542 228.0 379.0 228.0L401.0 228.0C402.10458 228.0 403.0 228.89543 403.0 230.0Z" fill-rule="nonzero"/><path fill="#ea4335" clip-path="url(#id_0)" d="M403.0 237.0L377.0 237.0L377.0 230.0C377.0 228.89543 377.89542 228.0 379.0 228.0L401.0 228.0C402.10458 228.0 403.0 228.89543 403.0 230.0Z" fill-rule="nonzero"/><path stroke="#000000" stroke-width="2.0" stroke-linecap="butt" stroke-opacity="0.0" clip-path="url(#id_0)" d="M220.0 237.0L194.0 237.0L194.0 215.0C194.0 213.89543 194.89543 213.0 196.0 213.0L218.0 213.0C219.10457 213.0 220.0 213.89543 220.0 215.0Z" fill-rule="nonzero"/><path fill="#fbbc04" clip-path="url(#id_0)" d="M220.0 237.0L194.0 237.0L194.0 215.0C194.0 213.89543 194.89543 213.0 196.0 213.0L218.0 213.0C219.10457 213.0 220.0 213.89543 220.0 215.0Z" fill-rule="nonzero"/><path stroke="#000000" stroke-width="2.0" stroke-linecap="butt" stroke-opacity="0.0" clip-path="url(#id_0)" d="M431.0 237.0L405.0 237.0L405.0 230.0C405.0 228.89543 405.89542 228.0 407.0 228.0L429.0 228.0C430.10458 228.0 431.0 228.89543 431.0 230.0Z" fill-rule="nonzero"/><path fill="#fbbc04" clip-path="url(#id_0)" d="M431.0 237.0L405.0 237.0L405.0 230.0C405.0 228.89543 405.89542 228.0 407.0 228.0L429.0 228.0C430.10458 228.0 431.0 228.89543 431.0 230.0Z" fill-rule="nonzero"/><path stroke="#000000" stroke-width="2.0" stroke-linecap="butt" stroke-opacity="0.0" clip-path="url(#id_0)" d="M248.0 237.0L222.0 237.0L222.0 215.0C222.0 213.89543 222.89543 213.0 224.0 213.0L246.0 213.0C247.10457 213.0 248.0 213.89543 248.0 215.0Z" fill-rule="nonzero"/><path fill="#34a853" clip-path="url(#id_0)" d="M248.0 237.0L222.0 237.0L222.0 215.0C222.0 213.89543 222.89543 213.0 224.0 213.0L246.0 213.0C247.10457 213.0 248.0 213.89543 248.0 215.0Z" fill-rule="nonzero"/><path stroke="#000000" stroke-width="2.0" stroke-linecap="butt" stroke-opacity="0.0" clip-path="url(#id_0)" d="M459.0 237.0L433.0 237.0L433.0 200.0C433.0 198.89543 433.89542 198.0 435.0 198.0L457.0 198.0C458.10458 198.0 459.0 198.89543 459.0 200.0Z" fill-rule="nonzero"/><path fill="#34a853" clip-path="url(#id_0)" d="M459.0 237.0L433.0 237.0L433.0 200.0C433.0 198.89543 433.89542 198.0 435.0 198.0L457.0 198.0C458.10458 198.0 459.0 198.89543 459.0 200.0Z" fill-rule="nonzero"/><path stroke="#000000" stroke-width="2.0" stroke-linecap="butt" stroke-opacity="0.0" clip-path="url(#id_0)" d="M276.0 237.0L250.0 237.0L250.0 230.0C250.0 228.89543 250.89543 228.0 252.0 228.0L274.0 228.0C275.10458 228.0 276.0 228.89543 276.0 230.0Z" fill-rule="nonzero"/><path fill="#ff6d01" clip-path="url(#id_0)" d="M276.0 237.0L250.0 237.0L250.0 230.0C250.0 228.89543 250.89543 228.0 252.0 228.0L274.0 228.0C275.10458 228.0 276.0 228.89543 276.0 230.0Z" fill-rule="nonzero"/><path stroke="#000000" stroke-width="2.0" stroke-linecap="butt" stroke-opacity="0.0" clip-path="url(#id_0)" d="M487.0 237.0L461.0 237.0L461.0 103.0C461.0 101.89543 461.89542 101.0 463.0 101.0L485.0 101.0C486.10458 101.0 487.0 101.89543 487.0 103.0Z" fill-rule="nonzero"/><path fill="#ff6d01" clip-path="url(#id_0)" d="M487.0 237.0L461.0 237.0L461.0 103.0C461.0 101.89543 461.89542 101.0 463.0 101.0L485.0 101.0C486.10458 101.0 487.0 101.89543 487.0 103.0Z" fill-rule="nonzero"/><path fill="#000000" d="M23.2 237.14896Q23.2 235.6177 23.5125 234.69583Q23.825 233.75833 24.434376 233.25833Q25.059376 232.75833 25.996876 232.75833Q26.684376 232.75833 27.2 233.03958Q27.73125 233.32083 28.075 233.85208Q28.41875 234.3677 28.60625 235.1177Q28.79375 235.8677 28.79375 237.14896Q28.79375 238.66458 28.48125 239.58646Q28.184376 240.50833 27.559376 241.02396Q26.95 241.52396 25.996876 241.52396Q24.7625 241.52396 24.04375 240.63333Q23.2 239.57083 23.2 237.14896ZM24.278126 237.14896Q24.278126 239.25833 24.778126 239.96146Q25.278126 240.66458 25.996876 240.66458Q26.73125 240.66458 27.215626 239.96146Q27.715626 239.25833 27.715626 237.14896Q27.715626 235.02396 27.215626 234.33646Q26.73125 233.63333 25.98125 233.63333Q25.2625 233.63333 24.825 234.2427Q24.278126 235.02396 24.278126 237.14896ZM30.79375 241.38333L30.79375 240.1802L31.996876 240.1802L31.996876 241.38333L30.79375 241.38333ZM33.2 237.14896Q33.2 235.6177 33.5125 234.69583Q33.825 233.75833 34.434376 233.25833Q35.059376 232.75833 35.996876 232.75833Q36.684376 232.75833 37.2 233.03958Q37.73125 233.32083 38.075 233.85208Q38.41875 234.3677 38.60625 235.1177Q38.79375 235.8677 38.79375 237.14896Q38.79375 238.66458 38.48125 239.58646Q38.184376 240.50833 37.559376 241.02396Q36.95 241.52396 35.996876 241.52396Q34.7625 241.52396 34.04375 240.63333Q33.2 239.57083 33.2 237.14896ZM34.278126 237.14896Q34.278126 239.25833 34.778126 239.96146Q35.278126 240.66458 35.996876 240.66458Q36.73125 240.66458 37.215626 239.96146Q37.715626 239.25833 37.715626 237.14896Q37.715626 235.02396 37.215626 234.33646Q36.73125 233.63333 35.98125 233.63333Q35.2625 233.63333 34.825 234.2427Q34.278126 235.02396 34.278126 237.14896ZM40.2 237.14896Q40.2 235.6177 40.5125 234.69583Q40.825 233.75833 41.434376 233.25833Q42.059376 232.75833 42.996876 232.75833Q43.684376 232.75833 44.2 233.03958Q44.73125 233.32083 45.075 233.85208Q45.41875 234.3677 45.60625 235.1177Q45.79375 235.8677 45.79375 237.14896Q45.79375 238.66458 45.48125 239.58646Q45.184376 240.50833 44.559376 241.02396Q43.95 241.52396 42.996876 241.52396Q41.7625 241.52396 41.04375 240.63333Q40.2 239.57083 40.2 237.14896ZM41.278126 237.14896Q41.278126 239.25833 41.778126 239.96146Q42.278126 240.66458 42.996876 240.66458Q43.73125 240.66458 44.215626 239.96146Q44.715626 239.25833 44.715626 237.14896Q44.715626 235.02396 44.215626 234.33646Q43.73125 233.63333 42.98125 233.63333Q42.2625 233.63333 41.825 234.2427Q41.278126 235.02396 41.278126 237.14896ZM47.403126 234.85208Q47.403126 233.9302 47.85625 233.28958Q48.325 232.64896 49.2 232.64896Q50.0125 232.64896 50.54375 233.22708Q51.075 233.8052 51.075 234.91458Q51.075 236.00833 50.528126 236.60208Q49.996876 237.1802 49.215626 237.1802Q48.434376 237.1802 47.91875 236.60208Q47.403126 236.02396 47.403126 234.85208ZM49.23125 233.3677Q48.840626 233.3677 48.575 233.71146Q48.325 234.0552 48.325 234.96146Q48.325 235.78958 48.575 236.13333Q48.840626 236.46146 49.23125 236.46146Q49.6375 236.46146 49.8875 236.1177Q50.153126 235.77396 50.153126 234.88333Q50.153126 234.03958 49.8875 233.71146Q49.621876 233.3677 49.23125 233.3677ZM49.23125 241.69583L53.934376 232.64896L54.79375 232.64896L50.10625 241.69583L49.23125 241.69583ZM52.95 239.3677Q52.95 238.44583 53.403126 237.8052Q53.871876 237.16458 54.7625 237.16458Q55.575 237.16458 56.10625 237.7427Q56.6375 238.3052 56.6375 239.4302Q56.6375 240.52396 56.090626 241.1177Q55.559376 241.69583 54.7625 241.69583Q53.996876 241.69583 53.465626 241.1177Q52.95 240.53958 52.95 239.3677ZM54.79375 237.88333Q54.3875 237.88333 54.121876 238.22708Q53.871876 238.57083 53.871876 239.47708Q53.871876 240.28958 54.1375 240.63333Q54.403126 240.97708 54.79375 240.97708Q55.184376 240.97708 55.45 240.63333Q55.715626 240.28958 55.715626 239.38333Q55.715626 238.5552 55.45 238.22708Q55.184376 237.88333 54.79375 237.88333Z" fill-rule="nonzero"/><path fill="#000000" d="M21.746876 201.4302L21.746876 202.44583L16.059376 202.44583Q16.059376 202.07083 16.184376 201.71146Q16.403126 201.13333 16.871876 200.57083Q17.35625 200.00833 18.2625 199.27396Q19.66875 198.1177 20.153126 197.44583Q20.653126 196.77396 20.653126 196.1802Q20.653126 195.5552 20.2 195.13333Q19.746876 194.69583 19.028126 194.69583Q18.2625 194.69583 17.809376 195.14896Q17.35625 195.60208 17.340626 196.41458L16.2625 196.3052Q16.371876 195.08646 17.090626 194.46146Q17.825 193.82083 19.059376 193.82083Q20.29375 193.82083 21.0125 194.50833Q21.73125 195.19583 21.73125 196.21146Q21.73125 196.72708 21.5125 197.22708Q21.309376 197.71146 20.809376 198.27396Q20.325 198.82083 19.2 199.77396Q18.246876 200.57083 17.965626 200.8677Q17.7 201.14896 17.528126 201.4302L21.746876 201.4302ZM23.2 198.21146Q23.2 196.6802 23.5125 195.75833Q23.825 194.82083 24.434376 194.32083Q25.059376 193.82083 25.996876 193.82083Q26.684376 193.82083 27.2 194.10208Q27.73125 194.38333 28.075 194.91458Q28.41875 195.4302 28.60625 196.1802Q28.79375 196.9302 28.79375 198.21146Q28.79375 199.72708 28.48125 200.64896Q28.184376 201.57083 27.559376 202.08646Q26.95 202.58646 25.996876 202.58646Q24.7625 202.58646 24.04375 201.69583Q23.2 200.63333 23.2 198.21146ZM24.278126 198.21146Q24.278126 200.32083 24.778126 201.02396Q25.278126 201.72708 25.996876 201.72708Q26.73125 201.72708 27.215626 201.02396Q27.715626 200.32083 27.715626 198.21146Q27.715626 196.08646 27.215626 195.39896Q26.73125 194.69583 25.98125 194.69583Q25.2625 194.69583 24.825 195.3052Q24.278126 196.08646 24.278126 198.21146ZM30.79375 202.44583L30.79375 201.2427L31.996876 201.2427L31.996876 202.44583L30.79375 202.44583ZM33.2 198.21146Q33.2 196.6802 33.5125 195.75833Q33.825 194.82083 34.434376 194.32083Q35.059376 193.82083 35.996876 193.82083Q36.684376 193.82083 37.2 194.10208Q37.73125 194.38333 38.075 194.91458Q38.41875 195.4302 38.60625 196.1802Q38.79375 196.9302 38.79375 198.21146Q38.79375 199.72708 38.48125 200.64896Q38.184376 201.57083 37.559376 202.08646Q36.95 202.58646 35.996876 202.58646Q34.7625 202.58646 34.04375 201.69583Q33.2 200.63333 33.2 198.21146ZM34.278126 198.21146Q34.278126 200.32083 34.778126 201.02396Q35.278126 201.72708 35.996876 201.72708Q36.73125 201.72708 37.215626 201.02396Q37.715626 200.32083 37.715626 198.21146Q37.715626 196.08646 37.215626 195.39896Q36.73125 194.69583 35.98125 194.69583Q35.2625 194.69583 34.825 195.3052Q34.278126 196.08646 34.278126 198.21146ZM40.2 198.21146Q40.2 196.6802 40.5125 195.75833Q40.825 194.82083 41.434376 194.32083Q42.059376 193.82083 42.996876 193.82083Q43.684376 193.82083 44.2 194.10208Q44.73125 194.38333 45.075 194.91458Q45.41875 195.4302 45.60625 196.1802Q45.79375 196.9302 45.79375 198.21146Q45.79375 199.72708 45.48125 200.64896Q45.184376 201.57083 44.559376 202.08646Q43.95 202.58646 42.996876 202.58646Q41.7625 202.58646 41.04375 201.69583Q40.2 200.63333 40.2 198.21146ZM41.278126 198.21146Q41.278126 200.32083 41.778126 201.02396Q42.278126 201.72708 42.996876 201.72708Q43.73125 201.72708 44.215626 201.02396Q44.715626 200.32083 44.715626 198.21146Q44.715626 196.08646 44.215626 195.39896Q43.73125 194.69583 42.98125 194.69583Q42.2625 194.69583 41.825 195.3052Q41.278126 196.08646 41.278126 198.21146ZM47.403126 195.91458Q47.403126 194.9927 47.85625 194.35208Q48.325 193.71146 49.2 193.71146Q50.0125 193.71146 50.54375 194.28958Q51.075 194.8677 51.075 195.97708Q51.075 197.07083 50.528126 197.66458Q49.996876 198.2427 49.215626 198.2427Q48.434376 198.2427 47.91875 197.66458Q47.403126 197.08646 47.403126 195.91458ZM49.23125 194.4302Q48.840626 194.4302 48.575 194.77396Q48.325 195.1177 48.325 196.02396Q48.325 196.85208 48.575 197.19583Q48.840626 197.52396 49.23125 197.52396Q49.6375 197.52396 49.8875 197.1802Q50.153126 196.83646 50.153126 195.94583Q50.153126 195.10208 49.8875 194.77396Q49.621876 194.4302 49.23125 194.4302ZM49.23125 202.75833L53.934376 193.71146L54.79375 193.71146L50.10625 202.75833L49.23125 202.75833ZM52.95 200.4302Q52.95 199.50833 53.403126 198.8677Q53.871876 198.22708 54.7625 198.22708Q55.575 198.22708 56.10625 198.8052Q56.6375 199.3677 56.6375 200.4927Q56.6375 201.58646 56.090626 202.1802Q55.559376 202.75833 54.7625 202.75833Q53.996876 202.75833 53.465626 202.1802Q52.95 201.60208 52.95 200.4302ZM54.79375 198.94583Q54.3875 198.94583 54.121876 199.28958Q53.871876 199.63333 53.871876 200.53958Q53.871876 201.35208 54.1375 201.69583Q54.403126 202.03958 54.79375 202.03958Q55.184376 202.03958 55.45 201.69583Q55.715626 201.35208 55.715626 200.44583Q55.715626 199.6177 55.45 199.28958Q55.184376 198.94583 54.79375 198.94583Z" fill-rule="nonzero"/><path fill="#000000" d="M19.575 163.50833L19.575 161.44583L15.85625 161.44583L15.85625 160.47708L19.778126 154.91458L20.6375 154.91458L20.6375 160.47708L21.79375 160.47708L21.79375 161.44583L20.6375 161.44583L20.6375 163.50833L19.575 163.50833ZM19.575 160.47708L19.575 156.6177L16.8875 160.47708L19.575 160.47708ZM23.2 159.27396Q23.2 157.7427 23.5125 156.82083Q23.825 155.88333 24.434376 155.38333Q25.059376 154.88333 25.996876 154.88333Q26.684376 154.88333 27.2 155.16458Q27.73125 155.44583 28.075 155.97708Q28.41875 156.4927 28.60625 157.2427Q28.79375 157.9927 28.79375 159.27396Q28.79375 160.78958 28.48125 161.71146Q28.184376 162.63333 27.559376 163.14896Q26.95 163.64896 25.996876 163.64896Q24.7625 163.64896 24.04375 162.75833Q23.2 161.69583 23.2 159.27396ZM24.278126 159.27396Q24.278126 161.38333 24.778126 162.08646Q25.278126 162.78958 25.996876 162.78958Q26.73125 162.78958 27.215626 162.08646Q27.715626 161.38333 27.715626 159.27396Q27.715626 157.14896 27.215626 156.46146Q26.73125 155.75833 25.98125 155.75833Q25.2625 155.75833 24.825 156.3677Q24.278126 157.14896 24.278126 159.27396ZM30.79375 163.50833L30.79375 162.3052L31.996876 162.3052L31.996876 163.50833L30.79375 163.50833ZM33.2 159.27396Q33.2 157.7427 33.5125 156.82083Q33.825 155.88333 34.434376 155.38333Q35.059376 154.88333 35.996876 154.88333Q36.684376 154.88333 37.2 155.16458Q37.73125 155.44583 38.075 155.97708Q38.41875 156.4927 38.60625 157.2427Q38.79375 157.9927 38.79375 159.27396Q38.79375 160.78958 38.48125 161.71146Q38.184376 162.63333 37.559376 163.14896Q36.95 163.64896 35.996876 163.64896Q34.7625 163.64896 34.04375 162.75833Q33.2 161.69583 33.2 159.27396ZM34.278126 159.27396Q34.278126 161.38333 34.778126 162.08646Q35.278126 162.78958 35.996876 162.78958Q36.73125 162.78958 37.215626 162.08646Q37.715626 161.38333 37.715626 159.27396Q37.715626 157.14896 37.215626 156.46146Q36.73125 155.75833 35.98125 155.75833Q35.2625 155.75833 34.825 156.3677Q34.278126 157.14896 34.278126 159.27396ZM40.2 159.27396Q40.2 157.7427 40.5125 156.82083Q40.825 155.88333 41.434376 155.38333Q42.059376 154.88333 42.996876 154.88333Q43.684376 154.88333 44.2 155.16458Q44.73125 155.44583 45.075 155.97708Q45.41875 156.4927 45.60625 157.2427Q45.79375 157.9927 45.79375 159.27396Q45.79375 160.78958 45.48125 161.71146Q45.184376 162.63333 44.559376 163.14896Q43.95 163.64896 42.996876 163.64896Q41.7625 163.64896 41.04375 162.75833Q40.2 161.69583 40.2 159.27396ZM41.278126 159.27396Q41.278126 161.38333 41.778126 162.08646Q42.278126 162.78958 42.996876 162.78958Q43.73125 162.78958 44.215626 162.08646Q44.715626 161.38333 44.715626 159.27396Q44.715626 157.14896 44.215626 156.46146Q43.73125 155.75833 42.98125 155.75833Q42.2625 155.75833 41.825 156.3677Q41.278126 157.14896 41.278126 159.27396ZM47.403126 156.97708Q47.403126 156.0552 47.85625 155.41458Q48.325 154.77396 49.2 154.77396Q50.0125 154.77396 50.54375 155.35208Q51.075 155.9302 51.075 157.03958Q51.075 158.13333 50.528126 158.72708Q49.996876 159.3052 49.215626 159.3052Q48.434376 159.3052 47.91875 158.72708Q47.403126 158.14896 47.403126 156.97708ZM49.23125 155.4927Q48.840626 155.4927 48.575 155.83646Q48.325 156.1802 48.325 157.08646Q48.325 157.91458 48.575 158.25833Q48.840626 158.58646 49.23125 158.58646Q49.6375 158.58646 49.8875 158.2427Q50.153126 157.89896 50.153126 157.00833Q50.153126 156.16458 49.8875 155.83646Q49.621876 155.4927 49.23125 155.4927ZM49.23125 163.82083L53.934376 154.77396L54.79375 154.77396L50.10625 163.82083L49.23125 163.82083ZM52.95 161.4927Q52.95 160.57083 53.403126 159.9302Q53.871876 159.28958 54.7625 159.28958Q55.575 159.28958 56.10625 159.8677Q56.6375 160.4302 56.6375 161.5552Q56.6375 162.64896 56.090626 163.2427Q55.559376 163.82083 54.7625 163.82083Q53.996876 163.82083 53.465626 163.2427Q52.95 162.66458 52.95 161.4927ZM54.79375 160.00833Q54.3875 160.00833 54.121876 160.35208Q53.871876 160.69583 53.871876 161.60208Q53.871876 162.41458 54.1375 162.75833Q54.403126 163.10208 54.79375 163.10208Q55.184376 163.10208 55.45 162.75833Q55.715626 162.41458 55.715626 161.50833Q55.715626 160.6802 55.45 160.35208Q55.184376 160.00833 54.79375 160.00833Z" fill-rule="nonzero"/><path fill="#000000" d="M21.66875 118.08646L20.621876 118.16458Q20.48125 117.53958 20.23125 117.25833Q19.79375 116.80521 19.16875 116.80521Q18.66875 116.80521 18.278126 117.08646Q17.79375 117.46146 17.496876 118.16458Q17.215626 118.85208 17.2 120.13333Q17.575 119.55521 18.121876 119.27396Q18.684376 118.99271 19.29375 118.99271Q20.340626 118.99271 21.075 119.77396Q21.825 120.55521 21.825 121.77396Q21.825 122.58646 21.465626 123.28958Q21.121876 123.97708 20.5125 124.35208Q19.903126 124.71146 19.1375 124.71146Q17.809376 124.71146 16.98125 123.74271Q16.153126 122.77396 16.153126 120.55521Q16.153126 118.05521 17.075 116.93021Q17.871876 115.94583 19.23125 115.94583Q20.246876 115.94583 20.8875 116.52396Q21.54375 117.08646 21.66875 118.08646ZM17.371876 121.78958Q17.371876 122.33646 17.590626 122.83646Q17.825 123.32083 18.23125 123.58646Q18.653126 123.85208 19.121876 123.85208Q19.778126 123.85208 20.2625 123.32083Q20.746876 122.77396 20.746876 121.85208Q20.746876 120.96146 20.2625 120.44583Q19.79375 119.93021 19.075 119.93021Q18.35625 119.93021 17.85625 120.44583Q17.371876 120.96146 17.371876 121.78958ZM23.2 120.33646Q23.2 118.80521 23.5125 117.88333Q23.825 116.94583 24.434376 116.44583Q25.059376 115.94583 25.996876 115.94583Q26.684376 115.94583 27.2 116.22708Q27.73125 116.50833 28.075 117.03958Q28.41875 117.55521 28.60625 118.30521Q28.79375 119.05521 28.79375 120.33646Q28.79375 121.85208 28.48125 122.77396Q28.184376 123.69583 27.559376 124.21146Q26.95 124.71146 25.996876 124.71146Q24.7625 124.71146 24.04375 123.82083Q23.2 122.75833 23.2 120.33646ZM24.278126 120.33646Q24.278126 122.44583 24.778126 123.14896Q25.278126 123.85208 25.996876 123.85208Q26.73125 123.85208 27.215626 123.14896Q27.715626 122.44583 27.715626 120.33646Q27.715626 118.21146 27.215626 117.52396Q26.73125 116.82083 25.98125 116.82083Q25.2625 116.82083 24.825 117.43021Q24.278126 118.21146 24.278126 120.33646ZM30.79375 124.57083L30.79375 123.36771L31.996876 123.36771L31.996876 124.57083L30.79375 124.57083ZM33.2 120.33646Q33.2 118.80521 33.5125 117.88333Q33.825 116.94583 34.434376 116.44583Q35.059376 115.94583 35.996876 115.94583Q36.684376 115.94583 37.2 116.22708Q37.73125 116.50833 38.075 117.03958Q38.41875 117.55521 38.60625 118.30521Q38.79375 119.05521 38.79375 120.33646Q38.79375 121.85208 38.48125 122.77396Q38.184376 123.69583 37.559376 124.21146Q36.95 124.71146 35.996876 124.71146Q34.7625 124.71146 34.04375 123.82083Q33.2 122.75833 33.2 120.33646ZM34.278126 120.33646Q34.278126 122.44583 34.778126 123.14896Q35.278126 123.85208 35.996876 123.85208Q36.73125 123.85208 37.215626 123.14896Q37.715626 122.44583 37.715626 120.33646Q37.715626 118.21146 37.215626 117.52396Q36.73125 116.82083 35.98125 116.82083Q35.2625 116.82083 34.825 117.43021Q34.278126 118.21146 34.278126 120.33646ZM40.2 120.33646Q40.2 118.80521 40.5125 117.88333Q40.825 116.94583 41.434376 116.44583Q42.059376 115.94583 42.996876 115.94583Q43.684376 115.94583 44.2 116.22708Q44.73125 116.50833 45.075 117.03958Q45.41875 117.55521 45.60625 118.30521Q45.79375 119.05521 45.79375 120.33646Q45.79375 121.85208 45.48125 122.77396Q45.184376 123.69583 44.559376 124.21146Q43.95 124.71146 42.996876 124.71146Q41.7625 124.71146 41.04375 123.82083Q40.2 122.75833 40.2 120.33646ZM41.278126 120.33646Q41.278126 122.44583 41.778126 123.14896Q42.278126 123.85208 42.996876 123.85208Q43.73125 123.85208 44.215626 123.14896Q44.715626 122.44583 44.715626 120.33646Q44.715626 118.21146 44.215626 117.52396Q43.73125 116.82083 42.98125 116.82083Q42.2625 116.82083 41.825 117.43021Q41.278126 118.21146 41.278126 120.33646ZM47.403126 118.03958Q47.403126 117.11771 47.85625 116.47708Q48.325 115.83646 49.2 115.83646Q50.0125 115.83646 50.54375 116.41458Q51.075 116.99271 51.075 118.10208Q51.075 119.19583 50.528126 119.78958Q49.996876 120.36771 49.215626 120.36771Q48.434376 120.36771 47.91875 119.78958Q47.403126 119.21146 47.403126 118.03958ZM49.23125 116.55521Q48.840626 116.55521 48.575 116.89896Q48.325 117.24271 48.325 118.14896Q48.325 118.97708 48.575 119.32083Q48.840626 119.64896 49.23125 119.64896Q49.6375 119.64896 49.8875 119.30521Q50.153126 118.96146 50.153126 118.07083Q50.153126 117.22708 49.8875 116.89896Q49.621876 116.55521 49.23125 116.55521ZM49.23125 124.88333L53.934376 115.83646L54.79375 115.83646L50.10625 124.88333L49.23125 124.88333ZM52.95 122.55521Q52.95 121.63333 53.403126 120.99271Q53.871876 120.35208 54.7625 120.35208Q55.575 120.35208 56.10625 120.93021Q56.6375 121.49271 56.6375 122.61771Q56.6375 123.71146 56.090626 124.30521Q55.559376 124.88333 54.7625 124.88333Q53.996876 124.88333 53.465626 124.30521Q52.95 123.72708 52.95 122.55521ZM54.79375 121.07083Q54.3875 121.07083 54.121876 121.41458Q53.871876 121.75833 53.871876 122.66458Q53.871876 123.47708 54.1375 123.82083Q54.403126 124.16458 54.79375 124.16458Q55.184376 124.16458 55.45 123.82083Q55.715626 123.47708 55.715626 122.57083Q55.715626 121.74271 55.45 121.41458Q55.184376 121.07083 54.79375 121.07083Z" fill-rule="nonzero"/><path fill="#000000" d="M17.825 80.97708Q17.16875 80.72708 16.840626 80.28958Q16.528126 79.83646 16.528126 79.22708Q16.528126 78.28958 17.2 77.64896Q17.8875 77.00833 18.996876 77.00833Q20.121876 77.00833 20.809376 77.66458Q21.496876 78.32083 21.496876 79.25833Q21.496876 79.85208 21.184376 80.28958Q20.871876 80.72708 20.23125 80.97708Q21.028126 81.22708 21.434376 81.80521Q21.840626 82.38333 21.840626 83.18021Q21.840626 84.27396 21.059376 85.02396Q20.29375 85.77396 19.0125 85.77396Q17.746876 85.77396 16.965626 85.02396Q16.184376 84.27396 16.184376 83.14896Q16.184376 82.30521 16.60625 81.74271Q17.04375 81.18021 17.825 80.97708ZM17.60625 79.18021Q17.60625 79.78958 17.996876 80.18021Q18.403126 80.57083 19.028126 80.57083Q19.6375 80.57083 20.028126 80.19583Q20.41875 79.80521 20.41875 79.24271Q20.41875 78.66458 20.0125 78.27396Q19.60625 77.86771 19.0125 77.86771Q18.403126 77.86771 17.996876 78.25833Q17.60625 78.64896 17.60625 79.18021ZM17.278126 83.14896Q17.278126 83.60208 17.48125 84.02396Q17.7 84.44583 18.121876 84.68021Q18.54375 84.91458 19.028126 84.91458Q19.778126 84.91458 20.2625 84.43021Q20.7625 83.94583 20.7625 83.19583Q20.7625 82.43021 20.2625 81.93021Q19.7625 81.43021 18.996876 81.43021Q18.246876 81.43021 17.7625 81.93021Q17.278126 82.41458 17.278126 83.14896ZM23.2 81.39896Q23.2 79.86771 23.5125 78.94583Q23.825 78.00833 24.434376 77.50833Q25.059376 77.00833 25.996876 77.00833Q26.684376 77.00833 27.2 77.28958Q27.73125 77.57083 28.075 78.10208Q28.41875 78.61771 28.60625 79.36771Q28.79375 80.11771 28.79375 81.39896Q28.79375 82.91458 28.48125 83.83646Q28.184376 84.75833 27.559376 85.27396Q26.95 85.77396 25.996876 85.77396Q24.7625 85.77396 24.04375 84.88333Q23.2 83.82083 23.2 81.39896ZM24.278126 81.39896Q24.278126 83.50833 24.778126 84.21146Q25.278126 84.91458 25.996876 84.91458Q26.73125 84.91458 27.215626 84.21146Q27.715626 83.50833 27.715626 81.39896Q27.715626 79.27396 27.215626 78.58646Q26.73125 77.88333 25.98125 77.88333Q25.2625 77.88333 24.825 78.49271Q24.278126 79.27396 24.278126 81.39896ZM30.79375 85.63333L30.79375 84.43021L31.996876 84.43021L31.996876 85.63333L30.79375 85.63333ZM33.2 81.39896Q33.2 79.86771 33.5125 78.94583Q33.825 78.00833 34.434376 77.50833Q35.059376 77.00833 35.996876 77.00833Q36.684376 77.00833 37.2 77.28958Q37.73125 77.57083 38.075 78.10208Q38.41875 78.61771 38.60625 79.36771Q38.79375 80.11771 38.79375 81.39896Q38.79375 82.91458 38.48125 83.83646Q38.184376 84.75833 37.559376 85.27396Q36.95 85.77396 35.996876 85.77396Q34.7625 85.77396 34.04375 84.88333Q33.2 83.82083 33.2 81.39896ZM34.278126 81.39896Q34.278126 83.50833 34.778126 84.21146Q35.278126 84.91458 35.996876 84.91458Q36.73125 84.91458 37.215626 84.21146Q37.715626 83.50833 37.715626 81.39896Q37.715626 79.27396 37.215626 78.58646Q36.73125 77.88333 35.98125 77.88333Q35.2625 77.88333 34.825 78.49271Q34.278126 79.27396 34.278126 81.39896ZM40.2 81.39896Q40.2 79.86771 40.5125 78.94583Q40.825 78.00833 41.434376 77.50833Q42.059376 77.00833 42.996876 77.00833Q43.684376 77.00833 44.2 77.28958Q44.73125 77.57083 45.075 78.10208Q45.41875 78.61771 45.60625 79.36771Q45.79375 80.11771 45.79375 81.39896Q45.79375 82.91458 45.48125 83.83646Q45.184376 84.75833 44.559376 85.27396Q43.95 85.77396 42.996876 85.77396Q41.7625 85.77396 41.04375 84.88333Q40.2 83.82083 40.2 81.39896ZM41.278126 81.39896Q41.278126 83.50833 41.778126 84.21146Q42.278126 84.91458 42.996876 84.91458Q43.73125 84.91458 44.215626 84.21146Q44.715626 83.50833 44.715626 81.39896Q44.715626 79.27396 44.215626 78.58646Q43.73125 77.88333 42.98125 77.88333Q42.2625 77.88333 41.825 78.49271Q41.278126 79.27396 41.278126 81.39896ZM47.403126 79.10208Q47.403126 78.18021 47.85625 77.53958Q48.325 76.89896 49.2 76.89896Q50.0125 76.89896 50.54375 77.47708Q51.075 78.05521 51.075 79.16458Q51.075 80.25833 50.528126 80.85208Q49.996876 81.43021 49.215626 81.43021Q48.434376 81.43021 47.91875 80.85208Q47.403126 80.27396 47.403126 79.10208ZM49.23125 77.61771Q48.840626 77.61771 48.575 77.96146Q48.325 78.30521 48.325 79.21146Q48.325 80.03958 48.575 80.38333Q48.840626 80.71146 49.23125 80.71146Q49.6375 80.71146 49.8875 80.36771Q50.153126 80.02396 50.153126 79.13333Q50.153126 78.28958 49.8875 77.96146Q49.621876 77.61771 49.23125 77.61771ZM49.23125 85.94583L53.934376 76.89896L54.79375 76.89896L50.10625 85.94583L49.23125 85.94583ZM52.95 83.61771Q52.95 82.69583 53.403126 82.05521Q53.871876 81.41458 54.7625 81.41458Q55.575 81.41458 56.10625 81.99271Q56.6375 82.55521 56.6375 83.68021Q56.6375 84.77396 56.090626 85.36771Q55.559376 85.94583 54.7625 85.94583Q53.996876 85.94583 53.465626 85.36771Q52.95 84.78958 52.95 83.61771ZM54.79375 82.13333Q54.3875 82.13333 54.121876 82.47708Q53.871876 82.82083 53.871876 83.72708Q53.871876 84.53958 54.1375 84.88333Q54.403126 85.22708 54.79375 85.22708Q55.184376 85.22708 55.45 84.88333Q55.715626 84.53958 55.715626 83.63333Q55.715626 82.80521 55.45 82.47708Q55.184376 82.13333 54.79375 82.13333Z" fill-rule="nonzero"/><path fill="#000000" d="M187.52472 275.6284L184.40904 268.62363L185.1272 267.90546L192.26456 270.88858L191.5022 271.6509L189.36983 270.7118L187.25955 272.82205L188.23183 274.9213L187.52472 275.6284ZM186.906 272.09286L188.62958 270.3693L186.69609 269.49646Q185.8122 269.0987 185.28188 268.81143Q185.67961 269.38596 185.97794 270.03784L186.906 272.09286ZM195.33604 267.81708L194.87201 267.35303Q195.07088 268.259 194.39691 268.93298Q193.95497 269.3749 193.33626 269.5075Q192.72859 269.62903 192.09882 269.397Q191.45801 269.15393 190.89453 268.59045Q190.35315 268.0491 190.08798 267.43036Q189.82281 266.78955 189.9554 266.19293Q190.07693 265.58527 190.52992 265.13226Q190.86139 264.8008 191.25912 264.69034Q191.65688 264.55774 192.04358 264.613L190.23161 262.80103L190.85034 262.1823L195.91057 267.24255L195.33604 267.81708ZM191.53534 267.94965Q192.24245 268.65677 192.88327 268.72305Q193.52408 268.76724 193.93288 268.35846Q194.34167 267.94965 194.28644 267.34198Q194.24223 266.72327 193.55724 266.03827Q192.80592 265.28696 192.16512 265.22067Q191.52429 265.15436 191.10445 265.57422Q190.6846 265.99405 190.7509 266.6128Q190.80614 267.22046 191.53534 267.94965ZM197.24744 262.23755Q196.23097 261.2211 196.30832 260.14938Q196.3746 259.2876 197.05962 258.6026Q197.81091 257.8513 198.78319 257.87338Q199.75546 257.87338 200.6283 258.74622Q201.3354 259.4533 201.53427 260.07205Q201.73315 260.69077 201.55638 261.33157Q201.36855 261.96133 200.89346 262.43643Q200.12007 263.20984 199.1478 263.18774Q198.17552 263.16562 197.24744 262.23755ZM197.88826 261.59674Q198.59537 262.30383 199.25827 262.34805Q199.91014 262.3812 200.37418 261.91714Q200.83823 261.4531 200.78297 260.80124Q200.73878 260.13834 200.02063 259.42017Q199.34666 258.74622 198.68375 258.70203Q198.02084 258.65784 197.56786 259.1108Q197.1038 259.57486 197.14801 260.23776Q197.18115 260.88965 197.88826 261.59674ZM203.75504 260.01678L204.4511 259.49753Q204.76045 259.74057 205.06981 259.69638Q205.46756 259.6301 205.86531 259.23236Q206.2962 258.80145 206.35144 258.39267Q206.41774 257.9949 206.19676 257.59717Q206.05313 257.36514 205.44547 256.75748Q205.51175 257.64136 204.90408 258.24902Q204.15279 259.00034 203.19156 258.87878Q202.23033 258.73517 201.46799 257.9728Q200.9487 257.45352 200.6946 256.82376Q200.42943 256.18295 200.55096 255.59738Q200.67249 254.98972 201.15863 254.50357Q201.81049 253.85172 202.74962 253.95114L202.30768 253.5092L202.8822 252.93468L206.05313 256.10562Q206.91492 256.9674 207.09169 257.49774Q207.27953 258.017 207.10274 258.61365Q206.93701 259.19922 206.38458 259.75165Q205.73273 260.4035 205.02562 260.51398Q204.32956 260.61343 203.75504 260.01678ZM202.05356 257.29886Q202.77171 258.017 203.39043 258.06122Q204.00916 258.1054 204.44005 257.6745Q204.87094 257.24362 204.8378 256.63596Q204.80464 256.00616 204.09753 255.29907Q203.42358 254.6251 202.78276 254.58092Q202.14195 254.53673 201.71106 254.96762Q201.30226 255.3764 201.34645 256.0172Q201.39064 256.63596 202.05356 257.29886ZM207.7988 255.35431L204.13069 251.6862L204.69417 251.12273L205.21344 251.642Q205.01457 250.64763 205.77692 249.88528Q206.10837 249.55383 206.50612 249.39915Q206.90387 249.22237 207.23532 249.28867Q207.56679 249.33286 207.88719 249.54279Q208.0971 249.68642 208.528 250.11731L210.7819 252.3712L210.1632 252.98993L207.93138 250.75812Q207.55574 250.38246 207.29057 250.27199Q207.03645 250.15045 206.73814 250.22778Q206.42879 250.29408 206.18571 250.53716Q205.78796 250.93489 205.74377 251.48732Q205.71063 252.0287 206.41774 252.73581L208.41753 254.7356L207.7988 255.35431ZM207.71042 246.75854L206.99226 246.04039L207.61098 245.42168L208.32913 246.13983L207.71042 246.75854ZM212.05249 251.10063L208.38437 247.43251L209.0031 246.8138L212.6712 250.4819L212.05249 251.10063Z" fill-rule="nonzero"/><path fill="#000000" d="M384.98364 289.91415L379.9234 284.85394L382.16626 282.61108Q382.85126 281.92606 383.3374 281.7272Q383.82355 281.50623 384.37598 281.6388Q384.93945 281.76035 385.35928 282.18018Q385.90067 282.72156 385.9117 283.43973Q385.92276 284.15787 385.3151 284.9865Q385.70178 284.8429 385.9559 284.83182Q386.53043 284.80972 387.18228 284.95337L389.44724 285.45056L388.60754 286.29025L386.88397 285.91458Q386.1327 285.73782 385.70178 285.70468Q385.2709 285.6494 385.01678 285.70468Q384.7737 285.74887 384.58588 285.8704Q384.4533 285.95877 384.18814 286.22394L383.41473 286.99734L385.6576 289.2402L384.98364 289.91415ZM382.82916 286.41177L384.26547 284.97546Q384.72952 284.5114 384.89523 284.1689Q385.06097 283.80432 384.98364 283.46182Q384.90628 283.1193 384.66324 282.87625Q384.2986 282.51163 383.80145 282.54477Q383.3153 282.5669 382.75183 283.13037L381.14978 284.7324L382.82916 286.41177ZM385.51398 280.69968L384.7958 279.9815L385.41452 279.3628L386.1327 280.08096L385.51398 280.69968ZM389.85605 285.04175L386.18793 281.37363L386.80664 280.7549L390.47476 284.42303L389.85605 285.04175ZM392.77286 281.02008L393.40262 281.47308Q393.1927 281.7935 392.99384 281.99237Q392.65134 282.33487 392.36407 282.42325Q392.06577 282.50058 391.81165 282.40115Q391.56857 282.29068 391.01614 281.73825L388.90585 279.62796L388.44183 280.092L387.9557 279.60587L388.41974 279.14185L387.51376 278.23584L387.74576 277.25253L389.0274 278.53415L389.65717 277.9044L390.1433 278.39053L389.51355 279.0203L391.65695 281.16373Q391.92212 281.4289 392.0326 281.47308Q392.1431 281.51727 392.26462 281.48413Q392.38617 281.451 392.51874 281.3184Q392.6292 281.20792 392.77286 281.02008ZM389.7566 276.45703L389.03845 275.7389L389.65717 275.12015L390.37534 275.83832L389.7566 276.45703ZM394.0987 280.7991L390.43057 277.131L391.0493 276.51227L394.7174 280.1804L394.0987 280.7991ZM397.5348 274.99863L398.26398 274.4241Q398.6728 275.14227 398.57333 275.8825Q398.4739 276.60068 397.84415 277.23044Q397.0376 278.037 396.06534 278.0149Q395.09305 277.9928 394.19812 277.09784Q393.27005 276.16977 393.2369 275.18646Q393.2148 274.19208 393.9661 273.4408Q394.70636 272.70053 395.66757 272.73367Q396.62878 272.7668 397.5348 273.6728Q397.59003 273.72806 397.7005 273.83853L394.97153 276.56754Q395.61234 277.14206 396.23105 277.16415Q396.8608 277.1752 397.32486 276.71115Q397.66736 276.36865 397.73364 275.9488Q397.79996 275.52896 397.5348 274.99863ZM394.49643 276.02615L396.5404 273.98215Q396.03217 273.56232 395.61234 273.51813Q394.96048 273.4629 394.48538 273.93796Q394.05447 274.36887 394.05447 274.9434Q394.05447 275.5179 394.49643 276.02615ZM400.4516 274.4462L396.78348 270.77808L397.34695 270.2146L397.86624 270.7339Q397.66736 269.73953 398.42972 268.97717Q398.76117 268.64572 399.1589 268.49103Q399.55667 268.31427 399.88812 268.38055Q400.21957 268.42474 400.53998 268.63467Q400.7499 268.7783 401.1808 269.2092L403.4347 271.4631L402.81598 272.08182L400.58417 269.85Q400.20853 269.47437 399.94336 269.36386Q399.68924 269.24234 399.39093 269.31967Q399.08157 269.38596 398.8385 269.62903Q398.44077 270.0268 398.39658 270.57922Q398.36343 271.12057 399.07053 271.8277L401.0703 273.82748L400.4516 274.4462ZM400.36322 265.85043L399.64505 265.1323L400.26376 264.51355L400.98193 265.23172L400.36322 265.85043ZM404.7053 270.1925L401.03717 266.52438L401.65588 265.90567L405.324 269.5738L404.7053 270.1925ZM409.98648 262.21545L410.68256 261.69617Q411.2129 262.42538 411.15762 263.20984Q411.1024 263.97217 410.50577 264.56882Q409.75446 265.3201 408.79324 265.28696Q407.84308 265.24277 406.92606 264.32574Q406.34045 263.74017 406.0974 263.09933Q405.8433 262.44748 406.02005 261.82877Q406.19684 261.21005 406.67194 260.73495Q407.26855 260.13834 407.9425 260.061Q408.6275 259.9726 409.30148 260.4256L408.7822 261.12164Q408.3292 260.84546 407.9204 260.8786Q407.52267 260.9007 407.20224 261.2211Q406.73822 261.68512 406.7824 262.32596Q406.8266 262.94467 407.55582 263.67386Q408.29605 264.41412 408.90372 264.46936Q409.52246 264.51355 409.97543 264.06058Q410.34003 263.69595 410.36215 263.23193Q410.3953 262.75684 409.98648 262.21545ZM413.1795 261.7183L408.1193 256.65805L408.738 256.03934L410.54996 257.8513Q410.49472 256.91217 411.15762 256.24924Q411.56644 255.84045 412.03046 255.70787Q412.48346 255.56424 412.9033 255.71892Q413.3121 255.86255 413.8535 256.40393L416.17368 258.72412L415.5439 259.35388L413.22372 257.0337Q412.74863 256.55862 412.3398 256.54755Q411.93103 256.5365 411.5554 256.91217Q411.27917 257.1884 411.17972 257.57507Q411.0803 257.96176 411.2129 258.31534Q411.3565 258.65784 411.7874 259.0887L413.79825 261.09955L413.1795 261.7183ZM418.748 253.78543L419.47717 253.2109Q419.886 253.92906 419.78656 254.66931Q419.6871 255.38747 419.05734 256.01724Q418.2508 256.82376 417.27853 256.80167Q416.30624 256.77957 415.41132 255.88464Q414.48325 254.95657 414.4501 253.97325Q414.428 252.97888 415.1793 252.22758Q415.91956 251.48734 416.88077 251.52048Q417.842 251.55362 418.748 252.4596Q418.80322 252.51485 418.9137 252.62532L416.18472 255.35432Q416.82553 255.92885 417.44424 255.95094Q418.07404 255.96199 418.53806 255.49796Q418.88055 255.15544 418.94687 254.7356Q419.01315 254.31575 418.748 253.78543ZM415.70963 254.81294L417.7536 252.76895Q417.2454 252.34912 416.82553 252.30492Q416.17368 252.24968 415.69858 252.72476Q415.2677 253.15565 415.2677 253.73018Q415.2677 254.3047 415.70963 254.81294ZM419.45508 246.75854L418.73694 246.04039L419.35565 245.42168L420.07382 246.13983L419.45508 246.75854ZM423.79718 251.10063L420.12906 247.43251L420.74777 246.8138L424.4159 250.4819L423.79718 251.10063Z" fill-rule="nonzero"/><path fill="#4285f4" d="M86.5 52.166668C86.5 51.614384 86.947716 51.166668 87.5 51.166668L97.5 51.166668C98.052284 51.166668 98.5 51.614384 98.5 52.166668L98.5 62.166668C98.5 62.718952 98.052284 63.166668 97.5 63.166668L87.5 63.166668C86.947716 63.166668 86.5 62.718952 86.5 62.166668Z" fill-rule="nonzero"/><path fill="#1a1a1a" d="M107.421875 61.166668L107.421875 52.572918L110.390625 52.572918Q111.390625 52.572918 111.921875 52.697918Q112.65625 52.869793 113.171875 53.307293Q113.859375 53.885418 114.1875 54.791668Q114.53125 55.682293 114.53125 56.822918Q114.53125 57.807293 114.296875 58.557293Q114.078125 59.307293 113.71875 59.807293Q113.359375 60.307293 112.921875 60.588543Q112.5 60.869793 111.90625 61.026043Q111.3125 61.166668 110.53125 61.166668L107.421875 61.166668ZM108.5625 60.151043L110.390625 60.151043Q111.25 60.151043 111.734375 59.994793Q112.21875 59.838543 112.5 59.541668Q112.90625 59.151043 113.125 58.463543Q113.359375 57.776043 113.359375 56.807293Q113.359375 55.463543 112.90625 54.744793Q112.46875 54.010418 111.84375 53.760418Q111.375 53.588543 110.375 53.588543L108.5625 53.588543L108.5625 60.151043ZM120.546875 59.166668L121.640625 59.291668Q121.390625 60.244793 120.6875 60.776043Q119.984375 61.307293 118.90625 61.307293Q117.546875 61.307293 116.734375 60.463543Q115.9375 59.619793 115.9375 58.104168Q115.9375 56.541668 116.75 55.682293Q117.5625 54.807293 118.84375 54.807293Q120.09375 54.807293 120.875 55.651043Q121.671875 56.494793 121.671875 58.041668Q121.671875 58.135418 121.671875 58.322918L117.03125 58.322918Q117.09375 59.354168 117.609375 59.901043Q118.125 60.432293 118.90625 60.432293Q119.484375 60.432293 119.890625 60.135418Q120.3125 59.822918 120.546875 59.166668ZM117.09375 57.463543L120.5625 57.463543Q120.5 56.666668 120.171875 56.276043Q119.65625 55.666668 118.859375 55.666668Q118.125 55.666668 117.625 56.151043Q117.140625 56.635418 117.09375 57.463543ZM127.359375 58.885418L128.39062 59.026043Q128.21875 60.088543 127.515625 60.697918Q126.8125 61.307293 125.796875 61.307293Q124.515625 61.307293 123.734375 60.479168Q122.96875 59.635418 122.96875 58.072918Q122.96875 57.072918 123.296875 56.322918Q123.640625 55.557293 124.3125 55.182293Q125.0 54.807293 125.8125 54.807293Q126.8125 54.807293 127.453125 55.322918Q128.10938 55.822918 128.29688 56.776043L127.265625 56.932293Q127.125 56.307293 126.75 55.994793Q126.375 55.666668 125.84375 55.666668Q125.046875 55.666668 124.546875 56.244793Q124.046875 56.807293 124.046875 58.041668Q124.046875 59.307293 124.53125 59.869793Q125.015625 60.432293 125.78125 60.432293Q126.40625 60.432293 126.8125 60.057293Q127.234375 59.682293 127.359375 58.885418ZM129.29688 53.791668L129.29688 52.572918L130.35938 52.572918L130.35938 53.791668L129.29688 53.791668ZM129.29688 61.166668L129.29688 54.947918L130.35938 54.947918L130.35938 61.166668L129.29688 61.166668ZM131.875 59.307293L132.90625 59.151043Q133.0 59.776043 133.39062 60.104168Q133.79688 60.432293 134.53125 60.432293Q135.25 60.432293 135.59375 60.151043Q135.95312 59.854168 135.95312 59.447918Q135.95312 59.088543 135.64062 58.885418Q135.42188 58.744793 134.5625 58.526043Q133.40625 58.229168 132.95312 58.026043Q132.51562 57.807293 132.28125 57.432293Q132.04688 57.057293 132.04688 56.588543Q132.04688 56.182293 132.23438 55.822918Q132.42188 55.463543 132.75 55.229168Q133.0 55.057293 133.42188 54.932293Q133.84375 54.807293 134.34375 54.807293Q135.0625 54.807293 135.60938 55.026043Q136.17188 55.229168 136.4375 55.588543Q136.70312 55.947918 136.79688 56.541668L135.76562 56.682293Q135.70312 56.213543 135.35938 55.947918Q135.03125 55.666668 134.40625 55.666668Q133.6875 55.666668 133.375 55.916668Q133.0625 56.151043 133.0625 56.479168Q133.0625 56.682293 133.1875 56.838543Q133.32812 57.010418 133.59375 57.119793Q133.75 57.182293 134.53125 57.385418Q135.65625 57.697918 136.09375 57.885418Q136.53125 58.072918 136.78125 58.432293Q137.03125 58.791668 137.03125 59.338543Q137.03125 59.869793 136.71875 60.338543Q136.42188 60.791668 135.84375 61.057293Q135.26562 61.307293 134.53125 61.307293Q133.3125 61.307293 132.67188 60.807293Q132.04688 60.291668 131.875 59.307293ZM143.35938 60.401043Q142.76562 60.901043 142.21875 61.104168Q141.6875 61.307293 141.0625 61.307293Q140.03125 61.307293 139.48438 60.807293Q138.9375 60.307293 138.9375 59.526043Q138.9375 59.072918 139.14062 58.697918Q139.34375 58.307293 139.6875 58.088543Q140.03125 57.854168 140.45312 57.744793Q140.75 57.651043 141.39062 57.572918Q142.65625 57.432293 143.26562 57.213543Q143.26562 56.994793 143.26562 56.947918Q143.26562 56.291668 142.96875 56.026043Q142.5625 55.682293 141.76562 55.682293Q141.03125 55.682293 140.67188 55.947918Q140.3125 56.197918 140.14062 56.854168L139.10938 56.713543Q139.25 56.057293 139.57812 55.651043Q139.90625 55.244793 140.51562 55.026043Q141.125 54.807293 141.92188 54.807293Q142.71875 54.807293 143.21875 54.994793Q143.71875 55.182293 143.95312 55.463543Q144.1875 55.744793 144.28125 56.182293Q144.32812 56.447918 144.32812 57.151043L144.32812 58.557293Q144.32812 60.026043 144.39062 60.416668Q144.46875 60.807293 144.67188 61.166668L143.5625 61.166668Q143.40625 60.838543 143.35938 60.401043ZM143.26562 58.041668Q142.6875 58.276043 141.54688 58.447918Q140.89062 58.541668 140.625 58.666668Q140.35938 58.776043 140.20312 58.994793Q140.0625 59.213543 140.0625 59.494793Q140.0625 59.916668 140.375 60.197918Q140.70312 60.479168 141.3125 60.479168Q141.92188 60.479168 142.39062 60.213543Q142.875 59.947918 143.09375 59.479168Q143.26562 59.119793 143.26562 58.432293L143.26562 58.041668ZM146.29688 61.166668L146.29688 54.947918L147.23438 54.947918L147.23438 55.822918Q147.53125 55.354168 148.01562 55.088543Q148.5 54.807293 149.125 54.807293Q149.8125 54.807293 150.25 55.088543Q150.70312 55.369793 150.875 55.885418Q151.625 54.807293 152.79688 54.807293Q153.73438 54.807293 154.21875 55.322918Q154.71875 55.822918 154.71875 56.901043L154.71875 61.166668L153.67188 61.166668L153.67188 57.244793Q153.67188 56.619793 153.5625 56.338543Q153.46875 56.057293 153.20312 55.885418Q152.9375 55.713543 152.5625 55.713543Q151.90625 55.713543 151.46875 56.151043Q151.04688 56.588543 151.04688 57.557293L151.04688 61.166668L149.98438 61.166668L149.98438 57.119793Q149.98438 56.416668 149.71875 56.072918Q149.46875 55.713543 148.89062 55.713543Q148.4375 55.713543 148.0625 55.947918Q147.6875 56.182293 147.51562 56.635418Q147.34375 57.088543 147.34375 57.932293L147.34375 61.166668L146.29688 61.166668ZM161.54688 59.166668L162.64062 59.291668Q162.39062 60.244793 161.6875 60.776043Q160.98438 61.307293 159.90625 61.307293Q158.54688 61.307293 157.73438 60.463543Q156.9375 59.619793 156.9375 58.104168Q156.9375 56.541668 157.75 55.682293Q158.5625 54.807293 159.84375 54.807293Q161.09375 54.807293 161.875 55.651043Q162.67188 56.494793 162.67188 58.041668Q162.67188 58.135418 162.67188 58.322918L158.03125 58.322918Q158.09375 59.354168 158.60938 59.901043Q159.125 60.432293 159.90625 60.432293Q160.48438 60.432293 160.89062 60.135418Q161.3125 59.822918 161.54688 59.166668ZM158.09375 57.463543L161.5625 57.463543Q161.5 56.666668 161.17188 56.276043Q160.65625 55.666668 159.85938 55.666668Q159.125 55.666668 158.625 56.151043Q158.14062 56.635418 158.09375 57.463543ZM164.29688 61.166668L164.29688 54.947918L165.23438 54.947918L165.23438 55.822918Q165.92188 54.807293 167.21875 54.807293Q167.78125 54.807293 168.25 55.010418Q168.73438 55.213543 168.96875 55.541668Q169.20312 55.869793 169.29688 56.307293Q169.34375 56.604168 169.34375 57.338543L169.34375 61.166668L168.29688 61.166668L168.29688 57.385418Q168.29688 56.729168 168.17188 56.416668Q168.04688 56.104168 167.73438 55.916668Q167.42188 55.713543 167.0 55.713543Q166.32812 55.713543 165.82812 56.151043Q165.34375 56.572918 165.34375 57.760418L165.34375 61.166668L164.29688 61.166668ZM173.59375 60.229168L173.75 61.151043Q173.29688 61.244793 172.95312 61.244793Q172.375 61.244793 172.0625 61.072918Q171.75 60.885418 171.60938 60.588543Q171.48438 60.291668 171.48438 59.338543L171.48438 55.760418L170.71875 55.760418L170.71875 54.947918L171.48438 54.947918L171.48438 53.401043L172.53125 52.776043L172.53125 54.947918L173.59375 54.947918L173.59375 55.760418L172.53125 55.760418L172.53125 59.401043Q172.53125 59.854168 172.57812 59.979168Q172.64062 60.104168 172.76562 60.182293Q172.89062 60.260418 173.125 60.260418Q173.3125 60.260418 173.59375 60.229168ZM178.54688 59.166668L179.64062 59.291668Q179.39062 60.244793 178.6875 60.776043Q177.98438 61.307293 176.90625 61.307293Q175.54688 61.307293 174.73438 60.463543Q173.9375 59.619793 173.9375 58.104168Q173.9375 56.541668 174.75 55.682293Q175.5625 54.807293 176.84375 54.807293Q178.09375 54.807293 178.875 55.651043Q179.67188 56.494793 179.67188 58.041668Q179.67188 58.135418 179.67188 58.322918L175.03125 58.322918Q175.09375 59.354168 175.60938 59.901043Q176.125 60.432293 176.90625 60.432293Q177.48438 60.432293 177.89062 60.135418Q178.3125 59.822918 178.54688 59.166668ZM175.09375 57.463543L178.5625 57.463543Q178.5 56.666668 178.17188 56.276043Q177.65625 55.666668 176.85938 55.666668Q176.125 55.666668 175.625 56.151043Q175.14062 56.635418 175.09375 57.463543ZM184.29688 61.166668L184.29688 54.947918L185.23438 54.947918L185.23438 55.822918Q185.92188 54.807293 187.21875 54.807293Q187.78125 54.807293 188.25 55.010418Q188.73438 55.213543 188.96875 55.541668Q189.20312 55.869793 189.29688 56.307293Q189.34375 56.604168 189.34375 57.338543L189.34375 61.166668L188.29688 61.166668L188.29688 57.385418Q188.29688 56.729168 188.17188 56.416668Q188.04688 56.104168 187.73438 55.916668Q187.42188 55.713543 187.0 55.713543Q186.32812 55.713543 185.82812 56.151043Q185.34375 56.572918 185.34375 57.760418L185.34375 61.166668L184.29688 61.166668ZM190.90625 58.057293Q190.90625 56.322918 191.85938 55.494793Q192.65625 54.807293 193.8125 54.807293Q195.09375 54.807293 195.90625 55.651043Q196.73438 56.479168 196.73438 57.963543Q196.73438 59.166668 196.375 59.854168Q196.01562 60.541668 195.3125 60.932293Q194.625 61.307293 193.8125 61.307293Q192.51562 61.307293 191.70312 60.479168Q190.90625 59.635418 190.90625 58.057293ZM191.98438 58.057293Q191.98438 59.244793 192.5 59.838543Q193.03125 60.432293 193.8125 60.432293Q194.60938 60.432293 195.125 59.838543Q195.64062 59.244793 195.64062 58.026043Q195.64062 56.869793 195.10938 56.276043Q194.59375 55.682293 193.8125 55.682293Q193.03125 55.682293 192.5 56.276043Q191.98438 56.854168 191.98438 58.057293Z" fill-rule="nonzero"/><path fill="#ea4335" d="M213.5 52.166668C213.5 51.614384 213.94771 51.166668 214.5 51.166668L224.5 51.166668C225.05229 51.166668 225.5 51.614384 225.5 52.166668L225.5 62.166668C225.5 62.718952 225.05229 63.166668 224.5 63.166668L214.5 63.166668C213.94771 63.166668 213.5 62.718952 213.5 62.166668Z" fill-rule="nonzero"/><path fill="#1a1a1a" d="M234.29688 61.166668L234.29688 54.947918L235.23438 54.947918L235.23438 55.822918Q235.92188 54.807293 237.21875 54.807293Q237.78125 54.807293 238.25 55.010418Q238.73438 55.213543 238.96875 55.541668Q239.20312 55.869793 239.29688 56.307293Q239.34375 56.604168 239.34375 57.338543L239.34375 61.166668L238.29688 61.166668L238.29688 57.385418Q238.29688 56.729168 238.17188 56.416668Q238.04688 56.104168 237.73438 55.916668Q237.42188 55.713543 237.0 55.713543Q236.32812 55.713543 235.82812 56.151043Q235.34375 56.572918 235.34375 57.760418L235.34375 61.166668L234.29688 61.166668ZM240.90625 58.057293Q240.90625 56.322918 241.85938 55.494793Q242.65625 54.807293 243.8125 54.807293Q245.09375 54.807293 245.90625 55.651043Q246.73438 56.479168 246.73438 57.963543Q246.73438 59.166668 246.375 59.854168Q246.01562 60.541668 245.3125 60.932293Q244.625 61.307293 243.8125 61.307293Q242.51562 61.307293 241.70312 60.479168Q240.90625 59.635418 240.90625 58.057293ZM241.98438 58.057293Q241.98438 59.244793 242.5 59.838543Q243.03125 60.432293 243.8125 60.432293Q244.60938 60.432293 245.125 59.838543Q245.64062 59.244793 245.64062 58.026043Q245.64062 56.869793 245.10938 56.276043Q244.59375 55.682293 243.8125 55.682293Q243.03125 55.682293 242.5 56.276043Q241.98438 56.854168 241.98438 58.057293Z" fill-rule="nonzero"/><path fill="#fbbc04" d="M263.5 52.166668C263.5 51.614384 263.94772 51.166668 264.5 51.166668L274.5 51.166668C275.05228 51.166668 275.5 51.614384 275.5 52.166668L275.5 62.166668C275.5 62.718952 275.05228 63.166668 274.5 63.166668L264.5 63.166668C263.94772 63.166668 263.5 62.718952 263.5 62.166668Z" fill-rule="nonzero"/><path fill="#1a1a1a" d="M284.29688 61.166668L284.29688 54.947918L285.23438 54.947918L285.23438 55.822918Q285.92188 54.807293 287.21875 54.807293Q287.78125 54.807293 288.25 55.010418Q288.73438 55.213543 288.96875 55.541668Q289.20312 55.869793 289.29688 56.307293Q289.34375 56.604168 289.34375 57.338543L289.34375 61.166668L288.29688 61.166668L288.29688 57.385418Q288.29688 56.729168 288.17188 56.416668Q288.04688 56.104168 287.73438 55.916668Q287.42188 55.713543 287.0 55.713543Q286.32812 55.713543 285.82812 56.151043Q285.34375 56.572918 285.34375 57.760418L285.34375 61.166668L284.29688 61.166668ZM290.90625 58.057293Q290.90625 56.322918 291.85938 55.494793Q292.65625 54.807293 293.8125 54.807293Q295.09375 54.807293 295.90625 55.651043Q296.73438 56.479168 296.73438 57.963543Q296.73438 59.166668 296.375 59.854168Q296.01562 60.541668 295.3125 60.932293Q294.625 61.307293 293.8125 61.307293Q292.51562 61.307293 291.70312 60.479168Q290.90625 59.635418 290.90625 58.057293ZM291.98438 58.057293Q291.98438 59.244793 292.5 59.838543Q293.03125 60.432293 293.8125 60.432293Q294.60938 60.432293 295.125 59.838543Q295.64062 59.244793 295.64062 58.026043Q295.64062 56.869793 295.10938 56.276043Q294.59375 55.682293 293.8125 55.682293Q293.03125 55.682293 292.5 56.276043Q291.98438 56.854168 291.98438 58.057293ZM298.29688 61.166668L298.29688 54.947918L299.23438 54.947918L299.23438 55.822918Q299.92188 54.807293 301.21875 54.807293Q301.78125 54.807293 302.25 55.010418Q302.73438 55.213543 302.96875 55.541668Q303.20312 55.869793 303.29688 56.307293Q303.34375 56.604168 303.34375 57.338543L303.34375 61.166668L302.29688 61.166668L302.29688 57.385418Q302.29688 56.729168 302.17188 56.416668Q302.04688 56.104168 301.73438 55.916668Q301.42188 55.713543 301.0 55.713543Q300.32812 55.713543 299.82812 56.151043Q299.34375 56.572918 299.34375 57.760418L299.34375 61.166668L298.29688 61.166668ZM307.875 59.307293L308.90625 59.151043Q309.0 59.776043 309.39062 60.104168Q309.79688 60.432293 310.53125 60.432293Q311.25 60.432293 311.59375 60.151043Q311.95312 59.854168 311.95312 59.447918Q311.95312 59.088543 311.64062 58.885418Q311.42188 58.744793 310.5625 58.526043Q309.40625 58.229168 308.95312 58.026043Q308.51562 57.807293 308.28125 57.432293Q308.04688 57.057293 308.04688 56.588543Q308.04688 56.182293 308.23438 55.822918Q308.42188 55.463543 308.75 55.229168Q309.0 55.057293 309.42188 54.932293Q309.84375 54.807293 310.34375 54.807293Q311.0625 54.807293 311.60938 55.026043Q312.17188 55.229168 312.4375 55.588543Q312.70312 55.947918 312.79688 56.541668L311.76562 56.682293Q311.70312 56.213543 311.35938 55.947918Q311.03125 55.666668 310.40625 55.666668Q309.6875 55.666668 309.375 55.916668Q309.0625 56.151043 309.0625 56.479168Q309.0625 56.682293 309.1875 56.838543Q309.32812 57.010418 309.59375 57.119793Q309.75 57.182293 310.53125 57.385418Q311.65625 57.697918 312.09375 57.885418Q312.53125 58.072918 312.78125 58.432293Q313.03125 58.791668 313.03125 59.338543Q313.03125 59.869793 312.71875 60.338543Q312.42188 60.791668 311.84375 61.057293Q311.26562 61.307293 310.53125 61.307293Q309.3125 61.307293 308.67188 60.807293Q308.04688 60.291668 307.875 59.307293ZM314.90625 58.057293Q314.90625 56.322918 315.85938 55.494793Q316.65625 54.807293 317.8125 54.807293Q319.09375 54.807293 319.90625 55.651043Q320.73438 56.479168 320.73438 57.963543Q320.73438 59.166668 320.375 59.854168Q320.01562 60.541668 319.3125 60.932293Q318.625 61.307293 317.8125 61.307293Q316.51562 61.307293 315.70312 60.479168Q314.90625 59.635418 314.90625 58.057293ZM315.98438 58.057293Q315.98438 59.244793 316.5 59.838543Q317.03125 60.432293 317.8125 60.432293Q318.60938 60.432293 319.125 59.838543Q319.64062 59.244793 319.64062 58.026043Q319.64062 56.869793 319.10938 56.276043Q318.59375 55.682293 317.8125 55.682293Q317.03125 55.682293 316.5 56.276043Q315.98438 56.854168 315.98438 58.057293Z" fill-rule="nonzero"/><path fill="#34a853" d="M337.5 52.166668C337.5 51.614384 337.94772 51.166668 338.5 51.166668L348.5 51.166668C349.05228 51.166668 349.5 51.614384 349.5 52.166668L349.5 62.166668C349.5 62.718952 349.05228 63.166668 348.5 63.166668L338.5 63.166668C337.94772 63.166668 337.5 62.718952 337.5 62.166668Z" fill-rule="nonzero"/><path fill="#1a1a1a" d="M357.875 59.307293L358.90625 59.151043Q359.0 59.776043 359.39062 60.104168Q359.79688 60.432293 360.53125 60.432293Q361.25 60.432293 361.59375 60.151043Q361.95312 59.854168 361.95312 59.447918Q361.95312 59.088543 361.64062 58.885418Q361.42188 58.744793 360.5625 58.526043Q359.40625 58.229168 358.95312 58.026043Q358.51562 57.807293 358.28125 57.432293Q358.04688 57.057293 358.04688 56.588543Q358.04688 56.182293 358.23438 55.822918Q358.42188 55.463543 358.75 55.229168Q359.0 55.057293 359.42188 54.932293Q359.84375 54.807293 360.34375 54.807293Q361.0625 54.807293 361.60938 55.026043Q362.17188 55.229168 362.4375 55.588543Q362.70312 55.947918 362.79688 56.541668L361.76562 56.682293Q361.70312 56.213543 361.35938 55.947918Q361.03125 55.666668 360.40625 55.666668Q359.6875 55.666668 359.375 55.916668Q359.0625 56.151043 359.0625 56.479168Q359.0625 56.682293 359.1875 56.838543Q359.32812 57.010418 359.59375 57.119793Q359.75 57.182293 360.53125 57.385418Q361.65625 57.697918 362.09375 57.885418Q362.53125 58.072918 362.78125 58.432293Q363.03125 58.791668 363.03125 59.338543Q363.03125 59.869793 362.71875 60.338543Q362.42188 60.791668 361.84375 61.057293Q361.26562 61.307293 360.53125 61.307293Q359.3125 61.307293 358.67188 60.807293Q358.04688 60.291668 357.875 59.307293ZM365.65625 61.166668L365.65625 54.947918L366.71875 54.947918L366.71875 61.166668L365.65625 61.166668ZM366.90625 54.166668L366.0625 54.166668L364.70312 52.526043L366.125 52.526043L366.90625 54.166668Z" fill-rule="nonzero"/><path fill="#ff6d01" d="M383.5 52.166668C383.5 51.614384 383.94772 51.166668 384.5 51.166668L394.5 51.166668C395.05228 51.166668 395.5 51.614384 395.5 52.166668L395.5 62.166668C395.5 62.718952 395.05228 63.166668 394.5 63.166668L384.5 63.166668C383.94772 63.166668 383.5 62.718952 383.5 62.166668Z" fill-rule="nonzero"/><path fill="#1a1a1a" d="M404.42188 61.166668L404.42188 52.572918L407.39062 52.572918Q408.39062 52.572918 408.92188 52.697918Q409.65625 52.869793 410.17188 53.307293Q410.85938 53.885418 411.1875 54.791668Q411.53125 55.682293 411.53125 56.822918Q411.53125 57.807293 411.29688 58.557293Q411.07812 59.307293 410.71875 59.807293Q410.35938 60.307293 409.92188 60.588543Q409.5 60.869793 408.90625 61.026043Q408.3125 61.166668 407.53125 61.166668L404.42188 61.166668ZM405.5625 60.151043L407.39062 60.151043Q408.25 60.151043 408.73438 59.994793Q409.21875 59.838543 409.5 59.541668Q409.90625 59.151043 410.125 58.463543Q410.35938 57.776043 410.35938 56.807293Q410.35938 55.463543 409.90625 54.744793Q409.46875 54.010418 408.84375 53.760418Q408.375 53.588543 407.375 53.588543L405.5625 53.588543L405.5625 60.151043ZM417.54688 59.166668L418.64062 59.291668Q418.39062 60.244793 417.6875 60.776043Q416.98438 61.307293 415.90625 61.307293Q414.54688 61.307293 413.73438 60.463543Q412.9375 59.619793 412.9375 58.104168Q412.9375 56.541668 413.75 55.682293Q414.5625 54.807293 415.84375 54.807293Q417.09375 54.807293 417.875 55.651043Q418.67188 56.494793 418.67188 58.041668Q418.67188 58.135418 418.67188 58.322918L414.03125 58.322918Q414.09375 59.354168 414.60938 59.901043Q415.125 60.432293 415.90625 60.432293Q416.48438 60.432293 416.89062 60.135418Q417.3125 59.822918 417.54688 59.166668ZM414.09375 57.463543L417.5625 57.463543Q417.5 56.666668 417.17188 56.276043Q416.65625 55.666668 415.85938 55.666668Q415.125 55.666668 414.625 56.151043Q414.14062 56.635418 414.09375 57.463543ZM424.35938 58.885418L425.39062 59.026043Q425.21875 60.088543 424.51562 60.697918Q423.8125 61.307293 422.79688 61.307293Q421.51562 61.307293 420.73438 60.479168Q419.96875 59.635418 419.96875 58.072918Q419.96875 57.072918 420.29688 56.322918Q420.64062 55.557293 421.3125 55.182293Q422.0 54.807293 422.8125 54.807293Q423.8125 54.807293 424.45312 55.322918Q425.10938 55.822918 425.29688 56.776043L424.26562 56.932293Q424.125 56.307293 423.75 55.994793Q423.375 55.666668 422.84375 55.666668Q422.04688 55.666668 421.54688 56.244793Q421.04688 56.807293 421.04688 58.041668Q421.04688 59.307293 421.53125 59.869793Q422.01562 60.432293 422.78125 60.432293Q423.40625 60.432293 423.8125 60.057293Q424.23438 59.682293 424.35938 58.885418ZM426.29688 53.791668L426.29688 52.572918L427.35938 52.572918L427.35938 53.791668L426.29688 53.791668ZM426.29688 61.166668L426.29688 54.947918L427.35938 54.947918L427.35938 61.166668L426.29688 61.166668ZM428.875 59.307293L429.90625 59.151043Q430.0 59.776043 430.39062 60.104168Q430.79688 60.432293 431.53125 60.432293Q432.25 60.432293 432.59375 60.151043Q432.95312 59.854168 432.95312 59.447918Q432.95312 59.088543 432.64062 58.885418Q432.42188 58.744793 431.5625 58.526043Q430.40625 58.229168 429.95312 58.026043Q429.51562 57.807293 429.28125 57.432293Q429.04688 57.057293 429.04688 56.588543Q429.04688 56.182293 429.23438 55.822918Q429.42188 55.463543 429.75 55.229168Q430.0 55.057293 430.42188 54.932293Q430.84375 54.807293 431.34375 54.807293Q432.0625 54.807293 432.60938 55.026043Q433.17188 55.229168 433.4375 55.588543Q433.70312 55.947918 433.79688 56.541668L432.76562 56.682293Q432.70312 56.213543 432.35938 55.947918Q432.03125 55.666668 431.40625 55.666668Q430.6875 55.666668 430.375 55.916668Q430.0625 56.151043 430.0625 56.479168Q430.0625 56.682293 430.1875 56.838543Q430.32812 57.010418 430.59375 57.119793Q430.75 57.182293 431.53125 57.385418Q432.65625 57.697918 433.09375 57.885418Q433.53125 58.072918 433.78125 58.432293Q434.03125 58.791668 434.03125 59.338543Q434.03125 59.869793 433.71875 60.338543Q433.42188 60.791668 432.84375 61.057293Q432.26562 61.307293 431.53125 61.307293Q430.3125 61.307293 429.67188 60.807293Q429.04688 60.291668 428.875 59.307293ZM440.35938 60.401043Q439.76562 60.901043 439.21875 61.104168Q438.6875 61.307293 438.0625 61.307293Q437.03125 61.307293 436.48438 60.807293Q435.9375 60.307293 435.9375 59.526043Q435.9375 59.072918 436.14062 58.697918Q436.34375 58.307293 436.6875 58.088543Q437.03125 57.854168 437.45312 57.744793Q437.75 57.651043 438.39062 57.572918Q439.65625 57.432293 440.26562 57.213543Q440.26562 56.994793 440.26562 56.947918Q440.26562 56.291668 439.96875 56.026043Q439.5625 55.682293 438.76562 55.682293Q438.03125 55.682293 437.67188 55.947918Q437.3125 56.197918 437.14062 56.854168L436.10938 56.713543Q436.25 56.057293 436.57812 55.651043Q436.90625 55.244793 437.51562 55.026043Q438.125 54.807293 438.92188 54.807293Q439.71875 54.807293 440.21875 54.994793Q440.71875 55.182293 440.95312 55.463543Q441.1875 55.744793 441.28125 56.182293Q441.32812 56.447918 441.32812 57.151043L441.32812 58.557293Q441.32812 60.026043 441.39062 60.416668Q441.46875 60.807293 441.67188 61.166668L440.5625 61.166668Q440.40625 60.838543 440.35938 60.401043ZM440.26562 58.041668Q439.6875 58.276043 438.54688 58.447918Q437.89062 58.541668 437.625 58.666668Q437.35938 58.776043 437.20312 58.994793Q437.0625 59.213543 437.0625 59.494793Q437.0625 59.916668 437.375 60.197918Q437.70312 60.479168 438.3125 60.479168Q438.92188 60.479168 439.39062 60.213543Q439.875 59.947918 440.09375 59.479168Q440.26562 59.119793 440.26562 58.432293L440.26562 58.041668ZM443.29688 61.166668L443.29688 54.947918L444.23438 54.947918L444.23438 55.822918Q444.53125 55.354168 445.01562 55.088543Q445.5 54.807293 446.125 54.807293Q446.8125 54.807293 447.25 55.088543Q447.70312 55.369793 447.875 55.885418Q448.625 54.807293 449.79688 54.807293Q450.73438 54.807293 451.21875 55.322918Q451.71875 55.822918 451.71875 56.901043L451.71875 61.166668L450.67188 61.166668L450.67188 57.244793Q450.67188 56.619793 450.5625 56.338543Q450.46875 56.057293 450.20312 55.885418Q449.9375 55.713543 449.5625 55.713543Q448.90625 55.713543 448.46875 56.151043Q448.04688 56.588543 448.04688 57.557293L448.04688 61.166668L446.98438 61.166668L446.98438 57.119793Q446.98438 56.416668 446.71875 56.072918Q446.46875 55.713543 445.89062 55.713543Q445.4375 55.713543 445.0625 55.947918Q444.6875 56.182293 444.51562 56.635418Q444.34375 57.088543 444.34375 57.932293L444.34375 61.166668L443.29688 61.166668ZM458.54688 59.166668L459.64062 59.291668Q459.39062 60.244793 458.6875 60.776043Q457.98438 61.307293 456.90625 61.307293Q455.54688 61.307293 454.73438 60.463543Q453.9375 59.619793 453.9375 58.104168Q453.9375 56.541668 454.75 55.682293Q455.5625 54.807293 456.84375 54.807293Q458.09375 54.807293 458.875 55.651043Q459.67188 56.494793 459.67188 58.041668Q459.67188 58.135418 459.67188 58.322918L455.03125 58.322918Q455.09375 59.354168 455.60938 59.901043Q456.125 60.432293 456.90625 60.432293Q457.48438 60.432293 457.89062 60.135418Q458.3125 59.822918 458.54688 59.166668ZM455.09375 57.463543L458.5625 57.463543Q458.5 56.666668 458.17188 56.276043Q457.65625 55.666668 456.85938 55.666668Q456.125 55.666668 455.625 56.151043Q455.14062 56.635418 455.09375 57.463543ZM461.29688 61.166668L461.29688 54.947918L462.23438 54.947918L462.23438 55.822918Q462.92188 54.807293 464.21875 54.807293Q464.78125 54.807293 465.25 55.010418Q465.73438 55.213543 465.96875 55.541668Q466.20312 55.869793 466.29688 56.307293Q466.34375 56.604168 466.34375 57.338543L466.34375 61.166668L465.29688 61.166668L465.29688 57.385418Q465.29688 56.729168 465.17188 56.416668Q465.04688 56.104168 464.73438 55.916668Q464.42188 55.713543 464.0 55.713543Q463.32812 55.713543 462.82812 56.151043Q462.34375 56.572918 462.34375 57.760418L462.34375 61.166668L461.29688 61.166668ZM470.59375 60.229168L470.75 61.151043Q470.29688 61.244793 469.95312 61.244793Q469.375 61.244793 469.0625 61.072918Q468.75 60.885418 468.60938 60.588543Q468.48438 60.291668 468.48438 59.338543L468.48438 55.760418L467.71875 55.760418L467.71875 54.947918L468.48438 54.947918L468.48438 53.401043L469.53125 52.776043L469.53125 54.947918L470.59375 54.947918L470.59375 55.760418L469.53125 55.760418L469.53125 59.401043Q469.53125 59.854168 469.57812 59.979168Q469.64062 60.104168 469.76562 60.182293Q469.89062 60.260418 470.125 60.260418Q470.3125 60.260418 470.59375 60.229168ZM475.54688 59.166668L476.64062 59.291668Q476.39062 60.244793 475.6875 60.776043Q474.98438 61.307293 473.90625 61.307293Q472.54688 61.307293 471.73438 60.463543Q470.9375 59.619793 470.9375 58.104168Q470.9375 56.541668 471.75 55.682293Q472.5625 54.807293 473.84375 54.807293Q475.09375 54.807293 475.875 55.651043Q476.67188 56.494793 476.67188 58.041668Q476.67188 58.135418 476.67188 58.322918L472.03125 58.322918Q472.09375 59.354168 472.60938 59.901043Q473.125 60.432293 473.90625 60.432293Q474.48438 60.432293 474.89062 60.135418Q475.3125 59.822918 475.54688 59.166668ZM472.09375 57.463543L475.5625 57.463543Q475.5 56.666668 475.17188 56.276043Q474.65625 55.666668 473.85938 55.666668Q473.125 55.666668 472.625 56.151043Q472.14062 56.635418 472.09375 57.463543ZM480.875 59.307293L481.90625 59.151043Q482.0 59.776043 482.39062 60.104168Q482.79688 60.432293 483.53125 60.432293Q484.25 60.432293 484.59375 60.151043Q484.95312 59.854168 484.95312 59.447918Q484.95312 59.088543 484.64062 58.885418Q484.42188 58.744793 483.5625 58.526043Q482.40625 58.229168 481.95312 58.026043Q481.51562 57.807293 481.28125 57.432293Q481.04688 57.057293 481.04688 56.588543Q481.04688 56.182293 481.23438 55.822918Q481.42188 55.463543 481.75 55.229168Q482.0 55.057293 482.42188 54.932293Q482.84375 54.807293 483.34375 54.807293Q484.0625 54.807293 484.60938 55.026043Q485.17188 55.229168 485.4375 55.588543Q485.70312 55.947918 485.79688 56.541668L484.76562 56.682293Q484.70312 56.213543 484.35938 55.947918Q484.03125 55.666668 483.40625 55.666668Q482.6875 55.666668 482.375 55.916668Q482.0625 56.151043 482.0625 56.479168Q482.0625 56.682293 482.1875 56.838543Q482.32812 57.010418 482.59375 57.119793Q482.75 57.182293 483.53125 57.385418Q484.65625 57.697918 485.09375 57.885418Q485.53125 58.072918 485.78125 58.432293Q486.03125 58.791668 486.03125 59.338543Q486.03125 59.869793 485.71875 60.338543Q485.42188 60.791668 484.84375 61.057293Q484.26562 61.307293 483.53125 61.307293Q482.3125 61.307293 481.67188 60.807293Q481.04688 60.291668 480.875 59.307293ZM488.65625 61.166668L488.65625 54.947918L489.71875 54.947918L489.71875 61.166668L488.65625 61.166668ZM489.90625 54.166668L489.0625 54.166668L487.70312 52.526043L489.125 52.526043L489.90625 54.166668Z" fill-rule="nonzero"/><path fill="#757575" d="M17.278126 34.7L17.278126 20.3875L23.621876 20.3875Q25.528126 20.3875 26.528126 20.778126Q27.528126 21.153126 28.121876 22.1375Q28.715626 23.10625 28.715626 24.29375Q28.715626 25.809376 27.73125 26.85625Q26.746876 27.903126 24.684376 28.184376Q25.434376 28.54375 25.825 28.903126Q26.653126 29.653126 27.403126 30.809376L29.8875 34.7L27.5125 34.7L25.60625 31.715626Q24.778126 30.434376 24.246876 29.746876Q23.715626 29.059376 23.278126 28.79375Q22.85625 28.5125 22.41875 28.403126Q22.090626 28.340626 21.371876 28.340626L19.16875 28.340626L19.16875 34.7L17.278126 34.7ZM19.16875 26.7L23.246876 26.7Q24.54375 26.7 25.2625 26.434376Q25.996876 26.16875 26.371876 25.575Q26.7625 24.98125 26.7625 24.29375Q26.7625 23.278126 26.028126 22.621876Q25.29375 21.965626 23.7 21.965626L19.16875 21.965626L19.16875 26.7ZM31.028126 22.403126L31.028126 20.3875L32.79375 20.3875L32.79375 22.403126L31.028126 22.403126ZM31.028126 34.7L31.028126 24.325L32.79375 24.325L32.79375 34.7L31.028126 34.7ZM42.121876 31.35625L43.934376 31.590626Q43.5125 33.16875 42.340626 34.059376Q41.184376 34.934376 39.371876 34.934376Q37.10625 34.934376 35.7625 33.54375Q34.434376 32.1375 34.434376 29.60625Q34.434376 26.98125 35.778126 25.54375Q37.121876 24.090626 39.278126 24.090626Q41.35625 24.090626 42.66875 25.5125Q43.996876 26.91875 43.996876 29.496876Q43.996876 29.653126 43.98125 29.965626L36.246876 29.965626Q36.340626 31.66875 37.215626 32.575Q38.090626 33.48125 39.3875 33.48125Q40.35625 33.48125 41.028126 32.98125Q41.715626 32.465626 42.121876 31.35625ZM36.340626 28.5125L42.1375 28.5125Q42.028126 27.215626 41.48125 26.559376Q40.6375 25.54375 39.29375 25.54375Q38.090626 25.54375 37.2625 26.35625Q36.434376 27.153126 36.340626 28.5125ZM46.0125 38.66875L46.0125 24.325L47.621876 24.325L47.621876 25.66875Q48.184376 24.8875 48.8875 24.496876Q49.60625 24.090626 50.621876 24.090626Q51.95 24.090626 52.965626 24.778126Q53.98125 25.465626 54.496876 26.715626Q55.028126 27.95 55.028126 29.434376Q55.028126 31.028126 54.45 32.309376Q53.8875 33.575 52.79375 34.2625Q51.7 34.934376 50.496876 34.934376Q49.621876 34.934376 48.91875 34.559376Q48.23125 34.184376 47.778126 33.621876L47.778126 38.66875L46.0125 38.66875ZM47.60625 29.575Q47.60625 31.575 48.41875 32.528126Q49.23125 33.48125 50.3875 33.48125Q51.559376 33.48125 52.3875 32.496876Q53.23125 31.5125 53.23125 29.41875Q53.23125 27.45 52.403126 26.465626Q51.590626 25.465626 50.465626 25.465626Q49.340626 25.465626 48.465626 26.528126Q47.60625 27.575 47.60625 29.575ZM57.028126 22.403126L57.028126 20.3875L58.79375 20.3875L58.79375 22.403126L57.028126 22.403126ZM57.028126 34.7L57.028126 24.325L58.79375 24.325L58.79375 34.7L57.028126 34.7ZM60.98125 34.7L60.98125 20.3875L62.73125 20.3875L62.73125 34.7L60.98125 34.7ZM64.37187 29.5125Q64.37187 26.6375 65.96562 25.246876Q67.30937 24.090626 69.23125 24.090626Q71.37187 24.090626 72.71562 25.496876Q74.075 26.903126 74.075 29.371876Q74.075 31.371876 73.48125 32.528126Q72.8875 33.66875 71.73125 34.309376Q70.59062 34.934376 69.23125 34.934376Q67.04375 34.934376 65.7 33.54375Q64.37187 32.1375 64.37187 29.5125ZM66.16875 29.5125Q66.16875 31.5125 67.02812 32.496876Q67.90312 33.48125 69.23125 33.48125Q70.54375 33.48125 71.40312 32.496876Q72.27812 31.496876 72.27812 29.45Q72.27812 27.528126 71.40312 26.54375Q70.52812 25.54375 69.23125 25.54375Q67.90312 25.54375 67.02812 26.54375Q66.16875 27.528126 66.16875 29.5125ZM75.7 35.559376L77.40312 35.809376Q77.5125 36.60625 77.99687 36.965626Q78.65312 37.45 79.79375 37.45Q81.0125 37.45 81.66875 36.965626Q82.34062 36.48125 82.575 35.60625Q82.71562 35.059376 82.7 33.340626Q81.54375 34.7 79.825 34.7Q77.68437 34.7 76.5125 33.153126Q75.34062 31.60625 75.34062 29.45Q75.34062 27.965626 75.87187 26.715626Q76.41875 25.465626 77.43437 24.778126Q78.46562 24.090626 79.84062 24.090626Q81.66875 24.090626 82.87187 25.575L82.87187 24.325L84.48125 24.325L84.48125 33.29375Q84.48125 35.715626 83.98125 36.715626Q83.49687 37.73125 82.41875 38.309376Q81.35625 38.903126 79.79375 38.903126Q77.95 38.903126 76.79375 38.075Q75.65312 37.246876 75.7 35.559376ZM77.15312 29.325Q77.15312 31.371876 77.96562 32.309376Q78.77812 33.246876 79.99687 33.246876Q81.2 33.246876 82.0125 32.309376Q82.84062 31.371876 82.84062 29.3875Q82.84062 27.48125 81.99687 26.5125Q81.15312 25.54375 79.96562 25.54375Q78.79375 25.54375 77.96562 26.496876Q77.15312 27.45 77.15312 29.325ZM86.37187 29.5125Q86.37187 26.6375 87.96562 25.246876Q89.30937 24.090626 91.23125 24.090626Q93.37187 24.090626 94.71562 25.496876Q96.075 26.903126 96.075 29.371876Q96.075 31.371876 95.48125 32.528126Q94.8875 33.66875 93.73125 34.309376Q92.59062 34.934376 91.23125 34.934376Q89.04375 34.934376 87.7 33.54375Q86.37187 32.1375 86.37187 29.5125ZM88.16875 29.5125Q88.16875 31.5125 89.02812 32.496876Q89.90312 33.48125 91.23125 33.48125Q92.54375 33.48125 93.40312 32.496876Q94.27812 31.496876 94.27812 29.45Q94.27812 27.528126 93.40312 26.54375Q92.52812 25.54375 91.23125 25.54375Q89.90312 25.54375 89.02812 26.54375Q88.16875 27.528126 88.16875 29.5125ZM104.16875 34.7L104.16875 20.3875L106.05937 20.3875L106.05937 33.0125L113.10625 33.0125L113.10625 34.7L104.16875 34.7ZM122.12187 31.35625L123.93437 31.590626Q123.5125 33.16875 122.34062 34.059376Q121.18437 34.934376 119.37187 34.934376Q117.10625 34.934376 115.7625 33.54375Q114.43437 32.1375 114.43437 29.60625Q114.43437 26.98125 115.77812 25.54375Q117.12187 24.090626 119.27812 24.090626Q121.35625 24.090626 122.66875 25.5125Q123.99687 26.91875 123.99687 29.496876Q123.99687 29.653126 123.98125 29.965626L116.24687 29.965626Q116.34062 31.66875 117.21562 32.575Q118.09062 33.48125 119.3875 33.48125Q120.35625 33.48125 121.02812 32.98125Q121.71562 32.465626 122.12187 31.35625ZM116.34062 28.5125L122.1375 28.5125Q122.02812 27.215626 121.48125 26.559376Q120.6375 25.54375 119.29375 25.54375Q118.09062 25.54375 117.2625 26.35625Q116.43437 27.153126 116.34062 28.5125ZM125.09062 34.7L125.09062 33.278126L131.7 25.7Q130.575 25.746876 129.71562 25.746876L125.48125 25.746876L125.48125 24.325L133.96562 24.325L133.96562 25.496876L128.34062 32.075L127.2625 33.278126Q128.43437 33.184376 129.48125 33.184376L134.27812 33.184376L134.27812 34.7L125.09062 34.7ZM135.02812 22.403126L135.02812 20.3875L136.79375 20.3875L136.79375 22.403126L135.02812 22.403126ZM135.02812 34.7L135.02812 24.325L136.79375 24.325L136.79375 34.7L135.02812 34.7ZM138.37187 29.5125Q138.37187 26.6375 139.96562 25.246876Q141.30937 24.090626 143.23125 24.090626Q145.37187 24.090626 146.71562 25.496876Q148.075 26.903126 148.075 29.371876Q148.075 31.371876 147.48125 32.528126Q146.8875 33.66875 145.73125 34.309376Q144.59062 34.934376 143.23125 34.934376Q141.04375 34.934376 139.7 33.54375Q138.37187 32.1375 138.37187 29.5125ZM140.16875 29.5125Q140.16875 31.5125 141.02812 32.496876Q141.90312 33.48125 143.23125 33.48125Q144.54375 33.48125 145.40312 32.496876Q146.27812 31.496876 146.27812 29.45Q146.27812 27.528126 145.40312 26.54375Q144.52812 25.54375 143.23125 25.54375Q141.90312 25.54375 141.02812 26.54375Q140.16875 27.528126 140.16875 29.5125ZM150.0125 34.7L150.0125 24.325L151.60625 24.325L151.60625 25.809376Q152.74687 24.090626 154.90312 24.090626Q155.84062 24.090626 156.62187 24.434376Q157.41875 24.7625 157.80937 25.309376Q158.2 25.85625 158.35625 26.60625Q158.45 27.10625 158.45 28.325L158.45 34.7L156.68437 34.7L156.68437 28.3875Q156.68437 27.309376 156.48125 26.778126Q156.27812 26.246876 155.74687 25.934376Q155.23125 25.621876 154.52812 25.621876Q153.40312 25.621876 152.59062 26.340626Q151.77812 27.04375 151.77812 29.028126L151.77812 34.7L150.0125 34.7ZM160.02812 22.403126L160.02812 20.3875L161.79375 20.3875L161.79375 22.403126L160.02812 22.403126ZM160.02812 34.7L160.02812 24.325L161.79375 24.325L161.79375 34.7L160.02812 34.7Z" fill-rule="nonzero"/></svg>