<svg version="1.1" viewBox="0.0 0.0 490.0 304.0" fill="none" stroke="none" stroke-linecap="square" stroke-miterlimit="10" width="490" height="304" xmlns:xlink="http://www.w3.org/1999/xlink" xmlns="http://www.w3.org/2000/svg"><path fill="#ffffff" d="M0 0L490.0 0L490.0 304.0L0 304.0L0 0Z" fill-rule="nonzero"/><path fill="#4285f4" d="M245.0 49.333332C274.66306 49.333332 302.5334 63.533978 319.9689 87.5319L245.0 142.0Z" fill-rule="nonzero"/><path fill="#34a853" d="M179.47478 207.52522C152.97229 181.02275 145.04413 141.16516 159.38716 106.538C173.73021 71.91084 207.51984 49.333332 245.0 49.333332L245.0 142.0Z" fill-rule="nonzero"/><path fill="#fbbc04" d="M190.5319 216.9689C186.60452 214.1155 182.90742 210.95789 179.47478 207.52522L245.0 142.0Z" fill-rule="nonzero"/><path fill="#ea4335" d="M319.9689 87.5319C346.76135 124.408554 342.7566 175.29385 310.52524 207.52522C278.29385 239.7566 227.40855 243.76137 190.5319 216.9689L245.0 142.0Z" fill-rule="nonzero"/><path fill="#000000" d="M258.4491 91.59479L257.21472 91.59479L257.21472 83.75104Q256.77722 84.17291 256.04285 84.61041Q255.32411 85.03229 254.76161 85.23541L254.76161 84.04791Q255.79286 83.56354 256.55847 82.87604Q257.33972 82.18854 257.65222 81.53229L258.4491 81.53229L258.4491 91.59479ZM261.80847 88.96979L263.10535 88.86041Q263.24597 89.79791 263.7616 90.28229Q264.29285 90.75104 265.02722 90.75104Q265.91785 90.75104 266.52722 90.07916Q267.15222 89.40729 267.15222 88.31354Q267.15222 87.25104 266.55847 86.64166Q265.96472 86.03229 265.0116 86.03229Q264.41785 86.03229 263.93347 86.31354Q263.46472 86.57916 263.18347 87.00104L262.02722 86.86041L262.99597 81.70416L267.98035 81.70416L267.98035 82.89166L263.98035 82.89166L263.4491 85.57916Q264.35535 84.95416 265.33972 84.95416Q266.65222 84.95416 267.54285 85.86041Q268.4491 86.76666 268.4491 88.20416Q268.4491 89.56354 267.66785 90.54791Q266.6991 91.76666 265.02722 91.76666Q263.66785 91.76666 262.79285 91.00104Q261.93347 90.23541 261.80847 88.96979ZM270.49597 91.59479L270.49597 90.18854L271.90222 90.18854L271.90222 91.59479L270.49597 91.59479ZM273.80847 86.65729Q273.80847 84.87604 274.16785 83.79791Q274.54285 82.70416 275.2616 82.12604Q275.98035 81.53229 277.0741 81.53229Q277.8866 81.53229 278.49597 81.86041Q279.10535 82.18854 279.49597 82.79791Q279.90222 83.40729 280.12097 84.28229Q280.33972 85.15729 280.33972 86.65729Q280.33972 88.42291 279.98035 89.50104Q279.62097 90.57916 278.90222 91.17291Q278.18347 91.76666 277.0741 91.76666Q275.6366 91.76666 274.80847 90.71979Q273.80847 89.46979 273.80847 86.65729ZM275.0741 86.65729Q275.0741 89.12604 275.65222 89.93854Q276.23035 90.75104 277.0741 90.75104Q277.93347 90.75104 278.5116 89.93854Q279.08972 89.11041 279.08972 86.65729Q279.08972 84.17291 278.5116 83.36041Q277.93347 82.54791 277.05847 82.54791Q276.21472 82.54791 275.71472 83.26666Q275.0741 84.18854 275.0741 86.65729ZM282.04285 83.98541Q282.04285 82.90729 282.5741 82.15729Q283.12097 81.40729 284.15222 81.40729Q285.08972 81.40729 285.6991 82.07916Q286.3241 82.75104 286.3241 84.04791Q286.3241 85.32916 285.6991 86.01666Q285.0741 86.70416 284.16785 86.70416Q283.2616 86.70416 282.65222 86.03229Q282.04285 85.34479 282.04285 83.98541ZM284.18347 82.25104Q283.73035 82.25104 283.41785 82.65729Q283.12097 83.04791 283.12097 84.09479Q283.12097 85.06354 283.41785 85.45416Q283.73035 85.84479 284.18347 85.84479Q284.65222 85.84479 284.9491 85.45416Q285.2616 85.06354 285.2616 84.00104Q285.2616 83.03229 284.9491 82.64166Q284.6366 82.25104 284.18347 82.25104ZM284.18347 91.96979L289.66785 81.40729L290.66785 81.40729L285.21472 91.96979L284.18347 91.96979ZM288.52722 89.23541Q288.52722 88.15729 289.05847 87.42291Q289.60535 86.67291 290.6366 86.67291Q291.5741 86.67291 292.1991 87.34479Q292.8241 88.01666 292.8241 89.31354Q292.8241 90.59479 292.1991 91.28229Q291.5741 91.96979 290.6366 91.96979Q289.73035 91.96979 289.12097 91.29791Q288.52722 90.61041 288.52722 89.23541ZM290.66785 87.51666Q290.1991 87.51666 289.90222 87.92291Q289.60535 88.31354 289.60535 89.36041Q289.60535 90.32916 289.90222 90.71979Q290.21472 91.11041 290.66785 91.11041Q291.1366 91.11041 291.43347 90.71979Q291.74597 90.32916 291.74597 89.26666Q291.74597 88.29791 291.43347 87.90729Q291.1366 87.51666 290.66785 87.51666Z" fill-rule="nonzero"/><path fill="#000000" d="M271.51453 188.98328L271.51453 186.57703L267.15515 186.57703L267.15515 185.45203L271.73328 178.96765L272.73328 178.96765L272.73328 185.45203L274.09265 185.45203L274.09265 186.57703L272.73328 186.57703L272.73328 188.98328L271.51453 188.98328ZM271.51453 185.45203L271.51453 180.9364L268.3739 185.45203L271.51453 185.45203ZM275.5614 186.35828L276.85828 186.2489Q276.9989 187.1864 277.51453 187.67078Q278.04578 188.13953 278.78015 188.13953Q279.67078 188.13953 280.28015 187.46765Q280.90515 186.79578 280.90515 185.70203Q280.90515 184.63953 280.3114 184.03015Q279.71765 183.42078 278.76453 183.42078Q278.17078 183.42078 277.6864 183.70203Q277.21765 183.96765 276.9364 184.38953L275.78015 184.2489L276.7489 179.09265L281.73328 179.09265L281.73328 180.28015L277.73328 180.28015L277.20203 182.96765Q278.10828 182.34265 279.09265 182.34265Q280.40515 182.34265 281.29578 183.2489Q282.20203 184.15515 282.20203 185.59265Q282.20203 186.95203 281.42078 187.9364Q280.45203 189.15515 278.78015 189.15515Q277.42078 189.15515 276.54578 188.38953Q275.6864 187.6239 275.5614 186.35828ZM284.2489 188.98328L284.2489 187.57703L285.65515 187.57703L285.65515 188.98328L284.2489 188.98328ZM287.5614 184.04578Q287.5614 182.26453 287.92078 181.1864Q288.29578 180.09265 289.01453 179.51453Q289.73328 178.92078 290.82703 178.92078Q291.63953 178.92078 292.2489 179.2489Q292.85828 179.57703 293.2489 180.1864Q293.65515 180.79578 293.8739 181.67078Q294.09265 182.54578 294.09265 184.04578Q294.09265 185.8114 293.73328 186.88953Q293.3739 187.96765 292.65515 188.5614Q291.9364 189.15515 290.82703 189.15515Q289.38953 189.15515 288.5614 188.10828Q287.5614 186.85828 287.5614 184.04578ZM288.82703 184.04578Q288.82703 186.51453 289.40515 187.32703Q289.98328 188.13953 290.82703 188.13953Q291.6864 188.13953 292.26453 187.32703Q292.84265 186.4989 292.84265 184.04578Q292.84265 181.5614 292.26453 180.7489Q291.6864 179.9364 290.8114 179.9364Q289.96765 179.9364 289.46765 180.65515Q288.82703 181.57703 288.82703 184.04578ZM295.79578 181.3739Q295.79578 180.29578 296.32703 179.54578Q296.8739 178.79578 297.90515 178.79578Q298.84265 178.79578 299.45203 179.46765Q300.07703 180.13953 300.07703 181.4364Q300.07703 182.71765 299.45203 183.40515Q298.82703 184.09265 297.92078 184.09265Q297.01453 184.09265 296.40515 183.42078Q295.79578 182.73328 295.79578 181.3739ZM297.9364 179.63953Q297.48328 179.63953 297.17078 180.04578Q296.8739 180.4364 296.8739 181.48328Q296.8739 182.45203 297.17078 182.84265Q297.48328 183.23328 297.9364 183.23328Q298.40515 183.23328 298.70203 182.84265Q299.01453 182.45203 299.01453 181.38953Q299.01453 180.42078 298.70203 180.03015Q298.38953 179.63953 297.9364 179.63953ZM297.9364 189.35828L303.42078 178.79578L304.42078 178.79578L298.96765 189.35828L297.9364 189.35828ZM302.28015 186.6239Q302.28015 185.54578 302.8114 184.8114Q303.35828 184.0614 304.38953 184.0614Q305.32703 184.0614 305.95203 184.73328Q306.57703 185.40515 306.57703 186.70203Q306.57703 187.98328 305.95203 188.67078Q305.32703 189.35828 304.38953 189.35828Q303.48328 189.35828 302.8739 188.6864Q302.28015 187.9989 302.28015 186.6239ZM304.42078 184.90515Q303.95203 184.90515 303.65515 185.3114Q303.35828 185.70203 303.35828 186.7489Q303.35828 187.71765 303.65515 188.10828Q303.96765 188.4989 304.42078 188.4989Q304.88953 188.4989 305.1864 188.10828Q305.4989 187.71765 305.4989 186.65515Q305.4989 185.6864 305.1864 185.29578Q304.88953 184.90515 304.42078 184.90515Z" fill-rule="nonzero"/><path fill="#000000" d="M171.17892 121.820015L172.39767 121.64814Q172.61642 122.695015 173.11642 123.163765Q173.63205 123.61689 174.36642 123.61689Q175.24142 123.61689 175.83517 123.02314Q176.42892 122.413765 176.42892 121.52314Q176.42892 120.67939 175.86642 120.132515Q175.31955 119.58564 174.4758 119.58564Q174.11642 119.58564 173.6008 119.71064L173.74142 118.632515Q173.86642 118.64814 173.92892 118.64814Q174.7258 118.64814 175.3508 118.24189Q175.9758 117.83564 175.9758 116.976265Q175.9758 116.30439 175.52267 115.86689Q175.06955 115.413765 174.33517 115.413765Q173.61642 115.413765 173.13205 115.86689Q172.6633 116.30439 172.52267 117.21064L171.30392 116.99189Q171.52267 115.757515 172.31955 115.08564Q173.11642 114.39814 174.30392 114.39814Q175.13205 114.39814 175.81955 114.757515Q176.50705 115.101265 176.86642 115.71064Q177.24142 116.320015 177.24142 117.007515Q177.24142 117.64814 176.89767 118.17939Q176.55392 118.71064 175.86642 119.038765Q176.75705 119.24189 177.24142 119.882515Q177.74142 120.52314 177.74142 121.507515Q177.74142 122.820015 176.77267 123.726265Q175.81955 124.632515 174.36642 124.632515Q173.0383 124.632515 172.1633 123.851265Q171.30392 123.070015 171.17892 121.820015ZM179.24142 115.757515L179.24142 114.570015L185.74142 114.570015L185.74142 115.52314Q184.77267 116.538765 183.83517 118.226265Q182.89767 119.913765 182.38205 121.71064Q182.02267 122.96064 181.9133 124.46064L180.64767 124.46064Q180.6633 123.27314 181.1008 121.601265Q181.55392 119.92939 182.38205 118.382515Q183.2258 116.820015 184.1633 115.757515L179.24142 115.757515ZM187.8508 124.46064L187.8508 123.05439L189.25705 123.05439L189.25705 124.46064L187.8508 124.46064ZM191.1633 121.83564L192.46017 121.726265Q192.6008 122.663765 193.11642 123.14814Q193.64767 123.61689 194.38205 123.61689Q195.27267 123.61689 195.88205 122.945015Q196.50705 122.27314 196.50705 121.17939Q196.50705 120.11689 195.9133 119.507515Q195.31955 118.89814 194.36642 118.89814Q193.77267 118.89814 193.2883 119.17939Q192.81955 119.445015 192.5383 119.86689L191.38205 119.726265L192.3508 114.570015L197.33517 114.570015L197.33517 115.757515L193.33517 115.757515L192.80392 118.445015Q193.71017 117.820015 194.69455 117.820015Q196.00705 117.820015 196.89767 118.726265Q197.80392 119.632515 197.80392 121.070015Q197.80392 122.42939 197.02267 123.413765Q196.05392 124.632515 194.38205 124.632515Q193.02267 124.632515 192.14767 123.86689Q191.2883 123.101265 191.1633 121.83564ZM199.39767 116.851265Q199.39767 115.77314 199.92892 115.02314Q200.4758 114.27314 201.50705 114.27314Q202.44455 114.27314 203.05392 114.945015Q203.67892 115.61689 203.67892 116.913765Q203.67892 118.195015 203.05392 118.882515Q202.42892 119.570015 201.52267 119.570015Q200.61642 119.570015 200.00705 118.89814Q199.39767 118.21064 199.39767 116.851265ZM201.5383 115.11689Q201.08517 115.11689 200.77267 115.52314Q200.4758 115.913765 200.4758 116.96064Q200.4758 117.92939 200.77267 118.320015Q201.08517 118.71064 201.5383 118.71064Q202.00705 118.71064 202.30392 118.320015Q202.61642 117.92939 202.61642 116.86689Q202.61642 115.89814 202.30392 115.507515Q201.99142 115.11689 201.5383 115.11689ZM201.5383 124.83564L207.02267 114.27314L208.02267 114.27314L202.56955 124.83564L201.5383 124.83564ZM205.88205 122.101265Q205.88205 121.02314 206.4133 120.288765Q206.96017 119.538765 207.99142 119.538765Q208.92892 119.538765 209.55392 120.21064Q210.17892 120.882515 210.17892 122.17939Q210.17892 123.46064 209.55392 124.14814Q208.92892 124.83564 207.99142 124.83564Q207.08517 124.83564 206.4758 124.163765Q205.88205 123.476265 205.88205 122.101265ZM208.02267 120.382515Q207.55392 120.382515 207.25705 120.788765Q206.96017 121.17939 206.96017 122.226265Q206.96017 123.195015 207.25705 123.58564Q207.56955 123.976265 208.02267 123.976265Q208.49142 123.976265 208.7883 123.58564Q209.1008 123.195015 209.1008 122.132515Q209.1008 121.163765 208.7883 120.77314Q208.49142 120.382515 208.02267 120.382515Z" fill-rule="nonzero"/><path fill="#4285f4" d="M28.2 251.8C28.2 255.11371 25.513708 257.8 22.2 257.8C18.886292 257.8 16.2 255.11371 16.2 251.8C16.2 248.4863 18.886292 245.8 22.2 245.8C25.513708 245.8 28.2 248.4863 28.2 251.8Z" fill-rule="nonzero"/><path fill="#1a1a1a" d="M37.121876 255.8L37.121876 247.20625L38.278126 247.20625L42.79375 253.95625L42.79375 247.20625L43.8875 247.20625L43.8875 255.8L42.715626 255.8L38.2 249.05L38.2 255.8L37.121876 255.8ZM45.60625 252.69063Q45.60625 250.95625 46.559376 250.12813Q47.35625 249.44063 48.5125 249.44063Q49.79375 249.44063 50.60625 250.28438Q51.434376 251.1125 51.434376 252.59688Q51.434376 253.8 51.075 254.4875Q50.715626 255.175 50.0125 255.56563Q49.325 255.94063 48.5125 255.94063Q47.215626 255.94063 46.403126 255.1125Q45.60625 254.26875 45.60625 252.69063ZM46.684376 252.69063Q46.684376 253.87813 47.2 254.47188Q47.73125 255.06563 48.5125 255.06563Q49.309376 255.06563 49.825 254.47188Q50.340626 253.87813 50.340626 252.65938Q50.340626 251.50313 49.809376 250.90938Q49.29375 250.31563 48.5125 250.31563Q47.73125 250.31563 47.2 250.90938Q46.684376 251.4875 46.684376 252.69063ZM60.059376 253.51875L61.090626 253.65938Q60.91875 254.72188 60.215626 255.33125Q59.5125 255.94063 58.496876 255.94063Q57.215626 255.94063 56.434376 255.1125Q55.66875 254.26875 55.66875 252.70625Q55.66875 251.70625 55.996876 250.95625Q56.340626 250.19063 57.0125 249.81563Q57.7 249.44063 58.5125 249.44063Q59.5125 249.44063 60.153126 249.95625Q60.809376 250.45625 60.996876 251.40938L59.965626 251.56563Q59.825 250.94063 59.45 250.62813Q59.075 250.3 58.54375 250.3Q57.746876 250.3 57.246876 250.87813Q56.746876 251.44063 56.746876 252.675Q56.746876 253.94063 57.23125 254.50313Q57.715626 255.06563 58.48125 255.06563Q59.10625 255.06563 59.5125 254.69063Q59.934376 254.31563 60.059376 253.51875ZM61.60625 252.69063Q61.60625 250.95625 62.559376 250.12813Q63.35625 249.44063 64.5125 249.44063Q65.79375 249.44063 66.60625 250.28438Q67.43437 251.1125 67.43437 252.59688Q67.43437 253.8 67.075 254.4875Q66.71562 255.175 66.0125 255.56563Q65.325 255.94063 64.5125 255.94063Q63.215626 255.94063 62.403126 255.1125Q61.60625 254.26875 61.60625 252.69063ZM62.684376 252.69063Q62.684376 253.87813 63.2 254.47188Q63.73125 255.06563 64.5125 255.06563Q65.30937 255.06563 65.825 254.47188Q66.34062 253.87813 66.34062 252.65938Q66.34062 251.50313 65.80937 250.90938Q65.29375 250.31563 64.5125 250.31563Q63.73125 250.31563 63.2 250.90938Q62.684376 251.4875 62.684376 252.69063ZM68.99687 255.8L68.99687 249.58125L69.93437 249.58125L69.93437 250.45625Q70.23125 249.9875 70.71562 249.72188Q71.2 249.44063 71.825 249.44063Q72.5125 249.44063 72.95 249.72188Q73.40312 250.00313 73.575 250.51875Q74.325 249.44063 75.49687 249.44063Q76.43437 249.44063 76.91875 249.95625Q77.41875 250.45625 77.41875 251.53438L77.41875 255.8L76.37187 255.8L76.37187 251.87813Q76.37187 251.25313 76.2625 250.97188Q76.16875 250.69063 75.90312 250.51875Q75.6375 250.34688 75.2625 250.34688Q74.60625 250.34688 74.16875 250.78438Q73.74687 251.22188 73.74687 252.19063L73.74687 255.8L72.68437 255.8L72.68437 251.75313Q72.68437 251.05 72.41875 250.70625Q72.16875 250.34688 71.59062 250.34688Q71.1375 250.34688 70.7625 250.58125Q70.3875 250.81563 70.21562 251.26875Q70.04375 251.72188 70.04375 252.56563L70.04375 255.8L68.99687 255.8ZM79.99687 255.8L79.99687 249.58125L80.93437 249.58125L80.93437 250.45625Q81.23125 249.9875 81.71562 249.72188Q82.2 249.44063 82.825 249.44063Q83.5125 249.44063 83.95 249.72188Q84.40312 250.00313 84.575 250.51875Q85.325 249.44063 86.49687 249.44063Q87.43437 249.44063 87.91875 249.95625Q88.41875 250.45625 88.41875 251.53438L88.41875 255.8L87.37187 255.8L87.37187 251.87813Q87.37187 251.25313 87.2625 250.97188Q87.16875 250.69063 86.90312 250.51875Q86.6375 250.34688 86.2625 250.34688Q85.60625 250.34688 85.16875 250.78438Q84.74687 251.22188 84.74687 252.19063L84.74687 255.8L83.68437 255.8L83.68437 251.75313Q83.68437 251.05 83.41875 250.70625Q83.16875 250.34688 82.59062 250.34688Q82.1375 250.34688 81.7625 250.58125Q81.3875 250.81563 81.21562 251.26875Q81.04375 251.72188 81.04375 252.56563L81.04375 255.8L79.99687 255.8ZM95.24687 253.8L96.34062 253.925Q96.09062 254.87813 95.3875 255.40938Q94.68437 255.94063 93.60625 255.94063Q92.24687 255.94063 91.43437 255.09688Q90.6375 254.25313 90.6375 252.7375Q90.6375 251.175 91.45 250.31563Q92.2625 249.44063 93.54375 249.44063Q94.79375 249.44063 95.575 250.28438Q96.37187 251.12813 96.37187 252.675Q96.37187 252.76875 96.37187 252.95625L91.73125 252.95625Q91.79375 253.9875 92.30937 254.53438Q92.825 255.06563 93.60625 255.06563Q94.18437 255.06563 94.59062 254.76875Q95.0125 254.45625 95.24687 253.8ZM91.79375 252.09688L95.2625 252.09688Q95.2 251.3 94.87187 250.90938Q94.35625 250.3 93.55937 250.3Q92.825 250.3 92.325 250.78438Q91.84062 251.26875 91.79375 252.09688ZM97.99687 255.8L97.99687 249.58125L98.93437 249.58125L98.93437 250.45625Q99.62187 249.44063 100.91875 249.44063Q101.48125 249.44063 101.95 249.64375Q102.43437 249.84688 102.66875 250.175Q102.90312 250.50313 102.99687 250.94063Q103.04375 251.2375 103.04375 251.97188L103.04375 255.8L101.99687 255.8L101.99687 252.01875Q101.99687 251.3625 101.87187 251.05Q101.74687 250.7375 101.43437 250.55Q101.12187 250.34688 100.7 250.34688Q100.02812 250.34688 99.52812 250.78438Q99.04375 251.20625 99.04375 252.39375L99.04375 255.8L97.99687 255.8ZM107.29375 254.8625L107.45 255.78438Q106.99687 255.87813 106.65312 255.87813Q106.075 255.87813 105.7625 255.70625Q105.45 255.51875 105.30937 255.22188Q105.18437 254.925 105.18437 253.97188L105.18437 250.39375L104.41875 250.39375L104.41875 249.58125L105.18437 249.58125L105.18437 248.03438L106.23125 247.40938L106.23125 249.58125L107.29375 249.58125L107.29375 250.39375L106.23125 250.39375L106.23125 254.03438Q106.23125 254.4875 106.27812 254.6125Q106.34062 254.7375 106.46562 254.81563Q106.59062 254.89375 106.825 254.89375Q107.0125 254.89375 107.29375 254.8625Z" fill-rule="nonzero"/><path fill="#ea4335" d="M135.2 251.8C135.2 255.11371 132.5137 257.8 129.2 257.8C125.88629 257.8 123.2 255.11371 123.2 251.8C123.2 248.4863 125.88629 245.8 129.2 245.8C132.5137 245.8 135.2 248.4863 135.2 251.8Z" fill-rule="nonzero"/><path fill="#1a1a1a" d="M144.12187 255.8L144.12187 247.20625L147.37187 247.20625Q148.21562 247.20625 148.66875 247.28438Q149.30937 247.39375 149.73125 247.69063Q150.16875 247.9875 150.41875 248.51875Q150.68437 249.05 150.68437 249.69063Q150.68437 250.78438 149.98125 251.55Q149.29375 252.3 147.46562 252.3L145.2625 252.3L145.2625 255.8L144.12187 255.8ZM145.2625 251.3L147.48125 251.3Q148.59062 251.3 149.04375 250.89375Q149.5125 250.47188 149.5125 249.72188Q149.5125 249.19063 149.23125 248.81563Q148.96562 248.425 148.52812 248.3Q148.23125 248.22188 147.46562 248.22188L145.2625 248.22188L145.2625 251.3ZM151.60625 252.69063Q151.60625 250.95625 152.55937 250.12813Q153.35625 249.44063 154.5125 249.44063Q155.79375 249.44063 156.60625 250.28438Q157.43437 251.1125 157.43437 252.59688Q157.43437 253.8 157.075 254.4875Q156.71562 255.175 156.0125 255.56563Q155.325 255.94063 154.5125 255.94063Q153.21562 255.94063 152.40312 255.1125Q151.60625 254.26875 151.60625 252.69063ZM152.68437 252.69063Q152.68437 253.87813 153.2 254.47188Q153.73125 255.06563 154.5125 255.06563Q155.30937 255.06563 155.825 254.47188Q156.34062 253.87813 156.34062 252.65938Q156.34062 251.50313 155.80937 250.90938Q155.29375 250.31563 154.5125 250.31563Q153.73125 250.31563 153.2 250.90938Q152.68437 251.4875 152.68437 252.69063ZM163.05937 253.51875L164.09062 253.65938Q163.91875 254.72188 163.21562 255.33125Q162.5125 255.94063 161.49687 255.94063Q160.21562 255.94063 159.43437 255.1125Q158.66875 254.26875 158.66875 252.70625Q158.66875 251.70625 158.99687 250.95625Q159.34062 250.19063 160.0125 249.81563Q160.7 249.44063 161.5125 249.44063Q162.5125 249.44063 163.15312 249.95625Q163.80937 250.45625 163.99687 251.40938L162.96562 251.56563Q162.825 250.94063 162.45 250.62813Q162.075 250.3 161.54375 250.3Q160.74687 250.3 160.24687 250.87813Q159.74687 251.44063 159.74687 252.675Q159.74687 253.94063 160.23125 254.50313Q160.71562 255.06563 161.48125 255.06563Q162.10625 255.06563 162.5125 254.69063Q162.93437 254.31563 163.05937 253.51875ZM169.05937 255.03438Q168.46562 255.53438 167.91875 255.7375Q167.3875 255.94063 166.7625 255.94063Q165.73125 255.94063 165.18437 255.44063Q164.6375 254.94063 164.6375 254.15938Q164.6375 253.70625 164.84062 253.33125Q165.04375 252.94063 165.3875 252.72188Q165.73125 252.4875 166.15312 252.37813Q166.45 252.28438 167.09062 252.20625Q168.35625 252.06563 168.96562 251.84688Q168.96562 251.62813 168.96562 251.58125Q168.96562 250.925 168.66875 250.65938Q168.2625 250.31563 167.46562 250.31563Q166.73125 250.31563 166.37187 250.58125Q166.0125 250.83125 165.84062 251.4875L164.80937 251.34688Q164.95 250.69063 165.27812 250.28438Q165.60625 249.87813 166.21562 249.65938Q166.825 249.44063 167.62187 249.44063Q168.41875 249.44063 168.91875 249.62813Q169.41875 249.81563 169.65312 250.09688Q169.8875 250.37813 169.98125 250.81563Q170.02812 251.08125 170.02812 251.78438L170.02812 253.19063Q170.02812 254.65938 170.09062 255.05Q170.16875 255.44063 170.37187 255.8L169.2625 255.8Q169.10625 255.47188 169.05937 255.03438ZM168.96562 252.675Q168.3875 252.90938 167.24687 253.08125Q166.59062 253.175 166.325 253.3Q166.05937 253.40938 165.90312 253.62813Q165.7625 253.84688 165.7625 254.12813Q165.7625 254.55 166.075 254.83125Q166.40312 255.1125 167.0125 255.1125Q167.62187 255.1125 168.09062 254.84688Q168.575 254.58125 168.79375 254.1125Q168.96562 253.75313 168.96562 253.06563L168.96562 252.675ZM174.99687 258.1906L174.99687 249.58125L175.95 249.58125L175.95 250.37813Q176.29375 249.90938 176.71562 249.675Q177.15312 249.44063 177.7625 249.44063Q178.55937 249.44063 179.16875 249.84688Q179.77812 250.25313 180.075 251.00313Q180.3875 251.75313 180.3875 252.64375Q180.3875 253.59688 180.04375 254.3625Q179.71562 255.12813 179.05937 255.53438Q178.40312 255.94063 177.68437 255.94063Q177.15312 255.94063 176.73125 255.72188Q176.30937 255.4875 176.04375 255.15938L176.04375 258.1906L174.99687 258.1906ZM175.95 252.72188Q175.95 253.925 176.43437 254.50313Q176.91875 255.06563 177.60625 255.06563Q178.30937 255.06563 178.80937 254.47188Q179.30937 253.87813 179.30937 252.62813Q179.30937 251.44063 178.825 250.8625Q178.34062 250.26875 177.65312 250.26875Q176.98125 250.26875 176.46562 250.89375Q175.95 251.51875 175.95 252.72188ZM181.98125 255.8L181.98125 249.58125L182.93437 249.58125L182.93437 250.51875Q183.29375 249.8625 183.59062 249.65938Q183.90312 249.44063 184.27812 249.44063Q184.80937 249.44063 185.35625 249.76875L184.99687 250.75313Q184.60625 250.51875 184.23125 250.51875Q183.87187 250.51875 183.59062 250.7375Q183.325 250.94063 183.21562 251.31563Q183.02812 251.87813 183.02812 252.53438L183.02812 255.8L181.98125 255.8ZM185.60625 252.69063Q185.60625 250.95625 186.55937 250.12813Q187.35625 249.44063 188.5125 249.44063Q189.79375 249.44063 190.60625 250.28438Q191.43437 251.1125 191.43437 252.59688Q191.43437 253.8 191.075 254.4875Q190.71562 255.175 190.0125 255.56563Q189.325 255.94063 188.5125 255.94063Q187.21562 255.94063 186.40312 255.1125Q185.60625 254.26875 185.60625 252.69063ZM186.68437 252.69063Q186.68437 253.87813 187.2 254.47188Q187.73125 255.06563 188.5125 255.06563Q189.30937 255.06563 189.825 254.47188Q190.34062 253.87813 190.34062 252.65938Q190.34062 251.50313 189.80937 250.90938Q189.29375 250.31563 188.5125 250.31563Q187.73125 250.31563 187.2 250.90938Q186.68437 251.4875 186.68437 252.69063ZM192.79375 256.3156L193.825 256.47186Q193.8875 256.9406 194.18437 257.15936Q194.575 257.45624 195.24687 257.45624Q195.98125 257.45624 196.37187 257.15936Q196.77812 256.8625 196.91875 256.34686Q197.0125 256.01874 196.99687 254.9875Q196.30937 255.8 195.27812 255.8Q193.99687 255.8 193.29375 254.87813Q192.59062 253.94063 192.59062 252.65938Q192.59062 251.76875 192.90312 251.01875Q193.23125 250.25313 193.84062 249.84688Q194.45 249.44063 195.27812 249.44063Q196.3875 249.44063 197.10625 250.33125L197.10625 249.58125L198.075 249.58125L198.075 254.95625Q198.075 256.40936 197.77812 257.01874Q197.48125 257.6281 196.84062 257.97186Q196.2 258.33124 195.2625 258.33124Q194.15312 258.33124 193.46562 257.83124Q192.77812 257.33124 192.79375 256.3156ZM193.66875 252.58125Q193.66875 253.8 194.15312 254.3625Q194.6375 254.925 195.37187 254.925Q196.10625 254.925 196.59062 254.3625Q197.09062 253.8 197.09062 252.6125Q197.09062 251.47188 196.575 250.89375Q196.075 250.31563 195.35625 250.31563Q194.65312 250.31563 194.15312 250.89375Q193.66875 251.45625 193.66875 252.58125ZM199.98125 255.8L199.98125 249.58125L200.93437 249.58125L200.93437 250.51875Q201.29375 249.8625 201.59062 249.65938Q201.90312 249.44063 202.27812 249.44063Q202.80937 249.44063 203.35625 249.76875L202.99687 250.75313Q202.60625 250.51875 202.23125 250.51875Q201.87187 250.51875 201.59062 250.7375Q201.325 250.94063 201.21562 251.31563Q201.02812 251.87813 201.02812 252.53438L201.02812 255.8L199.98125 255.8ZM208.05937 255.03438Q207.46562 255.53438 206.91875 255.7375Q206.3875 255.94063 205.7625 255.94063Q204.73125 255.94063 204.18437 255.44063Q203.6375 254.94063 203.6375 254.15938Q203.6375 253.70625 203.84062 253.33125Q204.04375 252.94063 204.3875 252.72188Q204.73125 252.4875 205.15312 252.37813Q205.45 252.28438 206.09062 252.20625Q207.35625 252.06563 207.96562 251.84688Q207.96562 251.62813 207.96562 251.58125Q207.96562 250.925 207.66875 250.65938Q207.2625 250.31563 206.46562 250.31563Q205.73125 250.31563 205.37187 250.58125Q205.0125 250.83125 204.84062 251.4875L203.80937 251.34688Q203.95 250.69063 204.27812 250.28438Q204.60625 249.87813 205.21562 249.65938Q205.825 249.44063 206.62187 249.44063Q207.41875 249.44063 207.91875 249.62813Q208.41875 249.81563 208.65312 250.09688Q208.8875 250.37813 208.98125 250.81563Q209.02812 251.08125 209.02812 251.78438L209.02812 253.19063Q209.02812 254.65938 209.09062 255.05Q209.16875 255.44063 209.37187 255.8L208.2625 255.8Q208.10625 255.47188 208.05937 255.03438ZM207.96562 252.675Q207.3875 252.90938 206.24687 253.08125Q205.59062 253.175 205.325 253.3Q205.05937 253.40938 204.90312 253.62813Q204.7625 253.84688 204.7625 254.12813Q204.7625 254.55 205.075 254.83125Q205.40312 255.1125 206.0125 255.1125Q206.62187 255.1125 207.09062 254.84688Q207.575 254.58125 207.79375 254.1125Q207.96562 253.75313 207.96562 253.06563L207.96562 252.675ZM210.99687 255.8L210.99687 249.58125L211.93437 249.58125L211.93437 250.45625Q212.23125 249.9875 212.71562 249.72188Q213.2 249.44063 213.825 249.44063Q214.5125 249.44063 214.95 249.72188Q215.40312 250.00313 215.575 250.51875Q216.325 249.44063 217.49687 249.44063Q218.43437 249.44063 218.91875 249.95625Q219.41875 250.45625 219.41875 251.53438L219.41875 255.8L218.37187 255.8L218.37187 251.87813Q218.37187 251.25313 218.2625 250.97188Q218.16875 250.69063 217.90312 250.51875Q217.6375 250.34688 217.2625 250.34688Q216.60625 250.34688 216.16875 250.78438Q215.74687 251.22188 215.74687 252.19063L215.74687 255.8L214.68437 255.8L214.68437 251.75313Q214.68437 251.05 214.41875 250.70625Q214.16875 250.34688 213.59062 250.34688Q213.1375 250.34688 212.7625 250.58125Q212.3875 250.81563 212.21562 251.26875Q212.04375 251.72188 212.04375 252.56563L212.04375 255.8L210.99687 255.8ZM221.99687 255.8L221.99687 249.58125L222.93437 249.58125L222.93437 250.45625Q223.23125 249.9875 223.71562 249.72188Q224.2 249.44063 224.825 249.44063Q225.5125 249.44063 225.95 249.72188Q226.40312 250.00313 226.575 250.51875Q227.325 249.44063 228.49687 249.44063Q229.43437 249.44063 229.91875 249.95625Q230.41875 250.45625 230.41875 251.53438L230.41875 255.8L229.37187 255.8L229.37187 251.87813Q229.37187 251.25313 229.2625 250.97188Q229.16875 250.69063 228.90312 250.51875Q228.6375 250.34688 228.2625 250.34688Q227.60625 250.34688 227.16875 250.78438Q226.74687 251.22188 226.74687 252.19063L226.74687 255.8L225.68437 255.8L225.68437 251.75313Q225.68437 251.05 225.41875 250.70625Q225.16875 250.34688 224.59062 250.34688Q224.1375 250.34688 223.7625 250.58125Q223.3875 250.81563 223.21562 251.26875Q223.04375 251.72188 223.04375 252.56563L223.04375 255.8L221.99687 255.8ZM237.05937 255.03438Q236.46562 255.53438 235.91875 255.7375Q235.3875 255.94063 234.7625 255.94063Q233.73125 255.94063 233.18437 255.44063Q232.6375 254.94063 232.6375 254.15938Q232.6375 253.70625 232.84062 253.33125Q233.04375 252.94063 233.3875 252.72188Q233.73125 252.4875 234.15312 252.37813Q234.45 252.28438 235.09062 252.20625Q236.35625 252.06563 236.96562 251.84688Q236.96562 251.62813 236.96562 251.58125Q236.96562 250.925 236.66875 250.65938Q236.2625 250.31563 235.46562 250.31563Q234.73125 250.31563 234.37187 250.58125Q234.0125 250.83125 233.84062 251.4875L232.80937 251.34688Q232.95 250.69063 233.27812 250.28438Q233.60625 249.87813 234.21562 249.65938Q234.825 249.44063 235.62187 249.44063Q236.41875 249.44063 236.91875 249.62813Q237.41875 249.81563 237.65312 250.09688Q237.8875 250.37813 237.98125 250.81563Q238.02812 251.08125 238.02812 251.78438L238.02812 253.19063Q238.02812 254.65938 238.09062 255.05Q238.16875 255.44063 238.37187 255.8L237.2625 255.8Q237.10625 255.47188 237.05937 255.03438ZM236.96562 252.675Q236.3875 252.90938 235.24687 253.08125Q234.59062 253.175 234.325 253.3Q234.05937 253.40938 233.90312 253.62813Q233.7625 253.84688 233.7625 254.12813Q233.7625 254.55 234.075 254.83125Q234.40312 255.1125 235.0125 255.1125Q235.62187 255.1125 236.09062 254.84688Q236.575 254.58125 236.79375 254.1125Q236.96562 253.75313 236.96562 253.06563L236.96562 252.675ZM239.43437 255.8L239.43437 254.94063L243.40312 250.39375Q242.71562 250.425 242.2 250.425L239.66875 250.425L239.66875 249.58125L244.7625 249.58125L244.7625 250.26875L241.3875 254.22188L240.73125 254.94063Q241.45 254.89375 242.05937 254.89375L244.95 254.89375L244.95 255.8L239.43437 255.8ZM244.99687 248.425L244.99687 247.20625L246.05937 247.20625L246.05937 248.425L244.99687 248.425ZM244.99687 255.8L244.99687 249.58125L246.05937 249.58125L246.05937 255.8L244.99687 255.8ZM247.60625 252.69063Q247.60625 250.95625 248.55937 250.12813Q249.35625 249.44063 250.5125 249.44063Q251.79375 249.44063 252.60625 250.28438Q253.43437 251.1125 253.43437 252.59688Q253.43437 253.8 253.075 254.4875Q252.71562 255.175 252.0125 255.56563Q251.325 255.94063 250.5125 255.94063Q249.21562 255.94063 248.40312 255.1125Q247.60625 254.26875 247.60625 252.69063ZM248.68437 252.69063Q248.68437 253.87813 249.2 254.47188Q249.73125 255.06563 250.5125 255.06563Q251.30937 255.06563 251.825 254.47188Q252.34062 253.87813 252.34062 252.65938Q252.34062 251.50313 251.80937 250.90938Q251.29375 250.31563 250.5125 250.31563Q249.73125 250.31563 249.2 250.90938Q248.68437 251.4875 248.68437 252.69063ZM254.99687 255.8L254.99687 249.58125L255.93437 249.58125L255.93437 250.45625Q256.6219 249.44063 257.91876 249.44063Q258.48126 249.44063 258.95 249.64375Q259.4344 249.84688 259.66876 250.175Q259.90314 250.50313 259.9969 250.94063Q260.04376 251.2375 260.04376 251.97188L260.04376 255.8L258.9969 255.8L258.9969 252.01875Q258.9969 251.3625 258.8719 251.05Q258.7469 250.7375 258.4344 250.55Q258.1219 250.34688 257.7 250.34688Q257.02814 250.34688 256.52814 250.78438Q256.04376 251.20625 256.04376 252.39375L256.04376 255.8L254.99687 255.8ZM266.2469 253.8L267.34064 253.925Q267.09064 254.87813 266.3875 255.40938Q265.6844 255.94063 264.60626 255.94063Q263.2469 255.94063 262.4344 255.09688Q261.6375 254.25313 261.6375 252.7375Q261.6375 251.175 262.45 250.31563Q263.2625 249.44063 264.54376 249.44063Q265.79376 249.44063 266.575 250.28438Q267.3719 251.12813 267.3719 252.675Q267.3719 252.76875 267.3719 252.95625L262.73126 252.95625Q262.79376 253.9875 263.3094 254.53438Q263.825 255.06563 264.60626 255.06563Q265.1844 255.06563 265.59064 254.76875Q266.0125 254.45625 266.2469 253.8ZM262.79376 252.09688L266.2625 252.09688Q266.2 251.3 265.8719 250.90938Q265.35626 250.3 264.5594 250.3Q263.825 250.3 263.325 250.78438Q262.84064 251.26875 262.79376 252.09688Z" fill-rule="nonzero"/><path fill="#fbbc04" d="M296.2 251.8C296.2 255.11371 293.5137 257.8 290.2 257.8C286.8863 257.8 284.2 255.11371 284.2 251.8C284.2 248.4863 286.8863 245.8 290.2 245.8C293.5137 245.8 296.2 248.4863 296.2 251.8Z" fill-rule="nonzero"/><path fill="#1a1a1a" d="M304.1844 255.8L307.48126 247.20625L308.7 247.20625L312.21564 255.8L310.9344 255.8L309.91876 253.19063L306.34064 253.19063L305.3875 255.8L304.1844 255.8ZM306.66876 252.26875L309.575 252.26875L308.6844 249.89375Q308.2625 248.81563 308.075 248.1125Q307.90314 248.94063 307.60626 249.75313L306.66876 252.26875ZM311.98126 255.8L311.98126 249.58125L312.9344 249.58125L312.9344 250.51875Q313.29376 249.8625 313.59064 249.65938Q313.90314 249.44063 314.27814 249.44063Q314.8094 249.44063 315.35626 249.76875L314.9969 250.75313Q314.60626 250.51875 314.23126 250.51875Q313.8719 250.51875 313.59064 250.7375Q313.325 250.94063 313.21564 251.31563Q313.02814 251.87813 313.02814 252.53438L313.02814 255.8L311.98126 255.8ZM315.79376 256.3156L316.825 256.47186Q316.8875 256.9406 317.1844 257.15936Q317.575 257.45624 318.2469 257.45624Q318.98126 257.45624 319.3719 257.15936Q319.77814 256.8625 319.91876 256.34686Q320.0125 256.01874 319.9969 254.9875Q319.3094 255.8 318.27814 255.8Q316.9969 255.8 316.29376 254.87813Q315.59064 253.94063 315.59064 252.65938Q315.59064 251.76875 315.90314 251.01875Q316.23126 250.25313 316.84064 249.84688Q317.45 249.44063 318.27814 249.44063Q319.3875 249.44063 320.10626 250.33125L320.10626 249.58125L321.075 249.58125L321.075 254.95625Q321.075 256.40936 320.77814 257.01874Q320.48126 257.6281 319.84064 257.97186Q319.2 258.33124 318.2625 258.33124Q317.15314 258.33124 316.46564 257.83124Q315.77814 257.33124 315.79376 256.3156ZM316.66876 252.58125Q316.66876 253.8 317.15314 254.3625Q317.6375 254.925 318.3719 254.925Q319.10626 254.925 319.59064 254.3625Q320.09064 253.8 320.09064 252.6125Q320.09064 251.47188 319.575 250.89375Q319.075 250.31563 318.35626 250.31563Q317.65314 250.31563 317.15314 250.89375Q316.66876 251.45625 316.66876 252.58125ZM322.60626 252.69063Q322.60626 250.95625 323.5594 250.12813Q324.35626 249.44063 325.5125 249.44063Q326.79376 249.44063 327.60626 250.28438Q328.4344 251.1125 328.4344 252.59688Q328.4344 253.8 328.075 254.4875Q327.71564 255.175 327.0125 255.56563Q326.325 255.94063 325.5125 255.94063Q324.21564 255.94063 323.40314 255.1125Q322.60626 254.26875 322.60626 252.69063ZM323.6844 252.69063Q323.6844 253.87813 324.2 254.47188Q324.73126 255.06563 325.5125 255.06563Q326.3094 255.06563 326.825 254.47188Q327.34064 253.87813 327.34064 252.65938Q327.34064 251.50313 326.8094 250.90938Q326.29376 250.31563 325.5125 250.31563Q324.73126 250.31563 324.2 250.90938Q323.6844 251.4875 323.6844 252.69063ZM329.9969 255.8L329.9969 249.58125L330.9344 249.58125L330.9344 250.45625Q331.23126 249.9875 331.71564 249.72188Q332.2 249.44063 332.825 249.44063Q333.5125 249.44063 333.95 249.72188Q334.40314 250.00313 334.575 250.51875Q335.325 249.44063 336.4969 249.44063Q337.4344 249.44063 337.91876 249.95625Q338.41876 250.45625 338.41876 251.53438L338.41876 255.8L337.3719 255.8L337.3719 251.87813Q337.3719 251.25313 337.2625 250.97188Q337.16876 250.69063 336.90314 250.51875Q336.6375 250.34688 336.2625 250.34688Q335.60626 250.34688 335.16876 250.78438Q334.7469 251.22188 334.7469 252.19063L334.7469 255.8L333.6844 255.8L333.6844 251.75313Q333.6844 251.05 333.41876 250.70625Q333.16876 250.34688 332.59064 250.34688Q332.1375 250.34688 331.7625 250.58125Q331.3875 250.81563 331.21564 251.26875Q331.04376 251.72188 331.04376 252.56563L331.04376 255.8L329.9969 255.8ZM345.2469 253.8L346.34064 253.925Q346.09064 254.87813 345.3875 255.40938Q344.6844 255.94063 343.60626 255.94063Q342.2469 255.94063 341.4344 255.09688Q340.6375 254.25313 340.6375 252.7375Q340.6375 251.175 341.45 250.31563Q342.2625 249.44063 343.54376 249.44063Q344.79376 249.44063 345.575 250.28438Q346.3719 251.12813 346.3719 252.675Q346.3719 252.76875 346.3719 252.95625L341.73126 252.95625Q341.79376 253.9875 342.3094 254.53438Q342.825 255.06563 343.60626 255.06563Q344.1844 255.06563 344.59064 254.76875Q345.0125 254.45625 345.2469 253.8ZM341.79376 252.09688L345.2625 252.09688Q345.2 251.3 344.8719 250.90938Q344.35626 250.3 343.5594 250.3Q342.825 250.3 342.325 250.78438Q341.84064 251.26875 341.79376 252.09688ZM347.9969 255.8L347.9969 249.58125L348.9344 249.58125L348.9344 250.45625Q349.6219 249.44063 350.91876 249.44063Q351.48126 249.44063 351.95 249.64375Q352.4344 249.84688 352.66876 250.175Q352.90314 250.50313 352.9969 250.94063Q353.04376 251.2375 353.04376 251.97188L353.04376 255.8L351.9969 255.8L351.9969 252.01875Q351.9969 251.3625 351.8719 251.05Q351.7469 250.7375 351.4344 250.55Q351.1219 250.34688 350.7 250.34688Q350.02814 250.34688 349.52814 250.78438Q349.04376 251.20625 349.04376 252.39375L349.04376 255.8L347.9969 255.8ZM357.29376 254.8625L357.45 255.78438Q356.9969 255.87813 356.65314 255.87813Q356.075 255.87813 355.7625 255.70625Q355.45 255.51875 355.3094 255.22188Q355.1844 254.925 355.1844 253.97188L355.1844 250.39375L354.41876 250.39375L354.41876 249.58125L355.1844 249.58125L355.1844 248.03438L356.23126 247.40938L356.23126 249.58125L357.29376 249.58125L357.29376 250.39375L356.23126 250.39375L356.23126 254.03438Q356.23126 254.4875 356.27814 254.6125Q356.34064 254.7375 356.46564 254.81563Q356.59064 254.89375 356.825 254.89375Q357.0125 254.89375 357.29376 254.8625ZM357.9969 248.425L357.9969 247.20625L359.0594 247.20625L359.0594 248.425L357.9969 248.425ZM357.9969 255.8L357.9969 249.58125L359.0594 249.58125L359.0594 255.8L357.9969 255.8ZM363.9969 255.8L363.9969 249.58125L364.9344 249.58125L364.9344 250.45625Q365.23126 249.9875 365.71564 249.72188Q366.2 249.44063 366.825 249.44063Q367.5125 249.44063 367.95 249.72188Q368.40314 250.00313 368.575 250.51875Q369.325 249.44063 370.4969 249.44063Q371.4344 249.44063 371.91876 249.95625Q372.41876 250.45625 372.41876 251.53438L372.41876 255.8L371.3719 255.8L371.3719 251.87813Q371.3719 251.25313 371.2625 250.97188Q371.16876 250.69063 370.90314 250.51875Q370.6375 250.34688 370.2625 250.34688Q369.60626 250.34688 369.16876 250.78438Q368.7469 251.22188 368.7469 252.19063L368.7469 255.8L367.6844 255.8L367.6844 251.75313Q367.6844 251.05 367.41876 250.70625Q367.16876 250.34688 366.59064 250.34688Q366.1375 250.34688 365.7625 250.58125Q365.3875 250.81563 365.21564 251.26875Q365.04376 251.72188 365.04376 252.56563L365.04376 255.8L363.9969 255.8ZM379.0594 255.03438Q378.46564 255.53438 377.91876 255.7375Q377.3875 255.94063 376.7625 255.94063Q375.73126 255.94063 375.1844 255.44063Q374.6375 254.94063 374.6375 254.15938Q374.6375 253.70625 374.84064 253.33125Q375.04376 252.94063 375.3875 252.72188Q375.73126 252.4875 376.15314 252.37813Q376.45 252.28438 377.09064 252.20625Q378.35626 252.06563 378.96564 251.84688Q378.96564 251.62813 378.96564 251.58125Q378.96564 250.925 378.66876 250.65938Q378.2625 250.31563 377.46564 250.31563Q376.73126 250.31563 376.3719 250.58125Q376.0125 250.83125 375.84064 251.4875L374.8094 251.34688Q374.95 250.69063 375.27814 250.28438Q375.60626 249.87813 376.21564 249.65938Q376.825 249.44063 377.6219 249.44063Q378.41876 249.44063 378.91876 249.62813Q379.41876 249.81563 379.65314 250.09688Q379.8875 250.37813 379.98126 250.81563Q380.02814 251.08125 380.02814 251.78438L380.02814 253.19063Q380.02814 254.65938 380.09064 255.05Q380.16876 255.44063 380.3719 255.8L379.2625 255.8Q379.10626 255.47188 379.0594 255.03438ZM378.96564 252.675Q378.3875 252.90938 377.2469 253.08125Q376.59064 253.175 376.325 253.3Q376.0594 253.40938 375.90314 253.62813Q375.7625 253.84688 375.7625 254.12813Q375.7625 254.55 376.075 254.83125Q376.40314 255.1125 377.0125 255.1125Q377.6219 255.1125 378.09064 254.84688Q378.575 254.58125 378.79376 254.1125Q378.96564 253.75313 378.96564 253.06563L378.96564 252.675ZM381.9969 255.8L381.9969 249.58125L382.9344 249.58125L382.9344 250.45625Q383.6219 249.44063 384.91876 249.44063Q385.48126 249.44063 385.95 249.64375Q386.4344 249.84688 386.66876 250.175Q386.90314 250.50313 386.9969 250.94063Q387.04376 251.2375 387.04376 251.97188L387.04376 255.8L385.9969 255.8L385.9969 252.01875Q385.9969 251.3625 385.8719 251.05Q385.7469 250.7375 385.4344 250.55Q385.1219 250.34688 384.7 250.34688Q384.02814 250.34688 383.52814 250.78438Q383.04376 251.20625 383.04376 252.39375L383.04376 255.8L381.9969 255.8ZM393.0594 253.51875L394.09064 253.65938Q393.91876 254.72188 393.21564 255.33125Q392.5125 255.94063 391.4969 255.94063Q390.21564 255.94063 389.4344 255.1125Q388.66876 254.26875 388.66876 252.70625Q388.66876 251.70625 388.9969 250.95625Q389.34064 250.19063 390.0125 249.81563Q390.7 249.44063 391.5125 249.44063Q392.5125 249.44063 393.15314 249.95625Q393.8094 250.45625 393.9969 251.40938L392.96564 251.56563Q392.825 250.94063 392.45 250.62813Q392.075 250.3 391.54376 250.3Q390.7469 250.3 390.2469 250.87813Q389.7469 251.44063 389.7469 252.675Q389.7469 253.94063 390.23126 254.50313Q390.71564 255.06563 391.48126 255.06563Q392.10626 255.06563 392.5125 254.69063Q392.9344 254.31563 393.0594 253.51875ZM399.0594 255.03438Q398.46564 255.53438 397.91876 255.7375Q397.3875 255.94063 396.7625 255.94063Q395.73126 255.94063 395.1844 255.44063Q394.6375 254.94063 394.6375 254.15938Q394.6375 253.70625 394.84064 253.33125Q395.04376 252.94063 395.3875 252.72188Q395.73126 252.4875 396.15314 252.37813Q396.45 252.28438 397.09064 252.20625Q398.35626 252.06563 398.96564 251.84688Q398.96564 251.62813 398.96564 251.58125Q398.96564 250.925 398.66876 250.65938Q398.2625 250.31563 397.46564 250.31563Q396.73126 250.31563 396.3719 250.58125Q396.0125 250.83125 395.84064 251.4875L394.8094 251.34688Q394.95 250.69063 395.27814 250.28438Q395.60626 249.87813 396.21564 249.65938Q396.825 249.44063 397.6219 249.44063Q398.41876 249.44063 398.91876 249.62813Q399.41876 249.81563 399.65314 250.09688Q399.8875 250.37813 399.98126 250.81563Q400.02814 251.08125 400.02814 251.78438L400.02814 253.19063Q400.02814 254.65938 400.09064 255.05Q400.16876 255.44063 400.3719 255.8L399.2625 255.8Q399.10626 255.47188 399.0594 255.03438ZM398.96564 252.675Q398.3875 252.90938 397.2469 253.08125Q396.59064 253.175 396.325 253.3Q396.0594 253.40938 395.90314 253.62813Q395.7625 253.84688 395.7625 254.12813Q395.7625 254.55 396.075 254.83125Q396.40314 255.1125 397.0125 255.1125Q397.6219 255.1125 398.09064 254.84688Q398.575 254.58125 398.79376 254.1125Q398.96564 253.75313 398.96564 253.06563L398.96564 252.675ZM401.9969 255.8L401.9969 249.58125L402.9344 249.58125L402.9344 250.45625Q403.6219 249.44063 404.91876 249.44063Q405.48126 249.44063 405.95 249.64375Q406.4344 249.84688 406.66876 250.175Q406.90314 250.50313 406.9969 250.94063Q407.04376 251.2375 407.04376 251.97188L407.04376 255.8L405.9969 255.8L405.9969 252.01875Q405.9969 251.3625 405.8719 251.05Q405.7469 250.7375 405.4344 250.55Q405.1219 250.34688 404.7 250.34688Q404.02814 250.34688 403.52814 250.78438Q403.04376 251.20625 403.04376 252.39375L403.04376 255.8L401.9969 255.8ZM411.29376 254.8625L411.45 255.78438Q410.9969 255.87813 410.65314 255.87813Q410.075 255.87813 409.7625 255.70625Q409.45 255.51875 409.3094 255.22188Q409.1844 254.925 409.1844 253.97188L409.1844 250.39375L408.41876 250.39375L408.41876 249.58125L409.1844 249.58125L409.1844 248.03438L410.23126 247.40938L410.23126 249.58125L411.29376 249.58125L411.29376 250.39375L410.23126 250.39375L410.23126 254.03438Q410.23126 254.4875 410.27814 254.6125Q410.34064 254.7375 410.46564 254.81563Q410.59064 254.89375 410.825 254.89375Q411.0125 254.89375 411.29376 254.8625ZM411.9969 248.425L411.9969 247.20625L413.0594 247.20625L413.0594 248.425L411.9969 248.425ZM411.9969 255.8L411.9969 249.58125L413.0594 249.58125L413.0594 255.8L411.9969 255.8Z" fill-rule="nonzero"/><path fill="#34a853" d="M171.2 269.8C171.2 273.1137 168.5137 275.8 165.2 275.8C161.88629 275.8 159.2 273.1137 159.2 269.8C159.2 266.4863 161.88629 263.8 165.2 263.8C168.5137 263.8 171.2 266.4863 171.2 269.8Z" fill-rule="nonzero"/><path fill="#1a1a1a" d="M180.12187 273.8L180.12187 265.20624L181.27812 265.20624L185.79375 271.95624L185.79375 265.20624L186.8875 265.20624L186.8875 273.8L185.71562 273.8L181.2 267.05L181.2 273.8L180.12187 273.8ZM193.24687 271.8L194.34062 271.925Q194.09062 272.8781 193.3875 273.40936Q192.68437 273.9406 191.60625 273.9406Q190.24687 273.9406 189.43437 273.09686Q188.6375 272.2531 188.6375 270.7375Q188.6375 269.175 189.45 268.3156Q190.2625 267.4406 191.54375 267.4406Q192.79375 267.4406 193.575 268.28436Q194.37187 269.1281 194.37187 270.675Q194.37187 270.76874 194.37187 270.95624L189.73125 270.95624Q189.79375 271.9875 190.30937 272.53436Q190.825 273.0656 191.60625 273.0656Q192.18437 273.0656 192.59062 272.76874Q193.0125 272.45624 193.24687 271.8ZM189.79375 270.09686L193.2625 270.09686Q193.2 269.3 192.87187 268.90936Q192.35625 268.3 191.55937 268.3Q190.825 268.3 190.325 268.78436Q189.84062 269.26874 189.79375 270.09686ZM195.575 271.9406L196.60625 271.78436Q196.7 272.40936 197.09062 272.7375Q197.49687 273.0656 198.23125 273.0656Q198.95 273.0656 199.29375 272.78436Q199.65312 272.4875 199.65312 272.08124Q199.65312 271.72186 199.34062 271.51874Q199.12187 271.3781 198.2625 271.15936Q197.10625 270.8625 196.65312 270.65936Q196.21562 270.4406 195.98125 270.0656Q195.74687 269.6906 195.74687 269.22186Q195.74687 268.8156 195.93437 268.45624Q196.12187 268.09686 196.45 267.8625Q196.7 267.6906 197.12187 267.5656Q197.54375 267.4406 198.04375 267.4406Q198.7625 267.4406 199.30937 267.65936Q199.87187 267.8625 200.1375 268.22186Q200.40312 268.58124 200.49687 269.175L199.46562 269.3156Q199.40312 268.84686 199.05937 268.58124Q198.73125 268.3 198.10625 268.3Q197.3875 268.3 197.075 268.55Q196.7625 268.78436 196.7625 269.1125Q196.7625 269.3156 196.8875 269.47186Q197.02812 269.64374 197.29375 269.7531Q197.45 269.8156 198.23125 270.01874Q199.35625 270.33124 199.79375 270.51874Q200.23125 270.70624 200.48125 271.0656Q200.73125 271.425 200.73125 271.97186Q200.73125 272.5031 200.41875 272.97186Q200.12187 273.425 199.54375 273.6906Q198.96562 273.9406 198.23125 273.9406Q197.0125 273.9406 196.37187 273.4406Q195.74687 272.925 195.575 271.9406ZM202.575 271.9406L203.60625 271.78436Q203.7 272.40936 204.09062 272.7375Q204.49687 273.0656 205.23125 273.0656Q205.95 273.0656 206.29375 272.78436Q206.65312 272.4875 206.65312 272.08124Q206.65312 271.72186 206.34062 271.51874Q206.12187 271.3781 205.2625 271.15936Q204.10625 270.8625 203.65312 270.65936Q203.21562 270.4406 202.98125 270.0656Q202.74687 269.6906 202.74687 269.22186Q202.74687 268.8156 202.93437 268.45624Q203.12187 268.09686 203.45 267.8625Q203.7 267.6906 204.12187 267.5656Q204.54375 267.4406 205.04375 267.4406Q205.7625 267.4406 206.30937 267.65936Q206.87187 267.8625 207.1375 268.22186Q207.40312 268.58124 207.49687 269.175L206.46562 269.3156Q206.40312 268.84686 206.05937 268.58124Q205.73125 268.3 205.10625 268.3Q204.3875 268.3 204.075 268.55Q203.7625 268.78436 203.7625 269.1125Q203.7625 269.3156 203.8875 269.47186Q204.02812 269.64374 204.29375 269.7531Q204.45 269.8156 205.23125 270.01874Q206.35625 270.33124 206.79375 270.51874Q207.23125 270.70624 207.48125 271.0656Q207.73125 271.425 207.73125 271.97186Q207.73125 272.5031 207.41875 272.97186Q207.12187 273.425 206.54375 273.6906Q205.96562 273.9406 205.23125 273.9406Q204.0125 273.9406 203.37187 273.4406Q202.74687 272.925 202.575 271.9406ZM214.075 273.8L214.075 272.8781Q213.34062 273.9406 212.09062 273.9406Q211.54375 273.9406 211.05937 273.7375Q210.59062 273.51874 210.35625 273.20624Q210.12187 272.8781 210.02812 272.40936Q209.96562 272.1125 209.96562 271.425L209.96562 267.58124L211.02812 267.58124L211.02812 271.03436Q211.02812 271.84686 211.09062 272.14374Q211.18437 272.55 211.49687 272.8Q211.825 273.03436 212.30937 273.03436Q212.77812 273.03436 213.18437 272.8Q213.60625 272.55 213.77812 272.1281Q213.96562 271.70624 213.96562 270.90936L213.96562 267.58124L215.0125 267.58124L215.0125 273.8L214.075 273.8ZM216.99687 273.8L216.99687 267.58124L217.93437 267.58124L217.93437 268.45624Q218.62187 267.4406 219.91875 267.4406Q220.48125 267.4406 220.95 267.64374Q221.43437 267.84686 221.66875 268.175Q221.90312 268.5031 221.99687 268.9406Q222.04375 269.2375 222.04375 269.97186L222.04375 273.8L220.99687 273.8L220.99687 270.01874Q220.99687 269.3625 220.87187 269.05Q220.74687 268.7375 220.43437 268.55Q220.12187 268.34686 219.7 268.34686Q219.02812 268.34686 218.52812 268.78436Q218.04375 269.20624 218.04375 270.39374L218.04375 273.8L216.99687 273.8ZM228.05937 273.03436Q227.46562 273.53436 226.91875 273.7375Q226.3875 273.9406 225.7625 273.9406Q224.73125 273.9406 224.18437 273.4406Q223.6375 272.9406 223.6375 272.15936Q223.6375 271.70624 223.84062 271.33124Q224.04375 270.9406 224.3875 270.72186Q224.73125 270.4875 225.15312 270.3781Q225.45 270.28436 226.09062 270.20624Q227.35625 270.0656 227.96562 269.84686Q227.96562 269.6281 227.96562 269.58124Q227.96562 268.925 227.66875 268.65936Q227.2625 268.3156 226.46562 268.3156Q225.73125 268.3156 225.37187 268.58124Q225.0125 268.83124 224.84062 269.4875L223.80937 269.34686Q223.95 268.6906 224.27812 268.28436Q224.60625 267.8781 225.21562 267.65936Q225.825 267.4406 226.62187 267.4406Q227.41875 267.4406 227.91875 267.6281Q228.41875 267.8156 228.65312 268.09686Q228.8875 268.3781 228.98125 268.8156Q229.02812 269.08124 229.02812 269.78436L229.02812 271.1906Q229.02812 272.65936 229.09062 273.05Q229.16875 273.4406 229.37187 273.8L228.2625 273.8Q228.10625 273.47186 228.05937 273.03436ZM227.96562 270.675Q227.3875 270.90936 226.24687 271.08124Q225.59062 271.175 225.325 271.3Q225.05937 271.40936 224.90312 271.6281Q224.7625 271.84686 224.7625 272.1281Q224.7625 272.55 225.075 272.83124Q225.40312 273.1125 226.0125 273.1125Q226.62187 273.1125 227.09062 272.84686Q227.575 272.58124 227.79375 272.1125Q227.96562 271.7531 227.96562 271.0656L227.96562 270.675ZM238.05937 271.51874L239.09062 271.65936Q238.91875 272.72186 238.21562 273.33124Q237.5125 273.9406 236.49687 273.9406Q235.21562 273.9406 234.43437 273.1125Q233.66875 272.26874 233.66875 270.70624Q233.66875 269.70624 233.99687 268.95624Q234.34062 268.1906 235.0125 267.8156Q235.7 267.4406 236.5125 267.4406Q237.5125 267.4406 238.15312 267.95624Q238.80937 268.45624 238.99687 269.40936L237.96562 269.5656Q237.825 268.9406 237.45 268.6281Q237.075 268.3 236.54375 268.3Q235.74687 268.3 235.24687 268.8781Q234.74687 269.4406 234.74687 270.675Q234.74687 271.9406 235.23125 272.5031Q235.71562 273.0656 236.48125 273.0656Q237.10625 273.0656 237.5125 272.6906Q237.93437 272.3156 238.05937 271.51874ZM239.98125 273.8L239.98125 267.58124L240.93437 267.58124L240.93437 268.51874Q241.29375 267.8625 241.59062 267.65936Q241.90312 267.4406 242.27812 267.4406Q242.80937 267.4406 243.35625 267.76874L242.99687 268.7531Q242.60625 268.51874 242.23125 268.51874Q241.87187 268.51874 241.59062 268.7375Q241.325 268.9406 241.21562 269.3156Q241.02812 269.8781 241.02812 270.53436L241.02812 273.8L239.98125 273.8ZM243.99687 266.425L243.99687 265.20624L245.05937 265.20624L245.05937 266.425L243.99687 266.425ZM243.99687 273.8L243.99687 267.58124L245.05937 267.58124L245.05937 273.8L243.99687 273.8ZM249.29375 272.8625L249.45 273.78436Q248.99687 273.8781 248.65312 273.8781Q248.075 273.8781 247.7625 273.70624Q247.45 273.51874 247.30937 273.22186Q247.18437 272.925 247.18437 271.97186L247.18437 268.39374L246.41875 268.39374L246.41875 267.58124L247.18437 267.58124L247.18437 266.03436L248.23125 265.40936L248.23125 267.58124L249.29375 267.58124L249.29375 268.39374L248.23125 268.39374L248.23125 272.03436Q248.23125 272.4875 248.27812 272.6125Q248.34062 272.7375 248.46562 272.8156Q248.59062 272.89374 248.825 272.89374Q249.0125 272.89374 249.29375 272.8625ZM249.99687 266.425L249.99687 265.20624L251.05937 265.20624L251.05937 266.425L249.99687 266.425ZM249.99687 273.8L249.99687 267.58124L251.05937 267.58124L251.05937 273.8L249.99687 273.8ZM257.0594 271.51874L258.09064 271.65936Q257.91876 272.72186 257.21564 273.33124Q256.5125 273.9406 255.49687 273.9406Q254.21562 273.9406 253.43437 273.1125Q252.66875 272.26874 252.66875 270.70624Q252.66875 269.70624 252.99687 268.95624Q253.34062 268.1906 254.0125 267.8156Q254.7 267.4406 255.5125 267.4406Q256.5125 267.4406 257.15314 267.95624Q257.8094 268.45624 257.9969 269.40936L256.96564 269.5656Q256.825 268.9406 256.45 268.6281Q256.075 268.3 255.54375 268.3Q254.74687 268.3 254.24687 268.8781Q253.74687 269.4406 253.74687 270.675Q253.74687 271.9406 254.23125 272.5031Q254.71562 273.0656 255.48125 273.0656Q256.10626 273.0656 256.5125 272.6906Q256.9344 272.3156 257.0594 271.51874ZM258.9969 266.425L258.9969 265.20624L260.0594 265.20624L260.0594 266.425L258.9969 266.425ZM258.9969 273.8L258.9969 267.58124L260.0594 267.58124L260.0594 273.8L258.9969 273.8ZM264.29376 272.8625L264.45 273.78436Q263.9969 273.8781 263.65314 273.8781Q263.075 273.8781 262.7625 273.70624Q262.45 273.51874 262.3094 273.22186Q262.1844 272.925 262.1844 271.97186L262.1844 268.39374L261.41876 268.39374L261.41876 267.58124L262.1844 267.58124L262.1844 266.03436L263.23126 265.40936L263.23126 267.58124L264.29376 267.58124L264.29376 268.39374L263.23126 268.39374L263.23126 272.03436Q263.23126 272.4875 263.27814 272.6125Q263.34064 272.7375 263.46564 272.8156Q263.59064 272.89374 263.825 272.89374Q264.0125 272.89374 264.29376 272.8625ZM269.0594 273.03436Q268.46564 273.53436 267.91876 273.7375Q267.3875 273.9406 266.7625 273.9406Q265.73126 273.9406 265.1844 273.4406Q264.6375 272.9406 264.6375 272.15936Q264.6375 271.70624 264.84064 271.33124Q265.04376 270.9406 265.3875 270.72186Q265.73126 270.4875 266.15314 270.3781Q266.45 270.28436 267.09064 270.20624Q268.35626 270.0656 268.96564 269.84686Q268.96564 269.6281 268.96564 269.58124Q268.96564 268.925 268.66876 268.65936Q268.2625 268.3156 267.46564 268.3156Q266.73126 268.3156 266.3719 268.58124Q266.0125 268.83124 265.84064 269.4875L264.8094 269.34686Q264.95 268.6906 265.27814 268.28436Q265.60626 267.8781 266.21564 267.65936Q266.825 267.4406 267.6219 267.4406Q268.41876 267.4406 268.91876 267.6281Q269.41876 267.8156 269.65314 268.09686Q269.8875 268.3781 269.98126 268.8156Q270.02814 269.08124 270.02814 269.78436L270.02814 271.1906Q270.02814 272.65936 270.09064 273.05Q270.16876 273.4406 270.3719 273.8L269.2625 273.8Q269.10626 273.47186 269.0594 273.03436ZM268.96564 270.675Q268.3875 270.90936 267.2469 271.08124Q266.59064 271.175 266.325 271.3Q266.0594 271.40936 265.90314 271.6281Q265.7625 271.84686 265.7625 272.1281Q265.7625 272.55 266.075 272.83124Q266.40314 273.1125 267.0125 273.1125Q267.6219 273.1125 268.09064 272.84686Q268.575 272.58124 268.79376 272.1125Q268.96564 271.7531 268.96564 271.0656L268.96564 270.675ZM268.3875 266.8L267.54376 266.8L266.1844 265.15936L267.60626 265.15936L268.3875 266.8Z" fill-rule="nonzero"/><path fill="#757575" d="M27.590626 32.66875Q28.91875 33.575 30.028126 33.996876L29.465626 35.309376Q27.91875 34.7625 26.3875 33.559376Q24.79375 34.45 22.871876 34.45Q20.934376 34.45 19.340626 33.5125Q17.7625 32.575 16.903126 30.871876Q16.059376 29.16875 16.059376 27.04375Q16.059376 24.91875 16.91875 23.184376Q17.778126 21.45 19.35625 20.54375Q20.95 19.621876 22.91875 19.621876Q24.903126 19.621876 26.48125 20.575Q28.075 21.5125 28.903126 23.215626Q29.746876 24.903126 29.746876 27.028126Q29.746876 28.79375 29.215626 30.215626Q28.684376 31.621876 27.590626 32.66875ZM23.41875 30.246876Q25.059376 30.7 26.121876 31.60625Q27.79375 30.090626 27.79375 27.028126Q27.79375 25.29375 27.2 23.996876Q26.621876 22.7 25.48125 21.98125Q24.340626 21.2625 22.91875 21.2625Q20.809376 21.2625 19.403126 22.715626Q18.0125 24.153126 18.0125 27.04375Q18.0125 29.840626 19.3875 31.340626Q20.778126 32.825 22.91875 32.825Q23.934376 32.825 24.840626 32.434376Q23.95 31.871876 22.965626 31.621876L23.41875 30.246876ZM39.309376 34.2L39.309376 32.66875Q38.10625 34.434376 36.028126 34.434376Q35.10625 34.434376 34.309376 34.090626Q33.5125 33.73125 33.121876 33.2Q32.746876 32.66875 32.590626 31.8875Q32.48125 31.371876 32.48125 30.246876L32.48125 23.825L34.23125 23.825L34.23125 29.575Q34.23125 30.95 34.340626 31.434376Q34.5125 32.121876 35.04375 32.528126Q35.590626 32.91875 36.371876 32.91875Q37.16875 32.91875 37.85625 32.5125Q38.559376 32.10625 38.840626 31.41875Q39.1375 30.715626 39.1375 29.3875L39.1375 23.825L40.8875 23.825L40.8875 34.2L39.309376 34.2ZM49.29375 32.91875Q48.309376 33.746876 47.403126 34.090626Q46.496876 34.434376 45.465626 34.434376Q43.7625 34.434376 42.840626 33.60625Q41.91875 32.7625 41.91875 31.465626Q41.91875 30.7 42.2625 30.075Q42.621876 29.45 43.184376 29.075Q43.746876 28.684376 44.45 28.48125Q44.965626 28.35625 46.0125 28.215626Q48.1375 27.965626 49.1375 27.621876Q49.153126 27.2625 49.153126 27.153126Q49.153126 26.090626 48.653126 25.6375Q47.98125 25.04375 46.653126 25.04375Q45.403126 25.04375 44.809376 25.48125Q44.23125 25.91875 43.95 27.028126L42.23125 26.79375Q42.465626 25.684376 42.996876 25.0125Q43.528126 24.325 44.54375 23.965626Q45.559376 23.590626 46.903126 23.590626Q48.23125 23.590626 49.059376 23.903126Q49.8875 24.215626 50.278126 24.7Q50.66875 25.16875 50.825 25.8875Q50.91875 26.340626 50.91875 27.5125L50.91875 29.85625Q50.91875 32.309376 51.028126 32.965626Q51.1375 33.60625 51.48125 34.2L49.6375 34.2Q49.371876 33.653126 49.29375 32.91875ZM49.1375 28.996876Q48.184376 29.3875 46.2625 29.653126Q45.184376 29.809376 44.73125 30.0125Q44.29375 30.2 44.04375 30.575Q43.79375 30.95 43.79375 31.41875Q43.79375 32.121876 44.325 32.590626Q44.85625 33.059376 45.8875 33.059376Q46.903126 33.059376 47.684376 32.621876Q48.48125 32.16875 48.85625 31.403126Q49.1375 30.79375 49.1375 29.6375L49.1375 28.996876ZM53.48125 34.2L53.48125 19.8875L55.23125 19.8875L55.23125 34.2L53.48125 34.2ZM57.528126 21.903126L57.528126 19.8875L59.29375 19.8875L59.29375 21.903126L57.528126 21.903126ZM57.528126 34.2L57.528126 23.825L59.29375 23.825L59.29375 34.2L57.528126 34.2ZM66.80937 31.10625L68.55937 30.825Q68.7 31.871876 69.37187 32.434376Q70.04375 32.98125 71.24687 32.98125Q72.45 32.98125 73.02812 32.496876Q73.62187 31.996876 73.62187 31.340626Q73.62187 30.746876 73.10625 30.403126Q72.74687 30.16875 71.30937 29.809376Q69.37187 29.309376 68.62187 28.965626Q67.8875 28.60625 67.49687 27.98125Q67.10625 27.340626 67.10625 26.575Q67.10625 25.8875 67.41875 25.29375Q67.74687 24.7 68.29375 24.309376Q68.7 24.0125 69.40312 23.809376Q70.12187 23.590626 70.93437 23.590626Q72.15312 23.590626 73.075 23.95Q73.99687 24.29375 74.43437 24.903126Q74.87187 25.496876 75.04375 26.496876L73.325 26.73125Q73.2 25.934376 72.6375 25.496876Q72.075 25.04375 71.05937 25.04375Q69.84062 25.04375 69.325 25.45Q68.80937 25.840626 68.80937 26.371876Q68.80937 26.715626 69.02812 26.996876Q69.23125 27.278126 69.7 27.465626Q69.96562 27.559376 71.24687 27.903126Q73.12187 28.403126 73.85625 28.73125Q74.59062 29.04375 75.0125 29.653126Q75.43437 30.246876 75.43437 31.153126Q75.43437 32.028126 74.91875 32.809376Q74.40312 33.590626 73.43437 34.0125Q72.46562 34.434376 71.24687 34.434376Q69.23125 34.434376 68.16875 33.590626Q67.10625 32.746876 66.80937 31.10625ZM76.87187 29.0125Q76.87187 26.1375 78.46562 24.746876Q79.80937 23.590626 81.73125 23.590626Q83.87187 23.590626 85.21562 24.996876Q86.575 26.403126 86.575 28.871876Q86.575 30.871876 85.98125 32.028126Q85.3875 33.16875 84.23125 33.809376Q83.09062 34.434376 81.73125 34.434376Q79.54375 34.434376 78.2 33.04375Q76.87187 31.6375 76.87187 29.0125ZM78.66875 29.0125Q78.66875 31.0125 79.52812 31.996876Q80.40312 32.98125 81.73125 32.98125Q83.04375 32.98125 83.90312 31.996876Q84.77812 30.996876 84.77812 28.95Q84.77812 27.028126 83.90312 26.04375Q83.02812 25.04375 81.73125 25.04375Q80.40312 25.04375 79.52812 26.04375Q78.66875 27.028126 78.66875 29.0125ZM88.5125 34.2L88.5125 23.825L90.10625 23.825L90.10625 25.309376Q91.24687 23.590626 93.40312 23.590626Q94.34062 23.590626 95.12187 23.934376Q95.91875 24.2625 96.30937 24.809376Q96.7 25.35625 96.85625 26.10625Q96.95 26.60625 96.95 27.825L96.95 34.2L95.18437 34.2L95.18437 27.8875Q95.18437 26.809376 94.98125 26.278126Q94.77812 25.746876 94.24687 25.434376Q93.73125 25.121876 93.02812 25.121876Q91.90312 25.121876 91.09062 25.840626Q90.27812 26.54375 90.27812 28.528126L90.27812 34.2L88.5125 34.2ZM97.87187 29.0125Q97.87187 26.1375 99.46562 24.746876Q100.80937 23.590626 102.73125 23.590626Q104.87187 23.590626 106.21562 24.996876Q107.575 26.403126 107.575 28.871876Q107.575 30.871876 106.98125 32.028126Q106.3875 33.16875 105.23125 33.809376Q104.09062 34.434376 102.73125 34.434376Q100.54375 34.434376 99.2 33.04375Q97.87187 31.6375 97.87187 29.0125ZM99.66875 29.0125Q99.66875 31.0125 100.52812 31.996876Q101.40312 32.98125 102.73125 32.98125Q104.04375 32.98125 104.90312 31.996876Q105.77812 30.996876 105.77812 28.95Q105.77812 27.028126 104.90312 26.04375Q104.02812 25.04375 102.73125 25.04375Q101.40312 25.04375 100.52812 26.04375Q99.66875 27.028126 99.66875 29.0125ZM115.48125 34.2L115.48125 19.8875L117.23125 19.8875L117.23125 34.2L115.48125 34.2ZM126.62187 30.85625L128.43437 31.090626Q128.0125 32.66875 126.84062 33.559376Q125.68437 34.434376 123.87187 34.434376Q121.60625 34.434376 120.2625 33.04375Q118.93437 31.6375 118.93437 29.10625Q118.93437 26.48125 120.27812 25.04375Q121.62187 23.590626 123.77812 23.590626Q125.85625 23.590626 127.16875 25.0125Q128.49687 26.41875 128.49687 28.996876Q128.49687 29.153126 128.48125 29.465626L120.74687 29.465626Q120.84062 31.16875 121.71562 32.075Q122.59062 32.98125 123.8875 32.98125Q124.85625 32.98125 125.52812 32.48125Q126.21562 31.965626 126.62187 30.85625ZM120.84062 28.0125L126.6375 28.0125Q126.52812 26.715626 125.98125 26.059376Q125.1375 25.04375 123.79375 25.04375Q122.59062 25.04375 121.7625 25.85625Q120.93437 26.653126 120.84062 28.0125ZM136.5125 38.16875L136.5125 23.825L138.12187 23.825L138.12187 25.16875Q138.68437 24.3875 139.3875 23.996876Q140.10625 23.590626 141.12187 23.590626Q142.45 23.590626 143.46562 24.278126Q144.48125 24.965626 144.99687 26.215626Q145.52812 27.45 145.52812 28.934376Q145.52812 30.528126 144.95 31.809376Q144.3875 33.075 143.29375 33.7625Q142.2 34.434376 140.99687 34.434376Q140.12187 34.434376 139.41875 34.059376Q138.73125 33.684376 138.27812 33.121876L138.27812 38.16875L136.5125 38.16875ZM138.10625 29.075Q138.10625 31.075 138.91875 32.028126Q139.73125 32.98125 140.8875 32.98125Q142.05937 32.98125 142.8875 31.996876Q143.73125 31.0125 143.73125 28.91875Q143.73125 26.95 142.90312 25.965626Q142.09062 24.965626 140.96562 24.965626Q139.84062 24.965626 138.96562 26.028126Q138.10625 27.075 138.10625 29.075ZM147.49687 34.2L147.49687 23.825L149.075 23.825L149.075 25.403126Q149.68437 24.29375 150.2 23.95Q150.71562 23.590626 151.325 23.590626Q152.21562 23.590626 153.1375 24.153126L152.52812 25.79375Q151.8875 25.403126 151.24687 25.403126Q150.66875 25.403126 150.2 25.7625Q149.74687 26.10625 149.54375 26.715626Q149.2625 27.653126 149.2625 28.7625L149.2625 34.2L147.49687 34.2ZM154.52812 21.903126L154.52812 19.8875L156.29375 19.8875L156.29375 21.903126L154.52812 21.903126ZM154.52812 34.2L154.52812 23.825L156.29375 23.825L156.29375 34.2L154.52812 34.2ZM158.5125 34.2L158.5125 23.825L160.10625 23.825L160.10625 25.309376Q161.24687 23.590626 163.40312 23.590626Q164.34062 23.590626 165.12187 23.934376Q165.91875 24.2625 166.30937 24.809376Q166.7 25.35625 166.85625 26.10625Q166.95 26.60625 166.95 27.825L166.95 34.2L165.18437 34.2L165.18437 27.8875Q165.18437 26.809376 164.98125 26.278126Q164.77812 25.746876 164.24687 25.434376Q163.73125 25.121876 163.02812 25.121876Q161.90312 25.121876 161.09062 25.840626Q160.27812 26.54375 160.27812 28.528126L160.27812 34.2L158.5125 34.2ZM175.29375 30.403126L177.0125 30.621876Q176.73125 32.41875 175.55937 33.434376Q174.40312 34.434376 172.7 34.434376Q170.575 34.434376 169.27812 33.04375Q167.98125 31.653126 167.98125 29.059376Q167.98125 27.371876 168.52812 26.121876Q169.09062 24.85625 170.23125 24.23125Q171.37187 23.590626 172.71562 23.590626Q174.40312 23.590626 175.46562 24.45Q176.54375 25.309376 176.85625 26.871876L175.1375 27.1375Q174.90312 26.090626 174.27812 25.575Q173.65312 25.04375 172.77812 25.04375Q171.45 25.04375 170.62187 25.996876Q169.79375 26.95 169.79375 28.996876Q169.79375 31.090626 170.59062 32.04375Q171.3875 32.98125 172.68437 32.98125Q173.71562 32.98125 174.40312 32.35625Q175.10625 31.715626 175.29375 30.403126ZM178.52812 21.903126L178.52812 19.8875L180.29375 19.8875L180.29375 21.903126L178.52812 21.903126ZM178.52812 34.2L178.52812 23.825L180.29375 23.825L180.29375 34.2L178.52812 34.2ZM182.5125 38.16875L182.5125 23.825L184.12187 23.825L184.12187 25.16875Q184.68437 24.3875 185.3875 23.996876Q186.10625 23.590626 187.12187 23.590626Q188.45 23.590626 189.46562 24.278126Q190.48125 24.965626 190.99687 26.215626Q191.52812 27.45 191.52812 28.934376Q191.52812 30.528126 190.95 31.809376Q190.3875 33.075 189.29375 33.7625Q188.2 34.434376 186.99687 34.434376Q186.12187 34.434376 185.41875 34.059376Q184.73125 33.684376 184.27812 33.121876L184.27812 38.16875L182.5125 38.16875ZM184.10625 29.075Q184.10625 31.075 184.91875 32.028126Q185.73125 32.98125 186.8875 32.98125Q188.05937 32.98125 188.8875 31.996876Q189.73125 31.0125 189.73125 28.91875Q189.73125 26.95 188.90312 25.965626Q188.09062 24.965626 186.96562 24.965626Q185.84062 24.965626 184.96562 26.028126Q184.10625 27.075 184.10625 29.075ZM200.29375 32.91875Q199.30937 33.746876 198.40312 34.090626Q197.49687 34.434376 196.46562 34.434376Q194.7625 34.434376 193.84062 33.60625Q192.91875 32.7625 192.91875 31.465626Q192.91875 30.7 193.2625 30.075Q193.62187 29.45 194.18437 29.075Q194.74687 28.684376 195.45 28.48125Q195.96562 28.35625 197.0125 28.215626Q199.1375 27.965626 200.1375 27.621876Q200.15312 27.2625 200.15312 27.153126Q200.15312 26.090626 199.65312 25.6375Q198.98125 25.04375 197.65312 25.04375Q196.40312 25.04375 195.80937 25.48125Q195.23125 25.91875 194.95 27.028126L193.23125 26.79375Q193.46562 25.684376 193.99687 25.0125Q194.52812 24.325 195.54375 23.965626Q196.55937 23.590626 197.90312 23.590626Q199.23125 23.590626 200.05937 23.903126Q200.8875 24.215626 201.27812 24.7Q201.66875 25.16875 201.825 25.8875Q201.91875 26.340626 201.91875 27.5125L201.91875 29.85625Q201.91875 32.309376 202.02812 32.965626Q202.1375 33.60625 202.48125 34.2L200.6375 34.2Q200.37187 33.653126 200.29375 32.91875ZM200.1375 28.996876Q199.18437 29.3875 197.2625 29.653126Q196.18437 29.809376 195.73125 30.0125Q195.29375 30.2 195.04375 30.575Q194.79375 30.95 194.79375 31.41875Q194.79375 32.121876 195.325 32.590626Q195.85625 33.059376 196.8875 33.059376Q197.90312 33.059376 198.68437 32.621876Q199.48125 32.16875 199.85625 31.403126Q200.1375 30.79375 200.1375 29.6375L200.1375 28.996876ZM204.48125 34.2L204.48125 19.8875L206.23125 19.8875L206.23125 34.2L204.48125 34.2ZM208.52812 21.903126L208.52812 19.8875L210.29375 19.8875L210.29375 21.903126L208.52812 21.903126ZM208.52812 34.2L208.52812 23.825L210.29375 23.825L210.29375 34.2L208.52812 34.2ZM225.29375 30.403126L227.0125 30.621876Q226.73125 32.41875 225.55937 33.434376Q224.40312 34.434376 222.7 34.434376Q220.575 34.434376 219.27812 33.04375Q217.98125 31.653126 217.98125 29.059376Q217.98125 27.371876 218.52812 26.121876Q219.09062 24.85625 220.23125 24.23125Q221.37187 23.590626 222.71562 23.590626Q224.40312 23.590626 225.46562 24.45Q226.54375 25.309376 226.85625 26.871876L225.1375 27.1375Q224.90312 26.090626 224.27812 25.575Q223.65312 25.04375 222.77812 25.04375Q221.45 25.04375 220.62187 25.996876Q219.79375 26.95 219.79375 28.996876Q219.79375 31.090626 220.59062 32.04375Q221.3875 32.98125 222.68437 32.98125Q223.71562 32.98125 224.40312 32.35625Q225.10625 31.715626 225.29375 30.403126ZM228.49687 34.2L228.49687 23.825L230.075 23.825L230.075 25.403126Q230.68437 24.29375 231.2 23.95Q231.71562 23.590626 232.325 23.590626Q233.21562 23.590626 234.1375 24.153126L233.52812 25.79375Q232.8875 25.403126 232.24687 25.403126Q231.66875 25.403126 231.2 25.7625Q230.74687 26.10625 230.54375 26.715626Q230.2625 27.653126 230.2625 28.7625L230.2625 34.2L228.49687 34.2ZM235.52812 21.903126L235.52812 19.8875L237.29375 19.8875L237.29375 21.903126L235.52812 21.903126ZM235.52812 34.2L235.52812 23.825L237.29375 23.825L237.29375 34.2L235.52812 34.2ZM243.35625 32.621876L243.60625 34.184376Q242.87187 34.340626 242.27812 34.340626Q241.325 34.340626 240.79375 34.04375Q240.27812 33.73125 240.05937 33.246876Q239.84062 32.746876 239.84062 31.16875L239.84062 25.2L238.55937 25.2L238.55937 23.825L239.84062 23.825L239.84062 21.2625L241.59062 20.2L241.59062 23.825L243.35625 23.825L243.35625 25.2L241.59062 25.2L241.59062 31.2625Q241.59062 32.0125 241.68437 32.23125Q241.77812 32.434376 241.98125 32.575Q242.2 32.7 242.59062 32.7Q242.87187 32.7 243.35625 32.621876ZM245.52812 21.903126L245.52812 19.8875L247.29375 19.8875L247.29375 21.903126L245.52812 21.903126ZM245.52812 34.2L245.52812 23.825L247.29375 23.825L247.29375 34.2L245.52812 34.2ZM256.29376 30.403126L258.0125 30.621876Q257.73126 32.41875 256.5594 33.434376Q255.40312 34.434376 253.7 34.434376Q251.575 34.434376 250.27812 33.04375Q248.98125 31.653126 248.98125 29.059376Q248.98125 27.371876 249.52812 26.121876Q250.09062 24.85625 251.23125 24.23125Q252.37187 23.590626 253.71562 23.590626Q255.40312 23.590626 256.46564 24.45Q257.54376 25.309376 257.85626 26.871876L256.1375 27.1375Q255.90312 26.090626 255.27812 25.575Q254.65312 25.04375 253.77812 25.04375Q252.45 25.04375 251.62187 25.996876Q250.79375 26.95 250.79375 28.996876Q250.79375 31.090626 251.59062 32.04375Q252.3875 32.98125 253.68437 32.98125Q254.71562 32.98125 255.40312 32.35625Q256.10626 31.715626 256.29376 30.403126ZM259.52814 21.903126L259.52814 19.8875L261.29376 19.8875L261.29376 21.903126L259.52814 21.903126ZM259.52814 34.2L259.52814 23.825L261.29376 23.825L261.29376 34.2L259.52814 34.2ZM267.35626 32.621876L267.60626 34.184376Q266.8719 34.340626 266.27814 34.340626Q265.325 34.340626 264.79376 34.04375Q264.27814 33.73125 264.0594 33.246876Q263.84064 32.746876 263.84064 31.16875L263.84064 25.2L262.5594 25.2L262.5594 23.825L263.84064 23.825L263.84064 21.2625L265.59064 20.2L265.59064 23.825L267.35626 23.825L267.35626 25.2L265.59064 25.2L265.59064 31.2625Q265.59064 32.0125 265.6844 32.23125Q265.77814 32.434376 265.98126 32.575Q266.2 32.7 266.59064 32.7Q266.8719 32.7 267.35626 32.621876ZM276.29376 32.91875Q275.3094 33.746876 274.40314 34.090626Q273.4969 34.434376 272.46564 34.434376Q270.7625 34.434376 269.84064 33.60625Q268.91876 32.7625 268.91876 31.465626Q268.91876 30.7 269.2625 30.075Q269.6219 29.45 270.1844 29.075Q270.7469 28.684376 271.45 28.48125Q271.96564 28.35625 273.0125 28.215626Q275.1375 27.965626 276.1375 27.621876Q276.15314 27.2625 276.15314 27.153126Q276.15314 26.090626 275.65314 25.6375Q274.98126 25.04375 273.65314 25.04375Q272.40314 25.04375 271.8094 25.48125Q271.23126 25.91875 270.95 27.028126L269.23126 26.79375Q269.46564 25.684376 269.9969 25.0125Q270.52814 24.325 271.54376 23.965626Q272.5594 23.590626 273.90314 23.590626Q275.23126 23.590626 276.0594 23.903126Q276.8875 24.215626 277.27814 24.7Q277.66876 25.16875 277.825 25.8875Q277.91876 26.340626 277.91876 27.5125L277.91876 29.85625Q277.91876 32.309376 278.02814 32.965626Q278.1375 33.60625 278.48126 34.2L276.6375 34.2Q276.3719 33.653126 276.29376 32.91875ZM276.1375 28.996876Q275.1844 29.3875 273.2625 29.653126Q272.1844 29.809376 271.73126 30.0125Q271.29376 30.2 271.04376 30.575Q270.79376 30.95 270.79376 31.41875Q270.79376 32.121876 271.325 32.590626Q271.85626 33.059376 272.8875 33.059376Q273.90314 33.059376 274.6844 32.621876Q275.48126 32.16875 275.85626 31.403126Q276.1375 30.79375 276.1375 29.6375L276.1375 28.996876ZM275.1844 22.54375L273.7625 22.54375L271.5125 19.809376L273.85626 19.809376L275.1844 22.54375ZM293.2469 34.2L293.2469 32.8875Q292.2625 34.434376 290.34064 34.434376Q289.10626 34.434376 288.0594 33.746876Q287.02814 33.059376 286.45 31.840626Q285.8875 30.621876 285.8875 29.028126Q285.8875 27.465626 286.40314 26.2Q286.91876 24.934376 287.95 24.2625Q288.9969 23.590626 290.2625 23.590626Q291.2 23.590626 291.9344 23.996876Q292.66876 24.3875 293.1375 25.0125L293.1375 19.8875L294.8719 19.8875L294.8719 34.2L293.2469 34.2ZM287.6844 29.028126Q287.6844 31.0125 288.52814 31.996876Q289.3719 32.98125 290.5125 32.98125Q291.66876 32.98125 292.46564 32.04375Q293.27814 31.10625 293.27814 29.16875Q293.27814 27.04375 292.45 26.04375Q291.6375 25.04375 290.4344 25.04375Q289.2625 25.04375 288.46564 26.0125Q287.6844 26.965626 287.6844 29.028126ZM304.6219 30.85625L306.4344 31.090626Q306.0125 32.66875 304.84064 33.559376Q303.6844 34.434376 301.8719 34.434376Q299.60626 34.434376 298.2625 33.04375Q296.9344 31.6375 296.9344 29.10625Q296.9344 26.48125 298.27814 25.04375Q299.6219 23.590626 301.77814 23.590626Q303.85626 23.590626 305.16876 25.0125Q306.4969 26.41875 306.4969 28.996876Q306.4969 29.153126 306.48126 29.465626L298.7469 29.465626Q298.84064 31.16875 299.71564 32.075Q300.59064 32.98125 301.8875 32.98125Q302.85626 32.98125 303.52814 32.48125Q304.21564 31.965626 304.6219 30.85625ZM298.84064 28.0125L304.6375 28.0125Q304.52814 26.715626 303.98126 26.059376Q303.1375 25.04375 301.79376 25.04375Q300.59064 25.04375 299.7625 25.85625Q298.9344 26.653126 298.84064 28.0125ZM308.48126 34.2L308.48126 19.8875L310.23126 19.8875L310.23126 34.2L308.48126 34.2ZM325.29376 30.403126L327.0125 30.621876Q326.73126 32.41875 325.5594 33.434376Q324.40314 34.434376 322.7 34.434376Q320.575 34.434376 319.27814 33.04375Q317.98126 31.653126 317.98126 29.059376Q317.98126 27.371876 318.52814 26.121876Q319.09064 24.85625 320.23126 24.23125Q321.3719 23.590626 322.71564 23.590626Q324.40314 23.590626 325.46564 24.45Q326.54376 25.309376 326.85626 26.871876L325.1375 27.1375Q324.90314 26.090626 324.27814 25.575Q323.65314 25.04375 322.77814 25.04375Q321.45 25.04375 320.6219 25.996876Q319.79376 26.95 319.79376 28.996876Q319.79376 31.090626 320.59064 32.04375Q321.3875 32.98125 322.6844 32.98125Q323.71564 32.98125 324.40314 32.35625Q325.10626 31.715626 325.29376 30.403126ZM327.8719 29.0125Q327.8719 26.1375 329.46564 24.746876Q330.8094 23.590626 332.73126 23.590626Q334.8719 23.590626 336.21564 24.996876Q337.575 26.403126 337.575 28.871876Q337.575 30.871876 336.98126 32.028126Q336.3875 33.16875 335.23126 33.809376Q334.09064 34.434376 332.73126 34.434376Q330.54376 34.434376 329.2 33.04375Q327.8719 31.6375 327.8719 29.0125ZM329.66876 29.0125Q329.66876 31.0125 330.52814 31.996876Q331.40314 32.98125 332.73126 32.98125Q334.04376 32.98125 334.90314 31.996876Q335.77814 30.996876 335.77814 28.95Q335.77814 27.028126 334.90314 26.04375Q334.02814 25.04375 332.73126 25.04375Q331.40314 25.04375 330.52814 26.04375Q329.66876 27.028126 329.66876 29.0125ZM339.4969 34.2L339.4969 23.825L341.075 23.825L341.075 25.403126Q341.6844 24.29375 342.2 23.95Q342.71564 23.590626 343.325 23.590626Q344.21564 23.590626 345.1375 24.153126L344.52814 25.79375Q343.8875 25.403126 343.2469 25.403126Q342.66876 25.403126 342.2 25.7625Q341.7469 26.10625 341.54376 26.715626Q341.2625 27.653126 341.2625 28.7625L341.2625 34.2L339.4969 34.2ZM345.8094 31.10625L347.5594 30.825Q347.7 31.871876 348.3719 32.434376Q349.04376 32.98125 350.2469 32.98125Q351.45 32.98125 352.02814 32.496876Q352.6219 31.996876 352.6219 31.340626Q352.6219 30.746876 352.10626 30.403126Q351.7469 30.16875 350.3094 29.809376Q348.3719 29.309376 347.6219 28.965626Q346.8875 28.60625 346.4969 27.98125Q346.10626 27.340626 346.10626 26.575Q346.10626 25.8875 346.41876 25.29375Q346.7469 24.7 347.29376 24.309376Q347.7 24.0125 348.40314 23.809376Q349.1219 23.590626 349.9344 23.590626Q351.15314 23.590626 352.075 23.95Q352.9969 24.29375 353.4344 24.903126Q353.8719 25.496876 354.04376 26.496876L352.325 26.73125Q352.2 25.934376 351.6375 25.496876Q351.075 25.04375 350.0594 25.04375Q348.84064 25.04375 348.325 25.45Q347.8094 25.840626 347.8094 26.371876Q347.8094 26.715626 348.02814 26.996876Q348.23126 27.278126 348.7 27.465626Q348.96564 27.559376 350.2469 27.903126Q352.1219 28.403126 352.85626 28.73125Q353.59064 29.04375 354.0125 29.653126Q354.4344 30.246876 354.4344 31.153126Q354.4344 32.028126 353.91876 32.809376Q353.40314 33.590626 352.4344 34.0125Q351.46564 34.434376 350.2469 34.434376Q348.23126 34.434376 347.16876 33.590626Q346.10626 32.746876 345.8094 31.10625ZM355.8719 29.0125Q355.8719 26.1375 357.46564 24.746876Q358.8094 23.590626 360.73126 23.590626Q362.8719 23.590626 364.21564 24.996876Q365.575 26.403126 365.575 28.871876Q365.575 30.871876 364.98126 32.028126Q364.3875 33.16875 363.23126 33.809376Q362.09064 34.434376 360.73126 34.434376Q358.54376 34.434376 357.2 33.04375Q355.8719 31.6375 355.8719 29.0125ZM357.66876 29.0125Q357.66876 31.0125 358.52814 31.996876Q359.40314 32.98125 360.73126 32.98125Q362.04376 32.98125 362.90314 31.996876Q363.77814 30.996876 363.77814 28.95Q363.77814 27.028126 362.90314 26.04375Q362.02814 25.04375 360.73126 25.04375Q359.40314 25.04375 358.52814 26.04375Q357.66876 27.028126 357.66876 29.0125ZM370.8094 30.66875Q370.79376 30.325 370.79376 30.153126Q370.79376 29.10625 371.09064 28.35625Q371.3094 27.79375 371.79376 27.215626Q372.1375 26.79375 373.04376 25.996876Q373.96564 25.184376 374.23126 24.715626Q374.5125 24.23125 374.5125 23.66875Q374.5125 22.6375 373.7 21.871876Q372.90314 21.090626 371.7469 21.090626Q370.6219 21.090626 369.8719 21.79375Q369.1219 22.496876 368.8875 23.98125L367.075 23.7625Q367.325 21.7625 368.52814 20.7Q369.73126 19.6375 371.71564 19.6375Q373.825 19.6375 375.075 20.778126Q376.325 21.91875 376.325 23.54375Q376.325 24.48125 375.8719 25.278126Q375.4344 26.059376 374.15314 27.2Q373.29376 27.965626 373.02814 28.325Q372.77814 28.684376 372.6375 29.153126Q372.5125 29.621876 372.4969 30.66875L370.8094 30.66875ZM370.7 34.2L370.7 32.2L372.7 32.2L372.7 34.2L370.7 34.2Z" fill-rule="nonzero"/></svg>