<svg version="1.1" viewBox="0.0 0.0 490.0 304.0" fill="none" stroke="none" stroke-linecap="square" stroke-miterlimit="10" width="490" height="304" xmlns:xlink="http://www.w3.org/1999/xlink" xmlns="http://www.w3.org/2000/svg"><path fill="#ffffff" d="M0 0L490.0 0L490.0 304.0L0 304.0L0 0Z" fill-rule="nonzero"/><path fill="#4285f4" d="M245.0 49.333332C284.38516 49.333332 319.99765 72.75605 335.59732 108.92013L245.0 148.0Z" fill-rule="nonzero"/><path fill="#ea4335" d="M335.59732 108.92013C346.35645 133.86258 346.35645 162.13742 335.59732 187.07986C324.8382 212.02232 304.27182 231.42569 278.746 240.71634L245.0 148.0Z" fill-rule="nonzero"/><path fill="#34a853" d="M165.85718 89.08035C184.47614 64.07076 213.82076 49.333332 245.0 49.333332L245.0 148.0Z" fill-rule="nonzero"/><path fill="#fbbc04" d="M278.746 240.71634C237.7822 255.62595 191.88898 241.88641 165.85718 206.91965C139.82538 171.95288 139.82538 124.04712 165.85718 89.08035L245.0 148.0Z" fill-rule="nonzero"/><path fill="#000000" d="M266.57397 97.72454L265.3396 97.72454L265.3396 89.88079Q264.9021 90.302666 264.16772 90.740166Q263.44897 91.16204 262.88647 91.365166L262.88647 90.177666Q263.91772 89.69329 264.68335 89.00579Q265.4646 88.31829 265.7771 87.66204L266.57397 87.66204L266.57397 97.72454ZM271.82397 92.28704Q271.05835 92.00579 270.68335 91.490166Q270.32397 90.97454 270.32397 90.240166Q270.32397 89.146416 271.10522 88.41204Q271.9021 87.66204 273.19897 87.66204Q274.51147 87.66204 275.30835 88.427666Q276.12085 89.19329 276.12085 90.28704Q276.12085 90.97454 275.74585 91.490166Q275.38647 92.00579 274.63647 92.28704Q275.55835 92.583916 276.04272 93.25579Q276.5271 93.927666 276.5271 94.865166Q276.5271 96.146416 275.62085 97.021416Q274.7146 97.896416 273.23022 97.896416Q271.74585 97.896416 270.82397 97.021416Q269.91772 96.13079 269.91772 94.81829Q269.91772 93.84954 270.41772 93.19329Q270.91772 92.521416 271.82397 92.28704ZM271.5896 90.208916Q271.5896 90.91204 272.04272 91.365166Q272.49585 91.81829 273.23022 91.81829Q273.94897 91.81829 274.4021 91.38079Q274.85522 90.927666 274.85522 90.271416Q274.85522 89.59954 274.38647 89.146416Q273.91772 88.677666 273.2146 88.677666Q272.51147 88.677666 272.04272 89.13079Q271.5896 89.56829 271.5896 90.208916ZM271.18335 94.833916Q271.18335 95.365166 271.43335 95.865166Q271.68335 96.34954 272.16772 96.615166Q272.66772 96.88079 273.24585 96.88079Q274.12085 96.88079 274.68335 96.31829Q275.26147 95.75579 275.26147 94.88079Q275.26147 93.990166 274.66772 93.41204Q274.0896 92.81829 273.19897 92.81829Q272.32397 92.81829 271.74585 93.396416Q271.18335 93.97454 271.18335 94.833916ZM278.62085 97.72454L278.62085 96.31829L280.0271 96.31829L280.0271 97.72454L278.62085 97.72454ZM281.93335 95.09954L283.23022 94.990166Q283.37085 95.927666 283.88647 96.41204Q284.41772 96.88079 285.1521 96.88079Q286.04272 96.88079 286.6521 96.208916Q287.2771 95.53704 287.2771 94.44329Q287.2771 93.38079 286.68335 92.771416Q286.0896 92.16204 285.13647 92.16204Q284.54272 92.16204 284.05835 92.44329Q283.5896 92.708916 283.30835 93.13079L282.1521 92.990166L283.12085 87.833916L288.10522 87.833916L288.10522 89.021416L284.10522 89.021416L283.57397 91.708916Q284.48022 91.083916 285.4646 91.083916Q286.7771 91.083916 287.66772 91.990166Q288.57397 92.896416 288.57397 94.333916Q288.57397 95.69329 287.79272 96.677666Q286.82397 97.896416 285.1521 97.896416Q283.79272 97.896416 282.91772 97.13079Q282.05835 96.365166 281.93335 95.09954ZM290.16772 90.115166Q290.16772 89.03704 290.69897 88.28704Q291.24585 87.53704 292.2771 87.53704Q293.2146 87.53704 293.82397 88.208916Q294.44897 88.88079 294.44897 90.177666Q294.44897 91.458916 293.82397 92.146416Q293.19897 92.833916 292.29272 92.833916Q291.38647 92.833916 290.7771 92.16204Q290.16772 91.47454 290.16772 90.115166ZM292.30835 88.38079Q291.85522 88.38079 291.54272 88.78704Q291.24585 89.177666 291.24585 90.22454Q291.24585 91.19329 291.54272 91.583916Q291.85522 91.97454 292.30835 91.97454Q292.7771 91.97454 293.07397 91.583916Q293.38647 91.19329 293.38647 90.13079Q293.38647 89.16204 293.07397 88.771416Q292.76147 88.38079 292.30835 88.38079ZM292.30835 98.09954L297.79272 87.53704L298.79272 87.53704L293.3396 98.09954L292.30835 98.09954ZM296.6521 95.365166Q296.6521 94.28704 297.18335 93.552666Q297.73022 92.802666 298.76147 92.802666Q299.69897 92.802666 300.32397 93.47454Q300.94897 94.146416 300.94897 95.44329Q300.94897 96.72454 300.32397 97.41204Q299.69897 98.09954 298.76147 98.09954Q297.85522 98.09954 297.24585 97.427666Q296.6521 96.740166 296.6521 95.365166ZM298.79272 93.646416Q298.32397 93.646416 298.0271 94.052666Q297.73022 94.44329 297.73022 95.490166Q297.73022 96.458916 298.0271 96.84954Q298.3396 97.240166 298.79272 97.240166Q299.26147 97.240166 299.55835 96.84954Q299.87085 96.458916 299.87085 95.396416Q299.87085 94.427666 299.55835 94.03704Q299.26147 93.646416 298.79272 93.646416Z" fill-rule="nonzero"/><path fill="#000000" d="M290.86765 177.1853L290.86765 178.3728L284.24265 178.3728Q284.22702 177.9353 284.38327 177.51343Q284.6489 176.84155 285.19577 176.1853Q285.75827 175.52905 286.80515 174.66968Q288.44577 173.32593 289.00827 172.54468Q289.5864 171.76343 289.5864 171.0603Q289.5864 170.32593 289.05515 169.82593Q288.53952 169.32593 287.7114 169.32593Q286.82077 169.32593 286.2739 169.85718Q285.74265 170.38843 285.74265 171.34155L284.47702 171.20093Q284.60202 169.79468 285.44577 169.0603Q286.30515 168.3103 287.72702 168.3103Q289.18015 168.3103 290.00827 169.10718Q290.85202 169.90405 290.85202 171.09155Q290.85202 171.70093 290.60202 172.27905Q290.36765 172.85718 289.78952 173.4978Q289.22702 174.13843 287.8989 175.26343Q286.78952 176.1853 286.47702 176.52905Q286.16452 176.85718 285.9614 177.1853L290.86765 177.1853ZM292.3989 175.7478L293.69577 175.63843Q293.8364 176.57593 294.35202 177.0603Q294.88327 177.52905 295.61765 177.52905Q296.50827 177.52905 297.11765 176.85718Q297.74265 176.1853 297.74265 175.09155Q297.74265 174.02905 297.1489 173.41968Q296.55515 172.8103 295.60202 172.8103Q295.00827 172.8103 294.5239 173.09155Q294.05515 173.35718 293.7739 173.77905L292.61765 173.63843L293.5864 168.48218L298.57077 168.48218L298.57077 169.66968L294.57077 169.66968L294.03952 172.35718Q294.94577 171.73218 295.93015 171.73218Q297.24265 171.73218 298.13327 172.63843Q299.03952 173.54468 299.03952 174.98218Q299.03952 176.34155 298.25827 177.32593Q297.28952 178.54468 295.61765 178.54468Q294.25827 178.54468 293.38327 177.77905Q292.5239 177.01343 292.3989 175.7478ZM301.0864 178.3728L301.0864 176.96655L302.49265 176.96655L302.49265 178.3728L301.0864 178.3728ZM304.5864 176.0603L305.7739 175.95093Q305.91452 176.77905 306.3364 177.15405Q306.7739 177.52905 307.43015 177.52905Q307.99265 177.52905 308.41452 177.27905Q308.85202 177.01343 309.11765 176.57593Q309.3989 176.13843 309.5864 175.40405Q309.7739 174.66968 309.7739 173.90405Q309.7739 173.82593 309.75827 173.65405Q309.3989 174.2478 308.75827 174.6228Q308.11765 174.98218 307.36765 174.98218Q306.11765 174.98218 305.25827 174.07593Q304.3989 173.16968 304.3989 171.70093Q304.3989 170.16968 305.28952 169.2478Q306.19577 168.3103 307.55515 168.3103Q308.5239 168.3103 309.3364 168.84155Q310.1489 169.35718 310.57077 170.34155Q310.99265 171.3103 310.99265 173.15405Q310.99265 175.07593 310.57077 176.21655Q310.16452 177.35718 309.3364 177.95093Q308.50827 178.54468 307.3989 178.54468Q306.22702 178.54468 305.47702 177.88843Q304.74265 177.23218 304.5864 176.0603ZM309.61765 171.63843Q309.61765 170.57593 309.05515 169.95093Q308.49265 169.32593 307.7114 169.32593Q306.88327 169.32593 306.2739 169.9978Q305.66452 170.66968 305.66452 171.73218Q305.66452 172.6853 306.24265 173.29468Q306.82077 173.88843 307.66452 173.88843Q308.5239 173.88843 309.07077 173.29468Q309.61765 172.6853 309.61765 171.63843ZM312.63327 170.76343Q312.63327 169.6853 313.16452 168.9353Q313.7114 168.1853 314.74265 168.1853Q315.68015 168.1853 316.28952 168.85718Q316.91452 169.52905 316.91452 170.82593Q316.91452 172.10718 316.28952 172.79468Q315.66452 173.48218 314.75827 173.48218Q313.85202 173.48218 313.24265 172.8103Q312.63327 172.1228 312.63327 170.76343ZM314.7739 169.02905Q314.32077 169.02905 314.00827 169.4353Q313.7114 169.82593 313.7114 170.8728Q313.7114 171.84155 314.00827 172.23218Q314.32077 172.6228 314.7739 172.6228Q315.24265 172.6228 315.53952 172.23218Q315.85202 171.84155 315.85202 170.77905Q315.85202 169.8103 315.53952 169.41968Q315.22702 169.02905 314.7739 169.02905ZM314.7739 178.7478L320.25827 168.1853L321.25827 168.1853L315.80515 178.7478L314.7739 178.7478ZM319.11765 176.01343Q319.11765 174.9353 319.6489 174.20093Q320.19577 173.45093 321.22702 173.45093Q322.16452 173.45093 322.78952 174.1228Q323.41452 174.79468 323.41452 176.09155Q323.41452 177.3728 322.78952 178.0603Q322.16452 178.7478 321.22702 178.7478Q320.32077 178.7478 319.7114 178.07593Q319.11765 177.38843 319.11765 176.01343ZM321.25827 174.29468Q320.78952 174.29468 320.49265 174.70093Q320.19577 175.09155 320.19577 176.13843Q320.19577 177.10718 320.49265 177.4978Q320.80515 177.88843 321.25827 177.88843Q321.72702 177.88843 322.0239 177.4978Q322.3364 177.10718 322.3364 176.04468Q322.3364 175.07593 322.0239 174.6853Q321.72702 174.29468 321.25827 174.29468Z" fill-rule="nonzero"/><path fill="#000000" d="M178.21265 191.20528L178.21265 188.79903L173.85327 188.79903L173.85327 187.67403L178.4314 181.18965L179.4314 181.18965L179.4314 187.67403L180.79077 187.67403L180.79077 188.79903L179.4314 188.79903L179.4314 191.20528L178.21265 191.20528ZM178.21265 187.67403L178.21265 183.1584L175.07202 187.67403L178.21265 187.67403ZM182.25952 186.26778Q182.25952 184.48653 182.6189 183.4084Q182.9939 182.31465 183.71265 181.73653Q184.4314 181.14278 185.52515 181.14278Q186.33765 181.14278 186.94702 181.4709Q187.5564 181.79903 187.94702 182.4084Q188.35327 183.01778 188.57202 183.89278Q188.79077 184.76778 188.79077 186.26778Q188.79077 188.0334 188.4314 189.11153Q188.07202 190.18965 187.35327 190.7834Q186.63452 191.37715 185.52515 191.37715Q184.08765 191.37715 183.25952 190.33028Q182.25952 189.08028 182.25952 186.26778ZM183.52515 186.26778Q183.52515 188.73653 184.10327 189.54903Q184.6814 190.36153 185.52515 190.36153Q186.38452 190.36153 186.96265 189.54903Q187.54077 188.7209 187.54077 186.26778Q187.54077 183.7834 186.96265 182.9709Q186.38452 182.1584 185.50952 182.1584Q184.66577 182.1584 184.16577 182.87715Q183.52515 183.79903 183.52515 186.26778ZM190.94702 191.20528L190.94702 189.79903L192.35327 189.79903L192.35327 191.20528L190.94702 191.20528ZM194.33765 182.50215L194.33765 181.31465L200.83765 181.31465L200.83765 182.26778Q199.8689 183.2834 198.9314 184.9709Q197.9939 186.6584 197.47827 188.45528Q197.1189 189.70528 197.00952 191.20528L195.7439 191.20528Q195.75952 190.01778 196.19702 188.3459Q196.65015 186.67403 197.47827 185.12715Q198.32202 183.56465 199.25952 182.50215L194.33765 182.50215ZM202.4939 183.5959Q202.4939 182.51778 203.02515 181.76778Q203.57202 181.01778 204.60327 181.01778Q205.54077 181.01778 206.15015 181.68965Q206.77515 182.36153 206.77515 183.6584Q206.77515 184.93965 206.15015 185.62715Q205.52515 186.31465 204.6189 186.31465Q203.71265 186.31465 203.10327 185.64278Q202.4939 184.95528 202.4939 183.5959ZM204.63452 181.86153Q204.1814 181.86153 203.8689 182.26778Q203.57202 182.6584 203.57202 183.70528Q203.57202 184.67403 203.8689 185.06465Q204.1814 185.45528 204.63452 185.45528Q205.10327 185.45528 205.40015 185.06465Q205.71265 184.67403 205.71265 183.61153Q205.71265 182.64278 205.40015 182.25215Q205.08765 181.86153 204.63452 181.86153ZM204.63452 191.58028L210.1189 181.01778L211.1189 181.01778L205.66577 191.58028L204.63452 191.58028ZM208.97827 188.8459Q208.97827 187.76778 209.50952 187.0334Q210.0564 186.2834 211.08765 186.2834Q212.02515 186.2834 212.65015 186.95528Q213.27515 187.62715 213.27515 188.92403Q213.27515 190.20528 212.65015 190.89278Q212.02515 191.58028 211.08765 191.58028Q210.1814 191.58028 209.57202 190.9084Q208.97827 190.2209 208.97827 188.8459ZM211.1189 187.12715Q210.65015 187.12715 210.35327 187.5334Q210.0564 187.92403 210.0564 188.9709Q210.0564 189.93965 210.35327 190.33028Q210.66577 190.7209 211.1189 190.7209Q211.58765 190.7209 211.88452 190.33028Q212.19702 189.93965 212.19702 188.87715Q212.19702 187.9084 211.88452 187.51778Q211.58765 187.12715 211.1189 187.12715Z" fill-rule="nonzero"/><path fill="#000000" d="M199.91873 92.66769L198.68436 92.66769L198.68436 84.82394Q198.24686 85.24581 197.51248 85.68331Q196.79373 86.10519 196.23123 86.30831L196.23123 85.12081Q197.26248 84.63644 198.0281 83.94894Q198.80936 83.26144 199.12186 82.60519L199.91873 82.60519L199.91873 92.66769ZM207.23123 92.66769L207.23123 90.26144L202.87186 90.26144L202.87186 89.13644L207.44998 82.65206L208.44998 82.65206L208.44998 89.13644L209.80936 89.13644L209.80936 90.26144L208.44998 90.26144L208.44998 92.66769L207.23123 92.66769ZM207.23123 89.13644L207.23123 84.62081L204.0906 89.13644L207.23123 89.13644ZM211.9656 92.66769L211.9656 91.26144L213.37186 91.26144L213.37186 92.66769L211.9656 92.66769ZM217.16873 87.23019Q216.4031 86.94894 216.0281 86.43331Q215.66873 85.91769 215.66873 85.18331Q215.66873 84.08956 216.44998 83.35519Q217.24686 82.60519 218.54373 82.60519Q219.85623 82.60519 220.6531 83.37081Q221.4656 84.13644 221.4656 85.23019Q221.4656 85.91769 221.0906 86.43331Q220.73123 86.94894 219.98123 87.23019Q220.9031 87.52706 221.38748 88.19894Q221.87186 88.87081 221.87186 89.80831Q221.87186 91.08956 220.9656 91.96456Q220.05936 92.83956 218.57498 92.83956Q217.0906 92.83956 216.16873 91.96456Q215.26248 91.07394 215.26248 89.76144Q215.26248 88.79269 215.76248 88.13644Q216.26248 87.46456 217.16873 87.23019ZM216.93436 85.15206Q216.93436 85.85519 217.38748 86.30831Q217.8406 86.76144 218.57498 86.76144Q219.29373 86.76144 219.74686 86.32394Q220.19998 85.87081 220.19998 85.21456Q220.19998 84.54269 219.73123 84.08956Q219.26248 83.62081 218.55936 83.62081Q217.85623 83.62081 217.38748 84.07394Q216.93436 84.51144 216.93436 85.15206ZM216.5281 89.77706Q216.5281 90.30831 216.7781 90.80831Q217.0281 91.29269 217.51248 91.55831Q218.01248 91.82394 218.5906 91.82394Q219.4656 91.82394 220.0281 91.26144Q220.60623 90.69894 220.60623 89.82394Q220.60623 88.93331 220.01248 88.35519Q219.43436 87.76144 218.54373 87.76144Q217.66873 87.76144 217.0906 88.33956Q216.5281 88.91769 216.5281 89.77706ZM223.51248 85.05831Q223.51248 83.98019 224.04373 83.23019Q224.5906 82.48019 225.62186 82.48019Q226.55936 82.48019 227.16873 83.15206Q227.79373 83.82394 227.79373 85.12081Q227.79373 86.40206 227.16873 87.08956Q226.54373 87.77706 225.63748 87.77706Q224.73123 87.77706 224.12186 87.10519Q223.51248 86.41769 223.51248 85.05831ZM225.6531 83.32394Q225.19998 83.32394 224.88748 83.73019Q224.5906 84.12081 224.5906 85.16769Q224.5906 86.13644 224.88748 86.52706Q225.19998 86.91769 225.6531 86.91769Q226.12186 86.91769 226.41873 86.52706Q226.73123 86.13644 226.73123 85.07394Q226.73123 84.10519 226.41873 83.71456Q226.10623 83.32394 225.6531 83.32394ZM225.6531 93.04269L231.13748 82.48019L232.13748 82.48019L226.68436 93.04269L225.6531 93.04269ZM229.99686 90.30831Q229.99686 89.23019 230.5281 88.49581Q231.07498 87.74581 232.10623 87.74581Q233.04373 87.74581 233.66873 88.41769Q234.29373 89.08956 234.29373 90.38644Q234.29373 91.66769 233.66873 92.35519Q233.04373 93.04269 232.10623 93.04269Q231.19998 93.04269 230.5906 92.37081Q229.99686 91.68331 229.99686 90.30831ZM232.13748 88.58956Q231.66873 88.58956 231.37186 88.99581Q231.07498 89.38644 231.07498 90.43331Q231.07498 91.40206 231.37186 91.79269Q231.68436 92.18331 232.13748 92.18331Q232.60623 92.18331 232.9031 91.79269Q233.2156 91.40206 233.2156 90.33956Q233.2156 89.37081 232.9031 88.98019Q232.60623 88.58956 232.13748 88.58956Z" fill-rule="nonzero"/><path fill="#4285f4" d="M77.5 263.8C77.5 267.1137 74.813705 269.8 71.5 269.8C68.186295 269.8 65.5 267.1137 65.5 263.8C65.5 260.4863 68.186295 257.8 71.5 257.8C74.813705 257.8 77.5 260.4863 77.5 263.8Z" fill-rule="nonzero"/><path fill="#1a1a1a" d="M86.4375 267.8L86.4375 259.20624L90.25 259.20624Q91.40625 259.20624 92.0 259.4406Q92.59375 259.675 92.953125 260.26874Q93.3125 260.84686 93.3125 261.55Q93.3125 262.47186 92.71875 263.09686Q92.125 263.72186 90.890625 263.89374Q91.34375 264.1125 91.578125 264.3156Q92.078125 264.76874 92.515625 265.45624L94.015625 267.8L92.578125 267.8L91.453125 266.01874Q90.953125 265.2375 90.625 264.83124Q90.3125 264.425 90.046875 264.26874Q89.796875 264.09686 89.53125 264.01874Q89.34375 263.9875 88.90625 263.9875L87.578125 263.9875L87.578125 267.8L86.4375 267.8ZM87.578125 263.0031L90.03125 263.0031Q90.796875 263.0031 91.234375 262.84686Q91.6875 262.675 91.90625 262.33124Q92.140625 261.97186 92.140625 261.55Q92.140625 260.9406 91.6875 260.55Q91.25 260.15936 90.296875 260.15936L87.578125 260.15936L87.578125 263.0031ZM99.546875 265.8L100.640625 265.925Q100.390625 266.8781 99.6875 267.40936Q98.984375 267.9406 97.90625 267.9406Q96.546875 267.9406 95.734375 267.09686Q94.9375 266.2531 94.9375 264.7375Q94.9375 263.175 95.75 262.3156Q96.5625 261.4406 97.84375 261.4406Q99.09375 261.4406 99.875 262.28436Q100.671875 263.1281 100.671875 264.675Q100.671875 264.76874 100.671875 264.95624L96.03125 264.95624Q96.09375 265.9875 96.609375 266.53436Q97.125 267.0656 97.90625 267.0656Q98.484375 267.0656 98.890625 266.76874Q99.3125 266.45624 99.546875 265.8ZM96.09375 264.09686L99.5625 264.09686Q99.5 263.3 99.171875 262.90936Q98.65625 262.3 97.859375 262.3Q97.125 262.3 96.625 262.78436Q96.140625 263.26874 96.09375 264.09686ZM102.296875 267.8L102.296875 261.58124L103.234375 261.58124L103.234375 262.45624Q103.53125 261.9875 104.015625 261.72186Q104.5 261.4406 105.125 261.4406Q105.8125 261.4406 106.25 261.72186Q106.703125 262.0031 106.875 262.51874Q107.625 261.4406 108.796875 261.4406Q109.734375 261.4406 110.21875 261.95624Q110.71875 262.45624 110.71875 263.53436L110.71875 267.8L109.671875 267.8L109.671875 263.8781Q109.671875 263.2531 109.5625 262.97186Q109.46875 262.6906 109.203125 262.51874Q108.9375 262.34686 108.5625 262.34686Q107.90625 262.34686 107.46875 262.78436Q107.046875 263.22186 107.046875 264.1906L107.046875 267.8L105.984375 267.8L105.984375 263.7531Q105.984375 263.05 105.71875 262.70624Q105.46875 262.34686 104.890625 262.34686Q104.4375 262.34686 104.0625 262.58124Q103.6875 262.8156 103.515625 263.26874Q103.34375 263.72186 103.34375 264.5656L103.34375 267.8L102.296875 267.8ZM112.90625 264.6906Q112.90625 262.95624 113.859375 262.1281Q114.65625 261.4406 115.8125 261.4406Q117.09375 261.4406 117.90625 262.28436Q118.734375 263.1125 118.734375 264.59686Q118.734375 265.8 118.375 266.4875Q118.015625 267.175 117.3125 267.5656Q116.625 267.9406 115.8125 267.9406Q114.515625 267.9406 113.703125 267.1125Q112.90625 266.26874 112.90625 264.6906ZM113.984375 264.6906Q113.984375 265.8781 114.5 266.47186Q115.03125 267.0656 115.8125 267.0656Q116.609375 267.0656 117.125 266.47186Q117.640625 265.8781 117.640625 264.65936Q117.640625 263.5031 117.109375 262.90936Q116.59375 262.3156 115.8125 262.3156Q115.03125 262.3156 114.5 262.90936Q113.984375 263.4875 113.984375 264.6906ZM122.59375 266.8625L122.75 267.78436Q122.296875 267.8781 121.953125 267.8781Q121.375 267.8781 121.0625 267.70624Q120.75 267.51874 120.609375 267.22186Q120.484375 266.925 120.484375 265.97186L120.484375 262.39374L119.71875 262.39374L119.71875 261.58124L120.484375 261.58124L120.484375 260.03436L121.53125 259.40936L121.53125 261.58124L122.59375 261.58124L122.59375 262.39374L121.53125 262.39374L121.53125 266.03436Q121.53125 266.4875 121.578125 266.6125Q121.640625 266.7375 121.765625 266.8156Q121.890625 266.89374 122.125 266.89374Q122.3125 266.89374 122.59375 266.8625ZM122.90625 264.6906Q122.90625 262.95624 123.859375 262.1281Q124.65625 261.4406 125.8125 261.4406Q127.09375 261.4406 127.90625 262.28436Q128.73438 263.1125 128.73438 264.59686Q128.73438 265.8 128.375 266.4875Q128.01562 267.175 127.3125 267.5656Q126.625 267.9406 125.8125 267.9406Q124.515625 267.9406 123.703125 267.1125Q122.90625 266.26874 122.90625 264.6906ZM123.984375 264.6906Q123.984375 265.8781 124.5 266.47186Q125.03125 267.0656 125.8125 267.0656Q126.609375 267.0656 127.125 266.47186Q127.640625 265.8781 127.640625 264.65936Q127.640625 263.5031 127.109375 262.90936Q126.59375 262.3156 125.8125 262.3156Q125.03125 262.3156 124.5 262.90936Q123.984375 263.4875 123.984375 264.6906ZM137.54688 265.8L138.64062 265.925Q138.39062 266.8781 137.6875 267.40936Q136.98438 267.9406 135.90625 267.9406Q134.54688 267.9406 133.73438 267.09686Q132.9375 266.2531 132.9375 264.7375Q132.9375 263.175 133.75 262.3156Q134.5625 261.4406 135.84375 261.4406Q137.09375 261.4406 137.875 262.28436Q138.67188 263.1281 138.67188 264.675Q138.67188 264.76874 138.67188 264.95624L134.03125 264.95624Q134.09375 265.9875 134.60938 266.53436Q135.125 267.0656 135.90625 267.0656Q136.48438 267.0656 136.89062 266.76874Q137.3125 266.45624 137.54688 265.8ZM134.09375 264.09686L137.5625 264.09686Q137.5 263.3 137.17188 262.90936Q136.65625 262.3 135.85938 262.3Q135.125 262.3 134.625 262.78436Q134.14062 263.26874 134.09375 264.09686ZM147.35938 267.03436Q146.76562 267.53436 146.21875 267.7375Q145.6875 267.9406 145.0625 267.9406Q144.03125 267.9406 143.48438 267.4406Q142.9375 266.9406 142.9375 266.15936Q142.9375 265.70624 143.14062 265.33124Q143.34375 264.9406 143.6875 264.72186Q144.03125 264.4875 144.45312 264.3781Q144.75 264.28436 145.39062 264.20624Q146.65625 264.0656 147.26562 263.84686Q147.26562 263.6281 147.26562 263.58124Q147.26562 262.925 146.96875 262.65936Q146.5625 262.3156 145.76562 262.3156Q145.03125 262.3156 144.67188 262.58124Q144.3125 262.83124 144.14062 263.4875L143.10938 263.34686Q143.25 262.6906 143.57812 262.28436Q143.90625 261.8781 144.51562 261.65936Q145.125 261.4406 145.92188 261.4406Q146.71875 261.4406 147.21875 261.6281Q147.71875 261.8156 147.95312 262.09686Q148.1875 262.3781 148.28125 262.8156Q148.32812 263.08124 148.32812 263.78436L148.32812 265.1906Q148.32812 266.65936 148.39062 267.05Q148.46875 267.4406 148.67188 267.8L147.5625 267.8Q147.40625 267.47186 147.35938 267.03436ZM147.26562 264.675Q146.6875 264.90936 145.54688 265.08124Q144.89062 265.175 144.625 265.3Q144.35938 265.40936 144.20312 265.6281Q144.0625 265.84686 144.0625 266.1281Q144.0625 266.55 144.375 266.83124Q144.70312 267.1125 145.3125 267.1125Q145.92188 267.1125 146.39062 266.84686Q146.875 266.58124 147.09375 266.1125Q147.26562 265.7531 147.26562 265.0656L147.26562 264.675ZM149.875 265.9406L150.90625 265.78436Q151.0 266.40936 151.39062 266.7375Q151.79688 267.0656 152.53125 267.0656Q153.25 267.0656 153.59375 266.78436Q153.95312 266.4875 153.95312 266.08124Q153.95312 265.72186 153.64062 265.51874Q153.42188 265.3781 152.5625 265.15936Q151.40625 264.8625 150.95312 264.65936Q150.51562 264.4406 150.28125 264.0656Q150.04688 263.6906 150.04688 263.22186Q150.04688 262.8156 150.23438 262.45624Q150.42188 262.09686 150.75 261.8625Q151.0 261.6906 151.42188 261.5656Q151.84375 261.4406 152.34375 261.4406Q153.0625 261.4406 153.60938 261.65936Q154.17188 261.8625 154.4375 262.22186Q154.70312 262.58124 154.79688 263.175L153.76562 263.3156Q153.70312 262.84686 153.35938 262.58124Q153.03125 262.3 152.40625 262.3Q151.6875 262.3 151.375 262.55Q151.0625 262.78436 151.0625 263.1125Q151.0625 263.3156 151.1875 263.47186Q151.32812 263.64374 151.59375 263.7531Q151.75 263.8156 152.53125 264.01874Q153.65625 264.33124 154.09375 264.51874Q154.53125 264.70624 154.78125 265.0656Q155.03125 265.425 155.03125 265.97186Q155.03125 266.5031 154.71875 266.97186Q154.42188 267.425 153.84375 267.6906Q153.26562 267.9406 152.53125 267.9406Q151.3125 267.9406 150.67188 267.4406Q150.04688 266.925 149.875 265.9406ZM157.29688 260.425L157.29688 259.20624L158.35938 259.20624L158.35938 260.425L157.29688 260.425ZM157.29688 267.8L157.29688 261.58124L158.35938 261.58124L158.35938 267.8L157.29688 267.8ZM160.29688 267.8L160.29688 261.58124L161.23438 261.58124L161.23438 262.45624Q161.92188 261.4406 163.21875 261.4406Q163.78125 261.4406 164.25 261.64374Q164.73438 261.84686 164.96875 262.175Q165.20312 262.5031 165.29688 262.9406Q165.34375 263.2375 165.34375 263.97186L165.34375 267.8L164.29688 267.8L164.29688 264.01874Q164.29688 263.3625 164.17188 263.05Q164.04688 262.7375 163.73438 262.55Q163.42188 262.34686 163.0 262.34686Q162.32812 262.34686 161.82812 262.78436Q161.34375 263.20624 161.34375 264.39374L161.34375 267.8L160.29688 267.8ZM171.35938 265.51874L172.39062 265.65936Q172.21875 266.72186 171.51562 267.33124Q170.8125 267.9406 169.79688 267.9406Q168.51562 267.9406 167.73438 267.1125Q166.96875 266.26874 166.96875 264.70624Q166.96875 263.70624 167.29688 262.95624Q167.64062 262.1906 168.3125 261.8156Q169.0 261.4406 169.8125 261.4406Q170.8125 261.4406 171.45312 261.95624Q172.10938 262.45624 172.29688 263.40936L171.26562 263.5656Q171.125 262.9406 170.75 262.6281Q170.375 262.3 169.84375 262.3Q169.04688 262.3 168.54688 262.8781Q168.04688 263.4406 168.04688 264.675Q168.04688 265.9406 168.53125 266.5031Q169.01562 267.0656 169.78125 267.0656Q170.40625 267.0656 170.8125 266.6906Q171.23438 266.3156 171.35938 265.51874ZM173.28125 267.8L173.28125 261.58124L174.23438 261.58124L174.23438 262.51874Q174.59375 261.8625 174.89062 261.65936Q175.20312 261.4406 175.57812 261.4406Q176.10938 261.4406 176.65625 261.76874L176.29688 262.7531Q175.90625 262.51874 175.53125 262.51874Q175.17188 262.51874 174.89062 262.7375Q174.625 262.9406 174.51562 263.3156Q174.32812 263.8781 174.32812 264.53436L174.32812 267.8L173.28125 267.8ZM176.90625 264.6906Q176.90625 262.95624 177.85938 262.1281Q178.65625 261.4406 179.8125 261.4406Q181.09375 261.4406 181.90625 262.28436Q182.73438 263.1125 182.73438 264.59686Q182.73438 265.8 182.375 266.4875Q182.01562 267.175 181.3125 267.5656Q180.625 267.9406 179.8125 267.9406Q178.51562 267.9406 177.70312 267.1125Q176.90625 266.26874 176.90625 264.6906ZM177.98438 264.6906Q177.98438 265.8781 178.5 266.47186Q179.03125 267.0656 179.8125 267.0656Q180.60938 267.0656 181.125 266.47186Q181.64062 265.8781 181.64062 264.65936Q181.64062 263.5031 181.10938 262.90936Q180.59375 262.3156 179.8125 262.3156Q179.03125 262.3156 178.5 262.90936Q177.98438 263.4875 177.98438 264.6906ZM184.29688 267.8L184.29688 261.58124L185.23438 261.58124L185.23438 262.45624Q185.92188 261.4406 187.21875 261.4406Q187.78125 261.4406 188.25 261.64374Q188.73438 261.84686 188.96875 262.175Q189.20312 262.5031 189.29688 262.9406Q189.34375 263.2375 189.34375 263.97186L189.34375 267.8L188.29688 267.8L188.29688 264.01874Q188.29688 263.3625 188.17188 263.05Q188.04688 262.7375 187.73438 262.55Q187.42188 262.34686 187.0 262.34686Q186.32812 262.34686 185.82812 262.78436Q185.34375 263.20624 185.34375 264.39374L185.34375 267.8L184.29688 267.8ZM190.90625 264.6906Q190.90625 262.95624 191.85938 262.1281Q192.65625 261.4406 193.8125 261.4406Q195.09375 261.4406 195.90625 262.28436Q196.73438 263.1125 196.73438 264.59686Q196.73438 265.8 196.375 266.4875Q196.01562 267.175 195.3125 267.5656Q194.625 267.9406 193.8125 267.9406Q192.51562 267.9406 191.70312 267.1125Q190.90625 266.26874 190.90625 264.6906ZM191.98438 264.6906Q191.98438 265.8781 192.5 266.47186Q193.03125 267.0656 193.8125 267.0656Q194.60938 267.0656 195.125 266.47186Q195.64062 265.8781 195.64062 264.65936Q195.64062 263.5031 195.10938 262.90936Q194.59375 262.3156 193.8125 262.3156Q193.03125 262.3156 192.5 262.90936Q191.98438 263.4875 191.98438 264.6906ZM205.35938 265.51874L206.39062 265.65936Q206.21875 266.72186 205.51562 267.33124Q204.8125 267.9406 203.79688 267.9406Q202.51562 267.9406 201.73438 267.1125Q200.96875 266.26874 200.96875 264.70624Q200.96875 263.70624 201.29688 262.95624Q201.64062 262.1906 202.3125 261.8156Q203.0 261.4406 203.8125 261.4406Q204.8125 261.4406 205.45312 261.95624Q206.10938 262.45624 206.29688 263.40936L205.26562 263.5656Q205.125 262.9406 204.75 262.6281Q204.375 262.3 203.84375 262.3Q203.04688 262.3 202.54688 262.8781Q202.04688 263.4406 202.04688 264.675Q202.04688 265.9406 202.53125 266.5031Q203.01562 267.0656 203.78125 267.0656Q204.40625 267.0656 204.8125 266.6906Q205.23438 266.3156 205.35938 265.51874ZM206.90625 264.6906Q206.90625 262.95624 207.85938 262.1281Q208.65625 261.4406 209.8125 261.4406Q211.09375 261.4406 211.90625 262.28436Q212.73438 263.1125 212.73438 264.59686Q212.73438 265.8 212.375 266.4875Q212.01562 267.175 211.3125 267.5656Q210.625 267.9406 209.8125 267.9406Q208.51562 267.9406 207.70312 267.1125Q206.90625 266.26874 206.90625 264.6906ZM207.98438 264.6906Q207.98438 265.8781 208.5 266.47186Q209.03125 267.0656 209.8125 267.0656Q210.60938 267.0656 211.125 266.47186Q211.64062 265.8781 211.64062 264.65936Q211.64062 263.5031 211.10938 262.90936Q210.59375 262.3156 209.8125 262.3156Q209.03125 262.3156 208.5 262.90936Q207.98438 263.4875 207.98438 264.6906ZM214.29688 267.8L214.29688 261.58124L215.23438 261.58124L215.23438 262.45624Q215.92188 261.4406 217.21875 261.4406Q217.78125 261.4406 218.25 261.64374Q218.73438 261.84686 218.96875 262.175Q219.20312 262.5031 219.29688 262.9406Q219.34375 263.2375 219.34375 263.97186L219.34375 267.8L218.29688 267.8L218.29688 264.01874Q218.29688 263.3625 218.17188 263.05Q218.04688 262.7375 217.73438 262.55Q217.42188 262.34686 217.0 262.34686Q216.32812 262.34686 215.82812 262.78436Q215.34375 263.20624 215.34375 264.39374L215.34375 267.8L214.29688 267.8ZM224.26562 267.8L224.26562 259.20624L225.32812 259.20624L225.32812 267.8L224.26562 267.8ZM231.54688 265.8L232.64062 265.925Q232.39062 266.8781 231.6875 267.40936Q230.98438 267.9406 229.90625 267.9406Q228.54688 267.9406 227.73438 267.09686Q226.9375 266.2531 226.9375 264.7375Q226.9375 263.175 227.75 262.3156Q228.5625 261.4406 229.84375 261.4406Q231.09375 261.4406 231.875 262.28436Q232.67188 263.1281 232.67188 264.675Q232.67188 264.76874 232.67188 264.95624L228.03125 264.95624Q228.09375 265.9875 228.60938 266.53436Q229.125 267.0656 229.90625 267.0656Q230.48438 267.0656 230.89062 266.76874Q231.3125 266.45624 231.54688 265.8ZM228.09375 264.09686L231.5625 264.09686Q231.5 263.3 231.17188 262.90936Q230.65625 262.3 229.85938 262.3Q229.125 262.3 228.625 262.78436Q228.14062 263.26874 228.09375 264.09686ZM237.26562 267.8L237.26562 259.20624L238.32812 259.20624L238.32812 267.8L237.26562 267.8ZM244.54688 265.8L245.64062 265.925Q245.39062 266.8781 244.6875 267.40936Q243.98438 267.9406 242.90625 267.9406Q241.54688 267.9406 240.73438 267.09686Q239.9375 266.2531 239.9375 264.7375Q239.9375 263.175 240.75 262.3156Q241.5625 261.4406 242.84375 261.4406Q244.09375 261.4406 244.875 262.28436Q245.67188 263.1281 245.67188 264.675Q245.67188 264.76874 245.67188 264.95624L241.03125 264.95624Q241.09375 265.9875 241.60938 266.53436Q242.125 267.0656 242.90625 267.0656Q243.48438 267.0656 243.89062 266.76874Q244.3125 266.45624 244.54688 265.8ZM241.09375 264.09686L244.5625 264.09686Q244.5 263.3 244.17188 262.90936Q243.65625 262.3 242.85938 262.3Q242.125 262.3 241.625 262.78436Q241.14062 263.26874 241.09375 264.09686ZM246.73438 267.8L246.73438 266.9406L250.70312 262.39374Q250.01562 262.425 249.5 262.425L246.96875 262.425L246.96875 261.58124L252.0625 261.58124L252.0625 262.26874L248.6875 266.22186L248.03125 266.9406Q248.75 266.89374 249.35938 266.89374L252.25 266.89374L252.25 267.8L246.73438 267.8ZM252.29688 260.425L252.29688 259.20624L253.35938 259.20624L253.35938 260.425L252.29688 260.425ZM252.29688 267.8L252.29688 261.58124L253.35938 261.58124L253.35938 267.8L252.29688 267.8ZM254.90625 264.6906Q254.90625 262.95624 255.85938 262.1281Q256.65625 261.4406 257.8125 261.4406Q259.09375 261.4406 259.90625 262.28436Q260.73438 263.1125 260.73438 264.59686Q260.73438 265.8 260.375 266.4875Q260.01562 267.175 259.3125 267.5656Q258.625 267.9406 257.8125 267.9406Q256.51562 267.9406 255.70312 267.1125Q254.90625 266.26874 254.90625 264.6906ZM255.98438 264.6906Q255.98438 265.8781 256.5 266.47186Q257.03125 267.0656 257.8125 267.0656Q258.60938 267.0656 259.125 266.47186Q259.64062 265.8781 259.64062 264.65936Q259.64062 263.5031 259.10938 262.90936Q258.59375 262.3156 257.8125 262.3156Q257.03125 262.3156 256.5 262.90936Q255.98438 263.4875 255.98438 264.6906ZM262.29688 267.8L262.29688 261.58124L263.23438 261.58124L263.23438 262.45624Q263.92188 261.4406 265.21875 261.4406Q265.78125 261.4406 266.25 261.64374Q266.73438 261.84686 266.96875 262.175Q267.20312 262.5031 267.29688 262.9406Q267.34375 263.2375 267.34375 263.97186L267.34375 267.8L266.29688 267.8L266.29688 264.01874Q266.29688 263.3625 266.17188 263.05Q266.04688 262.7375 265.73438 262.55Q265.42188 262.34686 265.0 262.34686Q264.32812 262.34686 263.82812 262.78436Q263.34375 263.20624 263.34375 264.39374L263.34375 267.8L262.29688 267.8ZM269.29688 260.425L269.29688 259.20624L270.35938 259.20624L270.35938 260.425L269.29688 260.425ZM269.29688 267.8L269.29688 261.58124L270.35938 261.58124L270.35938 267.8L269.29688 267.8Z" fill-rule="nonzero"/><path fill="#ea4335" d="M299.5 263.8C299.5 267.1137 296.81372 269.8 293.5 269.8C290.18628 269.8 287.5 267.1137 287.5 263.8C287.5 260.4863 290.18628 257.8 293.5 257.8C296.81372 257.8 299.5 260.4863 299.5 263.8Z" fill-rule="nonzero"/><path fill="#1a1a1a" d="M308.39062 267.8L308.39062 259.20624L310.10938 259.20624L312.14062 265.28436Q312.42188 266.14374 312.54688 266.5656Q312.6875 266.09686 313.0 265.1906L315.0625 259.20624L316.59375 259.20624L316.59375 267.8L315.5 267.8L315.5 260.6125L313.0 267.8L311.96875 267.8L309.48438 260.4875L309.48438 267.8L308.39062 267.8ZM317.29688 260.425L317.29688 259.20624L318.35938 259.20624L318.35938 260.425L317.29688 260.425ZM317.29688 267.8L317.29688 261.58124L318.35938 261.58124L318.35938 267.8L317.29688 267.8ZM319.875 265.9406L320.90625 265.78436Q321.0 266.40936 321.39062 266.7375Q321.79688 267.0656 322.53125 267.0656Q323.25 267.0656 323.59375 266.78436Q323.95312 266.4875 323.95312 266.08124Q323.95312 265.72186 323.64062 265.51874Q323.42188 265.3781 322.5625 265.15936Q321.40625 264.8625 320.95312 264.65936Q320.51562 264.4406 320.28125 264.0656Q320.04688 263.6906 320.04688 263.22186Q320.04688 262.8156 320.23438 262.45624Q320.42188 262.09686 320.75 261.8625Q321.0 261.6906 321.42188 261.5656Q321.84375 261.4406 322.34375 261.4406Q323.0625 261.4406 323.60938 261.65936Q324.17188 261.8625 324.4375 262.22186Q324.70312 262.58124 324.79688 263.175L323.76562 263.3156Q323.70312 262.84686 323.35938 262.58124Q323.03125 262.3 322.40625 262.3Q321.6875 262.3 321.375 262.55Q321.0625 262.78436 321.0625 263.1125Q321.0625 263.3156 321.1875 263.47186Q321.32812 263.64374 321.59375 263.7531Q321.75 263.8156 322.53125 264.01874Q323.65625 264.33124 324.09375 264.51874Q324.53125 264.70624 324.78125 265.0656Q325.03125 265.425 325.03125 265.97186Q325.03125 266.5031 324.71875 266.97186Q324.42188 267.425 323.84375 267.6906Q323.26562 267.9406 322.53125 267.9406Q321.3125 267.9406 320.67188 267.4406Q320.04688 266.925 319.875 265.9406ZM329.59375 266.8625L329.75 267.78436Q329.29688 267.8781 328.95312 267.8781Q328.375 267.8781 328.0625 267.70624Q327.75 267.51874 327.60938 267.22186Q327.48438 266.925 327.48438 265.97186L327.48438 262.39374L326.71875 262.39374L326.71875 261.58124L327.48438 261.58124L327.48438 260.03436L328.53125 259.40936L328.53125 261.58124L329.59375 261.58124L329.59375 262.39374L328.53125 262.39374L328.53125 266.03436Q328.53125 266.4875 328.57812 266.6125Q328.64062 266.7375 328.76562 266.8156Q328.89062 266.89374 329.125 266.89374Q329.3125 266.89374 329.59375 266.8625ZM334.35938 267.03436Q333.76562 267.53436 333.21875 267.7375Q332.6875 267.9406 332.0625 267.9406Q331.03125 267.9406 330.48438 267.4406Q329.9375 266.9406 329.9375 266.15936Q329.9375 265.70624 330.14062 265.33124Q330.34375 264.9406 330.6875 264.72186Q331.03125 264.4875 331.45312 264.3781Q331.75 264.28436 332.39062 264.20624Q333.65625 264.0656 334.26562 263.84686Q334.26562 263.6281 334.26562 263.58124Q334.26562 262.925 333.96875 262.65936Q333.5625 262.3156 332.76562 262.3156Q332.03125 262.3156 331.67188 262.58124Q331.3125 262.83124 331.14062 263.4875L330.10938 263.34686Q330.25 262.6906 330.57812 262.28436Q330.90625 261.8781 331.51562 261.65936Q332.125 261.4406 332.92188 261.4406Q333.71875 261.4406 334.21875 261.6281Q334.71875 261.8156 334.95312 262.09686Q335.1875 262.3781 335.28125 262.8156Q335.32812 263.08124 335.32812 263.78436L335.32812 265.1906Q335.32812 266.65936 335.39062 267.05Q335.46875 267.4406 335.67188 267.8L334.5625 267.8Q334.40625 267.47186 334.35938 267.03436ZM334.26562 264.675Q333.6875 264.90936 332.54688 265.08124Q331.89062 265.175 331.625 265.3Q331.35938 265.40936 331.20312 265.6281Q331.0625 265.84686 331.0625 266.1281Q331.0625 266.55 331.375 266.83124Q331.70312 267.1125 332.3125 267.1125Q332.92188 267.1125 333.39062 266.84686Q333.875 266.58124 334.09375 266.1125Q334.26562 265.7531 334.26562 265.0656L334.26562 264.675Z" fill-rule="nonzero"/><path fill="#fbbc04" d="M364.5 263.8C364.5 267.1137 361.81372 269.8 358.5 269.8C355.18628 269.8 352.5 267.1137 352.5 263.8C352.5 260.4863 355.18628 257.8 358.5 257.8C361.81372 257.8 364.5 260.4863 364.5 263.8Z" fill-rule="nonzero"/><path fill="#1a1a1a" d="M373.42188 267.8L373.42188 259.20624L376.67188 259.20624Q377.51562 259.20624 377.96875 259.28436Q378.60938 259.39374 379.03125 259.6906Q379.46875 259.9875 379.71875 260.51874Q379.98438 261.05 379.98438 261.6906Q379.98438 262.78436 379.28125 263.55Q378.59375 264.3 376.76562 264.3L374.5625 264.3L374.5625 267.8L373.42188 267.8ZM374.5625 263.3L376.78125 263.3Q377.89062 263.3 378.34375 262.89374Q378.8125 262.47186 378.8125 261.72186Q378.8125 261.1906 378.53125 260.8156Q378.26562 260.425 377.82812 260.3Q377.53125 260.22186 376.76562 260.22186L374.5625 260.22186L374.5625 263.3ZM381.28125 267.8L381.28125 261.58124L382.23438 261.58124L382.23438 262.51874Q382.59375 261.8625 382.89062 261.65936Q383.20312 261.4406 383.57812 261.4406Q384.10938 261.4406 384.65625 261.76874L384.29688 262.7531Q383.90625 262.51874 383.53125 262.51874Q383.17188 262.51874 382.89062 262.7375Q382.625 262.9406 382.51562 263.3156Q382.32812 263.8781 382.32812 264.53436L382.32812 267.8L381.28125 267.8ZM389.54688 265.8L390.64062 265.925Q390.39062 266.8781 389.6875 267.40936Q388.98438 267.9406 387.90625 267.9406Q386.54688 267.9406 385.73438 267.09686Q384.9375 266.2531 384.9375 264.7375Q384.9375 263.175 385.75 262.3156Q386.5625 261.4406 387.84375 261.4406Q389.09375 261.4406 389.875 262.28436Q390.67188 263.1281 390.67188 264.675Q390.67188 264.76874 390.67188 264.95624L386.03125 264.95624Q386.09375 265.9875 386.60938 266.53436Q387.125 267.0656 387.90625 267.0656Q388.48438 267.0656 388.89062 266.76874Q389.3125 266.45624 389.54688 265.8ZM386.09375 264.09686L389.5625 264.09686Q389.5 263.3 389.17188 262.90936Q388.65625 262.3 387.85938 262.3Q387.125 262.3 386.625 262.78436Q386.14062 263.26874 386.09375 264.09686ZM391.875 265.9406L392.90625 265.78436Q393.0 266.40936 393.39062 266.7375Q393.79688 267.0656 394.53125 267.0656Q395.25 267.0656 395.59375 266.78436Q395.95312 266.4875 395.95312 266.08124Q395.95312 265.72186 395.64062 265.51874Q395.42188 265.3781 394.5625 265.15936Q393.40625 264.8625 392.95312 264.65936Q392.51562 264.4406 392.28125 264.0656Q392.04688 263.6906 392.04688 263.22186Q392.04688 262.8156 392.23438 262.45624Q392.42188 262.09686 392.75 261.8625Q393.0 261.6906 393.42188 261.5656Q393.84375 261.4406 394.34375 261.4406Q395.0625 261.4406 395.60938 261.65936Q396.17188 261.8625 396.4375 262.22186Q396.70312 262.58124 396.79688 263.175L395.76562 263.3156Q395.70312 262.84686 395.35938 262.58124Q395.03125 262.3 394.40625 262.3Q393.6875 262.3 393.375 262.55Q393.0625 262.78436 393.0625 263.1125Q393.0625 263.3156 393.1875 263.47186Q393.32812 263.64374 393.59375 263.7531Q393.75 263.8156 394.53125 264.01874Q395.65625 264.33124 396.09375 264.51874Q396.53125 264.70624 396.78125 265.0656Q397.03125 265.425 397.03125 265.97186Q397.03125 266.5031 396.71875 266.97186Q396.42188 267.425 395.84375 267.6906Q395.26562 267.9406 394.53125 267.9406Q393.3125 267.9406 392.67188 267.4406Q392.04688 266.925 391.875 265.9406ZM403.54688 265.8L404.64062 265.925Q404.39062 266.8781 403.6875 267.40936Q402.98438 267.9406 401.90625 267.9406Q400.54688 267.9406 399.73438 267.09686Q398.9375 266.2531 398.9375 264.7375Q398.9375 263.175 399.75 262.3156Q400.5625 261.4406 401.84375 261.4406Q403.09375 261.4406 403.875 262.28436Q404.67188 263.1281 404.67188 264.675Q404.67188 264.76874 404.67188 264.95624L400.03125 264.95624Q400.09375 265.9875 400.60938 266.53436Q401.125 267.0656 401.90625 267.0656Q402.48438 267.0656 402.89062 266.76874Q403.3125 266.45624 403.54688 265.8ZM400.09375 264.09686L403.5625 264.09686Q403.5 263.3 403.17188 262.90936Q402.65625 262.3 401.85938 262.3Q401.125 262.3 400.625 262.78436Q400.14062 263.26874 400.09375 264.09686ZM406.29688 267.8L406.29688 261.58124L407.23438 261.58124L407.23438 262.45624Q407.92188 261.4406 409.21875 261.4406Q409.78125 261.4406 410.25 261.64374Q410.73438 261.84686 410.96875 262.175Q411.20312 262.5031 411.29688 262.9406Q411.34375 263.2375 411.34375 263.97186L411.34375 267.8L410.29688 267.8L410.29688 264.01874Q410.29688 263.3625 410.17188 263.05Q410.04688 262.7375 409.73438 262.55Q409.42188 262.34686 409.0 262.34686Q408.32812 262.34686 407.82812 262.78436Q407.34375 263.20624 407.34375 264.39374L407.34375 267.8L406.29688 267.8ZM412.73438 267.8L412.73438 266.9406L416.70312 262.39374Q416.01562 262.425 415.5 262.425L412.96875 262.425L412.96875 261.58124L418.0625 261.58124L418.0625 262.26874L414.6875 266.22186L414.03125 266.9406Q414.75 266.89374 415.35938 266.89374L418.25 266.89374L418.25 267.8L412.73438 267.8ZM422.35938 267.03436Q421.76562 267.53436 421.21875 267.7375Q420.6875 267.9406 420.0625 267.9406Q419.03125 267.9406 418.48438 267.4406Q417.9375 266.9406 417.9375 266.15936Q417.9375 265.70624 418.14062 265.33124Q418.34375 264.9406 418.6875 264.72186Q419.03125 264.4875 419.45312 264.3781Q419.75 264.28436 420.39062 264.20624Q421.65625 264.0656 422.26562 263.84686Q422.26562 263.6281 422.26562 263.58124Q422.26562 262.925 421.96875 262.65936Q421.5625 262.3156 420.76562 262.3156Q420.03125 262.3156 419.67188 262.58124Q419.3125 262.83124 419.14062 263.4875L418.10938 263.34686Q418.25 262.6906 418.57812 262.28436Q418.90625 261.8781 419.51562 261.65936Q420.125 261.4406 420.92188 261.4406Q421.71875 261.4406 422.21875 261.6281Q422.71875 261.8156 422.95312 262.09686Q423.1875 262.3781 423.28125 262.8156Q423.32812 263.08124 423.32812 263.78436L423.32812 265.1906Q423.32812 266.65936 423.39062 267.05Q423.46875 267.4406 423.67188 267.8L422.5625 267.8Q422.40625 267.47186 422.35938 267.03436ZM422.26562 264.675Q421.6875 264.90936 420.54688 265.08124Q419.89062 265.175 419.625 265.3Q419.35938 265.40936 419.20312 265.6281Q419.0625 265.84686 419.0625 266.1281Q419.0625 266.55 419.375 266.83124Q419.70312 267.1125 420.3125 267.1125Q420.92188 267.1125 421.39062 266.84686Q421.875 266.58124 422.09375 266.1125Q422.26562 265.7531 422.26562 265.0656L422.26562 264.675Z" fill-rule="nonzero"/><path fill="#34a853" d="M157.5 281.8C157.5 285.1137 154.8137 287.8 151.5 287.8C148.1863 287.8 145.5 285.1137 145.5 281.8C145.5 278.4863 148.1863 275.8 151.5 275.8C154.8137 275.8 157.5 278.4863 157.5 281.8Z" fill-rule="nonzero"/><path fill="#1a1a1a" d="M166.4375 285.8L166.4375 277.20624L170.25 277.20624Q171.40625 277.20624 172.0 277.4406Q172.59375 277.675 172.95312 278.26874Q173.3125 278.84686 173.3125 279.55Q173.3125 280.47186 172.71875 281.09686Q172.125 281.72186 170.89062 281.89374Q171.34375 282.1125 171.57812 282.3156Q172.07812 282.76874 172.51562 283.45624L174.01562 285.8L172.57812 285.8L171.45312 284.01874Q170.95312 283.2375 170.625 282.83124Q170.3125 282.425 170.04688 282.26874Q169.79688 282.09686 169.53125 282.01874Q169.34375 281.9875 168.90625 281.9875L167.57812 281.9875L167.57812 285.8L166.4375 285.8ZM167.57812 281.0031L170.03125 281.0031Q170.79688 281.0031 171.23438 280.84686Q171.6875 280.675 171.90625 280.33124Q172.14062 279.97186 172.14062 279.55Q172.14062 278.9406 171.6875 278.55Q171.25 278.15936 170.29688 278.15936L167.57812 278.15936L167.57812 281.0031ZM179.54688 283.8L180.64062 283.925Q180.39062 284.8781 179.6875 285.40936Q178.98438 285.9406 177.90625 285.9406Q176.54688 285.9406 175.73438 285.09686Q174.9375 284.2531 174.9375 282.7375Q174.9375 281.175 175.75 280.3156Q176.5625 279.4406 177.84375 279.4406Q179.09375 279.4406 179.875 280.28436Q180.67188 281.1281 180.67188 282.675Q180.67188 282.76874 180.67188 282.95624L176.03125 282.95624Q176.09375 283.9875 176.60938 284.53436Q177.125 285.0656 177.90625 285.0656Q178.48438 285.0656 178.89062 284.76874Q179.3125 284.45624 179.54688 283.8ZM176.09375 282.09686L179.5625 282.09686Q179.5 281.3 179.17188 280.90936Q178.65625 280.3 177.85938 280.3Q177.125 280.3 176.625 280.78436Q176.14062 281.26874 176.09375 282.09686ZM182.29688 285.8L182.29688 279.58124L183.23438 279.58124L183.23438 280.45624Q183.53125 279.9875 184.01562 279.72186Q184.5 279.4406 185.125 279.4406Q185.8125 279.4406 186.25 279.72186Q186.70312 280.0031 186.875 280.51874Q187.625 279.4406 188.79688 279.4406Q189.73438 279.4406 190.21875 279.95624Q190.71875 280.45624 190.71875 281.53436L190.71875 285.8L189.67188 285.8L189.67188 281.8781Q189.67188 281.2531 189.5625 280.97186Q189.46875 280.6906 189.20312 280.51874Q188.9375 280.34686 188.5625 280.34686Q187.90625 280.34686 187.46875 280.78436Q187.04688 281.22186 187.04688 282.1906L187.04688 285.8L185.98438 285.8L185.98438 281.7531Q185.98438 281.05 185.71875 280.70624Q185.46875 280.34686 184.89062 280.34686Q184.4375 280.34686 184.0625 280.58124Q183.6875 280.8156 183.51562 281.26874Q183.34375 281.72186 183.34375 282.5656L183.34375 285.8L182.29688 285.8ZM192.90625 282.6906Q192.90625 280.95624 193.85938 280.1281Q194.65625 279.4406 195.8125 279.4406Q197.09375 279.4406 197.90625 280.28436Q198.73438 281.1125 198.73438 282.59686Q198.73438 283.8 198.375 284.4875Q198.01562 285.175 197.3125 285.5656Q196.625 285.9406 195.8125 285.9406Q194.51562 285.9406 193.70312 285.1125Q192.90625 284.26874 192.90625 282.6906ZM193.98438 282.6906Q193.98438 283.8781 194.5 284.47186Q195.03125 285.0656 195.8125 285.0656Q196.60938 285.0656 197.125 284.47186Q197.64062 283.8781 197.64062 282.65936Q197.64062 281.5031 197.10938 280.90936Q196.59375 280.3156 195.8125 280.3156Q195.03125 280.3156 194.5 280.90936Q193.98438 281.4875 193.98438 282.6906ZM202.59375 284.8625L202.75 285.78436Q202.29688 285.8781 201.95312 285.8781Q201.375 285.8781 201.0625 285.70624Q200.75 285.51874 200.60938 285.22186Q200.48438 284.925 200.48438 283.97186L200.48438 280.39374L199.71875 280.39374L199.71875 279.58124L200.48438 279.58124L200.48438 278.03436L201.53125 277.40936L201.53125 279.58124L202.59375 279.58124L202.59375 280.39374L201.53125 280.39374L201.53125 284.03436Q201.53125 284.4875 201.57812 284.6125Q201.64062 284.7375 201.76562 284.8156Q201.89062 284.89374 202.125 284.89374Q202.3125 284.89374 202.59375 284.8625ZM202.90625 282.6906Q202.90625 280.95624 203.85938 280.1281Q204.65625 279.4406 205.8125 279.4406Q207.09375 279.4406 207.90625 280.28436Q208.73438 281.1125 208.73438 282.59686Q208.73438 283.8 208.375 284.4875Q208.01562 285.175 207.3125 285.5656Q206.625 285.9406 205.8125 285.9406Q204.51562 285.9406 203.70312 285.1125Q202.90625 284.26874 202.90625 282.6906ZM203.98438 282.6906Q203.98438 283.8781 204.5 284.47186Q205.03125 285.0656 205.8125 285.0656Q206.60938 285.0656 207.125 284.47186Q207.64062 283.8781 207.64062 282.65936Q207.64062 281.5031 207.10938 280.90936Q206.59375 280.3156 205.8125 280.3156Q205.03125 280.3156 204.5 280.90936Q203.98438 281.4875 203.98438 282.6906ZM217.54688 283.8L218.64062 283.925Q218.39062 284.8781 217.6875 285.40936Q216.98438 285.9406 215.90625 285.9406Q214.54688 285.9406 213.73438 285.09686Q212.9375 284.2531 212.9375 282.7375Q212.9375 281.175 213.75 280.3156Q214.5625 279.4406 215.84375 279.4406Q217.09375 279.4406 217.875 280.28436Q218.67188 281.1281 218.67188 282.675Q218.67188 282.76874 218.67188 282.95624L214.03125 282.95624Q214.09375 283.9875 214.60938 284.53436Q215.125 285.0656 215.90625 285.0656Q216.48438 285.0656 216.89062 284.76874Q217.3125 284.45624 217.54688 283.8ZM214.09375 282.09686L217.5625 282.09686Q217.5 281.3 217.17188 280.90936Q216.65625 280.3 215.85938 280.3Q215.125 280.3 214.625 280.78436Q214.14062 281.26874 214.09375 282.09686ZM222.875 283.9406L223.90625 283.78436Q224.0 284.40936 224.39062 284.7375Q224.79688 285.0656 225.53125 285.0656Q226.25 285.0656 226.59375 284.78436Q226.95312 284.4875 226.95312 284.08124Q226.95312 283.72186 226.64062 283.51874Q226.42188 283.3781 225.5625 283.15936Q224.40625 282.8625 223.95312 282.65936Q223.51562 282.4406 223.28125 282.0656Q223.04688 281.6906 223.04688 281.22186Q223.04688 280.8156 223.23438 280.45624Q223.42188 280.09686 223.75 279.8625Q224.0 279.6906 224.42188 279.5656Q224.84375 279.4406 225.34375 279.4406Q226.0625 279.4406 226.60938 279.65936Q227.17188 279.8625 227.4375 280.22186Q227.70312 280.58124 227.79688 281.175L226.76562 281.3156Q226.70312 280.84686 226.35938 280.58124Q226.03125 280.3 225.40625 280.3Q224.6875 280.3 224.375 280.55Q224.0625 280.78436 224.0625 281.1125Q224.0625 281.3156 224.1875 281.47186Q224.32812 281.64374 224.59375 281.7531Q224.75 281.8156 225.53125 282.01874Q226.65625 282.33124 227.09375 282.51874Q227.53125 282.70624 227.78125 283.0656Q228.03125 283.425 228.03125 283.97186Q228.03125 284.5031 227.71875 284.97186Q227.42188 285.425 226.84375 285.6906Q226.26562 285.9406 225.53125 285.9406Q224.3125 285.9406 223.67188 285.4406Q223.04688 284.925 222.875 283.9406ZM230.29688 278.425L230.29688 277.20624L231.35938 277.20624L231.35938 278.425L230.29688 278.425ZM230.29688 285.8L230.29688 279.58124L231.35938 279.58124L231.35938 285.8L230.29688 285.8ZM233.29688 285.8L233.29688 279.58124L234.23438 279.58124L234.23438 280.45624Q234.92188 279.4406 236.21875 279.4406Q236.78125 279.4406 237.25 279.64374Q237.73438 279.84686 237.96875 280.175Q238.20312 280.5031 238.29688 280.9406Q238.34375 281.2375 238.34375 281.97186L238.34375 285.8L237.29688 285.8L237.29688 282.01874Q237.29688 281.3625 237.17188 281.05Q237.04688 280.7375 236.73438 280.55Q236.42188 280.34686 236.0 280.34686Q235.32812 280.34686 234.82812 280.78436Q234.34375 281.20624 234.34375 282.39374L234.34375 285.8L233.29688 285.8ZM244.35938 283.51874L245.39062 283.65936Q245.21875 284.72186 244.51562 285.33124Q243.8125 285.9406 242.79688 285.9406Q241.51562 285.9406 240.73438 285.1125Q239.96875 284.26874 239.96875 282.70624Q239.96875 281.70624 240.29688 280.95624Q240.64062 280.1906 241.3125 279.8156Q242.0 279.4406 242.8125 279.4406Q243.8125 279.4406 244.45312 279.95624Q245.10938 280.45624 245.29688 281.40936L244.26562 281.5656Q244.125 280.9406 243.75 280.6281Q243.375 280.3 242.84375 280.3Q242.04688 280.3 241.54688 280.8781Q241.04688 281.4406 241.04688 282.675Q241.04688 283.9406 241.53125 284.5031Q242.01562 285.0656 242.78125 285.0656Q243.40625 285.0656 243.8125 284.6906Q244.23438 284.3156 244.35938 283.51874ZM246.28125 285.8L246.28125 279.58124L247.23438 279.58124L247.23438 280.51874Q247.59375 279.8625 247.89062 279.65936Q248.20312 279.4406 248.57812 279.4406Q249.10938 279.4406 249.65625 279.76874L249.29688 280.7531Q248.90625 280.51874 248.53125 280.51874Q248.17188 280.51874 247.89062 280.7375Q247.625 280.9406 247.51562 281.3156Q247.32812 281.8781 247.32812 282.53436L247.32812 285.8L246.28125 285.8ZM249.90625 282.6906Q249.90625 280.95624 250.85938 280.1281Q251.65625 279.4406 252.8125 279.4406Q254.09375 279.4406 254.90625 280.28436Q255.73438 281.1125 255.73438 282.59686Q255.73438 283.8 255.375 284.4875Q255.01562 285.175 254.3125 285.5656Q253.625 285.9406 252.8125 285.9406Q251.51562 285.9406 250.70312 285.1125Q249.90625 284.26874 249.90625 282.6906ZM250.98438 282.6906Q250.98438 283.8781 251.5 284.47186Q252.03125 285.0656 252.8125 285.0656Q253.60938 285.0656 254.125 284.47186Q254.64062 283.8781 254.64062 282.65936Q254.64062 281.5031 254.10938 280.90936Q253.59375 280.3156 252.8125 280.3156Q252.03125 280.3156 251.5 280.90936Q250.98438 281.4875 250.98438 282.6906ZM257.29688 285.8L257.29688 279.58124L258.23438 279.58124L258.23438 280.45624Q258.92188 279.4406 260.21875 279.4406Q260.78125 279.4406 261.25 279.64374Q261.73438 279.84686 261.96875 280.175Q262.20312 280.5031 262.29688 280.9406Q262.34375 281.2375 262.34375 281.97186L262.34375 285.8L261.29688 285.8L261.29688 282.01874Q261.29688 281.3625 261.17188 281.05Q261.04688 280.7375 260.73438 280.55Q260.42188 280.34686 260.0 280.34686Q259.32812 280.34686 258.82812 280.78436Q258.34375 281.20624 258.34375 282.39374L258.34375 285.8L257.29688 285.8ZM263.90625 282.6906Q263.90625 280.95624 264.85938 280.1281Q265.65625 279.4406 266.8125 279.4406Q268.09375 279.4406 268.90625 280.28436Q269.73438 281.1125 269.73438 282.59686Q269.73438 283.8 269.375 284.4875Q269.01562 285.175 268.3125 285.5656Q267.625 285.9406 266.8125 285.9406Q265.51562 285.9406 264.70312 285.1125Q263.90625 284.26874 263.90625 282.6906ZM264.98438 282.6906Q264.98438 283.8781 265.5 284.47186Q266.03125 285.0656 266.8125 285.0656Q267.60938 285.0656 268.125 284.47186Q268.64062 283.8781 268.64062 282.65936Q268.64062 281.5031 268.10938 280.90936Q267.59375 280.3156 266.8125 280.3156Q266.03125 280.3156 265.5 280.90936Q264.98438 281.4875 264.98438 282.6906ZM278.35938 283.51874L279.39062 283.65936Q279.21875 284.72186 278.51562 285.33124Q277.8125 285.9406 276.79688 285.9406Q275.51562 285.9406 274.73438 285.1125Q273.96875 284.26874 273.96875 282.70624Q273.96875 281.70624 274.29688 280.95624Q274.64062 280.1906 275.3125 279.8156Q276.0 279.4406 276.8125 279.4406Q277.8125 279.4406 278.45312 279.95624Q279.10938 280.45624 279.29688 281.40936L278.26562 281.5656Q278.125 280.9406 277.75 280.6281Q277.375 280.3 276.84375 280.3Q276.04688 280.3 275.54688 280.8781Q275.04688 281.4406 275.04688 282.675Q275.04688 283.9406 275.53125 284.5031Q276.01562 285.0656 276.78125 285.0656Q277.40625 285.0656 277.8125 284.6906Q278.23438 284.3156 278.35938 283.51874ZM279.90625 282.6906Q279.90625 280.95624 280.85938 280.1281Q281.65625 279.4406 282.8125 279.4406Q284.09375 279.4406 284.90625 280.28436Q285.73438 281.1125 285.73438 282.59686Q285.73438 283.8 285.375 284.4875Q285.01562 285.175 284.3125 285.5656Q283.625 285.9406 282.8125 285.9406Q281.51562 285.9406 280.70312 285.1125Q279.90625 284.26874 279.90625 282.6906ZM280.98438 282.6906Q280.98438 283.8781 281.5 284.47186Q282.03125 285.0656 282.8125 285.0656Q283.60938 285.0656 284.125 284.47186Q284.64062 283.8781 284.64062 282.65936Q284.64062 281.5031 284.10938 280.90936Q283.59375 280.3156 282.8125 280.3156Q282.03125 280.3156 281.5 280.90936Q280.98438 281.4875 280.98438 282.6906ZM287.29688 285.8L287.29688 279.58124L288.23438 279.58124L288.23438 280.45624Q288.92188 279.4406 290.21875 279.4406Q290.78125 279.4406 291.25 279.64374Q291.73438 279.84686 291.96875 280.175Q292.20312 280.5031 292.29688 280.9406Q292.34375 281.2375 292.34375 281.97186L292.34375 285.8L291.29688 285.8L291.29688 282.01874Q291.29688 281.3625 291.17188 281.05Q291.04688 280.7375 290.73438 280.55Q290.42188 280.34686 290.0 280.34686Q289.32812 280.34686 288.82812 280.78436Q288.34375 281.20624 288.34375 282.39374L288.34375 285.8L287.29688 285.8ZM297.26562 285.8L297.26562 277.20624L298.32812 277.20624L298.32812 285.8L297.26562 285.8ZM304.54688 283.8L305.64062 283.925Q305.39062 284.8781 304.6875 285.40936Q303.98438 285.9406 302.90625 285.9406Q301.54688 285.9406 300.73438 285.09686Q299.9375 284.2531 299.9375 282.7375Q299.9375 281.175 300.75 280.3156Q301.5625 279.4406 302.84375 279.4406Q304.09375 279.4406 304.875 280.28436Q305.67188 281.1281 305.67188 282.675Q305.67188 282.76874 305.67188 282.95624L301.03125 282.95624Q301.09375 283.9875 301.60938 284.53436Q302.125 285.0656 302.90625 285.0656Q303.48438 285.0656 303.89062 284.76874Q304.3125 284.45624 304.54688 283.8ZM301.09375 282.09686L304.5625 282.09686Q304.5 281.3 304.17188 280.90936Q303.65625 280.3 302.85938 280.3Q302.125 280.3 301.625 280.78436Q301.14062 281.26874 301.09375 282.09686ZM310.26562 285.8L310.26562 277.20624L311.32812 277.20624L311.32812 285.8L310.26562 285.8ZM317.54688 283.8L318.64062 283.925Q318.39062 284.8781 317.6875 285.40936Q316.98438 285.9406 315.90625 285.9406Q314.54688 285.9406 313.73438 285.09686Q312.9375 284.2531 312.9375 282.7375Q312.9375 281.175 313.75 280.3156Q314.5625 279.4406 315.84375 279.4406Q317.09375 279.4406 317.875 280.28436Q318.67188 281.1281 318.67188 282.675Q318.67188 282.76874 318.67188 282.95624L314.03125 282.95624Q314.09375 283.9875 314.60938 284.53436Q315.125 285.0656 315.90625 285.0656Q316.48438 285.0656 316.89062 284.76874Q317.3125 284.45624 317.54688 283.8ZM314.09375 282.09686L317.5625 282.09686Q317.5 281.3 317.17188 280.90936Q316.65625 280.3 315.85938 280.3Q315.125 280.3 314.625 280.78436Q314.14062 281.26874 314.09375 282.09686ZM319.73438 285.8L319.73438 284.9406L323.70312 280.39374Q323.01562 280.425 322.5 280.425L319.96875 280.425L319.96875 279.58124L325.0625 279.58124L325.0625 280.26874L321.6875 284.22186L321.03125 284.9406Q321.75 284.89374 322.35938 284.89374L325.25 284.89374L325.25 285.8L319.73438 285.8ZM325.29688 278.425L325.29688 277.20624L326.35938 277.20624L326.35938 278.425L325.29688 278.425ZM325.29688 285.8L325.29688 279.58124L326.35938 279.58124L326.35938 285.8L325.29688 285.8ZM327.90625 282.6906Q327.90625 280.95624 328.85938 280.1281Q329.65625 279.4406 330.8125 279.4406Q332.09375 279.4406 332.90625 280.28436Q333.73438 281.1125 333.73438 282.59686Q333.73438 283.8 333.375 284.4875Q333.01562 285.175 332.3125 285.5656Q331.625 285.9406 330.8125 285.9406Q329.51562 285.9406 328.70312 285.1125Q327.90625 284.26874 327.90625 282.6906ZM328.98438 282.6906Q328.98438 283.8781 329.5 284.47186Q330.03125 285.0656 330.8125 285.0656Q331.60938 285.0656 332.125 284.47186Q332.64062 283.8781 332.64062 282.65936Q332.64062 281.5031 332.10938 280.90936Q331.59375 280.3156 330.8125 280.3156Q330.03125 280.3156 329.5 280.90936Q328.98438 281.4875 328.98438 282.6906ZM335.29688 285.8L335.29688 279.58124L336.23438 279.58124L336.23438 280.45624Q336.92188 279.4406 338.21875 279.4406Q338.78125 279.4406 339.25 279.64374Q339.73438 279.84686 339.96875 280.175Q340.20312 280.5031 340.29688 280.9406Q340.34375 281.2375 340.34375 281.97186L340.34375 285.8L339.29688 285.8L339.29688 282.01874Q339.29688 281.3625 339.17188 281.05Q339.04688 280.7375 338.73438 280.55Q338.42188 280.34686 338.0 280.34686Q337.32812 280.34686 336.82812 280.78436Q336.34375 281.20624 336.34375 282.39374L336.34375 285.8L335.29688 285.8ZM342.29688 278.425L342.29688 277.20624L343.35938 277.20624L343.35938 278.425L342.29688 278.425ZM342.29688 285.8L342.29688 279.58124L343.35938 279.58124L343.35938 285.8L342.29688 285.8Z" fill-rule="nonzero"/><path fill="#757575" d="M26.965626 29.184376L28.85625 29.653126Q28.2625 31.996876 26.715626 33.23125Q25.16875 34.45 22.91875 34.45Q20.60625 34.45 19.153126 33.5125Q17.715626 32.559376 16.95 30.778126Q16.2 28.98125 16.2 26.934376Q16.2 24.7 17.04375 23.04375Q17.903126 21.371876 19.48125 20.5125Q21.059376 19.6375 22.95 19.6375Q25.10625 19.6375 26.559376 20.73125Q28.028126 21.825 28.60625 23.809376L26.746876 24.246876Q26.246876 22.684376 25.29375 21.98125Q24.35625 21.2625 22.91875 21.2625Q21.2625 21.2625 20.153126 22.059376Q19.04375 22.840626 18.590626 24.184376Q18.153126 25.5125 18.153126 26.91875Q18.153126 28.746876 18.684376 30.121876Q19.215626 31.48125 20.340626 32.153126Q21.465626 32.825 22.7625 32.825Q24.35625 32.825 25.465626 31.903126Q26.575 30.98125 26.965626 29.184376ZM29.871876 29.0125Q29.871876 26.1375 31.465626 24.746876Q32.809376 23.590626 34.73125 23.590626Q36.871876 23.590626 38.215626 24.996876Q39.575 26.403126 39.575 28.871876Q39.575 30.871876 38.98125 32.028126Q38.3875 33.16875 37.23125 33.809376Q36.090626 34.434376 34.73125 34.434376Q32.54375 34.434376 31.2 33.04375Q29.871876 31.6375 29.871876 29.0125ZM31.66875 29.0125Q31.66875 31.0125 32.528126 31.996876Q33.403126 32.98125 34.73125 32.98125Q36.04375 32.98125 36.903126 31.996876Q37.778126 30.996876 37.778126 28.95Q37.778126 27.028126 36.903126 26.04375Q36.028126 25.04375 34.73125 25.04375Q33.403126 25.04375 32.528126 26.04375Q31.66875 27.028126 31.66875 29.0125ZM41.5125 34.2L41.5125 23.825L43.090626 23.825L43.090626 25.278126Q43.575 24.528126 44.3875 24.059376Q45.2 23.590626 46.23125 23.590626Q47.3875 23.590626 48.121876 24.075Q48.85625 24.54375 49.16875 25.403126Q50.403126 23.590626 52.371876 23.590626Q53.91875 23.590626 54.746876 24.45Q55.575 25.309376 55.575 27.075L55.575 34.2L53.825 34.2L53.825 27.66875Q53.825 26.60625 53.653126 26.153126Q53.48125 25.684376 53.028126 25.403126Q52.590626 25.121876 51.98125 25.121876Q50.8875 25.121876 50.153126 25.85625Q49.434376 26.575 49.434376 28.16875L49.434376 34.2L47.684376 34.2L47.684376 27.465626Q47.684376 26.29375 47.246876 25.715626Q46.825 25.121876 45.840626 25.121876Q45.10625 25.121876 44.465626 25.5125Q43.840626 25.903126 43.559376 26.653126Q43.278126 27.403126 43.278126 28.825L43.278126 34.2L41.5125 34.2ZM64.62187 30.85625L66.43437 31.090626Q66.0125 32.66875 64.84062 33.559376Q63.684376 34.434376 61.871876 34.434376Q59.60625 34.434376 58.2625 33.04375Q56.934376 31.6375 56.934376 29.10625Q56.934376 26.48125 58.278126 25.04375Q59.621876 23.590626 61.778126 23.590626Q63.85625 23.590626 65.16875 25.0125Q66.49687 26.41875 66.49687 28.996876Q66.49687 29.153126 66.48125 29.465626L58.746876 29.465626Q58.840626 31.16875 59.715626 32.075Q60.590626 32.98125 61.8875 32.98125Q62.85625 32.98125 63.528126 32.48125Q64.21562 31.965626 64.62187 30.85625ZM58.840626 28.0125L64.6375 28.0125Q64.52812 26.715626 63.98125 26.059376Q63.1375 25.04375 61.79375 25.04375Q60.590626 25.04375 59.7625 25.85625Q58.934376 26.653126 58.840626 28.0125ZM74.5125 34.2L74.5125 19.8875L76.27812 19.8875L76.27812 25.0125Q77.5125 23.590626 79.3875 23.590626Q80.52812 23.590626 81.37187 24.04375Q82.23125 24.496876 82.59062 25.309376Q82.96562 26.10625 82.96562 27.621876L82.96562 34.2L81.21562 34.2L81.21562 27.621876Q81.21562 26.309376 80.6375 25.715626Q80.05937 25.10625 79.02812 25.10625Q78.24687 25.10625 77.54375 25.5125Q76.85625 25.91875 76.55937 26.621876Q76.27812 27.309376 76.27812 28.528126L76.27812 34.2L74.5125 34.2ZM91.29375 32.91875Q90.30937 33.746876 89.40312 34.090626Q88.49687 34.434376 87.46562 34.434376Q85.7625 34.434376 84.84062 33.60625Q83.91875 32.7625 83.91875 31.465626Q83.91875 30.7 84.2625 30.075Q84.62187 29.45 85.18437 29.075Q85.74687 28.684376 86.45 28.48125Q86.96562 28.35625 88.0125 28.215626Q90.1375 27.965626 91.1375 27.621876Q91.15312 27.2625 91.15312 27.153126Q91.15312 26.090626 90.65312 25.6375Q89.98125 25.04375 88.65312 25.04375Q87.40312 25.04375 86.80937 25.48125Q86.23125 25.91875 85.95 27.028126L84.23125 26.79375Q84.46562 25.684376 84.99687 25.0125Q85.52812 24.325 86.54375 23.965626Q87.55937 23.590626 88.90312 23.590626Q90.23125 23.590626 91.05937 23.903126Q91.8875 24.215626 92.27812 24.7Q92.66875 25.16875 92.825 25.8875Q92.91875 26.340626 92.91875 27.5125L92.91875 29.85625Q92.91875 32.309376 93.02812 32.965626Q93.1375 33.60625 93.48125 34.2L91.6375 34.2Q91.37187 33.653126 91.29375 32.91875ZM91.1375 28.996876Q90.18437 29.3875 88.2625 29.653126Q87.18437 29.809376 86.73125 30.0125Q86.29375 30.2 86.04375 30.575Q85.79375 30.95 85.79375 31.41875Q85.79375 32.121876 86.325 32.590626Q86.85625 33.059376 87.8875 33.059376Q88.90312 33.059376 89.68437 32.621876Q90.48125 32.16875 90.85625 31.403126Q91.1375 30.79375 91.1375 29.6375L91.1375 28.996876ZM101.93437 34.2L101.93437 25.2L100.3875 25.2L100.3875 23.825L101.93437 23.825L101.93437 22.73125Q101.93437 21.684376 102.12187 21.16875Q102.37187 20.48125 103.0125 20.059376Q103.65312 19.6375 104.80937 19.6375Q105.55937 19.6375 106.45 19.809376L106.18437 21.340626Q105.6375 21.246876 105.15312 21.246876Q104.35625 21.246876 104.0125 21.590626Q103.68437 21.934376 103.68437 22.871876L103.68437 23.825L105.71562 23.825L105.71562 25.2L103.68437 25.2L103.68437 34.2L101.93437 34.2ZM107.49687 34.2L107.49687 23.825L109.075 23.825L109.075 25.403126Q109.68437 24.29375 110.2 23.95Q110.71562 23.590626 111.325 23.590626Q112.21562 23.590626 113.1375 24.153126L112.52812 25.79375Q111.8875 25.403126 111.24687 25.403126Q110.66875 25.403126 110.2 25.7625Q109.74687 26.10625 109.54375 26.715626Q109.2625 27.653126 109.2625 28.7625L109.2625 34.2L107.49687 34.2ZM121.62187 30.85625L123.43437 31.090626Q123.0125 32.66875 121.84062 33.559376Q120.68437 34.434376 118.87187 34.434376Q116.60625 34.434376 115.2625 33.04375Q113.93437 31.6375 113.93437 29.10625Q113.93437 26.48125 115.27812 25.04375Q116.62187 23.590626 118.77812 23.590626Q120.85625 23.590626 122.16875 25.0125Q123.49687 26.41875 123.49687 28.996876Q123.49687 29.153126 123.48125 29.465626L115.74687 29.465626Q115.84062 31.16875 116.71562 32.075Q117.59062 32.98125 118.8875 32.98125Q119.85625 32.98125 120.52812 32.48125Q121.21562 31.965626 121.62187 30.85625ZM115.84062 28.0125L121.6375 28.0125Q121.52812 26.715626 120.98125 26.059376Q120.1375 25.04375 118.79375 25.04375Q117.59062 25.04375 116.7625 25.85625Q115.93437 26.653126 115.84062 28.0125ZM132.1375 38.16875L132.1375 33.090626Q131.71562 33.66875 130.98125 34.059376Q130.24687 34.434376 129.41875 34.434376Q127.575 34.434376 126.23125 32.965626Q124.90312 31.48125 124.90312 28.91875Q124.90312 27.35625 125.43437 26.121876Q125.98125 24.871876 127.0125 24.23125Q128.04375 23.590626 129.27812 23.590626Q131.2 23.590626 132.30937 25.215626L132.30937 23.825L133.8875 23.825L133.8875 38.16875L132.1375 38.16875ZM126.71562 28.98125Q126.71562 30.98125 127.54375 31.98125Q128.3875 32.98125 129.55937 32.98125Q130.68437 32.98125 131.49687 32.04375Q132.30937 31.090626 132.30937 29.1375Q132.30937 27.075 131.45 26.028126Q130.59062 24.98125 129.45 24.98125Q128.30937 24.98125 127.5125 25.95Q126.71562 26.91875 126.71562 28.98125ZM143.30937 34.2L143.30937 32.66875Q142.10625 34.434376 140.02812 34.434376Q139.10625 34.434376 138.30937 34.090626Q137.5125 33.73125 137.12187 33.2Q136.74687 32.66875 136.59062 31.8875Q136.48125 31.371876 136.48125 30.246876L136.48125 23.825L138.23125 23.825L138.23125 29.575Q138.23125 30.95 138.34062 31.434376Q138.5125 32.121876 139.04375 32.528126Q139.59062 32.91875 140.37187 32.91875Q141.16875 32.91875 141.85625 32.5125Q142.55937 32.10625 142.84062 31.41875Q143.1375 30.715626 143.1375 29.3875L143.1375 23.825L144.8875 23.825L144.8875 34.2L143.30937 34.2ZM153.62187 30.85625L155.43437 31.090626Q155.0125 32.66875 153.84062 33.559376Q152.68437 34.434376 150.87187 34.434376Q148.60625 34.434376 147.2625 33.04375Q145.93437 31.6375 145.93437 29.10625Q145.93437 26.48125 147.27812 25.04375Q148.62187 23.590626 150.77812 23.590626Q152.85625 23.590626 154.16875 25.0125Q155.49687 26.41875 155.49687 28.996876Q155.49687 29.153126 155.48125 29.465626L147.74687 29.465626Q147.84062 31.16875 148.71562 32.075Q149.59062 32.98125 150.8875 32.98125Q151.85625 32.98125 152.52812 32.48125Q153.21562 31.965626 153.62187 30.85625ZM147.84062 28.0125L153.6375 28.0125Q153.52812 26.715626 152.98125 26.059376Q152.1375 25.04375 150.79375 25.04375Q149.59062 25.04375 148.7625 25.85625Q147.93437 26.653126 147.84062 28.0125ZM157.5125 34.2L157.5125 23.825L159.10625 23.825L159.10625 25.309376Q160.24687 23.590626 162.40312 23.590626Q163.34062 23.590626 164.12187 23.934376Q164.91875 24.2625 165.30937 24.809376Q165.7 25.35625 165.85625 26.10625Q165.95 26.60625 165.95 27.825L165.95 34.2L164.18437 34.2L164.18437 27.8875Q164.18437 26.809376 163.98125 26.278126Q163.77812 25.746876 163.24687 25.434376Q162.73125 25.121876 162.02812 25.121876Q160.90312 25.121876 160.09062 25.840626Q159.27812 26.54375 159.27812 28.528126L159.27812 34.2L157.5125 34.2ZM171.35625 32.621876L171.60625 34.184376Q170.87187 34.340626 170.27812 34.340626Q169.325 34.340626 168.79375 34.04375Q168.27812 33.73125 168.05937 33.246876Q167.84062 32.746876 167.84062 31.16875L167.84062 25.2L166.55937 25.2L166.55937 23.825L167.84062 23.825L167.84062 21.2625L169.59062 20.2L169.59062 23.825L171.35625 23.825L171.35625 25.2L169.59062 25.2L169.59062 31.2625Q169.59062 32.0125 169.68437 32.23125Q169.77812 32.434376 169.98125 32.575Q170.2 32.7 170.59062 32.7Q170.87187 32.7 171.35625 32.621876ZM180.29375 32.91875Q179.30937 33.746876 178.40312 34.090626Q177.49687 34.434376 176.46562 34.434376Q174.7625 34.434376 173.84062 33.60625Q172.91875 32.7625 172.91875 31.465626Q172.91875 30.7 173.2625 30.075Q173.62187 29.45 174.18437 29.075Q174.74687 28.684376 175.45 28.48125Q175.96562 28.35625 177.0125 28.215626Q179.1375 27.965626 180.1375 27.621876Q180.15312 27.2625 180.15312 27.153126Q180.15312 26.090626 179.65312 25.6375Q178.98125 25.04375 177.65312 25.04375Q176.40312 25.04375 175.80937 25.48125Q175.23125 25.91875 174.95 27.028126L173.23125 26.79375Q173.46562 25.684376 173.99687 25.0125Q174.52812 24.325 175.54375 23.965626Q176.55937 23.590626 177.90312 23.590626Q179.23125 23.590626 180.05937 23.903126Q180.8875 24.215626 181.27812 24.7Q181.66875 25.16875 181.825 25.8875Q181.91875 26.340626 181.91875 27.5125L181.91875 29.85625Q181.91875 32.309376 182.02812 32.965626Q182.1375 33.60625 182.48125 34.2L180.6375 34.2Q180.37187 33.653126 180.29375 32.91875ZM180.1375 28.996876Q179.18437 29.3875 177.2625 29.653126Q176.18437 29.809376 175.73125 30.0125Q175.29375 30.2 175.04375 30.575Q174.79375 30.95 174.79375 31.41875Q174.79375 32.121876 175.325 32.590626Q175.85625 33.059376 176.8875 33.059376Q177.90312 33.059376 178.68437 32.621876Q179.48125 32.16875 179.85625 31.403126Q180.1375 30.79375 180.1375 29.6375L180.1375 28.996876ZM188.35625 32.621876L188.60625 34.184376Q187.87187 34.340626 187.27812 34.340626Q186.325 34.340626 185.79375 34.04375Q185.27812 33.73125 185.05937 33.246876Q184.84062 32.746876 184.84062 31.16875L184.84062 25.2L183.55937 25.2L183.55937 23.825L184.84062 23.825L184.84062 21.2625L186.59062 20.2L186.59062 23.825L188.35625 23.825L188.35625 25.2L186.59062 25.2L186.59062 31.2625Q186.59062 32.0125 186.68437 32.23125Q186.77812 32.434376 186.98125 32.575Q187.2 32.7 187.59062 32.7Q187.87187 32.7 188.35625 32.621876ZM189.87187 29.0125Q189.87187 26.1375 191.46562 24.746876Q192.80937 23.590626 194.73125 23.590626Q196.87187 23.590626 198.21562 24.996876Q199.575 26.403126 199.575 28.871876Q199.575 30.871876 198.98125 32.028126Q198.3875 33.16875 197.23125 33.809376Q196.09062 34.434376 194.73125 34.434376Q192.54375 34.434376 191.2 33.04375Q189.87187 31.6375 189.87187 29.0125ZM191.66875 29.0125Q191.66875 31.0125 192.52812 31.996876Q193.40312 32.98125 194.73125 32.98125Q196.04375 32.98125 196.90312 31.996876Q197.77812 30.996876 197.77812 28.95Q197.77812 27.028126 196.90312 26.04375Q196.02812 25.04375 194.73125 25.04375Q193.40312 25.04375 192.52812 26.04375Q191.66875 27.028126 191.66875 29.0125ZM207.52812 21.903126L207.52812 19.8875L209.29375 19.8875L209.29375 21.903126L207.52812 21.903126ZM207.52812 34.2L207.52812 23.825L209.29375 23.825L209.29375 34.2L207.52812 34.2ZM211.48125 34.2L211.48125 19.8875L213.23125 19.8875L213.23125 34.2L211.48125 34.2ZM228.29375 30.403126L230.0125 30.621876Q229.73125 32.41875 228.55937 33.434376Q227.40312 34.434376 225.7 34.434376Q223.575 34.434376 222.27812 33.04375Q220.98125 31.653126 220.98125 29.059376Q220.98125 27.371876 221.52812 26.121876Q222.09062 24.85625 223.23125 24.23125Q224.37187 23.590626 225.71562 23.590626Q227.40312 23.590626 228.46562 24.45Q229.54375 25.309376 229.85625 26.871876L228.1375 27.1375Q227.90312 26.090626 227.27812 25.575Q226.65312 25.04375 225.77812 25.04375Q224.45 25.04375 223.62187 25.996876Q222.79375 26.95 222.79375 28.996876Q222.79375 31.090626 223.59062 32.04375Q224.3875 32.98125 225.68437 32.98125Q226.71562 32.98125 227.40312 32.35625Q228.10625 31.715626 228.29375 30.403126ZM230.87187 29.0125Q230.87187 26.1375 232.46562 24.746876Q233.80937 23.590626 235.73125 23.590626Q237.87187 23.590626 239.21562 24.996876Q240.575 26.403126 240.575 28.871876Q240.575 30.871876 239.98125 32.028126Q239.3875 33.16875 238.23125 33.809376Q237.09062 34.434376 235.73125 34.434376Q233.54375 34.434376 232.2 33.04375Q230.87187 31.6375 230.87187 29.0125ZM232.66875 29.0125Q232.66875 31.0125 233.52812 31.996876Q234.40312 32.98125 235.73125 32.98125Q237.04375 32.98125 237.90312 31.996876Q238.77812 30.996876 238.77812 28.95Q238.77812 27.028126 237.90312 26.04375Q237.02812 25.04375 235.73125 25.04375Q234.40312 25.04375 233.52812 26.04375Q232.66875 27.028126 232.66875 29.0125ZM242.49687 34.2L242.49687 23.825L244.075 23.825L244.075 25.403126Q244.68437 24.29375 245.2 23.95Q245.71562 23.590626 246.325 23.590626Q247.21562 23.590626 248.1375 24.153126L247.52812 25.79375Q246.8875 25.403126 246.24687 25.403126Q245.66875 25.403126 245.2 25.7625Q244.74687 26.10625 244.54375 26.715626Q244.2625 27.653126 244.2625 28.7625L244.2625 34.2L242.49687 34.2ZM248.80937 31.10625L250.55937 30.825Q250.7 31.871876 251.37187 32.434376Q252.04375 32.98125 253.24687 32.98125Q254.45 32.98125 255.02812 32.496876Q255.62187 31.996876 255.62187 31.340626Q255.62187 30.746876 255.10625 30.403126Q254.74687 30.16875 253.30937 29.809376Q251.37187 29.309376 250.62187 28.965626Q249.8875 28.60625 249.49687 27.98125Q249.10625 27.340626 249.10625 26.575Q249.10625 25.8875 249.41875 25.29375Q249.74687 24.7 250.29375 24.309376Q250.7 24.0125 251.40312 23.809376Q252.12187 23.590626 252.93437 23.590626Q254.15312 23.590626 255.075 23.95Q255.99687 24.29375 256.4344 24.903126Q256.8719 25.496876 257.04376 26.496876L255.325 26.73125Q255.2 25.934376 254.6375 25.496876Q254.075 25.04375 253.05937 25.04375Q251.84062 25.04375 251.325 25.45Q250.80937 25.840626 250.80937 26.371876Q250.80937 26.715626 251.02812 26.996876Q251.23125 27.278126 251.7 27.465626Q251.96562 27.559376 253.24687 27.903126Q255.12187 28.403126 255.85625 28.73125Q256.59064 29.04375 257.0125 29.653126Q257.4344 30.246876 257.4344 31.153126Q257.4344 32.028126 256.91876 32.809376Q256.40314 33.590626 255.43437 34.0125Q254.46562 34.434376 253.24687 34.434376Q251.23125 34.434376 250.16875 33.590626Q249.10625 32.746876 248.80937 31.10625ZM258.8719 29.0125Q258.8719 26.1375 260.46564 24.746876Q261.8094 23.590626 263.73126 23.590626Q265.8719 23.590626 267.21564 24.996876Q268.575 26.403126 268.575 28.871876Q268.575 30.871876 267.98126 32.028126Q267.3875 33.16875 266.23126 33.809376Q265.09064 34.434376 263.73126 34.434376Q261.54376 34.434376 260.2 33.04375Q258.8719 31.6375 258.8719 29.0125ZM260.66876 29.0125Q260.66876 31.0125 261.52814 31.996876Q262.40314 32.98125 263.73126 32.98125Q265.04376 32.98125 265.90314 31.996876Q266.77814 30.996876 266.77814 28.95Q266.77814 27.028126 265.90314 26.04375Q265.02814 25.04375 263.73126 25.04375Q262.40314 25.04375 261.52814 26.04375Q260.66876 27.028126 260.66876 29.0125ZM273.8094 30.66875Q273.79376 30.325 273.79376 30.153126Q273.79376 29.10625 274.09064 28.35625Q274.3094 27.79375 274.79376 27.215626Q275.1375 26.79375 276.04376 25.996876Q276.96564 25.184376 277.23126 24.715626Q277.5125 24.23125 277.5125 23.66875Q277.5125 22.6375 276.7 21.871876Q275.90314 21.090626 274.7469 21.090626Q273.6219 21.090626 272.8719 21.79375Q272.1219 22.496876 271.8875 23.98125L270.075 23.7625Q270.325 21.7625 271.52814 20.7Q272.73126 19.6375 274.71564 19.6375Q276.825 19.6375 278.075 20.778126Q279.325 21.91875 279.325 23.54375Q279.325 24.48125 278.8719 25.278126Q278.4344 26.059376 277.15314 27.2Q276.29376 27.965626 276.02814 28.325Q275.77814 28.684376 275.6375 29.153126Q275.5125 29.621876 275.4969 30.66875L273.8094 30.66875ZM273.7 34.2L273.7 32.2L275.7 32.2L275.7 34.2L273.7 34.2Z" fill-rule="nonzero"/></svg>