<svg version="1.1" viewBox="0.0 0.0 490.0 304.0" fill="none" stroke="none" stroke-linecap="square" stroke-miterlimit="10" width="490" height="304" xmlns:xlink="http://www.w3.org/1999/xlink" xmlns="http://www.w3.org/2000/svg"><path fill="#ffffff" d="M0 0L490.0 0L490.0 304.0L0 304.0L0 0Z" fill-rule="nonzero"/><path fill="#4285f4" d="M245.0 49.333332C280.7883 49.333332 313.37756 69.94153 328.71973 102.27449L245.0 142.0Z" fill-rule="nonzero"/><path fill="#ea4335" d="M328.71973 102.27449C341.77502 129.7879 340.47855 161.95964 325.25168 188.33333L245.0 142.0Z" fill-rule="nonzero"/><path fill="#46bdc6" d="M189.33122 67.918304C205.38382 55.85556 224.92027 49.333332 245.0 49.333332L245.0 142.0Z" fill-rule="nonzero"/><path fill="#ff6d01" d="M168.73683 89.35934C174.40295 81.150536 181.35722 73.91037 189.33122 67.918304L245.0 142.0Z" fill-rule="nonzero"/><path fill="#34a853" d="M154.20607 160.53572C149.16061 135.82143 154.40794 110.11832 168.73683 89.35934L245.0 142.0Z" fill-rule="nonzero"/><path fill="#fbbc04" d="M325.25168 188.33333C306.00095 221.67659 268.1381 239.64273 230.13522 233.46666C192.13234 227.29059 161.90735 198.2591 154.20607 160.53572L245.0 142.0Z" fill-rule="nonzero"/><path fill="#000000" d="M262.88757 95.338394L261.6532 95.338394L261.6532 87.494644Q261.2157 87.91652 260.48132 88.35402Q259.76257 88.775894 259.20007 88.97902L259.20007 87.79152Q260.23132 87.307144 260.99695 86.619644Q261.7782 85.932144 262.0907 85.275894L262.88757 85.275894L262.88757 95.338394ZM266.32507 86.63527L266.32507 85.44777L272.82507 85.44777L272.82507 86.400894Q271.85632 87.41652 270.91882 89.10402Q269.98132 90.79152 269.4657 92.588394Q269.10632 93.838394 268.99695 95.338394L267.73132 95.338394Q267.74695 94.150894 268.18445 92.47902Q268.63757 90.807144 269.4657 89.26027Q270.30945 87.69777 271.24695 86.63527L266.32507 86.63527ZM274.93445 95.338394L274.93445 93.932144L276.3407 93.932144L276.3407 95.338394L274.93445 95.338394ZM278.43445 93.025894L279.62195 92.91652Q279.76257 93.744644 280.18445 94.119644Q280.62195 94.494644 281.2782 94.494644Q281.8407 94.494644 282.26257 94.244644Q282.70007 93.97902 282.9657 93.54152Q283.24695 93.10402 283.43445 92.369644Q283.62195 91.63527 283.62195 90.869644Q283.62195 90.79152 283.60632 90.619644Q283.24695 91.213394 282.60632 91.588394Q281.9657 91.94777 281.2157 91.94777Q279.9657 91.94777 279.10632 91.04152Q278.24695 90.13527 278.24695 88.66652Q278.24695 87.13527 279.13757 86.213394Q280.04382 85.275894 281.4032 85.275894Q282.37195 85.275894 283.18445 85.807144Q283.99695 86.32277 284.41882 87.307144Q284.8407 88.275894 284.8407 90.119644Q284.8407 92.04152 284.41882 93.182144Q284.01257 94.32277 283.18445 94.91652Q282.35632 95.51027 281.24695 95.51027Q280.07507 95.51027 279.32507 94.85402Q278.5907 94.19777 278.43445 93.025894ZM283.4657 88.60402Q283.4657 87.54152 282.9032 86.91652Q282.3407 86.29152 281.55945 86.29152Q280.73132 86.29152 280.12195 86.963394Q279.51257 87.63527 279.51257 88.69777Q279.51257 89.650894 280.0907 90.26027Q280.66882 90.85402 281.51257 90.85402Q282.37195 90.85402 282.91882 90.26027Q283.4657 89.650894 283.4657 88.60402ZM286.48132 87.72902Q286.48132 86.650894 287.01257 85.900894Q287.55945 85.150894 288.5907 85.150894Q289.5282 85.150894 290.13757 85.82277Q290.76257 86.494644 290.76257 87.79152Q290.76257 89.07277 290.13757 89.76027Q289.51257 90.44777 288.60632 90.44777Q287.70007 90.44777 287.0907 89.775894Q286.48132 89.088394 286.48132 87.72902ZM288.62195 85.994644Q288.16882 85.994644 287.85632 86.400894Q287.55945 86.79152 287.55945 87.838394Q287.55945 88.807144 287.85632 89.19777Q288.16882 89.588394 288.62195 89.588394Q289.0907 89.588394 289.38757 89.19777Q289.70007 88.807144 289.70007 87.744644Q289.70007 86.775894 289.38757 86.38527Q289.07507 85.994644 288.62195 85.994644ZM288.62195 95.713394L294.10632 85.150894L295.10632 85.150894L289.6532 95.713394L288.62195 95.713394ZM292.9657 92.97902Q292.9657 91.900894 293.49695 91.16652Q294.04382 90.41652 295.07507 90.41652Q296.01257 90.41652 296.63757 91.088394Q297.26257 91.76027 297.26257 93.057144Q297.26257 94.338394 296.63757 95.025894Q296.01257 95.713394 295.07507 95.713394Q294.16882 95.713394 293.55945 95.04152Q292.9657 94.35402 292.9657 92.97902ZM295.10632 91.26027Q294.63757 91.26027 294.3407 91.66652Q294.04382 92.057144 294.04382 93.10402Q294.04382 94.07277 294.3407 94.463394Q294.6532 94.85402 295.10632 94.85402Q295.57507 94.85402 295.87195 94.463394Q296.18445 94.07277 296.18445 93.01027Q296.18445 92.04152 295.87195 91.650894Q295.57507 91.26027 295.10632 91.26027Z" fill-rule="nonzero"/><path fill="#000000" d="M291.4927 149.46925L290.25833 149.46925L290.25833 141.6255Q289.82083 142.04738 289.08646 142.48488Q288.3677 142.90675 287.8052 143.10988L287.8052 141.92238Q288.83646 141.438 289.60208 140.7505Q290.38333 140.063 290.69583 139.40675L291.4927 139.40675L291.4927 149.46925ZM294.85208 146.84425L296.14896 146.73488Q296.28958 147.67238 296.8052 148.15675Q297.33646 148.6255 298.07083 148.6255Q298.96146 148.6255 299.57083 147.95363Q300.19583 147.28175 300.19583 146.188Q300.19583 145.1255 299.60208 144.51613Q299.00833 143.90675 298.0552 143.90675Q297.46146 143.90675 296.97708 144.188Q296.50833 144.45363 296.22708 144.8755L295.07083 144.73488L296.03958 139.57863L301.02396 139.57863L301.02396 140.76613L297.02396 140.76613L296.4927 143.45363Q297.39896 142.82863 298.38333 142.82863Q299.69583 142.82863 300.58646 143.73488Q301.4927 144.64113 301.4927 146.07863Q301.4927 147.438 300.71146 148.42238Q299.7427 149.64113 298.07083 149.64113Q296.71146 149.64113 295.83646 148.8755Q294.97708 148.10988 294.85208 146.84425ZM303.53958 149.46925L303.53958 148.063L304.94583 148.063L304.94583 149.46925L303.53958 149.46925ZM310.8052 149.46925L310.8052 147.063L306.44583 147.063L306.44583 145.938L311.02396 139.45363L312.02396 139.45363L312.02396 145.938L313.38333 145.938L313.38333 147.063L312.02396 147.063L312.02396 149.46925L310.8052 149.46925ZM310.8052 145.938L310.8052 141.42238L307.66458 145.938L310.8052 145.938ZM315.08646 141.85988Q315.08646 140.78175 315.6177 140.03175Q316.16458 139.28175 317.19583 139.28175Q318.13333 139.28175 318.7427 139.95363Q319.3677 140.6255 319.3677 141.92238Q319.3677 143.20363 318.7427 143.89113Q318.1177 144.57863 317.21146 144.57863Q316.3052 144.57863 315.69583 143.90675Q315.08646 143.21925 315.08646 141.85988ZM317.22708 140.1255Q316.77396 140.1255 316.46146 140.53175Q316.16458 140.92238 316.16458 141.96925Q316.16458 142.938 316.46146 143.32863Q316.77396 143.71925 317.22708 143.71925Q317.69583 143.71925 317.9927 143.32863Q318.3052 142.938 318.3052 141.8755Q318.3052 140.90675 317.9927 140.51613Q317.6802 140.1255 317.22708 140.1255ZM317.22708 149.84425L322.71146 139.28175L323.71146 139.28175L318.25833 149.84425L317.22708 149.84425ZM321.57083 147.10988Q321.57083 146.03175 322.10208 145.29738Q322.64896 144.54738 323.6802 144.54738Q324.6177 144.54738 325.2427 145.21925Q325.8677 145.89113 325.8677 147.188Q325.8677 148.46925 325.2427 149.15675Q324.6177 149.84425 323.6802 149.84425Q322.77396 149.84425 322.16458 149.17238Q321.57083 148.48488 321.57083 147.10988ZM323.71146 145.39113Q323.2427 145.39113 322.94583 145.79738Q322.64896 146.188 322.64896 147.23488Q322.64896 148.20363 322.94583 148.59425Q323.25833 148.98488 323.71146 148.98488Q324.1802 148.98488 324.47708 148.59425Q324.78958 148.20363 324.78958 147.14113Q324.78958 146.17238 324.47708 145.78175Q324.1802 145.39113 323.71146 145.39113Z" fill-rule="nonzero"/><path fill="#000000" d="M214.81859 210.66162L216.03734 210.48975Q216.25609 211.53662 216.75609 212.00537Q217.27171 212.4585 218.00609 212.4585Q218.88109 212.4585 219.47484 211.86475Q220.06859 211.25537 220.06859 210.36475Q220.06859 209.521 219.50609 208.97412Q218.95921 208.42725 218.11546 208.42725Q217.75609 208.42725 217.24046 208.55225L217.38109 207.47412Q217.50609 207.48975 217.56859 207.48975Q218.36546 207.48975 218.99046 207.0835Q219.61546 206.67725 219.61546 205.81787Q219.61546 205.146 219.16234 204.7085Q218.70921 204.25537 217.97484 204.25537Q217.25609 204.25537 216.77171 204.7085Q216.30296 205.146 216.16234 206.05225L214.94359 205.8335Q215.16234 204.59912 215.95921 203.92725Q216.75609 203.23975 217.94359 203.23975Q218.77171 203.23975 219.45921 203.59912Q220.14671 203.94287 220.50609 204.55225Q220.88109 205.16162 220.88109 205.84912Q220.88109 206.48975 220.53734 207.021Q220.19359 207.55225 219.50609 207.88037Q220.39671 208.0835 220.88109 208.72412Q221.38109 209.36475 221.38109 210.34912Q221.38109 211.66162 220.41234 212.56787Q219.45921 213.47412 218.00609 213.47412Q216.67796 213.47412 215.80296 212.69287Q214.94359 211.91162 214.81859 210.66162ZM224.69359 207.86475Q223.92796 207.5835 223.55296 207.06787Q223.19359 206.55225 223.19359 205.81787Q223.19359 204.72412 223.97484 203.98975Q224.77171 203.23975 226.06859 203.23975Q227.38109 203.23975 228.17796 204.00537Q228.99046 204.771 228.99046 205.86475Q228.99046 206.55225 228.61546 207.06787Q228.25609 207.5835 227.50609 207.86475Q228.42796 208.16162 228.91234 208.8335Q229.39671 209.50537 229.39671 210.44287Q229.39671 211.72412 228.49046 212.59912Q227.58421 213.47412 226.09984 213.47412Q224.61546 213.47412 223.69359 212.59912Q222.78734 211.7085 222.78734 210.396Q222.78734 209.42725 223.28734 208.771Q223.78734 208.09912 224.69359 207.86475ZM224.45921 205.78662Q224.45921 206.48975 224.91234 206.94287Q225.36546 207.396 226.09984 207.396Q226.81859 207.396 227.27171 206.9585Q227.72484 206.50537 227.72484 205.84912Q227.72484 205.17725 227.25609 204.72412Q226.78734 204.25537 226.08421 204.25537Q225.38109 204.25537 224.91234 204.7085Q224.45921 205.146 224.45921 205.78662ZM224.05296 210.41162Q224.05296 210.94287 224.30296 211.44287Q224.55296 211.92725 225.03734 212.19287Q225.53734 212.4585 226.11546 212.4585Q226.99046 212.4585 227.55296 211.896Q228.13109 211.3335 228.13109 210.4585Q228.13109 209.56787 227.53734 208.98975Q226.95921 208.396 226.06859 208.396Q225.19359 208.396 224.61546 208.97412Q224.05296 209.55225 224.05296 210.41162ZM231.49046 213.30225L231.49046 211.896L232.89671 211.896L232.89671 213.30225L231.49046 213.30225ZM234.80296 210.67725L236.09984 210.56787Q236.24046 211.50537 236.75609 211.98975Q237.28734 212.4585 238.02171 212.4585Q238.91234 212.4585 239.52171 211.78662Q240.14671 211.11475 240.14671 210.021Q240.14671 208.9585 239.55296 208.34912Q238.95921 207.73975 238.00609 207.73975Q237.41234 207.73975 236.92796 208.021Q236.45921 208.28662 236.17796 208.7085L235.02171 208.56787L235.99046 203.41162L240.97484 203.41162L240.97484 204.59912L236.97484 204.59912L236.44359 207.28662Q237.34984 206.66162 238.33421 206.66162Q239.64671 206.66162 240.53734 207.56787Q241.44359 208.47412 241.44359 209.91162Q241.44359 211.271 240.66234 212.25537Q239.69359 213.47412 238.02171 213.47412Q236.66234 213.47412 235.78734 212.7085Q234.92796 211.94287 234.80296 210.67725ZM243.03734 205.69287Q243.03734 204.61475 243.56859 203.86475Q244.11546 203.11475 245.14671 203.11475Q246.08421 203.11475 246.69359 203.78662Q247.31859 204.4585 247.31859 205.75537Q247.31859 207.03662 246.69359 207.72412Q246.06859 208.41162 245.16234 208.41162Q244.25609 208.41162 243.64671 207.73975Q243.03734 207.05225 243.03734 205.69287ZM245.17796 203.9585Q244.72484 203.9585 244.41234 204.36475Q244.11546 204.75537 244.11546 205.80225Q244.11546 206.771 244.41234 207.16162Q244.72484 207.55225 245.17796 207.55225Q245.64671 207.55225 245.94359 207.16162Q246.25609 206.771 246.25609 205.7085Q246.25609 204.73975 245.94359 204.34912Q245.63109 203.9585 245.17796 203.9585ZM245.17796 213.67725L250.66234 203.11475L251.66234 203.11475L246.20921 213.67725L245.17796 213.67725ZM249.52171 210.94287Q249.52171 209.86475 250.05296 209.13037Q250.59984 208.38037 251.63109 208.38037Q252.56859 208.38037 253.19359 209.05225Q253.81859 209.72412 253.81859 211.021Q253.81859 212.30225 253.19359 212.98975Q252.56859 213.67725 251.63109 213.67725Q250.72484 213.67725 250.11546 213.00537Q249.52171 212.31787 249.52171 210.94287ZM251.66234 209.22412Q251.19359 209.22412 250.89671 209.63037Q250.59984 210.021 250.59984 211.06787Q250.59984 212.03662 250.89671 212.42725Q251.20921 212.81787 251.66234 212.81787Q252.13109 212.81787 252.42796 212.42725Q252.74046 212.03662 252.74046 210.97412Q252.74046 210.00537 252.42796 209.61475Q252.13109 209.22412 251.66234 209.22412Z" fill-rule="nonzero"/><path fill="#000000" d="M171.55392 135.02348L170.31955 135.02348L170.31955 127.17973Q169.88205 127.60161 169.14767 128.03911Q168.42892 128.46098 167.86642 128.66411L167.86642 127.47661Q168.89767 126.99223 169.6633 126.30473Q170.44455 125.61723 170.75705 124.96098L171.55392 124.96098L171.55392 135.02348ZM181.38205 133.83598L181.38205 135.02348L174.75705 135.02348Q174.74142 134.58598 174.89767 134.16411Q175.1633 133.49223 175.71017 132.83598Q176.27267 132.17973 177.31955 131.32036Q178.96017 129.97661 179.52267 129.19536Q180.1008 128.41411 180.1008 127.71098Q180.1008 126.97661 179.56955 126.47661Q179.05392 125.97661 178.2258 125.97661Q177.33517 125.97661 176.7883 126.50786Q176.25705 127.03911 176.25705 127.99223L174.99142 127.85161Q175.11642 126.44536 175.96017 125.71098Q176.81955 124.96098 178.24142 124.96098Q179.69455 124.96098 180.52267 125.75786Q181.36642 126.55473 181.36642 127.74223Q181.36642 128.35161 181.11642 128.92973Q180.88205 129.50786 180.30392 130.14848Q179.74142 130.78911 178.4133 131.91411Q177.30392 132.83598 176.99142 133.17973Q176.67892 133.50786 176.4758 133.83598L181.38205 133.83598ZM183.6008 135.02348L183.6008 133.61723L185.00705 133.61723L185.00705 135.02348L183.6008 135.02348ZM188.80392 129.58598Q188.0383 129.30473 187.6633 128.78911Q187.30392 128.27348 187.30392 127.53911Q187.30392 126.44536 188.08517 125.71098Q188.88205 124.96098 190.17892 124.96098Q191.49142 124.96098 192.2883 125.72661Q193.1008 126.49223 193.1008 127.58598Q193.1008 128.27348 192.7258 128.78911Q192.36642 129.30473 191.61642 129.58598Q192.5383 129.88286 193.02267 130.55473Q193.50705 131.22661 193.50705 132.16411Q193.50705 133.44536 192.6008 134.32036Q191.69455 135.19536 190.21017 135.19536Q188.7258 135.19536 187.80392 134.32036Q186.89767 133.42973 186.89767 132.11723Q186.89767 131.14848 187.39767 130.49223Q187.89767 129.82036 188.80392 129.58598ZM188.56955 127.50786Q188.56955 128.21098 189.02267 128.66411Q189.4758 129.11723 190.21017 129.11723Q190.92892 129.11723 191.38205 128.67973Q191.83517 128.22661 191.83517 127.57036Q191.83517 126.89848 191.36642 126.44536Q190.89767 125.97661 190.19455 125.97661Q189.49142 125.97661 189.02267 126.42973Q188.56955 126.86723 188.56955 127.50786ZM188.1633 132.13286Q188.1633 132.66411 188.4133 133.16411Q188.6633 133.64848 189.14767 133.91411Q189.64767 134.17973 190.2258 134.17973Q191.1008 134.17973 191.6633 133.61723Q192.24142 133.05473 192.24142 132.17973Q192.24142 131.28911 191.64767 130.71098Q191.06955 130.11723 190.17892 130.11723Q189.30392 130.11723 188.7258 130.69536Q188.1633 131.27348 188.1633 132.13286ZM195.14767 127.41411Q195.14767 126.33598 195.67892 125.58598Q196.2258 124.83598 197.25705 124.83598Q198.19455 124.83598 198.80392 125.50786Q199.42892 126.17973 199.42892 127.47661Q199.42892 128.75786 198.80392 129.44536Q198.17892 130.13286 197.27267 130.13286Q196.36642 130.13286 195.75705 129.46098Q195.14767 128.77348 195.14767 127.41411ZM197.2883 125.67973Q196.83517 125.67973 196.52267 126.08598Q196.2258 126.47661 196.2258 127.52348Q196.2258 128.49223 196.52267 128.88286Q196.83517 129.27348 197.2883 129.27348Q197.75705 129.27348 198.05392 128.88286Q198.36642 128.49223 198.36642 127.42973Q198.36642 126.46098 198.05392 126.07036Q197.74142 125.67973 197.2883 125.67973ZM197.2883 135.39848L202.77267 124.83598L203.77267 124.83598L198.31955 135.39848L197.2883 135.39848ZM201.63205 132.66411Q201.63205 131.58598 202.1633 130.85161Q202.71017 130.10161 203.74142 130.10161Q204.67892 130.10161 205.30392 130.77348Q205.92892 131.44536 205.92892 132.74223Q205.92892 134.02348 205.30392 134.71098Q204.67892 135.39848 203.74142 135.39848Q202.83517 135.39848 202.2258 134.72661Q201.63205 134.03911 201.63205 132.66411ZM203.77267 130.94536Q203.30392 130.94536 203.00705 131.35161Q202.71017 131.74223 202.71017 132.78911Q202.71017 133.75786 203.00705 134.14848Q203.31955 134.53911 203.77267 134.53911Q204.24142 134.53911 204.5383 134.14848Q204.8508 133.75786 204.8508 132.69536Q204.8508 131.72661 204.5383 131.33598Q204.24142 130.94536 203.77267 130.94536Z" fill-rule="nonzero"/><path fill="#4285f4" d="M28.2 251.8C28.2 255.11371 25.513708 257.8 22.2 257.8C18.886292 257.8 16.2 255.11371 16.2 251.8C16.2 248.4863 18.886292 245.8 22.2 245.8C25.513708 245.8 28.2 248.4863 28.2 251.8Z" fill-rule="nonzero"/><path fill="#1a1a1a" d="M37.121876 255.8L37.121876 247.20625L38.278126 247.20625L42.79375 253.95625L42.79375 247.20625L43.8875 247.20625L43.8875 255.8L42.715626 255.8L38.2 249.05L38.2 255.8L37.121876 255.8ZM45.60625 252.69063Q45.60625 250.95625 46.559376 250.12813Q47.35625 249.44063 48.5125 249.44063Q49.79375 249.44063 50.60625 250.28438Q51.434376 251.1125 51.434376 252.59688Q51.434376 253.8 51.075 254.4875Q50.715626 255.175 50.0125 255.56563Q49.325 255.94063 48.5125 255.94063Q47.215626 255.94063 46.403126 255.1125Q45.60625 254.26875 45.60625 252.69063ZM46.684376 252.69063Q46.684376 253.87813 47.2 254.47188Q47.73125 255.06563 48.5125 255.06563Q49.309376 255.06563 49.825 254.47188Q50.340626 253.87813 50.340626 252.65938Q50.340626 251.50313 49.809376 250.90938Q49.29375 250.31563 48.5125 250.31563Q47.73125 250.31563 47.2 250.90938Q46.684376 251.4875 46.684376 252.69063ZM52.996876 255.8L52.996876 249.58125L53.934376 249.58125L53.934376 250.45625Q54.621876 249.44063 55.91875 249.44063Q56.48125 249.44063 56.95 249.64375Q57.434376 249.84688 57.66875 250.175Q57.903126 250.50313 57.996876 250.94063Q58.04375 251.2375 58.04375 251.97188L58.04375 255.8L56.996876 255.8L56.996876 252.01875Q56.996876 251.3625 56.871876 251.05Q56.746876 250.7375 56.434376 250.55Q56.121876 250.34688 55.7 250.34688Q55.028126 250.34688 54.528126 250.78438Q54.04375 251.20625 54.04375 252.39375L54.04375 255.8L52.996876 255.8ZM62.575 253.94063L63.60625 253.78438Q63.7 254.40938 64.09062 254.7375Q64.49687 255.06563 65.23125 255.06563Q65.95 255.06563 66.29375 254.78438Q66.65312 254.4875 66.65312 254.08125Q66.65312 253.72188 66.34062 253.51875Q66.12187 253.37813 65.2625 253.15938Q64.10625 252.8625 63.653126 252.65938Q63.215626 252.44063 62.98125 252.06563Q62.746876 251.69063 62.746876 251.22188Q62.746876 250.81563 62.934376 250.45625Q63.121876 250.09688 63.45 249.8625Q63.7 249.69063 64.12187 249.56563Q64.54375 249.44063 65.04375 249.44063Q65.7625 249.44063 66.30937 249.65938Q66.87187 249.8625 67.1375 250.22188Q67.40312 250.58125 67.49687 251.175L66.46562 251.31563Q66.40312 250.84688 66.05937 250.58125Q65.73125 250.3 65.10625 250.3Q64.3875 250.3 64.075 250.55Q63.7625 250.78438 63.7625 251.1125Q63.7625 251.31563 63.8875 251.47188Q64.02812 251.64375 64.29375 251.75313Q64.45 251.81563 65.23125 252.01875Q66.35625 252.33125 66.79375 252.51875Q67.23125 252.70625 67.48125 253.06563Q67.73125 253.425 67.73125 253.97188Q67.73125 254.50313 67.41875 254.97188Q67.12187 255.425 66.54375 255.69063Q65.96562 255.94063 65.23125 255.94063Q64.0125 255.94063 63.371876 255.44063Q62.746876 254.925 62.575 253.94063ZM69.60625 252.69063Q69.60625 250.95625 70.55937 250.12813Q71.35625 249.44063 72.5125 249.44063Q73.79375 249.44063 74.60625 250.28438Q75.43437 251.1125 75.43437 252.59688Q75.43437 253.8 75.075 254.4875Q74.71562 255.175 74.0125 255.56563Q73.325 255.94063 72.5125 255.94063Q71.21562 255.94063 70.40312 255.1125Q69.60625 254.26875 69.60625 252.69063ZM70.68437 252.69063Q70.68437 253.87813 71.2 254.47188Q71.73125 255.06563 72.5125 255.06563Q73.30937 255.06563 73.825 254.47188Q74.34062 253.87813 74.34062 252.65938Q74.34062 251.50313 73.80937 250.90938Q73.29375 250.31563 72.5125 250.31563Q71.73125 250.31563 71.2 250.90938Q70.68437 251.4875 70.68437 252.69063Z" fill-rule="nonzero"/><path fill="#ea4335" d="M104.2 251.8C104.2 255.11371 101.51371 257.8 98.2 257.8C94.88629 257.8 92.2 255.11371 92.2 251.8C92.2 248.4863 94.88629 245.8 98.2 245.8C101.51371 245.8 104.2 248.4863 104.2 251.8Z" fill-rule="nonzero"/><path fill="#1a1a1a" d="M115.30937 255.8L115.30937 248.22188L112.48125 248.22188L112.48125 247.20625L119.29375 247.20625L119.29375 248.22188L116.45 248.22188L116.45 255.8L115.30937 255.8ZM119.99687 248.425L119.99687 247.20625L121.05937 247.20625L121.05937 248.425L119.99687 248.425ZM119.99687 255.8L119.99687 249.58125L121.05937 249.58125L121.05937 255.8L119.99687 255.8ZM122.99687 255.8L122.99687 249.58125L123.93437 249.58125L123.93437 250.45625Q124.23125 249.9875 124.71562 249.72188Q125.2 249.44063 125.825 249.44063Q126.5125 249.44063 126.95 249.72188Q127.40312 250.00313 127.575 250.51875Q128.325 249.44063 129.49687 249.44063Q130.43437 249.44063 130.91875 249.95625Q131.41875 250.45625 131.41875 251.53438L131.41875 255.8L130.37187 255.8L130.37187 251.87813Q130.37187 251.25313 130.2625 250.97188Q130.16875 250.69063 129.90312 250.51875Q129.6375 250.34688 129.2625 250.34688Q128.60625 250.34688 128.16875 250.78438Q127.74687 251.22188 127.74687 252.19063L127.74687 255.8L126.68437 255.8L126.68437 251.75313Q126.68437 251.05 126.41875 250.70625Q126.16875 250.34688 125.59062 250.34688Q125.1375 250.34688 124.7625 250.58125Q124.3875 250.81563 124.21562 251.26875Q124.04375 251.72188 124.04375 252.56563L124.04375 255.8L122.99687 255.8ZM133.99687 248.425L133.99687 247.20625L135.05937 247.20625L135.05937 248.425L133.99687 248.425ZM133.99687 255.8L133.99687 249.58125L135.05937 249.58125L135.05937 255.8L133.99687 255.8ZM141.02812 255.8L141.02812 255.01875Q140.43437 255.94063 139.29375 255.94063Q138.54375 255.94063 137.91875 255.53438Q137.29375 255.1125 136.95 254.37813Q136.60625 253.64375 136.60625 252.69063Q136.60625 251.76875 136.91875 251.00313Q137.23125 250.2375 137.85625 249.84688Q138.48125 249.44063 139.24687 249.44063Q139.80937 249.44063 140.24687 249.675Q140.68437 249.90938 140.96562 250.28438L140.96562 247.20625L142.0125 247.20625L142.0125 255.8L141.02812 255.8ZM137.7 252.69063Q137.7 253.89375 138.2 254.4875Q138.7 255.06563 139.3875 255.06563Q140.075 255.06563 140.55937 254.50313Q141.04375 253.94063 141.04375 252.78438Q141.04375 251.50313 140.54375 250.90938Q140.05937 250.31563 139.34062 250.31563Q138.6375 250.31563 138.16875 250.89375Q137.7 251.45625 137.7 252.69063ZM148.24687 253.8L149.34062 253.925Q149.09062 254.87813 148.3875 255.40938Q147.68437 255.94063 146.60625 255.94063Q145.24687 255.94063 144.43437 255.09688Q143.6375 254.25313 143.6375 252.7375Q143.6375 251.175 144.45 250.31563Q145.2625 249.44063 146.54375 249.44063Q147.79375 249.44063 148.575 250.28438Q149.37187 251.12813 149.37187 252.675Q149.37187 252.76875 149.37187 252.95625L144.73125 252.95625Q144.79375 253.9875 145.30937 254.53438Q145.825 255.06563 146.60625 255.06563Q147.18437 255.06563 147.59062 254.76875Q148.0125 254.45625 148.24687 253.8ZM144.79375 252.09688L148.2625 252.09688Q148.2 251.3 147.87187 250.90938Q147.35625 250.3 146.55937 250.3Q145.825 250.3 145.325 250.78438Q144.84062 251.26875 144.79375 252.09688ZM150.43437 255.8L150.43437 254.94063L154.40312 250.39375Q153.71562 250.425 153.2 250.425L150.66875 250.425L150.66875 249.58125L155.7625 249.58125L155.7625 250.26875L152.3875 254.22188L151.73125 254.94063Q152.45 254.89375 153.05937 254.89375L155.95 254.89375L155.95 255.8L150.43437 255.8ZM155.43437 255.8L155.43437 254.94063L159.40312 250.39375Q158.71562 250.425 158.2 250.425L155.66875 250.425L155.66875 249.58125L160.7625 249.58125L160.7625 250.26875L157.3875 254.22188L156.73125 254.94063Q157.45 254.89375 158.05937 254.89375L160.95 254.89375L160.95 255.8L155.43437 255.8ZM165.05937 255.03438Q164.46562 255.53438 163.91875 255.7375Q163.3875 255.94063 162.7625 255.94063Q161.73125 255.94063 161.18437 255.44063Q160.6375 254.94063 160.6375 254.15938Q160.6375 253.70625 160.84062 253.33125Q161.04375 252.94063 161.3875 252.72188Q161.73125 252.4875 162.15312 252.37813Q162.45 252.28438 163.09062 252.20625Q164.35625 252.06563 164.96562 251.84688Q164.96562 251.62813 164.96562 251.58125Q164.96562 250.925 164.66875 250.65938Q164.2625 250.31563 163.46562 250.31563Q162.73125 250.31563 162.37187 250.58125Q162.0125 250.83125 161.84062 251.4875L160.80937 251.34688Q160.95 250.69063 161.27812 250.28438Q161.60625 249.87813 162.21562 249.65938Q162.825 249.44063 163.62187 249.44063Q164.41875 249.44063 164.91875 249.62813Q165.41875 249.81563 165.65312 250.09688Q165.8875 250.37813 165.98125 250.81563Q166.02812 251.08125 166.02812 251.78438L166.02812 253.19063Q166.02812 254.65938 166.09062 255.05Q166.16875 255.44063 166.37187 255.8L165.2625 255.8Q165.10625 255.47188 165.05937 255.03438ZM164.96562 252.675Q164.3875 252.90938 163.24687 253.08125Q162.59062 253.175 162.325 253.3Q162.05937 253.40938 161.90312 253.62813Q161.7625 253.84688 161.7625 254.12813Q161.7625 254.55 162.075 254.83125Q162.40312 255.1125 163.0125 255.1125Q163.62187 255.1125 164.09062 254.84688Q164.575 254.58125 164.79375 254.1125Q164.96562 253.75313 164.96562 253.06563L164.96562 252.675Z" fill-rule="nonzero"/><path fill="#fbbc04" d="M195.2 251.8C195.2 255.11371 192.5137 257.8 189.2 257.8C185.88629 257.8 183.2 255.11371 183.2 251.8C183.2 248.4863 185.88629 245.8 189.2 245.8C192.5137 245.8 195.2 248.4863 195.2 251.8Z" fill-rule="nonzero"/><path fill="#1a1a1a" d="M210.2625 252.78438L211.3875 253.08125Q211.02812 254.47188 210.10625 255.20625Q209.18437 255.94063 207.84062 255.94063Q206.45 255.94063 205.575 255.37813Q204.7 254.81563 204.24687 253.75313Q203.79375 252.675 203.79375 251.44063Q203.79375 250.09688 204.30937 249.09688Q204.825 248.09688 205.7625 247.58125Q206.71562 247.06563 207.85625 247.06563Q209.1375 247.06563 210.0125 247.72188Q210.90312 248.37813 211.24687 249.56563L210.12187 249.83125Q209.825 248.89375 209.24687 248.47188Q208.68437 248.03438 207.825 248.03438Q206.84062 248.03438 206.16875 248.51875Q205.5125 248.9875 205.23125 249.78438Q204.96562 250.58125 204.96562 251.44063Q204.96562 252.53438 205.27812 253.34688Q205.60625 254.15938 206.27812 254.56563Q206.95 254.97188 207.74687 254.97188Q208.7 254.97188 209.35625 254.425Q210.02812 253.87813 210.2625 252.78438ZM217.05937 255.03438Q216.46562 255.53438 215.91875 255.7375Q215.3875 255.94063 214.7625 255.94063Q213.73125 255.94063 213.18437 255.44063Q212.6375 254.94063 212.6375 254.15938Q212.6375 253.70625 212.84062 253.33125Q213.04375 252.94063 213.3875 252.72188Q213.73125 252.4875 214.15312 252.37813Q214.45 252.28438 215.09062 252.20625Q216.35625 252.06563 216.96562 251.84688Q216.96562 251.62813 216.96562 251.58125Q216.96562 250.925 216.66875 250.65938Q216.2625 250.31563 215.46562 250.31563Q214.73125 250.31563 214.37187 250.58125Q214.0125 250.83125 213.84062 251.4875L212.80937 251.34688Q212.95 250.69063 213.27812 250.28438Q213.60625 249.87813 214.21562 249.65938Q214.825 249.44063 215.62187 249.44063Q216.41875 249.44063 216.91875 249.62813Q217.41875 249.81563 217.65312 250.09688Q217.8875 250.37813 217.98125 250.81563Q218.02812 251.08125 218.02812 251.78438L218.02812 253.19063Q218.02812 254.65938 218.09062 255.05Q218.16875 255.44063 218.37187 255.8L217.2625 255.8Q217.10625 255.47188 217.05937 255.03438ZM216.96562 252.675Q216.3875 252.90938 215.24687 253.08125Q214.59062 253.175 214.325 253.3Q214.05937 253.40938 213.90312 253.62813Q213.7625 253.84688 213.7625 254.12813Q213.7625 254.55 214.075 254.83125Q214.40312 255.1125 215.0125 255.1125Q215.62187 255.1125 216.09062 254.84688Q216.575 254.58125 216.79375 254.1125Q216.96562 253.75313 216.96562 253.06563L216.96562 252.675ZM219.98125 255.8L219.98125 249.58125L220.93437 249.58125L220.93437 250.51875Q221.29375 249.8625 221.59062 249.65938Q221.90312 249.44063 222.27812 249.44063Q222.80937 249.44063 223.35625 249.76875L222.99687 250.75313Q222.60625 250.51875 222.23125 250.51875Q221.87187 250.51875 221.59062 250.7375Q221.325 250.94063 221.21562 251.31563Q221.02812 251.87813 221.02812 252.53438L221.02812 255.8L219.98125 255.8ZM223.99687 248.425L223.99687 247.20625L225.05937 247.20625L225.05937 248.425L223.99687 248.425ZM223.99687 255.8L223.99687 249.58125L225.05937 249.58125L225.05937 255.8L223.99687 255.8ZM231.05937 253.51875L232.09062 253.65938Q231.91875 254.72188 231.21562 255.33125Q230.5125 255.94063 229.49687 255.94063Q228.21562 255.94063 227.43437 255.1125Q226.66875 254.26875 226.66875 252.70625Q226.66875 251.70625 226.99687 250.95625Q227.34062 250.19063 228.0125 249.81563Q228.7 249.44063 229.5125 249.44063Q230.5125 249.44063 231.15312 249.95625Q231.80937 250.45625 231.99687 251.40938L230.96562 251.56563Q230.825 250.94063 230.45 250.62813Q230.075 250.3 229.54375 250.3Q228.74687 250.3 228.24687 250.87813Q227.74687 251.44063 227.74687 252.675Q227.74687 253.94063 228.23125 254.50313Q228.71562 255.06563 229.48125 255.06563Q230.10625 255.06563 230.5125 254.69063Q230.93437 254.31563 231.05937 253.51875ZM232.60625 252.69063Q232.60625 250.95625 233.55937 250.12813Q234.35625 249.44063 235.5125 249.44063Q236.79375 249.44063 237.60625 250.28438Q238.43437 251.1125 238.43437 252.59688Q238.43437 253.8 238.075 254.4875Q237.71562 255.175 237.0125 255.56563Q236.325 255.94063 235.5125 255.94063Q234.21562 255.94063 233.40312 255.1125Q232.60625 254.26875 232.60625 252.69063ZM233.68437 252.69063Q233.68437 253.87813 234.2 254.47188Q234.73125 255.06563 235.5125 255.06563Q236.30937 255.06563 236.825 254.47188Q237.34062 253.87813 237.34062 252.65938Q237.34062 251.50313 236.80937 250.90938Q236.29375 250.31563 235.5125 250.31563Q234.73125 250.31563 234.2 250.90938Q233.68437 251.4875 233.68437 252.69063ZM247.02812 255.8L247.02812 255.01875Q246.43437 255.94063 245.29375 255.94063Q244.54375 255.94063 243.91875 255.53438Q243.29375 255.1125 242.95 254.37813Q242.60625 253.64375 242.60625 252.69063Q242.60625 251.76875 242.91875 251.00313Q243.23125 250.2375 243.85625 249.84688Q244.48125 249.44063 245.24687 249.44063Q245.80937 249.44063 246.24687 249.675Q246.68437 249.90938 246.96562 250.28438L246.96562 247.20625L248.0125 247.20625L248.0125 255.8L247.02812 255.8ZM243.7 252.69063Q243.7 253.89375 244.2 254.4875Q244.7 255.06563 245.3875 255.06563Q246.075 255.06563 246.55937 254.50313Q247.04375 253.94063 247.04375 252.78438Q247.04375 251.50313 246.54375 250.90938Q246.05937 250.31563 245.34062 250.31563Q244.6375 250.31563 244.16875 250.89375Q243.7 251.45625 243.7 252.69063ZM249.99687 248.425L249.99687 247.20625L251.05937 247.20625L251.05937 248.425L249.99687 248.425ZM249.99687 255.8L249.99687 249.58125L251.05937 249.58125L251.05937 255.8L249.99687 255.8ZM255.575 253.94063L256.60626 253.78438Q256.7 254.40938 257.09064 254.7375Q257.4969 255.06563 258.23126 255.06563Q258.95 255.06563 259.29376 254.78438Q259.65314 254.4875 259.65314 254.08125Q259.65314 253.72188 259.34064 253.51875Q259.1219 253.37813 258.2625 253.15938Q257.10626 252.8625 256.65314 252.65938Q256.21564 252.44063 255.98125 252.06563Q255.74687 251.69063 255.74687 251.22188Q255.74687 250.81563 255.93437 250.45625Q256.1219 250.09688 256.45 249.8625Q256.7 249.69063 257.1219 249.56563Q257.54376 249.44063 258.04376 249.44063Q258.7625 249.44063 259.3094 249.65938Q259.8719 249.8625 260.1375 250.22188Q260.40314 250.58125 260.4969 251.175L259.46564 251.31563Q259.40314 250.84688 259.0594 250.58125Q258.73126 250.3 258.10626 250.3Q257.3875 250.3 257.075 250.55Q256.7625 250.78438 256.7625 251.1125Q256.7625 251.31563 256.8875 251.47188Q257.02814 251.64375 257.29376 251.75313Q257.45 251.81563 258.23126 252.01875Q259.35626 252.33125 259.79376 252.51875Q260.23126 252.70625 260.48126 253.06563Q260.73126 253.425 260.73126 253.97188Q260.73126 254.50313 260.41876 254.97188Q260.1219 255.425 259.54376 255.69063Q258.96564 255.94063 258.23126 255.94063Q257.0125 255.94063 256.3719 255.44063Q255.74687 254.925 255.575 253.94063ZM265.29376 254.8625L265.45 255.78438Q264.9969 255.87813 264.65314 255.87813Q264.075 255.87813 263.7625 255.70625Q263.45 255.51875 263.3094 255.22188Q263.1844 254.925 263.1844 253.97188L263.1844 250.39375L262.41876 250.39375L262.41876 249.58125L263.1844 249.58125L263.1844 248.03438L264.23126 247.40938L264.23126 249.58125L265.29376 249.58125L265.29376 250.39375L264.23126 250.39375L264.23126 254.03438Q264.23126 254.4875 264.27814 254.6125Q264.34064 254.7375 264.46564 254.81563Q264.59064 254.89375 264.825 254.89375Q265.0125 254.89375 265.29376 254.8625ZM270.075 255.8L270.075 254.87813Q269.34064 255.94063 268.09064 255.94063Q267.54376 255.94063 267.0594 255.7375Q266.59064 255.51875 266.35626 255.20625Q266.1219 254.87813 266.02814 254.40938Q265.96564 254.1125 265.96564 253.425L265.96564 249.58125L267.02814 249.58125L267.02814 253.03438Q267.02814 253.84688 267.09064 254.14375Q267.1844 254.55 267.4969 254.8Q267.825 255.03438 268.3094 255.03438Q268.77814 255.03438 269.1844 254.8Q269.60626 254.55 269.77814 254.12813Q269.96564 253.70625 269.96564 252.90938L269.96564 249.58125L271.0125 249.58125L271.0125 255.8L270.075 255.8ZM277.02814 255.8L277.02814 255.01875Q276.4344 255.94063 275.29376 255.94063Q274.54376 255.94063 273.91876 255.53438Q273.29376 255.1125 272.95 254.37813Q272.60626 253.64375 272.60626 252.69063Q272.60626 251.76875 272.91876 251.00313Q273.23126 250.2375 273.85626 249.84688Q274.48126 249.44063 275.2469 249.44063Q275.8094 249.44063 276.2469 249.675Q276.6844 249.90938 276.96564 250.28438L276.96564 247.20625L278.0125 247.20625L278.0125 255.8L277.02814 255.8ZM273.7 252.69063Q273.7 253.89375 274.2 254.4875Q274.7 255.06563 275.3875 255.06563Q276.075 255.06563 276.5594 254.50313Q277.04376 253.94063 277.04376 252.78438Q277.04376 251.50313 276.54376 250.90938Q276.0594 250.31563 275.34064 250.31563Q274.6375 250.31563 274.16876 250.89375Q273.7 251.45625 273.7 252.69063ZM279.9969 248.425L279.9969 247.20625L281.0594 247.20625L281.0594 248.425L279.9969 248.425ZM279.9969 255.8L279.9969 249.58125L281.0594 249.58125L281.0594 255.8L279.9969 255.8Z" fill-rule="nonzero"/><path fill="#34a853" d="M310.2 251.8C310.2 255.11371 307.5137 257.8 304.2 257.8C300.8863 257.8 298.2 255.11371 298.2 251.8C298.2 248.4863 300.8863 245.8 304.2 245.8C307.5137 245.8 310.2 248.4863 310.2 251.8Z" fill-rule="nonzero"/><path fill="#1a1a1a" d="M318.1844 255.8L321.48126 247.20625L322.7 247.20625L326.21564 255.8L324.9344 255.8L323.91876 253.19063L320.34064 253.19063L319.3875 255.8L318.1844 255.8ZM320.66876 252.26875L323.575 252.26875L322.6844 249.89375Q322.2625 248.81563 322.075 248.1125Q321.90314 248.94063 321.60626 249.75313L320.66876 252.26875ZM325.98126 255.8L325.98126 249.58125L326.9344 249.58125L326.9344 250.51875Q327.29376 249.8625 327.59064 249.65938Q327.90314 249.44063 328.27814 249.44063Q328.8094 249.44063 329.35626 249.76875L328.9969 250.75313Q328.60626 250.51875 328.23126 250.51875Q327.8719 250.51875 327.59064 250.7375Q327.325 250.94063 327.21564 251.31563Q327.02814 251.87813 327.02814 252.53438L327.02814 255.8L325.98126 255.8ZM329.79376 256.3156L330.825 256.47186Q330.8875 256.9406 331.1844 257.15936Q331.575 257.45624 332.2469 257.45624Q332.98126 257.45624 333.3719 257.15936Q333.77814 256.8625 333.91876 256.34686Q334.0125 256.01874 333.9969 254.9875Q333.3094 255.8 332.27814 255.8Q330.9969 255.8 330.29376 254.87813Q329.59064 253.94063 329.59064 252.65938Q329.59064 251.76875 329.90314 251.01875Q330.23126 250.25313 330.84064 249.84688Q331.45 249.44063 332.27814 249.44063Q333.3875 249.44063 334.10626 250.33125L334.10626 249.58125L335.075 249.58125L335.075 254.95625Q335.075 256.40936 334.77814 257.01874Q334.48126 257.6281 333.84064 257.97186Q333.2 258.33124 332.2625 258.33124Q331.15314 258.33124 330.46564 257.83124Q329.77814 257.33124 329.79376 256.3156ZM330.66876 252.58125Q330.66876 253.8 331.15314 254.3625Q331.6375 254.925 332.3719 254.925Q333.10626 254.925 333.59064 254.3625Q334.09064 253.8 334.09064 252.6125Q334.09064 251.47188 333.575 250.89375Q333.075 250.31563 332.35626 250.31563Q331.65314 250.31563 331.15314 250.89375Q330.66876 251.45625 330.66876 252.58125ZM336.60626 252.69063Q336.60626 250.95625 337.5594 250.12813Q338.35626 249.44063 339.5125 249.44063Q340.79376 249.44063 341.60626 250.28438Q342.4344 251.1125 342.4344 252.59688Q342.4344 253.8 342.075 254.4875Q341.71564 255.175 341.0125 255.56563Q340.325 255.94063 339.5125 255.94063Q338.21564 255.94063 337.40314 255.1125Q336.60626 254.26875 336.60626 252.69063ZM337.6844 252.69063Q337.6844 253.87813 338.2 254.47188Q338.73126 255.06563 339.5125 255.06563Q340.3094 255.06563 340.825 254.47188Q341.34064 253.87813 341.34064 252.65938Q341.34064 251.50313 340.8094 250.90938Q340.29376 250.31563 339.5125 250.31563Q338.73126 250.31563 338.2 250.90938Q337.6844 251.4875 337.6844 252.69063ZM343.9969 255.8L343.9969 249.58125L344.9344 249.58125L344.9344 250.45625Q345.23126 249.9875 345.71564 249.72188Q346.2 249.44063 346.825 249.44063Q347.5125 249.44063 347.95 249.72188Q348.40314 250.00313 348.575 250.51875Q349.325 249.44063 350.4969 249.44063Q351.4344 249.44063 351.91876 249.95625Q352.41876 250.45625 352.41876 251.53438L352.41876 255.8L351.3719 255.8L351.3719 251.87813Q351.3719 251.25313 351.2625 250.97188Q351.16876 250.69063 350.90314 250.51875Q350.6375 250.34688 350.2625 250.34688Q349.60626 250.34688 349.16876 250.78438Q348.7469 251.22188 348.7469 252.19063L348.7469 255.8L347.6844 255.8L347.6844 251.75313Q347.6844 251.05 347.41876 250.70625Q347.16876 250.34688 346.59064 250.34688Q346.1375 250.34688 345.7625 250.58125Q345.3875 250.81563 345.21564 251.26875Q345.04376 251.72188 345.04376 252.56563L345.04376 255.8L343.9969 255.8ZM359.2469 253.8L360.34064 253.925Q360.09064 254.87813 359.3875 255.40938Q358.6844 255.94063 357.60626 255.94063Q356.2469 255.94063 355.4344 255.09688Q354.6375 254.25313 354.6375 252.7375Q354.6375 251.175 355.45 250.31563Q356.2625 249.44063 357.54376 249.44063Q358.79376 249.44063 359.575 250.28438Q360.3719 251.12813 360.3719 252.675Q360.3719 252.76875 360.3719 252.95625L355.73126 252.95625Q355.79376 253.9875 356.3094 254.53438Q356.825 255.06563 357.60626 255.06563Q358.1844 255.06563 358.59064 254.76875Q359.0125 254.45625 359.2469 253.8ZM355.79376 252.09688L359.2625 252.09688Q359.2 251.3 358.8719 250.90938Q358.35626 250.3 357.5594 250.3Q356.825 250.3 356.325 250.78438Q355.84064 251.26875 355.79376 252.09688ZM361.9969 255.8L361.9969 249.58125L362.9344 249.58125L362.9344 250.45625Q363.6219 249.44063 364.91876 249.44063Q365.48126 249.44063 365.95 249.64375Q366.4344 249.84688 366.66876 250.175Q366.90314 250.50313 366.9969 250.94063Q367.04376 251.2375 367.04376 251.97188L367.04376 255.8L365.9969 255.8L365.9969 252.01875Q365.9969 251.3625 365.8719 251.05Q365.7469 250.7375 365.4344 250.55Q365.1219 250.34688 364.7 250.34688Q364.02814 250.34688 363.52814 250.78438Q363.04376 251.20625 363.04376 252.39375L363.04376 255.8L361.9969 255.8ZM371.29376 254.8625L371.45 255.78438Q370.9969 255.87813 370.65314 255.87813Q370.075 255.87813 369.7625 255.70625Q369.45 255.51875 369.3094 255.22188Q369.1844 254.925 369.1844 253.97188L369.1844 250.39375L368.41876 250.39375L368.41876 249.58125L369.1844 249.58125L369.1844 248.03438L370.23126 247.40938L370.23126 249.58125L371.29376 249.58125L371.29376 250.39375L370.23126 250.39375L370.23126 254.03438Q370.23126 254.4875 370.27814 254.6125Q370.34064 254.7375 370.46564 254.81563Q370.59064 254.89375 370.825 254.89375Q371.0125 254.89375 371.29376 254.8625ZM371.9969 248.425L371.9969 247.20625L373.0594 247.20625L373.0594 248.425L371.9969 248.425ZM371.9969 255.8L371.9969 249.58125L373.0594 249.58125L373.0594 255.8L371.9969 255.8ZM382.0594 253.51875L383.09064 253.65938Q382.91876 254.72188 382.21564 255.33125Q381.5125 255.94063 380.4969 255.94063Q379.21564 255.94063 378.4344 255.1125Q377.66876 254.26875 377.66876 252.70625Q377.66876 251.70625 377.9969 250.95625Q378.34064 250.19063 379.0125 249.81563Q379.7 249.44063 380.5125 249.44063Q381.5125 249.44063 382.15314 249.95625Q382.8094 250.45625 382.9969 251.40938L381.96564 251.56563Q381.825 250.94063 381.45 250.62813Q381.075 250.3 380.54376 250.3Q379.7469 250.3 379.2469 250.87813Q378.7469 251.44063 378.7469 252.675Q378.7469 253.94063 379.23126 254.50313Q379.71564 255.06563 380.48126 255.06563Q381.10626 255.06563 381.5125 254.69063Q381.9344 254.31563 382.0594 253.51875ZM383.9969 255.8L383.9969 247.20625L385.04376 247.20625L385.04376 250.28438Q385.77814 249.44063 386.90314 249.44063Q387.60626 249.44063 388.10626 249.72188Q388.6219 249.9875 388.84064 250.47188Q389.0594 250.94063 389.0594 251.8625L389.0594 255.8L388.0125 255.8L388.0125 251.8625Q388.0125 251.06563 387.66876 250.70625Q387.325 250.34688 386.7 250.34688Q386.23126 250.34688 385.8094 250.59688Q385.40314 250.83125 385.21564 251.25313Q385.04376 251.65938 385.04376 252.39375L385.04376 255.8L383.9969 255.8ZM390.9969 248.425L390.9969 247.20625L392.0594 247.20625L392.0594 248.425L390.9969 248.425ZM390.9969 255.8L390.9969 249.58125L392.0594 249.58125L392.0594 255.8L390.9969 255.8ZM398.0594 255.03438Q397.46564 255.53438 396.91876 255.7375Q396.3875 255.94063 395.7625 255.94063Q394.73126 255.94063 394.1844 255.44063Q393.6375 254.94063 393.6375 254.15938Q393.6375 253.70625 393.84064 253.33125Q394.04376 252.94063 394.3875 252.72188Q394.73126 252.4875 395.15314 252.37813Q395.45 252.28438 396.09064 252.20625Q397.35626 252.06563 397.96564 251.84688Q397.96564 251.62813 397.96564 251.58125Q397.96564 250.925 397.66876 250.65938Q397.2625 250.31563 396.46564 250.31563Q395.73126 250.31563 395.3719 250.58125Q395.0125 250.83125 394.84064 251.4875L393.8094 251.34688Q393.95 250.69063 394.27814 250.28438Q394.60626 249.87813 395.21564 249.65938Q395.825 249.44063 396.6219 249.44063Q397.41876 249.44063 397.91876 249.62813Q398.41876 249.81563 398.65314 250.09688Q398.8875 250.37813 398.98126 250.81563Q399.02814 251.08125 399.02814 251.78438L399.02814 253.19063Q399.02814 254.65938 399.09064 255.05Q399.16876 255.44063 399.3719 255.8L398.2625 255.8Q398.10626 255.47188 398.0594 255.03438ZM397.96564 252.675Q397.3875 252.90938 396.2469 253.08125Q395.59064 253.175 395.325 253.3Q395.0594 253.40938 394.90314 253.62813Q394.7625 253.84688 394.7625 254.12813Q394.7625 254.55 395.075 254.83125Q395.40314 255.1125 396.0125 255.1125Q396.6219 255.1125 397.09064 254.84688Q397.575 254.58125 397.79376 254.1125Q397.96564 253.75313 397.96564 253.06563L397.96564 252.675ZM400.98126 255.8L400.98126 249.58125L401.9344 249.58125L401.9344 250.51875Q402.29376 249.8625 402.59064 249.65938Q402.90314 249.44063 403.27814 249.44063Q403.8094 249.44063 404.35626 249.76875L403.9969 250.75313Q403.60626 250.51875 403.23126 250.51875Q402.8719 250.51875 402.59064 250.7375Q402.325 250.94063 402.21564 251.31563Q402.02814 251.87813 402.02814 252.53438L402.02814 255.8L400.98126 255.8ZM404.9969 248.425L404.9969 247.20625L406.0594 247.20625L406.0594 248.425L404.9969 248.425ZM404.9969 255.8L404.9969 249.58125L406.0594 249.58125L406.0594 255.8L404.9969 255.8Z" fill-rule="nonzero"/><path fill="#ff6d01" d="M152.2 269.8C152.2 273.1137 149.5137 275.8 146.2 275.8C142.88629 275.8 140.2 273.1137 140.2 269.8C140.2 266.4863 142.88629 263.8 146.2 263.8C149.5137 263.8 152.2 266.4863 152.2 269.8Z" fill-rule="nonzero"/><path fill="#1a1a1a" d="M167.2625 270.78436L168.3875 271.08124Q168.02812 272.47186 167.10625 273.20624Q166.18437 273.9406 164.84062 273.9406Q163.45 273.9406 162.575 273.3781Q161.7 272.8156 161.24687 271.7531Q160.79375 270.675 160.79375 269.4406Q160.79375 268.09686 161.30937 267.09686Q161.825 266.09686 162.7625 265.58124Q163.71562 265.0656 164.85625 265.0656Q166.1375 265.0656 167.0125 265.72186Q167.90312 266.3781 168.24687 267.5656L167.12187 267.83124Q166.825 266.89374 166.24687 266.47186Q165.68437 266.03436 164.825 266.03436Q163.84062 266.03436 163.16875 266.51874Q162.5125 266.9875 162.23125 267.78436Q161.96562 268.58124 161.96562 269.4406Q161.96562 270.53436 162.27812 271.34686Q162.60625 272.15936 163.27812 272.5656Q163.95 272.97186 164.74687 272.97186Q165.7 272.97186 166.35625 272.425Q167.02812 271.8781 167.2625 270.78436ZM169.60625 270.6906Q169.60625 268.95624 170.55937 268.1281Q171.35625 267.4406 172.5125 267.4406Q173.79375 267.4406 174.60625 268.28436Q175.43437 269.1125 175.43437 270.59686Q175.43437 271.8 175.075 272.4875Q174.71562 273.175 174.0125 273.5656Q173.325 273.9406 172.5125 273.9406Q171.21562 273.9406 170.40312 273.1125Q169.60625 272.26874 169.60625 270.6906ZM170.68437 270.6906Q170.68437 271.8781 171.2 272.47186Q171.73125 273.0656 172.5125 273.0656Q173.30937 273.0656 173.825 272.47186Q174.34062 271.8781 174.34062 270.65936Q174.34062 269.5031 173.80937 268.90936Q173.29375 268.3156 172.5125 268.3156Q171.73125 268.3156 171.2 268.90936Q170.68437 269.4875 170.68437 270.6906ZM176.99687 273.8L176.99687 267.58124L177.93437 267.58124L177.93437 268.45624Q178.62187 267.4406 179.91875 267.4406Q180.48125 267.4406 180.95 267.64374Q181.43437 267.84686 181.66875 268.175Q181.90312 268.5031 181.99687 268.9406Q182.04375 269.2375 182.04375 269.97186L182.04375 273.8L180.99687 273.8L180.99687 270.01874Q180.99687 269.3625 180.87187 269.05Q180.74687 268.7375 180.43437 268.55Q180.12187 268.34686 179.7 268.34686Q179.02812 268.34686 178.52812 268.78436Q178.04375 269.20624 178.04375 270.39374L178.04375 273.8L176.99687 273.8ZM184.24687 273.8L184.24687 268.39374L183.30937 268.39374L183.30937 267.58124L184.24687 267.58124L184.24687 266.90936Q184.24687 266.28436 184.35625 265.9875Q184.5125 265.5656 184.8875 265.3156Q185.27812 265.0656 185.96562 265.0656Q186.41875 265.0656 186.95 265.175L186.79375 266.08124Q186.46562 266.03436 186.16875 266.03436Q185.68437 266.03436 185.48125 266.2375Q185.29375 266.4406 185.29375 267.0031L185.29375 267.58124L186.5125 267.58124L186.5125 268.39374L185.29375 268.39374L185.29375 273.8L184.24687 273.8ZM191.075 273.8L191.075 272.8781Q190.34062 273.9406 189.09062 273.9406Q188.54375 273.9406 188.05937 273.7375Q187.59062 273.51874 187.35625 273.20624Q187.12187 272.8781 187.02812 272.40936Q186.96562 272.1125 186.96562 271.425L186.96562 267.58124L188.02812 267.58124L188.02812 271.03436Q188.02812 271.84686 188.09062 272.14374Q188.18437 272.55 188.49687 272.8Q188.825 273.03436 189.30937 273.03436Q189.77812 273.03436 190.18437 272.8Q190.60625 272.55 190.77812 272.1281Q190.96562 271.70624 190.96562 270.90936L190.96562 267.58124L192.0125 267.58124L192.0125 273.8L191.075 273.8ZM193.575 271.9406L194.60625 271.78436Q194.7 272.40936 195.09062 272.7375Q195.49687 273.0656 196.23125 273.0656Q196.95 273.0656 197.29375 272.78436Q197.65312 272.4875 197.65312 272.08124Q197.65312 271.72186 197.34062 271.51874Q197.12187 271.3781 196.2625 271.15936Q195.10625 270.8625 194.65312 270.65936Q194.21562 270.4406 193.98125 270.0656Q193.74687 269.6906 193.74687 269.22186Q193.74687 268.8156 193.93437 268.45624Q194.12187 268.09686 194.45 267.8625Q194.7 267.6906 195.12187 267.5656Q195.54375 267.4406 196.04375 267.4406Q196.7625 267.4406 197.30937 267.65936Q197.87187 267.8625 198.1375 268.22186Q198.40312 268.58124 198.49687 269.175L197.46562 269.3156Q197.40312 268.84686 197.05937 268.58124Q196.73125 268.3 196.10625 268.3Q195.3875 268.3 195.075 268.55Q194.7625 268.78436 194.7625 269.1125Q194.7625 269.3156 194.8875 269.47186Q195.02812 269.64374 195.29375 269.7531Q195.45 269.8156 196.23125 270.01874Q197.35625 270.33124 197.79375 270.51874Q198.23125 270.70624 198.48125 271.0656Q198.73125 271.425 198.73125 271.97186Q198.73125 272.5031 198.41875 272.97186Q198.12187 273.425 197.54375 273.6906Q196.96562 273.9406 196.23125 273.9406Q195.0125 273.9406 194.37187 273.4406Q193.74687 272.925 193.575 271.9406ZM200.99687 266.425L200.99687 265.20624L202.05937 265.20624L202.05937 266.425L200.99687 266.425ZM200.99687 273.8L200.99687 267.58124L202.05937 267.58124L202.05937 273.8L200.99687 273.8ZM203.60625 270.6906Q203.60625 268.95624 204.55937 268.1281Q205.35625 267.4406 206.5125 267.4406Q207.79375 267.4406 208.60625 268.28436Q209.43437 269.1125 209.43437 270.59686Q209.43437 271.8 209.075 272.4875Q208.71562 273.175 208.0125 273.5656Q207.325 273.9406 206.5125 273.9406Q205.21562 273.9406 204.40312 273.1125Q203.60625 272.26874 203.60625 270.6906ZM204.68437 270.6906Q204.68437 271.8781 205.2 272.47186Q205.73125 273.0656 206.5125 273.0656Q207.30937 273.0656 207.825 272.47186Q208.34062 271.8781 208.34062 270.65936Q208.34062 269.5031 207.80937 268.90936Q207.29375 268.3156 206.5125 268.3156Q205.73125 268.3156 205.2 268.90936Q204.68437 269.4875 204.68437 270.6906ZM210.99687 273.8L210.99687 267.58124L211.93437 267.58124L211.93437 268.45624Q212.62187 267.4406 213.91875 267.4406Q214.48125 267.4406 214.95 267.64374Q215.43437 267.84686 215.66875 268.175Q215.90312 268.5031 215.99687 268.9406Q216.04375 269.2375 216.04375 269.97186L216.04375 273.8L214.99687 273.8L214.99687 270.01874Q214.99687 269.3625 214.87187 269.05Q214.74687 268.7375 214.43437 268.55Q214.12187 268.34686 213.7 268.34686Q213.02812 268.34686 212.52812 268.78436Q212.04375 269.20624 212.04375 270.39374L212.04375 273.8L210.99687 273.8ZM222.24687 271.8L223.34062 271.925Q223.09062 272.8781 222.3875 273.40936Q221.68437 273.9406 220.60625 273.9406Q219.24687 273.9406 218.43437 273.09686Q217.6375 272.2531 217.6375 270.7375Q217.6375 269.175 218.45 268.3156Q219.2625 267.4406 220.54375 267.4406Q221.79375 267.4406 222.575 268.28436Q223.37187 269.1281 223.37187 270.675Q223.37187 270.76874 223.37187 270.95624L218.73125 270.95624Q218.79375 271.9875 219.30937 272.53436Q219.825 273.0656 220.60625 273.0656Q221.18437 273.0656 221.59062 272.76874Q222.0125 272.45624 222.24687 271.8ZM218.79375 270.09686L222.2625 270.09686Q222.2 269.3 221.87187 268.90936Q221.35625 268.3 220.55937 268.3Q219.825 268.3 219.325 268.78436Q218.84062 269.26874 218.79375 270.09686Z" fill-rule="nonzero"/><path fill="#46bdc6" d="M252.2 269.8C252.2 273.1137 249.5137 275.8 246.2 275.8C242.88629 275.8 240.2 273.1137 240.2 269.8C240.2 266.4863 242.88629 263.8 246.2 263.8C249.5137 263.8 252.2 266.4863 252.2 269.8Z" fill-rule="nonzero"/><path fill="#1a1a1a" d="M261.1844 273.8L261.1844 265.20624L266.98126 265.20624L266.98126 266.22186L262.325 266.22186L262.325 268.8781L266.35626 268.8781L266.35626 269.89374L262.325 269.89374L262.325 273.8L261.1844 273.8ZM272.0594 273.03436Q271.46564 273.53436 270.91876 273.7375Q270.3875 273.9406 269.7625 273.9406Q268.73126 273.9406 268.1844 273.4406Q267.6375 272.9406 267.6375 272.15936Q267.6375 271.70624 267.84064 271.33124Q268.04376 270.9406 268.3875 270.72186Q268.73126 270.4875 269.15314 270.3781Q269.45 270.28436 270.09064 270.20624Q271.35626 270.0656 271.96564 269.84686Q271.96564 269.6281 271.96564 269.58124Q271.96564 268.925 271.66876 268.65936Q271.2625 268.3156 270.46564 268.3156Q269.73126 268.3156 269.3719 268.58124Q269.0125 268.83124 268.84064 269.4875L267.8094 269.34686Q267.95 268.6906 268.27814 268.28436Q268.60626 267.8781 269.21564 267.65936Q269.825 267.4406 270.6219 267.4406Q271.41876 267.4406 271.91876 267.6281Q272.41876 267.8156 272.65314 268.09686Q272.8875 268.3781 272.98126 268.8156Q273.02814 269.08124 273.02814 269.78436L273.02814 271.1906Q273.02814 272.65936 273.09064 273.05Q273.16876 273.4406 273.3719 273.8L272.2625 273.8Q272.10626 273.47186 272.0594 273.03436ZM271.96564 270.675Q271.3875 270.90936 270.2469 271.08124Q269.59064 271.175 269.325 271.3Q269.0594 271.40936 268.90314 271.6281Q268.7625 271.84686 268.7625 272.1281Q268.7625 272.55 269.075 272.83124Q269.40314 273.1125 270.0125 273.1125Q270.6219 273.1125 271.09064 272.84686Q271.575 272.58124 271.79376 272.1125Q271.96564 271.7531 271.96564 271.0656L271.96564 270.675ZM277.29376 272.8625L277.45 273.78436Q276.9969 273.8781 276.65314 273.8781Q276.075 273.8781 275.7625 273.70624Q275.45 273.51874 275.3094 273.22186Q275.1844 272.925 275.1844 271.97186L275.1844 268.39374L274.41876 268.39374L274.41876 267.58124L275.1844 267.58124L275.1844 266.03436L276.23126 265.40936L276.23126 267.58124L277.29376 267.58124L277.29376 268.39374L276.23126 268.39374L276.23126 272.03436Q276.23126 272.4875 276.27814 272.6125Q276.34064 272.7375 276.46564 272.8156Q276.59064 272.89374 276.825 272.89374Q277.0125 272.89374 277.29376 272.8625ZM280.29376 272.8625L280.45 273.78436Q279.9969 273.8781 279.65314 273.8781Q279.075 273.8781 278.7625 273.70624Q278.45 273.51874 278.3094 273.22186Q278.1844 272.925 278.1844 271.97186L278.1844 268.39374L277.41876 268.39374L277.41876 267.58124L278.1844 267.58124L278.1844 266.03436L279.23126 265.40936L279.23126 267.58124L280.29376 267.58124L280.29376 268.39374L279.23126 268.39374L279.23126 272.03436Q279.23126 272.4875 279.27814 272.6125Q279.34064 272.7375 279.46564 272.8156Q279.59064 272.89374 279.825 272.89374Q280.0125 272.89374 280.29376 272.8625ZM280.9969 266.425L280.9969 265.20624L282.0594 265.20624L282.0594 266.425L280.9969 266.425ZM280.9969 273.8L280.9969 267.58124L282.0594 267.58124L282.0594 273.8L280.9969 273.8Z" fill-rule="nonzero"/><path fill="#757575" d="M16.746876 34.2L16.746876 19.8875L22.1375 19.8875Q23.575 19.8875 24.325 20.0125Q25.371876 20.2 26.090626 20.7Q26.809376 21.184376 27.23125 22.075Q27.66875 22.965626 27.66875 24.028126Q27.66875 25.85625 26.496876 27.121876Q25.340626 28.371876 22.309376 28.371876L18.6375 28.371876L18.6375 34.2L16.746876 34.2ZM18.6375 26.684376L22.340626 26.684376Q24.16875 26.684376 24.934376 26.0125Q25.715626 25.325 25.715626 24.075Q25.715626 23.184376 25.2625 22.54375Q24.809376 21.903126 24.075 21.7Q23.590626 21.575 22.29375 21.575L18.6375 21.575L18.6375 26.684376ZM36.621876 30.85625L38.434376 31.090626Q38.0125 32.66875 36.840626 33.559376Q35.684376 34.434376 33.871876 34.434376Q31.60625 34.434376 30.2625 33.04375Q28.934376 31.6375 28.934376 29.10625Q28.934376 26.48125 30.278126 25.04375Q31.621876 23.590626 33.778126 23.590626Q35.85625 23.590626 37.16875 25.0125Q38.496876 26.41875 38.496876 28.996876Q38.496876 29.153126 38.48125 29.465626L30.746876 29.465626Q30.840626 31.16875 31.715626 32.075Q32.590626 32.98125 33.8875 32.98125Q34.85625 32.98125 35.528126 32.48125Q36.215626 31.965626 36.621876 30.85625ZM30.840626 28.0125L36.6375 28.0125Q36.528126 26.715626 35.98125 26.059376Q35.1375 25.04375 33.79375 25.04375Q32.590626 25.04375 31.7625 25.85625Q30.934376 26.653126 30.840626 28.0125ZM40.496876 34.2L40.496876 23.825L42.075 23.825L42.075 25.403126Q42.684376 24.29375 43.2 23.95Q43.715626 23.590626 44.325 23.590626Q45.215626 23.590626 46.1375 24.153126L45.528126 25.79375Q44.8875 25.403126 44.246876 25.403126Q43.66875 25.403126 43.2 25.7625Q42.746876 26.10625 42.54375 26.715626Q42.2625 27.653126 42.2625 28.7625L42.2625 34.2L40.496876 34.2ZM54.29375 30.403126L56.0125 30.621876Q55.73125 32.41875 54.559376 33.434376Q53.403126 34.434376 51.7 34.434376Q49.575 34.434376 48.278126 33.04375Q46.98125 31.653126 46.98125 29.059376Q46.98125 27.371876 47.528126 26.121876Q48.090626 24.85625 49.23125 24.23125Q50.371876 23.590626 51.715626 23.590626Q53.403126 23.590626 54.465626 24.45Q55.54375 25.309376 55.85625 26.871876L54.1375 27.1375Q53.903126 26.090626 53.278126 25.575Q52.653126 25.04375 51.778126 25.04375Q50.45 25.04375 49.621876 25.996876Q48.79375 26.95 48.79375 28.996876Q48.79375 31.090626 49.590626 32.04375Q50.3875 32.98125 51.684376 32.98125Q52.715626 32.98125 53.403126 32.35625Q54.10625 31.715626 54.29375 30.403126ZM57.5125 34.2L57.5125 19.8875L59.278126 19.8875L59.278126 25.0125Q60.5125 23.590626 62.3875 23.590626Q63.528126 23.590626 64.37187 24.04375Q65.23125 24.496876 65.59062 25.309376Q65.96562 26.10625 65.96562 27.621876L65.96562 34.2L64.21562 34.2L64.21562 27.621876Q64.21562 26.309376 63.6375 25.715626Q63.059376 25.10625 62.028126 25.10625Q61.246876 25.10625 60.54375 25.5125Q59.85625 25.91875 59.559376 26.621876Q59.278126 27.309376 59.278126 28.528126L59.278126 34.2L57.5125 34.2ZM74.62187 30.85625L76.43437 31.090626Q76.0125 32.66875 74.84062 33.559376Q73.68437 34.434376 71.87187 34.434376Q69.60625 34.434376 68.2625 33.04375Q66.93437 31.6375 66.93437 29.10625Q66.93437 26.48125 68.27812 25.04375Q69.62187 23.590626 71.77812 23.590626Q73.85625 23.590626 75.16875 25.0125Q76.49687 26.41875 76.49687 28.996876Q76.49687 29.153126 76.48125 29.465626L68.74687 29.465626Q68.84062 31.16875 69.71562 32.075Q70.59062 32.98125 71.8875 32.98125Q72.85625 32.98125 73.52812 32.48125Q74.21562 31.965626 74.62187 30.85625ZM68.84062 28.0125L74.6375 28.0125Q74.52812 26.715626 73.98125 26.059376Q73.1375 25.04375 71.79375 25.04375Q70.59062 25.04375 69.7625 25.85625Q68.93437 26.653126 68.84062 28.0125ZM70.74687 22.54375L72.04375 19.809376L74.34062 19.809376L72.2 22.54375L70.74687 22.54375ZM84.5125 34.2L84.5125 23.825L86.10625 23.825L86.10625 25.309376Q87.24687 23.590626 89.40312 23.590626Q90.34062 23.590626 91.12187 23.934376Q91.91875 24.2625 92.30937 24.809376Q92.7 25.35625 92.85625 26.10625Q92.95 26.60625 92.95 27.825L92.95 34.2L91.18437 34.2L91.18437 27.8875Q91.18437 26.809376 90.98125 26.278126Q90.77812 25.746876 90.24687 25.434376Q89.73125 25.121876 89.02812 25.121876Q87.90312 25.121876 87.09062 25.840626Q86.27812 26.54375 86.27812 28.528126L86.27812 34.2L84.5125 34.2ZM93.87187 29.0125Q93.87187 26.1375 95.46562 24.746876Q96.80937 23.590626 98.73125 23.590626Q100.87187 23.590626 102.21562 24.996876Q103.575 26.403126 103.575 28.871876Q103.575 30.871876 102.98125 32.028126Q102.3875 33.16875 101.23125 33.809376Q100.09062 34.434376 98.73125 34.434376Q96.54375 34.434376 95.2 33.04375Q93.87187 31.6375 93.87187 29.0125ZM95.66875 29.0125Q95.66875 31.0125 96.52812 31.996876Q97.40312 32.98125 98.73125 32.98125Q100.04375 32.98125 100.90312 31.996876Q101.77812 30.996876 101.77812 28.95Q101.77812 27.028126 100.90312 26.04375Q100.02812 25.04375 98.73125 25.04375Q97.40312 25.04375 96.52812 26.04375Q95.66875 27.028126 95.66875 29.0125ZM105.5125 34.2L105.5125 23.825L107.10625 23.825L107.10625 25.309376Q108.24687 23.590626 110.40312 23.590626Q111.34062 23.590626 112.12187 23.934376Q112.91875 24.2625 113.30937 24.809376Q113.7 25.35625 113.85625 26.10625Q113.95 26.60625 113.95 27.825L113.95 34.2L112.18437 34.2L112.18437 27.8875Q112.18437 26.809376 111.98125 26.278126Q111.77812 25.746876 111.24687 25.434376Q110.73125 25.121876 110.02812 25.121876Q108.90312 25.121876 108.09062 25.840626Q107.27812 26.54375 107.27812 28.528126L107.27812 34.2L105.5125 34.2ZM121.5125 34.2L121.5125 19.8875L123.27812 19.8875L123.27812 25.0125Q124.5125 23.590626 126.3875 23.590626Q127.52812 23.590626 128.37187 24.04375Q129.23125 24.496876 129.59062 25.309376Q129.96562 26.10625 129.96562 27.621876L129.96562 34.2L128.21562 34.2L128.21562 27.621876Q128.21562 26.309376 127.6375 25.715626Q127.05937 25.10625 126.02812 25.10625Q125.24687 25.10625 124.54375 25.5125Q123.85625 25.91875 123.55937 26.621876Q123.27812 27.309376 123.27812 28.528126L123.27812 34.2L121.5125 34.2ZM138.29375 32.91875Q137.30937 33.746876 136.40312 34.090626Q135.49687 34.434376 134.46562 34.434376Q132.7625 34.434376 131.84062 33.60625Q130.91875 32.7625 130.91875 31.465626Q130.91875 30.7 131.2625 30.075Q131.62187 29.45 132.18437 29.075Q132.74687 28.684376 133.45 28.48125Q133.96562 28.35625 135.0125 28.215626Q137.1375 27.965626 138.1375 27.621876Q138.15312 27.2625 138.15312 27.153126Q138.15312 26.090626 137.65312 25.6375Q136.98125 25.04375 135.65312 25.04375Q134.40312 25.04375 133.80937 25.48125Q133.23125 25.91875 132.95 27.028126L131.23125 26.79375Q131.46562 25.684376 131.99687 25.0125Q132.52812 24.325 133.54375 23.965626Q134.55937 23.590626 135.90312 23.590626Q137.23125 23.590626 138.05937 23.903126Q138.8875 24.215626 139.27812 24.7Q139.66875 25.16875 139.825 25.8875Q139.91875 26.340626 139.91875 27.5125L139.91875 29.85625Q139.91875 32.309376 140.02812 32.965626Q140.1375 33.60625 140.48125 34.2L138.6375 34.2Q138.37187 33.653126 138.29375 32.91875ZM138.1375 28.996876Q137.18437 29.3875 135.2625 29.653126Q134.18437 29.809376 133.73125 30.0125Q133.29375 30.2 133.04375 30.575Q132.79375 30.95 132.79375 31.41875Q132.79375 32.121876 133.325 32.590626Q133.85625 33.059376 134.8875 33.059376Q135.90312 33.059376 136.68437 32.621876Q137.48125 32.16875 137.85625 31.403126Q138.1375 30.79375 138.1375 29.6375L138.1375 28.996876ZM155.30937 34.2L155.30937 32.66875Q154.10625 34.434376 152.02812 34.434376Q151.10625 34.434376 150.30937 34.090626Q149.5125 33.73125 149.12187 33.2Q148.74687 32.66875 148.59062 31.8875Q148.48125 31.371876 148.48125 30.246876L148.48125 23.825L150.23125 23.825L150.23125 29.575Q150.23125 30.95 150.34062 31.434376Q150.5125 32.121876 151.04375 32.528126Q151.59062 32.91875 152.37187 32.91875Q153.16875 32.91875 153.85625 32.5125Q154.55937 32.10625 154.84062 31.41875Q155.1375 30.715626 155.1375 29.3875L155.1375 23.825L156.8875 23.825L156.8875 34.2L155.30937 34.2ZM157.80937 31.10625L159.55937 30.825Q159.7 31.871876 160.37187 32.434376Q161.04375 32.98125 162.24687 32.98125Q163.45 32.98125 164.02812 32.496876Q164.62187 31.996876 164.62187 31.340626Q164.62187 30.746876 164.10625 30.403126Q163.74687 30.16875 162.30937 29.809376Q160.37187 29.309376 159.62187 28.965626Q158.8875 28.60625 158.49687 27.98125Q158.10625 27.340626 158.10625 26.575Q158.10625 25.8875 158.41875 25.29375Q158.74687 24.7 159.29375 24.309376Q159.7 24.0125 160.40312 23.809376Q161.12187 23.590626 161.93437 23.590626Q163.15312 23.590626 164.075 23.95Q164.99687 24.29375 165.43437 24.903126Q165.87187 25.496876 166.04375 26.496876L164.325 26.73125Q164.2 25.934376 163.6375 25.496876Q163.075 25.04375 162.05937 25.04375Q160.84062 25.04375 160.325 25.45Q159.80937 25.840626 159.80937 26.371876Q159.80937 26.715626 160.02812 26.996876Q160.23125 27.278126 160.7 27.465626Q160.96562 27.559376 162.24687 27.903126Q164.12187 28.403126 164.85625 28.73125Q165.59062 29.04375 166.0125 29.653126Q166.43437 30.246876 166.43437 31.153126Q166.43437 32.028126 165.91875 32.809376Q165.40312 33.590626 164.43437 34.0125Q163.46562 34.434376 162.24687 34.434376Q160.23125 34.434376 159.16875 33.590626Q158.10625 32.746876 157.80937 31.10625ZM175.30937 34.2L175.30937 32.66875Q174.10625 34.434376 172.02812 34.434376Q171.10625 34.434376 170.30937 34.090626Q169.5125 33.73125 169.12187 33.2Q168.74687 32.66875 168.59062 31.8875Q168.48125 31.371876 168.48125 30.246876L168.48125 23.825L170.23125 23.825L170.23125 29.575Q170.23125 30.95 170.34062 31.434376Q170.5125 32.121876 171.04375 32.528126Q171.59062 32.91875 172.37187 32.91875Q173.16875 32.91875 173.85625 32.5125Q174.55937 32.10625 174.84062 31.41875Q175.1375 30.715626 175.1375 29.3875L175.1375 23.825L176.8875 23.825L176.8875 34.2L175.30937 34.2ZM178.93437 34.2L178.93437 25.2L177.3875 25.2L177.3875 23.825L178.93437 23.825L178.93437 22.73125Q178.93437 21.684376 179.12187 21.16875Q179.37187 20.48125 180.0125 20.059376Q180.65312 19.6375 181.80937 19.6375Q182.55937 19.6375 183.45 19.809376L183.18437 21.340626Q182.6375 21.246876 182.15312 21.246876Q181.35625 21.246876 181.0125 21.590626Q180.68437 21.934376 180.68437 22.871876L180.68437 23.825L182.71562 23.825L182.71562 25.2L180.68437 25.2L180.68437 34.2L178.93437 34.2ZM184.49687 34.2L184.49687 23.825L186.075 23.825L186.075 25.403126Q186.68437 24.29375 187.2 23.95Q187.71562 23.590626 188.325 23.590626Q189.21562 23.590626 190.1375 24.153126L189.52812 25.79375Q188.8875 25.403126 188.24687 25.403126Q187.66875 25.403126 187.2 25.7625Q186.74687 26.10625 186.54375 26.715626Q186.2625 27.653126 186.2625 28.7625L186.2625 34.2L184.49687 34.2ZM198.30937 34.2L198.30937 32.66875Q197.10625 34.434376 195.02812 34.434376Q194.10625 34.434376 193.30937 34.090626Q192.5125 33.73125 192.12187 33.2Q191.74687 32.66875 191.59062 31.8875Q191.48125 31.371876 191.48125 30.246876L191.48125 23.825L193.23125 23.825L193.23125 29.575Q193.23125 30.95 193.34062 31.434376Q193.5125 32.121876 194.04375 32.528126Q194.59062 32.91875 195.37187 32.91875Q196.16875 32.91875 196.85625 32.5125Q197.55937 32.10625 197.84062 31.41875Q198.1375 30.715626 198.1375 29.3875L198.1375 23.825L199.8875 23.825L199.8875 34.2L198.30937 34.2ZM201.52812 21.903126L201.52812 19.8875L203.29375 19.8875L203.29375 21.903126L201.52812 21.903126ZM201.52812 34.2L201.52812 23.825L203.29375 23.825L203.29375 34.2L201.52812 34.2ZM209.35625 32.621876L209.60625 34.184376Q208.87187 34.340626 208.27812 34.340626Q207.325 34.340626 206.79375 34.04375Q206.27812 33.73125 206.05937 33.246876Q205.84062 32.746876 205.84062 31.16875L205.84062 25.2L204.55937 25.2L204.55937 23.825L205.84062 23.825L205.84062 21.2625L207.59062 20.2L207.59062 23.825L209.35625 23.825L209.35625 25.2L207.59062 25.2L207.59062 31.2625Q207.59062 32.0125 207.68437 32.23125Q207.77812 32.434376 207.98125 32.575Q208.2 32.7 208.59062 32.7Q208.87187 32.7 209.35625 32.621876ZM210.87187 29.0125Q210.87187 26.1375 212.46562 24.746876Q213.80937 23.590626 215.73125 23.590626Q217.87187 23.590626 219.21562 24.996876Q220.575 26.403126 220.575 28.871876Q220.575 30.871876 219.98125 32.028126Q219.3875 33.16875 218.23125 33.809376Q217.09062 34.434376 215.73125 34.434376Q213.54375 34.434376 212.2 33.04375Q210.87187 31.6375 210.87187 29.0125ZM212.66875 29.0125Q212.66875 31.0125 213.52812 31.996876Q214.40312 32.98125 215.73125 32.98125Q217.04375 32.98125 217.90312 31.996876Q218.77812 30.996876 218.77812 28.95Q218.77812 27.028126 217.90312 26.04375Q217.02812 25.04375 215.73125 25.04375Q214.40312 25.04375 213.52812 26.04375Q212.66875 27.028126 212.66875 29.0125ZM235.24687 34.2L235.24687 32.8875Q234.2625 34.434376 232.34062 34.434376Q231.10625 34.434376 230.05937 33.746876Q229.02812 33.059376 228.45 31.840626Q227.8875 30.621876 227.8875 29.028126Q227.8875 27.465626 228.40312 26.2Q228.91875 24.934376 229.95 24.2625Q230.99687 23.590626 232.2625 23.590626Q233.2 23.590626 233.93437 23.996876Q234.66875 24.3875 235.1375 25.0125L235.1375 19.8875L236.87187 19.8875L236.87187 34.2L235.24687 34.2ZM229.68437 29.028126Q229.68437 31.0125 230.52812 31.996876Q231.37187 32.98125 232.5125 32.98125Q233.66875 32.98125 234.46562 32.04375Q235.27812 31.10625 235.27812 29.16875Q235.27812 27.04375 234.45 26.04375Q233.6375 25.04375 232.43437 25.04375Q231.2625 25.04375 230.46562 26.0125Q229.68437 26.965626 229.68437 29.028126ZM246.62187 30.85625L248.43437 31.090626Q248.0125 32.66875 246.84062 33.559376Q245.68437 34.434376 243.87187 34.434376Q241.60625 34.434376 240.2625 33.04375Q238.93437 31.6375 238.93437 29.10625Q238.93437 26.48125 240.27812 25.04375Q241.62187 23.590626 243.77812 23.590626Q245.85625 23.590626 247.16875 25.0125Q248.49687 26.41875 248.49687 28.996876Q248.49687 29.153126 248.48125 29.465626L240.74687 29.465626Q240.84062 31.16875 241.71562 32.075Q242.59062 32.98125 243.8875 32.98125Q244.85625 32.98125 245.52812 32.48125Q246.21562 31.965626 246.62187 30.85625ZM240.84062 28.0125L246.6375 28.0125Q246.52812 26.715626 245.98125 26.059376Q245.1375 25.04375 243.79375 25.04375Q242.59062 25.04375 241.7625 25.85625Q240.93437 26.653126 240.84062 28.0125ZM250.48125 34.2L250.48125 19.8875L252.23125 19.8875L252.23125 34.2L250.48125 34.2ZM260.4969 34.2L260.4969 23.825L262.075 23.825L262.075 25.403126Q262.6844 24.29375 263.2 23.95Q263.71564 23.590626 264.325 23.590626Q265.21564 23.590626 266.1375 24.153126L265.52814 25.79375Q264.8875 25.403126 264.2469 25.403126Q263.66876 25.403126 263.2 25.7625Q262.7469 26.10625 262.54376 26.715626Q262.2625 27.653126 262.2625 28.7625L262.2625 34.2L260.4969 34.2ZM267.52814 21.903126L267.52814 19.8875L269.29376 19.8875L269.29376 21.903126L267.52814 21.903126ZM267.52814 34.2L267.52814 23.825L269.29376 23.825L269.29376 34.2L267.52814 34.2ZM278.29376 30.403126L280.0125 30.621876Q279.73126 32.41875 278.5594 33.434376Q277.40314 34.434376 275.7 34.434376Q273.575 34.434376 272.27814 33.04375Q270.98126 31.653126 270.98126 29.059376Q270.98126 27.371876 271.52814 26.121876Q272.09064 24.85625 273.23126 24.23125Q274.3719 23.590626 275.71564 23.590626Q277.40314 23.590626 278.46564 24.45Q279.54376 25.309376 279.85626 26.871876L278.1375 27.1375Q277.90314 26.090626 277.27814 25.575Q276.65314 25.04375 275.77814 25.04375Q274.45 25.04375 273.6219 25.996876Q272.79376 26.95 272.79376 28.996876Q272.79376 31.090626 273.59064 32.04375Q274.3875 32.98125 275.6844 32.98125Q276.71564 32.98125 277.40314 32.35625Q278.10626 31.715626 278.29376 30.403126ZM288.6219 30.85625L290.4344 31.090626Q290.0125 32.66875 288.84064 33.559376Q287.6844 34.434376 285.8719 34.434376Q283.60626 34.434376 282.2625 33.04375Q280.9344 31.6375 280.9344 29.10625Q280.9344 26.48125 282.27814 25.04375Q283.6219 23.590626 285.77814 23.590626Q287.85626 23.590626 289.16876 25.0125Q290.4969 26.41875 290.4969 28.996876Q290.4969 29.153126 290.48126 29.465626L282.7469 29.465626Q282.84064 31.16875 283.71564 32.075Q284.59064 32.98125 285.8875 32.98125Q286.85626 32.98125 287.52814 32.48125Q288.21564 31.965626 288.6219 30.85625ZM282.84064 28.0125L288.6375 28.0125Q288.52814 26.715626 287.98126 26.059376Q287.1375 25.04375 285.79376 25.04375Q284.59064 25.04375 283.7625 25.85625Q282.9344 26.653126 282.84064 28.0125ZM295.40314 34.2L291.45 23.825L293.3094 23.825L295.54376 30.04375Q295.90314 31.04375 296.2 32.121876Q296.4344 31.309376 296.85626 30.153126L299.15314 23.825L300.96564 23.825L297.04376 34.2L295.40314 34.2ZM301.52814 21.903126L301.52814 19.8875L303.29376 19.8875L303.29376 21.903126L301.52814 21.903126ZM301.52814 34.2L301.52814 23.825L303.29376 23.825L303.29376 34.2L301.52814 34.2ZM305.5125 34.2L305.5125 23.825L307.09064 23.825L307.09064 25.278126Q307.575 24.528126 308.3875 24.059376Q309.2 23.590626 310.23126 23.590626Q311.3875 23.590626 312.1219 24.075Q312.85626 24.54375 313.16876 25.403126Q314.40314 23.590626 316.3719 23.590626Q317.91876 23.590626 318.7469 24.45Q319.575 25.309376 319.575 27.075L319.575 34.2L317.825 34.2L317.825 27.66875Q317.825 26.60625 317.65314 26.153126Q317.48126 25.684376 317.02814 25.403126Q316.59064 25.121876 315.98126 25.121876Q314.8875 25.121876 314.15314 25.85625Q313.4344 26.575 313.4344 28.16875L313.4344 34.2L311.6844 34.2L311.6844 27.465626Q311.6844 26.29375 311.2469 25.715626Q310.825 25.121876 309.84064 25.121876Q309.10626 25.121876 308.46564 25.5125Q307.84064 25.903126 307.5594 26.653126Q307.27814 27.403126 307.27814 28.825L307.27814 34.2L305.5125 34.2ZM328.6219 30.85625L330.4344 31.090626Q330.0125 32.66875 328.84064 33.559376Q327.6844 34.434376 325.8719 34.434376Q323.60626 34.434376 322.2625 33.04375Q320.9344 31.6375 320.9344 29.10625Q320.9344 26.48125 322.27814 25.04375Q323.6219 23.590626 325.77814 23.590626Q327.85626 23.590626 329.16876 25.0125Q330.4969 26.41875 330.4969 28.996876Q330.4969 29.153126 330.48126 29.465626L322.7469 29.465626Q322.84064 31.16875 323.71564 32.075Q324.59064 32.98125 325.8875 32.98125Q326.85626 32.98125 327.52814 32.48125Q328.21564 31.965626 328.6219 30.85625ZM322.84064 28.0125L328.6375 28.0125Q328.52814 26.715626 327.98126 26.059376Q327.1375 25.04375 325.79376 25.04375Q324.59064 25.04375 323.7625 25.85625Q322.9344 26.653126 322.84064 28.0125ZM332.5125 34.2L332.5125 23.825L334.10626 23.825L334.10626 25.309376Q335.2469 23.590626 337.40314 23.590626Q338.34064 23.590626 339.1219 23.934376Q339.91876 24.2625 340.3094 24.809376Q340.7 25.35625 340.85626 26.10625Q340.95 26.60625 340.95 27.825L340.95 34.2L339.1844 34.2L339.1844 27.8875Q339.1844 26.809376 338.98126 26.278126Q338.77814 25.746876 338.2469 25.434376Q337.73126 25.121876 337.02814 25.121876Q335.90314 25.121876 335.09064 25.840626Q334.27814 26.54375 334.27814 28.528126L334.27814 34.2L332.5125 34.2ZM346.35626 32.621876L346.60626 34.184376Q345.8719 34.340626 345.27814 34.340626Q344.325 34.340626 343.79376 34.04375Q343.27814 33.73125 343.0594 33.246876Q342.84064 32.746876 342.84064 31.16875L342.84064 25.2L341.5594 25.2L341.5594 23.825L342.84064 23.825L342.84064 21.2625L344.59064 20.2L344.59064 23.825L346.35626 23.825L346.35626 25.2L344.59064 25.2L344.59064 31.2625Q344.59064 32.0125 344.6844 32.23125Q344.77814 32.434376 344.98126 32.575Q345.2 32.7 345.59064 32.7Q345.8719 32.7 346.35626 32.621876ZM347.8719 29.0125Q347.8719 26.1375 349.46564 24.746876Q350.8094 23.590626 352.73126 23.590626Q354.8719 23.590626 356.21564 24.996876Q357.575 26.403126 357.575 28.871876Q357.575 30.871876 356.98126 32.028126Q356.3875 33.16875 355.23126 33.809376Q354.09064 34.434376 352.73126 34.434376Q350.54376 34.434376 349.2 33.04375Q347.8719 31.6375 347.8719 29.0125ZM349.66876 29.0125Q349.66876 31.0125 350.52814 31.996876Q351.40314 32.98125 352.73126 32.98125Q354.04376 32.98125 354.90314 31.996876Q355.77814 30.996876 355.77814 28.95Q355.77814 27.028126 354.90314 26.04375Q354.02814 25.04375 352.73126 25.04375Q351.40314 25.04375 350.52814 26.04375Q349.66876 27.028126 349.66876 29.0125ZM362.8094 30.66875Q362.79376 30.325 362.79376 30.153126Q362.79376 29.10625 363.09064 28.35625Q363.3094 27.79375 363.79376 27.215626Q364.1375 26.79375 365.04376 25.996876Q365.96564 25.184376 366.23126 24.715626Q366.5125 24.23125 366.5125 23.66875Q366.5125 22.6375 365.7 21.871876Q364.90314 21.090626 363.7469 21.090626Q362.6219 21.090626 361.8719 21.79375Q361.1219 22.496876 360.8875 23.98125L359.075 23.7625Q359.325 21.7625 360.52814 20.7Q361.73126 19.6375 363.71564 19.6375Q365.825 19.6375 367.075 20.778126Q368.325 21.91875 368.325 23.54375Q368.325 24.48125 367.8719 25.278126Q367.4344 26.059376 366.15314 27.2Q365.29376 27.965626 365.02814 28.325Q364.77814 28.684376 364.6375 29.153126Q364.5125 29.621876 364.4969 30.66875L362.8094 30.66875ZM362.7 34.2L362.7 32.2L364.7 32.2L364.7 34.2L362.7 34.2Z" fill-rule="nonzero"/></svg>